<svg viewBox="0 0 1000 500" xmlns="http://www.w3.org/2000/svg" xml:space="preserve" style="fill-rule:evenodd;clip-rule:evenodd;stroke-linejoin:round;stroke-miterlimit:2"><path d="M1112.43 726.435H807.565l28.441-304.87h276.424v304.87Z" style="fill:url(#a)" transform="matrix(3.28009 0 0 .79945 -2648.88 -101.021)"/><path d="M1112.43 726.435H807.565l28.441-304.87h276.424v304.87Zm-.6-2.502H808.451l27.974-299.866h275.405v299.866Z" style="fill:url(#b)" transform="matrix(3.28009 0 0 .79945 -2648.88 -101.021)"/><g transform="matrix(.31875 0 0 .34528 -112.004 -107.729)"><g transform="matrix(1 0 0 1.35514 0 -373.639)"><path d="M2337.05 1293.39v28.99c0 5.02-2 10-5.9 14.29-6.45 7.08-17.26 11.33-28.82 11.33h-764.66c-11.56 0-22.37-4.25-28.82-11.33-3.9-4.29-5.9-9.27-5.9-14.29v-28.99h834.1Z" style="fill:#ef802a"/><clipPath id="c"><path d="M2337.05 1293.39v28.99c0 5.02-2 10-5.9 14.29-6.45 7.08-17.26 11.33-28.82 11.33h-764.66c-11.56 0-22.37-4.25-28.82-11.33-3.9-4.29-5.9-9.27-5.9-14.29v-28.99h834.1Z"/></clipPath><g clip-path="url(#c)"><path d="M2337.05 1418.46c0 9.18-3.65 17.99-10.14 24.49a34.67 34.67 0 0 1-24.49 10.14H1816v-74h521.05v39.37Z" style="fill:url(#d)" transform="matrix(1 0 0 .73793 0 275.72)"/></g><path d="M2337.05 1293.39v28.99c0 5.02-2 10-5.9 14.29-6.45 7.08-17.26 11.33-28.82 11.33h-764.66c-11.56 0-22.37-4.25-28.82-11.33-3.9-4.29-5.9-9.27-5.9-14.29v-28.99h834.1Zm-8.37 5.7v23.29c0 3.96-1.56 7.9-4.64 11.28-4.88 5.36-12.97 8.64-21.71 8.64h-764.66c-8.74 0-16.83-3.28-21.71-8.64-3.08-3.38-4.64-7.32-4.64-11.28v-23.29h817.36Z" style="fill:url(#e)"/></g><g transform="matrix(1 0 0 1.35514 0 -412.639)"><path d="M2334.47 1312.7c4.37 7.9 3.13 16.89-3.32 23.97-1.78 1.95-3.87 3.68-6.22 5.17-6.19 3.93-14.14 6.16-22.6 6.16h-764.66c-11.56 0-22.37-4.25-28.82-11.33-6.45-7.08-7.69-16.07-3.32-23.97 26.04-47.09 71.07-128.49 90.03-162.76 5.33-9.64 18.03-15.94 32.14-15.94h584.6c14.11 0 26.81 6.3 32.15 15.94 18.95 34.27 63.98 115.67 90.02 162.76Z" style="fill:url(#f)"/><clipPath id="g"><path d="M2334.47 1312.7c4.37 7.9 3.13 16.89-3.32 23.97-1.78 1.95-3.87 3.68-6.22 5.17-6.19 3.93-14.14 6.16-22.6 6.16h-764.66c-11.56 0-22.37-4.25-28.82-11.33-6.45-7.08-7.69-16.07-3.32-23.97 26.04-47.09 71.07-128.49 90.03-162.76 5.33-9.64 18.03-15.94 32.14-15.94h584.6c14.11 0 26.81 6.3 32.15 15.94 18.95 34.27 63.98 115.67 90.02 162.76Z"/></clipPath><g clip-path="url(#g)"><path d="m2015 1158.84-178.43.25-11.57 42.6v177.4h190v-220.25Z" style="fill:url(#h)" transform="matrix(2.7226 0 .73864 .54527 -4171.39 596.026)"/></g><path d="M2334.47 1312.7c4.37 7.9 3.13 16.89-3.32 23.97-1.78 1.95-3.87 3.68-6.22 5.17-6.19 3.93-14.14 6.16-22.6 6.16h-764.66c-11.56 0-22.37-4.25-28.82-11.33-6.45-7.08-7.69-16.07-3.32-23.97 26.04-47.09 71.07-128.49 90.03-162.76 5.33-9.64 18.03-15.94 32.14-15.94h584.6c14.11 0 26.81 6.3 32.15 15.94 18.95 34.27 63.98 115.67 90.02 162.76Zm-7.83 2.01c3.46 6.24 2.5 13.35-2.6 18.95a23.516 23.516 0 0 1-4.81 4.01c-4.63 2.94-10.57 4.63-16.9 4.63h-764.66c-8.74 0-16.83-3.28-21.71-8.64-5.1-5.6-6.06-12.71-2.6-18.95 26.04-47.09 71.07-128.49 90.02-162.76 4.06-7.33 13.59-12.25 24.32-12.25h584.6c10.73 0 20.26 4.92 24.32 12.25 18.95 34.27 63.98 115.67 90.02 162.76Z" style="fill:url(#i)"/></g><path d="M1847.85 640.538c2.82-12.042 34.07-21.544 72.15-21.544 38.08 0 69.33 9.502 72.15 21.544l177.37 605.322a31.91 31.91 0 0 1 1.27 8.9c0 44.61-112.37 80.83-250.79 80.83s-250.79-36.22-250.79-80.83c0-3.01.43-6.01 1.27-8.9l177.37-605.322Z" style="fill:url(#j)"/><clipPath id="k"><path d="M1847.85 640.538c2.82-12.042 34.07-21.544 72.15-21.544 38.08 0 69.33 9.502 72.15 21.544l177.37 605.322a31.91 31.91 0 0 1 1.27 8.9c0 44.61-112.37 80.83-250.79 80.83s-250.79-36.22-250.79-80.83c0-3.01.43-6.01 1.27-8.9l177.37-605.322Z"/></clipPath><g clip-path="url(#k)"><path d="M2131.12 1100.8c0 36.82-94.6 66.71-211.12 66.71-116.52 0-211.08-29.89-211.08-66.71l33.69-112.754c0 30.954 79.43 56.084 177.39 56.084 97.96 0 177.39-25.13 177.39-56.084l33.73 112.754Z" style="fill:url(#l)" transform="matrix(1.01487 0 0 1.0351 -28.55 -14.027)"/><path d="M2130.9 1100.8c0 36.82-94.38 66.71-210.9 66.71-116.52 0-210.9-29.89-210.9-66.71l52.72-176.411c0 27.678 70.59 50.149 158.18 50.149s158.18-22.471 158.18-50.149l52.72 176.411Z" style="fill:url(#m)" transform="matrix(.68295 0 0 .69656 608.741 119.095)"/></g><path d="M1847.85 640.538c2.82-12.042 34.07-21.544 72.15-21.544 38.08 0 69.33 9.502 72.15 21.544l177.37 605.322a31.91 31.91 0 0 1 1.27 8.9c0 44.61-112.37 80.83-250.79 80.83s-250.79-36.22-250.79-80.83c0-3.01.43-6.01 1.27-8.9l177.37-605.322Zm8.07 2.017c.04-.128.08-.257.11-.386.23-.992 1.15-1.794 2.25-2.679 2.12-1.71 5.04-3.243 8.56-4.658 12.47-5.02 31.67-8.115 53.16-8.115 21.49 0 40.69 3.095 53.16 8.115 3.52 1.415 6.44 2.948 8.56 4.658 1.1.885 2.02 1.687 2.25 2.679.03.129.07.258.11.386l177.36 605.325c.66 2.23.99 4.55.99 6.88 0 7.11-3.88 13.81-10.48 20.21-7.72 7.46-19.02 14.33-33.17 20.54-44.83 19.71-117.22 32.36-198.78 32.36s-153.95-12.65-198.78-32.36c-14.15-6.21-25.45-13.08-33.17-20.54-6.61-6.4-10.48-13.1-10.48-20.21 0-2.33.33-4.65.99-6.88l177.36-605.325Z" style="fill:url(#n)"/><g transform="matrix(.28943 0 0 .2952 1364.29 275.971)"><ellipse cx="1920" cy="1241" rx="250" ry="79" style="fill:url(#o)"/><path d="M1920 1162c137.98 0 250 35.4 250 79s-112.02 79-250 79c-137.98 0-250-35.4-250-79s112.02-79 250-79Zm0 26.16c77.65 0 146.63 11.42 189.31 29.82 11.46 4.94 20.77 10.19 27.03 16.12 2.44 2.32 4.76 4.32 4.76 6.9s-2.32 4.58-4.76 6.9c-6.26 5.93-15.57 11.18-27.03 16.12-42.68 18.4-111.66 29.82-189.31 29.82s-146.63-11.42-189.31-29.82c-11.46-4.94-20.77-10.19-27.03-16.12-2.44-2.32-4.76-4.32-4.76-6.9s2.32-4.58 4.76-6.9c6.26-5.93 15.57-11.18 27.03-16.12 42.68-18.4 111.66-29.82 189.31-29.82Z" style="fill:url(#p)"/></g></g><defs><linearGradient id="d" x1="0" y1="0" x2="1" y2="0" gradientUnits="userSpaceOnUse" gradientTransform="translate(1816 1416.09) scale(521.048)"><stop offset="0" style="stop-color:#da5313;stop-opacity:.3"/><stop offset="1" style="stop-color:#f19266;stop-opacity:.3"/></linearGradient><linearGradient id="e" x1="0" y1="0" x2="1" y2="0" gradientUnits="userSpaceOnUse" gradientTransform="matrix(732.048 242.779 -356.385 498.692 1605 1105.22)"><stop offset="0" style="stop-color:white;stop-opacity:.15"/><stop offset="1" style="stop-color:white;stop-opacity:0"/></linearGradient><linearGradient id="f" x1="0" y1="0" x2="1" y2="0" gradientUnits="userSpaceOnUse" gradientTransform="matrix(730.048 214 -314.139 497.329 1607 1134)"><stop offset="0" style="stop-color:#f29954;stop-opacity:1"/><stop offset="1" style="stop-color:#f08b3d;stop-opacity:1"/></linearGradient><linearGradient id="h" x1="0" y1="0" x2="1" y2="0" gradientUnits="userSpaceOnUse" gradientTransform="matrix(-59.5126 219.362 -59.535 0 1922.71 1159.73)"><stop offset="0" style="stop-color:#c5541e;stop-opacity:.4"/><stop offset=".54" style="stop-color:#cd571e;stop-opacity:.33"/><stop offset="1" style="stop-color:#eb6120;stop-opacity:.1"/></linearGradient><linearGradient id="i" x1="0" y1="0" x2="1" y2="0" gradientUnits="userSpaceOnUse" gradientTransform="matrix(732.048 242.779 -356.385 498.692 1605 1134)"><stop offset="0" style="stop-color:white;stop-opacity:.35"/><stop offset="1" style="stop-color:white;stop-opacity:.17"/></linearGradient><linearGradient id="j" x1="0" y1="0" x2="1" y2="0" gradientUnits="userSpaceOnUse" gradientTransform="matrix(387 387 -419.212 357.263 1775.91 890)"><stop offset="0" style="stop-color:#ef802a;stop-opacity:1"/><stop offset="1" style="stop-color:#df6217;stop-opacity:1"/></linearGradient><linearGradient id="l" x1="0" y1="0" x2="1" y2="0" gradientUnits="userSpaceOnUse" gradientTransform="matrix(422.207 0 0 413.955 1708.92 1056.93)"><stop offset="0" style="stop-color:#ebebeb;stop-opacity:1"/><stop offset=".56" style="stop-color:#e6dfdd;stop-opacity:1"/><stop offset="1" style="stop-color:#d1b1a8;stop-opacity:1"/></linearGradient><linearGradient id="m" x1="0" y1="0" x2="1" y2="0" gradientUnits="userSpaceOnUse" gradientTransform="matrix(421.804 0 0 413.559 1709.1 1045.95)"><stop offset="0" style="stop-color:#ebebeb;stop-opacity:1"/><stop offset=".56" style="stop-color:#e6dfdd;stop-opacity:1"/><stop offset="1" style="stop-color:#d1b1a8;stop-opacity:1"/></linearGradient><linearGradient id="n" x1="0" y1="0" x2="1" y2="0" gradientUnits="userSpaceOnUse" gradientTransform="matrix(144.035 505.096 -547.139 132.967 1920 618.994)"><stop offset="0" style="stop-color:white;stop-opacity:.3"/><stop offset="1" style="stop-color:white;stop-opacity:0"/></linearGradient><linearGradient id="p" x1="0" y1="0" x2="1" y2="0" gradientUnits="userSpaceOnUse" gradientTransform="matrix(93.2868 416.688 -460.37 84.4354 1920 1162)"><stop offset="0" style="stop-color:white;stop-opacity:.3"/><stop offset="1" style="stop-color:white;stop-opacity:0"/></linearGradient><radialGradient id="a" cx="0" cy="0" r="1" gradientUnits="userSpaceOnUse" gradientTransform="scale(276.517 304.87) rotate(90 .82 2.203)"><stop offset="0" style="stop-color:white;stop-opacity:.05"/><stop offset="1" style="stop-color:white;stop-opacity:0"/></radialGradient><radialGradient id="b" cx="0" cy="0" r="1" gradientUnits="userSpaceOnUse" gradientTransform="matrix(276.517 0 0 -304.87 835.918 421.565)"><stop offset="0" style="stop-color:white;stop-opacity:.2"/><stop offset="1" style="stop-color:white;stop-opacity:0"/></radialGradient><radialGradient id="o" cx="0" cy="0" r="1" gradientUnits="userSpaceOnUse" gradientTransform="matrix(500 158 -161.15 490.227 1670 1162)"><stop offset="0" style="stop-color:#f29954;stop-opacity:1"/><stop offset="1" style="stop-color:#f08b3d;stop-opacity:1"/></radialGradient></defs></svg>