<?xml version="1.0" encoding="UTF-8" standalone="no"?>
<!DOCTYPE svg PUBLIC "-//W3C//DTD SVG 1.1//EN" "http://www.w3.org/Graphics/SVG/1.1/DTD/svg11.dtd">
<svg width="100%" height="100%" viewBox="0 0 1920 1080" version="1.1" xmlns="http://www.w3.org/2000/svg" xmlns:xlink="http://www.w3.org/1999/xlink" xml:space="preserve" xmlns:serif="http://www.serif.com/" style="fill-rule:evenodd;clip-rule:evenodd;stroke-linejoin:round;stroke-miterlimit:2;">
    <g transform="matrix(1.00084,0,0,1,-0.00054058,0)">
        <rect x="0.644" y="0" width="1917.75" height="1080" style="fill:rgb(18,18,18);"/>
    </g>
    <g transform="matrix(2.27609,0,0,2.27609,-1224.51,-689.09)">
        <g transform="matrix(1.01443,-0.585683,1.01443,0.585683,-562.073,245.987)">
            <g transform="matrix(115.25,0,0,461,499,540)">
                <rect x="0" y="0" width="4" height="1" style="fill:rgb(127,127,127);"/>
            </g>
            <g transform="matrix(28.8125,0,0,28.8125,499,540)">
                <path d="M11,15L9,15L9,16L11,16L11,15ZM15,14L12,14L12,15L16,15L16,13L15,13L15,14ZM2,13L0,13L0,14L2,14L2,13ZM5,11L5,13L6,13L6,12L7,12L7,11L5,11ZM16,11L15,11L15,12L16,12L16,11ZM14,11L12,11L12,12L14,12L14,11ZM0,9L2,9L2,10L3,10L3,8L0,8L0,9ZM15,9L11,9L11,10L15,10L15,9ZM7,9L6,9L6,10L9,10L9,9L10,9L10,8L7,8L7,9ZM5,8L4,8L4,9L5,9L5,8ZM9,6L7,6L7,7L9,7L9,6ZM6,6L3,6L3,7L6,7L6,6ZM16,5L15,5L15,6L16,6L16,5ZM2,5L1,5L1,6L2,6L2,5ZM8,4L9,4L9,5L13,5L13,4L10,4L10,3L8,3L8,4ZM6,3L5,3L5,4L6,4L6,3ZM4,3L2,3L2,4L4,4L4,3ZM4,0L0,0L0,1L4,1L4,0Z" style="fill:rgb(143,143,143);"/>
            </g>
            <g transform="matrix(28.8125,0,0,28.8125,499,540)">
                <path d="M14,15L13,15L13,16L14,16L14,15ZM8,15L6,15L6,16L8,16L8,15ZM3,14L1,14L1,15L3,15L3,14ZM1,13L3,13L3,14L5,14L5,13L4,13L4,12L1,12L1,13ZM13,13L12,13L12,14L15,14L15,13L14,13L14,12L13,12L13,13ZM7,12L7,14L10,14L10,13L9,13L9,12L7,12ZM16,12L15,12L15,13L16,13L16,12ZM3,10L2,10L2,11L3,11L3,10ZM9,10L8,10L8,11L9,11L9,10ZM11,10L10,10L10,11L11,11L11,10ZM6,10L4,10L4,11L6,11L6,10ZM16,10L13,10L13,11L16,11L16,10ZM16,8L15,8L15,9L16,9L16,8ZM5,7L4,7L4,8L5,8L5,7ZM9,5L9,7L10,7L10,8L13,8L13,7L12,7L12,6L11,6L11,5L9,5ZM0,6L0,8L2,8L2,7L1,7L1,6L0,6ZM6,6L6,8L8,8L8,7L7,7L7,6L6,6ZM13,5L12,5L12,6L13,6L13,5ZM15,5L14,5L14,6L15,6L15,5ZM14,4L13,4L13,5L14,5L14,4ZM6,4L3,4L3,5L6,5L6,4ZM1,4L0,4L0,5L1,5L1,4ZM8,4L7,4L7,5L8,5L8,4ZM16,3L13,3L13,4L16,4L16,3ZM2,2L1,2L1,3L2,3L2,2ZM4,1L4,3L7,3L7,2L5,2L5,1L4,1ZM11,2L8,2L8,3L11,3L11,2ZM3,1L2,1L2,2L3,2L3,1ZM14,1L13,1L13,2L14,2L14,1ZM16,1L15,1L15,2L16,2L16,1ZM7,0L5,0L5,1L7,1L7,0ZM9,0L8,0L8,1L9,1L9,0ZM12,0L10,0L10,1L12,1L12,0Z" style="fill:rgb(116,116,116);"/>
            </g>
            <g transform="matrix(28.8125,0,0,28.8125,499,540)">
                <path d="M15,12L14,12L14,13L15,13L15,12ZM13,12L11,12L11,13L13,13L13,12ZM1,10L0,10L0,11L1,11L1,10ZM8,10L6,10L6,11L8,11L8,10ZM6,7L5,7L5,8L6,8L6,7ZM4,7L2,7L2,8L4,8L4,7ZM12,5L11,5L11,6L12,6L12,5ZM14,5L13,5L13,6L14,6L14,5ZM8,2L7,2L7,3L8,3L8,2ZM4,2L2,2L2,3L4,3L4,2ZM13,1L11,1L11,2L13,2L13,1ZM10,0L9,0L9,1L10,1L10,0Z" style="fill:rgb(104,104,104);"/>
            </g>
        </g>
        <g transform="matrix(1.01443,-0.585683,-5.03673e-17,1.17137,453.374,199.718)">
            <g opacity="0.75">
                <g transform="matrix(115.25,0,0,461,499,540)">
                    <rect x="0" y="0" width="4" height="1" style="fill:rgb(127,127,127);"/>
                </g>
                <g transform="matrix(28.8125,0,0,28.8125,499,540)">
                    <path d="M11,15L9,15L9,16L11,16L11,15ZM15,14L12,14L12,15L16,15L16,13L15,13L15,14ZM2,13L0,13L0,14L2,14L2,13ZM5,11L5,13L6,13L6,12L7,12L7,11L5,11ZM16,11L15,11L15,12L16,12L16,11ZM14,11L12,11L12,12L14,12L14,11ZM0,9L2,9L2,10L3,10L3,8L0,8L0,9ZM15,9L11,9L11,10L15,10L15,9ZM7,9L6,9L6,10L9,10L9,9L10,9L10,8L7,8L7,9ZM5,8L4,8L4,9L5,9L5,8ZM9,6L7,6L7,7L9,7L9,6ZM6,6L3,6L3,7L6,7L6,6ZM16,5L15,5L15,6L16,6L16,5ZM2,5L1,5L1,6L2,6L2,5ZM8,4L9,4L9,5L13,5L13,4L10,4L10,3L8,3L8,4ZM6,3L5,3L5,4L6,4L6,3ZM4,3L2,3L2,4L4,4L4,3ZM4,0L0,0L0,1L4,1L4,0Z" style="fill:rgb(143,143,143);"/>
                </g>
                <g transform="matrix(28.8125,0,0,28.8125,499,540)">
                    <path d="M14,15L13,15L13,16L14,16L14,15ZM8,15L6,15L6,16L8,16L8,15ZM3,14L1,14L1,15L3,15L3,14ZM1,13L3,13L3,14L5,14L5,13L4,13L4,12L1,12L1,13ZM13,13L12,13L12,14L15,14L15,13L14,13L14,12L13,12L13,13ZM7,12L7,14L10,14L10,13L9,13L9,12L7,12ZM16,12L15,12L15,13L16,13L16,12ZM3,10L2,10L2,11L3,11L3,10ZM9,10L8,10L8,11L9,11L9,10ZM11,10L10,10L10,11L11,11L11,10ZM6,10L4,10L4,11L6,11L6,10ZM16,10L13,10L13,11L16,11L16,10ZM16,8L15,8L15,9L16,9L16,8ZM5,7L4,7L4,8L5,8L5,7ZM9,5L9,7L10,7L10,8L13,8L13,7L12,7L12,6L11,6L11,5L9,5ZM0,6L0,8L2,8L2,7L1,7L1,6L0,6ZM6,6L6,8L8,8L8,7L7,7L7,6L6,6ZM13,5L12,5L12,6L13,6L13,5ZM15,5L14,5L14,6L15,6L15,5ZM14,4L13,4L13,5L14,5L14,4ZM6,4L3,4L3,5L6,5L6,4ZM1,4L0,4L0,5L1,5L1,4ZM8,4L7,4L7,5L8,5L8,4ZM16,3L13,3L13,4L16,4L16,3ZM2,2L1,2L1,3L2,3L2,2ZM4,1L4,3L7,3L7,2L5,2L5,1L4,1ZM11,2L8,2L8,3L11,3L11,2ZM3,1L2,1L2,2L3,2L3,1ZM14,1L13,1L13,2L14,2L14,1ZM16,1L15,1L15,2L16,2L16,1ZM7,0L5,0L5,1L7,1L7,0ZM9,0L8,0L8,1L9,1L9,0ZM12,0L10,0L10,1L12,1L12,0Z" style="fill:rgb(116,116,116);"/>
                </g>
                <g transform="matrix(28.8125,0,0,28.8125,499,540)">
                    <path d="M15,12L14,12L14,13L15,13L15,12ZM13,12L11,12L11,13L13,13L13,12ZM1,10L0,10L0,11L1,11L1,10ZM8,10L6,10L6,11L8,11L8,10ZM6,7L5,7L5,8L6,8L6,7ZM4,7L2,7L2,8L4,8L4,7ZM12,5L11,5L11,6L12,6L12,5ZM14,5L13,5L13,6L14,6L14,5ZM8,2L7,2L7,3L8,3L8,2ZM4,2L2,2L2,3L4,3L4,2ZM13,1L11,1L11,2L13,2L13,1ZM10,0L9,0L9,1L10,1L10,0Z" style="fill:rgb(104,104,104);"/>
                </g>
            </g>
        </g>
        <g transform="matrix(1.01443,0.585683,5.03673e-17,1.17137,-14.2794,-654.794)">
            <g opacity="0.5">
                <g transform="matrix(115.25,0,0,461,499,540)">
                    <rect x="0" y="0" width="4" height="1" style="fill:rgb(127,127,127);"/>
                </g>
                <g transform="matrix(28.8125,0,0,28.8125,499,540)">
                    <path d="M11,15L9,15L9,16L11,16L11,15ZM15,14L12,14L12,15L16,15L16,13L15,13L15,14ZM2,13L0,13L0,14L2,14L2,13ZM5,11L5,13L6,13L6,12L7,12L7,11L5,11ZM16,11L15,11L15,12L16,12L16,11ZM14,11L12,11L12,12L14,12L14,11ZM0,9L2,9L2,10L3,10L3,8L0,8L0,9ZM15,9L11,9L11,10L15,10L15,9ZM7,9L6,9L6,10L9,10L9,9L10,9L10,8L7,8L7,9ZM5,8L4,8L4,9L5,9L5,8ZM9,6L7,6L7,7L9,7L9,6ZM6,6L3,6L3,7L6,7L6,6ZM16,5L15,5L15,6L16,6L16,5ZM2,5L1,5L1,6L2,6L2,5ZM8,4L9,4L9,5L13,5L13,4L10,4L10,3L8,3L8,4ZM6,3L5,3L5,4L6,4L6,3ZM4,3L2,3L2,4L4,4L4,3ZM4,0L0,0L0,1L4,1L4,0Z" style="fill:rgb(143,143,143);"/>
                </g>
                <g transform="matrix(28.8125,0,0,28.8125,499,540)">
                    <path d="M14,15L13,15L13,16L14,16L14,15ZM8,15L6,15L6,16L8,16L8,15ZM3,14L1,14L1,15L3,15L3,14ZM1,13L3,13L3,14L5,14L5,13L4,13L4,12L1,12L1,13ZM13,13L12,13L12,14L15,14L15,13L14,13L14,12L13,12L13,13ZM7,12L7,14L10,14L10,13L9,13L9,12L7,12ZM16,12L15,12L15,13L16,13L16,12ZM3,10L2,10L2,11L3,11L3,10ZM9,10L8,10L8,11L9,11L9,10ZM11,10L10,10L10,11L11,11L11,10ZM6,10L4,10L4,11L6,11L6,10ZM16,10L13,10L13,11L16,11L16,10ZM16,8L15,8L15,9L16,9L16,8ZM5,7L4,7L4,8L5,8L5,7ZM9,5L9,7L10,7L10,8L13,8L13,7L12,7L12,6L11,6L11,5L9,5ZM0,6L0,8L2,8L2,7L1,7L1,6L0,6ZM6,6L6,8L8,8L8,7L7,7L7,6L6,6ZM13,5L12,5L12,6L13,6L13,5ZM15,5L14,5L14,6L15,6L15,5ZM14,4L13,4L13,5L14,5L14,4ZM6,4L3,4L3,5L6,5L6,4ZM1,4L0,4L0,5L1,5L1,4ZM8,4L7,4L7,5L8,5L8,4ZM16,3L13,3L13,4L16,4L16,3ZM2,2L1,2L1,3L2,3L2,2ZM4,1L4,3L7,3L7,2L5,2L5,1L4,1ZM11,2L8,2L8,3L11,3L11,2ZM3,1L2,1L2,2L3,2L3,1ZM14,1L13,1L13,2L14,2L14,1ZM16,1L15,1L15,2L16,2L16,1ZM7,0L5,0L5,1L7,1L7,0ZM9,0L8,0L8,1L9,1L9,0ZM12,0L10,0L10,1L12,1L12,0Z" style="fill:rgb(116,116,116);"/>
                </g>
                <g transform="matrix(28.8125,0,0,28.8125,499,540)">
                    <path d="M15,12L14,12L14,13L15,13L15,12ZM13,12L11,12L11,13L13,13L13,12ZM1,10L0,10L0,11L1,11L1,10ZM8,10L6,10L6,11L8,11L8,10ZM6,7L5,7L5,8L6,8L6,7ZM4,7L2,7L2,8L4,8L4,7ZM12,5L11,5L11,6L12,6L12,5ZM14,5L13,5L13,6L14,6L14,5ZM8,2L7,2L7,3L8,3L8,2ZM4,2L2,2L2,3L4,3L4,2ZM13,1L11,1L11,2L13,2L13,1ZM10,0L9,0L9,1L10,1L10,0Z" style="fill:rgb(104,104,104);"/>
                </g>
            </g>
        </g>
    </g>
    <g transform="matrix(1.00118,0,0,1,-0.644444,0)">
        <rect x="0.644" y="0" width="1917.75" height="1080" style="fill:url(#_Linear1);"/>
    </g>
    <g transform="matrix(1.00118,0,0,1,-0.644444,0)">
        <rect x="0.644" y="0" width="1917.75" height="1080" style="fill-opacity:0.75;"/>
    </g>
    <g transform="matrix(4.67555,0,0,4.67555,255.68,422.181)">
        <g transform="matrix(0.156198,0,0,0.156198,0.7,0.441481)">
            <path d="M1906.57,-10.686L572.052,-10.686L568.001,18.684L556.431,-10.686L245.372,-10.686L234.39,31.302C234.39,31.302 208.754,31.302 208.754,31.302L207.216,37.26L172.256,-10.686L69.806,-10.686L-12.259,243.648L78.033,327.592L179.07,327.592L191.469,281.231L212.817,281.231C212.817,281.231 253.301,327.592 253.301,327.592L560.949,327.592L565.017,300.137C565.017,300.137 578.236,327.592 578.236,327.592L688.125,327.592L698.114,236.292L724.484,327.592L846.367,327.592L860.919,152.532C860.919,152.532 869.383,152.532 869.383,152.532C869.383,152.532 866.385,238.319 866.385,238.319L876.629,327.592L1494.28,327.592L1494.28,327.589L1594.51,327.692L1654.8,241.559L1653.9,237.056C1653.9,237.056 1677.06,237.056 1677.06,237.056L1710.3,191.104C1710.3,191.104 1744.15,327.686 1744.15,327.686L1847.24,327.686L1932.12,242.81L1889.04,103.917C1889.04,103.917 1928.12,57.146 1928.12,57.146L1906.57,-10.686Z" style="fill:rgb(17,18,18);fill-rule:nonzero;"/>
        </g>
        <g transform="matrix(1,0,0,1.00764,3,1.73022)">
            <path d="M24.5,6.9L22.6,13.8L31.3,13.8L33.1,7L37.1,7L38.8,0.5L50.2,0.5L42.2,35.2L29.8,35.2L33.5,20.4L29,20.4L27.1,27.6L19.1,27.6L21.1,20.4L16.6,20.5L12.2,35.2L0.1,35.2L11.2,0.5L22.5,0.5L20.6,6.8L24.5,6.9Z" style="fill:rgb(235,235,235);fill-rule:nonzero;"/>
            <path d="M66,0.5L59.2,35.3L46.9,35.3L54.6,0.5L66,0.5Z" style="fill:rgb(235,235,235);fill-rule:nonzero;"/>
            <g transform="matrix(1,0,0,0.997126,2.66454e-15,0.101149)">
                <path d="M82.8,24L83.8,16.8L79.3,16.7L76.3,35.2L64,35.2L70.5,0.4L81.9,0.4L80.9,6.9L84.9,7L83.9,13.7L88.3,13.7L90.2,0.4L101.7,0.4L97.7,35.2L85.3,35.2L86.8,24.1L82.8,24Z" style="fill:rgb(235,235,235);fill-rule:nonzero;"/>
            </g>
            <g transform="matrix(0.159842,0,0,0.155013,-5.14042,-1.27897)">
                <path d="M870.768,12.114L868.962,51.652L817.275,51.652C817.275,51.652 803.805,228.298 802.959,234.038L722.198,234.038L739.981,51.014L688.294,51.014L692.685,11.476L870.768,12.114Z" style="fill:rgb(235,235,235);fill-rule:nonzero;"/>
            </g>
            <g transform="matrix(1,0,0,0.988539,-1.15463e-14,0.401146)">
                <path d="M292.8,0.2L294.8,6.4L286.8,6.4L286.8,6.6C287.1,7.9 287.5,9.3 287.9,10.7C288.3,12.1 288.7,13.5 289.1,15C289.5,16.5 290,17.9 290.4,19.4C290.9,20.9 294.9,34.1 295.1,35L282.6,35L274.8,6.3L266.8,6.3L265.2,0.1L292.8,0.2Z" style="fill:rgb(235,235,235);fill-rule:nonzero;"/>
            </g>
            <g transform="matrix(1,0,0,0.994253,-1.15463e-14,0.201724)">
                <path d="M264.1,13.4L265.8,20.3L249.1,20.3L252.2,35.1L239.7,35.1L233.3,0.3L260.8,0.3L262.4,6.4L246.2,6.4L247.6,13.4L264.1,13.4Z" style="fill:rgb(235,235,235);fill-rule:nonzero;"/>
            </g>
            <g transform="matrix(1,0,0,0.994253,-1.15463e-14,0.201724)">
                <path d="M216.2,23.9L217.7,35.1L205.3,35.1L201.4,0.3L228.9,0.3L234.9,35.1L222.5,35.1L220.9,23.9L216.2,23.9ZM224.3,10.2L223.6,5.8L218.2,5.8L218.7,9.9L214.4,9.9L213.8,5.9L208.5,5.9L209.1,10.3L213.9,10.3L214.1,11.9L211.7,11.9L212.6,18.7L215.5,18.7L215.3,16.4L219.6,16.4L220,18.7L223,18.7L222,11.9L219.6,11.9L219.4,10.3L224.3,10.2Z" style="fill:rgb(235,235,235);fill-rule:nonzero;"/>
            </g>
            <g transform="matrix(1,0,0,0.997126,-1.15463e-14,0.101149)">
                <path d="M194.7,17.1L198.8,17.1L200.6,35.1L188.2,35.1L187,20.5L182.4,20.4L183.4,35.2L171,35.2L169.7,0.4L197.1,0.4L198.4,13.3L194.3,13.3L194.7,17.1ZM186.6,13.6L186,6.5L181.5,6.5L182,13.7L186.6,13.6Z" style="fill:rgb(235,235,235);fill-rule:nonzero;"/>
            </g>
            <g transform="matrix(1,0,0,0.994269,-1.15463e-14,0.201719)">
                <path d="M149.5,6.5L165.4,6.5L165.2,0.3L137.9,0.4L136.7,35.2L166.2,35.2L166,28L149.1,28L149.5,6.5Z" style="fill:rgb(235,235,235);fill-rule:nonzero;"/>
            </g>
        </g>
        <g>
            <g transform="matrix(1.03448,0,0.929825,0.913793,-33.4143,3.75517)">
                <path d="M14,36.6L2.4,36.6L2.4,48L13.383,48L14,36.6Z" style="fill:rgb(90,90,90);"/>
            </g>
            <g transform="matrix(1.00072,0,0.808487,0.913793,1.49087,3.75517)">
                <path d="M14,36.6L1.75,36.6L1.75,48L12.639,48L14,36.6Z" style="fill:rgb(90,90,90);"/>
            </g>
            <g transform="matrix(1.0627,0,0.670543,0.913793,22.8077,3.85517)">
                <path d="M14,36.6L2.4,36.6L2.4,48L13.012,48L14,36.6Z" style="fill:rgb(90,90,90);"/>
            </g>
            <g transform="matrix(1.0627,0,0.560651,0.913793,43.9297,3.75517)">
                <path d="M14,36.6L2.4,36.6L2.4,48L12.799,48L14,36.6Z" style="fill:rgb(90,90,90);"/>
            </g>
            <g transform="matrix(1.0627,0,0.423287,0.913793,70.2598,3.75517)">
                <path d="M14,36.6L2.4,36.6L2.4,48L13.092,48L14,36.6Z" style="fill:rgb(90,90,90);"/>
            </g>
            <g transform="matrix(1.0627,0,0.279526,0.931337,100.74,2.91307)">
                <rect x="2.4" y="36.6" width="11.6" height="11.4" style="fill:rgb(90,90,90);"/>
            </g>
            <g transform="matrix(1.0627,0,-0.118121,0.913793,175.819,3.75517)">
                <path d="M14,36.6L2.4,36.6L2.4,48L12.832,48L14,36.6Z" style="fill:rgb(90,90,90);"/>
            </g>
            <g transform="matrix(1.0627,0,-0.308459,0.922565,200.025,3.33412)">
                <path d="M14,36.6L2.4,36.6L2.4,48L13.945,48L14,36.6Z" style="fill:rgb(90,90,90);"/>
            </g>
            <g transform="matrix(1.0627,0,-0.329362,0.922565,217.811,3.33412)">
                <path d="M14,36.6L2.4,36.6L2.4,48L12.868,48L14,36.6Z" style="fill:rgb(90,90,90);"/>
            </g>
            <g transform="matrix(1.0627,0,-0.475685,0.922565,240.432,3.33412)">
                <path d="M14,36.6L2.4,36.6L2.4,48L13.214,48L14,36.6Z" style="fill:rgb(90,90,90);"/>
            </g>
            <g transform="matrix(1.0627,0,-0.577216,0.922565,261.374,3.33412)">
                <path d="M14,36.6L2.4,36.6L2.4,48L13.231,48L14,36.6Z" style="fill:rgb(90,90,90);"/>
            </g>
            <g transform="matrix(1.0627,0,-0.81911,0.931337,313.202,2.91307)">
                <path d="M14,36.6L2.4,36.6L2.4,48L12.613,48L14,36.6Z" style="fill:rgb(90,90,90);"/>
            </g>
            <g transform="matrix(2.5268,0,0,0.913793,133.825,3.75517)">
                <path d="M14,36.6L2.325,36.6L2.793,48L13.544,48L14,36.6Z" style="fill:rgb(90,90,90);"/>
            </g>
            <g transform="matrix(0.684696,0,0.929825,0.913793,-13.5173,-3.84483)">
                <path d="M14,36.6L2.4,36.6L2.4,47.433L3.194,45.026L14,38.721L14,36.6Z" style="fill:rgb(90,90,90);"/>
            </g>
        </g>
    </g>
    <g transform="matrix(0.939424,-0.342757,0.342757,0.939424,-152.502,509.706)">
        <g transform="matrix(0.968824,0,0,0.968824,76.7729,-47.1601)">
            <g transform="matrix(112.857,0,0,112.857,1084,765)">
                <path d="M0.25,-0.4L0.25,-0.5L0.15,-0.5L0.15,-0L0.05,-0L0.05,-0.7L0.15,-0.7L0.15,-0.6L0.25,-0.6L0.25,-0.5L0.35,-0.5L0.35,-0.4L0.45,-0.4L0.45,-0.7L0.55,-0.7L0.55,-0L0.45,-0L0.45,-0.3L0.35,-0.3L0.35,-0.4L0.25,-0.4Z" style="fill:rgb(17,18,18);fill-rule:nonzero;"/>
            </g>
            <g transform="matrix(112.857,0,0,112.857,1151.71,765)">
                <path d="M0.45,-0.1L0.45,-0.4L0.15,-0.4L0.15,-0.5L0.45,-0.5L0.45,-0.4L0.55,-0.4L0.55,-0.1L0.45,-0.1ZM0.15,-0L0.15,-0.1L0.05,-0.1L0.05,-0.4L0.15,-0.4L0.15,-0.1L0.45,-0.1L0.45,-0L0.15,-0Z" style="fill:rgb(17,18,18);fill-rule:nonzero;"/>
            </g>
            <g transform="matrix(112.857,0,0,112.857,1219.43,765)">
                <path d="M0.45,-0.1L0.45,-0.5L0.55,-0.5L0.55,-0L0.15,-0L0.15,-0.1L0.05,-0.1L0.05,-0.5L0.15,-0.5L0.15,-0.1L0.25,-0.1L0.25,-0.3L0.35,-0.3L0.35,-0.1L0.45,-0.1Z" style="fill:rgb(17,18,18);fill-rule:nonzero;"/>
            </g>
            <g transform="matrix(112.857,0,0,112.857,1321,765)">
                <path d="M0.25,-0.6L0.25,-0.7L0.45,-0.7L0.45,-0.6L0.25,-0.6ZM0.15,-0.5L0.15,-0.6L0.25,-0.6L0.25,-0.5L0.45,-0.5L0.45,-0.4L0.25,-0.4L0.25,-0L0.15,-0L0.15,-0.4L0.05,-0.4L0.05,-0.5L0.15,-0.5Z" style="fill:rgb(17,18,18);fill-rule:nonzero;"/>
            </g>
            <g transform="matrix(112.857,0,0,112.857,1377.43,765)">
                <path d="M0.45,-0.1L0.45,-0.4L0.15,-0.4L0.15,-0.5L0.45,-0.5L0.45,-0.4L0.55,-0.4L0.55,-0.1L0.45,-0.1ZM0.15,-0L0.15,-0.1L0.05,-0.1L0.05,-0.4L0.15,-0.4L0.15,-0.1L0.45,-0.1L0.45,-0L0.15,-0Z" style="fill:rgb(17,18,18);fill-rule:nonzero;"/>
            </g>
            <g transform="matrix(112.857,0,0,112.857,1445.14,765)">
                <path d="M0.05,-0L0.05,-0.5L0.15,-0.5L0.15,-0.4L0.25,-0.4L0.25,-0.3L0.15,-0.3L0.15,-0L0.05,-0ZM0.45,-0.3L0.45,-0.4L0.25,-0.4L0.25,-0.5L0.45,-0.5L0.45,-0.4L0.55,-0.4L0.55,-0.3L0.45,-0.3Z" style="fill:rgb(17,18,18);fill-rule:nonzero;"/>
            </g>
            <g transform="matrix(112.857,0,0,112.857,1546.71,765)">
                <path d="M0.25,-0.6L0.25,-0.7L0.35,-0.7L0.35,-0.1L0.55,-0.1L0.55,-0L0.05,-0L0.05,-0.1L0.25,-0.1L0.25,-0.5L0.15,-0.5L0.15,-0.6L0.25,-0.6Z" style="fill:rgb(17,18,18);fill-rule:nonzero;"/>
            </g>
            <g transform="matrix(112.857,0,0,112.857,1614.43,765)">
                <rect x="0.05" y="-0.1" width="0.1" height="0.1" style="fill:rgb(17,18,18);fill-rule:nonzero;"/>
            </g>
            <g transform="matrix(112.857,0,0,112.857,1637,765)">
                <path d="M0.25,-0.6L0.25,-0.7L0.35,-0.7L0.35,-0.1L0.55,-0.1L0.55,-0L0.05,-0L0.05,-0.1L0.25,-0.1L0.25,-0.5L0.15,-0.5L0.15,-0.6L0.25,-0.6Z" style="fill:rgb(17,18,18);fill-rule:nonzero;"/>
            </g>
            <g transform="matrix(112.857,0,0,112.857,1693.43,765)">
                <path d="M0.05,-0.5L0.05,-0.7L0.55,-0.7L0.55,-0.4L0.45,-0.4L0.45,-0.6L0.15,-0.6L0.15,-0.5L0.05,-0.5ZM0.35,-0.3L0.35,-0.4L0.45,-0.4L0.45,-0.3L0.35,-0.3ZM0.25,-0L0.25,-0.3L0.35,-0.3L0.35,-0L0.25,-0Z" style="fill:rgb(17,18,18);fill-rule:nonzero;"/>
            </g>
            <g transform="matrix(112.857,0,0,112.857,1761.14,765)">
                <path d="M0.05,-0.2L0.05,-0.7L0.15,-0.7L0.15,-0.2L0.05,-0.2ZM0.05,-0L0.05,-0.1L0.15,-0.1L0.15,-0L0.05,-0Z" style="fill:rgb(17,18,18);fill-rule:nonzero;"/>
            </g>
        </g>
        <g transform="matrix(0.968824,0,0,0.968824,65.8698,-58.0631)">
            <g transform="matrix(112.857,0,0,112.857,1084,765)">
                <path d="M0.25,-0.4L0.25,-0.5L0.15,-0.5L0.15,-0L0.05,-0L0.05,-0.7L0.15,-0.7L0.15,-0.6L0.25,-0.6L0.25,-0.5L0.35,-0.5L0.35,-0.4L0.45,-0.4L0.45,-0.7L0.55,-0.7L0.55,-0L0.45,-0L0.45,-0.3L0.35,-0.3L0.35,-0.4L0.25,-0.4Z" style="fill:rgb(249,200,14);fill-rule:nonzero;"/>
            </g>
            <g transform="matrix(112.857,0,0,112.857,1151.71,765)">
                <path d="M0.45,-0.1L0.45,-0.4L0.15,-0.4L0.15,-0.5L0.45,-0.5L0.45,-0.4L0.55,-0.4L0.55,-0.1L0.45,-0.1ZM0.15,-0L0.15,-0.1L0.05,-0.1L0.05,-0.4L0.15,-0.4L0.15,-0.1L0.45,-0.1L0.45,-0L0.15,-0Z" style="fill:rgb(249,200,14);fill-rule:nonzero;"/>
            </g>
            <g transform="matrix(112.857,0,0,112.857,1219.43,765)">
                <path d="M0.45,-0.1L0.45,-0.5L0.55,-0.5L0.55,-0L0.15,-0L0.15,-0.1L0.05,-0.1L0.05,-0.5L0.15,-0.5L0.15,-0.1L0.25,-0.1L0.25,-0.3L0.35,-0.3L0.35,-0.1L0.45,-0.1Z" style="fill:rgb(249,200,14);fill-rule:nonzero;"/>
            </g>
            <g transform="matrix(112.857,0,0,112.857,1321,765)">
                <path d="M0.25,-0.6L0.25,-0.7L0.45,-0.7L0.45,-0.6L0.25,-0.6ZM0.15,-0.5L0.15,-0.6L0.25,-0.6L0.25,-0.5L0.45,-0.5L0.45,-0.4L0.25,-0.4L0.25,-0L0.15,-0L0.15,-0.4L0.05,-0.4L0.05,-0.5L0.15,-0.5Z" style="fill:rgb(249,200,14);fill-rule:nonzero;"/>
            </g>
            <g transform="matrix(112.857,0,0,112.857,1377.43,765)">
                <path d="M0.45,-0.1L0.45,-0.4L0.15,-0.4L0.15,-0.5L0.45,-0.5L0.45,-0.4L0.55,-0.4L0.55,-0.1L0.45,-0.1ZM0.15,-0L0.15,-0.1L0.05,-0.1L0.05,-0.4L0.15,-0.4L0.15,-0.1L0.45,-0.1L0.45,-0L0.15,-0Z" style="fill:rgb(249,200,14);fill-rule:nonzero;"/>
            </g>
            <g transform="matrix(112.857,0,0,112.857,1445.14,765)">
                <path d="M0.05,-0L0.05,-0.5L0.15,-0.5L0.15,-0.4L0.25,-0.4L0.25,-0.3L0.15,-0.3L0.15,-0L0.05,-0ZM0.45,-0.3L0.45,-0.4L0.25,-0.4L0.25,-0.5L0.45,-0.5L0.45,-0.4L0.55,-0.4L0.55,-0.3L0.45,-0.3Z" style="fill:rgb(249,200,14);fill-rule:nonzero;"/>
            </g>
            <g transform="matrix(112.857,0,0,112.857,1546.71,765)">
                <path d="M0.25,-0.6L0.25,-0.7L0.35,-0.7L0.35,-0.1L0.55,-0.1L0.55,-0L0.05,-0L0.05,-0.1L0.25,-0.1L0.25,-0.5L0.15,-0.5L0.15,-0.6L0.25,-0.6Z" style="fill:rgb(249,200,14);fill-rule:nonzero;"/>
            </g>
            <g transform="matrix(112.857,0,0,112.857,1614.43,765)">
                <rect x="0.05" y="-0.1" width="0.1" height="0.1" style="fill:rgb(249,200,14);fill-rule:nonzero;"/>
            </g>
            <g transform="matrix(112.857,0,0,112.857,1637,765)">
                <path d="M0.25,-0.6L0.25,-0.7L0.35,-0.7L0.35,-0.1L0.55,-0.1L0.55,-0L0.05,-0L0.05,-0.1L0.25,-0.1L0.25,-0.5L0.15,-0.5L0.15,-0.6L0.25,-0.6Z" style="fill:rgb(249,200,14);fill-rule:nonzero;"/>
            </g>
            <g transform="matrix(112.857,0,0,112.857,1693.43,765)">
                <path d="M0.05,-0.5L0.05,-0.7L0.55,-0.7L0.55,-0.4L0.45,-0.4L0.45,-0.6L0.15,-0.6L0.15,-0.5L0.05,-0.5ZM0.35,-0.3L0.35,-0.4L0.45,-0.4L0.45,-0.3L0.35,-0.3ZM0.25,-0L0.25,-0.3L0.35,-0.3L0.35,-0L0.25,-0Z" style="fill:rgb(249,200,14);fill-rule:nonzero;"/>
            </g>
            <g transform="matrix(112.857,0,0,112.857,1761.14,765)">
                <path d="M0.05,-0.2L0.05,-0.7L0.15,-0.7L0.15,-0.2L0.05,-0.2ZM0.05,-0L0.05,-0.1L0.15,-0.1L0.15,-0L0.05,-0Z" style="fill:rgb(249,200,14);fill-rule:nonzero;"/>
            </g>
        </g>
    </g>
    <defs>
        <linearGradient id="_Linear1" x1="0" y1="0" x2="1" y2="0" gradientUnits="userSpaceOnUse" gradientTransform="matrix(-1917.75,-1080,1078.73,-1920,1918.39,1080)"><stop offset="0" style="stop-color:rgb(18,18,18);stop-opacity:0.75"/><stop offset="1" style="stop-color:rgb(18,18,18);stop-opacity:0"/></linearGradient>
    </defs>
</svg>
