<?xml version="1.0" encoding="UTF-8" standalone="no"?>
<!DOCTYPE svg PUBLIC "-//W3C//DTD SVG 1.1//EN" "http://www.w3.org/Graphics/SVG/1.1/DTD/svg11.dtd">
<svg width="100%" height="100%" viewBox="0 0 1920 1080" version="1.1" xmlns="http://www.w3.org/2000/svg" xmlns:xlink="http://www.w3.org/1999/xlink" xml:space="preserve" xmlns:serif="http://www.serif.com/" style="fill-rule:evenodd;clip-rule:evenodd;stroke-linejoin:round;stroke-miterlimit:2;">
    <rect x="0" y="0" width="1920" height="1080" style="fill:rgb(10,10,10);"/>
    <rect x="0" y="0" width="1920" height="1080" style="fill:url(#_Linear1);"/>
    <g transform="matrix(0.963542,0,0,0.937037,35,34)">
        <g transform="matrix(0.949386,0,0,0.97624,0,0)">
            <path d="M48.515,80.972L66.941,34.654L85.367,80.972L48.515,80.972ZM39.049,104.469L94.833,104.469L108.188,137.77L133.882,137.77L79.789,2.536L54.094,2.536L0,137.77L25.695,137.77L39.049,104.469Z" style="fill:url(#_Linear2);fill-rule:nonzero;"/>
        </g>
        <g transform="matrix(0.949386,0,0,0.97624,0,0)">
            <path d="M175.136,2.367L175.136,137.939L234.978,137.939C256.784,137.77 274.534,120.021 274.534,98.045C274.534,85.367 268.617,74.041 259.32,66.772C264.729,60.01 267.941,51.558 267.941,42.261C267.941,20.285 250.022,2.536 228.216,2.367L175.136,2.367ZM234.809,81.986C243.768,81.986 250.868,89.086 250.868,98.045C250.868,106.835 243.768,114.104 234.978,114.273L198.802,114.273L198.802,81.986L234.809,81.986ZM228.216,26.033C237.006,26.202 244.106,33.471 244.106,42.261C244.106,50.882 237.682,58.32 229.061,58.32L198.802,58.32L198.802,26.033L228.216,26.033Z" style="fill:url(#_Linear3);fill-rule:nonzero;"/>
        </g>
        <g transform="matrix(0.949386,0,0,0.97624,0,0)">
            <path d="M435.808,20.454C422.623,7.269 404.704,0 386.11,0C347.399,0 315.957,31.442 315.957,70.153C315.957,108.864 347.399,140.306 386.11,140.306C404.704,140.306 422.623,133.037 435.808,119.852L418.904,102.947C410.283,111.569 398.45,116.471 386.11,116.471C360.584,116.471 339.792,95.679 339.792,70.153C339.792,44.627 360.584,23.835 386.11,23.835C398.45,23.835 410.283,28.737 418.904,37.359L435.808,20.454Z" style="fill:url(#_Linear4);fill-rule:nonzero;"/>
        </g>
        <g transform="matrix(0.949386,0,0,0.97624,0,0)">
            <path d="M528.451,137.939C565.641,137.77 595.9,107.512 595.9,70.153C595.9,32.794 565.641,2.536 528.451,2.367L477.231,2.367L477.231,137.939L528.451,137.939ZM528.113,26.033C552.456,26.033 572.065,45.811 572.065,70.153C572.065,94.495 552.456,114.273 528.113,114.273L501.066,114.273L501.066,26.033L528.113,26.033Z" style="fill:url(#_Linear5);fill-rule:nonzero;"/>
        </g>
        <g transform="matrix(0.949386,0,0,0.97624,0,0)">
            <path d="M637.323,137.939L728.437,137.939L728.437,114.273L660.989,114.273L660.989,82.324L710.349,82.324L710.349,58.32L660.989,58.32L660.989,26.033L728.437,26.033L728.437,2.367L637.323,2.367L637.323,137.939Z" style="fill:url(#_Linear6);fill-rule:nonzero;"/>
        </g>
        <g transform="matrix(0.949386,0,0,0.97624,0,0)">
            <path d="M769.86,2.536L769.86,138.109L793.526,138.109L793.526,82.493L842.887,82.493L842.887,58.489L793.526,58.489L793.526,26.202L860.974,26.202L860.974,2.536L769.86,2.536Z" style="fill:url(#_Linear7);fill-rule:nonzero;"/>
        </g>
        <g transform="matrix(0.949386,0,0,0.97624,0,0)">
            <path d="M1010.92,117.992L1010.92,63.053L953.11,63.053L953.11,87.057L987.257,87.057L987.257,108.019C978.974,115.119 968.324,119.176 957.167,119.176C931.642,119.176 910.849,98.214 910.849,72.689C910.849,47.163 931.642,26.371 957.167,26.371C969.507,26.371 981.34,31.442 989.962,40.063L1006.87,23.159C993.681,9.974 975.762,2.536 957.167,2.536C918.456,2.536 887.014,33.978 887.014,72.689C887.014,111.4 918.456,143.011 957.167,143.011C977.959,143.011 997.569,133.882 1010.92,117.992Z" style="fill:url(#_Linear8);fill-rule:nonzero;"/>
        </g>
        <g transform="matrix(0.949386,0,0,0.97624,0,0)">
            <path d="M1076.18,58.489L1076.18,2.367L1052.35,2.367L1052.35,137.939L1076.18,137.939L1076.18,82.324L1143.63,82.324L1143.63,137.939L1167.3,137.939L1167.3,2.367L1143.63,2.367L1143.63,58.489L1076.18,58.489Z" style="fill:url(#_Linear9);fill-rule:nonzero;"/>
        </g>
        <g transform="matrix(0.949386,0,0,0.97624,0,0)">
            <rect x="1208.72" y="2.367" width="23.666" height="135.573" style="fill:url(#_Linear10);fill-rule:nonzero;"/>
        </g>
        <g transform="matrix(0.949386,0,0,0.97624,0,0)">
            <path d="M1339.57,95.679C1339.57,107.343 1330.1,116.809 1318.43,116.809C1306.77,116.809 1297.47,107.343 1297.47,95.679L1273.81,95.679C1273.81,120.359 1293.75,140.306 1318.43,140.306C1343.12,140.306 1363.06,120.359 1363.06,95.679L1363.06,2.536L1339.57,2.536L1339.57,95.679Z" style="fill:url(#_Linear11);fill-rule:nonzero;"/>
        </g>
        <g transform="matrix(0.949386,0,0,0.97624,0,0)">
            <path d="M1426.8,60.856L1426.8,2.367L1402.79,2.367L1402.79,137.939L1426.8,137.939L1426.8,92.298L1426.97,92.298L1441.67,76.408L1490.36,137.939L1519.43,137.939L1457.39,59.503L1510.31,2.367L1481.06,2.367L1426.8,60.856Z" style="fill:url(#_Linear12);fill-rule:nonzero;"/>
        </g>
        <g transform="matrix(0.949386,0,0,0.97624,0,0)">
            <path d="M1584.69,114.104L1584.69,2.367L1560.86,2.367L1560.86,137.939L1652.14,137.939L1652.14,114.104L1584.69,114.104Z" style="fill:url(#_Linear13);fill-rule:nonzero;"/>
        </g>
        <g transform="matrix(0.949386,0,0,0.97624,0,0)">
            <path d="M1843.84,137.939L1843.84,2.367L1818.66,2.367L1768.79,96.524L1718.92,2.367L1693.56,2.367L1693.56,137.939L1717.23,137.939L1717.23,47.163L1756.11,120.359L1781.47,120.359L1820.18,47.163L1820.18,137.939L1843.84,137.939Z" style="fill:url(#_Linear14);fill-rule:nonzero;"/>
        </g>
        <g transform="matrix(0.949386,0,0,0.97624,0,0)">
            <path d="M2007.15,138.109L2007.15,2.536L1983.48,2.536L1983.48,103.455L1914,2.536L1885.27,2.536L1885.27,138.109L1908.93,138.109L1908.93,37.021L1978.58,138.109L2007.15,138.109Z" style="fill:url(#_Linear15);fill-rule:nonzero;"/>
        </g>
        <g transform="matrix(0.949386,0,0,0.97624,0,0)">
            <path d="M70.153,180.96C31.442,180.96 0,212.402 0,251.113C0,289.824 31.442,321.266 70.153,321.266C108.864,321.266 140.475,289.824 140.475,251.113C140.475,212.402 108.864,180.96 70.153,180.96ZM70.153,204.795C95.679,204.795 116.64,225.587 116.64,251.113C116.64,276.639 95.679,297.431 70.153,297.431C44.627,297.431 23.835,276.639 23.835,251.113C23.835,225.587 44.627,204.795 70.153,204.795Z" style="fill:url(#_Linear16);fill-rule:nonzero;"/>
        </g>
        <g transform="matrix(0.949386,0,0,0.97624,0,0)">
            <path d="M177.517,183.327L177.517,318.899L201.184,318.899L201.184,270.722L231.949,270.722C256.123,270.722 275.563,251.282 275.563,227.109C275.563,202.936 256.123,183.327 231.949,183.327L177.517,183.327ZM231.949,206.993C242.937,206.993 251.897,216.121 251.897,227.109C251.897,238.097 242.937,247.056 231.949,247.056L201.184,247.056L201.184,206.993L231.949,206.993Z" style="fill:url(#_Linear17);fill-rule:nonzero;"/>
        </g>
        <g transform="matrix(0.949386,0,0,0.97624,0,0)">
            <path d="M424.85,307.405L438.035,318.899L453.587,300.981L441.247,290.162C448.685,279.005 453.08,265.651 453.08,251.113C453.08,212.402 421.469,180.96 382.758,180.96C344.047,180.96 312.605,212.402 312.605,251.113C312.605,289.824 344.047,321.266 382.758,321.266C398.479,321.266 413.186,316.195 424.85,307.405ZM422.99,274.272L406.762,260.241L391.21,278.16L406.086,291.176C399.155,295.233 391.21,297.431 382.758,297.431C357.233,297.431 336.44,276.639 336.44,251.113C336.44,225.587 357.233,204.795 382.758,204.795C408.284,204.795 429.245,225.587 429.245,251.113C429.245,259.565 426.878,267.51 422.99,274.272Z" style="fill:url(#_Linear18);fill-rule:nonzero;"/>
        </g>
        <g transform="matrix(0.949386,0,0,0.97624,0,0)">
            <path d="M545.062,183.327L490.63,183.327L490.63,318.899L514.296,318.899L514.296,270.722L539.483,270.722L568.39,318.899L593.577,318.899L562.473,267.172C578.025,260.41 588.675,245.027 588.675,227.109C588.675,202.936 569.235,183.327 545.062,183.327ZM545.062,207.162C556.05,207.162 565.009,216.121 565.009,227.109C565.009,237.759 556.557,246.38 545.907,246.887L514.296,246.887L514.296,207.162L545.062,207.162Z" style="fill:url(#_Linear19);fill-rule:nonzero;"/>
        </g>
        <g transform="matrix(0.949386,0,0,0.97624,0,0)">
            <path d="M724.777,196.85C724.777,196.85 711.422,180.96 679.98,180.96C649.891,180.96 631.465,200.738 631.465,221.699C631.465,224.573 631.803,227.278 632.479,230.152C636.874,248.239 651.412,255.508 669.161,259.903C676.768,261.763 685.052,263.284 692.32,265.651C699.42,268.017 705.844,271.398 707.027,280.189C707.196,280.865 707.196,281.372 707.196,282.048C707.196,291.514 696.039,298.445 681.164,298.445C660.371,298.445 642.622,287.457 642.622,287.457L630.62,306.897C630.62,306.897 653.779,321.266 681.164,321.266C711.422,321.266 730.017,301.995 730.017,281.71C730.017,280.189 729.848,278.667 729.679,277.146C726.129,252.127 706.182,244.689 684.375,239.956C678.121,238.604 671.866,237.421 666.288,235.392C660.878,233.363 656.314,230.828 654.793,224.742C654.455,223.559 654.455,222.545 654.455,221.53C654.455,211.726 665.273,203.781 679.98,203.781C699.082,203.781 707.703,212.064 707.703,212.064L724.777,196.85Z" style="fill:url(#_Linear20);fill-rule:nonzero;"/>
        </g>
        <g transform="matrix(0.949386,0,0,0.97624,0,0)">
            <path d="M754.043,183.327L754.043,207.331L794.952,207.331L794.952,318.899L818.956,318.899L818.956,207.331L860.033,207.331L860.033,183.327L754.043,183.327Z" style="fill:url(#_Linear21);fill-rule:nonzero;"/>
        </g>
        <g transform="matrix(0.949386,0,0,0.97624,0,0)">
            <path d="M897.076,268.355C897.076,297.6 920.742,321.266 949.986,321.266C979.231,321.266 1003.07,297.6 1003.07,268.355L1003.07,183.327L979.231,183.327L979.231,268.355C979.231,284.415 966.046,297.431 949.986,297.431C933.927,297.431 920.911,284.415 920.911,268.355L920.911,183.327L897.076,183.327L897.076,268.355Z" style="fill:url(#_Linear22);fill-rule:nonzero;"/>
        </g>
        <g transform="matrix(0.949386,0,0,0.97624,0,0)">
            <path d="M1111.47,290.411L1158.06,183.496L1182.82,183.496L1123.9,318.728L1099.04,318.728L1040.12,183.496L1064.88,183.496L1111.47,290.411Z" style="fill:url(#_Linear23);fill-rule:nonzero;"/>
        </g>
        <g transform="matrix(0.949386,0,0,0.97624,0,0)">
            <path d="M1278.99,285.091L1242.31,183.327L1218.13,183.327L1266.82,318.899L1291.16,318.899L1327.67,217.135L1364.19,318.899L1388.53,318.899L1437.21,183.327L1412.87,183.327L1376.36,285.091L1339.84,183.327L1315.5,183.327L1278.99,285.091Z" style="fill:url(#_Linear24);fill-rule:nonzero;"/>
        </g>
        <g transform="matrix(0.949386,0,0,0.97624,0,0)">
            <path d="M1531.39,230.828L1499.27,183.327L1471.72,183.327L1517.7,251.113L1471.72,318.899L1499.11,318.899L1531.39,271.398L1563.68,318.899L1591.07,318.899L1545.09,251.113L1591.07,183.327L1563.68,183.327L1531.39,230.828Z" style="fill:url(#_Linear25);fill-rule:nonzero;"/>
        </g>
        <g transform="matrix(0.949386,0,0,0.97624,0,0)">
            <path d="M1687.61,231.673L1655.66,183.327L1628.11,183.327L1675.61,255.508L1675.61,318.899L1699.44,318.899L1699.44,255.508L1746.94,183.327L1719.39,183.327L1687.61,231.673Z" style="fill:url(#_Linear26);fill-rule:nonzero;"/>
        </g>
        <g transform="matrix(0.949386,0,0,0.97624,0,0)">
            <path d="M1851.27,206.993L1781.45,295.233L1781.45,318.899L1881.53,318.899L1881.53,295.233L1811.54,295.233L1881.53,206.993L1881.53,183.327L1781.45,183.327L1781.45,206.993L1851.27,206.993Z" style="fill:url(#_Linear27);fill-rule:nonzero;"/>
        </g>
        <g transform="matrix(0.949386,0,0,0.97624,0,0)">
            <path d="M1984.33,267.848L1984.33,271.736C1983.31,286.105 1971.99,297.769 1957.79,297.769C1942.91,297.769 1931.25,285.091 1931.25,269.877C1931.25,254.663 1942.91,241.985 1957.79,241.985C1971.99,241.985 1983.31,253.48 1984.33,267.848ZM1984.33,310.278L1984.33,318.899L2007.99,318.899L2007.99,220.854L1984.33,220.854L1984.33,229.475C1978.24,222.545 1969.62,218.319 1957.79,218.319C1930.06,218.319 1907.58,241.478 1907.58,269.877C1907.58,298.276 1930.06,321.266 1957.79,321.266C1969.62,321.266 1978.24,317.209 1984.33,310.278Z" style="fill:url(#_Linear28);fill-rule:nonzero;"/>
        </g>
        <g transform="matrix(0.949386,0,0,0.97624,0,0)">
            <path d="M23.835,452.696L23.835,448.977C24.849,434.609 36.006,422.945 50.206,422.945C65.082,422.945 76.915,435.623 76.915,450.837C76.915,466.051 65.082,478.729 50.206,478.729C36.006,478.729 24.849,467.065 23.835,452.696ZM23.835,410.435L23.835,364.456L0.169,364.456L0.169,499.859L23.835,499.859L23.835,491.238C29.921,498.169 38.542,502.226 50.206,502.226C77.929,502.226 100.412,479.236 100.412,450.837C100.412,422.438 77.929,399.448 50.206,399.448C38.542,399.448 29.921,403.505 23.835,410.435Z" style="fill:url(#_Linear29);fill-rule:nonzero;"/>
        </g>
        <g transform="matrix(0.949386,0,0,0.97624,0,0)">
            <path d="M225.509,424.973C216.55,409.083 199.984,399.279 182.065,399.279C154.342,399.279 131.859,422.438 131.859,450.837C131.859,479.236 154.342,502.226 182.065,502.226C199.984,502.226 216.55,492.422 225.509,476.531L205.055,464.36C200.322,472.813 191.532,478.053 182.065,478.053C167.359,478.053 155.525,465.882 155.525,450.837C155.525,435.792 167.359,423.621 182.065,423.621C191.532,423.621 200.322,428.692 205.055,437.144L225.509,424.973Z" style="fill:url(#_Linear30);fill-rule:nonzero;"/>
        </g>
        <g transform="matrix(0.949386,0,0,0.97624,0,0)">
            <path d="M327.617,448.977L327.617,452.696C326.603,467.065 315.446,478.729 301.246,478.729C286.371,478.729 274.538,466.051 274.538,450.837C274.538,435.623 286.371,422.945 301.246,422.945C315.446,422.945 326.603,434.609 327.617,448.977ZM327.617,410.435C321.532,403.505 312.91,399.448 301.246,399.448C273.523,399.448 251.041,422.438 251.041,450.837C251.041,479.236 273.523,502.226 301.246,502.226C312.91,502.226 321.532,498.169 327.617,491.238L327.617,499.859L351.283,499.859L351.283,364.456L327.617,364.456L327.617,410.435Z" style="fill:url(#_Linear31);fill-rule:nonzero;"/>
        </g>
        <g transform="matrix(0.949386,0,0,0.97624,0,0)">
            <path d="M455.589,442.047L408.933,442.047C410.285,437.99 412.313,434.102 415.356,431.059C420.935,425.48 427.358,422.776 433.613,422.776C436.487,422.776 439.36,423.283 441.896,424.466C448.489,427.34 453.729,433.594 455.589,442.047ZM398.79,414.493C389.662,424.128 384.59,437.144 384.59,450.668C384.59,479.236 406.904,502.226 434.627,502.226C462.35,502.226 473.169,492.083 473.169,492.083L463.027,472.643C463.027,472.643 449.503,478.391 434.627,478.391C422.625,478.391 412.483,470.446 408.933,459.289L479.931,459.289L479.931,448.977C479.762,425.649 467.084,409.59 451.193,402.829C445.615,400.462 439.529,399.279 433.444,399.279C421.611,399.279 409.271,403.843 398.79,414.323L398.79,414.493Z" style="fill:url(#_Linear32);fill-rule:nonzero;"/>
        </g>
        <g transform="matrix(0.949386,0,0,0.97624,0,0)">
            <path d="M511.209,393.869L511.209,401.476L497.686,401.476L497.686,425.142L511.209,425.142L511.209,499.69L534.875,499.69L534.875,425.142L555.837,425.142L555.837,401.476L534.875,401.476L534.875,393.869C534.875,386.938 540.454,381.36 547.385,381.36C554.315,381.36 558.88,382.374 558.88,382.374L562.599,360.23C562.599,360.23 556.175,357.694 547.385,357.694C527.438,357.694 511.209,373.922 511.209,393.869Z" style="fill:url(#_Linear33);fill-rule:nonzero;"/>
        </g>
        <g transform="matrix(0.949386,0,0,0.97624,0,0)">
            <path d="M648.309,444.582L648.309,448.132C647.464,460.134 637.997,469.77 626.164,469.77C613.655,469.77 603.851,459.12 603.851,446.273C603.851,433.425 613.655,422.776 626.164,422.776C637.997,422.776 647.464,432.58 648.309,444.582ZM648.309,484.984L648.309,488.872C648.309,498.338 645.773,505.269 640.871,509.833C635.969,514.228 629.207,516.088 621.938,516.088C603.682,516.088 590.496,510.847 590.496,510.847L581.537,532.485C581.537,532.485 598.441,539.754 621.938,539.754C635.462,539.754 647.971,535.528 656.93,527.245C665.89,518.961 671.975,506.283 671.975,488.872L671.975,401.814L648.309,401.814L648.309,407.562C643.069,402.321 635.8,399.279 626.164,399.279C600.808,399.279 580.354,420.24 580.354,446.273C580.354,472.305 600.808,493.267 626.164,493.267C635.8,493.267 643.069,490.224 648.309,484.984Z" style="fill:url(#_Linear34);fill-rule:nonzero;"/>
        </g>
        <g transform="matrix(0.949386,0,0,0.97624,0,0)">
            <path d="M755.657,423.621C766.307,423.621 774.083,431.059 774.083,442.385L774.083,499.69L798.425,499.69L798.425,439.173C798.763,416.521 782.535,399.279 759.714,399.279C746.191,399.279 736.555,405.195 729.625,414.831L729.625,364.456L705.958,364.456L705.958,499.69L729.625,499.69L729.625,450.668C729.625,436.637 741.627,423.621 755.657,423.621Z" style="fill:url(#_Linear35);fill-rule:nonzero;"/>
        </g>
        <g transform="matrix(0.949386,0,0,0.97624,0,0)">
            <path d="M856.582,401.645L832.916,401.645L832.916,499.859L856.582,499.859L856.582,401.645ZM844.749,364.287C836.804,364.287 830.549,370.71 830.549,378.486C830.549,386.431 836.804,392.855 844.749,392.855C852.694,392.855 859.117,386.431 859.117,378.486C859.117,370.71 852.694,364.287 844.749,364.287Z" style="fill:url(#_Linear36);fill-rule:nonzero;"/>
        </g>
        <g transform="matrix(0.949386,0,0,0.97624,0,0)">
            <path d="M907.3,361.92C899.524,361.92 893.101,368.344 893.101,376.12C893.101,383.896 899.524,390.319 907.3,390.319C915.076,390.319 921.5,383.896 921.5,376.12C921.5,368.344 915.076,361.92 907.3,361.92ZM895.467,499.69C895.467,508.65 888.198,515.919 879.239,515.919C874.844,515.919 870.787,514.228 867.744,511.185L851.009,527.921C858.447,535.359 868.589,539.585 879.239,539.585C901.215,539.585 919.133,521.666 919.133,499.69L919.133,401.645L895.467,401.645L895.467,499.69Z" style="fill:url(#_Linear37);fill-rule:nonzero;"/>
        </g>
        <g transform="matrix(0.949386,0,0,0.97624,0,0)">
            <path d="M979.487,435.792L979.487,364.287L955.483,364.287L955.483,499.859L979.487,499.859L979.487,467.403L985.911,460.472L1017.18,499.859L1045.92,499.859L1001.46,443.737L1040.34,401.645L1011.1,401.645L979.487,435.792Z" style="fill:url(#_Linear38);fill-rule:nonzero;"/>
        </g>
        <g transform="matrix(0.949386,0,0,0.97624,0,0)">
            <path d="M1103.57,361.92L1079.9,364.287L1079.9,499.69L1103.57,499.69L1103.57,361.92Z" style="fill:url(#_Linear39);fill-rule:nonzero;"/>
        </g>
        <g transform="matrix(0.949386,0,0,0.97624,0,0)">
            <path d="M1185.39,423.621C1196.04,423.621 1203.82,431.059 1203.82,442.385L1203.82,499.69L1228.16,499.69L1228.16,450.161C1228.16,436.975 1239.32,423.621 1253.86,423.621C1264.51,423.621 1272.28,431.059 1272.28,442.385L1272.28,499.69L1296.62,499.69L1296.62,439.173C1296.96,416.521 1280.73,399.279 1257.91,399.279C1241.85,399.279 1231.2,407.731 1224.27,420.578C1218.19,407.731 1205.51,399.279 1189.45,399.279C1175.93,399.279 1166.29,405.195 1159.36,414.831L1159.36,401.814L1135.69,401.814L1135.69,499.69L1159.36,499.69L1159.36,450.668C1159.36,436.637 1171.36,423.621 1185.39,423.621Z" style="fill:url(#_Linear40);fill-rule:nonzero;"/>
        </g>
        <g transform="matrix(0.949386,0,0,0.97624,0,0)">
            <path d="M1380.31,423.621C1390.95,423.621 1398.73,431.059 1398.73,442.385L1398.73,499.69L1423.07,499.69L1423.07,439.173C1423.41,416.521 1407.18,399.279 1384.36,399.279C1370.84,399.279 1361.2,405.195 1354.27,414.831L1354.27,401.814L1330.61,401.814L1330.61,499.69L1354.27,499.69L1354.27,450.668C1354.27,436.637 1366.28,423.621 1380.31,423.621Z" style="fill:url(#_Linear41);fill-rule:nonzero;"/>
        </g>
        <g transform="matrix(0.949386,0,0,0.97624,0,0)">
            <path d="M1505.57,399.279C1477.85,399.279 1455.37,422.438 1455.37,450.837C1455.37,479.236 1477.85,502.226 1505.57,502.226C1533.3,502.226 1555.78,479.236 1555.78,450.837C1555.78,422.438 1533.3,399.279 1505.57,399.279ZM1505.57,423.621C1520.28,423.621 1532.11,435.792 1532.11,450.837C1532.11,465.882 1520.28,478.053 1505.57,478.053C1490.87,478.053 1479.03,465.882 1479.03,450.837C1479.03,435.792 1490.87,423.621 1505.57,423.621Z" style="fill:url(#_Linear42);fill-rule:nonzero;"/>
        </g>
        <g transform="matrix(0.949386,0,0,0.97624,0,0)">
            <path d="M1611.74,452.696L1611.74,448.808C1612.75,434.44 1624.08,422.945 1638.28,422.945C1653.15,422.945 1664.82,435.623 1664.82,450.837C1664.82,466.051 1653.15,478.729 1638.28,478.729C1624.08,478.729 1612.75,467.065 1611.74,452.696ZM1611.74,410.435L1611.74,401.814L1588.07,401.814L1588.07,537.218L1611.74,537.218L1611.74,491.238C1617.82,498.169 1626.44,502.226 1638.28,502.226C1666,502.226 1688.48,479.236 1688.48,450.837C1688.48,422.438 1666,399.279 1638.28,399.279C1626.44,399.279 1617.82,403.505 1611.74,410.435Z" style="fill:url(#_Linear43);fill-rule:nonzero;"/>
        </g>
        <g transform="matrix(0.949386,0,0,0.97624,0,0)">
            <path d="M1796.68,452.696C1795.66,467.065 1784.34,478.729 1770.14,478.729C1755.26,478.729 1743.6,466.051 1743.6,450.837C1743.6,435.623 1755.26,422.945 1770.14,422.945C1784.34,422.945 1795.66,434.44 1796.68,448.808L1796.68,452.696ZM1796.68,410.435C1790.59,403.505 1781.97,399.279 1770.14,399.279C1742.41,399.279 1719.93,422.438 1719.93,450.837C1719.93,479.236 1742.41,502.226 1770.14,502.226C1781.97,502.226 1790.59,498.169 1796.68,491.238L1796.68,537.218L1820.34,537.218L1820.34,401.814L1796.68,401.814L1796.68,410.435Z" style="fill:url(#_Linear44);fill-rule:nonzero;"/>
        </g>
        <g transform="matrix(0.949386,0,0,0.97624,0,0)">
            <path d="M1878.84,410.097L1878.84,401.645L1855.17,401.645L1855.17,499.69L1878.84,499.69L1878.84,449.485C1878.84,434.778 1890.67,422.945 1905.38,422.945C1912.65,422.945 1917.21,423.79 1917.21,423.79L1917.21,400.631C1917.21,400.631 1909.43,399.279 1905.38,399.279C1893.54,399.279 1884.92,403.336 1878.84,410.097Z" style="fill:url(#_Linear45);fill-rule:nonzero;"/>
        </g>
        <g transform="matrix(0.949386,0,0,0.97624,0,0)">
            <path d="M2017.97,409.759C2017.97,409.759 2004.27,399.279 1980.94,399.279C1956.26,399.279 1941.73,415 1941.73,430.89C1941.73,433.087 1942.07,435.285 1942.57,437.482C1946.12,451.006 1957.79,457.261 1971.99,460.472C1977.56,461.656 1983.65,462.501 1988.89,464.191C1992.95,465.375 1996.84,466.727 1997.51,471.291C1997.68,472.982 1996.33,474.165 1994.81,475.348C1991.26,478.053 1986.18,479.405 1980.1,479.405C1964.72,479.405 1950.52,472.136 1950.52,472.136L1940.04,492.422C1940.04,492.422 1959.31,502.226 1980.1,502.226C1994.81,502.226 2006.47,496.817 2013.06,489.548C2017.97,484.307 2020.5,478.053 2020.5,471.629C2020.5,470.446 2020.33,469.094 2020.16,467.91C2017.8,452.189 2006.47,445.089 1992.27,441.37C1985.34,439.511 1977.56,438.666 1971.14,436.468C1968.27,435.454 1965.56,434.778 1964.72,431.735C1964.55,431.397 1964.55,431.059 1964.55,430.721C1964.55,429.199 1965.56,427.847 1966.75,426.664C1969.79,423.79 1974.86,422.099 1980.94,422.099C1995.65,422.099 2004.27,428.185 2004.27,428.185L2017.97,409.759Z" style="fill:url(#_Linear46);fill-rule:nonzero;"/>
        </g>
        <g transform="matrix(0.949386,0,0,0.97624,0,0)">
            <path d="M13.354,647.856C13.354,667.296 29.245,683.186 48.685,683.186C56.122,683.186 68.125,680.989 68.125,680.989L65.251,658.506C65.251,658.506 55.108,659.689 48.685,659.689C42.261,659.689 37.021,654.28 37.021,647.856L37.021,606.271L65.251,606.271L65.251,582.774L37.021,582.774L37.021,556.742L13.354,559.277L13.354,582.774L0,582.774L0,606.271L13.354,606.271L13.354,647.856Z" style="fill:url(#_Linear47);fill-rule:nonzero;"/>
        </g>
        <g transform="matrix(0.949386,0,0,0.97624,0,0)">
            <path d="M141.022,658.844C130.542,658.844 122.597,651.406 122.597,640.249L122.597,582.774L98.254,582.774L98.254,643.292C97.916,665.944 114.144,683.186 136.965,683.186C150.489,683.186 160.124,677.27 167.055,667.634L167.055,680.819L190.721,680.819L190.721,582.774L167.055,582.774L167.055,631.966C167.055,645.997 154.884,658.844 141.022,658.844Z" style="fill:url(#_Linear48);fill-rule:nonzero;"/>
        </g>
        <g transform="matrix(0.949386,0,0,0.97624,0,0)">
            <path d="M282.045,652.927L251.448,582.774L227.274,582.774L270.042,680.819L294.216,680.819L336.984,582.774L312.81,582.774L282.045,652.927Z" style="fill:url(#_Linear49);fill-rule:nonzero;"/>
        </g>
        <g transform="matrix(0.949386,0,0,0.97624,0,0)">
            <path d="M372.016,582.774L407.177,680.819L431.519,680.819L454.678,616.414L477.837,680.819L502.01,680.819L537.34,582.774L512.998,582.774L489.839,647.011L466.849,582.774L442.507,582.774L419.348,647.011L396.189,582.774L372.016,582.774Z" style="fill:url(#_Linear50);fill-rule:nonzero;"/>
        </g>
        <g transform="matrix(0.949386,0,0,0.97624,0,0)">
            <path d="M618.521,611.512L599.081,582.774L571.527,582.774L604.829,631.797L571.527,680.819L598.912,680.819L618.521,651.913L638.13,680.819L665.515,680.819L632.214,631.628L665.515,582.774L638.13,582.774L618.521,611.512Z" style="fill:url(#_Linear51);fill-rule:nonzero;"/>
        </g>
        <g transform="matrix(0.949386,0,0,0.97624,0,0)">
            <path d="M754.641,696.033L804.002,582.774L779.829,582.774L749.063,652.927L718.466,582.774L694.293,582.774L737.061,680.819L733.342,689.272C730.468,694.85 724.72,698.4 718.297,698.4C713.733,698.4 709.507,696.71 706.295,693.498L690.574,709.219C697.843,716.488 707.985,720.714 718.297,720.714C734.356,720.714 748.725,710.909 754.641,696.033Z" style="fill:url(#_Linear52);fill-rule:nonzero;"/>
        </g>
        <g transform="matrix(0.949386,0,0,0.97624,0,0)">
            <path d="M885.183,606.44L838.189,656.984L838.189,680.65L918.822,680.65L918.822,656.984L872.504,656.984L918.822,606.44L918.822,582.774L838.189,582.774L838.189,606.44L885.183,606.44Z" style="fill:url(#_Linear53);fill-rule:nonzero;"/>
        </g>
        <g transform="matrix(0.949386,0,0,0.97624,0,0)">
            <path d="M955.545,545.247L955.545,569.082L970.759,569.082L970.759,680.819L994.594,680.819L994.594,545.247L955.545,545.247Z" style="fill:url(#_Linear54);fill-rule:nonzero;"/>
        </g>
        <g transform="matrix(0.949386,0,0,0.97624,0,0)">
            <path d="M1033.01,680.65L1120.4,680.65L1120.4,656.984L1069.35,656.984C1086.26,643.968 1098.09,632.98 1106.03,623.007C1116.51,609.821 1120.74,597.988 1120.74,586.155C1120.74,571.786 1115.5,561.306 1107.56,554.206C1099.27,546.768 1087.78,542.88 1075.78,542.88C1063.43,542.88 1052.11,547.782 1044,556.234C1036.22,564.179 1031.32,575.336 1031.32,588.015L1054.81,588.015C1054.81,581.929 1057.18,576.689 1060.9,572.801C1064.62,568.913 1070.03,566.546 1075.78,566.546C1081.69,566.546 1087.44,568.067 1091.66,571.786C1095.21,574.998 1097.24,579.731 1097.24,586.155C1097.24,595.622 1092.17,604.75 1081.52,616.245C1070.87,627.74 1055.15,640.925 1033.01,656.984L1033.01,680.65Z" style="fill:url(#_Linear55);fill-rule:nonzero;"/>
        </g>
        <g transform="matrix(0.949386,0,0,0.97624,0,0)">
            <path d="M1187.55,620.133C1187.55,620.133 1192.96,619.119 1202.26,619.119C1214.09,619.119 1223.56,628.247 1223.56,639.742C1223.56,651.237 1214.09,660.534 1202.26,660.534C1190.43,660.534 1180.96,651.237 1180.96,639.742L1157.46,639.742C1157.46,663.746 1177.58,683.186 1202.26,683.186C1226.94,683.186 1247.06,663.746 1247.06,639.742C1247.06,621.316 1235.22,605.764 1218.66,599.341L1243.34,569.251L1243.34,545.416L1161.01,545.416L1161.01,569.251L1216.12,569.251L1187.55,601.707L1187.55,620.133Z" style="fill:url(#_Linear56);fill-rule:nonzero;"/>
        </g>
        <g transform="matrix(0.949386,0,0,0.97624,0,0)">
            <path d="M1309.64,630.783L1351.4,545.247L1325.53,545.247L1283.61,630.783L1283.61,654.618L1339.56,654.618L1339.56,680.819L1363.4,680.819L1363.4,654.618L1376.75,654.618L1376.75,630.783L1363.4,630.783L1363.4,599.848L1339.56,599.848L1339.56,630.783L1309.64,630.783Z" style="fill:url(#_Linear57);fill-rule:nonzero;"/>
        </g>
        <g transform="matrix(0.949386,0,0,0.97624,0,0)">
            <path d="M1423.11,545.416C1423.11,545.416 1416.86,612.357 1416.69,612.526L1435.62,625.711C1440.18,620.133 1447.11,616.921 1454.55,616.921C1467.57,616.921 1478.22,626.895 1478.22,639.066C1478.22,651.237 1467.57,661.21 1454.55,661.21C1446.1,661.21 1438.15,656.984 1433.93,650.054L1413.48,661.21C1421.93,674.903 1437.65,683.186 1454.55,683.186C1480.75,683.186 1501.88,663.408 1501.88,639.066C1501.88,614.723 1480.75,594.776 1454.55,594.776C1449.48,594.776 1444.58,595.453 1439.85,596.974L1442.38,569.251L1493.6,569.251L1493.6,545.416L1423.11,545.416Z" style="fill:url(#_Linear58);fill-rule:nonzero;"/>
        </g>
        <g transform="matrix(0.949386,0,0,0.97624,0,0)">
            <path d="M1585.43,614.893C1598.28,614.893 1608.76,625.204 1608.76,637.713C1608.76,650.223 1598.28,660.534 1585.43,660.534C1572.59,660.534 1561.93,650.223 1561.93,637.713C1561.93,625.204 1572.59,614.893 1585.43,614.893ZM1583.57,592.072L1608.76,545.416L1582.22,545.416L1543.34,617.766C1540.3,623.852 1538.61,630.614 1538.61,637.713C1538.61,662.901 1559.57,683.186 1585.43,683.186C1611.3,683.186 1632.26,662.901 1632.26,637.713C1632.26,612.526 1611.3,592.072 1585.43,592.072L1583.57,592.072Z" style="fill:url(#_Linear59);fill-rule:nonzero;"/>
        </g>
        <g transform="matrix(0.949386,0,0,0.97624,0,0)">
            <path d="M1752.49,569.082L1752.49,545.416L1668.81,545.416L1668.81,569.082L1726.62,569.082L1675.74,680.65L1701.61,680.65L1752.49,569.082Z" style="fill:url(#_Linear60);fill-rule:nonzero;"/>
        </g>
        <g transform="matrix(0.949386,0,0,0.97624,0,0)">
            <path d="M1835.02,601.369L1831.3,601.369C1822.34,600.524 1815.41,593.086 1815.41,584.127C1815.41,574.491 1823.36,566.715 1833.16,566.715C1842.97,566.715 1850.91,574.491 1850.91,584.127C1850.91,593.086 1843.98,600.524 1835.02,601.369ZM1833.5,622.838C1844.83,623.007 1853.95,631.628 1853.95,642.278C1853.95,653.096 1844.66,661.718 1833.16,661.718C1821.67,661.718 1812.2,653.096 1812.2,642.278C1812.2,631.628 1821.5,623.007 1832.82,622.838L1833.5,622.838ZM1804.59,611.005C1795.13,618.442 1789.21,629.768 1789.21,642.278C1789.21,664.929 1808.99,683.186 1833.16,683.186C1857.33,683.186 1877.11,664.929 1877.11,642.278C1877.11,629.768 1871.03,618.442 1861.56,611.005C1868.49,604.074 1872.89,594.607 1872.89,584.127C1872.89,562.827 1855.14,545.416 1833.16,545.416C1811.18,545.416 1793.43,562.827 1793.43,584.127C1793.43,594.607 1797.66,604.074 1804.59,611.005Z" style="fill:url(#_Linear61);fill-rule:nonzero;"/>
        </g>
        <g transform="matrix(0.949386,0,0,0.97624,0,0)">
            <path d="M1960.49,613.709C1947.64,613.709 1937.16,603.567 1937.16,591.057C1937.16,578.548 1947.64,568.237 1960.49,568.237C1973.34,568.237 1983.99,578.548 1983.99,591.057C1983.99,603.567 1973.34,613.709 1960.49,613.709ZM1962.52,636.53L1937.33,683.186L1963.7,683.186L2002.58,610.835C2005.62,604.75 2007.32,598.157 2007.32,591.057C2007.32,565.87 1986.35,545.416 1960.49,545.416C1934.63,545.416 1913.66,565.87 1913.66,591.057C1913.66,616.245 1934.63,636.53 1960.49,636.53L1962.52,636.53Z" style="fill:url(#_Linear62);fill-rule:nonzero;"/>
        </g>
        <g transform="matrix(0.949386,0,0,0.97624,0,0)">
            <path d="M66.941,769.313L66.941,818.673C66.941,830.506 57.306,840.142 45.473,840.142C33.64,840.142 24.173,830.506 24.173,818.673L24.173,769.313C24.173,757.48 33.64,747.844 45.473,747.844C57.306,747.844 66.941,757.48 66.941,769.313ZM0,769.313L0,818.673C0,843.861 20.285,864.146 45.473,864.146C70.66,864.146 91.114,843.861 91.114,818.673L91.114,769.313C91.114,744.125 70.66,723.84 45.473,723.84C20.285,723.84 0,744.125 0,769.313Z" style="fill:url(#_Linear63);fill-rule:nonzero;"/>
        </g>
        <g transform="matrix(0.949386,0,0,0.97624,0,0)">
            <path d="M168.216,835.747C160.271,835.747 154.016,842.17 154.016,849.946C154.016,857.891 160.271,864.146 168.216,864.146C176.161,864.146 182.584,857.891 182.584,849.946C182.584,842.17 176.161,835.747 168.216,835.747ZM180.218,726.207L156.383,726.207L156.383,820.533L180.218,820.533L180.218,726.207Z" style="fill:url(#_Linear64);fill-rule:nonzero;"/>
        </g>
        <g transform="matrix(0.949386,0,0,0.97624,0,0)">
            <path d="M269.321,726.376L245.655,726.376L245.655,783.512L269.321,783.512L269.321,726.376ZM313.442,726.376L289.945,726.376L289.945,783.512L313.442,783.512L313.442,726.376Z" style="fill:url(#_Linear65);fill-rule:nonzero;"/>
        </g>
        <g transform="matrix(0.949386,0,0,0.97624,0,0)">
            <path d="M430.944,757.48L436.354,726.207L413.364,726.207L408.123,757.48L389.021,757.48L384.964,780.808L404.066,780.808L399.502,807.178L380.569,807.178L376.512,830.506L395.614,830.506L390.205,861.779L413.026,861.779L418.435,830.506L436.523,830.506L431.113,861.779L453.934,861.779L459.344,830.506L478.445,830.506L482.333,807.178L463.401,807.178L467.796,780.808L486.898,780.808L490.955,757.48L471.853,757.48L477.262,726.207L454.441,726.207L449.032,757.48L430.944,757.48ZM444.975,780.808L440.58,807.178L422.492,807.178L426.887,780.808L444.975,780.808Z" style="fill:url(#_Linear66);fill-rule:nonzero;"/>
        </g>
        <g transform="matrix(0.949386,0,0,0.97624,0,0)">
            <path d="M620.967,725.699C639.73,729.926 648.183,739.73 648.183,739.73L631.109,754.944C631.109,754.944 626.883,751.056 618.093,748.52L613.698,784.189C633.138,789.091 649.873,797.374 653.085,820.026C653.254,821.547 653.423,823.069 653.423,824.59C653.423,844.875 634.828,864.146 604.569,864.146L603.555,864.146L601.019,885.107L578.03,885.107L581.072,860.934C565.182,856.708 554.025,849.777 554.025,849.777L566.027,830.337C566.027,830.337 573.296,834.902 583.946,838.113L588.51,801.769C572.62,797.205 559.942,789.767 555.885,773.032C555.209,770.327 554.871,767.453 554.871,764.579C554.871,744.801 571.268,726.038 598.315,724.009L601.019,702.879L623.84,702.879L620.967,725.699ZM610.824,807.009L606.429,841.325C620.29,840.818 630.433,834.056 630.433,824.928L630.433,823.069C628.912,812.419 620.121,809.376 610.824,807.009ZM591.384,778.779L595.441,747.506C584.96,749.704 577.691,756.296 577.691,764.241C577.691,773.539 584.453,776.413 591.384,778.779Z" style="fill:url(#_Linear67);fill-rule:nonzero;"/>
        </g>
        <g transform="matrix(0.949386,0,0,0.97624,0,0)">
            <path d="M745.4,741.59C752.5,741.59 758.416,747.506 758.416,754.606C758.416,761.706 752.5,767.453 745.4,767.453C738.3,767.453 732.553,761.706 732.553,754.606C732.553,747.506 738.3,741.59 745.4,741.59ZM745.4,723.84C728.327,723.84 714.634,737.533 714.634,754.606C714.634,771.679 728.327,785.372 745.4,785.372C762.473,785.372 776.166,771.679 776.166,754.606C776.166,737.533 762.473,723.84 745.4,723.84ZM818.258,820.533C825.358,820.533 831.274,826.449 831.274,833.549C831.274,840.649 825.358,846.397 818.258,846.397C811.158,846.397 805.411,840.649 805.411,833.549C805.411,826.449 811.158,820.533 818.258,820.533ZM833.303,726.207L810.144,726.207L730.355,861.779L753.683,861.779L833.303,726.207ZM818.258,802.783C801.353,802.783 787.661,816.645 787.661,833.549C787.661,850.454 801.353,864.146 818.258,864.146C835.162,864.146 849.024,850.454 849.024,833.549C849.024,816.645 835.162,802.783 818.258,802.783Z" style="fill:url(#_Linear68);fill-rule:nonzero;"/>
        </g>
        <g transform="matrix(0.949386,0,0,0.97624,0,0)">
            <path d="M932.042,783.85L931.873,783.85L933.225,785.879C918.687,798.895 912.094,814.616 912.094,827.633C912.094,850.115 928.999,864.146 953.341,864.146C965.005,864.146 974.81,861.272 982.924,856.539L986.643,861.779L1012.68,861.779L998.983,842.339C1009.12,829.323 1013.52,813.433 1013.52,802.952L992.559,802.952C992.559,808.531 990.531,816.814 986.135,824.252L963.484,792.134L973.457,785.203C982.755,778.779 987.657,768.467 987.657,757.987C987.657,751.394 985.628,744.632 981.571,738.885C975.148,729.757 965.005,724.854 954.524,724.854C947.932,724.854 941.17,726.883 935.253,730.94C926.125,737.363 921.223,747.506 921.223,757.818C921.223,764.41 923.251,771.172 927.308,777.089L932.042,783.85ZM945.396,803.121L970.753,839.297C965.85,841.832 960.103,843.354 953.341,843.354C941.17,843.354 933.056,837.775 933.056,827.802C933.056,825.266 933.563,822.223 934.746,819.011C936.775,813.602 940.156,808.193 945.396,803.121ZM951.313,775.06L944.382,765.087C942.86,762.889 942.184,760.522 942.184,757.987C942.184,754.099 943.875,750.38 947.255,748.013C949.453,746.492 951.82,745.816 954.355,745.816C958.243,745.816 961.962,747.506 964.329,750.887C965.85,753.085 966.526,755.451 966.526,757.987C966.526,761.875 964.836,765.594 961.455,767.96L951.313,775.06Z" style="fill:url(#_Linear69);fill-rule:nonzero;"/>
        </g>
        <g transform="matrix(0.949386,0,0,0.97624,0,0)">
            <rect x="1076.59" y="726.376" width="23.497" height="57.137" style="fill:url(#_Linear70);fill-rule:nonzero;"/>
        </g>
        <g transform="matrix(0.949386,0,0,0.97624,0,0)">
            <path d="M1186.49,707.612C1179.05,721.135 1173.3,733.137 1169.08,748.858C1165.02,763.734 1163.16,778.948 1163.16,793.993C1163.16,809.038 1164.68,824.083 1168.74,839.128C1172.96,854.68 1178.88,867.02 1186.49,880.374L1202.55,872.767C1197.48,859.582 1194.26,846.566 1191.73,833.718C1189.02,820.364 1187.5,807.178 1187.5,793.993C1187.5,780.808 1189.19,767.622 1191.9,754.268C1194.43,741.251 1197.64,728.235 1202.71,715.05L1186.49,707.612Z" style="fill:url(#_Linear71);fill-rule:nonzero;"/>
        </g>
        <g transform="matrix(0.949386,0,0,0.97624,0,0)">
            <path d="M1282.01,880.374C1289.45,866.851 1295.2,854.849 1299.42,839.128C1303.48,824.252 1305.34,809.038 1305.34,793.993C1305.34,778.948 1303.65,763.903 1299.6,748.858C1295.37,732.968 1289.62,721.135 1281.85,707.612L1265.79,715.219C1270.86,728.404 1274.07,741.421 1276.61,754.268C1279.31,767.622 1281,780.808 1281,793.993C1281,807.178 1279.14,820.364 1276.44,833.718C1273.9,846.735 1270.86,859.751 1265.79,872.936L1282.01,880.374Z" style="fill:url(#_Linear72);fill-rule:nonzero;"/>
        </g>
        <g transform="matrix(0.949386,0,0,0.97624,0,0)">
            <path d="M1408.31,753.761C1414.05,750.887 1423.35,746.661 1423.35,746.661L1415.75,733.475C1415.75,733.475 1407.46,739.899 1402.05,743.111C1402.05,742.097 1402.22,741.082 1402.22,740.068C1402.73,732.123 1403.57,726.376 1403.57,726.376L1388.36,726.376C1388.36,726.376 1389.04,732.123 1389.54,740.068C1389.54,741.082 1389.71,742.097 1389.71,743.111C1381.94,737.871 1376.02,733.475 1376.02,733.475L1368.41,746.661C1368.41,746.661 1375.17,749.704 1383.63,753.761C1375.17,757.818 1368.41,760.861 1368.41,760.861L1376.02,774.046C1376.02,774.046 1381.94,769.651 1389.71,764.41C1389.04,773.708 1388.36,781.146 1388.36,781.146L1403.57,781.146C1403.57,781.146 1402.73,773.708 1402.05,764.41C1407.63,767.791 1415.75,774.046 1415.75,774.046L1423.35,760.861C1423.35,760.861 1414.05,756.634 1408.31,753.761Z" style="fill:url(#_Linear73);fill-rule:nonzero;"/>
        </g>
        <g transform="matrix(0.949386,0,0,0.97624,0,0)">
            <path d="M1535.95,782.498L1535.95,755.958L1512.96,755.958L1512.96,782.498L1486.42,782.498L1486.42,805.488L1512.96,805.488L1512.96,832.028L1535.95,832.028L1535.95,805.488L1562.49,805.488L1562.49,782.498L1535.95,782.498Z" style="fill:url(#_Linear74);fill-rule:nonzero;"/>
        </g>
        <g transform="matrix(0.949386,0,0,0.97624,0,0)">
            <path d="M1661.23,835.747L1636.38,835.747L1625.56,878.684L1641.12,878.684L1661.23,835.747Z" style="fill:url(#_Linear75);fill-rule:nonzero;"/>
        </g>
        <g transform="matrix(0.949386,0,0,0.97624,0,0)">
            <rect x="1724.3" y="782.498" width="76.07" height="22.99" style="fill:url(#_Linear76);fill-rule:nonzero;"/>
        </g>
        <g transform="matrix(0.949386,0,0,0.97624,0,0)">
            <path d="M1863.44,849.946C1863.44,857.891 1869.7,864.146 1877.64,864.146C1885.59,864.146 1892.01,857.891 1892.01,849.946C1892.01,842.001 1885.59,835.747 1877.64,835.747C1869.7,835.747 1863.44,842.001 1863.44,849.946Z" style="fill:url(#_Linear77);fill-rule:nonzero;"/>
        </g>
        <g transform="matrix(0.949386,0,0,0.97624,0,0)">
            <path d="M2007.32,726.376L1983.99,726.376L1955.08,861.61L1978.41,861.61L2007.32,726.376Z" style="fill:url(#_Linear78);fill-rule:nonzero;"/>
        </g>
        <g transform="matrix(0.949386,0,0,0.97624,0,0)">
            <path d="M14.2,1016.71C21.976,1016.71 28.568,1022.96 28.568,1030.91C28.568,1038.68 21.976,1045.11 14.2,1045.11C6.255,1045.11 0,1038.68 0,1030.91C0,1022.96 6.255,1016.71 14.2,1016.71ZM14.2,960.753C21.976,960.753 28.568,967.008 28.568,974.953C28.568,982.729 21.976,989.322 14.2,989.322C6.255,989.322 0,982.729 0,974.953C0,967.008 6.255,960.753 14.2,960.753Z" style="fill:url(#_Linear79);fill-rule:nonzero;"/>
        </g>
        <g transform="matrix(0.949386,0,0,0.97624,0,0)">
            <path d="M87.395,1019.07L67.279,1061.84L51.727,1061.84L62.715,1019.07L87.395,1019.07ZM74.886,960.753C82.831,960.753 89.255,967.008 89.255,974.953C89.255,982.729 82.831,989.322 74.886,989.322C67.11,989.322 60.687,982.729 60.687,974.953C60.687,967.008 67.11,960.753 74.886,960.753Z" style="fill:url(#_Linear80);fill-rule:nonzero;"/>
        </g>
        <g transform="matrix(0.949386,0,0,0.97624,0,0)">
            <path d="M132.192,964.134L132.192,985.772L196.09,1014.85L196.09,993.379L155.689,974.953L196.09,956.527L196.09,935.059L132.192,964.134Z" style="fill:url(#_Linear81);fill-rule:nonzero;"/>
        </g>
        <g transform="matrix(0.949386,0,0,0.97624,0,0)">
            <path d="M301.066,1003.35L301.066,983.743L228.209,983.743L228.209,1003.35L301.066,1003.35ZM301.066,965.825L301.066,946.554L228.209,946.554L228.209,965.825L301.066,965.825Z" style="fill:url(#_Linear82);fill-rule:nonzero;"/>
        </g>
        <g transform="matrix(0.949386,0,0,0.97624,0,0)">
            <path d="M373.586,974.953L333.185,993.379L333.185,1014.85L397.083,985.603L397.083,964.134L333.185,935.059L333.185,956.527L373.586,974.953Z" style="fill:url(#_Linear83);fill-rule:nonzero;"/>
        </g>
        <g transform="matrix(0.949386,0,0,0.97624,0,0)">
            <path d="M449.994,941.144C449.994,941.144 455.91,927.621 470.11,927.621C481.774,927.621 490.057,935.059 490.057,943.849C490.057,944.863 489.888,945.878 489.719,946.892C487.521,957.373 480.929,960.246 475.35,964.134C465.208,971.234 455.91,979.01 455.91,1001.49L478.731,1001.49C478.731,987.124 486.338,984.419 492.931,979.686C501.045,973.939 508.821,966.839 512.033,951.625C512.54,948.92 512.878,946.216 512.878,943.68C512.878,923.395 496.481,904.8 470.11,904.8C441.542,904.8 429.201,931.678 429.201,931.678L449.994,941.144ZM468.081,1016.71C460.136,1016.71 453.882,1023.13 453.882,1030.91C453.882,1038.85 460.136,1045.11 468.081,1045.11C476.026,1045.11 482.45,1038.85 482.45,1030.91C482.45,1023.13 476.026,1016.71 468.081,1016.71Z" style="fill:url(#_Linear84);fill-rule:nonzero;"/>
        </g>
        <g transform="matrix(0.949386,0,0,0.97624,0,0)">
            <path d="M631.377,966.163L632.054,966.163C647.098,966.501 659.101,979.179 659.101,994.562C659.101,1009.95 647.098,1022.45 632.054,1022.79L631.377,1022.79C615.994,1022.79 603.654,1010.11 603.654,994.562C603.654,979.01 615.994,966.163 631.377,966.163ZM708.63,993.548C708.292,1004.54 706.433,1012.31 703.559,1017.89C698.826,1027.02 691.557,1028.03 688.514,1028.03C685.133,1027.86 682.598,1026.51 680.738,1024.65C678.71,1022.62 677.864,1019.92 677.864,1017.05L677.864,950.442L659.101,950.442L659.101,960.415C653.184,952.639 644.563,947.737 632.561,947.399L631.377,947.399C605.683,947.399 584.89,968.529 584.89,994.562C584.89,1020.6 605.683,1041.72 631.377,1041.72L632.561,1041.72C645.746,1041.39 655.043,1035.47 660.791,1026.17C662.312,1030.4 664.679,1034.46 668.06,1037.5C672.962,1042.06 679.724,1045.11 687.838,1045.11L688.514,1045.11C693.754,1044.94 705.926,1043.59 714.378,1030.91C718.942,1023.98 722.83,1013.33 722.83,996.591L722.83,992.534C722.154,944.356 683.274,905.476 635.096,904.8L632.73,904.8C584.214,905.476 544.996,944.863 544.996,993.548C544.996,1042.57 584.89,1082.46 633.913,1082.46L635.603,1082.46C653.184,1082.13 670.426,1076.55 684.964,1066.41L676.85,1054.91C664.679,1063.36 650.141,1068.1 635.265,1068.43L633.913,1068.43C592.666,1068.43 559.027,1034.79 559.027,993.548C559.027,952.301 592.666,918.831 633.913,918.831L634.927,918.831C675.836,919.338 708.63,952.639 708.63,993.548Z" style="fill:url(#_Linear85);fill-rule:nonzero;"/>
        </g>
        <g transform="matrix(0.949386,0,0,0.97624,0,0)">
            <path d="M754.948,891.107L754.948,1058.8L796.195,1058.8L796.195,1035.98L777.769,1035.98L777.769,913.928L796.195,913.928L796.195,891.107L754.948,891.107Z" style="fill:url(#_Linear86);fill-rule:nonzero;"/>
        </g>
        <g transform="matrix(0.949386,0,0,0.97624,0,0)">
            <path d="M851.641,907.167L828.313,907.167L851.641,1042.74L874.969,1042.74L851.641,907.167Z" style="fill:url(#_Linear87);fill-rule:nonzero;"/>
        </g>
        <g transform="matrix(0.949386,0,0,0.97624,0,0)">
            <path d="M907.087,891.107L907.087,913.928L925.513,913.928L925.513,1035.98L907.087,1035.98L907.087,1058.8L948.334,1058.8L948.334,891.107L907.087,891.107Z" style="fill:url(#_Linear88);fill-rule:nonzero;"/>
        </g>
        <g transform="matrix(0.949386,0,0,0.97624,0,0)">
            <path d="M1005.98,907.167L980.452,961.937L1001.58,961.937L1016.63,929.818L1031.67,961.937L1052.8,961.937L1027.11,907.167L1005.98,907.167Z" style="fill:url(#_Linear89);fill-rule:nonzero;"/>
        </g>
        <g transform="matrix(0.949386,0,0,0.97624,0,0)">
            <rect x="1084.92" y="1035.98" width="103.793" height="18.933" style="fill:url(#_Linear90);fill-rule:nonzero;"/>
        </g>
        <g transform="matrix(0.949386,0,0,0.97624,0,0)">
            <path d="M1243.65,904.631L1220.83,904.631L1248.89,961.937L1271.71,961.937L1243.65,904.631Z" style="fill:url(#_Linear91);fill-rule:nonzero;"/>
        </g>
        <g transform="matrix(0.949386,0,0,0.97624,0,0)">
            <path d="M1303.83,963.458L1303.83,986.448L1307.89,986.448C1316.34,986.448 1319.55,989.66 1319.55,998.112L1319.55,1034.29C1319.55,1049.33 1329.02,1058.8 1344.07,1058.8L1357.59,1058.8L1357.59,1036.15L1353.53,1036.15C1345.25,1036.15 1341.87,1032.6 1341.87,1024.31L1341.87,988.138C1341.87,983.743 1339.84,979.01 1336.63,974.953C1339.84,970.896 1341.87,966.163 1341.87,961.768L1341.87,925.592C1341.87,917.309 1345.25,913.928 1353.53,913.928L1357.59,913.928L1357.59,891.107L1344.07,891.107C1329.02,891.107 1319.55,900.574 1319.55,915.619L1319.55,951.794C1319.55,960.246 1316.34,963.458 1307.89,963.458L1303.83,963.458Z" style="fill:url(#_Linear92);fill-rule:nonzero;"/>
        </g>
        <g transform="matrix(0.949386,0,0,0.97624,0,0)">
            <rect x="1389.71" y="891.107" width="23.835" height="167.522" style="fill:url(#_Linear93);fill-rule:nonzero;"/>
        </g>
        <g transform="matrix(0.949386,0,0,0.97624,0,0)">
            <path d="M1499.42,986.448L1499.42,963.458L1495.36,963.458C1486.91,963.458 1483.69,960.246 1483.69,951.794L1483.69,915.619C1483.69,900.574 1474.23,891.107 1459.18,891.107L1445.66,891.107L1445.66,913.928L1449.72,913.928C1458,913.928 1461.38,917.309 1461.38,925.592L1461.38,961.768C1461.38,966.163 1463.41,970.896 1466.62,974.953C1463.41,979.01 1461.38,983.743 1461.38,988.138L1461.38,1024.31C1461.38,1032.6 1458,1036.15 1449.72,1036.15L1445.66,1036.15L1445.66,1058.8L1459.18,1058.8C1474.23,1058.8 1483.69,1049.33 1483.69,1034.29L1483.69,998.112C1483.69,989.66 1486.91,986.448 1495.36,986.448L1499.42,986.448Z" style="fill:url(#_Linear94);fill-rule:nonzero;"/>
        </g>
        <g transform="matrix(0.949386,0,0,0.97624,0,0)">
            <path d="M1549.11,987.969C1549.11,983.236 1551.48,980.362 1554.69,979.348C1555.88,979.01 1557.06,978.672 1558.41,978.672C1561.62,978.672 1564.84,979.855 1567.2,981.884C1572.78,986.617 1580.39,989.153 1587.83,989.153C1590.87,989.153 1594.08,988.646 1596.95,987.8C1606.93,984.589 1615.04,976.474 1615.21,961.768L1596.11,961.768C1596.11,966.163 1594.25,969.037 1591.21,970.051C1590.02,970.389 1588.67,970.727 1587.32,970.727C1584.28,970.727 1581.23,969.544 1578.87,967.684C1573.29,963.12 1565.85,960.753 1558.58,960.753C1555.37,960.753 1552.16,961.261 1549.11,962.275C1539.48,965.487 1531.53,973.601 1531.53,987.631L1531.53,987.969L1549.11,987.969Z" style="fill:url(#_Linear95);fill-rule:nonzero;"/>
        </g>
    </g>
    <g transform="matrix(1,0,0,1,223.302,58.2301)">
        <g transform="matrix(220.575,0,0,220.575,220,570)">
            <path d="M0.889,0.001L0.889,-0.801L0.74,-0.801L0.445,-0.244L0.15,-0.801L0,-0.801L0,0.001L0.14,0.001L0.14,-0.536L0.37,-0.103L0.52,-0.103L0.749,-0.536L0.749,0.001L0.889,0.001Z" style="fill:rgb(235,235,235);fill-rule:nonzero;"/>
        </g>
        <g transform="matrix(220.575,0,0,220.575,435.943,570)">
            <path d="M0.154,-0.58L0.014,-0.58L0.014,0.001L0.154,0.001L0.154,-0.58ZM0.084,-0.801C0.037,-0.801 0,-0.763 0,-0.717C0,-0.67 0.037,-0.632 0.084,-0.632C0.131,-0.632 0.169,-0.67 0.169,-0.717C0.169,-0.763 0.131,-0.801 0.084,-0.801Z" style="fill:rgb(235,235,235);fill-rule:nonzero;"/>
        </g>
        <g transform="matrix(220.575,0,0,220.575,493.072,570)">
            <path d="M0.294,-0.45C0.357,-0.45 0.403,-0.406 0.403,-0.339L0.403,-0L0.547,-0L0.547,-0.358C0.549,-0.492 0.453,-0.594 0.318,-0.594C0.238,-0.594 0.181,-0.559 0.14,-0.502L0.14,-0.579L0,-0.579L0,-0L0.14,-0L0.14,-0.29C0.14,-0.373 0.211,-0.45 0.294,-0.45Z" style="fill:rgb(235,235,235);fill-rule:nonzero;"/>
        </g>
        <g transform="matrix(220.575,0,0,220.575,619.682,570)">
            <path d="M0.079,-0.194C0.079,-0.079 0.173,0.015 0.288,0.015C0.332,0.015 0.403,0.002 0.403,0.002L0.386,-0.131C0.386,-0.131 0.326,-0.124 0.288,-0.124C0.25,-0.124 0.219,-0.156 0.219,-0.194L0.219,-0.44L0.386,-0.44L0.386,-0.579L0.219,-0.579L0.219,-0.733L0.079,-0.718L0.079,-0.579L0,-0.579L0,-0.44L0.079,-0.44L0.079,-0.194Z" style="fill:rgb(235,235,235);fill-rule:nonzero;"/>
        </g>
        <g transform="matrix(220.575,0,0,220.575,722.691,570)">
            <path d="M0.557,-0.721C0.557,-0.721 0.478,-0.815 0.292,-0.815C0.114,-0.815 0.005,-0.698 0.005,-0.574C0.005,-0.557 0.007,-0.541 0.011,-0.524C0.037,-0.417 0.123,-0.374 0.228,-0.348C0.273,-0.337 0.322,-0.328 0.365,-0.314C0.407,-0.3 0.445,-0.28 0.452,-0.228C0.453,-0.224 0.453,-0.221 0.453,-0.217C0.453,-0.161 0.387,-0.12 0.299,-0.12C0.176,-0.12 0.071,-0.185 0.071,-0.185L0,-0.07C0,-0.07 0.137,0.015 0.299,0.015C0.478,0.015 0.588,-0.099 0.588,-0.219C0.588,-0.228 0.587,-0.237 0.586,-0.246C0.565,-0.394 0.447,-0.438 0.318,-0.466C0.281,-0.474 0.244,-0.481 0.211,-0.493C0.179,-0.505 0.152,-0.52 0.143,-0.556C0.141,-0.563 0.141,-0.569 0.141,-0.575C0.141,-0.633 0.205,-0.68 0.292,-0.68C0.405,-0.68 0.456,-0.631 0.456,-0.631L0.557,-0.721Z" style="fill:rgb(235,235,235);fill-rule:nonzero;"/>
        </g>
        <g transform="matrix(220.575,0,0,220.575,864.962,570)">
            <path d="M0.449,-0.301L0.449,-0.278C0.443,-0.193 0.376,-0.124 0.292,-0.124C0.204,-0.124 0.135,-0.199 0.135,-0.289C0.135,-0.379 0.204,-0.454 0.292,-0.454C0.376,-0.454 0.443,-0.386 0.449,-0.301ZM0.449,-0.05L0.449,0.001L0.589,0.001L0.589,-0.579L0.449,-0.579L0.449,-0.528C0.413,-0.569 0.362,-0.594 0.292,-0.594C0.128,-0.594 -0.005,-0.457 -0.005,-0.289C-0.005,-0.121 0.128,0.015 0.292,0.015C0.362,0.015 0.413,-0.009 0.449,-0.05Z" style="fill:rgb(235,235,235);fill-rule:nonzero;"/>
        </g>
        <g transform="matrix(220.575,0,0,220.575,1013.63,570)">
            <path d="M0.294,-0.45C0.357,-0.45 0.403,-0.406 0.403,-0.339L0.403,-0L0.547,-0L0.547,-0.358C0.549,-0.492 0.453,-0.594 0.318,-0.594C0.238,-0.594 0.181,-0.559 0.14,-0.502L0.14,-0.579L0,-0.579L0,-0L0.14,-0L0.14,-0.29C0.14,-0.373 0.211,-0.45 0.294,-0.45Z" style="fill:rgb(235,235,235);fill-rule:nonzero;"/>
        </g>
        <g transform="matrix(220.575,0,0,220.575,1151.93,570)">
            <path d="M0.445,-0.532C0.445,-0.532 0.364,-0.594 0.226,-0.594C0.08,-0.594 -0.006,-0.501 -0.006,-0.407C-0.006,-0.394 -0.004,-0.381 -0.001,-0.368C0.02,-0.288 0.089,-0.251 0.173,-0.232C0.206,-0.225 0.242,-0.22 0.273,-0.21C0.297,-0.203 0.32,-0.195 0.324,-0.168C0.325,-0.158 0.317,-0.151 0.308,-0.144C0.287,-0.128 0.257,-0.12 0.221,-0.12C0.13,-0.12 0.046,-0.163 0.046,-0.163L-0.016,-0.043C-0.016,-0.043 0.098,0.015 0.221,0.015C0.308,0.015 0.377,-0.017 0.416,-0.06C0.445,-0.091 0.46,-0.128 0.46,-0.166C0.46,-0.173 0.459,-0.181 0.458,-0.188C0.444,-0.281 0.377,-0.323 0.293,-0.345C0.252,-0.356 0.206,-0.361 0.168,-0.374C0.151,-0.38 0.135,-0.384 0.13,-0.402C0.129,-0.404 0.129,-0.406 0.129,-0.408C0.129,-0.417 0.135,-0.425 0.142,-0.432C0.16,-0.449 0.19,-0.459 0.226,-0.459C0.313,-0.459 0.364,-0.423 0.364,-0.423L0.445,-0.532Z" style="fill:rgb(235,235,235);fill-rule:nonzero;"/>
        </g>
    </g>
    <defs>
        <linearGradient id="_Linear1" x1="0" y1="0" x2="1" y2="0" gradientUnits="userSpaceOnUse" gradientTransform="matrix(1080,1080,-1080,1080,0,0)"><stop offset="0" style="stop-color:rgb(39,110,253);stop-opacity:0.1"/><stop offset="1" style="stop-color:rgb(39,110,253);stop-opacity:0"/></linearGradient>
        <linearGradient id="_Linear2" x1="0" y1="0" x2="1" y2="0" gradientUnits="userSpaceOnUse" gradientTransform="matrix(6.90062e-14,1126.96,-1126.96,6.90062e-14,964.174,-43.8261)"><stop offset="0" style="stop-color:rgb(39,110,253);stop-opacity:0.25"/><stop offset="1" style="stop-color:rgb(39,110,253);stop-opacity:0"/></linearGradient>
        <linearGradient id="_Linear3" x1="0" y1="0" x2="1" y2="0" gradientUnits="userSpaceOnUse" gradientTransform="matrix(6.90062e-14,1126.96,-1126.96,6.90062e-14,964.174,-43.8261)"><stop offset="0" style="stop-color:rgb(39,110,253);stop-opacity:0.25"/><stop offset="1" style="stop-color:rgb(39,110,253);stop-opacity:0"/></linearGradient>
        <linearGradient id="_Linear4" x1="0" y1="0" x2="1" y2="0" gradientUnits="userSpaceOnUse" gradientTransform="matrix(6.90062e-14,1126.96,-1126.96,6.90062e-14,964.174,-43.8261)"><stop offset="0" style="stop-color:rgb(39,110,253);stop-opacity:0.25"/><stop offset="1" style="stop-color:rgb(39,110,253);stop-opacity:0"/></linearGradient>
        <linearGradient id="_Linear5" x1="0" y1="0" x2="1" y2="0" gradientUnits="userSpaceOnUse" gradientTransform="matrix(6.90062e-14,1126.96,-1126.96,6.90062e-14,964.174,-43.8261)"><stop offset="0" style="stop-color:rgb(39,110,253);stop-opacity:0.25"/><stop offset="1" style="stop-color:rgb(39,110,253);stop-opacity:0"/></linearGradient>
        <linearGradient id="_Linear6" x1="0" y1="0" x2="1" y2="0" gradientUnits="userSpaceOnUse" gradientTransform="matrix(6.90062e-14,1126.96,-1126.96,6.90062e-14,964.174,-43.8261)"><stop offset="0" style="stop-color:rgb(39,110,253);stop-opacity:0.25"/><stop offset="1" style="stop-color:rgb(39,110,253);stop-opacity:0"/></linearGradient>
        <linearGradient id="_Linear7" x1="0" y1="0" x2="1" y2="0" gradientUnits="userSpaceOnUse" gradientTransform="matrix(6.90062e-14,1126.96,-1126.96,6.90062e-14,964.174,-43.8261)"><stop offset="0" style="stop-color:rgb(39,110,253);stop-opacity:0.25"/><stop offset="1" style="stop-color:rgb(39,110,253);stop-opacity:0"/></linearGradient>
        <linearGradient id="_Linear8" x1="0" y1="0" x2="1" y2="0" gradientUnits="userSpaceOnUse" gradientTransform="matrix(6.90062e-14,1126.96,-1126.96,6.90062e-14,964.174,-43.8261)"><stop offset="0" style="stop-color:rgb(39,110,253);stop-opacity:0.25"/><stop offset="1" style="stop-color:rgb(39,110,253);stop-opacity:0"/></linearGradient>
        <linearGradient id="_Linear9" x1="0" y1="0" x2="1" y2="0" gradientUnits="userSpaceOnUse" gradientTransform="matrix(6.90062e-14,1126.96,-1126.96,6.90062e-14,964.174,-43.8261)"><stop offset="0" style="stop-color:rgb(39,110,253);stop-opacity:0.25"/><stop offset="1" style="stop-color:rgb(39,110,253);stop-opacity:0"/></linearGradient>
        <linearGradient id="_Linear10" x1="0" y1="0" x2="1" y2="0" gradientUnits="userSpaceOnUse" gradientTransform="matrix(6.90062e-14,1126.96,-1126.96,6.90062e-14,964.174,-43.8261)"><stop offset="0" style="stop-color:rgb(39,110,253);stop-opacity:0.25"/><stop offset="1" style="stop-color:rgb(39,110,253);stop-opacity:0"/></linearGradient>
        <linearGradient id="_Linear11" x1="0" y1="0" x2="1" y2="0" gradientUnits="userSpaceOnUse" gradientTransform="matrix(6.90062e-14,1126.96,-1126.96,6.90062e-14,964.174,-43.8261)"><stop offset="0" style="stop-color:rgb(39,110,253);stop-opacity:0.25"/><stop offset="1" style="stop-color:rgb(39,110,253);stop-opacity:0"/></linearGradient>
        <linearGradient id="_Linear12" x1="0" y1="0" x2="1" y2="0" gradientUnits="userSpaceOnUse" gradientTransform="matrix(6.90062e-14,1126.96,-1126.96,6.90062e-14,964.174,-43.8261)"><stop offset="0" style="stop-color:rgb(39,110,253);stop-opacity:0.25"/><stop offset="1" style="stop-color:rgb(39,110,253);stop-opacity:0"/></linearGradient>
        <linearGradient id="_Linear13" x1="0" y1="0" x2="1" y2="0" gradientUnits="userSpaceOnUse" gradientTransform="matrix(6.90062e-14,1126.96,-1126.96,6.90062e-14,964.174,-43.8261)"><stop offset="0" style="stop-color:rgb(39,110,253);stop-opacity:0.25"/><stop offset="1" style="stop-color:rgb(39,110,253);stop-opacity:0"/></linearGradient>
        <linearGradient id="_Linear14" x1="0" y1="0" x2="1" y2="0" gradientUnits="userSpaceOnUse" gradientTransform="matrix(6.90062e-14,1126.96,-1126.96,6.90062e-14,964.174,-43.8261)"><stop offset="0" style="stop-color:rgb(39,110,253);stop-opacity:0.25"/><stop offset="1" style="stop-color:rgb(39,110,253);stop-opacity:0"/></linearGradient>
        <linearGradient id="_Linear15" x1="0" y1="0" x2="1" y2="0" gradientUnits="userSpaceOnUse" gradientTransform="matrix(6.90062e-14,1126.96,-1126.96,6.90062e-14,964.174,-43.8261)"><stop offset="0" style="stop-color:rgb(39,110,253);stop-opacity:0.25"/><stop offset="1" style="stop-color:rgb(39,110,253);stop-opacity:0"/></linearGradient>
        <linearGradient id="_Linear16" x1="0" y1="0" x2="1" y2="0" gradientUnits="userSpaceOnUse" gradientTransform="matrix(6.90062e-14,1126.96,-1126.96,6.90062e-14,964.174,-43.8261)"><stop offset="0" style="stop-color:rgb(39,110,253);stop-opacity:0.25"/><stop offset="1" style="stop-color:rgb(39,110,253);stop-opacity:0"/></linearGradient>
        <linearGradient id="_Linear17" x1="0" y1="0" x2="1" y2="0" gradientUnits="userSpaceOnUse" gradientTransform="matrix(6.90062e-14,1126.96,-1126.96,6.90062e-14,964.174,-43.8261)"><stop offset="0" style="stop-color:rgb(39,110,253);stop-opacity:0.25"/><stop offset="1" style="stop-color:rgb(39,110,253);stop-opacity:0"/></linearGradient>
        <linearGradient id="_Linear18" x1="0" y1="0" x2="1" y2="0" gradientUnits="userSpaceOnUse" gradientTransform="matrix(6.90062e-14,1126.96,-1126.96,6.90062e-14,964.174,-43.8261)"><stop offset="0" style="stop-color:rgb(39,110,253);stop-opacity:0.25"/><stop offset="1" style="stop-color:rgb(39,110,253);stop-opacity:0"/></linearGradient>
        <linearGradient id="_Linear19" x1="0" y1="0" x2="1" y2="0" gradientUnits="userSpaceOnUse" gradientTransform="matrix(6.90062e-14,1126.96,-1126.96,6.90062e-14,964.174,-43.8261)"><stop offset="0" style="stop-color:rgb(39,110,253);stop-opacity:0.25"/><stop offset="1" style="stop-color:rgb(39,110,253);stop-opacity:0"/></linearGradient>
        <linearGradient id="_Linear20" x1="0" y1="0" x2="1" y2="0" gradientUnits="userSpaceOnUse" gradientTransform="matrix(6.90062e-14,1126.96,-1126.96,6.90062e-14,964.174,-43.8261)"><stop offset="0" style="stop-color:rgb(39,110,253);stop-opacity:0.25"/><stop offset="1" style="stop-color:rgb(39,110,253);stop-opacity:0"/></linearGradient>
        <linearGradient id="_Linear21" x1="0" y1="0" x2="1" y2="0" gradientUnits="userSpaceOnUse" gradientTransform="matrix(6.90062e-14,1126.96,-1126.96,6.90062e-14,964.174,-43.8261)"><stop offset="0" style="stop-color:rgb(39,110,253);stop-opacity:0.25"/><stop offset="1" style="stop-color:rgb(39,110,253);stop-opacity:0"/></linearGradient>
        <linearGradient id="_Linear22" x1="0" y1="0" x2="1" y2="0" gradientUnits="userSpaceOnUse" gradientTransform="matrix(6.90062e-14,1126.96,-1126.96,6.90062e-14,964.174,-43.8261)"><stop offset="0" style="stop-color:rgb(39,110,253);stop-opacity:0.25"/><stop offset="1" style="stop-color:rgb(39,110,253);stop-opacity:0"/></linearGradient>
        <linearGradient id="_Linear23" x1="0" y1="0" x2="1" y2="0" gradientUnits="userSpaceOnUse" gradientTransform="matrix(6.90062e-14,1126.96,-1126.96,6.90062e-14,964.174,-43.8261)"><stop offset="0" style="stop-color:rgb(39,110,253);stop-opacity:0.25"/><stop offset="1" style="stop-color:rgb(39,110,253);stop-opacity:0"/></linearGradient>
        <linearGradient id="_Linear24" x1="0" y1="0" x2="1" y2="0" gradientUnits="userSpaceOnUse" gradientTransform="matrix(6.90062e-14,1126.96,-1126.96,6.90062e-14,964.174,-43.8261)"><stop offset="0" style="stop-color:rgb(39,110,253);stop-opacity:0.25"/><stop offset="1" style="stop-color:rgb(39,110,253);stop-opacity:0"/></linearGradient>
        <linearGradient id="_Linear25" x1="0" y1="0" x2="1" y2="0" gradientUnits="userSpaceOnUse" gradientTransform="matrix(6.90062e-14,1126.96,-1126.96,6.90062e-14,964.174,-43.8261)"><stop offset="0" style="stop-color:rgb(39,110,253);stop-opacity:0.25"/><stop offset="1" style="stop-color:rgb(39,110,253);stop-opacity:0"/></linearGradient>
        <linearGradient id="_Linear26" x1="0" y1="0" x2="1" y2="0" gradientUnits="userSpaceOnUse" gradientTransform="matrix(6.90062e-14,1126.96,-1126.96,6.90062e-14,964.174,-43.8261)"><stop offset="0" style="stop-color:rgb(39,110,253);stop-opacity:0.25"/><stop offset="1" style="stop-color:rgb(39,110,253);stop-opacity:0"/></linearGradient>
        <linearGradient id="_Linear27" x1="0" y1="0" x2="1" y2="0" gradientUnits="userSpaceOnUse" gradientTransform="matrix(6.90062e-14,1126.96,-1126.96,6.90062e-14,964.174,-43.8261)"><stop offset="0" style="stop-color:rgb(39,110,253);stop-opacity:0.25"/><stop offset="1" style="stop-color:rgb(39,110,253);stop-opacity:0"/></linearGradient>
        <linearGradient id="_Linear28" x1="0" y1="0" x2="1" y2="0" gradientUnits="userSpaceOnUse" gradientTransform="matrix(6.90062e-14,1126.96,-1126.96,6.90062e-14,964.174,-43.8261)"><stop offset="0" style="stop-color:rgb(39,110,253);stop-opacity:0.25"/><stop offset="1" style="stop-color:rgb(39,110,253);stop-opacity:0"/></linearGradient>
        <linearGradient id="_Linear29" x1="0" y1="0" x2="1" y2="0" gradientUnits="userSpaceOnUse" gradientTransform="matrix(6.90062e-14,1126.96,-1126.96,6.90062e-14,964.174,-43.8261)"><stop offset="0" style="stop-color:rgb(39,110,253);stop-opacity:0.25"/><stop offset="1" style="stop-color:rgb(39,110,253);stop-opacity:0"/></linearGradient>
        <linearGradient id="_Linear30" x1="0" y1="0" x2="1" y2="0" gradientUnits="userSpaceOnUse" gradientTransform="matrix(6.90062e-14,1126.96,-1126.96,6.90062e-14,964.174,-43.8261)"><stop offset="0" style="stop-color:rgb(39,110,253);stop-opacity:0.25"/><stop offset="1" style="stop-color:rgb(39,110,253);stop-opacity:0"/></linearGradient>
        <linearGradient id="_Linear31" x1="0" y1="0" x2="1" y2="0" gradientUnits="userSpaceOnUse" gradientTransform="matrix(6.90062e-14,1126.96,-1126.96,6.90062e-14,964.174,-43.8261)"><stop offset="0" style="stop-color:rgb(39,110,253);stop-opacity:0.25"/><stop offset="1" style="stop-color:rgb(39,110,253);stop-opacity:0"/></linearGradient>
        <linearGradient id="_Linear32" x1="0" y1="0" x2="1" y2="0" gradientUnits="userSpaceOnUse" gradientTransform="matrix(6.90062e-14,1126.96,-1126.96,6.90062e-14,964.174,-43.8261)"><stop offset="0" style="stop-color:rgb(39,110,253);stop-opacity:0.25"/><stop offset="1" style="stop-color:rgb(39,110,253);stop-opacity:0"/></linearGradient>
        <linearGradient id="_Linear33" x1="0" y1="0" x2="1" y2="0" gradientUnits="userSpaceOnUse" gradientTransform="matrix(6.90062e-14,1126.96,-1126.96,6.90062e-14,964.174,-43.8261)"><stop offset="0" style="stop-color:rgb(39,110,253);stop-opacity:0.25"/><stop offset="1" style="stop-color:rgb(39,110,253);stop-opacity:0"/></linearGradient>
        <linearGradient id="_Linear34" x1="0" y1="0" x2="1" y2="0" gradientUnits="userSpaceOnUse" gradientTransform="matrix(6.90062e-14,1126.96,-1126.96,6.90062e-14,964.174,-43.8261)"><stop offset="0" style="stop-color:rgb(39,110,253);stop-opacity:0.25"/><stop offset="1" style="stop-color:rgb(39,110,253);stop-opacity:0"/></linearGradient>
        <linearGradient id="_Linear35" x1="0" y1="0" x2="1" y2="0" gradientUnits="userSpaceOnUse" gradientTransform="matrix(6.90062e-14,1126.96,-1126.96,6.90062e-14,964.174,-43.8261)"><stop offset="0" style="stop-color:rgb(39,110,253);stop-opacity:0.25"/><stop offset="1" style="stop-color:rgb(39,110,253);stop-opacity:0"/></linearGradient>
        <linearGradient id="_Linear36" x1="0" y1="0" x2="1" y2="0" gradientUnits="userSpaceOnUse" gradientTransform="matrix(6.90062e-14,1126.96,-1126.96,6.90062e-14,964.174,-43.8261)"><stop offset="0" style="stop-color:rgb(39,110,253);stop-opacity:0.25"/><stop offset="1" style="stop-color:rgb(39,110,253);stop-opacity:0"/></linearGradient>
        <linearGradient id="_Linear37" x1="0" y1="0" x2="1" y2="0" gradientUnits="userSpaceOnUse" gradientTransform="matrix(6.90062e-14,1126.96,-1126.96,6.90062e-14,964.174,-43.8261)"><stop offset="0" style="stop-color:rgb(39,110,253);stop-opacity:0.25"/><stop offset="1" style="stop-color:rgb(39,110,253);stop-opacity:0"/></linearGradient>
        <linearGradient id="_Linear38" x1="0" y1="0" x2="1" y2="0" gradientUnits="userSpaceOnUse" gradientTransform="matrix(6.90062e-14,1126.96,-1126.96,6.90062e-14,964.174,-43.8261)"><stop offset="0" style="stop-color:rgb(39,110,253);stop-opacity:0.25"/><stop offset="1" style="stop-color:rgb(39,110,253);stop-opacity:0"/></linearGradient>
        <linearGradient id="_Linear39" x1="0" y1="0" x2="1" y2="0" gradientUnits="userSpaceOnUse" gradientTransform="matrix(6.90062e-14,1126.96,-1126.96,6.90062e-14,964.174,-43.8261)"><stop offset="0" style="stop-color:rgb(39,110,253);stop-opacity:0.25"/><stop offset="1" style="stop-color:rgb(39,110,253);stop-opacity:0"/></linearGradient>
        <linearGradient id="_Linear40" x1="0" y1="0" x2="1" y2="0" gradientUnits="userSpaceOnUse" gradientTransform="matrix(6.90062e-14,1126.96,-1126.96,6.90062e-14,964.174,-43.8261)"><stop offset="0" style="stop-color:rgb(39,110,253);stop-opacity:0.25"/><stop offset="1" style="stop-color:rgb(39,110,253);stop-opacity:0"/></linearGradient>
        <linearGradient id="_Linear41" x1="0" y1="0" x2="1" y2="0" gradientUnits="userSpaceOnUse" gradientTransform="matrix(6.90062e-14,1126.96,-1126.96,6.90062e-14,964.174,-43.8261)"><stop offset="0" style="stop-color:rgb(39,110,253);stop-opacity:0.25"/><stop offset="1" style="stop-color:rgb(39,110,253);stop-opacity:0"/></linearGradient>
        <linearGradient id="_Linear42" x1="0" y1="0" x2="1" y2="0" gradientUnits="userSpaceOnUse" gradientTransform="matrix(6.90062e-14,1126.96,-1126.96,6.90062e-14,964.174,-43.8261)"><stop offset="0" style="stop-color:rgb(39,110,253);stop-opacity:0.25"/><stop offset="1" style="stop-color:rgb(39,110,253);stop-opacity:0"/></linearGradient>
        <linearGradient id="_Linear43" x1="0" y1="0" x2="1" y2="0" gradientUnits="userSpaceOnUse" gradientTransform="matrix(6.90062e-14,1126.96,-1126.96,6.90062e-14,964.174,-43.8261)"><stop offset="0" style="stop-color:rgb(39,110,253);stop-opacity:0.25"/><stop offset="1" style="stop-color:rgb(39,110,253);stop-opacity:0"/></linearGradient>
        <linearGradient id="_Linear44" x1="0" y1="0" x2="1" y2="0" gradientUnits="userSpaceOnUse" gradientTransform="matrix(6.90062e-14,1126.96,-1126.96,6.90062e-14,964.174,-43.8261)"><stop offset="0" style="stop-color:rgb(39,110,253);stop-opacity:0.25"/><stop offset="1" style="stop-color:rgb(39,110,253);stop-opacity:0"/></linearGradient>
        <linearGradient id="_Linear45" x1="0" y1="0" x2="1" y2="0" gradientUnits="userSpaceOnUse" gradientTransform="matrix(6.90062e-14,1126.96,-1126.96,6.90062e-14,964.174,-43.8261)"><stop offset="0" style="stop-color:rgb(39,110,253);stop-opacity:0.25"/><stop offset="1" style="stop-color:rgb(39,110,253);stop-opacity:0"/></linearGradient>
        <linearGradient id="_Linear46" x1="0" y1="0" x2="1" y2="0" gradientUnits="userSpaceOnUse" gradientTransform="matrix(6.90062e-14,1126.96,-1126.96,6.90062e-14,964.174,-43.8261)"><stop offset="0" style="stop-color:rgb(39,110,253);stop-opacity:0.25"/><stop offset="1" style="stop-color:rgb(39,110,253);stop-opacity:0"/></linearGradient>
        <linearGradient id="_Linear47" x1="0" y1="0" x2="1" y2="0" gradientUnits="userSpaceOnUse" gradientTransform="matrix(6.90062e-14,1126.96,-1126.96,6.90062e-14,964.174,-43.8261)"><stop offset="0" style="stop-color:rgb(39,110,253);stop-opacity:0.25"/><stop offset="1" style="stop-color:rgb(39,110,253);stop-opacity:0"/></linearGradient>
        <linearGradient id="_Linear48" x1="0" y1="0" x2="1" y2="0" gradientUnits="userSpaceOnUse" gradientTransform="matrix(6.90062e-14,1126.96,-1126.96,6.90062e-14,964.174,-43.8261)"><stop offset="0" style="stop-color:rgb(39,110,253);stop-opacity:0.25"/><stop offset="1" style="stop-color:rgb(39,110,253);stop-opacity:0"/></linearGradient>
        <linearGradient id="_Linear49" x1="0" y1="0" x2="1" y2="0" gradientUnits="userSpaceOnUse" gradientTransform="matrix(6.90062e-14,1126.96,-1126.96,6.90062e-14,964.174,-43.8261)"><stop offset="0" style="stop-color:rgb(39,110,253);stop-opacity:0.25"/><stop offset="1" style="stop-color:rgb(39,110,253);stop-opacity:0"/></linearGradient>
        <linearGradient id="_Linear50" x1="0" y1="0" x2="1" y2="0" gradientUnits="userSpaceOnUse" gradientTransform="matrix(6.90062e-14,1126.96,-1126.96,6.90062e-14,964.174,-43.8261)"><stop offset="0" style="stop-color:rgb(39,110,253);stop-opacity:0.25"/><stop offset="1" style="stop-color:rgb(39,110,253);stop-opacity:0"/></linearGradient>
        <linearGradient id="_Linear51" x1="0" y1="0" x2="1" y2="0" gradientUnits="userSpaceOnUse" gradientTransform="matrix(6.90062e-14,1126.96,-1126.96,6.90062e-14,964.174,-43.8261)"><stop offset="0" style="stop-color:rgb(39,110,253);stop-opacity:0.25"/><stop offset="1" style="stop-color:rgb(39,110,253);stop-opacity:0"/></linearGradient>
        <linearGradient id="_Linear52" x1="0" y1="0" x2="1" y2="0" gradientUnits="userSpaceOnUse" gradientTransform="matrix(6.90062e-14,1126.96,-1126.96,6.90062e-14,964.174,-43.8261)"><stop offset="0" style="stop-color:rgb(39,110,253);stop-opacity:0.25"/><stop offset="1" style="stop-color:rgb(39,110,253);stop-opacity:0"/></linearGradient>
        <linearGradient id="_Linear53" x1="0" y1="0" x2="1" y2="0" gradientUnits="userSpaceOnUse" gradientTransform="matrix(6.90062e-14,1126.96,-1126.96,6.90062e-14,964.174,-43.8261)"><stop offset="0" style="stop-color:rgb(39,110,253);stop-opacity:0.25"/><stop offset="1" style="stop-color:rgb(39,110,253);stop-opacity:0"/></linearGradient>
        <linearGradient id="_Linear54" x1="0" y1="0" x2="1" y2="0" gradientUnits="userSpaceOnUse" gradientTransform="matrix(6.90062e-14,1126.96,-1126.96,6.90062e-14,964.174,-43.8261)"><stop offset="0" style="stop-color:rgb(39,110,253);stop-opacity:0.25"/><stop offset="1" style="stop-color:rgb(39,110,253);stop-opacity:0"/></linearGradient>
        <linearGradient id="_Linear55" x1="0" y1="0" x2="1" y2="0" gradientUnits="userSpaceOnUse" gradientTransform="matrix(6.90062e-14,1126.96,-1126.96,6.90062e-14,964.174,-43.8261)"><stop offset="0" style="stop-color:rgb(39,110,253);stop-opacity:0.25"/><stop offset="1" style="stop-color:rgb(39,110,253);stop-opacity:0"/></linearGradient>
        <linearGradient id="_Linear56" x1="0" y1="0" x2="1" y2="0" gradientUnits="userSpaceOnUse" gradientTransform="matrix(6.90062e-14,1126.96,-1126.96,6.90062e-14,964.174,-43.8261)"><stop offset="0" style="stop-color:rgb(39,110,253);stop-opacity:0.25"/><stop offset="1" style="stop-color:rgb(39,110,253);stop-opacity:0"/></linearGradient>
        <linearGradient id="_Linear57" x1="0" y1="0" x2="1" y2="0" gradientUnits="userSpaceOnUse" gradientTransform="matrix(6.90062e-14,1126.96,-1126.96,6.90062e-14,964.174,-43.8261)"><stop offset="0" style="stop-color:rgb(39,110,253);stop-opacity:0.25"/><stop offset="1" style="stop-color:rgb(39,110,253);stop-opacity:0"/></linearGradient>
        <linearGradient id="_Linear58" x1="0" y1="0" x2="1" y2="0" gradientUnits="userSpaceOnUse" gradientTransform="matrix(6.90062e-14,1126.96,-1126.96,6.90062e-14,964.174,-43.8261)"><stop offset="0" style="stop-color:rgb(39,110,253);stop-opacity:0.25"/><stop offset="1" style="stop-color:rgb(39,110,253);stop-opacity:0"/></linearGradient>
        <linearGradient id="_Linear59" x1="0" y1="0" x2="1" y2="0" gradientUnits="userSpaceOnUse" gradientTransform="matrix(6.90062e-14,1126.96,-1126.96,6.90062e-14,964.174,-43.8261)"><stop offset="0" style="stop-color:rgb(39,110,253);stop-opacity:0.25"/><stop offset="1" style="stop-color:rgb(39,110,253);stop-opacity:0"/></linearGradient>
        <linearGradient id="_Linear60" x1="0" y1="0" x2="1" y2="0" gradientUnits="userSpaceOnUse" gradientTransform="matrix(6.90062e-14,1126.96,-1126.96,6.90062e-14,964.174,-43.8261)"><stop offset="0" style="stop-color:rgb(39,110,253);stop-opacity:0.25"/><stop offset="1" style="stop-color:rgb(39,110,253);stop-opacity:0"/></linearGradient>
        <linearGradient id="_Linear61" x1="0" y1="0" x2="1" y2="0" gradientUnits="userSpaceOnUse" gradientTransform="matrix(6.90062e-14,1126.96,-1126.96,6.90062e-14,964.174,-43.8261)"><stop offset="0" style="stop-color:rgb(39,110,253);stop-opacity:0.25"/><stop offset="1" style="stop-color:rgb(39,110,253);stop-opacity:0"/></linearGradient>
        <linearGradient id="_Linear62" x1="0" y1="0" x2="1" y2="0" gradientUnits="userSpaceOnUse" gradientTransform="matrix(6.90062e-14,1126.96,-1126.96,6.90062e-14,964.174,-43.8261)"><stop offset="0" style="stop-color:rgb(39,110,253);stop-opacity:0.25"/><stop offset="1" style="stop-color:rgb(39,110,253);stop-opacity:0"/></linearGradient>
        <linearGradient id="_Linear63" x1="0" y1="0" x2="1" y2="0" gradientUnits="userSpaceOnUse" gradientTransform="matrix(6.90062e-14,1126.96,-1126.96,6.90062e-14,964.174,-43.8261)"><stop offset="0" style="stop-color:rgb(39,110,253);stop-opacity:0.25"/><stop offset="1" style="stop-color:rgb(39,110,253);stop-opacity:0"/></linearGradient>
        <linearGradient id="_Linear64" x1="0" y1="0" x2="1" y2="0" gradientUnits="userSpaceOnUse" gradientTransform="matrix(6.90062e-14,1126.96,-1126.96,6.90062e-14,964.174,-43.8261)"><stop offset="0" style="stop-color:rgb(39,110,253);stop-opacity:0.25"/><stop offset="1" style="stop-color:rgb(39,110,253);stop-opacity:0"/></linearGradient>
        <linearGradient id="_Linear65" x1="0" y1="0" x2="1" y2="0" gradientUnits="userSpaceOnUse" gradientTransform="matrix(6.90062e-14,1126.96,-1126.96,6.90062e-14,964.174,-43.8261)"><stop offset="0" style="stop-color:rgb(39,110,253);stop-opacity:0.25"/><stop offset="1" style="stop-color:rgb(39,110,253);stop-opacity:0"/></linearGradient>
        <linearGradient id="_Linear66" x1="0" y1="0" x2="1" y2="0" gradientUnits="userSpaceOnUse" gradientTransform="matrix(6.90062e-14,1126.96,-1126.96,6.90062e-14,964.174,-43.8261)"><stop offset="0" style="stop-color:rgb(39,110,253);stop-opacity:0.25"/><stop offset="1" style="stop-color:rgb(39,110,253);stop-opacity:0"/></linearGradient>
        <linearGradient id="_Linear67" x1="0" y1="0" x2="1" y2="0" gradientUnits="userSpaceOnUse" gradientTransform="matrix(6.90062e-14,1126.96,-1126.96,6.90062e-14,964.174,-43.8261)"><stop offset="0" style="stop-color:rgb(39,110,253);stop-opacity:0.25"/><stop offset="1" style="stop-color:rgb(39,110,253);stop-opacity:0"/></linearGradient>
        <linearGradient id="_Linear68" x1="0" y1="0" x2="1" y2="0" gradientUnits="userSpaceOnUse" gradientTransform="matrix(6.90062e-14,1126.96,-1126.96,6.90062e-14,964.174,-43.8261)"><stop offset="0" style="stop-color:rgb(39,110,253);stop-opacity:0.25"/><stop offset="1" style="stop-color:rgb(39,110,253);stop-opacity:0"/></linearGradient>
        <linearGradient id="_Linear69" x1="0" y1="0" x2="1" y2="0" gradientUnits="userSpaceOnUse" gradientTransform="matrix(6.90062e-14,1126.96,-1126.96,6.90062e-14,964.174,-43.8261)"><stop offset="0" style="stop-color:rgb(39,110,253);stop-opacity:0.25"/><stop offset="1" style="stop-color:rgb(39,110,253);stop-opacity:0"/></linearGradient>
        <linearGradient id="_Linear70" x1="0" y1="0" x2="1" y2="0" gradientUnits="userSpaceOnUse" gradientTransform="matrix(6.90062e-14,1126.96,-1126.96,6.90062e-14,964.174,-43.8261)"><stop offset="0" style="stop-color:rgb(39,110,253);stop-opacity:0.25"/><stop offset="1" style="stop-color:rgb(39,110,253);stop-opacity:0"/></linearGradient>
        <linearGradient id="_Linear71" x1="0" y1="0" x2="1" y2="0" gradientUnits="userSpaceOnUse" gradientTransform="matrix(6.90062e-14,1126.96,-1126.96,6.90062e-14,964.174,-43.8261)"><stop offset="0" style="stop-color:rgb(39,110,253);stop-opacity:0.25"/><stop offset="1" style="stop-color:rgb(39,110,253);stop-opacity:0"/></linearGradient>
        <linearGradient id="_Linear72" x1="0" y1="0" x2="1" y2="0" gradientUnits="userSpaceOnUse" gradientTransform="matrix(6.90062e-14,1126.96,-1126.96,6.90062e-14,964.174,-43.8261)"><stop offset="0" style="stop-color:rgb(39,110,253);stop-opacity:0.25"/><stop offset="1" style="stop-color:rgb(39,110,253);stop-opacity:0"/></linearGradient>
        <linearGradient id="_Linear73" x1="0" y1="0" x2="1" y2="0" gradientUnits="userSpaceOnUse" gradientTransform="matrix(6.90062e-14,1126.96,-1126.96,6.90062e-14,964.174,-43.8261)"><stop offset="0" style="stop-color:rgb(39,110,253);stop-opacity:0.25"/><stop offset="1" style="stop-color:rgb(39,110,253);stop-opacity:0"/></linearGradient>
        <linearGradient id="_Linear74" x1="0" y1="0" x2="1" y2="0" gradientUnits="userSpaceOnUse" gradientTransform="matrix(6.90062e-14,1126.96,-1126.96,6.90062e-14,964.174,-43.8261)"><stop offset="0" style="stop-color:rgb(39,110,253);stop-opacity:0.25"/><stop offset="1" style="stop-color:rgb(39,110,253);stop-opacity:0"/></linearGradient>
        <linearGradient id="_Linear75" x1="0" y1="0" x2="1" y2="0" gradientUnits="userSpaceOnUse" gradientTransform="matrix(6.90062e-14,1126.96,-1126.96,6.90062e-14,964.174,-43.8261)"><stop offset="0" style="stop-color:rgb(39,110,253);stop-opacity:0.25"/><stop offset="1" style="stop-color:rgb(39,110,253);stop-opacity:0"/></linearGradient>
        <linearGradient id="_Linear76" x1="0" y1="0" x2="1" y2="0" gradientUnits="userSpaceOnUse" gradientTransform="matrix(6.90062e-14,1126.96,-1126.96,6.90062e-14,964.174,-43.8261)"><stop offset="0" style="stop-color:rgb(39,110,253);stop-opacity:0.25"/><stop offset="1" style="stop-color:rgb(39,110,253);stop-opacity:0"/></linearGradient>
        <linearGradient id="_Linear77" x1="0" y1="0" x2="1" y2="0" gradientUnits="userSpaceOnUse" gradientTransform="matrix(6.90062e-14,1126.96,-1126.96,6.90062e-14,964.174,-43.8261)"><stop offset="0" style="stop-color:rgb(39,110,253);stop-opacity:0.25"/><stop offset="1" style="stop-color:rgb(39,110,253);stop-opacity:0"/></linearGradient>
        <linearGradient id="_Linear78" x1="0" y1="0" x2="1" y2="0" gradientUnits="userSpaceOnUse" gradientTransform="matrix(6.90062e-14,1126.96,-1126.96,6.90062e-14,964.174,-43.8261)"><stop offset="0" style="stop-color:rgb(39,110,253);stop-opacity:0.25"/><stop offset="1" style="stop-color:rgb(39,110,253);stop-opacity:0"/></linearGradient>
        <linearGradient id="_Linear79" x1="0" y1="0" x2="1" y2="0" gradientUnits="userSpaceOnUse" gradientTransform="matrix(6.90062e-14,1126.96,-1126.96,6.90062e-14,964.174,-43.8261)"><stop offset="0" style="stop-color:rgb(39,110,253);stop-opacity:0.25"/><stop offset="1" style="stop-color:rgb(39,110,253);stop-opacity:0"/></linearGradient>
        <linearGradient id="_Linear80" x1="0" y1="0" x2="1" y2="0" gradientUnits="userSpaceOnUse" gradientTransform="matrix(6.90062e-14,1126.96,-1126.96,6.90062e-14,964.174,-43.8261)"><stop offset="0" style="stop-color:rgb(39,110,253);stop-opacity:0.25"/><stop offset="1" style="stop-color:rgb(39,110,253);stop-opacity:0"/></linearGradient>
        <linearGradient id="_Linear81" x1="0" y1="0" x2="1" y2="0" gradientUnits="userSpaceOnUse" gradientTransform="matrix(6.90062e-14,1126.96,-1126.96,6.90062e-14,964.174,-43.8261)"><stop offset="0" style="stop-color:rgb(39,110,253);stop-opacity:0.25"/><stop offset="1" style="stop-color:rgb(39,110,253);stop-opacity:0"/></linearGradient>
        <linearGradient id="_Linear82" x1="0" y1="0" x2="1" y2="0" gradientUnits="userSpaceOnUse" gradientTransform="matrix(6.90062e-14,1126.96,-1126.96,6.90062e-14,964.174,-43.8261)"><stop offset="0" style="stop-color:rgb(39,110,253);stop-opacity:0.25"/><stop offset="1" style="stop-color:rgb(39,110,253);stop-opacity:0"/></linearGradient>
        <linearGradient id="_Linear83" x1="0" y1="0" x2="1" y2="0" gradientUnits="userSpaceOnUse" gradientTransform="matrix(6.90062e-14,1126.96,-1126.96,6.90062e-14,964.174,-43.8261)"><stop offset="0" style="stop-color:rgb(39,110,253);stop-opacity:0.25"/><stop offset="1" style="stop-color:rgb(39,110,253);stop-opacity:0"/></linearGradient>
        <linearGradient id="_Linear84" x1="0" y1="0" x2="1" y2="0" gradientUnits="userSpaceOnUse" gradientTransform="matrix(6.90062e-14,1126.96,-1126.96,6.90062e-14,964.174,-43.8261)"><stop offset="0" style="stop-color:rgb(39,110,253);stop-opacity:0.25"/><stop offset="1" style="stop-color:rgb(39,110,253);stop-opacity:0"/></linearGradient>
        <linearGradient id="_Linear85" x1="0" y1="0" x2="1" y2="0" gradientUnits="userSpaceOnUse" gradientTransform="matrix(6.90062e-14,1126.96,-1126.96,6.90062e-14,964.174,-43.8261)"><stop offset="0" style="stop-color:rgb(39,110,253);stop-opacity:0.25"/><stop offset="1" style="stop-color:rgb(39,110,253);stop-opacity:0"/></linearGradient>
        <linearGradient id="_Linear86" x1="0" y1="0" x2="1" y2="0" gradientUnits="userSpaceOnUse" gradientTransform="matrix(6.90062e-14,1126.96,-1126.96,6.90062e-14,964.174,-43.8261)"><stop offset="0" style="stop-color:rgb(39,110,253);stop-opacity:0.25"/><stop offset="1" style="stop-color:rgb(39,110,253);stop-opacity:0"/></linearGradient>
        <linearGradient id="_Linear87" x1="0" y1="0" x2="1" y2="0" gradientUnits="userSpaceOnUse" gradientTransform="matrix(6.90062e-14,1126.96,-1126.96,6.90062e-14,964.174,-43.8261)"><stop offset="0" style="stop-color:rgb(39,110,253);stop-opacity:0.25"/><stop offset="1" style="stop-color:rgb(39,110,253);stop-opacity:0"/></linearGradient>
        <linearGradient id="_Linear88" x1="0" y1="0" x2="1" y2="0" gradientUnits="userSpaceOnUse" gradientTransform="matrix(6.90062e-14,1126.96,-1126.96,6.90062e-14,964.174,-43.8261)"><stop offset="0" style="stop-color:rgb(39,110,253);stop-opacity:0.25"/><stop offset="1" style="stop-color:rgb(39,110,253);stop-opacity:0"/></linearGradient>
        <linearGradient id="_Linear89" x1="0" y1="0" x2="1" y2="0" gradientUnits="userSpaceOnUse" gradientTransform="matrix(6.90062e-14,1126.96,-1126.96,6.90062e-14,964.174,-43.8261)"><stop offset="0" style="stop-color:rgb(39,110,253);stop-opacity:0.25"/><stop offset="1" style="stop-color:rgb(39,110,253);stop-opacity:0"/></linearGradient>
        <linearGradient id="_Linear90" x1="0" y1="0" x2="1" y2="0" gradientUnits="userSpaceOnUse" gradientTransform="matrix(6.90062e-14,1126.96,-1126.96,6.90062e-14,964.174,-43.8261)"><stop offset="0" style="stop-color:rgb(39,110,253);stop-opacity:0.25"/><stop offset="1" style="stop-color:rgb(39,110,253);stop-opacity:0"/></linearGradient>
        <linearGradient id="_Linear91" x1="0" y1="0" x2="1" y2="0" gradientUnits="userSpaceOnUse" gradientTransform="matrix(6.90062e-14,1126.96,-1126.96,6.90062e-14,964.174,-43.8261)"><stop offset="0" style="stop-color:rgb(39,110,253);stop-opacity:0.25"/><stop offset="1" style="stop-color:rgb(39,110,253);stop-opacity:0"/></linearGradient>
        <linearGradient id="_Linear92" x1="0" y1="0" x2="1" y2="0" gradientUnits="userSpaceOnUse" gradientTransform="matrix(6.90062e-14,1126.96,-1126.96,6.90062e-14,964.174,-43.8261)"><stop offset="0" style="stop-color:rgb(39,110,253);stop-opacity:0.25"/><stop offset="1" style="stop-color:rgb(39,110,253);stop-opacity:0"/></linearGradient>
        <linearGradient id="_Linear93" x1="0" y1="0" x2="1" y2="0" gradientUnits="userSpaceOnUse" gradientTransform="matrix(6.90062e-14,1126.96,-1126.96,6.90062e-14,964.174,-43.8261)"><stop offset="0" style="stop-color:rgb(39,110,253);stop-opacity:0.25"/><stop offset="1" style="stop-color:rgb(39,110,253);stop-opacity:0"/></linearGradient>
        <linearGradient id="_Linear94" x1="0" y1="0" x2="1" y2="0" gradientUnits="userSpaceOnUse" gradientTransform="matrix(6.90062e-14,1126.96,-1126.96,6.90062e-14,964.174,-43.8261)"><stop offset="0" style="stop-color:rgb(39,110,253);stop-opacity:0.25"/><stop offset="1" style="stop-color:rgb(39,110,253);stop-opacity:0"/></linearGradient>
        <linearGradient id="_Linear95" x1="0" y1="0" x2="1" y2="0" gradientUnits="userSpaceOnUse" gradientTransform="matrix(6.90062e-14,1126.96,-1126.96,6.90062e-14,964.174,-43.8261)"><stop offset="0" style="stop-color:rgb(39,110,253);stop-opacity:0.25"/><stop offset="1" style="stop-color:rgb(39,110,253);stop-opacity:0"/></linearGradient>
    </defs>
</svg>
