<?xml version="1.0" encoding="UTF-8" standalone="no"?>
<!DOCTYPE svg PUBLIC "-//W3C//DTD SVG 1.1//EN" "http://www.w3.org/Graphics/SVG/1.1/DTD/svg11.dtd">
<svg width="100%" height="100%" viewBox="0 0 1920 1080" version="1.1" xmlns="http://www.w3.org/2000/svg" xmlns:xlink="http://www.w3.org/1999/xlink" xml:space="preserve" xmlns:serif="http://www.serif.com/" style="fill-rule:evenodd;clip-rule:evenodd;stroke-linejoin:round;stroke-miterlimit:2;">
    <g transform="matrix(1.00179,0,0,1,0,0)">
        <rect x="0" y="0" width="1916.56" height="1080" style="fill:rgb(10,10,10);"/>
    </g>
    <rect x="0" y="0" width="1920" height="1080" style="fill:url(#_Linear1);"/>
    <g transform="matrix(0.979981,0,0,0.937037,35,34)">
        <g transform="matrix(1.24268,0,0,1.29963,0,0)">
            <path d="M24.844,86.952L74.531,86.952L74.531,124.218L99.374,124.218L99.374,14.906C99.374,6.677 92.697,0 84.468,0L14.906,0C6.677,0 0,6.677 0,14.906L0,124.218L24.844,124.218L24.844,86.952ZM74.531,62.109L24.844,62.109L24.844,24.844L74.531,24.844L74.531,62.109Z" style="fill:url(#_Linear2);fill-rule:nonzero;"/>
        </g>
        <g transform="matrix(1.24268,0,0,1.29963,0,0)">
            <path d="M222.825,24.844L222.825,49.687L173.138,49.687L173.138,24.844L222.825,24.844ZM173.138,99.374L173.138,74.531L222.825,74.531L222.825,99.374L173.138,99.374ZM247.668,43.476L247.668,14.906C247.668,6.677 240.992,0 232.762,0L148.294,0L148.294,124.218L232.762,124.218C240.992,124.218 247.668,117.541 247.668,109.312L247.668,80.742C247.668,76.86 246.116,72.978 243.321,70.183L235.247,62.109L243.321,54.035C246.116,51.24 247.668,47.358 247.668,43.476Z" style="fill:url(#_Linear3);fill-rule:nonzero;"/>
        </g>
        <g transform="matrix(1.24268,0,0,1.29963,0,0)">
            <path d="M381.056,0L311.494,0C303.265,0 296.588,6.677 296.588,14.906L296.588,109.312C296.588,117.541 303.265,124.218 311.494,124.218L381.056,124.218C389.131,124.218 395.963,117.386 395.963,109.312L395.963,86.952L371.119,86.952L371.119,99.374L321.432,99.374L321.432,24.844L371.119,24.844L371.119,37.265L395.963,37.265L395.963,14.906C395.963,6.832 389.131,0 381.056,0Z" style="fill:url(#_Linear4);fill-rule:nonzero;"/>
        </g>
        <g transform="matrix(1.24268,0,0,1.29963,0,0)">
            <path d="M444.883,0L444.883,124.218L529.351,124.218C537.58,124.218 544.257,117.541 544.257,109.312L544.257,14.906C544.257,6.677 537.58,0 529.351,0L444.883,0ZM519.413,24.844L519.413,99.374L469.726,99.374L469.726,24.844L519.413,24.844Z" style="fill:url(#_Linear5);fill-rule:nonzero;"/>
        </g>
        <g transform="matrix(1.24268,0,0,1.29963,0,0)">
            <path d="M618.02,99.374L618.02,74.531L667.707,74.531L667.707,49.687L618.02,49.687L618.02,24.844L680.129,24.844L680.129,0L593.177,0L593.177,124.218L680.129,124.218L680.129,99.374L618.02,99.374Z" style="fill:url(#_Linear6);fill-rule:nonzero;"/>
        </g>
        <g transform="matrix(1.24268,0,0,1.29963,0,0)">
            <path d="M753.893,124.218L753.893,74.531L803.58,74.531L803.58,49.687L753.893,49.687L753.893,24.844L816.001,24.844L816.001,0L729.049,0L729.049,124.218L753.893,124.218Z" style="fill:url(#_Linear7);fill-rule:nonzero;"/>
        </g>
        <g transform="matrix(1.24268,0,0,1.29963,0,0)">
            <path d="M964.296,109.312L964.296,49.687L914.609,49.687L914.609,74.531L939.452,74.531L939.452,99.374L889.765,99.374L889.765,24.844L964.296,24.844L964.296,14.906C964.296,6.677 957.619,0 949.39,0L879.828,0C871.598,0 864.921,6.677 864.921,14.906L864.921,109.312C864.921,117.541 871.598,124.218 879.828,124.218L949.39,124.218C957.464,124.218 964.296,117.386 964.296,109.312Z" style="fill:url(#_Linear8);fill-rule:nonzero;"/>
        </g>
        <g transform="matrix(1.24268,0,0,1.29963,0,0)">
            <path d="M1038.06,124.218L1038.06,74.531L1087.75,74.531L1087.75,124.218L1112.59,124.218L1112.59,0L1087.75,0L1087.75,49.687L1038.06,49.687L1038.06,0L1013.22,0L1013.22,124.218L1038.06,124.218Z" style="fill:url(#_Linear9);fill-rule:nonzero;"/>
        </g>
        <g transform="matrix(1.24268,0,0,1.29963,0,0)">
            <path d="M1236.04,99.374L1211.2,99.374L1211.2,24.844L1236.04,24.844L1236.04,0L1161.51,0L1161.51,24.844L1186.35,24.844L1186.35,99.374L1161.51,99.374L1161.51,124.218L1236.04,124.218L1236.04,99.374Z" style="fill:url(#_Linear10);fill-rule:nonzero;"/>
        </g>
        <g transform="matrix(1.24268,0,0,1.29963,0,0)">
            <path d="M1322.23,24.844L1347.07,24.844L1347.07,99.374L1309.8,99.374L1309.8,86.952L1284.96,86.952L1284.96,109.312C1284.96,117.541 1291.64,124.218 1299.87,124.218L1357.01,124.218C1365.24,124.218 1371.91,117.541 1371.91,109.312L1371.91,0L1322.23,0L1322.23,24.844Z" style="fill:url(#_Linear11);fill-rule:nonzero;"/>
        </g>
        <g transform="matrix(1.24268,0,0,1.29963,0,0)">
            <path d="M1445.68,55.277L1445.68,0L1420.83,0L1420.83,124.218L1445.68,124.218L1445.68,68.941L1489.93,124.218L1520.21,124.218L1470.52,62.109L1520.21,0L1489.93,0L1445.68,55.277Z" style="fill:url(#_Linear12);fill-rule:nonzero;"/>
        </g>
        <g transform="matrix(1.24268,0,0,1.29963,0,0)">
            <path d="M24.844,268.621L24.844,169.247L0,169.247L0,293.464L86.952,293.464L86.952,268.621L24.844,268.621Z" style="fill:url(#_Linear13);fill-rule:nonzero;"/>
        </g>
        <g transform="matrix(1.24268,0,0,1.29963,0,0)">
            <path d="M266.906,293.464L266.906,169.247L236.317,169.247C229.951,169.247 224.206,173.439 222.187,179.495C216.287,197.04 204.952,231.2 204.952,231.2C204.952,231.2 193.617,197.04 187.872,179.495C185.854,173.439 179.953,169.247 173.587,169.247L142.688,169.247L142.688,293.464L167.532,293.464L167.532,193.314L192.375,268.621L217.219,268.621L242.062,194.401L242.062,293.464L266.906,293.464Z" style="fill:url(#_Linear14);fill-rule:nonzero;"/>
        </g>
        <g transform="matrix(1.24268,0,0,1.29963,0,0)">
            <path d="M347.485,193.78C347.485,193.78 378.229,260.547 389.409,284.769C391.893,290.048 397.172,293.464 402.917,293.464L434.438,293.464L434.438,169.247L409.594,169.247L409.594,268.931C409.594,268.931 378.85,202.164 367.671,177.942C365.186,172.663 359.907,169.247 354.162,169.247L322.642,169.247L322.642,293.464L347.485,293.464L347.485,193.78Z" style="fill:url(#_Linear15);fill-rule:nonzero;"/>
        </g>
        <g transform="matrix(1.24268,0,0,1.29963,0,0)">
            <path d="M490.173,184.153L490.173,278.558C490.173,286.788 496.85,293.464 505.079,293.464L574.641,293.464C582.871,293.464 589.547,286.788 589.547,278.558L589.547,184.153C589.547,175.923 582.871,169.247 574.641,169.247L505.079,169.247C496.85,169.247 490.173,175.923 490.173,184.153ZM564.704,194.09L564.704,268.621L515.017,268.621L515.017,194.09L564.704,194.09Z" style="fill:url(#_Linear16);fill-rule:nonzero;"/>
        </g>
        <g transform="matrix(1.24268,0,0,1.29963,0,0)">
            <path d="M744.657,241.293L744.657,184.153C744.657,176.079 737.825,169.247 729.751,169.247L645.283,169.247L645.283,293.464L670.127,293.464L670.127,256.199L729.751,256.199C737.825,256.199 744.657,249.367 744.657,241.293ZM719.814,231.356L670.127,231.356L670.127,194.09L719.814,194.09L719.814,231.356Z" style="fill:url(#_Linear17);fill-rule:nonzero;"/>
        </g>
        <g transform="matrix(1.24268,0,0,1.29963,0,0)">
            <path d="M899.767,278.558L899.767,184.153C899.767,175.923 893.091,169.247 884.861,169.247L815.299,169.247C807.07,169.247 800.393,175.923 800.393,184.153L800.393,278.558C800.393,286.632 807.225,293.464 815.299,293.464L837.658,293.464L837.658,318.308L862.502,318.308L862.502,293.464L884.861,293.464C892.935,293.464 899.767,286.632 899.767,278.558ZM874.924,194.09L874.924,268.621L825.237,268.621L825.237,194.09L874.924,194.09Z" style="fill:url(#_Linear18);fill-rule:nonzero;"/>
        </g>
        <g transform="matrix(1.24268,0,0,1.29963,0,0)">
            <path d="M980.347,194.09L1030.03,194.09L1030.03,231.356L980.347,231.356L980.347,194.09ZM1039.97,169.247L955.503,169.247L955.503,293.464L980.347,293.464L980.347,256.199L1030.03,256.199L1030.03,293.464L1054.88,293.464L1054.88,262.41C1054.88,258.528 1053.33,254.646 1050.53,251.851L1042.45,243.777L1050.53,235.703C1053.33,232.908 1054.88,229.026 1054.88,225.145L1054.88,184.153C1054.88,176.079 1048.05,169.247 1039.97,169.247Z" style="fill:url(#_Linear19);fill-rule:nonzero;"/>
        </g>
        <g transform="matrix(1.24268,0,0,1.29963,0,0)">
            <path d="M1110.61,293.464L1195.08,293.464C1199.04,293.464 1202.83,291.894 1205.62,289.098C1208.42,286.303 1209.99,282.511 1209.99,278.558L1209.99,233.84C1209.99,229.887 1208.42,226.095 1205.62,223.3C1202.83,220.504 1199.04,218.934 1195.08,218.934L1135.46,218.934L1135.46,194.09L1209.99,194.09L1209.99,169.247L1125.52,169.247C1121.56,169.247 1117.77,170.817 1114.98,173.613C1112.18,176.408 1110.61,180.2 1110.61,184.153L1110.61,228.871C1110.61,232.824 1112.18,236.616 1114.98,239.411C1117.77,242.207 1121.56,243.777 1125.52,243.777L1185.14,243.777L1185.14,268.621L1110.61,268.621L1110.61,293.464Z" style="fill:url(#_Linear20);fill-rule:nonzero;"/>
        </g>
        <g transform="matrix(1.24268,0,0,1.29963,0,0)">
            <path d="M1265.72,194.09L1302.99,194.09L1302.99,293.464L1327.83,293.464L1327.83,194.09L1365.1,194.09L1365.1,169.247L1265.72,169.247L1265.72,194.09Z" style="fill:url(#_Linear21);fill-rule:nonzero;"/>
        </g>
        <g transform="matrix(1.24268,0,0,1.29963,0,0)">
            <path d="M1495.36,169.247L1495.36,268.621L1445.68,268.621L1445.68,169.247L1420.83,169.247L1420.83,278.558C1420.83,286.788 1427.51,293.464 1435.74,293.464L1505.3,293.464C1513.53,293.464 1520.21,286.788 1520.21,278.558L1520.21,169.247L1495.36,169.247Z" style="fill:url(#_Linear22);fill-rule:nonzero;"/>
        </g>
        <g transform="matrix(1.24268,0,0,1.29963,0,0)">
            <path d="M48.6,462.711L75.618,462.711L124.218,338.493L98.443,338.493L62.109,431.191L25.775,338.493L0,338.493L48.6,462.711Z" style="fill:url(#_Linear23);fill-rule:nonzero;"/>
        </g>
        <g transform="matrix(1.24268,0,0,1.29963,0,0)">
            <path d="M263.91,433.986L248.693,388.18L223.85,388.18L208.633,433.986L199.006,338.493L174.163,338.493C174.163,338.493 186.274,460.071 186.584,462.711L213.136,462.711C219.502,462.711 225.247,458.519 227.266,452.463C230.992,441.439 236.271,425.446 236.271,425.446C236.271,425.446 241.551,441.439 245.277,452.463C247.296,458.519 253.041,462.711 259.407,462.711L285.958,462.711L298.38,338.493L273.537,338.493L263.91,433.986Z" style="fill:url(#_Linear24);fill-rule:nonzero;"/>
        </g>
        <g transform="matrix(1.24268,0,0,1.29963,0,0)">
            <path d="M404.844,379.796L376.585,338.493L348.325,338.493L390.559,400.602L348.325,462.711L376.585,462.711L404.844,421.409L432.948,462.711L461.208,462.711L418.974,400.602L461.208,338.493L432.948,338.493L404.844,379.796Z" style="fill:url(#_Linear25);fill-rule:nonzero;"/>
        </g>
        <g transform="matrix(1.24268,0,0,1.29963,0,0)">
            <path d="M567.672,386.162L539.412,338.493L511.153,338.493L555.095,413.024L555.095,462.711L580.094,462.711L580.094,413.024L624.036,338.493L595.776,338.493L567.672,386.162Z" style="fill:url(#_Linear26);fill-rule:nonzero;"/>
        </g>
        <g transform="matrix(1.24268,0,0,1.29963,0,0)">
            <path d="M673.98,363.337L740.592,363.337L673.98,437.868L673.98,462.711L773.355,462.711L773.355,437.868L706.743,437.868L773.355,363.337L773.355,338.493L673.98,338.493L673.98,363.337Z" style="fill:url(#_Linear27);fill-rule:nonzero;"/>
        </g>
        <g transform="matrix(1.24268,0,0,1.29963,0,0)">
            <path d="M823.299,462.711L897.83,462.711L897.83,437.868L872.986,437.868L872.986,353.399C872.986,345.17 866.31,338.493 858.08,338.493L823.299,338.493L823.299,363.337L848.143,363.337L848.143,437.868L823.299,437.868L823.299,462.711Z" style="fill:url(#_Linear28);fill-rule:nonzero;"/>
        </g>
        <g transform="matrix(1.24268,0,0,1.29963,0,0)">
            <path d="M997.462,388.18L962.681,388.18C954.451,388.18 947.775,394.857 947.775,403.087L947.775,462.711L1022.31,462.711L1022.31,437.868L972.618,437.868L972.618,413.024L1007.4,413.024C1015.63,413.024 1022.31,406.347 1022.31,398.118L1022.31,353.399C1022.31,349.518 1020.75,345.636 1017.96,342.841C1015.16,340.046 1011.28,338.493 1007.4,338.493L947.775,338.493L947.775,363.337L997.462,363.337L997.462,388.18Z" style="fill:url(#_Linear29);fill-rule:nonzero;"/>
        </g>
        <g transform="matrix(1.24268,0,0,1.29963,0,0)">
            <path d="M1121.94,437.868L1072.25,437.868L1072.25,462.711L1131.88,462.711C1140.1,462.711 1146.78,456.034 1146.78,447.805L1146.78,353.399C1146.78,345.17 1140.1,338.493 1131.88,338.493L1072.25,338.493L1072.25,363.337L1121.94,363.337L1121.94,388.18L1084.67,388.18L1084.67,413.024L1121.94,413.024L1121.94,437.868Z" style="fill:url(#_Linear30);fill-rule:nonzero;"/>
        </g>
        <g transform="matrix(1.24268,0,0,1.29963,0,0)">
            <path d="M1271.26,462.711L1271.26,338.493L1246.41,338.493L1246.41,401.534L1221.57,401.534L1221.57,338.493L1196.73,338.493L1196.73,411.471C1196.73,419.701 1203.4,426.377 1211.63,426.377L1246.41,426.377L1246.41,462.711L1271.26,462.711Z" style="fill:url(#_Linear31);fill-rule:nonzero;"/>
        </g>
        <g transform="matrix(1.24268,0,0,1.29963,0,0)">
            <path d="M1395.73,447.805L1395.73,403.087C1395.73,394.857 1389.06,388.18 1380.83,388.18L1346.05,388.18L1346.05,363.337L1395.73,363.337L1395.73,338.493L1321.2,338.493L1321.2,398.118C1321.2,406.347 1327.88,413.024 1336.11,413.024L1370.89,413.024L1370.89,437.868L1321.2,437.868L1321.2,462.711L1380.83,462.711C1388.9,462.711 1395.73,455.879 1395.73,447.805Z" style="fill:url(#_Linear32);fill-rule:nonzero;"/>
        </g>
        <g transform="matrix(1.24268,0,0,1.29963,0,0)">
            <path d="M1520.21,447.805L1520.21,403.087C1520.21,394.857 1513.53,388.18 1505.3,388.18L1470.52,388.18L1470.52,363.337L1520.21,363.337L1520.21,353.399C1520.21,345.17 1513.53,338.493 1505.3,338.493L1460.58,338.493C1452.35,338.493 1445.68,345.17 1445.68,353.399L1445.68,447.805C1445.68,456.034 1452.35,462.711 1460.58,462.711L1505.3,462.711C1513.38,462.711 1520.21,455.879 1520.21,447.805ZM1470.52,413.024L1495.36,413.024L1495.36,437.868L1470.52,437.868L1470.52,413.024Z" style="fill:url(#_Linear33);fill-rule:nonzero;"/>
        </g>
        <g transform="matrix(1.24268,0,0,1.29963,0,0)">
            <path d="M74.531,631.958L74.531,523.578C74.531,514.727 67.543,507.74 58.693,507.74L14.906,507.74C6.677,507.74 0,514.417 0,522.646L0,557.427L24.844,557.427L24.844,532.584L49.687,532.584L49.687,631.958L74.531,631.958Z" style="fill:url(#_Linear34);fill-rule:nonzero;"/>
        </g>
        <g transform="matrix(1.24268,0,0,1.29963,0,0)">
            <path d="M149.451,532.584L174.294,532.584L174.294,557.427L149.451,557.427L149.451,532.584ZM149.451,607.114L149.451,582.271L174.294,582.271L174.294,607.114L149.451,607.114ZM199.138,551.216L199.138,522.646C199.138,514.417 192.461,507.74 184.232,507.74L139.513,507.74C131.284,507.74 124.607,514.417 124.607,522.646L124.607,551.216C124.607,555.098 126.16,558.98 128.955,561.775L137.029,569.849L128.955,577.923C126.16,580.718 124.607,584.6 124.607,588.482L124.607,617.052C124.607,625.281 131.284,631.958 139.513,631.958L184.232,631.958C192.461,631.958 199.138,625.281 199.138,617.052L199.138,588.482C199.138,584.6 197.585,580.718 194.79,577.923L186.716,569.849L194.79,561.775C197.585,558.98 199.138,555.098 199.138,551.216Z" style="fill:url(#_Linear35);fill-rule:nonzero;"/>
        </g>
        <g transform="matrix(1.24268,0,0,1.29963,0,0)">
            <path d="M249.214,522.646L249.214,567.365C249.214,575.594 255.891,582.271 264.12,582.271L298.901,582.271L298.901,607.114L249.214,607.114L249.214,617.052C249.214,625.281 255.891,631.958 264.12,631.958L308.839,631.958C317.068,631.958 323.745,625.281 323.745,617.052L323.745,522.646C323.745,514.417 317.068,507.74 308.839,507.74L264.12,507.74C256.046,507.74 249.214,514.572 249.214,522.646ZM274.058,557.427L274.058,532.584L298.901,532.584L298.901,557.427L274.058,557.427Z" style="fill:url(#_Linear36);fill-rule:nonzero;"/>
        </g>
        <g transform="matrix(1.24268,0,0,1.29963,0,0)">
            <path d="M373.821,522.646L373.821,617.052C373.821,625.281 380.498,631.958 388.727,631.958L433.446,631.958C441.675,631.958 448.352,625.281 448.352,617.052L448.352,522.646C448.352,514.417 441.675,507.74 433.446,507.74L388.727,507.74C380.498,507.74 373.821,514.417 373.821,522.646ZM398.665,532.584L423.508,532.584L423.508,607.114L398.665,607.114L398.665,532.584Z" style="fill:url(#_Linear37);fill-rule:nonzero;"/>
        </g>
        <g transform="matrix(1.24268,0,0,1.29963,0,0)">
            <path d="M498.428,507.74L498.428,582.271L523.272,582.271L523.272,507.74L498.428,507.74ZM523.272,607.114L498.428,607.114L498.428,631.958L523.272,631.958L523.272,607.114Z" style="fill:url(#_Linear38);fill-rule:nonzero;"/>
        </g>
        <g transform="matrix(1.24268,0,0,1.29963,0,0)">
            <path d="M573.358,557.417L598.182,557.417L598.182,507.75L573.358,507.75L573.358,557.417ZM623.045,557.417L647.869,557.417L647.869,507.75L623.045,507.75L623.045,557.417Z" style="fill:url(#_Linear39);fill-rule:nonzero;"/>
        </g>
        <g transform="matrix(1.24268,0,0,1.29963,0,0)">
            <path d="M735.211,557.417L760.074,557.417L760.074,582.28L735.211,582.28L735.211,557.417ZM797.32,582.28L784.898,582.28L784.898,557.417L797.32,557.417L797.32,532.593L784.898,532.593L784.898,507.75L760.074,507.75L760.074,532.593L735.211,532.593L735.211,507.75L710.387,507.75L710.387,532.593L697.965,532.593L697.965,557.417L710.387,557.417L710.387,582.28L697.965,582.28L697.965,607.104L710.387,607.104L710.387,631.948L735.211,631.948L735.211,607.104L760.074,607.104L760.074,631.948L784.898,631.948L784.898,607.104L797.32,607.104L797.32,582.28Z" style="fill:url(#_Linear40);fill-rule:nonzero;"/>
        </g>
        <g transform="matrix(1.24268,0,0,1.29963,0,0)">
            <path d="M847.416,522.644L847.416,567.366C847.416,575.434 854.242,582.261 862.31,582.261L897.103,582.261L897.103,607.124L847.416,607.124L847.416,631.948L872.259,631.948L872.259,656.792L897.083,656.792L897.083,631.948L907.021,631.948C915.1,631.948 921.927,625.121 921.927,617.054L921.927,572.331C921.927,564.263 915.1,557.437 907.032,557.437L872.24,557.437L872.24,532.574L921.927,532.574L921.927,507.75L897.083,507.75L897.083,482.906L872.259,482.906L872.259,507.75L862.322,507.75C854.248,507.75 847.416,514.576 847.416,522.644Z" style="fill:url(#_Linear41);fill-rule:nonzero;"/>
        </g>
        <g transform="matrix(1.24268,0,0,1.29963,0,0)">
            <rect x="972.023" y="507.75" width="24.824" height="49.668" style="fill:url(#_Linear42);fill-rule:nonzero;"/>
        </g>
        <g transform="matrix(1.24268,0,0,1.29963,0,0)">
            <path d="M1096.61,482.906L1061.84,482.906C1053.62,482.906 1046.94,489.578 1046.94,497.801L1046.94,641.897C1046.94,650.12 1053.62,656.792 1061.84,656.792L1096.61,656.792L1096.61,631.967L1071.78,631.967L1071.78,507.73L1096.61,507.73L1096.61,482.906Z" style="fill:url(#_Linear43);fill-rule:nonzero;"/>
        </g>
        <g transform="matrix(1.24268,0,0,1.29963,0,0)">
            <path d="M1171.54,507.73L1171.54,631.967L1146.71,631.967L1146.71,656.792L1181.47,656.792C1189.7,656.792 1196.37,650.12 1196.37,641.897L1196.37,497.801C1196.37,489.578 1189.7,482.906 1181.47,482.906L1146.71,482.906L1146.71,507.73L1171.54,507.73Z" style="fill:url(#_Linear44);fill-rule:nonzero;"/>
        </g>
        <g transform="matrix(1.24268,0,0,1.29963,0,0)">
            <path d="M1295.98,607.104L1295.98,582.261L1320.83,582.261L1320.83,557.437L1295.98,557.437L1295.98,532.593L1271.16,532.593L1271.16,557.437L1246.31,557.437L1246.31,582.261L1271.16,582.261L1271.16,607.104L1295.98,607.104Z" style="fill:url(#_Linear45);fill-rule:nonzero;"/>
        </g>
        <g transform="matrix(1.24268,0,0,1.29963,0,0)">
            <path d="M1370.92,607.124L1370.92,630.095C1370.92,631.337 1371.39,632.424 1372.32,633.355L1395.75,656.792L1395.75,607.124L1370.92,607.124Z" style="fill:url(#_Linear46);fill-rule:nonzero;"/>
        </g>
        <g transform="matrix(1.24268,0,0,1.29963,0,0)">
            <rect x="1445.68" y="557.437" width="74.531" height="24.824" style="fill:url(#_Linear47);fill-rule:nonzero;"/>
        </g>
        <g transform="matrix(1.24268,0,0,1.29963,0,0)">
            <rect x="0" y="781.288" width="24.844" height="24.844" style="fill:url(#_Linear48);fill-rule:nonzero;"/>
        </g>
        <g transform="matrix(1.24268,0,0,1.29963,0,0)">
            <path d="M65.214,806.122L90.989,806.122L139.59,681.923L113.815,681.923L65.214,806.122Z" style="fill:url(#_Linear49);fill-rule:nonzero;"/>
        </g>
        <g transform="matrix(1.24268,0,0,1.29963,0,0)">
            <path d="M204.804,706.757L179.96,706.757L179.96,731.601L204.804,731.601L204.804,706.757ZM204.804,756.444L179.96,756.444L179.96,781.288L204.804,781.288L204.804,756.444Z" style="fill:url(#_Linear50);fill-rule:nonzero;"/>
        </g>
        <g transform="matrix(1.24268,0,0,1.29963,0,0)">
            <path d="M245.174,781.278L319.549,781.278L319.549,756.454L245.174,756.454L245.174,781.278ZM245.174,731.591L319.549,731.591L319.549,706.767L245.174,706.767L245.174,731.591Z" style="fill:url(#_Linear51);fill-rule:nonzero;"/>
        </g>
        <g transform="matrix(1.24268,0,0,1.29963,0,0)">
            <path d="M419.39,681.914L374.672,681.914C366.442,681.914 359.766,688.59 359.766,696.82L359.766,706.757L409.453,706.757L409.453,731.601L399.515,731.601C391.286,731.601 384.609,738.277 384.609,746.507L384.609,756.444L419.39,756.444C427.62,756.444 434.296,749.768 434.296,741.538L434.296,696.82C434.296,688.746 427.464,681.914 419.39,681.914ZM409.453,781.288L384.609,781.288L384.609,806.131L409.453,806.131L409.453,781.288Z" style="fill:url(#_Linear52);fill-rule:nonzero;"/>
        </g>
        <g transform="matrix(1.24268,0,0,1.29963,0,0)">
            <path d="M524.344,657.08L474.677,657.08L474.677,830.965L524.344,830.965L524.344,806.141L499.501,806.141L499.501,681.904L524.344,681.904L524.344,657.08Z" style="fill:url(#_Linear53);fill-rule:nonzero;"/>
        </g>
        <g transform="matrix(1.24268,0,0,1.29963,0,0)">
            <path d="M613.48,806.122L639.256,806.122L590.5,681.923L564.725,681.923L613.48,806.122Z" style="fill:url(#_Linear54);fill-rule:nonzero;"/>
        </g>
        <g transform="matrix(1.24268,0,0,1.29963,0,0)">
            <path d="M704.48,681.904L704.48,806.141L679.636,806.141L679.636,830.965L729.304,830.965L729.304,657.08L679.636,657.08L679.636,681.904L704.48,681.904Z" style="fill:url(#_Linear55);fill-rule:nonzero;"/>
        </g>
        <g transform="matrix(1.24268,0,0,1.29963,0,0)">
            <path d="M831.783,657.08L797.016,657.08C788.79,657.08 782.116,663.751 782.116,671.974L782.116,731.599L769.694,744.023L782.116,756.446L782.116,816.071C782.116,824.294 788.79,830.965 797.016,830.965L831.783,830.965L831.783,806.141L806.94,806.141L806.94,756.446L794.528,744.023L806.94,731.599L806.94,681.904L831.783,681.904L831.783,657.08Z" style="fill:url(#_Linear56);fill-rule:nonzero;"/>
        </g>
        <g transform="matrix(1.24268,0,0,1.29963,0,0)">
            <rect x="872.174" y="657.07" width="24.824" height="173.905" style="fill:url(#_Linear57);fill-rule:nonzero;"/>
        </g>
        <g transform="matrix(1.24268,0,0,1.29963,0,0)">
            <path d="M962.231,756.446L962.231,806.141L937.388,806.141L937.388,830.965L972.155,830.965C980.381,830.965 987.056,824.294 987.056,816.071L987.056,756.446L999.477,744.023L987.056,731.599L987.056,671.974C987.056,663.751 980.381,657.08 972.155,657.08L937.388,657.08L937.388,681.904L962.231,681.904L962.231,731.599L974.643,744.023L962.231,756.446Z" style="fill:url(#_Linear58);fill-rule:nonzero;"/>
        </g>
    </g>
    <g transform="matrix(0.578675,0,0,0.578675,539.116,261.212)">
        <g transform="matrix(220.575,0,0,220.575,-578.483,570)">
            <path d="M0.8,-0L0.8,-0.8L0.603,-0.8C0.562,-0.8 0.525,-0.773 0.512,-0.734C0.474,-0.621 0.401,-0.401 0.401,-0.401C0.401,-0.401 0.328,-0.621 0.291,-0.734C0.278,-0.773 0.24,-0.8 0.199,-0.8L0,-0.8L0,-0L0.16,-0L0.16,-0.645L0.32,-0.16L0.48,-0.16L0.64,-0.638L0.64,-0L0.8,-0Z" style="fill:rgb(235,235,235);fill-rule:nonzero;"/>
        </g>
        <g transform="matrix(220.575,0,0,220.575,-366.73,570)">
            <path d="M0.48,-0.16L0.32,-0.16L0.32,-0.64L0.48,-0.64L0.48,-0.8L0,-0.8L0,-0.64L0.16,-0.64L0.16,-0.16L0,-0.16L0,-0L0.48,-0L0.48,-0.16Z" style="fill:rgb(235,235,235);fill-rule:nonzero;"/>
        </g>
        <g transform="matrix(220.575,0,0,220.575,-225.562,570)">
            <path d="M0.16,-0.642C0.16,-0.642 0.358,-0.212 0.43,-0.056C0.446,-0.022 0.48,-0 0.517,-0L0.72,-0L0.72,-0.8L0.56,-0.8L0.56,-0.158C0.56,-0.158 0.362,-0.588 0.29,-0.744C0.274,-0.778 0.24,-0.8 0.203,-0.8L0,-0.8L0,-0L0.16,-0L0.16,-0.642Z" style="fill:rgb(235,235,235);fill-rule:nonzero;"/>
        </g>
        <g transform="matrix(220.575,0,0,220.575,-31.4559,570)">
            <path d="M0,-0.64L0.24,-0.64L0.24,-0L0.4,-0L0.4,-0.64L0.64,-0.64L0.64,-0.8L0,-0.8L0,-0.64Z" style="fill:rgb(235,235,235);fill-rule:nonzero;"/>
        </g>
        <g transform="matrix(220.575,0,0,220.575,215.588,570)">
            <path d="M0.16,-0.24L0.48,-0.24L0.48,-0L0.64,-0L0.64,-0.704C0.64,-0.757 0.597,-0.8 0.544,-0.8L0.096,-0.8C0.043,-0.8 0,-0.757 0,-0.704L0,-0L0.16,-0L0.16,-0.24ZM0.48,-0.4L0.16,-0.4L0.16,-0.64L0.48,-0.64L0.48,-0.4Z" style="fill:rgb(235,235,235);fill-rule:nonzero;"/>
        </g>
        <g transform="matrix(220.575,0,0,220.575,392.049,570)">
            <path d="M0.16,-0.16L0.16,-0.8L0,-0.8L0,-0L0.56,-0L0.56,-0.16L0.16,-0.16Z" style="fill:rgb(235,235,235);fill-rule:nonzero;"/>
        </g>
        <g transform="matrix(220.575,0,0,220.575,497.925,570)">
            <path d="M0,-0.64L0.24,-0.64L0.24,-0L0.4,-0L0.4,-0.64L0.64,-0.64L0.64,-0.8L0,-0.8L0,-0.64Z" style="fill:rgb(235,235,235);fill-rule:nonzero;"/>
        </g>
        <g transform="matrix(220.575,0,0,220.575,674.385,570)">
            <path d="M0.16,-0.16L0.16,-0.32L0.48,-0.32L0.48,-0.48L0.16,-0.48L0.16,-0.64L0.56,-0.64L0.56,-0.8L0,-0.8L0,-0L0.56,-0L0.56,-0.16L0.16,-0.16Z" style="fill:rgb(235,235,235);fill-rule:nonzero;"/>
        </g>
        <g transform="matrix(220.575,0,0,220.575,833.199,570)">
            <path d="M0.16,-0.64L0.48,-0.64L0.48,-0.4L0.16,-0.4L0.16,-0.64ZM0.544,-0.8L0,-0.8L0,-0L0.16,-0L0.16,-0.24L0.48,-0.24L0.48,-0L0.64,-0L0.64,-0.2C0.64,-0.225 0.63,-0.25 0.612,-0.268L0.56,-0.32L0.612,-0.372C0.63,-0.39 0.64,-0.415 0.64,-0.44L0.64,-0.704C0.64,-0.756 0.596,-0.8 0.544,-0.8Z" style="fill:rgb(235,235,235);fill-rule:nonzero;"/>
        </g>
        <g transform="matrix(220.575,0,0,220.575,1009.66,570)">
            <path d="M0.16,-0.642C0.16,-0.642 0.358,-0.212 0.43,-0.056C0.446,-0.022 0.48,-0 0.517,-0L0.72,-0L0.72,-0.8L0.56,-0.8L0.56,-0.158C0.56,-0.158 0.362,-0.588 0.29,-0.744C0.274,-0.778 0.24,-0.8 0.203,-0.8L0,-0.8L0,-0L0.16,-0L0.16,-0.642Z" style="fill:rgb(235,235,235);fill-rule:nonzero;"/>
        </g>
        <g transform="matrix(220.575,0,0,220.575,1203.77,570)">
            <path d="M0.16,-0.24L0.48,-0.24L0.48,-0L0.64,-0L0.64,-0.704C0.64,-0.757 0.597,-0.8 0.544,-0.8L0.096,-0.8C0.043,-0.8 0,-0.757 0,-0.704L0,-0L0.16,-0L0.16,-0.24ZM0.48,-0.4L0.16,-0.4L0.16,-0.64L0.48,-0.64L0.48,-0.4Z" style="fill:rgb(235,235,235);fill-rule:nonzero;"/>
        </g>
        <g transform="matrix(220.575,0,0,220.575,1380.23,570)">
            <path d="M0,-0.64L0.24,-0.64L0.24,-0L0.4,-0L0.4,-0.64L0.64,-0.64L0.64,-0.8L0,-0.8L0,-0.64Z" style="fill:rgb(235,235,235);fill-rule:nonzero;"/>
        </g>
        <g transform="matrix(220.575,0,0,220.575,1556.69,570)">
            <path d="M0.48,-0.16L0.32,-0.16L0.32,-0.64L0.48,-0.64L0.48,-0.8L0,-0.8L0,-0.64L0.16,-0.64L0.16,-0.16L0,-0.16L0,-0L0.48,-0L0.48,-0.16Z" style="fill:rgb(235,235,235);fill-rule:nonzero;"/>
        </g>
        <g transform="matrix(220.575,0,0,220.575,1697.85,570)">
            <path d="M0.313,-0L0.487,-0L0.8,-0.8L0.634,-0.8L0.4,-0.203L0.166,-0.8L0,-0.8L0.313,-0Z" style="fill:rgb(235,235,235);fill-rule:nonzero;"/>
        </g>
        <g transform="matrix(220.575,0,0,220.575,1909.61,570)">
            <path d="M0.16,-0.16L0.16,-0.32L0.48,-0.32L0.48,-0.48L0.16,-0.48L0.16,-0.64L0.56,-0.64L0.56,-0.8L0,-0.8L0,-0L0.56,-0L0.56,-0.16L0.16,-0.16Z" style="fill:rgb(235,235,235);fill-rule:nonzero;"/>
        </g>
    </g>
    <defs>
        <linearGradient id="_Linear1" x1="0" y1="0" x2="1" y2="0" gradientUnits="userSpaceOnUse" gradientTransform="matrix(1080,1080,-1080,1080,0,0)"><stop offset="0" style="stop-color:rgb(230,56,70);stop-opacity:0.1"/><stop offset="1" style="stop-color:rgb(230,56,70);stop-opacity:0"/></linearGradient>
        <linearGradient id="_Linear2" x1="0" y1="0" x2="1" y2="0" gradientUnits="userSpaceOnUse" gradientTransform="matrix(-1.32841e-13,826.065,-826.065,-1.32841e-13,755.05,0)"><stop offset="0" style="stop-color:rgb(230,56,70);stop-opacity:0.25"/><stop offset="1" style="stop-color:rgb(230,56,70);stop-opacity:0"/></linearGradient>
        <linearGradient id="_Linear3" x1="0" y1="0" x2="1" y2="0" gradientUnits="userSpaceOnUse" gradientTransform="matrix(-1.32841e-13,826.065,-826.065,-1.32841e-13,755.05,0)"><stop offset="0" style="stop-color:rgb(230,56,70);stop-opacity:0.25"/><stop offset="1" style="stop-color:rgb(230,56,70);stop-opacity:0"/></linearGradient>
        <linearGradient id="_Linear4" x1="0" y1="0" x2="1" y2="0" gradientUnits="userSpaceOnUse" gradientTransform="matrix(-1.32841e-13,826.065,-826.065,-1.32841e-13,755.05,0)"><stop offset="0" style="stop-color:rgb(230,56,70);stop-opacity:0.25"/><stop offset="1" style="stop-color:rgb(230,56,70);stop-opacity:0"/></linearGradient>
        <linearGradient id="_Linear5" x1="0" y1="0" x2="1" y2="0" gradientUnits="userSpaceOnUse" gradientTransform="matrix(-1.32841e-13,826.065,-826.065,-1.32841e-13,755.05,0)"><stop offset="0" style="stop-color:rgb(230,56,70);stop-opacity:0.25"/><stop offset="1" style="stop-color:rgb(230,56,70);stop-opacity:0"/></linearGradient>
        <linearGradient id="_Linear6" x1="0" y1="0" x2="1" y2="0" gradientUnits="userSpaceOnUse" gradientTransform="matrix(-1.32841e-13,826.065,-826.065,-1.32841e-13,755.05,0)"><stop offset="0" style="stop-color:rgb(230,56,70);stop-opacity:0.25"/><stop offset="1" style="stop-color:rgb(230,56,70);stop-opacity:0"/></linearGradient>
        <linearGradient id="_Linear7" x1="0" y1="0" x2="1" y2="0" gradientUnits="userSpaceOnUse" gradientTransform="matrix(-1.32841e-13,826.065,-826.065,-1.32841e-13,755.05,0)"><stop offset="0" style="stop-color:rgb(230,56,70);stop-opacity:0.25"/><stop offset="1" style="stop-color:rgb(230,56,70);stop-opacity:0"/></linearGradient>
        <linearGradient id="_Linear8" x1="0" y1="0" x2="1" y2="0" gradientUnits="userSpaceOnUse" gradientTransform="matrix(-1.32841e-13,826.065,-826.065,-1.32841e-13,755.05,0)"><stop offset="0" style="stop-color:rgb(230,56,70);stop-opacity:0.25"/><stop offset="1" style="stop-color:rgb(230,56,70);stop-opacity:0"/></linearGradient>
        <linearGradient id="_Linear9" x1="0" y1="0" x2="1" y2="0" gradientUnits="userSpaceOnUse" gradientTransform="matrix(-1.32841e-13,826.065,-826.065,-1.32841e-13,755.05,0)"><stop offset="0" style="stop-color:rgb(230,56,70);stop-opacity:0.25"/><stop offset="1" style="stop-color:rgb(230,56,70);stop-opacity:0"/></linearGradient>
        <linearGradient id="_Linear10" x1="0" y1="0" x2="1" y2="0" gradientUnits="userSpaceOnUse" gradientTransform="matrix(-1.32841e-13,826.065,-826.065,-1.32841e-13,755.05,0)"><stop offset="0" style="stop-color:rgb(230,56,70);stop-opacity:0.25"/><stop offset="1" style="stop-color:rgb(230,56,70);stop-opacity:0"/></linearGradient>
        <linearGradient id="_Linear11" x1="0" y1="0" x2="1" y2="0" gradientUnits="userSpaceOnUse" gradientTransform="matrix(-1.32841e-13,826.065,-826.065,-1.32841e-13,755.05,0)"><stop offset="0" style="stop-color:rgb(230,56,70);stop-opacity:0.25"/><stop offset="1" style="stop-color:rgb(230,56,70);stop-opacity:0"/></linearGradient>
        <linearGradient id="_Linear12" x1="0" y1="0" x2="1" y2="0" gradientUnits="userSpaceOnUse" gradientTransform="matrix(-1.32841e-13,826.065,-826.065,-1.32841e-13,755.05,0)"><stop offset="0" style="stop-color:rgb(230,56,70);stop-opacity:0.25"/><stop offset="1" style="stop-color:rgb(230,56,70);stop-opacity:0"/></linearGradient>
        <linearGradient id="_Linear13" x1="0" y1="0" x2="1" y2="0" gradientUnits="userSpaceOnUse" gradientTransform="matrix(-1.32841e-13,826.065,-826.065,-1.32841e-13,755.05,0)"><stop offset="0" style="stop-color:rgb(230,56,70);stop-opacity:0.25"/><stop offset="1" style="stop-color:rgb(230,56,70);stop-opacity:0"/></linearGradient>
        <linearGradient id="_Linear14" x1="0" y1="0" x2="1" y2="0" gradientUnits="userSpaceOnUse" gradientTransform="matrix(-1.32841e-13,826.065,-826.065,-1.32841e-13,755.05,0)"><stop offset="0" style="stop-color:rgb(230,56,70);stop-opacity:0.25"/><stop offset="1" style="stop-color:rgb(230,56,70);stop-opacity:0"/></linearGradient>
        <linearGradient id="_Linear15" x1="0" y1="0" x2="1" y2="0" gradientUnits="userSpaceOnUse" gradientTransform="matrix(-1.32841e-13,826.065,-826.065,-1.32841e-13,755.05,0)"><stop offset="0" style="stop-color:rgb(230,56,70);stop-opacity:0.25"/><stop offset="1" style="stop-color:rgb(230,56,70);stop-opacity:0"/></linearGradient>
        <linearGradient id="_Linear16" x1="0" y1="0" x2="1" y2="0" gradientUnits="userSpaceOnUse" gradientTransform="matrix(-1.32841e-13,826.065,-826.065,-1.32841e-13,755.05,0)"><stop offset="0" style="stop-color:rgb(230,56,70);stop-opacity:0.25"/><stop offset="1" style="stop-color:rgb(230,56,70);stop-opacity:0"/></linearGradient>
        <linearGradient id="_Linear17" x1="0" y1="0" x2="1" y2="0" gradientUnits="userSpaceOnUse" gradientTransform="matrix(-1.32841e-13,826.065,-826.065,-1.32841e-13,755.05,0)"><stop offset="0" style="stop-color:rgb(230,56,70);stop-opacity:0.25"/><stop offset="1" style="stop-color:rgb(230,56,70);stop-opacity:0"/></linearGradient>
        <linearGradient id="_Linear18" x1="0" y1="0" x2="1" y2="0" gradientUnits="userSpaceOnUse" gradientTransform="matrix(-1.32841e-13,826.065,-826.065,-1.32841e-13,755.05,0)"><stop offset="0" style="stop-color:rgb(230,56,70);stop-opacity:0.25"/><stop offset="1" style="stop-color:rgb(230,56,70);stop-opacity:0"/></linearGradient>
        <linearGradient id="_Linear19" x1="0" y1="0" x2="1" y2="0" gradientUnits="userSpaceOnUse" gradientTransform="matrix(-1.32841e-13,826.065,-826.065,-1.32841e-13,755.05,0)"><stop offset="0" style="stop-color:rgb(230,56,70);stop-opacity:0.25"/><stop offset="1" style="stop-color:rgb(230,56,70);stop-opacity:0"/></linearGradient>
        <linearGradient id="_Linear20" x1="0" y1="0" x2="1" y2="0" gradientUnits="userSpaceOnUse" gradientTransform="matrix(-1.32841e-13,826.065,-826.065,-1.32841e-13,755.05,0)"><stop offset="0" style="stop-color:rgb(230,56,70);stop-opacity:0.25"/><stop offset="1" style="stop-color:rgb(230,56,70);stop-opacity:0"/></linearGradient>
        <linearGradient id="_Linear21" x1="0" y1="0" x2="1" y2="0" gradientUnits="userSpaceOnUse" gradientTransform="matrix(-1.32841e-13,826.065,-826.065,-1.32841e-13,755.05,0)"><stop offset="0" style="stop-color:rgb(230,56,70);stop-opacity:0.25"/><stop offset="1" style="stop-color:rgb(230,56,70);stop-opacity:0"/></linearGradient>
        <linearGradient id="_Linear22" x1="0" y1="0" x2="1" y2="0" gradientUnits="userSpaceOnUse" gradientTransform="matrix(-1.32841e-13,826.065,-826.065,-1.32841e-13,755.05,0)"><stop offset="0" style="stop-color:rgb(230,56,70);stop-opacity:0.25"/><stop offset="1" style="stop-color:rgb(230,56,70);stop-opacity:0"/></linearGradient>
        <linearGradient id="_Linear23" x1="0" y1="0" x2="1" y2="0" gradientUnits="userSpaceOnUse" gradientTransform="matrix(-1.32841e-13,826.065,-826.065,-1.32841e-13,755.05,0)"><stop offset="0" style="stop-color:rgb(230,56,70);stop-opacity:0.25"/><stop offset="1" style="stop-color:rgb(230,56,70);stop-opacity:0"/></linearGradient>
        <linearGradient id="_Linear24" x1="0" y1="0" x2="1" y2="0" gradientUnits="userSpaceOnUse" gradientTransform="matrix(-1.32841e-13,826.065,-826.065,-1.32841e-13,755.05,0)"><stop offset="0" style="stop-color:rgb(230,56,70);stop-opacity:0.25"/><stop offset="1" style="stop-color:rgb(230,56,70);stop-opacity:0"/></linearGradient>
        <linearGradient id="_Linear25" x1="0" y1="0" x2="1" y2="0" gradientUnits="userSpaceOnUse" gradientTransform="matrix(-1.32841e-13,826.065,-826.065,-1.32841e-13,755.05,0)"><stop offset="0" style="stop-color:rgb(230,56,70);stop-opacity:0.25"/><stop offset="1" style="stop-color:rgb(230,56,70);stop-opacity:0"/></linearGradient>
        <linearGradient id="_Linear26" x1="0" y1="0" x2="1" y2="0" gradientUnits="userSpaceOnUse" gradientTransform="matrix(-1.32841e-13,826.065,-826.065,-1.32841e-13,755.05,0)"><stop offset="0" style="stop-color:rgb(230,56,70);stop-opacity:0.25"/><stop offset="1" style="stop-color:rgb(230,56,70);stop-opacity:0"/></linearGradient>
        <linearGradient id="_Linear27" x1="0" y1="0" x2="1" y2="0" gradientUnits="userSpaceOnUse" gradientTransform="matrix(-1.32841e-13,826.065,-826.065,-1.32841e-13,755.05,0)"><stop offset="0" style="stop-color:rgb(230,56,70);stop-opacity:0.25"/><stop offset="1" style="stop-color:rgb(230,56,70);stop-opacity:0"/></linearGradient>
        <linearGradient id="_Linear28" x1="0" y1="0" x2="1" y2="0" gradientUnits="userSpaceOnUse" gradientTransform="matrix(-1.32841e-13,826.065,-826.065,-1.32841e-13,755.05,0)"><stop offset="0" style="stop-color:rgb(230,56,70);stop-opacity:0.25"/><stop offset="1" style="stop-color:rgb(230,56,70);stop-opacity:0"/></linearGradient>
        <linearGradient id="_Linear29" x1="0" y1="0" x2="1" y2="0" gradientUnits="userSpaceOnUse" gradientTransform="matrix(-1.32841e-13,826.065,-826.065,-1.32841e-13,755.05,0)"><stop offset="0" style="stop-color:rgb(230,56,70);stop-opacity:0.25"/><stop offset="1" style="stop-color:rgb(230,56,70);stop-opacity:0"/></linearGradient>
        <linearGradient id="_Linear30" x1="0" y1="0" x2="1" y2="0" gradientUnits="userSpaceOnUse" gradientTransform="matrix(-1.32841e-13,826.065,-826.065,-1.32841e-13,755.05,0)"><stop offset="0" style="stop-color:rgb(230,56,70);stop-opacity:0.25"/><stop offset="1" style="stop-color:rgb(230,56,70);stop-opacity:0"/></linearGradient>
        <linearGradient id="_Linear31" x1="0" y1="0" x2="1" y2="0" gradientUnits="userSpaceOnUse" gradientTransform="matrix(-1.32841e-13,826.065,-826.065,-1.32841e-13,755.05,0)"><stop offset="0" style="stop-color:rgb(230,56,70);stop-opacity:0.25"/><stop offset="1" style="stop-color:rgb(230,56,70);stop-opacity:0"/></linearGradient>
        <linearGradient id="_Linear32" x1="0" y1="0" x2="1" y2="0" gradientUnits="userSpaceOnUse" gradientTransform="matrix(-1.32841e-13,826.065,-826.065,-1.32841e-13,755.05,0)"><stop offset="0" style="stop-color:rgb(230,56,70);stop-opacity:0.25"/><stop offset="1" style="stop-color:rgb(230,56,70);stop-opacity:0"/></linearGradient>
        <linearGradient id="_Linear33" x1="0" y1="0" x2="1" y2="0" gradientUnits="userSpaceOnUse" gradientTransform="matrix(-1.32841e-13,826.065,-826.065,-1.32841e-13,755.05,0)"><stop offset="0" style="stop-color:rgb(230,56,70);stop-opacity:0.25"/><stop offset="1" style="stop-color:rgb(230,56,70);stop-opacity:0"/></linearGradient>
        <linearGradient id="_Linear34" x1="0" y1="0" x2="1" y2="0" gradientUnits="userSpaceOnUse" gradientTransform="matrix(-1.32841e-13,826.065,-826.065,-1.32841e-13,755.05,0)"><stop offset="0" style="stop-color:rgb(230,56,70);stop-opacity:0.25"/><stop offset="1" style="stop-color:rgb(230,56,70);stop-opacity:0"/></linearGradient>
        <linearGradient id="_Linear35" x1="0" y1="0" x2="1" y2="0" gradientUnits="userSpaceOnUse" gradientTransform="matrix(-1.32841e-13,826.065,-826.065,-1.32841e-13,755.05,0)"><stop offset="0" style="stop-color:rgb(230,56,70);stop-opacity:0.25"/><stop offset="1" style="stop-color:rgb(230,56,70);stop-opacity:0"/></linearGradient>
        <linearGradient id="_Linear36" x1="0" y1="0" x2="1" y2="0" gradientUnits="userSpaceOnUse" gradientTransform="matrix(-1.32841e-13,826.065,-826.065,-1.32841e-13,755.05,0)"><stop offset="0" style="stop-color:rgb(230,56,70);stop-opacity:0.25"/><stop offset="1" style="stop-color:rgb(230,56,70);stop-opacity:0"/></linearGradient>
        <linearGradient id="_Linear37" x1="0" y1="0" x2="1" y2="0" gradientUnits="userSpaceOnUse" gradientTransform="matrix(-1.32841e-13,826.065,-826.065,-1.32841e-13,755.05,0)"><stop offset="0" style="stop-color:rgb(230,56,70);stop-opacity:0.25"/><stop offset="1" style="stop-color:rgb(230,56,70);stop-opacity:0"/></linearGradient>
        <linearGradient id="_Linear38" x1="0" y1="0" x2="1" y2="0" gradientUnits="userSpaceOnUse" gradientTransform="matrix(-1.32841e-13,826.065,-826.065,-1.32841e-13,755.05,0)"><stop offset="0" style="stop-color:rgb(230,56,70);stop-opacity:0.25"/><stop offset="1" style="stop-color:rgb(230,56,70);stop-opacity:0"/></linearGradient>
        <linearGradient id="_Linear39" x1="0" y1="0" x2="1" y2="0" gradientUnits="userSpaceOnUse" gradientTransform="matrix(-1.32841e-13,826.065,-826.065,-1.32841e-13,755.05,0)"><stop offset="0" style="stop-color:rgb(230,56,70);stop-opacity:0.25"/><stop offset="1" style="stop-color:rgb(230,56,70);stop-opacity:0"/></linearGradient>
        <linearGradient id="_Linear40" x1="0" y1="0" x2="1" y2="0" gradientUnits="userSpaceOnUse" gradientTransform="matrix(-1.32841e-13,826.065,-826.065,-1.32841e-13,755.05,0)"><stop offset="0" style="stop-color:rgb(230,56,70);stop-opacity:0.25"/><stop offset="1" style="stop-color:rgb(230,56,70);stop-opacity:0"/></linearGradient>
        <linearGradient id="_Linear41" x1="0" y1="0" x2="1" y2="0" gradientUnits="userSpaceOnUse" gradientTransform="matrix(-1.32841e-13,826.065,-826.065,-1.32841e-13,755.05,0)"><stop offset="0" style="stop-color:rgb(230,56,70);stop-opacity:0.25"/><stop offset="1" style="stop-color:rgb(230,56,70);stop-opacity:0"/></linearGradient>
        <linearGradient id="_Linear42" x1="0" y1="0" x2="1" y2="0" gradientUnits="userSpaceOnUse" gradientTransform="matrix(-1.32841e-13,826.065,-826.065,-1.32841e-13,755.05,0)"><stop offset="0" style="stop-color:rgb(230,56,70);stop-opacity:0.25"/><stop offset="1" style="stop-color:rgb(230,56,70);stop-opacity:0"/></linearGradient>
        <linearGradient id="_Linear43" x1="0" y1="0" x2="1" y2="0" gradientUnits="userSpaceOnUse" gradientTransform="matrix(-1.32841e-13,826.065,-826.065,-1.32841e-13,755.05,0)"><stop offset="0" style="stop-color:rgb(230,56,70);stop-opacity:0.25"/><stop offset="1" style="stop-color:rgb(230,56,70);stop-opacity:0"/></linearGradient>
        <linearGradient id="_Linear44" x1="0" y1="0" x2="1" y2="0" gradientUnits="userSpaceOnUse" gradientTransform="matrix(-1.32841e-13,826.065,-826.065,-1.32841e-13,755.05,0)"><stop offset="0" style="stop-color:rgb(230,56,70);stop-opacity:0.25"/><stop offset="1" style="stop-color:rgb(230,56,70);stop-opacity:0"/></linearGradient>
        <linearGradient id="_Linear45" x1="0" y1="0" x2="1" y2="0" gradientUnits="userSpaceOnUse" gradientTransform="matrix(-1.32841e-13,826.065,-826.065,-1.32841e-13,755.05,0)"><stop offset="0" style="stop-color:rgb(230,56,70);stop-opacity:0.25"/><stop offset="1" style="stop-color:rgb(230,56,70);stop-opacity:0"/></linearGradient>
        <linearGradient id="_Linear46" x1="0" y1="0" x2="1" y2="0" gradientUnits="userSpaceOnUse" gradientTransform="matrix(-1.32841e-13,826.065,-826.065,-1.32841e-13,755.05,0)"><stop offset="0" style="stop-color:rgb(230,56,70);stop-opacity:0.25"/><stop offset="1" style="stop-color:rgb(230,56,70);stop-opacity:0"/></linearGradient>
        <linearGradient id="_Linear47" x1="0" y1="0" x2="1" y2="0" gradientUnits="userSpaceOnUse" gradientTransform="matrix(-1.32841e-13,826.065,-826.065,-1.32841e-13,755.05,0)"><stop offset="0" style="stop-color:rgb(230,56,70);stop-opacity:0.25"/><stop offset="1" style="stop-color:rgb(230,56,70);stop-opacity:0"/></linearGradient>
        <linearGradient id="_Linear48" x1="0" y1="0" x2="1" y2="0" gradientUnits="userSpaceOnUse" gradientTransform="matrix(-1.32841e-13,826.065,-826.065,-1.32841e-13,755.05,0)"><stop offset="0" style="stop-color:rgb(230,56,70);stop-opacity:0.25"/><stop offset="1" style="stop-color:rgb(230,56,70);stop-opacity:0"/></linearGradient>
        <linearGradient id="_Linear49" x1="0" y1="0" x2="1" y2="0" gradientUnits="userSpaceOnUse" gradientTransform="matrix(-1.32841e-13,826.065,-826.065,-1.32841e-13,755.05,0)"><stop offset="0" style="stop-color:rgb(230,56,70);stop-opacity:0.25"/><stop offset="1" style="stop-color:rgb(230,56,70);stop-opacity:0"/></linearGradient>
        <linearGradient id="_Linear50" x1="0" y1="0" x2="1" y2="0" gradientUnits="userSpaceOnUse" gradientTransform="matrix(-1.32841e-13,826.065,-826.065,-1.32841e-13,755.05,0)"><stop offset="0" style="stop-color:rgb(230,56,70);stop-opacity:0.25"/><stop offset="1" style="stop-color:rgb(230,56,70);stop-opacity:0"/></linearGradient>
        <linearGradient id="_Linear51" x1="0" y1="0" x2="1" y2="0" gradientUnits="userSpaceOnUse" gradientTransform="matrix(-1.32841e-13,826.065,-826.065,-1.32841e-13,755.05,0)"><stop offset="0" style="stop-color:rgb(230,56,70);stop-opacity:0.25"/><stop offset="1" style="stop-color:rgb(230,56,70);stop-opacity:0"/></linearGradient>
        <linearGradient id="_Linear52" x1="0" y1="0" x2="1" y2="0" gradientUnits="userSpaceOnUse" gradientTransform="matrix(-1.32841e-13,826.065,-826.065,-1.32841e-13,755.05,0)"><stop offset="0" style="stop-color:rgb(230,56,70);stop-opacity:0.25"/><stop offset="1" style="stop-color:rgb(230,56,70);stop-opacity:0"/></linearGradient>
        <linearGradient id="_Linear53" x1="0" y1="0" x2="1" y2="0" gradientUnits="userSpaceOnUse" gradientTransform="matrix(-1.32841e-13,826.065,-826.065,-1.32841e-13,755.05,0)"><stop offset="0" style="stop-color:rgb(230,56,70);stop-opacity:0.25"/><stop offset="1" style="stop-color:rgb(230,56,70);stop-opacity:0"/></linearGradient>
        <linearGradient id="_Linear54" x1="0" y1="0" x2="1" y2="0" gradientUnits="userSpaceOnUse" gradientTransform="matrix(-1.32841e-13,826.065,-826.065,-1.32841e-13,755.05,0)"><stop offset="0" style="stop-color:rgb(230,56,70);stop-opacity:0.25"/><stop offset="1" style="stop-color:rgb(230,56,70);stop-opacity:0"/></linearGradient>
        <linearGradient id="_Linear55" x1="0" y1="0" x2="1" y2="0" gradientUnits="userSpaceOnUse" gradientTransform="matrix(-1.32841e-13,826.065,-826.065,-1.32841e-13,755.05,0)"><stop offset="0" style="stop-color:rgb(230,56,70);stop-opacity:0.25"/><stop offset="1" style="stop-color:rgb(230,56,70);stop-opacity:0"/></linearGradient>
        <linearGradient id="_Linear56" x1="0" y1="0" x2="1" y2="0" gradientUnits="userSpaceOnUse" gradientTransform="matrix(-1.32841e-13,826.065,-826.065,-1.32841e-13,755.05,0)"><stop offset="0" style="stop-color:rgb(230,56,70);stop-opacity:0.25"/><stop offset="1" style="stop-color:rgb(230,56,70);stop-opacity:0"/></linearGradient>
        <linearGradient id="_Linear57" x1="0" y1="0" x2="1" y2="0" gradientUnits="userSpaceOnUse" gradientTransform="matrix(-1.32841e-13,826.065,-826.065,-1.32841e-13,755.05,0)"><stop offset="0" style="stop-color:rgb(230,56,70);stop-opacity:0.25"/><stop offset="1" style="stop-color:rgb(230,56,70);stop-opacity:0"/></linearGradient>
        <linearGradient id="_Linear58" x1="0" y1="0" x2="1" y2="0" gradientUnits="userSpaceOnUse" gradientTransform="matrix(-1.32841e-13,826.065,-826.065,-1.32841e-13,755.05,0)"><stop offset="0" style="stop-color:rgb(230,56,70);stop-opacity:0.25"/><stop offset="1" style="stop-color:rgb(230,56,70);stop-opacity:0"/></linearGradient>
    </defs>
</svg>
