<?xml version="1.0" encoding="UTF-8" standalone="no"?>
<!DOCTYPE svg PUBLIC "-//W3C//DTD SVG 1.1//EN" "http://www.w3.org/Graphics/SVG/1.1/DTD/svg11.dtd">
<svg width="100%" height="100%" viewBox="0 0 2000 500" version="1.1" xmlns="http://www.w3.org/2000/svg" xmlns:xlink="http://www.w3.org/1999/xlink" xml:space="preserve" xmlns:serif="http://www.serif.com/" style="fill-rule:evenodd;clip-rule:evenodd;stroke-linecap:round;stroke-miterlimit:1.5;">
    <g opacity="0.33">
        <g transform="matrix(1,0,0,0.957078,0,209.236)">
            <path d="M0,25L2000,25" style="fill:none;stroke:url(#_Linear1);stroke-width:9.2px;"/>
        </g>
        <g transform="matrix(1,0,0,0.957078,0,-26.4777)">
            <path d="M0,25L2000,25" style="fill:none;stroke:url(#_Linear2);stroke-width:9.2px;"/>
        </g>
        <g transform="matrix(1,0,0,0.957078,0,141.889)">
            <path d="M0,25L2000,25" style="fill:none;stroke:url(#_Linear3);stroke-width:9.2px;"/>
        </g>
        <g transform="matrix(1,0,0,0.957078,0,310.257)">
            <path d="M0,25L2000,25" style="fill:none;stroke:url(#_Linear4);stroke-width:9.2px;"/>
        </g>
        <g transform="matrix(1,0,0,0.957078,0,7.19573)">
            <path d="M0,25L2000,25" style="fill:none;stroke:url(#_Linear5);stroke-width:9.2px;"/>
        </g>
        <g transform="matrix(1,0,0,0.957078,0,175.563)">
            <path d="M0,25L2000,25" style="fill:none;stroke:url(#_Linear6);stroke-width:9.2px;"/>
        </g>
        <g transform="matrix(1,0,0,0.957078,0,343.93)">
            <path d="M0,25L2000,25" style="fill:none;stroke:url(#_Linear7);stroke-width:9.2px;"/>
        </g>
        <g transform="matrix(1,0,0,0.957078,0,40.8692)">
            <path d="M0,25L2000,25" style="fill:none;stroke:url(#_Linear8);stroke-width:9.2px;"/>
        </g>
        <g transform="matrix(1,0,0,0.957078,0,377.604)">
            <path d="M0,25L2000,25" style="fill:none;stroke:url(#_Linear9);stroke-width:9.2px;"/>
        </g>
        <g transform="matrix(1,0,0,0.957078,0,74.5426)">
            <path d="M0,25L2000,25" style="fill:none;stroke:url(#_Linear10);stroke-width:9.2px;"/>
        </g>
        <g transform="matrix(1,0,0,0.957078,0,242.91)">
            <path d="M0,25L2000,25" style="fill:none;stroke:url(#_Linear11);stroke-width:9.2px;"/>
        </g>
        <g transform="matrix(1,0,0,0.957078,0,411.277)">
            <path d="M0,25L2000,25" style="fill:none;stroke:url(#_Linear12);stroke-width:9.2px;"/>
        </g>
        <g transform="matrix(1,0,0,0.957078,0,108.216)">
            <path d="M0,25L2000,25" style="fill:none;stroke:url(#_Linear13);stroke-width:9.2px;"/>
        </g>
        <g transform="matrix(1,0,0,0.957078,0,276.583)">
            <path d="M0,25L2000,25" style="fill:none;stroke:url(#_Linear14);stroke-width:9.2px;"/>
        </g>
        <g transform="matrix(1,0,0,0.957078,0,444.95)">
            <path d="M0,25L2000,25" style="fill:none;stroke:url(#_Linear15);stroke-width:9.2px;"/>
        </g>
        <g transform="matrix(1,0,0,0.957078,0,478.624)">
            <path d="M0,25L2000,25" style="fill:none;stroke:url(#_Linear16);stroke-width:9.2px;"/>
        </g>
    </g>
    <g transform="matrix(8.52734,-1.52818,1.52818,8.52734,-2647.31,-1111.44)">
        <path d="M456.978,233.476L456.978,224.433L443.825,224.433L443.825,211.279L434.782,211.279L434.782,224.433L421.628,224.433L421.628,233.476L434.782,233.476L434.782,246.629L443.825,246.629L443.825,233.476L456.978,233.476ZM406.419,255.261L421.628,255.261L401.897,228.954L421.628,202.647L406.419,202.647L391.21,222.377L391.21,202.647L378.056,202.647L378.056,255.261L391.21,255.261L391.21,235.531L406.419,255.261ZM364.903,224.433L364.903,211.279C364.903,208.813 364.012,206.757 362.231,205.113C360.45,203.469 358.326,202.647 355.86,202.647L325.442,202.647L325.442,215.8L351.749,215.8L351.749,224.433L334.074,224.433C331.607,224.433 329.552,225.323 327.908,227.104C326.264,228.886 325.442,231.009 325.442,233.476L325.442,255.261L364.903,255.261L364.903,242.108L338.595,242.108L338.595,233.476L355.86,233.476C358.326,233.476 360.45,232.585 362.231,230.804C364.012,229.023 364.903,226.899 364.903,224.433ZM447.935,150.032C452.594,150.032 456.704,151.813 460.267,155.376C463.829,158.938 465.611,163.049 465.611,167.707L465.611,290.201C465.611,294.86 463.829,298.97 460.267,302.533C456.704,306.095 452.594,307.876 447.935,307.876L325.442,307.876C320.783,307.876 316.672,306.095 313.11,302.533C309.548,298.97 307.766,294.86 307.766,290.201L307.766,167.707C307.766,163.049 309.548,158.938 313.11,155.376C316.672,151.813 320.783,150.032 325.442,150.032L447.935,150.032Z" style="fill:rgb(34,34,34);fill-rule:nonzero;"/>
        <path d="M447.935,149.455L447.935,149.455C447.935,149.455 325.442,149.455 325.442,149.455C320.63,149.455 316.381,151.288 312.702,154.968C309.022,158.647 307.189,162.896 307.189,167.707C307.189,167.707 307.189,290.201 307.189,290.201C307.189,295.013 309.022,299.261 312.702,302.941C316.381,306.62 320.63,308.453 325.442,308.453L447.935,308.453C452.747,308.453 456.995,306.62 460.675,302.941C464.355,299.261 466.188,295.013 466.188,290.201C466.188,290.201 466.188,167.707 466.188,167.707C466.188,162.896 464.355,158.647 460.675,154.968C456.995,151.288 452.747,149.455 447.935,149.455ZM447.935,150.032C452.594,150.032 456.704,151.813 460.267,155.376C463.829,158.938 465.611,163.049 465.611,167.707L465.611,290.201C465.611,294.86 463.829,298.97 460.267,302.533C456.704,306.095 452.594,307.876 447.935,307.876L325.442,307.876C320.783,307.876 316.672,306.095 313.11,302.533C309.548,298.97 307.766,294.86 307.766,290.201L307.766,167.707C307.766,163.049 309.548,158.938 313.11,155.376C316.672,151.813 320.783,150.032 325.442,150.032L447.935,150.032ZM364.903,224.433L364.903,211.279C364.903,208.813 364.012,206.757 362.231,205.113C360.45,203.469 358.326,202.647 355.86,202.647L325.442,202.647L325.442,215.8L351.749,215.8L351.749,224.433L334.074,224.433C331.607,224.433 329.552,225.323 327.908,227.104C326.264,228.886 325.442,231.009 325.442,233.476L325.442,255.261L364.903,255.261L364.903,242.108L338.595,242.108L338.595,233.476L355.86,233.476C358.326,233.476 360.45,232.585 362.231,230.804C364.012,229.023 364.903,226.899 364.903,224.433ZM364.326,224.433C364.326,226.741 363.49,228.728 361.823,230.396C360.155,232.063 358.168,232.899 355.86,232.899C355.86,232.899 338.018,232.899 338.018,232.899L338.018,242.685L364.326,242.685C364.326,242.685 364.326,254.684 364.326,254.684C364.326,254.684 330.846,254.684 326.019,254.684C326.019,254.684 326.019,233.476 326.019,233.476C326.019,231.161 326.789,229.167 328.332,227.496C329.863,225.837 331.777,225.01 334.074,225.01C334.074,225.01 352.326,225.01 352.326,225.01L352.326,215.223L326.019,215.223C326.019,215.223 326.019,203.224 326.019,203.224C326.019,203.224 355.86,203.224 355.86,203.224C358.174,203.224 360.168,203.994 361.839,205.537C363.498,207.068 364.326,208.982 364.326,211.279L364.326,224.433ZM406.419,255.261L421.628,255.261L401.897,228.954L421.628,202.647L406.419,202.647L391.21,222.377L391.21,202.647L378.056,202.647L378.056,255.261L391.21,255.261L391.21,235.531L406.419,255.261ZM406.703,254.684L391.667,235.179L390.633,235.531L390.633,254.684C390.633,254.684 378.634,254.684 378.634,254.684C378.634,254.684 378.634,208.909 378.634,203.224C378.634,203.224 390.633,203.224 390.633,203.224C390.633,203.224 390.633,222.377 390.633,222.377L391.667,222.73C391.667,222.73 405.021,205.405 406.703,203.224C406.703,203.224 420.474,203.224 420.474,203.224C420.474,203.224 401.176,228.954 401.176,228.954L420.474,254.684L406.703,254.684ZM456.978,233.476L456.978,224.433L443.825,224.433L443.825,211.279L434.782,211.279L434.782,224.433L421.628,224.433L421.628,233.476L434.782,233.476L434.782,246.629L443.825,246.629L443.825,233.476L456.978,233.476ZM456.401,232.899L443.248,232.899L443.248,246.052C443.248,246.052 435.359,246.052 435.359,246.052C435.359,246.052 435.359,232.899 435.359,232.899L422.205,232.899C422.205,232.899 422.205,225.01 422.205,225.01C422.205,225.01 435.359,225.01 435.359,225.01L435.359,211.856C435.359,211.856 443.248,211.856 443.248,211.856C443.248,211.856 443.248,225.01 443.248,225.01L456.401,225.01C456.401,225.01 456.401,232.899 456.401,232.899Z" style="fill:url(#_Linear17);"/>
    </g>
    <g transform="matrix(1,0,0,1,100.158,-1.13687e-13)">
        <path d="M104.673,283.673L172.02,283.673L172.02,334.184L205.694,334.184L205.694,186.02C205.694,174.866 196.644,165.816 185.49,165.816L91.204,165.816C80.05,165.816 71,174.866 71,186.02L71,334.184L104.673,334.184L104.673,283.673ZM172.02,250L104.673,250L104.673,199.49L172.02,199.49L172.02,250Z" style="fill:rgb(235,235,235);fill-rule:nonzero;"/>
        <path d="M273.041,300.51L273.041,165.816L239.367,165.816L239.367,334.184L357.224,334.184L357.224,300.51L273.041,300.51Z" style="fill:rgb(235,235,235);fill-rule:nonzero;"/>
        <path d="M340.387,199.49L390.898,199.49L390.898,334.184L424.571,334.184L424.571,199.49L475.081,199.49L475.081,165.816L340.387,165.816L340.387,199.49Z" style="fill:rgb(235,235,235);fill-rule:nonzero;"/>
        <path d="M542.428,300.51L542.428,266.837L609.775,266.837L609.775,233.163L542.428,233.163L542.428,199.49L626.612,199.49L626.612,165.816L508.755,165.816L508.755,334.184L626.612,334.184L626.612,300.51L542.428,300.51Z" style="fill:rgb(235,235,235);fill-rule:nonzero;"/>
        <path d="M693.959,199.49L761.305,199.49L761.305,250L693.959,250L693.959,199.49ZM774.775,165.816L660.285,165.816L660.285,334.184L693.959,334.184L693.959,283.673L761.305,283.673L761.305,334.184L794.979,334.184L794.979,292.092C794.979,286.83 792.874,281.569 789.086,277.781L778.142,266.837L789.086,255.893C792.874,252.105 794.979,246.843 794.979,241.582L794.979,186.02C794.979,175.077 785.719,165.816 774.775,165.816Z" style="fill:rgb(235,235,235);fill-rule:nonzero;"/>
        <path d="M862.326,199.069C862.326,199.069 903.997,289.566 919.15,322.398C922.517,329.553 929.673,334.184 937.46,334.184L980.183,334.184L980.183,165.816L946.509,165.816L946.509,300.931C946.509,300.931 904.838,210.434 889.685,177.602C886.318,170.447 879.162,165.816 871.375,165.816L828.652,165.816L828.652,334.184L862.326,334.184L862.326,199.069Z" style="fill:rgb(235,235,235);fill-rule:nonzero;"/>
        <path d="M1047.53,283.673L1114.88,283.673L1114.88,334.184L1148.55,334.184L1148.55,186.02C1148.55,174.866 1139.5,165.816 1128.35,165.816L1034.06,165.816C1022.91,165.816 1013.86,174.866 1013.86,186.02L1013.86,334.184L1047.53,334.184L1047.53,283.673ZM1114.88,250L1047.53,250L1047.53,199.49L1114.88,199.49L1114.88,250Z" style="fill:rgb(235,235,235);fill-rule:nonzero;"/>
        <path d="M1182.22,199.49L1232.73,199.49L1232.73,334.184L1266.41,334.184L1266.41,199.49L1316.92,199.49L1316.92,165.816L1182.22,165.816L1182.22,199.49Z" style="fill:rgb(235,235,235);fill-rule:nonzero;"/>
        <path d="M1451.61,300.51L1417.94,300.51L1417.94,199.49L1451.61,199.49L1451.61,165.816L1350.59,165.816L1350.59,199.49L1384.26,199.49L1384.26,300.51L1350.59,300.51L1350.59,334.184L1451.61,334.184L1451.61,300.51Z" style="fill:rgb(235,235,235);fill-rule:nonzero;"/>
        <path d="M1551.16,334.184L1587.78,334.184L1653.65,165.816L1618.72,165.816L1569.47,291.46L1520.22,165.816L1485.28,165.816L1551.16,334.184Z" style="fill:rgb(235,235,235);fill-rule:nonzero;"/>
        <path d="M1721,300.51L1721,266.837L1788.35,266.837L1788.35,233.163L1721,233.163L1721,199.49L1805.18,199.49L1805.18,165.816L1687.33,165.816L1687.33,334.184L1805.18,334.184L1805.18,300.51L1721,300.51Z" style="fill:rgb(235,235,235);fill-rule:nonzero;"/>
    </g>
    <g transform="matrix(1.57006e-17,-0.25641,0.25641,1.57006e-17,52.1431,352.389)">
        <path d="M239.367,334.184L239.367,165.816L197.907,165.816C189.278,165.816 181.491,171.499 178.755,179.707C170.758,203.489 155.394,249.79 155.394,249.79C155.394,249.79 140.031,203.489 132.244,179.707C129.508,171.499 121.51,165.816 112.881,165.816L71,165.816L71,334.184L104.673,334.184L104.673,198.438L138.347,300.51L172.02,300.51L205.694,199.911L205.694,334.184L239.367,334.184Z" style="fill:rgb(235,235,235);fill-rule:nonzero;"/>
        <path d="M374.061,300.51L340.387,300.51L340.387,199.49L374.061,199.49L374.061,165.816L273.041,165.816L273.041,199.49L306.714,199.49L306.714,300.51L273.041,300.51L273.041,334.184L374.061,334.184L374.061,300.51Z" style="fill:rgb(235,235,235);fill-rule:nonzero;"/>
        <path d="M441.408,199.069C441.408,199.069 483.079,289.566 498.232,322.398C501.599,329.553 508.755,334.184 516.542,334.184L559.265,334.184L559.265,165.816L525.591,165.816L525.591,300.931C525.591,300.931 483.92,210.434 468.767,177.602C465.4,170.447 458.245,165.816 450.458,165.816L407.734,165.816L407.734,334.184L441.408,334.184L441.408,199.069Z" style="fill:rgb(235,235,235);fill-rule:nonzero;"/>
        <path d="M592.938,199.49L643.448,199.49L643.448,334.184L677.122,334.184L677.122,199.49L727.632,199.49L727.632,165.816L592.938,165.816L592.938,199.49Z" style="fill:rgb(235,235,235);fill-rule:nonzero;"/>
    </g>
    <defs>
        <linearGradient id="_Linear1" x1="0" y1="0" x2="1" y2="0" gradientUnits="userSpaceOnUse" gradientTransform="matrix(3.06162e-14,522.423,-500,3.19892e-14,1000,-218.62)"><stop offset="0" style="stop-color:rgb(187,187,187);stop-opacity:0.33"/><stop offset="1" style="stop-color:rgb(124,124,124);stop-opacity:0"/></linearGradient>
        <linearGradient id="_Linear2" x1="0" y1="0" x2="1" y2="0" gradientUnits="userSpaceOnUse" gradientTransform="matrix(3.06162e-14,522.423,-500,3.19892e-14,1000,27.6652)"><stop offset="0" style="stop-color:rgb(187,187,187);stop-opacity:0.33"/><stop offset="1" style="stop-color:rgb(124,124,124);stop-opacity:0"/></linearGradient>
        <linearGradient id="_Linear3" x1="0" y1="0" x2="1" y2="0" gradientUnits="userSpaceOnUse" gradientTransform="matrix(3.06162e-14,522.423,-500,3.19892e-14,1000,-148.253)"><stop offset="0" style="stop-color:rgb(187,187,187);stop-opacity:0.33"/><stop offset="1" style="stop-color:rgb(124,124,124);stop-opacity:0"/></linearGradient>
        <linearGradient id="_Linear4" x1="0" y1="0" x2="1" y2="0" gradientUnits="userSpaceOnUse" gradientTransform="matrix(3.06162e-14,522.423,-500,3.19892e-14,1000,-324.171)"><stop offset="0" style="stop-color:rgb(187,187,187);stop-opacity:0.33"/><stop offset="1" style="stop-color:rgb(124,124,124);stop-opacity:0"/></linearGradient>
        <linearGradient id="_Linear5" x1="0" y1="0" x2="1" y2="0" gradientUnits="userSpaceOnUse" gradientTransform="matrix(3.06162e-14,522.423,-500,3.19892e-14,1000,-7.51843)"><stop offset="0" style="stop-color:rgb(187,187,187);stop-opacity:0.33"/><stop offset="1" style="stop-color:rgb(124,124,124);stop-opacity:0"/></linearGradient>
        <linearGradient id="_Linear6" x1="0" y1="0" x2="1" y2="0" gradientUnits="userSpaceOnUse" gradientTransform="matrix(3.06162e-14,522.423,-500,3.19892e-14,1000,-183.436)"><stop offset="0" style="stop-color:rgb(187,187,187);stop-opacity:0.33"/><stop offset="1" style="stop-color:rgb(124,124,124);stop-opacity:0"/></linearGradient>
        <linearGradient id="_Linear7" x1="0" y1="0" x2="1" y2="0" gradientUnits="userSpaceOnUse" gradientTransform="matrix(3.06162e-14,522.423,-500,3.19892e-14,1000,-359.354)"><stop offset="0" style="stop-color:rgb(187,187,187);stop-opacity:0.33"/><stop offset="1" style="stop-color:rgb(124,124,124);stop-opacity:0"/></linearGradient>
        <linearGradient id="_Linear8" x1="0" y1="0" x2="1" y2="0" gradientUnits="userSpaceOnUse" gradientTransform="matrix(3.06162e-14,522.423,-500,3.19892e-14,1000,-42.702)"><stop offset="0" style="stop-color:rgb(187,187,187);stop-opacity:0.33"/><stop offset="1" style="stop-color:rgb(124,124,124);stop-opacity:0"/></linearGradient>
        <linearGradient id="_Linear9" x1="0" y1="0" x2="1" y2="0" gradientUnits="userSpaceOnUse" gradientTransform="matrix(3.06162e-14,522.423,-500,3.19892e-14,1000,-394.538)"><stop offset="0" style="stop-color:rgb(187,187,187);stop-opacity:0.33"/><stop offset="1" style="stop-color:rgb(124,124,124);stop-opacity:0"/></linearGradient>
        <linearGradient id="_Linear10" x1="0" y1="0" x2="1" y2="0" gradientUnits="userSpaceOnUse" gradientTransform="matrix(3.06162e-14,522.423,-500,3.19892e-14,1000,-77.8856)"><stop offset="0" style="stop-color:rgb(187,187,187);stop-opacity:0.33"/><stop offset="1" style="stop-color:rgb(124,124,124);stop-opacity:0"/></linearGradient>
        <linearGradient id="_Linear11" x1="0" y1="0" x2="1" y2="0" gradientUnits="userSpaceOnUse" gradientTransform="matrix(3.06162e-14,522.423,-500,3.19892e-14,1000,-253.804)"><stop offset="0" style="stop-color:rgb(187,187,187);stop-opacity:0.33"/><stop offset="1" style="stop-color:rgb(124,124,124);stop-opacity:0"/></linearGradient>
        <linearGradient id="_Linear12" x1="0" y1="0" x2="1" y2="0" gradientUnits="userSpaceOnUse" gradientTransform="matrix(3.06162e-14,522.423,-500,3.19892e-14,1000,-429.721)"><stop offset="0" style="stop-color:rgb(187,187,187);stop-opacity:0.33"/><stop offset="1" style="stop-color:rgb(124,124,124);stop-opacity:0"/></linearGradient>
        <linearGradient id="_Linear13" x1="0" y1="0" x2="1" y2="0" gradientUnits="userSpaceOnUse" gradientTransform="matrix(3.06162e-14,522.423,-500,3.19892e-14,1000,-113.069)"><stop offset="0" style="stop-color:rgb(187,187,187);stop-opacity:0.33"/><stop offset="1" style="stop-color:rgb(124,124,124);stop-opacity:0"/></linearGradient>
        <linearGradient id="_Linear14" x1="0" y1="0" x2="1" y2="0" gradientUnits="userSpaceOnUse" gradientTransform="matrix(3.06162e-14,522.423,-500,3.19892e-14,1000,-288.987)"><stop offset="0" style="stop-color:rgb(187,187,187);stop-opacity:0.33"/><stop offset="1" style="stop-color:rgb(124,124,124);stop-opacity:0"/></linearGradient>
        <linearGradient id="_Linear15" x1="0" y1="0" x2="1" y2="0" gradientUnits="userSpaceOnUse" gradientTransform="matrix(3.06162e-14,522.423,-500,3.19892e-14,1000,-464.905)"><stop offset="0" style="stop-color:rgb(187,187,187);stop-opacity:0.33"/><stop offset="1" style="stop-color:rgb(124,124,124);stop-opacity:0"/></linearGradient>
        <linearGradient id="_Linear16" x1="0" y1="0" x2="1" y2="0" gradientUnits="userSpaceOnUse" gradientTransform="matrix(3.06162e-14,522.423,-500,3.19892e-14,1000,-500.089)"><stop offset="0" style="stop-color:rgb(187,187,187);stop-opacity:0.33"/><stop offset="1" style="stop-color:rgb(124,124,124);stop-opacity:0"/></linearGradient>
        <linearGradient id="_Linear17" x1="0" y1="0" x2="1" y2="0" gradientUnits="userSpaceOnUse" gradientTransform="matrix(-10.2849,57.3901,-57.3901,-10.2849,391.831,200.259)"><stop offset="0" style="stop-color:rgb(255,51,68);stop-opacity:1"/><stop offset="1" style="stop-color:rgb(255,51,68);stop-opacity:0"/></linearGradient>
    </defs>
</svg>
