<?xml version="1.0" encoding="UTF-8" standalone="no"?>
<!DOCTYPE svg PUBLIC "-//W3C//DTD SVG 1.1//EN" "http://www.w3.org/Graphics/SVG/1.1/DTD/svg11.dtd">
<svg width="100%" height="100%" viewBox="0 0 900 300" version="1.1" xmlns="http://www.w3.org/2000/svg" xmlns:xlink="http://www.w3.org/1999/xlink" xml:space="preserve" xmlns:serif="http://www.serif.com/" style="fill-rule:evenodd;clip-rule:evenodd;stroke-linejoin:round;stroke-miterlimit:2;">
    <g opacity="0.25">
        <path d="M560.743,166.783L900,239.983L900,299.216L430.067,197.82L560.743,166.783ZM390.686,130.09L260.01,161.127L0,105.026L0,45.793L390.686,130.09Z" style="fill:url(#_Linear1);"/>
        <path d="M858.803,276.474C856.667,276.013 854.86,275.239 853.382,274.151C851.904,273.062 850.841,271.73 850.194,270.153C849.547,268.577 849.423,266.801 849.82,264.825L855.437,266.037C855.199,267.408 855.445,268.659 856.174,269.789C856.902,270.918 858.085,271.66 859.722,272.013C861.136,272.318 862.333,272.221 863.312,271.721C864.291,271.221 864.903,270.402 865.148,269.265C865.406,268.072 865.239,267.063 864.647,266.239C864.056,265.415 863.195,264.663 862.064,263.983C860.933,263.304 859.725,262.579 858.44,261.808C856.361,260.546 854.863,259.178 853.947,257.703C853.032,256.228 852.793,254.478 853.229,252.453C853.573,250.727 854.301,249.338 855.413,248.287C856.526,247.235 857.89,246.528 859.507,246.165C861.124,245.803 862.889,245.828 864.803,246.241C866.745,246.66 868.383,247.376 869.718,248.39C871.052,249.404 872.008,250.626 872.585,252.057C873.161,253.488 873.292,255.069 872.976,256.801L867.276,255.571C867.469,254.539 867.27,253.545 866.678,252.59C866.086,251.634 865.11,251.01 863.751,250.717C862.591,250.438 861.552,250.511 860.633,250.937C859.714,251.363 859.131,252.144 858.886,253.282C858.677,254.253 858.816,255.088 859.303,255.789C859.791,256.489 860.52,257.147 861.49,257.763C862.46,258.379 863.577,259.055 864.841,259.792C866.175,260.603 867.367,261.47 868.417,262.393C869.466,263.316 870.233,264.403 870.718,265.654C871.202,266.906 871.259,268.391 870.888,270.111C870.559,271.637 869.865,272.968 868.807,274.104C867.749,275.24 866.372,276.039 864.676,276.5C862.98,276.962 861.022,276.953 858.803,276.474ZM900,269.904L900,274.564L885.246,271.38L886.207,266.928L900,269.904ZM833.962,271.114C831.826,270.654 830.019,269.879 828.541,268.791C827.062,267.703 826,266.37 825.353,264.793C824.706,263.217 824.581,261.441 824.979,259.465L830.596,260.677C830.358,262.049 830.604,263.299 831.332,264.429C832.061,265.559 833.244,266.3 834.881,266.653C836.295,266.958 837.492,266.861 838.471,266.361C839.45,265.861 840.062,265.042 840.307,263.905C840.565,262.712 840.398,261.703 839.806,260.879C839.215,260.055 838.354,259.303 837.223,258.623C836.092,257.944 834.884,257.219 833.599,256.448C831.519,255.186 830.022,253.818 829.106,252.343C828.191,250.868 827.951,249.118 828.388,247.093C828.732,245.367 829.46,243.979 830.572,242.927C831.684,241.875 833.049,241.168 834.666,240.805C836.283,240.443 838.048,240.468 839.962,240.881C841.904,241.3 843.542,242.016 844.877,243.03C846.211,244.044 847.167,245.266 847.743,246.697C848.32,248.128 848.451,249.709 848.135,251.441L842.435,250.211C842.628,249.179 842.429,248.185 841.837,247.23C841.244,246.275 840.269,245.65 838.909,245.357C837.75,245.078 836.711,245.151 835.792,245.577C834.873,246.003 834.29,246.785 834.045,247.922C833.835,248.893 833.974,249.728 834.462,250.429C834.95,251.129 835.679,251.787 836.649,252.403C837.619,253.019 838.736,253.695 840,254.432C841.334,255.243 842.526,256.11 843.575,257.033C844.625,257.956 845.392,259.043 845.876,260.295C846.361,261.546 846.418,263.032 846.047,264.751C845.718,266.277 845.024,267.608 843.966,268.744C842.908,269.88 841.531,270.679 839.835,271.141C838.138,271.602 836.181,271.593 833.962,271.114ZM804.751,264.812C801.839,264.183 799.431,262.996 797.529,261.25C795.627,259.504 794.302,257.368 793.556,254.841C792.809,252.314 792.756,249.566 793.396,246.598C794.037,243.63 795.218,241.148 796.94,239.154C798.663,237.159 800.75,235.759 803.203,234.953C805.656,234.147 808.339,234.058 811.251,234.686C814.136,235.309 816.537,236.494 818.453,238.243C820.369,239.992 821.694,242.129 822.426,244.653C823.159,247.177 823.205,249.923 822.565,252.891C821.924,255.86 820.75,258.342 819.042,260.34C817.333,262.337 815.246,263.738 812.779,264.541C810.312,265.344 807.636,265.434 804.751,264.812ZM765.288,255.774L771.573,226.648L782.266,228.955C784.597,229.458 786.432,230.267 787.774,231.384C789.115,232.501 790.015,233.813 790.473,235.32C790.932,236.827 790.985,238.399 790.632,240.035C790.249,241.811 789.434,243.333 788.187,244.603C786.941,245.873 785.261,246.628 783.148,246.869L786.551,260.362L780.434,259.042L777.503,246.391L773.092,245.439L770.614,256.924L765.288,255.774ZM805.784,260.027C808.558,260.625 810.968,260.187 813.013,258.712C815.059,257.238 816.426,254.905 817.114,251.715C817.802,248.525 817.519,245.837 816.263,243.65C815.008,241.463 812.993,240.07 810.219,239.471C807.445,238.873 805.028,239.309 802.969,240.781C800.909,242.253 799.536,244.584 798.847,247.774C798.159,250.964 798.449,253.654 799.719,255.844C800.988,258.034 803.01,259.428 805.784,260.027ZM747.704,252.503C744.764,251.869 742.376,250.693 740.54,248.976C738.704,247.259 737.461,245.147 736.812,242.641C736.162,240.135 736.158,237.397 736.798,234.429C737.438,231.461 738.573,228.962 740.201,226.933C741.829,224.904 743.835,223.479 746.218,222.657C748.602,221.836 751.264,221.743 754.204,222.377C757.7,223.132 760.377,224.616 762.236,226.832C764.095,229.048 764.963,231.783 764.842,235.037L758.975,233.771C758.955,232.112 758.453,230.704 757.469,229.549C756.485,228.393 755.021,227.605 753.08,227.186C750.389,226.606 748.083,227.066 746.162,228.568C744.242,230.069 742.937,232.415 742.249,235.605C741.561,238.795 741.783,241.464 742.917,243.61C744.05,245.756 745.963,247.119 748.653,247.7C750.595,248.119 752.247,248.033 753.608,247.441C754.97,246.849 755.993,245.843 756.676,244.423L762.543,245.689C761.342,248.565 759.443,250.608 756.844,251.819C754.246,253.029 751.199,253.257 747.704,252.503ZM706.909,243.178L712.269,218.337L703.781,216.506L704.706,212.22L727.05,217.041L726.125,221.327L717.595,219.486L712.236,244.327L706.909,243.178ZM773.936,241.528L778.971,242.614C780.746,242.997 782.143,242.849 783.161,242.168C784.178,241.488 784.84,240.44 785.145,239.026C785.444,237.639 785.275,236.441 784.636,235.432C783.997,234.423 782.762,233.721 780.931,233.326L775.938,232.249L773.936,241.528ZM681.794,238.282C678.881,237.653 676.474,236.466 674.572,234.72C672.669,232.974 671.345,230.838 670.598,228.311C669.852,225.784 669.799,223.036 670.439,220.068C671.08,217.1 672.261,214.618 673.983,212.624C675.705,210.629 677.793,209.229 680.246,208.423C682.699,207.617 685.382,207.528 688.294,208.156C691.179,208.779 693.58,209.964 695.496,211.713C697.412,213.462 698.736,215.599 699.469,218.123C700.202,220.647 700.248,223.393 699.608,226.361C698.967,229.329 697.793,231.812 696.084,233.81C694.376,235.807 692.289,237.208 689.822,238.011C687.355,238.814 684.679,238.904 681.794,238.282ZM682.827,233.497C685.601,234.095 688.01,233.657 690.056,232.182C692.102,230.708 693.468,228.375 694.157,225.185C694.845,221.995 694.561,219.307 693.306,217.12C692.051,214.933 690.036,213.54 687.262,212.941C684.488,212.343 682.071,212.779 680.012,214.251C677.952,215.723 676.578,218.054 675.89,221.244C675.202,224.434 675.492,227.124 676.762,229.314C678.031,231.504 680.053,232.898 682.827,233.497ZM638.253,228.365L644.538,199.238L649.864,200.387L659.127,223.854L663.553,203.341L668.88,204.49L662.595,233.617L657.269,232.467L647.996,209.042L643.579,229.514L638.253,228.365ZM608.977,222.57C606.064,221.942 603.657,220.755 601.754,219.009C599.852,217.263 598.528,215.126 597.781,212.599C597.034,210.072 596.981,207.324 597.622,204.356C598.262,201.388 599.444,198.907 601.166,196.912C602.888,194.918 604.976,193.517 607.429,192.711C609.881,191.905 612.564,191.816 615.477,192.445C618.362,193.067 620.762,194.253 622.679,196.002C624.595,197.751 625.919,199.887 626.652,202.411C627.385,204.935 627.431,207.682 626.79,210.65C626.15,213.618 624.976,216.101 623.267,218.098C621.559,220.096 619.471,221.496 617.004,222.299C614.538,223.102 611.862,223.193 608.977,222.57ZM610.009,217.785C612.783,218.384 615.193,217.946 617.239,216.471C619.284,214.996 620.651,212.664 621.339,209.474C622.028,206.284 621.744,203.595 620.489,201.408C619.233,199.221 617.218,197.828 614.444,197.23C611.67,196.631 609.254,197.068 607.194,198.54C605.135,200.011 603.761,202.342 603.073,205.532C602.384,208.722 602.675,211.412 603.944,213.602C605.214,215.792 607.235,217.187 610.009,217.785ZM565.852,212.743L572.137,183.616L582.081,185.762C585.493,186.498 588.172,187.707 590.117,189.39C592.062,191.072 593.333,193.117 593.931,195.525C594.53,197.933 594.511,200.608 593.877,203.548C593.242,206.489 592.156,208.932 590.618,210.88C589.081,212.827 587.079,214.166 584.613,214.897C582.148,215.627 579.209,215.625 575.797,214.888L565.852,212.743ZM572.166,209.315L576.535,210.258C578.976,210.784 580.989,210.805 582.574,210.32C584.16,209.834 585.417,208.915 586.348,207.563C587.278,206.211 587.971,204.48 588.426,202.372C588.875,200.292 588.956,198.436 588.669,196.807C588.382,195.177 587.618,193.808 586.376,192.698C585.135,191.588 583.294,190.77 580.853,190.243L576.484,189.3L572.166,209.315ZM521.368,192.867L522.328,188.415L553.952,195.238L552.991,199.691L521.368,192.867ZM500.689,181.046L507.281,182.469L506.383,186.63L493.942,183.945L492.128,192.35L505.818,195.304L504.893,199.59L485.878,195.487L488.362,183.974L500.689,181.046ZM482.119,185.457L480.219,194.266L474.893,193.117L472.742,187.684L482.119,185.457ZM268.716,148.631L275,119.504L285.694,121.811C288.024,122.314 289.86,123.124 291.201,124.24C292.542,125.357 293.442,126.669 293.901,128.176C294.36,129.683 294.412,131.255 294.059,132.892C293.676,134.667 292.861,136.189 291.615,137.459C290.368,138.729 288.689,139.484 286.575,139.725L289.978,153.218L283.862,151.899L280.93,139.247L276.52,138.295L274.042,149.78L268.716,148.631ZM294.939,152.831L300.923,125.097L306.249,126.246L300.814,151.436L294.939,152.831ZM307.057,149.953L311.908,127.467L318.233,128.832L322.73,146.23L317.861,147.387L315.286,137.646L312.932,148.558L307.057,149.953ZM251.132,145.359C248.191,144.725 245.803,143.549 243.967,141.832C242.131,140.115 240.889,138.003 240.239,135.497C239.59,132.991 239.585,130.254 240.225,127.285C240.866,124.317 242,121.819 243.628,119.789C245.256,117.76 247.262,116.335 249.646,115.514C252.029,114.693 254.691,114.599 257.632,115.234C261.127,115.988 263.804,117.473 265.663,119.688C267.522,121.904 268.391,124.639 268.269,127.893L262.402,126.627C262.383,124.968 261.881,123.561 260.897,122.405C259.912,121.249 258.449,120.461 256.507,120.042C253.816,119.462 251.511,119.922 249.59,121.424C247.669,122.926 246.365,125.271 245.676,128.462C244.988,131.652 245.211,134.32 246.344,136.466C247.478,138.612 249.39,139.975 252.081,140.556C254.023,140.975 255.674,140.889 257.036,140.297C258.397,139.705 259.42,138.699 260.104,137.279L265.971,138.545C264.77,141.421 262.87,143.465 260.272,144.675C257.674,145.885 254.627,146.113 251.132,145.359ZM326.735,145.279L336.666,132.809L342.991,134.174L341.343,141.81L335.468,143.205L335.717,142.054L334.614,143.408L326.735,145.279ZM358.973,137.622L347.586,140.327L348.65,135.395L358.973,137.622ZM277.364,134.384L282.398,135.47C284.174,135.854 285.57,135.705 286.588,135.025C287.606,134.344 288.267,133.297 288.573,131.882C288.872,130.495 288.702,129.297 288.063,128.288C287.425,127.279 286.19,126.578 284.359,126.183L279.366,125.105L277.364,134.384ZM193.565,122.138L194.526,117.686L226.149,124.51L225.188,128.962L193.565,122.138ZM167.121,127.233C164.985,126.772 163.178,125.997 161.7,124.909C160.222,123.821 159.16,122.488 158.513,120.912C157.866,119.335 157.741,117.559 158.138,115.583L163.756,116.795C163.518,118.167 163.763,119.417 164.492,120.547C165.221,121.677 166.404,122.418 168.04,122.771C169.455,123.077 170.652,122.979 171.631,122.479C172.61,121.979 173.222,121.16 173.467,120.023C173.725,118.83 173.557,117.822 172.966,116.997C172.375,116.173 171.513,115.421 170.383,114.741C169.252,114.062 168.044,113.337 166.759,112.566C164.679,111.304 163.182,109.936 162.266,108.461C161.351,106.986 161.111,105.236 161.548,103.211C161.892,101.485 162.619,100.097 163.732,99.045C164.844,97.993 166.209,97.286 167.826,96.923C169.443,96.561 171.208,96.586 173.122,96.999C175.064,97.418 176.702,98.135 178.037,99.148C179.371,100.162 180.327,101.384 180.903,102.815C181.48,104.246 181.611,105.827 181.295,107.559L175.594,106.329C175.788,105.297 175.589,104.303 174.997,103.348C174.404,102.393 173.429,101.768 172.069,101.475C170.91,101.196 169.871,101.269 168.952,101.695C168.032,102.121 167.45,102.903 167.205,104.04C166.995,105.011 167.134,105.846 167.622,106.547C168.109,107.247 168.838,107.905 169.809,108.521C170.779,109.137 171.896,109.813 173.159,110.55C174.494,111.361 175.686,112.228 176.735,113.151C177.784,114.074 178.551,115.161 179.036,116.413C179.521,117.664 179.578,119.15 179.207,120.869C178.878,122.395 178.184,123.726 177.126,124.862C176.068,125.998 174.691,126.797 172.995,127.259C171.298,127.72 169.341,127.711 167.121,127.233ZM142.28,121.873C140.144,121.412 138.337,120.637 136.859,119.549C135.381,118.461 134.319,117.128 133.672,115.552C133.025,113.975 132.9,112.199 133.297,110.223L138.915,111.435C138.677,112.807 138.922,114.057 139.651,115.187C140.38,116.317 141.563,117.058 143.199,117.411C144.614,117.717 145.811,117.619 146.79,117.119C147.769,116.619 148.381,115.8 148.626,114.663C148.883,113.47 148.716,112.462 148.125,111.637C147.533,110.813 146.672,110.061 145.542,109.382C144.411,108.702 143.203,107.977 141.918,107.206C139.838,105.945 138.341,104.576 137.425,103.101C136.51,101.626 136.27,99.876 136.707,97.851C137.05,96.126 137.778,94.737 138.891,93.685C140.003,92.633 141.368,91.926 142.985,91.563C144.602,91.201 146.367,91.226 148.281,91.639C150.223,92.058 151.861,92.775 153.195,93.788C154.53,94.802 155.485,96.024 156.062,97.455C156.639,98.886 156.769,100.467 156.454,102.199L150.753,100.969C150.947,99.937 150.748,98.943 150.155,97.988C149.563,97.033 148.587,96.409 147.228,96.115C146.069,95.836 145.03,95.909 144.111,96.335C143.191,96.761 142.609,97.543 142.364,98.68C142.154,99.651 142.293,100.487 142.781,101.187C143.268,101.887 143.997,102.545 144.968,103.161C145.938,103.777 147.055,104.453 148.318,105.191C149.653,106.001 150.845,106.868 151.894,107.791C152.943,108.714 153.71,109.801 154.195,111.053C154.68,112.304 154.737,113.79 154.366,115.51C154.037,117.035 153.343,118.366 152.285,119.502C151.227,120.639 149.85,121.437 148.153,121.899C146.457,122.36 144.499,122.351 142.28,121.873ZM113.07,115.57C110.157,114.942 107.75,113.754 105.848,112.009C103.945,110.263 102.621,108.126 101.874,105.599C101.128,103.072 101.075,100.324 101.715,97.356C102.356,94.388 103.537,91.906 105.259,89.912C106.981,87.918 109.069,86.517 111.522,85.711C113.975,84.905 116.658,84.816 119.57,85.444C122.455,86.067 124.856,87.253 126.772,89.002C128.688,90.75 130.012,92.887 130.745,95.411C131.478,97.935 131.524,100.681 130.884,103.65C130.243,106.618 129.069,109.101 127.36,111.098C125.652,113.095 123.565,114.496 121.098,115.299C118.631,116.102 115.955,116.193 113.07,115.57ZM73.607,106.533L79.891,77.406L90.585,79.713C92.915,80.216 94.751,81.026 96.092,82.142C97.434,83.259 98.334,84.571 98.792,86.078C99.251,87.585 99.304,89.157 98.951,90.794C98.567,92.569 97.753,94.091 96.506,95.361C95.26,96.631 93.58,97.386 91.467,97.627L94.87,111.12L88.753,109.801L85.822,97.149L81.411,96.197L78.933,107.682L73.607,106.533ZM114.103,110.785C116.877,111.383 119.286,110.945 121.332,109.471C123.377,107.996 124.744,105.664 125.433,102.473C126.121,99.283 125.837,96.595 124.582,94.408C123.326,92.221 121.312,90.828 118.538,90.23C115.764,89.631 113.347,90.068 111.288,91.539C109.228,93.011 107.854,95.342 107.166,98.532C106.478,101.722 106.768,104.412 108.038,106.602C109.307,108.792 111.329,110.186 114.103,110.785ZM56.023,103.261C53.083,102.627 50.694,101.451 48.858,99.734C47.023,98.017 45.78,95.905 45.13,93.399C44.481,90.893 44.476,88.156 45.117,85.187C45.757,82.219 46.891,79.721 48.52,77.691C50.148,75.662 52.154,74.237 54.537,73.416C56.921,72.595 59.583,72.501 62.523,73.136C66.018,73.89 68.695,75.375 70.554,77.59C72.413,79.806 73.282,82.541 73.161,85.795L67.294,84.529C67.274,82.87 66.772,81.463 65.788,80.307C64.803,79.151 63.34,78.363 61.398,77.944C58.708,77.364 56.402,77.824 54.481,79.326C52.56,80.828 51.256,83.174 50.568,86.364C49.879,89.554 50.102,92.222 51.236,94.368C52.369,96.514 54.281,97.877 56.972,98.458C58.914,98.877 60.566,98.791 61.927,98.199C63.289,97.607 64.311,96.601 64.995,95.181L70.862,96.447C69.661,99.323 67.761,101.367 65.163,102.577C62.565,103.787 59.518,104.015 56.023,103.261ZM15.228,93.936L20.588,69.095L12.1,67.264L13.024,62.978L35.369,67.799L34.444,72.085L25.914,70.245L20.554,95.086L15.228,93.936ZM82.255,92.286L87.29,93.372C89.065,93.756 90.461,93.607 91.479,92.927C92.497,92.246 93.158,91.199 93.464,89.784C93.763,88.397 93.593,87.199 92.954,86.19C92.316,85.181 91.081,84.48 89.25,84.085L84.257,83.007L82.255,92.286ZM0,60.001C1.434,60.635 2.705,61.459 3.815,62.471C5.731,64.22 7.055,66.357 7.788,68.881C8.521,71.405 8.567,74.151 7.926,77.12C7.286,80.088 6.112,82.57 4.403,84.568C3.142,86.042 1.674,87.192 0,88.015L0,81.421C1.164,80.023 1.989,78.197 2.476,75.943C3.164,72.753 2.88,70.065 1.625,67.878C1.179,67.101 0.637,66.425 0,65.849L0,60.001Z" style="fill:rgb(10,10,10);"/>
        <path d="M0,120.209L0,105.026L49.493,115.704L0,120.209ZM900,9.122L700.879,56.416L242.567,98.131L117.752,71.2L900,0.001L900,9.122Z" style="fill:url(#_Linear2);"/>
        <path d="M0,108.017L3.577,107.691L3.839,110.567L0,110.916L0,108.017ZM6.876,106.509L10.551,107.302L10.791,109.934L7.217,110.26L6.876,106.509ZM214.831,91.363L213.052,71.819L220.227,71.166C221.791,71.023 223.104,71.171 224.167,71.609C225.229,72.047 226.053,72.695 226.638,73.552C227.223,74.409 227.565,75.387 227.665,76.485C227.773,77.676 227.561,78.793 227.027,79.837C226.493,80.88 225.586,81.685 224.305,82.252L229.098,90.064L224.994,90.438L220.663,83.062L217.703,83.332L218.405,91.037L214.831,91.363ZM202.824,89.556C204.109,89.433 205.118,89.056 205.85,88.422C206.59,87.782 207.035,86.949 207.185,85.922L211.122,85.563C210.933,87.607 210.14,89.265 208.745,90.537C208.656,90.618 208.565,90.698 208.472,90.774L202.824,89.556ZM241.413,89.281C239.459,89.459 237.712,89.186 236.173,88.463C234.634,87.74 233.381,86.657 232.415,85.216C231.449,83.774 230.875,82.058 230.693,80.066C230.512,78.074 230.767,76.282 231.457,74.69C232.147,73.098 233.184,71.807 234.567,70.818C235.95,69.828 237.619,69.245 239.573,69.067C241.509,68.891 243.251,69.164 244.8,69.886C246.348,70.609 247.601,71.691 248.558,73.133C249.515,74.576 250.084,76.293 250.265,78.285C250.447,80.276 250.197,82.068 249.516,83.659C248.835,85.251 247.798,86.542 246.406,87.532C245.013,88.522 243.349,89.105 241.413,89.281ZM193.752,87.598C193.204,86.404 192.862,85.055 192.725,83.55C192.543,81.558 192.765,79.765 193.389,78.169C194.013,76.573 194.994,75.283 196.33,74.298C197.667,73.313 199.322,72.731 201.295,72.551C203.64,72.337 205.615,72.744 207.219,73.771C208.824,74.798 209.908,76.346 210.471,78.416L206.535,78.774C206.196,77.735 205.604,76.949 204.758,76.416C203.911,75.883 202.837,75.676 201.534,75.795C199.728,75.959 198.37,76.702 197.458,78.024C196.546,79.345 196.187,81.077 196.382,83.217C196.577,85.358 197.242,86.991 198.376,88.117C198.627,88.366 198.895,88.583 199.178,88.769L193.752,87.598ZM261.013,87.497C259.58,87.628 258.292,87.496 257.149,87.103C256.006,86.71 255.076,86.081 254.359,85.217C253.642,84.353 253.215,83.262 253.076,81.942L256.845,81.599C256.965,82.507 257.365,83.245 258.046,83.812C258.726,84.379 259.615,84.612 260.713,84.512C261.663,84.426 262.396,84.129 262.913,83.622C263.43,83.115 263.653,82.48 263.584,81.717C263.511,80.917 263.208,80.316 262.674,79.914C262.14,79.512 261.451,79.209 260.606,79.004C259.762,78.8 258.86,78.581 257.9,78.35C256.345,77.966 255.135,77.4 254.269,76.653C253.404,75.906 252.909,74.853 252.785,73.495C252.662,72.342 252.846,71.326 253.338,70.446C253.831,69.566 254.549,68.853 255.494,68.308C256.439,67.762 257.554,67.43 258.838,67.313C260.141,67.195 261.312,67.323 262.35,67.698C263.388,68.072 264.229,68.653 264.873,69.439C265.517,70.224 265.91,71.193 266.053,72.343L262.227,72.692C262.146,72.005 261.825,71.419 261.265,70.935C260.705,70.451 259.969,70.251 259.057,70.334C258.274,70.386 257.635,70.637 257.141,71.085C256.647,71.534 256.434,72.14 256.504,72.903C256.563,73.554 256.815,74.052 257.259,74.396C257.703,74.741 258.291,75.011 259.022,75.207C259.753,75.403 260.588,75.609 261.527,75.824C262.526,76.071 263.445,76.381 264.286,76.755C265.127,77.129 265.823,77.661 266.374,78.353C266.925,79.044 267.253,79.966 267.358,81.12C267.451,82.144 267.277,83.117 266.836,84.039C266.394,84.962 265.686,85.735 264.71,86.358C263.735,86.982 262.502,87.362 261.013,87.497ZM241.121,86.07C242.982,85.901 244.411,85.151 245.407,83.822C246.402,82.493 246.803,80.758 246.608,78.617C246.413,76.477 245.706,74.843 244.487,73.715C243.267,72.587 241.727,72.108 239.866,72.278C238.004,72.447 236.571,73.197 235.566,74.527C234.561,75.857 234.156,77.593 234.351,79.733C234.546,81.874 235.258,83.507 236.486,84.634C237.715,85.761 239.26,86.24 241.121,86.07ZM277.682,85.98C276.248,86.11 274.96,85.979 273.817,85.586C272.674,85.192 271.744,84.564 271.027,83.7C270.311,82.836 269.883,81.745 269.744,80.425L273.513,80.082C273.633,80.99 274.034,81.728 274.714,82.295C275.394,82.862 276.284,83.095 277.382,82.995C278.331,82.909 279.064,82.612 279.581,82.105C280.098,81.598 280.322,80.963 280.252,80.2C280.179,79.4 279.876,78.799 279.342,78.397C278.808,77.995 278.119,77.692 277.275,77.487C276.43,77.282 275.528,77.064 274.569,76.833C273.014,76.449 271.803,75.883 270.938,75.136C270.072,74.389 269.577,73.336 269.454,71.978C269.33,70.825 269.514,69.809 270.007,68.929C270.499,68.049 271.218,67.336 272.163,66.79C273.108,66.245 274.222,65.913 275.507,65.796C276.81,65.678 277.98,65.806 279.018,66.18C280.057,66.555 280.898,67.135 281.542,67.921C282.185,68.707 282.579,69.676 282.721,70.826L278.896,71.174C278.814,70.487 278.494,69.902 277.934,69.418C277.373,68.934 276.637,68.734 275.725,68.817C274.942,68.869 274.303,69.12 273.809,69.568C273.315,70.017 273.103,70.623 273.172,71.386C273.231,72.037 273.483,72.535 273.927,72.879C274.372,73.224 274.959,73.494 275.69,73.69C276.421,73.886 277.256,74.092 278.196,74.307C279.194,74.554 280.114,74.864 280.955,75.238C281.796,75.612 282.492,76.144 283.043,76.835C283.593,77.527 283.921,78.449 284.026,79.603C284.12,80.627 283.945,81.6 283.504,82.522C283.062,83.445 282.354,84.218 281.378,84.841C280.403,85.465 279.171,85.844 277.682,85.98ZM174.616,83.469L174.142,78.26L168.446,78.778L168.184,75.902L183.177,74.538L183.439,77.414L177.716,77.935L178.292,84.262L174.616,83.469ZM151.776,78.541C151.87,78.468 151.965,78.397 152.063,78.327C153.446,77.338 155.115,76.754 157.07,76.576C159.005,76.4 160.747,76.673 162.296,77.396C163.844,78.118 165.097,79.2 166.054,80.643C166.29,80.998 166.502,81.37 166.691,81.759L161.093,80.552C160.074,79.932 158.876,79.673 157.499,79.776L151.776,78.541ZM334.052,80.849C332.079,81.029 330.347,80.759 328.855,80.041C327.363,79.323 326.167,78.24 325.266,76.793C324.365,75.345 323.823,73.626 323.642,71.634C323.461,69.642 323.682,67.849 324.306,66.253C324.931,64.657 325.911,63.367 327.248,62.382C328.585,61.397 330.239,60.815 332.212,60.635C334.558,60.422 336.532,60.828 338.137,61.855C339.741,62.882 340.825,64.43 341.389,66.5L337.452,66.858C337.113,65.819 336.521,65.033 335.675,64.5C334.829,63.967 333.754,63.76 332.451,63.879C330.646,64.043 329.287,64.786 328.375,66.108C327.463,67.429 327.105,69.161 327.3,71.301C327.494,73.442 328.159,75.075 329.294,76.201C330.429,77.327 331.899,77.808 333.704,77.643C335.007,77.525 336.028,77.146 336.768,76.506C337.507,75.866 337.952,75.033 338.103,74.006L342.039,73.647C341.85,75.691 341.058,77.349 339.663,78.621C338.268,79.893 336.398,80.636 334.052,80.849ZM217.464,80.707L220.843,80.4C222.034,80.291 222.883,79.923 223.388,79.295C223.894,78.667 224.104,77.879 224.018,76.929C223.933,75.999 223.591,75.279 222.991,74.771C222.391,74.262 221.477,74.064 220.248,74.176L216.898,74.481L217.464,80.707ZM345.748,79.447L343.969,59.903L351.145,59.25C352.708,59.107 354.021,59.255 355.084,59.693C356.147,60.132 356.971,60.779 357.555,61.636C358.14,62.493 358.482,63.471 358.582,64.569C358.691,65.76 358.478,66.877 357.944,67.921C357.411,68.964 356.503,69.769 355.222,70.336L360.015,78.148L355.911,78.522L351.58,71.146L348.621,71.416L349.322,79.122L345.748,79.447ZM363.142,77.864L361.364,58.32L364.937,57.994L366.716,77.538L363.142,77.864ZM293.301,77.577L293.029,74.589L314.248,72.658L314.52,75.645L293.301,77.577ZM370.513,77.193L368.734,57.649L372.978,57.262L380.333,69.092L385.347,56.137L389.591,55.75L391.37,75.294L387.796,75.62L386.568,62.134L382.097,73.323L379.277,73.58L372.86,63.382L374.087,76.867L370.513,77.193ZM395.167,74.949L393.388,55.405L406.147,54.243L406.409,57.119L397.223,57.955L397.711,63.316L406.06,62.556L406.314,65.348L397.966,66.108L398.479,71.748L407.665,70.912L407.926,73.787L395.167,74.949ZM424.653,72.603C423.22,72.733 421.932,72.602 420.789,72.209C419.645,71.815 418.716,71.187 417.999,70.323C417.282,69.459 416.854,68.367 416.715,67.047L420.485,66.704C420.605,67.613 421.005,68.351 421.685,68.918C422.366,69.484 423.255,69.718 424.353,69.618C425.302,69.531 426.036,69.235 426.552,68.728C427.069,68.221 427.293,67.586 427.224,66.823C427.151,66.023 426.847,65.421 426.313,65.02C425.78,64.618 425.09,64.315 424.246,64.11C423.402,63.905 422.5,63.687 421.54,63.455C419.985,63.071 418.775,62.506 417.909,61.759C417.043,61.012 416.549,59.959 416.425,58.6C416.301,57.448 416.486,56.432 416.978,55.552C417.47,54.672 418.189,53.959 419.134,53.413C420.079,52.867 421.194,52.536 422.478,52.419C423.781,52.301 424.952,52.429 425.99,52.803C427.028,53.178 427.869,53.758 428.513,54.544C429.157,55.33 429.55,56.298 429.692,57.449L425.867,57.797C425.786,57.11 425.465,56.525 424.905,56.041C424.345,55.557 423.609,55.357 422.697,55.44C421.913,55.492 421.275,55.743 420.78,56.191C420.286,56.64 420.074,57.245 420.144,58.009C420.203,58.66 420.455,59.158 420.899,59.502C421.343,59.846 421.931,60.117 422.662,60.313C423.393,60.509 424.228,60.715 425.167,60.929C426.165,61.176 427.085,61.487 427.926,61.861C428.767,62.235 429.463,62.767 430.014,63.458C430.565,64.149 430.893,65.072 430.998,66.226C431.091,67.25 430.917,68.223 430.475,69.145C430.034,70.067 429.325,70.84 428.35,71.464C427.374,72.088 426.142,72.467 424.653,72.603ZM443.499,70.887C441.526,71.067 439.794,70.798 438.302,70.08C436.81,69.361 435.614,68.279 434.713,66.831C433.811,65.384 433.27,63.664 433.089,61.672C432.908,59.681 433.129,57.887 433.753,56.291C434.378,54.695 435.358,53.405 436.695,52.42C438.031,51.435 439.686,50.853 441.659,50.673C444.005,50.46 445.979,50.867 447.584,51.894C449.188,52.92 450.272,54.469 450.836,56.538L446.899,56.896C446.56,55.857 445.968,55.072 445.122,54.539C444.276,54.006 443.201,53.798 441.898,53.917C440.093,54.081 438.734,54.824 437.822,56.146C436.91,57.468 436.552,59.199 436.746,61.339C436.941,63.48 437.606,65.113 438.741,66.239C439.875,67.365 441.346,67.846 443.151,67.682C444.454,67.563 445.475,67.184 446.215,66.544C446.954,65.905 447.399,65.071 447.549,64.044L451.486,63.686C451.297,65.73 450.505,67.388 449.11,68.66C447.715,69.931 445.844,70.674 443.499,70.887ZM455.195,69.485L453.416,49.941L466.176,48.78L466.437,51.655L457.252,52.491L457.74,57.852L466.088,57.092L466.342,59.884L457.994,60.644L458.507,66.284L467.693,65.448L467.955,68.324L455.195,69.485ZM348.382,68.791L351.76,68.484C352.951,68.375 353.8,68.007 354.306,67.379C354.812,66.751 355.021,65.963 354.935,65.013C354.85,64.083 354.508,63.363 353.908,62.855C353.308,62.346 352.394,62.148 351.165,62.26L347.815,62.565L348.382,68.791ZM471.333,68.016L469.554,48.472L473.128,48.147L483.566,61.075L482.313,47.311L485.887,46.985L487.666,66.53L484.092,66.855L473.656,53.954L474.907,67.691L471.333,68.016ZM491.463,66.184L489.684,46.64L502.444,45.479L502.706,48.354L493.52,49.19L494.008,54.551L502.356,53.791L502.61,56.583L494.262,57.343L494.775,62.983L503.961,62.147L504.223,65.023L491.463,66.184ZM545.126,61.3L543.347,41.756L550.02,41.148C552.309,40.94 554.231,41.173 555.784,41.848C557.338,42.523 558.539,43.559 559.389,44.955C560.238,46.35 560.753,48.035 560.933,50.008C561.112,51.981 560.91,53.731 560.326,55.257C559.743,56.783 558.748,58.019 557.342,58.963C555.936,59.908 554.088,60.484 551.799,60.692L545.126,61.3ZM574.165,58.994C572.211,59.172 570.464,58.9 568.925,58.176C567.386,57.453 566.133,56.371 565.167,54.929C564.2,53.487 563.627,51.771 563.445,49.779C563.264,47.788 563.519,45.996 564.209,44.403C564.899,42.811 565.936,41.52 567.319,40.531C568.702,39.542 570.371,38.958 572.325,38.78C574.261,38.604 576.003,38.877 577.552,39.599C579.1,40.322 580.353,41.404 581.31,42.847C582.267,44.289 582.836,46.006 583.017,47.998C583.199,49.989 582.949,51.781 582.268,53.373C581.587,54.964 580.55,56.255 579.158,57.245C577.765,58.235 576.101,58.818 574.165,58.994ZM548.42,57.903L551.352,57.636C552.99,57.487 554.259,57.104 555.16,56.487C556.061,55.87 556.671,55.046 556.99,54.012C557.309,52.979 557.404,51.755 557.275,50.341C557.148,48.945 556.834,47.763 556.333,46.795C555.832,45.827 555.082,45.117 554.084,44.663C553.085,44.21 551.767,44.058 550.129,44.207L547.198,44.474L548.42,57.903ZM513.255,57.557L512.984,54.569L534.203,52.638L534.475,55.625L513.255,57.557ZM593.707,56.878L591.928,37.334L595.502,37.009L605.94,49.937L604.687,36.172L608.261,35.847L610.04,55.391L606.466,55.717L596.03,42.816L597.28,56.553L593.707,56.878ZM573.873,55.784C575.734,55.614 577.163,54.865 578.159,53.535C579.154,52.206 579.555,50.471 579.36,48.331C579.165,46.19 578.458,44.556 577.239,43.428C576.019,42.301 574.479,41.822 572.618,41.991C570.756,42.16 569.323,42.91 568.318,44.24C567.313,45.57 566.908,47.306 567.103,49.446C567.298,51.587 568.009,53.221 569.238,54.347C570.467,55.474 572.012,55.953 573.873,55.784ZM623.025,54.547C621.071,54.725 619.324,54.452 617.785,53.729C616.246,53.006 614.993,51.923 614.027,50.482C613.061,49.04 612.487,47.324 612.306,45.332C612.124,43.34 612.379,41.548 613.069,39.956C613.759,38.364 614.796,37.073 616.179,36.084C617.562,35.094 619.231,34.511 621.186,34.333C623.121,34.157 624.863,34.43 626.412,35.152C627.96,35.875 629.213,36.957 630.17,38.399C631.127,39.842 631.696,41.559 631.878,43.551C632.059,45.542 631.809,47.334 631.128,48.925C630.447,50.517 629.41,51.808 628.018,52.798C626.625,53.788 624.961,54.371 623.025,54.547ZM639.775,52.685L638.258,36.016L632.562,36.535L632.3,33.659L647.293,32.294L647.555,35.17L641.832,35.691L643.349,52.36L639.775,52.685ZM622.733,51.336C624.595,51.167 626.023,50.418 627.019,49.088C628.014,47.759 628.415,46.024 628.22,43.884C628.025,41.743 627.318,40.109 626.099,38.981C624.879,37.854 623.339,37.374 621.478,37.544C619.616,37.713 618.183,38.463 617.178,39.793C616.173,41.123 615.768,42.859 615.963,44.999C616.158,47.14 616.87,48.773 618.098,49.9C619.327,51.027 620.872,51.506 622.733,51.336ZM667.251,50.522C665.278,50.701 663.545,50.432 662.054,49.714C660.562,48.996 659.366,47.913 658.464,46.465C657.563,45.018 657.022,43.298 656.841,41.307C656.659,39.315 656.881,37.521 657.505,35.926C658.129,34.33 659.11,33.039 660.446,32.054C661.783,31.069 663.438,30.487 665.411,30.308C667.756,30.094 669.731,30.501 671.335,31.528C672.94,32.555 674.024,34.103 674.587,36.172L670.651,36.531C670.312,35.492 669.72,34.706 668.874,34.173C668.027,33.64 666.953,33.433 665.65,33.551C663.844,33.716 662.486,34.459 661.574,35.78C660.662,37.102 660.303,38.833 660.498,40.974C660.693,43.114 661.358,44.748 662.492,45.874C663.627,47 665.097,47.48 666.903,47.316C668.206,47.197 669.227,46.818 669.966,46.179C670.706,45.539 671.151,44.705 671.301,43.678L675.238,43.32C675.049,45.364 674.256,47.022 672.861,48.294C671.466,49.566 669.596,50.308 667.251,50.522ZM678.947,49.119L677.168,29.575L684.343,28.922C685.907,28.78 687.22,28.928 688.283,29.366C689.345,29.804 690.169,30.452 690.754,31.309C691.339,32.166 691.681,33.143 691.781,34.242C691.889,35.433 691.677,36.55 691.143,37.593C690.609,38.637 689.702,39.442 688.421,40.009L693.214,47.821L689.11,48.194L684.779,40.819L681.819,41.088L682.521,48.794L678.947,49.119ZM705.529,47.038C703.575,47.216 701.828,46.943 700.289,46.22C698.75,45.496 697.497,44.414 696.531,42.972C695.565,41.531 694.991,39.814 694.809,37.823C694.628,35.831 694.883,34.039 695.573,32.447C696.263,30.854 697.3,29.563 698.683,28.574C700.066,27.585 701.735,27.001 703.689,26.824C705.625,26.647 707.367,26.92 708.916,27.643C710.464,28.365 711.717,29.448 712.674,30.89C713.631,32.333 714.2,34.05 714.381,36.041C714.563,38.033 714.313,39.824 713.632,41.416C712.951,43.007 711.914,44.298 710.522,45.288C709.129,46.278 707.465,46.862 705.529,47.038ZM725.129,45.254C723.696,45.384 722.408,45.253 721.265,44.859C720.122,44.466 719.192,43.838 718.475,42.974C717.758,42.11 717.331,41.018 717.192,39.698L720.961,39.355C721.081,40.264 721.481,41.002 722.162,41.569C722.842,42.135 723.731,42.369 724.829,42.269C725.779,42.182 726.512,41.886 727.029,41.379C727.546,40.872 727.769,40.237 727.7,39.474C727.627,38.674 727.324,38.072 726.79,37.671C726.256,37.269 725.567,36.966 724.722,36.761C723.878,36.556 722.976,36.338 722.016,36.106C720.461,35.722 719.251,35.157 718.385,34.41C717.52,33.663 717.025,32.61 716.901,31.251C716.778,30.099 716.962,29.083 717.454,28.203C717.947,27.323 718.665,26.61 719.61,26.064C720.555,25.518 721.67,25.187 722.954,25.07C724.257,24.951 725.428,25.08 726.466,25.454C727.504,25.829 728.345,26.409 728.989,27.195C729.633,27.981 730.026,28.949 730.169,30.1L726.343,30.448C726.262,29.761 725.941,29.176 725.381,28.692C724.821,28.208 724.085,28.008 723.173,28.091C722.389,28.143 721.751,28.394 721.257,28.842C720.763,29.291 720.55,29.896 720.62,30.659C720.679,31.311 720.931,31.809 721.375,32.153C721.819,32.497 722.407,32.768 723.138,32.964C723.869,33.16 724.704,33.366 725.643,33.58C726.642,33.827 727.561,34.138 728.402,34.512C729.243,34.886 729.939,35.418 730.49,36.109C731.041,36.8 731.369,37.723 731.474,38.877C731.567,39.901 731.393,40.874 730.952,41.796C730.51,42.718 729.801,43.491 728.826,44.115C727.851,44.739 726.618,45.118 725.129,45.254ZM705.237,43.827C707.098,43.657 708.527,42.908 709.523,41.579C710.518,40.25 710.919,38.515 710.724,36.374C710.529,34.234 709.822,32.599 708.603,31.472C707.383,30.344 705.843,29.865 703.982,30.034C702.12,30.204 700.687,30.954 699.682,32.284C698.677,33.614 698.272,35.349 698.467,37.49C698.662,39.63 699.374,41.264 700.602,42.391C701.831,43.518 703.376,43.996 705.237,43.827ZM741.798,43.737C740.364,43.867 739.076,43.736 737.933,43.342C736.79,42.949 735.86,42.321 735.143,41.457C734.427,40.593 733.999,39.501 733.86,38.181L737.629,37.838C737.749,38.747 738.15,39.485 738.83,40.051C739.51,40.618 740.4,40.852 741.498,40.752C742.447,40.665 743.18,40.369 743.697,39.862C744.214,39.355 744.438,38.72 744.368,37.957C744.295,37.156 743.992,36.555 743.458,36.154C742.924,35.752 742.235,35.448 741.391,35.244C740.546,35.039 739.644,34.821 738.685,34.589C737.13,34.205 735.919,33.64 735.054,32.893C734.188,32.146 733.693,31.093 733.57,29.734C733.446,28.582 733.63,27.566 734.123,26.686C734.615,25.806 735.334,25.093 736.279,24.547C737.224,24.001 738.338,23.67 739.623,23.553C740.926,23.434 742.096,23.562 743.134,23.937C744.172,24.312 745.014,24.892 745.657,25.678C746.301,26.464 746.695,27.432 746.837,28.583L743.012,28.931C742.93,28.244 742.61,27.659 742.05,27.175C741.489,26.691 740.753,26.49 739.841,26.573C739.058,26.626 738.419,26.876 737.925,27.325C737.431,27.773 737.219,28.379 737.288,29.142C737.347,29.794 737.599,30.292 738.043,30.636C738.488,30.98 739.075,31.251 739.806,31.447C740.537,31.643 741.372,31.849 742.312,32.063C743.31,32.31 744.23,32.621 745.071,32.995C745.912,33.368 746.608,33.901 747.159,34.592C747.709,35.283 748.037,36.206 748.142,37.36C748.236,38.384 748.061,39.357 747.62,40.279C747.178,41.201 746.47,41.974 745.494,42.598C744.519,43.221 743.287,43.601 741.798,43.737ZM681.58,38.464L684.959,38.156C686.15,38.048 686.998,37.68 687.504,37.052C688.01,36.424 688.22,35.635 688.134,34.686C688.049,33.755 687.707,33.036 687.107,32.527C686.507,32.019 685.593,31.821 684.364,31.933L681.014,32.238L681.58,38.464ZM757.417,35.333L757.145,32.346L778.364,30.415L778.636,33.402L757.417,35.333ZM789.883,35.276C789.707,35.045 789.54,34.803 789.382,34.549C788.481,33.102 787.939,31.382 787.758,29.391C787.577,27.399 787.798,25.605 788.422,24.01C789.047,22.414 790.027,21.123 791.364,20.138C792.701,19.154 794.355,18.571 796.328,18.392C798.674,18.178 800.648,18.585 802.253,19.612C803.857,20.639 804.941,22.187 805.505,24.256L801.568,24.615C801.229,23.576 800.637,22.79 799.791,22.257C798.945,21.724 797.87,21.517 796.567,21.635C794.762,21.8 793.403,22.543 792.491,23.864C791.579,25.186 791.221,26.917 791.416,29.058C791.61,31.198 792.275,32.832 793.41,33.958C793.547,34.094 793.689,34.22 793.836,34.338L789.883,35.276ZM806.154,31.412L802.086,32.378C802.143,32.181 802.187,31.976 802.219,31.762L806.155,31.404L806.154,31.412ZM809.27,30.672L808.085,17.659L815.261,17.006C816.824,16.864 818.137,17.012 819.2,17.45C820.263,17.888 821.087,18.536 821.671,19.393C822.256,20.25 822.598,21.227 822.698,22.326C822.807,23.517 822.594,24.634 822.06,25.677C821.527,26.721 820.619,27.526 819.338,28.093L819.439,28.257L815.821,29.116L815.696,28.903L812.737,29.172L812.797,29.834L809.27,30.672ZM829.964,25.757L826.437,26.595L825.48,16.076L829.053,15.751L829.964,25.757ZM812.498,26.548L815.876,26.24C817.067,26.132 817.916,25.764 818.422,25.136C818.928,24.508 819.137,23.719 819.051,22.77C818.966,21.839 818.624,21.12 818.024,20.612C817.424,20.103 816.51,19.905 815.281,20.017L811.931,20.322L812.498,26.548ZM841.994,22.9L838.592,23.707L836.976,21.139L837.239,24.029L833.712,24.867L832.85,15.405L837.094,15.019L841.994,22.9ZM854.296,19.978L850.769,20.815L850.684,19.891L850.267,20.935L846.381,21.858L849.463,13.893L853.707,13.507L854.296,19.978ZM858.043,19.088L857.504,13.161L870.263,12L870.525,14.876L861.339,15.712L861.57,18.25L858.043,19.088ZM880.92,13.654C880.973,13.537 881.031,13.422 881.094,13.309C881.586,12.429 882.305,11.716 883.25,11.17C884.195,10.624 885.31,10.293 886.594,10.176C887.897,10.057 889.068,10.185 890.106,10.56C890.563,10.725 890.981,10.93 891.362,11.174L880.92,13.654Z" style="fill:rgb(10,10,10);"/>
        <path d="M900,86.206L0,299.965L0,222.882L900,9.122L900,86.206Z" style="fill:url(#_Linear3);"/>
        <path d="M0,261.821L26.567,255.511L27.93,261.251L0,267.884L0,261.821ZM67.407,265.929C63.616,266.829 60.169,266.788 57.064,265.807C53.96,264.825 51.328,263.051 49.17,260.485C47.011,257.918 45.477,254.722 44.568,250.895C43.66,247.068 43.59,243.515 44.36,240.234C45.13,236.953 46.678,234.167 49.005,231.877C51.333,229.586 54.392,227.99 58.182,227.09C62.689,226.02 66.647,226.26 70.056,227.812C73.466,229.363 76.009,232.075 77.684,235.946L70.12,237.742C69.171,235.814 67.798,234.45 66.002,233.648C64.206,232.847 62.057,232.744 59.553,233.338C56.084,234.162 53.646,235.988 52.24,238.816C50.834,241.643 50.619,245.113 51.596,249.226C52.573,253.339 54.323,256.333 56.846,258.208C59.369,260.083 62.366,260.609 65.835,259.785C68.338,259.19 70.22,258.167 71.481,256.716C72.742,255.264 73.375,253.517 73.382,251.475L80.945,249.679C81.148,253.711 80.068,257.16 77.707,260.025C75.347,262.891 71.913,264.858 67.407,265.929ZM89.785,259.934L80.866,222.383L94.653,219.108C97.657,218.395 100.254,218.316 102.446,218.872C104.637,219.429 106.421,220.459 107.799,221.965C109.176,223.47 110.116,225.277 110.617,227.387C111.16,229.676 111.058,231.911 110.31,234.091C109.562,236.271 108.021,238.091 105.686,239.553L117.197,253.423L109.311,255.296L98.821,242.146L93.135,243.497L96.651,258.303L89.785,259.934ZM123.205,251.996L114.286,214.445L121.153,212.814L130.072,250.365L123.205,251.996ZM137.367,248.632L128.449,211.081L136.603,209.145L154.222,230.121L160.367,203.5L168.521,201.564L177.44,239.115L170.573,240.746L164.419,214.835L158.839,237.866L153.42,239.152L138.08,221.091L144.234,247.001L137.367,248.632ZM91.937,238.454L98.428,236.913C100.717,236.369 102.266,235.416 103.076,234.052C103.885,232.689 104.073,231.095 103.64,229.271C103.216,227.483 102.348,226.178 101.038,225.355C99.729,224.533 97.893,224.402 95.533,224.963L89.096,226.492L91.937,238.454ZM184.735,237.382L175.817,199.831L200.332,194.008L201.644,199.533L183.995,203.725L186.442,214.025L202.481,210.215L203.756,215.58L187.716,219.389L190.29,230.226L207.939,226.034L209.251,231.559L184.735,237.382ZM241.483,224.584C238.729,225.238 236.185,225.341 233.85,224.895C231.515,224.448 229.529,223.484 227.893,222.003C226.256,220.521 225.119,218.515 224.48,215.985L231.722,214.265C232.21,216 233.195,217.324 234.677,218.238C236.16,219.151 237.956,219.358 240.066,218.856C241.89,218.423 243.235,217.641 244.099,216.51C244.964,215.379 245.222,214.08 244.874,212.614C244.509,211.076 243.75,209.991 242.599,209.358C241.447,208.724 240.021,208.327 238.32,208.164C236.619,208.001 234.802,207.828 232.87,207.645C229.735,207.331 227.221,206.569 225.327,205.356C223.434,204.143 222.177,202.232 221.557,199.621C220.994,197.412 221.069,195.383 221.782,193.532C222.495,191.682 223.695,190.093 225.382,188.767C227.07,187.44 229.147,186.484 231.615,185.898C234.118,185.303 236.433,185.226 238.559,185.666C240.684,186.105 242.484,187 243.957,188.35C245.43,189.701 246.465,191.476 247.063,193.676L239.714,195.422C239.364,194.107 238.576,193.057 237.351,192.271C236.125,191.486 234.636,191.301 232.884,191.717C231.373,192.038 230.2,192.704 229.363,193.715C228.526,194.726 228.282,195.965 228.63,197.431C228.928,198.683 229.557,199.582 230.518,200.128C231.479,200.674 232.698,201.036 234.176,201.214C235.654,201.392 237.337,201.559 239.225,201.715C241.238,201.917 243.115,202.265 244.857,202.758C246.598,203.251 248.102,204.093 249.367,205.285C250.632,206.477 251.528,208.181 252.055,210.399C252.522,212.366 252.455,214.308 251.853,216.227C251.25,218.146 250.087,219.848 248.362,221.335C246.637,222.821 244.344,223.904 241.483,224.584ZM277.693,215.983C273.902,216.884 270.455,216.843 267.35,215.861C264.246,214.88 261.614,213.106 259.456,210.539C257.297,207.973 255.763,204.776 254.855,200.95C253.946,197.123 253.876,193.569 254.646,190.289C255.416,187.008 256.964,184.222 259.291,181.931C261.619,179.641 264.678,178.045 268.469,177.145C272.975,176.075 276.933,176.315 280.343,177.867C283.752,179.418 286.295,182.129 287.97,186.001L280.406,187.797C279.457,185.869 278.084,184.504 276.288,183.703C274.492,182.902 272.343,182.799 269.839,183.393C266.37,184.217 263.933,186.043 262.526,188.87C261.12,191.698 260.905,195.168 261.882,199.281C262.859,203.393 264.609,206.387 267.132,208.263C269.656,210.138 272.652,210.664 276.121,209.84C278.624,209.245 280.506,208.222 281.767,206.77C283.028,205.318 283.661,203.572 283.668,201.53L291.232,199.734C291.434,203.766 290.354,207.215 287.994,210.08C285.633,212.945 282.199,214.913 277.693,215.983ZM300.071,209.988L291.152,172.437L315.668,166.615L316.98,172.14L299.331,176.332L301.777,186.632L317.817,182.822L319.091,188.186L303.051,191.996L305.625,202.832L323.274,198.64L324.586,204.166L300.071,209.988ZM331.077,202.624L322.159,165.073L329.025,163.442L352.956,185.697L346.674,159.25L353.541,157.619L362.459,195.17L355.593,196.801L331.675,174.6L337.944,200.993L331.077,202.624ZM369.755,193.438L360.836,155.887L385.352,150.064L386.664,155.589L369.015,159.781L371.461,170.081L387.501,166.271L388.775,171.636L372.736,175.445L375.309,186.281L392.958,182.09L394.271,187.615L369.755,193.438ZM409.771,170.559L408.408,164.819L449.177,155.136L450.541,160.876L409.771,170.559ZM472.86,168.949L463.941,131.398L476.762,128.353C481.161,127.308 484.966,127.226 488.179,128.106C491.392,128.987 494.02,130.667 496.064,133.148C498.107,135.628 499.579,138.764 500.48,142.554C501.38,146.345 501.475,149.808 500.765,152.942C500.055,156.077 498.463,158.76 495.989,160.99C493.516,163.221 490.08,164.859 485.681,165.904L472.86,168.949ZM478.325,161.417L483.957,160.08C487.104,159.332 489.469,158.232 491.051,156.78C492.633,155.327 493.59,153.551 493.922,151.451C494.254,149.351 494.098,146.942 493.452,144.224C492.815,141.541 491.874,139.328 490.628,137.584C489.383,135.839 487.725,134.665 485.655,134.061C483.585,133.457 480.976,133.529 477.829,134.277L472.196,135.615L478.325,161.417ZM528.749,156.355C524.994,157.247 521.517,157.204 518.319,156.225C515.121,155.247 512.38,153.489 510.096,150.953C507.813,148.416 506.216,145.234 505.308,141.408C504.399,137.581 504.394,134.021 505.293,130.729C506.192,127.436 507.85,124.634 510.267,122.322C512.684,120.01 515.769,118.408 519.525,117.516C523.244,116.633 526.712,116.678 529.928,117.652C533.144,118.626 535.884,120.384 538.15,122.925C540.416,125.466 542.003,128.65 542.912,132.476C543.821,136.303 543.835,139.86 542.954,143.149C542.072,146.437 540.414,149.24 537.98,151.556C535.545,153.872 532.468,155.472 528.749,156.355ZM527.284,150.186C530.86,149.336 533.432,147.479 534.999,144.613C536.567,141.747 536.862,138.258 535.885,134.145C534.908,130.033 533.075,127.049 530.387,125.194C527.698,123.339 524.566,122.836 520.99,123.685C517.413,124.535 514.833,126.395 513.248,129.265C511.662,132.135 511.358,135.626 512.335,139.739C513.312,143.851 515.153,146.833 517.86,148.684C520.566,150.535 523.708,151.035 527.284,150.186ZM566.201,146.78L557.282,109.229L564.149,107.598L588.079,129.853L581.798,103.406L588.664,101.775L597.583,139.326L590.716,140.957L566.799,118.756L573.067,145.149L566.201,146.78ZM622.627,134.058C618.872,134.95 615.395,134.907 612.197,133.928C608.999,132.95 606.258,131.192 603.974,128.656C601.691,126.119 600.094,122.937 599.185,119.111C598.276,115.284 598.272,111.725 599.171,108.432C600.07,105.139 601.728,102.337 604.145,100.025C606.561,97.713 609.647,96.111 613.402,95.219C617.122,94.336 620.589,94.381 623.805,95.355C627.021,96.329 629.762,98.087 632.028,100.628C634.294,103.169 635.881,106.353 636.79,110.179C637.699,114.006 637.713,117.563 636.831,120.852C635.95,124.14 634.292,126.943 631.858,129.259C629.423,131.575 626.346,133.175 622.627,134.058ZM621.162,127.889C624.738,127.039 627.31,125.182 628.877,122.316C630.444,119.45 630.74,115.961 629.763,111.848C628.786,107.736 626.953,104.752 624.265,102.897C621.576,101.042 618.444,100.539 614.867,101.388C611.291,102.238 608.71,104.098 607.125,106.968C605.54,109.838 605.236,113.329 606.213,117.442C607.19,121.554 609.031,124.536 611.738,126.387C614.444,128.238 617.585,128.738 621.162,127.889ZM654.714,125.757L647.108,93.731L636.164,96.33L634.852,90.805L663.659,83.963L664.971,89.488L653.974,92.1L661.581,124.126L654.714,125.757ZM707.6,113.876C703.809,114.776 700.361,114.736 697.257,113.754C694.152,112.772 691.521,110.998 689.362,108.432C687.204,105.865 685.67,102.669 684.761,98.842C683.852,95.016 683.783,91.462 684.552,88.181C685.322,84.9 686.871,82.115 689.198,79.824C691.525,77.533 694.584,75.938 698.375,75.037C702.881,73.967 706.839,74.208 710.249,75.759C713.659,77.311 716.201,80.022 717.876,83.893L710.312,85.69C709.363,83.762 707.991,82.397 706.195,81.596C704.399,80.794 702.249,80.691 699.746,81.286C696.277,82.11 693.839,83.935 692.433,86.763C691.026,89.59 690.812,93.061 691.788,97.173C692.765,101.286 694.515,104.28 697.039,106.155C699.562,108.031 702.558,108.556 706.027,107.732C708.531,107.138 710.413,106.115 711.673,104.663C712.934,103.211 713.568,101.464 713.574,99.423L721.138,97.626C721.34,101.659 720.261,105.107 717.9,107.973C715.539,110.838 712.106,112.806 707.6,113.876ZM729.977,107.881L721.059,70.33L734.845,67.055C737.849,66.342 740.447,66.263 742.638,66.82C744.829,67.376 746.614,68.407 747.991,69.912C749.369,71.417 750.308,73.225 750.809,75.335C751.353,77.623 751.251,79.858 750.503,82.038C749.755,84.218 748.213,86.039 745.878,87.5L757.39,101.37L749.504,103.243L739.014,90.094L733.327,91.444L736.844,106.25L729.977,107.881ZM781.146,96.408C777.391,97.3 773.914,97.257 770.716,96.278C767.518,95.3 764.777,93.542 762.494,91.006C760.21,88.469 758.614,85.287 757.705,81.461C756.796,77.634 756.791,74.074 757.69,70.782C758.589,67.489 760.247,64.687 762.664,62.375C765.081,60.063 768.166,58.461 771.922,57.569C775.641,56.686 779.109,56.731 782.325,57.705C785.541,58.679 788.281,60.437 790.547,62.978C792.813,65.519 794.401,68.703 795.309,72.529C796.218,76.356 796.232,79.913 795.351,83.202C794.469,86.49 792.812,89.292 790.377,91.609C787.942,93.925 784.865,95.525 781.146,96.408ZM779.681,90.239C783.257,89.389 785.829,87.532 787.396,84.666C788.964,81.8 789.259,78.311 788.282,74.198C787.305,70.086 785.472,67.102 782.784,65.247C780.095,63.392 776.963,62.889 773.387,63.738C769.81,64.588 767.23,66.448 765.645,69.318C764.059,72.188 763.755,75.679 764.732,79.792C765.709,83.904 767.55,86.886 770.257,88.737C772.963,90.588 776.105,91.088 779.681,90.239ZM818.805,87.464C816.051,88.118 813.506,88.221 811.171,87.775C808.836,87.328 806.85,86.364 805.214,84.883C803.578,83.401 802.44,81.395 801.801,78.865L809.043,77.145C809.531,78.88 810.516,80.204 811.999,81.118C813.481,82.031 815.278,82.238 817.388,81.736C819.211,81.303 820.556,80.521 821.421,79.39C822.285,78.259 822.544,76.96 822.195,75.494C821.83,73.956 821.072,72.871 819.92,72.238C818.769,71.604 817.342,71.206 815.641,71.044C813.94,70.881 812.124,70.708 810.191,70.525C807.056,70.211 804.542,69.448 802.649,68.236C800.755,67.023 799.498,65.112 798.878,62.501C798.316,60.292 798.391,58.263 799.104,56.412C799.816,54.561 801.016,52.973 802.704,51.647C804.391,50.32 806.469,49.364 808.936,48.778C811.44,48.183 813.754,48.106 815.88,48.546C818.005,48.985 819.805,49.88 821.278,51.23C822.751,52.581 823.786,54.356 824.385,56.556L817.035,58.302C816.685,56.987 815.897,55.937 814.672,55.151C813.446,54.366 811.957,54.181 810.205,54.597C808.694,54.918 807.521,55.584 806.684,56.595C805.848,57.606 805.603,58.845 805.952,60.311C806.249,61.563 806.878,62.462 807.839,63.008C808.8,63.554 810.019,63.916 811.497,64.094C812.975,64.272 814.658,64.439 816.547,64.595C818.559,64.797 820.436,65.145 822.178,65.638C823.92,66.131 825.423,66.973 826.688,68.165C827.954,69.357 828.85,71.061 829.376,73.279C829.844,75.246 829.776,77.188 829.174,79.107C828.572,81.026 827.408,82.728 825.683,84.215C823.959,85.701 821.666,86.784 818.805,87.464ZM732.13,86.402L738.621,84.86C740.909,84.316 742.459,83.363 743.268,81.999C744.078,80.636 744.266,79.042 743.833,77.218C743.408,75.43 742.541,74.125 741.231,73.303C739.921,72.48 738.086,72.349 735.726,72.91L729.288,74.439L732.13,86.402ZM850.83,79.857C848.076,80.511 845.532,80.615 843.197,80.168C840.862,79.722 838.876,78.758 837.24,77.276C835.603,75.795 834.466,73.789 833.827,71.258L841.069,69.538C841.557,71.273 842.542,72.598 844.024,73.511C845.507,74.425 847.303,74.631 849.413,74.13C851.237,73.697 852.582,72.915 853.446,71.784C854.311,70.653 854.569,69.354 854.221,67.888C853.856,66.35 853.097,65.264 851.946,64.631C850.794,63.998 849.368,63.6 847.667,63.437C845.966,63.275 844.149,63.102 842.217,62.918C839.082,62.605 836.568,61.842 834.674,60.629C832.781,59.417 831.524,57.505 830.904,54.895C830.341,52.686 830.416,50.656 831.129,48.806C831.842,46.955 833.042,45.367 834.729,44.04C836.417,42.714 838.494,41.758 840.962,41.171C843.465,40.577 845.78,40.499 847.906,40.939C850.031,41.379 851.831,42.274 853.304,43.624C854.777,44.974 855.812,46.749 856.41,48.95L849.061,50.695C848.711,49.381 847.923,48.33 846.698,47.545C845.472,46.759 843.983,46.574 842.231,46.991C840.72,47.312 839.547,47.978 838.71,48.989C837.873,50 837.629,51.238 837.977,52.704C838.275,53.956 838.904,54.855 839.865,55.401C840.826,55.948 842.045,56.31 843.523,56.488C845.001,56.666 846.684,56.833 848.572,56.989C850.585,57.191 852.462,57.538 854.204,58.031C855.945,58.524 857.449,59.367 858.714,60.558C859.979,61.75 860.875,63.455 861.402,65.672C861.869,67.639 861.802,69.582 861.2,71.501C860.597,73.419 859.434,75.122 857.709,76.608C855.984,78.095 853.691,79.178 850.83,79.857ZM900,48.061L900,54.124L878.891,59.138L877.528,53.398L900,48.061Z" style="fill:rgb(10,10,10);"/>
    </g>
    <defs>
        <linearGradient id="_Linear1" x1="0" y1="0" x2="1" y2="0" gradientUnits="userSpaceOnUse" gradientTransform="matrix(1.83676e-14,299.965,-299.965,1.83676e-14,450,0)"><stop offset="0" style="stop-color:rgb(249,200,14);stop-opacity:0.5"/><stop offset="1" style="stop-color:rgb(249,200,14);stop-opacity:0"/></linearGradient>
        <linearGradient id="_Linear2" x1="0" y1="0" x2="1" y2="0" gradientUnits="userSpaceOnUse" gradientTransform="matrix(1.83676e-14,299.965,-299.965,1.83676e-14,450,0)"><stop offset="0" style="stop-color:rgb(249,200,14);stop-opacity:0.25"/><stop offset="1" style="stop-color:rgb(249,200,14);stop-opacity:0"/></linearGradient>
        <linearGradient id="_Linear3" x1="0" y1="0" x2="1" y2="0" gradientUnits="userSpaceOnUse" gradientTransform="matrix(1.83676e-14,299.965,-299.965,1.83676e-14,450,0)"><stop offset="0" style="stop-color:rgb(249,200,14);stop-opacity:0.75"/><stop offset="1" style="stop-color:rgb(249,200,14);stop-opacity:0"/></linearGradient>
    </defs>
</svg>
