<?xml version="1.0" encoding="UTF-8" standalone="no"?>
<!DOCTYPE svg PUBLIC "-//W3C//DTD SVG 1.1//EN" "http://www.w3.org/Graphics/SVG/1.1/DTD/svg11.dtd">
<svg width="100%" height="100%" viewBox="0 0 900 300" version="1.1" xmlns="http://www.w3.org/2000/svg" xmlns:xlink="http://www.w3.org/1999/xlink" xml:space="preserve" xmlns:serif="http://www.serif.com/" style="fill-rule:evenodd;clip-rule:evenodd;stroke-linejoin:round;stroke-miterlimit:2;">
    <g>
        <g transform="matrix(241.925,139.676,-139.676,241.925,-63.3748,90.8635)">
            <path d="M0.348,-0L0.378,-0.169L0.04,-0.169L0.049,-0.222L0.454,-0.7L0.541,-0.7L0.458,-0.233L0.565,-0.233L0.554,-0.169L0.447,-0.169L0.417,-0L0.348,-0ZM0.135,-0.233L0.392,-0.233L0.46,-0.616L0.135,-0.233Z" style="fill:url(#_Linear1);fill-rule:nonzero;"/>
        </g>
        <g transform="matrix(398.311,106.727,-106.727,398.311,386.245,449.098)">
            <path d="M0.348,-0L0.378,-0.169L0.04,-0.169L0.049,-0.222L0.454,-0.7L0.541,-0.7L0.458,-0.233L0.565,-0.233L0.554,-0.169L0.447,-0.169L0.417,-0L0.348,-0ZM0.135,-0.233L0.392,-0.233L0.46,-0.616L0.135,-0.233Z" style="fill:url(#_Linear2);fill-rule:nonzero;"/>
        </g>
        <g transform="matrix(207.983,-120.079,120.079,207.983,67.4663,380.955)">
            <path d="M0.348,-0L0.378,-0.169L0.04,-0.169L0.049,-0.222L0.454,-0.7L0.541,-0.7L0.458,-0.233L0.565,-0.233L0.554,-0.169L0.447,-0.169L0.417,-0L0.348,-0ZM0.135,-0.233L0.392,-0.233L0.46,-0.616L0.135,-0.233Z" style="fill:url(#_Linear3);fill-rule:nonzero;"/>
        </g>
        <g transform="matrix(207.554,-16.2173,16.2173,207.554,276.224,186.278)">
            <path d="M0.287,-0L0.287,-0.162L0.024,-0.162L0.024,-0.219L0.317,-0.642L0.415,-0.642L0.415,-0.236L0.51,-0.236L0.51,-0.162L0.415,-0.162L0.415,-0L0.287,-0ZM0.068,-0.236L0.287,-0.236L0.287,-0.551L0.068,-0.236Z" style="fill:url(#_Linear4);fill-rule:nonzero;"/>
        </g>
        <g transform="matrix(58.9117,-10.865,10.865,58.9117,25.2174,217.248)">
            <path d="M0.287,-0L0.287,-0.162L0.024,-0.162L0.024,-0.219L0.317,-0.642L0.415,-0.642L0.415,-0.236L0.51,-0.236L0.51,-0.162L0.415,-0.162L0.415,-0L0.287,-0ZM0.068,-0.236L0.287,-0.236L0.287,-0.551L0.068,-0.236Z" style="fill:url(#_Linear5);fill-rule:nonzero;"/>
        </g>
        <g transform="matrix(322.524,54.9411,-54.9411,322.524,367.446,221.781)">
            <path d="M0.388,-0L0.388,-0.13L0.043,-0.13L0.043,-0.232L0.371,-0.7L0.516,-0.7L0.516,-0.241L0.608,-0.241L0.608,-0.13L0.516,-0.13L0.516,-0L0.388,-0ZM0.18,-0.241L0.396,-0.241L0.396,-0.559L0.18,-0.241Z" style="fill:url(#_Linear6);fill-rule:nonzero;"/>
        </g>
        <g transform="matrix(337.799,-195.028,195.028,337.799,741.03,362.439)">
            <path d="M0.248,0.02L0.283,-0.154L0.012,-0.154L0.027,-0.226L0.413,-0.641L0.494,-0.641L0.411,-0.231L0.513,-0.231L0.498,-0.154L0.395,-0.154L0.36,0.02L0.248,0.02ZM0.064,-0.231L0.299,-0.231L0.363,-0.55L0.064,-0.231Z" style="fill:url(#_Linear7);fill-rule:nonzero;"/>
        </g>
        <g transform="matrix(130.384,486.599,-486.599,130.384,546.58,-154.601)">
            <path d="M0.287,-0L0.287,-0.162L0.024,-0.162L0.024,-0.219L0.317,-0.642L0.415,-0.642L0.415,-0.236L0.51,-0.236L0.51,-0.162L0.415,-0.162L0.415,-0L0.287,-0ZM0.068,-0.236L0.287,-0.236L0.287,-0.551L0.068,-0.236Z" style="fill:url(#_Linear8);fill-rule:nonzero;"/>
        </g>
        <g transform="matrix(196.083,-52.5403,52.5403,196.083,393.8,362.274)">
            <path d="M0.287,-0L0.287,-0.162L0.024,-0.162L0.024,-0.219L0.317,-0.642L0.415,-0.642L0.415,-0.236L0.51,-0.236L0.51,-0.162L0.415,-0.162L0.415,-0L0.287,-0ZM0.068,-0.236L0.287,-0.236L0.287,-0.551L0.068,-0.236Z" style="fill:url(#_Linear9);fill-rule:nonzero;"/>
        </g>
        <g transform="matrix(251.24,-27.6619,27.6619,251.24,121.855,226.746)">
            <path d="M0.261,0.012C0.191,0.012 0.137,-0.014 0.099,-0.065C0.06,-0.116 0.041,-0.187 0.041,-0.278C0.041,-0.331 0.048,-0.384 0.063,-0.436C0.078,-0.487 0.099,-0.534 0.128,-0.576C0.156,-0.617 0.191,-0.65 0.233,-0.675C0.274,-0.7 0.322,-0.712 0.375,-0.712C0.445,-0.712 0.499,-0.686 0.538,-0.635C0.576,-0.584 0.595,-0.513 0.595,-0.422C0.595,-0.368 0.588,-0.315 0.573,-0.264C0.558,-0.213 0.537,-0.166 0.508,-0.125C0.48,-0.083 0.445,-0.05 0.404,-0.025C0.362,-0 0.314,0.012 0.261,0.012ZM0.151,-0.289C0.151,-0.246 0.156,-0.208 0.167,-0.177L0.412,-0.601C0.398,-0.609 0.382,-0.613 0.365,-0.613C0.333,-0.613 0.304,-0.603 0.278,-0.584C0.251,-0.565 0.229,-0.539 0.21,-0.507C0.191,-0.476 0.176,-0.441 0.166,-0.403C0.156,-0.364 0.151,-0.326 0.151,-0.289ZM0.271,-0.086C0.303,-0.086 0.332,-0.096 0.359,-0.115C0.385,-0.134 0.407,-0.16 0.427,-0.192C0.446,-0.224 0.46,-0.259 0.47,-0.298C0.48,-0.336 0.485,-0.374 0.485,-0.411C0.485,-0.454 0.48,-0.492 0.469,-0.523L0.223,-0.098C0.238,-0.09 0.254,-0.086 0.271,-0.086Z" style="fill:url(#_Linear10);fill-rule:nonzero;"/>
        </g>
        <g transform="matrix(174.559,35.188,-35.188,174.559,358.397,64.2106)">
            <path d="M0.261,0.012C0.191,0.012 0.137,-0.014 0.099,-0.065C0.06,-0.116 0.041,-0.187 0.041,-0.278C0.041,-0.331 0.048,-0.384 0.063,-0.436C0.078,-0.487 0.099,-0.534 0.128,-0.576C0.156,-0.617 0.191,-0.65 0.233,-0.675C0.274,-0.7 0.322,-0.712 0.375,-0.712C0.445,-0.712 0.499,-0.686 0.538,-0.635C0.576,-0.584 0.595,-0.513 0.595,-0.422C0.595,-0.368 0.588,-0.315 0.573,-0.264C0.558,-0.213 0.537,-0.166 0.508,-0.125C0.48,-0.083 0.445,-0.05 0.404,-0.025C0.362,-0 0.314,0.012 0.261,0.012ZM0.151,-0.289C0.151,-0.246 0.156,-0.208 0.167,-0.177L0.412,-0.601C0.398,-0.609 0.382,-0.613 0.365,-0.613C0.333,-0.613 0.304,-0.603 0.278,-0.584C0.251,-0.565 0.229,-0.539 0.21,-0.507C0.191,-0.476 0.176,-0.441 0.166,-0.403C0.156,-0.364 0.151,-0.326 0.151,-0.289ZM0.271,-0.086C0.303,-0.086 0.332,-0.096 0.359,-0.115C0.385,-0.134 0.407,-0.16 0.427,-0.192C0.446,-0.224 0.46,-0.259 0.47,-0.298C0.48,-0.336 0.485,-0.374 0.485,-0.411C0.485,-0.454 0.48,-0.492 0.469,-0.523L0.223,-0.098C0.238,-0.09 0.254,-0.086 0.271,-0.086Z" style="fill:url(#_Linear11);fill-rule:nonzero;"/>
        </g>
        <g transform="matrix(178.847,-47.9219,47.9219,178.847,603.837,218.527)">
            <path d="M0.347,0.012C0.285,0.012 0.232,-0.003 0.187,-0.034C0.141,-0.064 0.107,-0.106 0.083,-0.161C0.059,-0.215 0.047,-0.278 0.047,-0.35C0.047,-0.422 0.059,-0.485 0.083,-0.54C0.107,-0.594 0.141,-0.636 0.187,-0.667C0.232,-0.697 0.285,-0.712 0.347,-0.712C0.409,-0.712 0.462,-0.697 0.507,-0.667C0.552,-0.636 0.586,-0.594 0.61,-0.54C0.634,-0.485 0.646,-0.422 0.646,-0.35C0.646,-0.278 0.634,-0.215 0.61,-0.161C0.586,-0.106 0.552,-0.064 0.507,-0.034C0.462,-0.003 0.409,0.012 0.347,0.012ZM0.347,-0.062C0.388,-0.062 0.424,-0.074 0.457,-0.097C0.489,-0.119 0.514,-0.153 0.533,-0.196C0.551,-0.238 0.56,-0.29 0.56,-0.35C0.56,-0.41 0.551,-0.461 0.533,-0.504C0.514,-0.547 0.489,-0.58 0.457,-0.603C0.424,-0.625 0.388,-0.637 0.347,-0.637C0.306,-0.637 0.269,-0.625 0.237,-0.603C0.205,-0.58 0.18,-0.547 0.161,-0.504C0.142,-0.461 0.133,-0.41 0.133,-0.35C0.133,-0.29 0.142,-0.238 0.161,-0.196C0.18,-0.153 0.205,-0.119 0.237,-0.097C0.269,-0.074 0.306,-0.062 0.347,-0.062Z" style="fill:url(#_Linear12);fill-rule:nonzero;"/>
        </g>
        <g transform="matrix(193.091,147.632,-147.632,193.091,804.732,99.8706)">
            <path d="M0.251,0.015C0.211,0.015 0.173,0.004 0.139,-0.019C0.103,-0.042 0.075,-0.077 0.054,-0.126C0.033,-0.175 0.022,-0.238 0.022,-0.316C0.022,-0.395 0.033,-0.459 0.054,-0.507C0.075,-0.557 0.103,-0.592 0.139,-0.615C0.173,-0.638 0.211,-0.649 0.251,-0.649C0.291,-0.649 0.329,-0.638 0.364,-0.615C0.399,-0.592 0.427,-0.557 0.449,-0.507C0.47,-0.459 0.481,-0.395 0.481,-0.316C0.481,-0.238 0.47,-0.175 0.449,-0.126C0.427,-0.077 0.399,-0.042 0.364,-0.019C0.329,0.004 0.291,0.015 0.251,0.015ZM0.251,-0.005C0.268,-0.005 0.282,-0.009 0.294,-0.018C0.305,-0.027 0.315,-0.042 0.322,-0.065C0.329,-0.088 0.335,-0.119 0.338,-0.16C0.341,-0.2 0.343,-0.252 0.343,-0.316C0.343,-0.38 0.341,-0.433 0.338,-0.473C0.335,-0.515 0.329,-0.546 0.322,-0.569C0.315,-0.592 0.305,-0.607 0.294,-0.616C0.282,-0.625 0.268,-0.629 0.251,-0.629C0.234,-0.629 0.22,-0.625 0.209,-0.616C0.197,-0.607 0.187,-0.592 0.18,-0.57C0.173,-0.547 0.167,-0.516 0.164,-0.474C0.161,-0.434 0.159,-0.381 0.159,-0.316C0.159,-0.252 0.161,-0.2 0.164,-0.159C0.167,-0.118 0.173,-0.087 0.18,-0.065C0.187,-0.042 0.197,-0.027 0.209,-0.018C0.22,-0.009 0.234,-0.005 0.251,-0.005Z" style="fill:url(#_Linear13);fill-rule:nonzero;"/>
        </g>
        <g transform="matrix(121.212,-37.213,37.213,121.212,264.862,73.0486)">
            <path d="M0.229,0.013C0.172,0.013 0.127,-0.006 0.093,-0.043C0.059,-0.08 0.042,-0.133 0.042,-0.204C0.042,-0.267 0.05,-0.326 0.066,-0.38C0.082,-0.433 0.104,-0.48 0.132,-0.52C0.16,-0.56 0.192,-0.591 0.229,-0.614C0.265,-0.636 0.303,-0.647 0.343,-0.647C0.4,-0.647 0.446,-0.629 0.479,-0.592C0.512,-0.555 0.529,-0.501 0.529,-0.429C0.529,-0.364 0.521,-0.304 0.504,-0.25C0.487,-0.196 0.465,-0.149 0.437,-0.11C0.408,-0.071 0.376,-0.04 0.341,-0.019C0.305,0.002 0.268,0.013 0.229,0.013ZM0.235,-0.007C0.252,-0.007 0.269,-0.016 0.286,-0.033C0.303,-0.05 0.318,-0.074 0.333,-0.104C0.347,-0.134 0.36,-0.168 0.371,-0.206C0.382,-0.245 0.39,-0.285 0.397,-0.328C0.403,-0.371 0.406,-0.413 0.406,-0.454C0.406,-0.5 0.403,-0.536 0.397,-0.561C0.39,-0.586 0.382,-0.603 0.372,-0.613C0.361,-0.622 0.35,-0.627 0.338,-0.627C0.317,-0.627 0.297,-0.615 0.276,-0.591C0.255,-0.566 0.237,-0.533 0.22,-0.492C0.203,-0.45 0.19,-0.403 0.18,-0.35C0.17,-0.298 0.165,-0.244 0.165,-0.187C0.165,-0.138 0.168,-0.101 0.174,-0.076C0.18,-0.05 0.188,-0.032 0.199,-0.022C0.21,-0.012 0.222,-0.007 0.235,-0.007Z" style="fill:url(#_Linear14);fill-rule:nonzero;"/>
        </g>
        <g transform="matrix(80.001,6.33069,-6.33069,80.001,178.109,301.972)">
            <path d="M0.261,0.012C0.191,0.012 0.137,-0.014 0.099,-0.065C0.06,-0.116 0.041,-0.187 0.041,-0.278C0.041,-0.331 0.048,-0.384 0.063,-0.436C0.078,-0.487 0.099,-0.534 0.128,-0.576C0.156,-0.617 0.191,-0.65 0.233,-0.675C0.274,-0.7 0.322,-0.712 0.375,-0.712C0.445,-0.712 0.499,-0.686 0.538,-0.635C0.576,-0.584 0.595,-0.513 0.595,-0.422C0.595,-0.368 0.588,-0.315 0.573,-0.264C0.558,-0.213 0.537,-0.166 0.508,-0.125C0.48,-0.083 0.445,-0.05 0.404,-0.025C0.362,-0 0.314,0.012 0.261,0.012ZM0.151,-0.289C0.151,-0.246 0.156,-0.208 0.167,-0.177L0.412,-0.601C0.398,-0.609 0.382,-0.613 0.365,-0.613C0.333,-0.613 0.304,-0.603 0.278,-0.584C0.251,-0.565 0.229,-0.539 0.21,-0.507C0.191,-0.476 0.176,-0.441 0.166,-0.403C0.156,-0.364 0.151,-0.326 0.151,-0.289ZM0.271,-0.086C0.303,-0.086 0.332,-0.096 0.359,-0.115C0.385,-0.134 0.407,-0.16 0.427,-0.192C0.446,-0.224 0.46,-0.259 0.47,-0.298C0.48,-0.336 0.485,-0.374 0.485,-0.411C0.485,-0.454 0.48,-0.492 0.469,-0.523L0.223,-0.098C0.238,-0.09 0.254,-0.086 0.271,-0.086Z" style="fill:url(#_Linear15);fill-rule:nonzero;"/>
        </g>
        <g transform="matrix(118.247,-31.6843,31.6843,118.247,-23.4342,327.446)">
            <path d="M0.229,0.013C0.172,0.013 0.127,-0.006 0.093,-0.043C0.059,-0.08 0.042,-0.133 0.042,-0.204C0.042,-0.267 0.05,-0.326 0.066,-0.38C0.082,-0.433 0.104,-0.48 0.132,-0.52C0.16,-0.56 0.192,-0.591 0.229,-0.614C0.265,-0.636 0.303,-0.647 0.343,-0.647C0.4,-0.647 0.446,-0.629 0.479,-0.592C0.512,-0.555 0.529,-0.501 0.529,-0.429C0.529,-0.364 0.521,-0.304 0.504,-0.25C0.487,-0.196 0.465,-0.149 0.437,-0.11C0.408,-0.071 0.376,-0.04 0.341,-0.019C0.305,0.002 0.268,0.013 0.229,0.013ZM0.235,-0.007C0.252,-0.007 0.269,-0.016 0.286,-0.033C0.303,-0.05 0.318,-0.074 0.333,-0.104C0.347,-0.134 0.36,-0.168 0.371,-0.206C0.382,-0.245 0.39,-0.285 0.397,-0.328C0.403,-0.371 0.406,-0.413 0.406,-0.454C0.406,-0.5 0.403,-0.536 0.397,-0.561C0.39,-0.586 0.382,-0.603 0.372,-0.613C0.361,-0.622 0.35,-0.627 0.338,-0.627C0.317,-0.627 0.297,-0.615 0.276,-0.591C0.255,-0.566 0.237,-0.533 0.22,-0.492C0.203,-0.45 0.19,-0.403 0.18,-0.35C0.17,-0.298 0.165,-0.244 0.165,-0.187C0.165,-0.138 0.168,-0.101 0.174,-0.076C0.18,-0.05 0.188,-0.032 0.199,-0.022C0.21,-0.012 0.222,-0.007 0.235,-0.007Z" style="fill:url(#_Linear16);fill-rule:nonzero;"/>
        </g>
        <g transform="matrix(202.292,-80.7507,80.7507,202.292,277.735,361.017)">
            <path d="M0.229,0.013C0.172,0.013 0.127,-0.006 0.093,-0.043C0.059,-0.08 0.042,-0.133 0.042,-0.204C0.042,-0.267 0.05,-0.326 0.066,-0.38C0.082,-0.433 0.104,-0.48 0.132,-0.52C0.16,-0.56 0.192,-0.591 0.229,-0.614C0.265,-0.636 0.303,-0.647 0.343,-0.647C0.4,-0.647 0.446,-0.629 0.479,-0.592C0.512,-0.555 0.529,-0.501 0.529,-0.429C0.529,-0.364 0.521,-0.304 0.504,-0.25C0.487,-0.196 0.465,-0.149 0.437,-0.11C0.408,-0.071 0.376,-0.04 0.341,-0.019C0.305,0.002 0.268,0.013 0.229,0.013ZM0.235,-0.007C0.252,-0.007 0.269,-0.016 0.286,-0.033C0.303,-0.05 0.318,-0.074 0.333,-0.104C0.347,-0.134 0.36,-0.168 0.371,-0.206C0.382,-0.245 0.39,-0.285 0.397,-0.328C0.403,-0.371 0.406,-0.413 0.406,-0.454C0.406,-0.5 0.403,-0.536 0.397,-0.561C0.39,-0.586 0.382,-0.603 0.372,-0.613C0.361,-0.622 0.35,-0.627 0.338,-0.627C0.317,-0.627 0.297,-0.615 0.276,-0.591C0.255,-0.566 0.237,-0.533 0.22,-0.492C0.203,-0.45 0.19,-0.403 0.18,-0.35C0.17,-0.298 0.165,-0.244 0.165,-0.187C0.165,-0.138 0.168,-0.101 0.174,-0.076C0.18,-0.05 0.188,-0.032 0.199,-0.022C0.21,-0.012 0.222,-0.007 0.235,-0.007Z" style="fill:url(#_Linear17);fill-rule:nonzero;"/>
        </g>
    </g>
    <defs>
        <linearGradient id="_Linear1" x1="0" y1="0" x2="1" y2="0" gradientUnits="userSpaceOnUse" gradientTransform="matrix(0.536958,0.930038,-0.930038,0.536958,1.42889,-1.20056)"><stop offset="0" style="stop-color:rgb(230,56,70);stop-opacity:0.188235"/><stop offset="1" style="stop-color:rgb(230,56,70);stop-opacity:0"/></linearGradient>
        <linearGradient id="_Linear2" x1="0" y1="0" x2="1" y2="0" gradientUnits="userSpaceOnUse" gradientTransform="matrix(0.188295,0.702727,-0.702727,0.188295,-0.132536,-1.09199)"><stop offset="0" style="stop-color:rgb(230,56,70);stop-opacity:0.0627451"/><stop offset="1" style="stop-color:rgb(230,56,70);stop-opacity:0"/></linearGradient>
        <linearGradient id="_Linear3" x1="0" y1="0" x2="1" y2="0" gradientUnits="userSpaceOnUse" gradientTransform="matrix(-0.62459,1.08182,-1.08182,-0.62459,2.17258,-0.577329)"><stop offset="0" style="stop-color:rgb(230,56,70);stop-opacity:0.188235"/><stop offset="1" style="stop-color:rgb(230,56,70);stop-opacity:0"/></linearGradient>
        <linearGradient id="_Linear4" x1="0" y1="0" x2="1" y2="0" gradientUnits="userSpaceOnUse" gradientTransform="matrix(-0.112252,1.43663,-1.43663,-0.112252,0.901873,-0.827021)"><stop offset="0" style="stop-color:rgb(230,56,70);stop-opacity:0.12549"/><stop offset="1" style="stop-color:rgb(230,56,70);stop-opacity:0"/></linearGradient>
        <linearGradient id="_Linear5" x1="0" y1="0" x2="1" y2="0" gradientUnits="userSpaceOnUse" gradientTransform="matrix(-0.908281,4.92485,-4.92485,-0.908281,7.63105,-2.28031)"><stop offset="0" style="stop-color:rgb(230,56,70);stop-opacity:0.12549"/><stop offset="1" style="stop-color:rgb(230,56,70);stop-opacity:0"/></linearGradient>
        <linearGradient id="_Linear6" x1="0" y1="0" x2="1" y2="0" gradientUnits="userSpaceOnUse" gradientTransform="matrix(0.153982,0.903932,-0.903932,0.153982,0.134909,-0.710621)"><stop offset="0" style="stop-color:rgb(230,56,70);stop-opacity:0.25098"/><stop offset="1" style="stop-color:rgb(230,56,70);stop-opacity:0"/></linearGradient>
        <linearGradient id="_Linear7" x1="0" y1="0" x2="1" y2="0" gradientUnits="userSpaceOnUse" gradientTransform="matrix(-0.38456,0.666077,-0.666077,-0.38456,-0.181564,-1.17777)"><stop offset="0" style="stop-color:rgb(230,56,70);stop-opacity:0.25098"/><stop offset="1" style="stop-color:rgb(230,56,70);stop-opacity:0"/></linearGradient>
        <linearGradient id="_Linear8" x1="0" y1="0" x2="1" y2="0" gradientUnits="userSpaceOnUse" gradientTransform="matrix(0.575225,0.154131,-0.154131,0.575225,0.246815,0.264613)"><stop offset="0" style="stop-color:rgb(230,56,70);stop-opacity:0.12549"/><stop offset="1" style="stop-color:rgb(230,56,70);stop-opacity:0"/></linearGradient>
        <linearGradient id="_Linear9" x1="0" y1="0" x2="1" y2="0" gradientUnits="userSpaceOnUse" gradientTransform="matrix(-0.382491,1.42747,-1.42747,-0.382491,0.7293,-1.65214)"><stop offset="0" style="stop-color:rgb(230,56,70);stop-opacity:0.188235"/><stop offset="1" style="stop-color:rgb(230,56,70);stop-opacity:0"/></linearGradient>
        <linearGradient id="_Linear10" x1="0" y1="0" x2="1" y2="0" gradientUnits="userSpaceOnUse" gradientTransform="matrix(-0.129894,1.17977,-1.17977,-0.129894,1.38863,-0.749615)"><stop offset="0" style="stop-color:rgb(230,56,70);stop-opacity:0.12549"/><stop offset="1" style="stop-color:rgb(230,56,70);stop-opacity:0"/></linearGradient>
        <linearGradient id="_Linear11" x1="0" y1="0" x2="1" y2="0" gradientUnits="userSpaceOnUse" gradientTransform="matrix(0.332915,1.65151,-1.65151,0.332915,0.433019,-0.455134)"><stop offset="0" style="stop-color:rgb(230,56,70);stop-opacity:0.12549"/><stop offset="1" style="stop-color:rgb(230,56,70);stop-opacity:0"/></linearGradient>
        <linearGradient id="_Linear12" x1="0" y1="0" x2="1" y2="0" gradientUnits="userSpaceOnUse" gradientTransform="matrix(-0.419353,1.56505,-1.56505,-0.419353,-0.497074,-1.35506)"><stop offset="0" style="stop-color:rgb(230,56,70);stop-opacity:0.25098"/><stop offset="1" style="stop-color:rgb(230,56,70);stop-opacity:0"/></linearGradient>
        <linearGradient id="_Linear13" x1="0" y1="0" x2="1" y2="0" gradientUnits="userSpaceOnUse" gradientTransform="matrix(0.749662,0.980502,-0.980502,0.749662,-1.40895,0.560018)"><stop offset="0" style="stop-color:rgb(230,56,70);stop-opacity:0.188235"/><stop offset="1" style="stop-color:rgb(230,56,70);stop-opacity:0"/></linearGradient>
        <linearGradient id="_Linear14" x1="0" y1="0" x2="1" y2="0" gradientUnits="userSpaceOnUse" gradientTransform="matrix(-0.694394,2.26182,-2.26182,-0.694394,1.56491,-0.122212)"><stop offset="0" style="stop-color:rgb(230,56,70);stop-opacity:0.0627451"/><stop offset="1" style="stop-color:rgb(230,56,70);stop-opacity:0"/></linearGradient>
        <linearGradient id="_Linear15" x1="0" y1="0" x2="1" y2="0" gradientUnits="userSpaceOnUse" gradientTransform="matrix(0.294897,3.72662,-3.72662,0.294897,3.08061,-4.01838)"><stop offset="0" style="stop-color:rgb(230,56,70);stop-opacity:0.12549"/><stop offset="1" style="stop-color:rgb(230,56,70);stop-opacity:0"/></linearGradient>
        <linearGradient id="_Linear16" x1="0" y1="0" x2="1" y2="0" gradientUnits="userSpaceOnUse" gradientTransform="matrix(-0.634264,2.36711,-2.36711,-0.634264,4.42785,-1.58273)"><stop offset="0" style="stop-color:rgb(230,56,70);stop-opacity:0.0627451"/><stop offset="1" style="stop-color:rgb(230,56,70);stop-opacity:0"/></linearGradient>
        <linearGradient id="_Linear17" x1="0" y1="0" x2="1" y2="0" gradientUnits="userSpaceOnUse" gradientTransform="matrix(-0.510619,1.27918,-1.27918,-0.510619,1.349,-1.24614)"><stop offset="0" style="stop-color:rgb(230,56,70);stop-opacity:0.0627451"/><stop offset="1" style="stop-color:rgb(230,56,70);stop-opacity:0"/></linearGradient>
    </defs>
</svg>
