<?xml version="1.0" encoding="UTF-8" standalone="no"?>
<!DOCTYPE svg PUBLIC "-//W3C//DTD SVG 1.1//EN" "http://www.w3.org/Graphics/SVG/1.1/DTD/svg11.dtd">
<svg width="100%" height="100%" viewBox="0 0 900 300" version="1.1" xmlns="http://www.w3.org/2000/svg" xmlns:xlink="http://www.w3.org/1999/xlink" xml:space="preserve" xmlns:serif="http://www.serif.com/" style="fill-rule:evenodd;clip-rule:evenodd;stroke-linejoin:round;stroke-miterlimit:2;">
    <g opacity="0.25">
        <path d="M0,120.209L0,105.026L49.493,115.704L0,120.209ZM900,9.122L700.879,56.416L242.567,98.131L117.752,71.2L900,0.001L900,9.122Z" style="fill:url(#_Linear1);"/>
        <path d="M0,90.475L-6.489,91.061L-4.674,111.157L8.243,109.991L7.95,106.741L5.52,106.216L-0.76,106.784L-1.141,102.559L0,102.456L0,98.436L-1.501,98.571L-1.852,94.691L0,94.524L0,90.475ZM218.003,91.426C224.035,90.882 228.07,85.918 227.538,80.03C227.012,74.199 222.182,70.036 216.121,70.584C210.118,71.126 206.049,76.034 206.581,81.922C207.118,87.868 211.943,91.973 218.003,91.426ZM190.412,86.878L194.808,87.826L194.628,85.837L196.668,85.653L198.543,88.632L204.382,89.892L200.802,84.614C203.028,83.314 204.101,81.106 203.857,78.405C203.517,74.643 200.334,72.386 196.113,72.767L189.195,73.391L190.412,86.878ZM238.275,89.596C242.985,89.171 245.605,86.157 245.294,82.713C244.545,74.42 234.509,78.687 234.169,74.921C234.083,73.97 234.739,72.894 236.578,72.728C238.417,72.562 239.616,73.645 239.759,75.23L244.062,74.842C243.615,69.894 239.61,68.463 236.336,68.758C231.971,69.153 229.609,72.142 229.894,75.307C230.628,83.429 240.511,78.75 240.902,83.08C241.011,84.286 240.086,85.267 238.046,85.452C236.121,85.625 234.437,84.619 234.261,82.667L229.986,83.053C230.383,87.445 233.852,89.995 238.275,89.596ZM255.503,88.04C260.213,87.615 262.833,84.602 262.522,81.157C261.773,72.865 251.737,77.131 251.397,73.366C251.312,72.414 251.967,71.338 253.806,71.172C255.645,71.006 256.844,72.089 256.987,73.675L261.29,73.286C260.844,68.339 256.839,66.907 253.564,67.203C249.199,67.597 246.837,70.587 247.123,73.752C247.856,81.873 257.739,77.195 258.13,81.525C258.239,82.731 257.314,83.712 255.274,83.896C253.349,84.07 251.665,83.064 251.489,81.111L247.214,81.497C247.611,85.889 251.08,88.439 255.503,88.04ZM217.63,87.295C214.126,87.611 211.329,85.171 210.999,81.523C210.675,77.933 212.99,75.031 216.494,74.715C219.941,74.404 222.796,76.839 223.12,80.429C223.449,84.077 221.077,86.984 217.63,87.295ZM314.224,82.767C318.818,82.352 322.461,79.42 323.375,74.475L318.809,74.887C318.059,77.155 316.03,78.41 313.848,78.607C310.402,78.918 307.634,76.475 307.307,72.856C306.983,69.266 309.266,66.338 312.712,66.027C315.009,65.819 317.18,66.781 318.262,68.826L322.828,68.414C321.045,63.741 316.933,61.481 312.339,61.896C306.194,62.45 302.358,67.367 302.889,73.255C303.423,79.172 308.079,83.322 314.224,82.767ZM167.128,81.854L171.464,82.789C172.079,80.339 174.043,78.548 176.695,78.309C178.992,78.101 181.164,79.063 182.246,81.108L186.811,80.696C185.029,76.023 180.916,73.763 176.322,74.177C171.52,74.611 168.127,77.709 167.128,81.854ZM194.278,81.964L193.829,76.993L196.387,76.762C198.312,76.588 199.301,77.6 199.418,78.893C199.568,80.559 198.531,81.58 196.979,81.72L194.278,81.964ZM327.026,81.205L331.301,80.82L330.645,73.555L332.685,73.371L337.047,80.301L341.925,79.86L336.819,72.332C339.044,71.032 340.118,68.824 339.874,66.123C339.534,62.361 336.351,60.104 332.129,60.485L325.211,61.11L327.026,81.205ZM157.225,79.717L145.99,77.293L156.917,76.306L157.225,79.717ZM344.225,79.652L353.956,78.774L353.603,74.872L350.847,75.121L349.737,62.828L352.493,62.579L352.141,58.678L342.411,59.556L342.763,63.458L345.462,63.214L346.572,75.507L343.873,75.751L344.225,79.652ZM271.787,79.535L293.721,77.555L293.384,73.826L271.451,75.806L271.787,79.535ZM357.836,78.423L361.995,78.048L360.569,62.255L360.914,62.224L365.184,77.76L371.359,77.202L372.805,61.15L373.121,61.122L374.547,76.914L378.707,76.539L376.892,56.443L369.401,57.119L368.041,73.163L367.725,73.192L363.513,57.651L356.021,58.327L357.836,78.423ZM382.73,76.176L395.648,75.009L395.288,71.022L386.645,71.802L386.264,67.577L393.471,66.927L393.111,62.939L385.903,63.59L385.553,59.71L393.909,58.955L393.546,54.939L380.916,56.08L382.73,76.176ZM412.653,73.85C417.363,73.425 419.983,70.411 419.672,66.967C418.923,58.674 408.887,62.941 408.547,59.175C408.461,58.224 409.117,57.148 410.956,56.982C412.795,56.816 413.994,57.899 414.137,59.484L418.44,59.096C417.994,54.148 413.988,52.717 410.714,53.013C406.349,53.407 403.987,56.396 404.273,59.561C405.006,67.683 414.889,63.004 415.28,67.334C415.389,68.541 414.464,69.522 412.424,69.706C410.499,69.88 408.815,68.874 408.639,66.921L404.364,67.307C404.761,71.699 408.23,74.249 412.653,73.85ZM432.782,72.061C437.376,71.646 441.02,68.714 441.934,63.769L437.368,64.181C436.618,66.45 434.589,67.704 432.407,67.901C428.961,68.212 426.193,65.77 425.866,62.151C425.542,58.56 427.825,55.632 431.271,55.321C433.568,55.114 435.739,56.076 436.821,58.121L441.386,57.709C439.604,53.036 435.492,50.775 430.898,51.19C424.753,51.745 420.916,56.661 421.448,62.55C421.982,68.466 426.638,72.616 432.782,72.061ZM445.585,70.5L458.502,69.334L458.142,65.346L449.499,66.126L449.118,61.902L456.325,61.251L455.965,57.263L448.758,57.914L448.407,54.034L456.763,53.28L456.4,49.264L443.77,50.404L445.585,70.5ZM330.295,69.682L329.846,64.711L332.403,64.48C334.328,64.306 335.318,65.318 335.434,66.611C335.585,68.278 334.547,69.298 332.996,69.438L330.295,69.682ZM461.664,69.048L465.939,68.662L464.513,52.87L464.829,52.841L470.794,68.224L478.142,67.56L476.328,47.464L472.082,47.848L473.508,63.64L473.22,63.666L467.141,48.294L459.85,48.952L461.664,69.048ZM482.166,67.197L495.083,66.03L494.723,62.043L486.08,62.823L485.699,58.599L492.906,57.948L492.546,53.96L485.339,54.611L484.989,50.731L493.344,49.977L492.982,45.96L480.351,47.101L482.166,67.197ZM536.406,62.299L544.299,61.586C550.82,60.998 554.176,56.848 553.613,50.615C553.084,44.756 549.005,40.902 542.485,41.49L534.591,42.203L534.923,45.875L536.646,45.719L537.797,58.472L536.074,58.627L536.406,62.299ZM567.334,59.883C573.365,59.338 577.4,54.374 576.869,48.486C576.342,42.656 571.512,38.493 565.452,39.04C559.449,39.582 555.38,44.491 555.911,50.379C556.448,56.324 561.273,60.43 567.334,59.883ZM503.966,58.57L525.9,56.59L525.563,52.861L503.629,54.841L503.966,58.57ZM541.999,57.919L540.881,45.539L542.835,45.363C546.54,45.028 548.863,47.338 549.195,51.014C549.543,54.863 547.629,57.41 543.952,57.742L541.999,57.919ZM588.119,57.629L592.394,57.243L590.968,41.451L591.284,41.422L597.249,56.805L604.597,56.142L602.783,36.046L598.537,36.429L599.963,52.222L599.675,52.247L593.596,36.875L586.305,37.534L588.119,57.629ZM566.961,55.752C563.457,56.068 560.659,53.628 560.33,49.98C560.006,46.39 562.321,43.488 565.825,43.171C569.271,42.86 572.126,45.295 572.45,48.885C572.78,52.533 570.407,55.44 566.961,55.752ZM618.272,55.283C624.303,54.738 628.338,49.775 627.807,43.887C627.28,38.056 622.45,33.893 616.39,34.441C610.387,34.983 606.318,39.891 606.849,45.779C607.386,51.725 612.211,55.83 618.272,55.283ZM635.956,53.31L640.202,52.927L638.75,36.847L644.12,36.362L643.757,32.346L628.772,33.699L629.135,37.715L634.504,37.23L635.956,53.31ZM617.899,51.152C614.395,51.468 611.597,49.028 611.268,45.38C610.944,41.79 613.259,38.888 616.763,38.572C620.209,38.261 623.064,40.696 623.388,44.286C623.718,47.934 621.345,50.841 617.899,51.152ZM665.047,51.088C669.641,50.674 673.284,47.741 674.198,42.796L669.633,43.208C668.883,45.477 666.854,46.731 664.671,46.928C661.226,47.24 658.458,44.797 658.131,41.178C657.807,37.587 660.09,34.659 663.536,34.348C665.833,34.141 668.004,35.103 669.086,37.148L673.651,36.736C671.869,32.063 667.757,29.802 663.162,30.217C657.018,30.772 653.181,35.689 653.713,41.577C654.247,47.493 658.903,51.643 665.047,51.088ZM677.849,49.527L682.124,49.141L681.468,41.877L683.508,41.692L687.87,48.622L692.748,48.182L687.642,40.654C689.868,39.354 690.941,37.146 690.697,34.445C690.358,30.683 687.174,28.425 682.953,28.806L676.035,29.431L677.849,49.527ZM704.843,47.466C710.875,46.921 714.91,41.958 714.379,36.07C713.852,30.239 709.022,26.076 702.961,26.623C696.958,27.165 692.889,32.074 693.421,37.962C693.958,43.908 698.783,48.013 704.843,47.466ZM725.115,45.635C729.825,45.21 732.445,42.197 732.134,38.752C731.385,30.46 721.349,34.726 721.009,30.961C720.924,30.01 721.579,28.933 723.418,28.767C725.257,28.601 726.456,29.685 726.599,31.27L730.902,30.881C730.456,25.934 726.451,24.502 723.176,24.798C718.811,25.192 716.449,28.182 716.735,31.347C717.468,39.469 727.351,34.79 727.742,39.12C727.851,40.326 726.926,41.307 724.886,41.491C722.961,41.665 721.277,40.659 721.101,38.706L716.826,39.092C717.223,43.485 720.692,46.035 725.115,45.635ZM742.344,44.08C747.053,43.655 749.673,40.641 749.362,37.197C748.614,28.904 738.578,33.171 738.238,29.405C738.152,28.454 738.808,27.378 740.646,27.212C742.485,27.046 743.684,28.129 743.827,29.714L748.131,29.326C747.684,24.378 743.679,22.947 740.404,23.242C736.039,23.637 733.677,26.626 733.963,29.791C734.696,37.913 744.579,33.234 744.97,37.564C745.079,38.77 744.154,39.751 742.114,39.936C740.189,40.109 738.505,39.103 738.329,37.151L734.054,37.537C734.451,41.929 737.921,44.479 742.344,44.08ZM704.47,43.335C700.966,43.651 698.169,41.211 697.839,37.563C697.515,33.973 699.83,31.071 703.334,30.755C706.781,30.443 709.636,32.878 709.96,36.469C710.29,40.116 707.917,43.024 704.47,43.335ZM681.118,38.004L680.67,33.033L683.227,32.802C685.152,32.628 686.141,33.639 686.258,34.933C686.408,36.599 685.371,37.62 683.819,37.76L681.118,38.004ZM758.628,35.575L780.561,33.595L780.224,29.865L758.291,31.846L758.628,35.575ZM791.763,34.83L796.757,33.644C795.312,32.638 794.334,30.957 794.148,28.896C793.823,25.305 796.106,22.378 799.552,22.066C801.849,21.859 804.02,22.821 805.102,24.866L809.668,24.454C807.885,19.781 803.773,17.52 799.179,17.935C793.035,18.49 789.198,23.407 789.729,29.295C789.92,31.411 790.638,33.3 791.763,34.83ZM809.761,30.555L805.65,30.927C805.572,31.161 805.481,31.384 805.377,31.596L809.761,30.555ZM900,17.294L900,21.385C901.172,21.665 902.012,22.172 902.12,23.374C902.215,24.424 901.526,25.304 900,25.635L900,29.832C904.39,29.244 906.812,26.325 906.512,23.006C906.1,18.442 902.875,17.683 900,17.294ZM813.188,29.741L825.462,26.826C826.444,25.58 826.878,23.984 826.714,22.163C826.374,18.401 823.191,16.143 818.97,16.525L812.051,17.149L813.188,29.741ZM817.135,25.722L816.686,20.751L819.243,20.52C821.169,20.346 822.158,21.358 822.275,22.651C822.425,24.317 821.388,25.338 819.836,25.478L817.135,25.722ZM832.828,25.077L837.047,24.074L836.577,18.868L839.334,18.619L838.981,14.718L829.251,15.596L829.603,19.498L832.302,19.254L832.828,25.077ZM852.192,20.477L850.353,13.691L842.861,14.367L843.597,22.519L847.703,21.544L847.41,18.295L847.754,18.264L848.597,21.331L852.192,20.477ZM864.197,17.626L863.732,12.483L856.241,13.159L855.691,19.646L859.506,18.74L859.645,17.19L859.961,17.162L860.091,18.601L864.197,17.626ZM880.634,13.722L880.386,10.979L867.756,12.119L868.168,16.683L880.634,13.722ZM900,9.167L900,13.598C900.561,14.046 900.904,14.721 900.977,15.524L905.28,15.135C904.942,11.386 902.559,9.656 900,9.167ZM893.156,10.748L899.895,9.147C899.111,9.008 898.313,8.984 897.554,9.052C895.718,9.218 894.236,9.843 893.156,10.748Z" style="fill:rgb(17,18,18);fill-rule:nonzero;"/>
        <path d="M560.743,166.783L900,239.983L900,299.216L430.067,197.82L560.743,166.783ZM390.686,130.09L260.01,161.127L0,105.026L0,45.793L390.686,130.09Z" style="fill:url(#_Linear2);"/>
        <path d="M883.592,272.095L914.624,278.829L915.769,273.553L884.737,266.819L883.592,272.095ZM857.519,276.773C864.182,278.219 869.087,275.204 870.145,270.33C872.691,258.598 857.042,260.139 858.198,254.812C858.491,253.466 859.857,252.268 862.459,252.833C865.061,253.398 866.242,255.405 865.756,257.648L871.844,258.969C873.363,251.969 868.47,248.273 863.837,247.267C857.662,245.927 853.122,249.022 852.15,253.5C849.657,264.99 865.272,262.815 863.943,268.941C863.573,270.648 861.876,271.599 858.99,270.972C856.267,270.381 854.384,268.271 854.984,265.508L848.936,264.196C847.587,270.41 851.261,275.415 857.519,276.773ZM833.144,271.484C839.807,272.93 844.712,269.914 845.77,265.04C848.316,253.308 832.667,254.85 833.824,249.522C834.116,248.177 835.482,246.979 838.084,247.543C840.686,248.108 841.868,250.115 841.381,252.358L847.469,253.679C848.988,246.68 844.095,242.983 839.462,241.977C833.287,240.637 828.747,243.732 827.776,248.21C825.282,259.701 840.897,257.526 839.568,263.652C839.198,265.358 837.502,266.309 834.615,265.683C831.892,265.092 830.009,262.981 830.609,260.218L824.561,258.906C823.212,265.121 826.886,270.126 833.144,271.484ZM804.463,265.259C812.996,267.111 820.689,262.022 822.497,253.692C824.287,245.442 819.437,237.632 810.862,235.771C802.369,233.928 794.654,238.926 792.846,247.257C791.02,255.669 795.888,263.399 804.463,265.259ZM766.433,256.453L772.481,257.766L774.712,247.488L777.598,248.114L780.611,259.53L787.512,261.028L783.734,248.468C787.357,247.639 789.786,245.064 790.615,241.243C791.77,235.92 788.364,231.441 782.392,230.145L772.604,228.021L766.433,256.453ZM805.731,259.414C800.774,258.338 797.977,253.774 799.097,248.614C800.199,243.534 804.636,240.54 809.594,241.616C814.47,242.674 817.348,247.256 816.246,252.335C815.126,257.496 810.608,260.473 805.731,259.414ZM748.145,253.08C754.645,254.491 760.923,252.028 764.313,245.618L757.854,244.216C755.843,247.013 752.51,247.865 749.423,247.195C744.548,246.137 741.793,241.582 742.904,236.461C744.006,231.382 748.41,228.338 753.285,229.396C756.535,230.101 759.108,232.361 759.714,235.642L766.174,237.043C765.737,229.845 761.054,224.962 754.554,223.551C745.86,221.664 738.461,226.774 736.653,235.105C734.836,243.476 739.452,251.193 748.145,253.08ZM707.162,243.59L713.169,244.894L718.106,222.144L725.703,223.793L726.936,218.11L705.735,213.51L704.502,219.192L712.099,220.841L707.162,243.59ZM775.901,242.008L777.427,234.975L781.045,235.76C783.769,236.352 784.694,238.17 784.297,239.999C783.785,242.357 781.917,243.314 779.722,242.838L775.901,242.008ZM681.979,238.678C690.513,240.53 698.205,235.441 700.013,227.111C701.803,218.862 696.953,211.051 688.378,209.19C679.885,207.347 672.17,212.346 670.362,220.676C668.537,229.088 673.405,236.818 681.979,238.678ZM639.481,228.903L645.529,230.215L650.378,207.872L650.825,207.969L652.397,231.706L662.794,233.962L668.965,205.53L662.957,204.226L658.108,226.57L657.702,226.482L655.967,202.709L645.651,200.47L639.481,228.903ZM683.247,232.834C678.29,231.758 675.493,227.194 676.613,222.033C677.716,216.953 682.152,213.959 687.11,215.035C691.986,216.093 694.864,220.675 693.762,225.754C692.642,230.915 688.124,233.892 683.247,232.834ZM609.911,223.038C618.444,224.89 626.137,219.801 627.945,211.471C629.735,203.222 624.884,195.411 616.31,193.55C607.817,191.707 600.101,196.706 598.294,205.036C596.468,213.448 601.336,221.178 609.911,223.038ZM611.179,217.194C606.221,216.118 603.425,211.554 604.545,206.393C605.647,201.313 610.084,198.319 615.042,199.395C619.918,200.453 622.796,205.035 621.694,210.114C620.574,215.275 616.055,218.252 611.179,217.194ZM566.315,213.025L577.483,215.448C586.708,217.45 593.116,213.189 595.03,204.37C596.829,196.081 592.879,189.018 583.654,187.016L572.486,184.592L571.358,189.787L573.796,190.316L569.88,208.359L567.443,207.83L566.315,213.025ZM575.9,209.41L579.701,191.895L582.465,192.495C587.708,193.633 589.907,197.812 588.779,203.014C587.597,208.459 583.866,211.139 578.664,210.01L575.9,209.41ZM523.29,193.904L554.323,200.638L555.468,195.362L524.435,188.628L523.29,193.904ZM501.43,180.87L492.478,182.997L489.575,196.371L507.851,200.337L509.076,194.695L496.848,192.042L498.145,186.065L508.341,188.278L509.566,182.636L501.43,180.87ZM486.193,184.489L479.561,186.064L479.197,187.743L478.79,187.655L478.689,186.272L473.135,187.591L473.486,192.879L483.883,195.135L486.193,184.489ZM466.617,191.389L461.667,190.314L467.132,189.017L466.617,191.389ZM270.079,148.737L276.127,150.049L278.358,139.771L281.244,140.398L284.257,151.814L291.158,153.311L287.38,140.752C291.003,139.923 293.432,137.348 294.261,133.526C295.416,128.204 292.01,123.725 286.038,122.429L276.25,120.305L270.079,148.737ZM294.657,152.898L305.549,150.311L309.253,133.247L313.153,134.093L314.351,128.573L300.584,125.586L299.386,131.105L303.205,131.934L299.43,149.327L295.611,148.498L294.657,152.898ZM315.915,147.849L322.413,146.306L324.404,137.13L324.892,137.236L324.588,145.789L329.952,144.515L330.439,132.065L319.84,129.764L315.915,147.849ZM251.791,145.364C258.291,146.774 264.569,144.311 267.959,137.901L261.5,136.5C259.489,139.297 256.156,140.148 253.069,139.478C248.194,138.42 245.439,133.865 246.55,128.745C247.652,123.665 252.056,120.621 256.931,121.679C260.181,122.385 262.754,124.645 263.36,127.925L269.82,129.327C269.383,122.129 264.7,117.245 258.2,115.835C249.506,113.948 242.107,119.058 240.299,127.388C238.482,135.76 243.098,143.477 251.791,145.364ZM334.896,143.341L341.331,141.812L341.715,140.887L342.162,140.984L342.018,141.649L348.516,140.106L349.369,136.173L338.77,133.872L334.896,143.341ZM357.577,137.954L354.8,138.613L355.062,137.408L357.577,137.954ZM279.547,134.292L281.073,127.259L284.691,128.044C287.415,128.635 288.34,130.454 287.943,132.283C287.431,134.641 285.563,135.598 283.368,135.121L279.547,134.292ZM194.798,122.616L225.83,129.35L226.975,124.074L195.943,117.34L194.798,122.616ZM168.725,127.294C175.388,128.741 180.293,125.725 181.351,120.851C183.897,109.119 168.249,110.661 169.405,105.333C169.697,103.988 171.063,102.79 173.665,103.354C176.267,103.919 177.449,105.926 176.962,108.169L183.051,109.49C184.57,102.491 179.677,98.794 175.043,97.788C168.868,96.448 164.328,99.543 163.357,104.021C160.863,115.511 176.479,113.337 175.149,119.463C174.779,121.169 173.083,122.12 170.197,121.494C167.473,120.903 165.591,118.792 166.19,116.029L160.142,114.717C158.793,120.932 162.468,125.937 168.725,127.294ZM144.35,122.005C151.013,123.451 155.918,120.435 156.976,115.561C159.522,103.829 143.874,105.371 145.03,100.044C145.322,98.698 146.689,97.5 149.29,98.064C151.892,98.629 153.074,100.636 152.587,102.879L158.676,104.201C160.195,97.201 155.302,93.504 150.668,92.499C144.493,91.158 139.954,94.253 138.982,98.731C136.488,110.222 152.104,108.047 150.774,114.173C150.404,115.879 148.708,116.83 145.822,116.204C143.099,115.613 141.216,113.503 141.815,110.74L135.767,109.427C134.419,115.642 138.093,120.647 144.35,122.005ZM115.669,115.781C124.203,117.632 131.895,112.543 133.703,104.213C135.493,95.964 130.643,88.153 122.069,86.292C113.575,84.449 105.86,89.448 104.052,97.778C102.227,106.19 107.095,113.92 115.669,115.781ZM77.64,106.975L83.688,108.287L85.918,98.009L88.804,98.635L91.817,110.051L98.719,111.549L94.94,98.989C98.563,98.161 100.992,95.585 101.821,91.764C102.976,86.442 99.571,81.963 93.598,80.666L83.81,78.542L77.64,106.975ZM116.937,109.936C111.98,108.86 109.183,104.296 110.303,99.135C111.406,94.055 115.842,91.061 120.8,92.137C125.676,93.195 128.554,97.777 127.452,102.856C126.332,108.017 121.814,110.994 116.937,109.936ZM59.352,103.601C65.852,105.012 72.129,102.549 75.519,96.139L69.06,94.737C67.049,97.535 63.716,98.386 60.629,97.716C55.754,96.658 52.999,92.103 54.11,86.983C55.213,81.903 59.617,78.859 64.492,79.917C67.742,80.622 70.314,82.883 70.921,86.163L77.38,87.565C76.943,80.367 72.26,75.483 65.76,74.072C57.067,72.186 49.667,77.296 47.859,85.626C46.043,93.997 50.658,101.715 59.352,103.601ZM18.368,94.112L24.375,95.415L29.312,72.665L36.909,74.314L38.142,68.632L16.941,64.031L15.708,69.713L23.305,71.362L18.368,94.112ZM87.107,92.53L88.633,85.497L92.251,86.282C94.975,86.873 95.9,88.691 95.503,90.521C94.991,92.879 93.124,93.835 90.928,93.359L87.107,92.53ZM-6.815,89.2C1.719,91.052 9.412,85.963 11.219,77.632C13.01,69.383 8.159,61.572 -0.415,59.711C-8.908,57.868 -16.624,62.867 -18.432,71.197C-20.257,79.609 -15.389,87.339 -6.815,89.2ZM-49.313,79.424L-43.265,80.736L-38.416,58.393L-37.969,58.49L-36.396,82.227L-25.999,84.483L-19.829,56.051L-25.837,54.747L-30.686,77.091L-31.092,77.003L-32.827,53.23L-43.143,50.992L-49.313,79.424ZM-5.546,83.355C-10.504,82.279 -13.301,77.715 -12.181,72.554C-11.078,67.474 -6.641,64.48 -1.684,65.556C3.193,66.614 6.071,71.196 4.968,76.275C3.848,81.436 -0.67,84.413 -5.546,83.355ZM-78.883,73.56C-70.35,75.412 -62.657,70.323 -60.849,61.992C-59.059,53.743 -63.909,45.932 -72.484,44.071C-80.977,42.228 -88.692,47.227 -90.5,55.557C-92.326,63.969 -87.458,71.699 -78.883,73.56ZM-77.615,67.715C-82.572,66.639 -85.369,62.075 -84.249,56.914C-83.147,51.834 -78.71,48.84 -73.752,49.916C-68.876,50.974 -65.998,55.556 -67.1,60.636C-68.22,65.796 -72.738,68.773 -77.615,67.715ZM-122.478,63.546L-111.31,65.97C-102.085,67.971 -95.678,63.71 -93.764,54.892C-91.965,46.602 -95.915,39.539 -105.14,37.537L-116.308,35.114L-117.435,40.309L-114.998,40.837L-118.913,58.88L-121.351,58.351L-122.478,63.546ZM-112.894,59.931L-109.093,42.417L-106.329,43.017C-101.086,44.154 -98.886,48.334 -100.015,53.535C-101.197,58.98 -104.928,61.66 -110.13,60.531L-112.894,59.931ZM-165.503,44.425L-134.471,51.16L-133.326,45.883L-164.358,39.149L-165.503,44.425ZM-199.219,46.892L-180.942,50.858L-179.718,45.217L-191.946,42.563L-190.649,36.586L-180.452,38.799L-179.228,33.157L-189.425,30.944L-188.233,25.455L-176.412,28.02L-175.178,22.338L-193.048,18.46L-199.219,46.892ZM-228.225,40.597L-222.177,41.91L-217.328,19.566L-216.881,19.663L-215.308,43.4L-204.911,45.657L-198.741,17.224L-204.748,15.921L-209.597,38.264L-210.004,38.176L-211.739,14.404L-222.054,12.165L-228.225,40.597ZM-250.975,35.66L-232.699,39.626L-231.474,33.985L-243.702,31.331L-242.405,25.354L-232.208,27.567L-230.984,21.925L-241.181,19.712L-239.989,14.223L-228.168,16.788L-226.935,11.106L-244.804,7.228L-250.975,35.66ZM-269.262,32.287C-262.762,33.698 -256.485,31.235 -253.095,24.825L-259.554,23.423C-261.565,26.22 -264.898,27.072 -267.985,26.402C-272.86,25.344 -275.615,20.789 -274.504,15.668C-273.401,10.589 -268.998,7.545 -264.123,8.603C-260.873,9.308 -258.3,11.568 -257.694,14.849L-251.234,16.25C-251.671,9.052 -256.354,4.168 -262.854,2.758C-271.548,0.871 -278.947,5.981 -280.755,14.312C-282.572,22.683 -277.956,30.4 -269.262,32.287ZM-297.729,26.067C-291.066,27.513 -286.161,24.497 -285.103,19.623C-282.557,7.891 -298.206,9.433 -297.049,4.106C-296.757,2.76 -295.391,1.562 -292.789,2.126C-290.187,2.691 -289.005,4.698 -289.492,6.941L-283.404,8.263C-281.885,1.263 -286.778,-2.434 -291.411,-3.439C-297.586,-4.78 -302.126,-1.685 -303.097,2.793C-305.591,14.284 -289.976,12.109 -291.305,18.235C-291.675,19.942 -293.371,20.892 -296.258,20.266C-298.981,19.675 -300.864,17.565 -300.264,14.802L-306.312,13.489C-307.661,19.704 -303.987,24.709 -297.729,26.067ZM-339.902,16.362L-321.626,20.328L-320.402,14.686L-332.63,12.032L-331.333,6.055L-321.136,8.268L-319.912,2.626L-330.109,0.414L-328.917,-5.076L-317.095,-2.51L-315.862,-8.193L-333.732,-12.071L-339.902,16.362ZM-375.124,8.718L-369.239,9.995L-364.39,-12.348L-363.902,-12.243L-364.728,10.974L-355.991,12.87L-347.078,-8.592L-346.631,-8.495L-351.48,13.849L-345.595,15.126L-339.425,-13.306L-350.024,-15.606L-358.815,5.882L-359.262,5.785L-358.354,-17.414L-368.954,-19.714L-375.124,8.718ZM-394.38,4.539L-380.613,7.527L-379.416,2.007L-383.316,1.16L-379.541,-16.232L-375.641,-15.386L-374.443,-20.906L-388.21,-23.893L-389.408,-18.373L-385.589,-17.545L-389.364,-0.152L-393.182,-0.981L-394.38,4.539ZM-418.714,-0.742L-412.666,0.571L-410.436,-9.707L-407.55,-9.081L-404.537,2.335L-397.635,3.833L-401.414,-8.727C-397.791,-9.556 -395.362,-12.131 -394.533,-15.952C-393.378,-21.275 -396.783,-25.754 -402.756,-27.05L-412.544,-29.174L-418.714,-0.742ZM-437.002,-4.115C-430.502,-2.704 -424.225,-5.167 -420.835,-11.577L-427.294,-12.979C-429.305,-10.182 -432.638,-9.331 -435.725,-10.001C-440.6,-11.059 -443.355,-15.614 -442.244,-20.734C-441.141,-25.813 -436.737,-28.857 -431.862,-27.799C-428.612,-27.094 -426.04,-24.834 -425.433,-21.553L-418.974,-20.152C-419.411,-27.35 -424.094,-32.234 -430.594,-33.644C-439.287,-35.531 -446.687,-30.421 -448.495,-22.09C-450.311,-13.719 -445.696,-6.002 -437.002,-4.115ZM-409.247,-15.187L-407.721,-22.22L-404.103,-21.435C-401.379,-20.844 -400.454,-19.025 -400.851,-17.196C-401.363,-14.838 -403.23,-13.881 -405.426,-14.357L-409.247,-15.187Z" style="fill:rgb(17,18,18);fill-rule:nonzero;"/>
        <path d="M900,86.206L0,299.965L0,222.882L900,9.122L900,86.206Z" style="fill:url(#_Linear3);"/>
        <path d="M-24.324,275.295L16.645,265.496L14.979,258.53L-25.99,268.329L-24.324,275.295ZM56.889,269.705C65.47,267.652 71.557,261.097 71.923,251.485L63.395,253.525C62.601,258.025 59.107,260.96 55.031,261.935C48.595,263.474 42.682,259.614 41.065,252.854C39.461,246.148 42.974,239.976 49.41,238.437C53.701,237.41 58.076,238.633 60.688,242.205L69.216,240.165C64.553,231.812 56.146,228.668 47.565,230.72C36.087,233.466 30.181,243.83 32.812,254.828C35.455,265.879 45.412,272.45 56.889,269.705ZM80.69,263.218L88.675,261.308L85.429,247.739L89.24,246.828L99.407,258.741L108.519,256.562L96.778,243.722C100.632,240.647 102.054,236.172 100.847,231.127C99.167,224.1 92.519,220.705 84.634,222.591L71.712,225.682L80.69,263.218ZM112.816,255.534L130.991,251.186L129.248,243.899L124.099,245.131L118.607,222.169L123.756,220.938L122.013,213.65L103.838,217.997L105.581,225.285L110.623,224.079L116.115,247.04L111.073,248.246L112.816,255.534ZM138.238,249.453L146.008,247.595L138.953,218.096L139.596,217.942L151.963,246.17L163.498,243.411L161.807,212.63L162.397,212.489L169.453,241.987L177.223,240.128L168.244,202.592L154.251,205.939L156.103,236.682L155.513,236.823L143.253,208.57L129.26,211.917L138.238,249.453ZM83.699,240.505L81.478,231.22L86.255,230.078C89.85,229.218 92.002,230.859 92.58,233.274C93.324,236.387 91.642,238.605 88.744,239.299L83.699,240.505ZM184.738,238.331L208.866,232.56L207.084,225.111L190.941,228.973L189.054,221.082L202.515,217.862L200.734,210.414L187.272,213.634L185.539,206.387L201.146,202.654L199.351,195.152L175.76,200.795L184.738,238.331ZM240.733,225.674C249.53,223.57 253.658,217.144 252.119,210.71C248.415,195.221 230.596,206.065 228.914,199.032C228.489,197.255 229.433,195.037 232.868,194.215C236.303,193.394 238.87,195.113 239.578,198.075L247.617,196.152C245.406,186.911 237.431,185.306 231.314,186.769C223.161,188.72 219.515,195.03 220.929,200.942C224.557,216.112 241.973,204.53 243.907,212.618C244.446,214.87 242.966,216.983 239.155,217.894C235.56,218.754 232.096,217.314 231.223,213.667L223.239,215.576C225.201,223.781 232.472,227.65 240.733,225.674ZM278.339,216.736C286.92,214.684 293.007,208.129 293.373,198.517L284.845,200.556C284.051,205.057 280.557,207.991 276.481,208.966C270.045,210.506 264.132,206.645 262.515,199.885C260.911,193.179 264.424,187.008 270.86,185.468C275.151,184.442 279.526,185.664 282.138,189.236L290.665,187.197C286.003,178.844 277.596,175.699 269.014,177.752C257.537,180.497 251.631,190.862 254.262,201.859C256.905,212.911 266.862,219.481 278.339,216.736ZM302.14,210.249L326.268,204.478L324.487,197.03L308.343,200.891L306.456,193.001L319.918,189.781L318.136,182.332L304.674,185.552L302.941,178.305L318.548,174.572L316.754,167.07L293.162,172.713L302.14,210.249ZM332.174,203.066L340.159,201.156L333.103,171.658L333.694,171.516L349.227,198.987L362.953,195.704L353.975,158.167L346.044,160.064L353.099,189.562L352.563,189.691L336.815,162.272L323.196,165.529L332.174,203.066ZM370.468,193.906L394.596,188.135L392.815,180.687L376.671,184.548L374.784,176.657L388.246,173.437L386.464,165.989L373.002,169.209L371.269,161.962L386.876,158.229L385.082,150.727L361.49,156.37L370.468,193.906ZM409.351,171.564L450.32,161.765L448.654,154.8L407.685,164.599L409.351,171.564ZM471.781,169.673L486.525,166.147C498.703,163.234 503.912,154.454 501.127,142.812C498.509,131.868 489.725,125.697 477.546,128.61L462.802,132.137L464.443,138.995L467.661,138.226L473.358,162.045L470.14,162.815L471.781,169.673ZM481.159,159.839L475.628,136.717L479.277,135.844C486.198,134.188 491.232,137.919 492.874,144.786C494.594,151.975 491.675,157.324 484.807,158.967L481.159,159.839ZM529.653,156.568C540.919,153.873 547.188,143.365 544.557,132.367C541.952,121.477 531.661,114.93 520.341,117.637C509.129,120.319 502.781,130.732 505.412,141.73C508.068,152.836 518.333,159.275 529.653,156.568ZM527.807,148.851C521.262,150.417 515.294,146.57 513.664,139.756C512.06,133.05 515.642,126.919 522.187,125.354C528.625,123.814 534.7,127.635 536.304,134.341C537.934,141.155 534.245,147.312 527.807,148.851ZM568.373,146.569L576.358,144.659L569.302,115.161L569.893,115.02L585.426,142.49L599.152,139.207L590.174,101.671L582.243,103.568L589.298,133.066L588.762,133.194L573.014,105.776L559.395,109.033L568.373,146.569ZM624.798,133.81C636.064,131.116 642.332,120.608 639.702,109.61C637.097,98.719 626.806,92.172 615.486,94.88C604.273,97.561 597.926,107.975 600.556,118.973C603.213,130.078 613.478,136.518 624.798,133.81ZM622.952,126.094C616.407,127.659 610.439,123.812 608.809,116.999C607.205,110.293 610.786,104.162 617.332,102.596C623.769,101.056 629.845,104.878 631.449,111.584C633.079,118.397 629.39,124.554 622.952,126.094ZM657.726,125.197L665.657,123.3L658.473,93.266L668.502,90.867L666.708,83.365L638.718,90.06L640.513,97.562L650.542,95.163L657.726,125.197ZM712.175,112.967C720.756,110.915 726.843,104.36 727.209,94.748L718.681,96.787C717.887,101.288 714.393,104.222 710.317,105.197C703.881,106.737 697.968,102.876 696.351,96.117C694.747,89.41 698.26,83.239 704.696,81.699C708.987,80.673 713.362,81.895 715.974,85.468L724.501,83.428C719.838,75.075 711.432,71.93 702.85,73.983C691.373,76.728 685.467,87.093 688.098,98.09C690.741,109.142 700.698,115.712 712.175,112.967ZM735.976,106.481L743.961,104.571L740.715,91.002L744.526,90.09L754.693,102.004L763.805,99.824L752.064,86.984C755.918,83.91 757.34,79.434 756.133,74.389C754.453,67.363 747.805,63.967 739.92,65.853L726.998,68.944L735.976,106.481ZM786.501,95.133C797.767,92.438 804.035,81.93 801.405,70.932C798.8,60.041 788.509,53.494 777.189,56.202C765.976,58.884 759.629,69.297 762.259,80.295C764.916,91.4 775.181,97.84 786.501,95.133ZM784.655,87.416C778.11,88.982 772.142,85.135 770.512,78.321C768.908,71.615 772.489,65.484 779.034,63.918C785.472,62.379 791.548,66.2 793.152,72.906C794.781,79.719 791.093,85.876 784.655,87.416ZM824.366,86.076C833.162,83.972 837.291,77.546 835.752,71.111C832.047,55.622 814.228,66.466 812.546,59.433C812.121,57.656 813.066,55.438 816.5,54.617C819.935,53.795 822.502,55.515 823.211,58.476L831.249,56.553C829.039,47.312 821.063,45.708 814.946,47.171C806.793,49.121 803.147,55.431 804.561,61.343C808.19,76.513 825.605,64.931 827.54,73.019C828.079,75.272 826.598,77.384 822.788,78.295C819.193,79.155 815.728,77.715 814.856,74.068L806.871,75.978C808.834,84.182 816.104,88.052 824.366,86.076ZM738.985,83.768L736.764,74.483L741.54,73.34C745.136,72.48 747.288,74.122 747.865,76.537C748.61,79.65 746.928,81.868 744.03,82.561L738.985,83.768ZM856.545,78.379C865.342,76.275 869.47,69.849 867.931,63.414C864.227,47.925 846.408,58.769 844.726,51.736C844.301,49.959 845.245,47.741 848.68,46.92C852.115,46.098 854.682,47.818 855.39,50.779L863.429,48.856C861.218,39.615 853.243,38.011 847.126,39.474C838.973,41.424 835.327,47.734 836.741,53.646C840.37,68.816 857.785,57.234 859.719,65.322C860.258,67.575 858.778,69.687 854.968,70.598C851.372,71.458 847.908,70.018 847.035,66.371L839.051,68.281C841.013,76.485 848.284,80.355 856.545,78.379ZM885.021,57.789L925.99,47.99L924.324,41.024L883.355,50.824L885.021,57.789Z" style="fill:rgb(17,18,18);fill-rule:nonzero;"/>
    </g>
    <defs>
        <linearGradient id="_Linear1" x1="0" y1="0" x2="1" y2="0" gradientUnits="userSpaceOnUse" gradientTransform="matrix(1.83676e-14,299.965,-299.965,1.83676e-14,450,0)"><stop offset="0" style="stop-color:rgb(249,200,14);stop-opacity:0.25"/><stop offset="1" style="stop-color:rgb(249,200,14);stop-opacity:0"/></linearGradient>
        <linearGradient id="_Linear2" x1="0" y1="0" x2="1" y2="0" gradientUnits="userSpaceOnUse" gradientTransform="matrix(1.83676e-14,299.965,-299.965,1.83676e-14,450,0)"><stop offset="0" style="stop-color:rgb(249,200,14);stop-opacity:0.5"/><stop offset="1" style="stop-color:rgb(249,200,14);stop-opacity:0"/></linearGradient>
        <linearGradient id="_Linear3" x1="0" y1="0" x2="1" y2="0" gradientUnits="userSpaceOnUse" gradientTransform="matrix(1.83676e-14,299.965,-299.965,1.83676e-14,450,0)"><stop offset="0" style="stop-color:rgb(249,200,14);stop-opacity:0.75"/><stop offset="1" style="stop-color:rgb(249,200,14);stop-opacity:0"/></linearGradient>
    </defs>
</svg>
