<?xml version="1.0" encoding="UTF-8" standalone="no"?>
<!DOCTYPE svg PUBLIC "-//W3C//DTD SVG 1.1//EN" "http://www.w3.org/Graphics/SVG/1.1/DTD/svg11.dtd">
<svg width="100%" height="100%" viewBox="0 0 900 300" version="1.1" xmlns="http://www.w3.org/2000/svg" xmlns:xlink="http://www.w3.org/1999/xlink" xml:space="preserve" xmlns:serif="http://www.serif.com/" style="fill-rule:evenodd;clip-rule:evenodd;stroke-linejoin:round;stroke-miterlimit:2;">
    <g>
        <g transform="matrix(1,0,0,0.84507,0,0)">
            <path d="M0,240L0,306L129,306L129,270L257,270L257,297L386,297L386,315L514,315L514,355L643,355L643,284L771,284L771,342L900,342L900,192L771,192L771,250L643,250L643,227L514,227L514,271L386,271L386,194L257,194L257,203L129,203L129,240L0,240Z" style="fill:url(#_Linear1);fill-rule:nonzero;"/>
        </g>
        <g transform="matrix(1,0,0,0.84507,0,0)">
            <path d="M0,111L129,111L129,62L257,62L257,94L386,94L386,79L514,79L514,104L643,104L643,87L771,87L771,55L900,55L900,93L900,0L0,0L0,111Z" style="fill:url(#_Linear2);fill-rule:nonzero;"/>
        </g>
        <g transform="matrix(1,0,0,0.84507,0,0)">
            <path d="M0,111L0,167L129,167L129,142L257,142L257,106L386,106L386,120L514,120L514,194L643,194L643,130L771,130L771,160L900,160L900,55L771,55L771,87L643,87L643,104L514,104L514,79L386,79L386,94L257,94L257,62L129,62L129,111L0,111Z" style="fill:url(#_Linear3);fill-rule:nonzero;"/>
        </g>
        <g transform="matrix(1,0,0,0.84507,0,0)">
            <path d="M0,167L0,240L129,240L129,203L257,203L257,194L386,194L386,271L514,271L514,227L643,227L643,250L771,250L771,192L900,192L900,160L771,160L771,130L643,130L643,194L514,194L514,120L386,120L386,106L257,106L257,142L129,142L129,167L0,167Z" style="fill:url(#_Linear4);fill-rule:nonzero;"/>
        </g>
    </g>
    <defs>
        <linearGradient id="_Linear1" x1="0" y1="0" x2="1" y2="0" gradientUnits="userSpaceOnUse" gradientTransform="matrix(1.83697e-14,355,-300,2.17375e-14,450,0)"><stop offset="0" style="stop-color:rgb(39,110,253);stop-opacity:0.0627451"/><stop offset="1" style="stop-color:rgb(39,110,253);stop-opacity:0"/></linearGradient>
        <linearGradient id="_Linear2" x1="0" y1="0" x2="1" y2="0" gradientUnits="userSpaceOnUse" gradientTransform="matrix(1.83697e-14,355,-300,2.17375e-14,450,0)"><stop offset="0" style="stop-color:rgb(39,110,253);stop-opacity:0.25098"/><stop offset="1" style="stop-color:rgb(39,110,253);stop-opacity:0"/></linearGradient>
        <linearGradient id="_Linear3" x1="0" y1="0" x2="1" y2="0" gradientUnits="userSpaceOnUse" gradientTransform="matrix(1.83697e-14,355,-300,2.17375e-14,450,0)"><stop offset="0" style="stop-color:rgb(39,110,253);stop-opacity:0.188235"/><stop offset="1" style="stop-color:rgb(39,110,253);stop-opacity:0"/></linearGradient>
        <linearGradient id="_Linear4" x1="0" y1="0" x2="1" y2="0" gradientUnits="userSpaceOnUse" gradientTransform="matrix(1.83697e-14,355,-300,2.17375e-14,450,0)"><stop offset="0" style="stop-color:rgb(39,110,253);stop-opacity:0.12549"/><stop offset="1" style="stop-color:rgb(39,110,253);stop-opacity:0"/></linearGradient>
    </defs>
</svg>
