<?xml version="1.0" encoding="UTF-8" standalone="no"?>
<!DOCTYPE svg PUBLIC "-//W3C//DTD SVG 1.1//EN" "http://www.w3.org/Graphics/SVG/1.1/DTD/svg11.dtd">
<svg width="100%" height="100%" viewBox="0 0 512 512" version="1.1" xmlns="http://www.w3.org/2000/svg" xmlns:xlink="http://www.w3.org/1999/xlink" xml:space="preserve" xmlns:serif="http://www.serif.com/" style="fill-rule:evenodd;clip-rule:evenodd;stroke-linejoin:round;stroke-miterlimit:2;">
    <g transform="matrix(1.33333,0,0,1.36303,-170.667,0)">
        <path d="M224,232.001L224,289.163L272,289.163L272,321.001L320,321.001L320,278.935L368,278.935L368,325.424L416,325.424L416,360.001L464,360.001L464,375.633L512,375.633L512,338.001L464,338.001L464,288.126L416,288.126L416,242.674L368,242.674L368,231.516L320,231.516L320,251.972L272,251.972L272,232.001L224,232.001ZM224,194L176,194L176,148L224,148L224,194ZM176,113L128,113L128,82L176,82L176,113Z" style="fill:rgb(39,110,253);fill-opacity:0.25;fill-rule:nonzero;"/>
    </g>
    <g transform="matrix(1.33333,0,0,1.36303,-170.667,0)">
        <path d="M176,88.264L176,148L224,148L224,232.001L272,232.001L272,251.972L320,251.972L320,231.516L368,231.516L368,242.674L416,242.674L416,288.126L464,288.126L464,338.001L512,338.001L512,259.719L464,259.719L464,229.284L416,229.284L416,215.08L368,215.08L368,178.558L320,178.558L320,201.891L272,201.891L272,131.889L224,131.889L224,88.264L176,88.264ZM176,82L128,82L128,43L176,43L176,82Z" style="fill:rgb(39,110,253);fill-opacity:0.5;fill-rule:nonzero;"/>
    </g>
    <g transform="matrix(0.533333,0,0,1.26733,0,0)">
        <path d="M0,21.51L120,21.51L120,75.289L240,75.289L240,57.003L360,57.003L360,98.203L480,98.203L480,162L600,162L600,124L720,124L720,197.497L840,197.497L840,217.138L960,217.138L960,0L0,0L0,21.51Z" style="fill:rgb(39,110,253);fill-rule:nonzero;"/>
    </g>
    <g transform="matrix(1.33333,0,0,1.36303,-170.667,0)">
        <path d="M176,70.003L176,88.264L224,88.264L224,131.889L272,131.889L272,201.891L320,201.891L320,178.558L368,178.558L368,215.08L416,215.08L416,229.284L464,229.284L464,259.719L512,259.719L512,201.891L464,201.891L464,183.63L416,183.63L416,115.293L368,115.293L368,150.625L320,150.625L320,91.308L272,91.308L272,53L224,53L224,70.003L176,70.003ZM176,43L176,20L128,20L128,43L176,43Z" style="fill:rgb(39,110,253);fill-opacity:0.75;fill-rule:nonzero;"/>
    </g>
</svg>
