<?xml version="1.0" encoding="UTF-8" standalone="no"?>
<!DOCTYPE svg PUBLIC "-//W3C//DTD SVG 1.1//EN" "http://www.w3.org/Graphics/SVG/1.1/DTD/svg11.dtd">
<svg width="100%" height="100%" viewBox="0 0 900 300" version="1.1" xmlns="http://www.w3.org/2000/svg" xmlns:xlink="http://www.w3.org/1999/xlink" xml:space="preserve" xmlns:serif="http://www.serif.com/" style="fill-rule:evenodd;clip-rule:evenodd;">
    <g transform="matrix(1,0,0,1,43.7589,-9.19821)">
        <g transform="matrix(1,0,0,1,270,186.717)">
            <path d="M52.3,-15.1C60.1,7.1 53.5,35.8 34.5,50.4C15.4,64.9 -16.1,65.2 -37.1,50.2C-58.1,35.1 -68.6,4.7 -60.6,-17.6C-52.7,-39.9 -26.3,-54.1 -2.1,-53.5C22.2,-52.8 44.5,-37.2 52.3,-15.1Z" style="fill:none;fill-rule:nonzero;stroke:url(#_Linear1);stroke-width:10px;"/>
        </g>
        <g transform="matrix(1,0,0,1,3,181.799)">
            <path d="M53.7,-16.3C60.4,3.1 50.2,29.1 31.5,42.6C12.7,56 -14.7,56.9 -33.3,43.9C-51.9,30.8 -61.8,3.8 -54.8,-16.1C-47.8,-36 -23.9,-48.7 -0.2,-48.6C23.5,-48.5 47,-35.7 53.7,-16.3Z" style="fill:none;fill-rule:nonzero;stroke:url(#_Linear2);stroke-width:10px;"/>
        </g>
        <g transform="matrix(1,0,0,1,582.03,171.801)">
            <path d="M39.7,-13.2C45.1,3.7 38.7,24.1 24.8,34.3C10.8,44.4 -10.7,44.4 -25.3,34C-39.8,23.6 -47.4,2.9 -42.1,-14C-36.7,-30.9 -18.3,-43.8 -0.6,-43.6C17.2,-43.4 34.3,-30.1 39.7,-13.2Z" style="fill:none;fill-rule:nonzero;stroke:url(#_Linear3);stroke-width:10px;"/>
        </g>
        <g transform="matrix(1,0,0,1,440,275.535)">
            <path d="M41.6,-12.2C48.1,6.5 43.6,30.1 28,42.3C12.4,54.4 -14.2,55.3 -31.6,42.7C-49.1,30.2 -57.5,4.4 -50.7,-14.6C-43.9,-33.6 -21.9,-45.9 -2.2,-45.1C17.6,-44.4 35.1,-30.8 41.6,-12.2Z" style="fill:none;fill-rule:nonzero;stroke:url(#_Linear4);stroke-width:10px;"/>
        </g>
        <g transform="matrix(1,0,0,1,115.91,81.5989)">
            <path d="M33.5,-10.4C38.3,3.9 33.6,21.8 21.3,31.2C9,40.6 -10.9,41.4 -23,32.4C-35.2,23.4 -39.7,4.5 -34.6,-10.2C-29.5,-24.9 -14.7,-35.5 -0.2,-35.4C14.4,-35.4 28.7,-24.7 33.5,-10.4Z" style="fill:none;fill-rule:nonzero;stroke:url(#_Linear5);stroke-width:10px;"/>
        </g>
        <g transform="matrix(1,0,0,1,676.1,17.7992)">
            <path d="M23.2,-7.8C26.2,1.7 22.1,13.3 14.4,18.6C6.7,23.9 -4.7,23.1 -12.6,17.3C-20.4,11.6 -24.7,1.1 -22.1,-7.9C-19.4,-17 -9.7,-24.5 0.2,-24.6C10.1,-24.7 20.2,-17.3 23.2,-7.8Z" style="fill:none;fill-rule:nonzero;stroke:url(#_Linear6);stroke-width:10px;"/>
        </g>
        <g transform="matrix(1,0,0,1,215.241,9.19821)">
            <path d="M45.987,6.574C42.987,-2.926 47.087,-14.526 54.787,-19.826C62.487,-25.126 73.887,-24.326 81.787,-18.526C89.587,-12.826 93.887,-2.326 91.287,6.674C88.587,15.774 78.887,23.274 68.987,23.374C59.087,23.474 48.987,16.074 45.987,6.574Z" style="fill:none;fill-rule:nonzero;stroke:url(#_Linear7);stroke-width:10px;"/>
        </g>
        <g transform="matrix(1,0,0,1,826,202.965)">
            <path d="M34.6,-11.3C38.7,1.4 31.6,17.6 19.9,25.8C8.2,34 -8.3,34 -19.2,26.2C-30.1,18.3 -35.5,2.5 -31.3,-10.2C-27.2,-23 -13.6,-32.7 0.8,-32.9C15.2,-33.2 30.5,-24 34.6,-11.3Z" style="fill:none;fill-rule:nonzero;stroke:url(#_Linear8);stroke-width:10px;"/>
        </g>
        <g transform="matrix(1,0,0,1,645,298.81)">
            <path d="M24.5,-7.8C28,2.8 24.5,15.8 15.4,22.8C6.4,29.7 -8.2,30.6 -17,24C-25.8,17.5 -28.8,3.6 -25,-7.4C-21.2,-18.4 -10.6,-26.4 0,-26.4C10.5,-26.3 21,-18.3 24.5,-7.8Z" style="fill:none;fill-rule:nonzero;stroke:url(#_Linear9);stroke-width:10px;"/>
        </g>
        <g transform="matrix(1,0,0,1,801,66)">
            <path d="M35.4,-11.4C39.9,2.2 33.4,19.6 21.5,27.8C9.6,36 -7.6,35.1 -18.3,26.9C-28.9,18.7 -33.1,3.3 -29,-9.8C-24.8,-23 -12.4,-33.9 1.5,-34.4C15.5,-34.9 31,-25 35.4,-11.4Z" style="fill:none;fill-rule:nonzero;stroke:url(#_Linear10);stroke-width:10px;"/>
        </g>
        <g transform="matrix(1,0,0,1,178.561,309.351)">
            <path d="M26.2,-8.1C30.4,4.4 27.8,19.6 18.8,26.2C9.8,32.8 -5.6,30.8 -15.3,23.3C-25,15.7 -28.9,2.5 -25.4,-9C-21.9,-20.6 -11,-30.5 0,-30.5C11,-30.5 22,-20.6 26.2,-8.1Z" style="fill:none;fill-rule:nonzero;stroke:url(#_Linear11);stroke-width:10px;"/>
        </g>
        <g transform="matrix(1,0,0,1,464.635,37)">
            <path d="M51.2,-17.4C57.8,3.6 48.6,28.9 30.9,41.5C13.2,54.1 -13,54 -29.9,41.6C-46.9,29.2 -54.6,4.5 -48.1,-16.5C-41.5,-37.4 -20.8,-54.5 0.8,-54.8C22.3,-55 44.6,-38.4 51.2,-17.4Z" style="fill:none;fill-rule:nonzero;stroke:url(#_Linear12);stroke-width:10px;"/>
        </g>
    </g>
    <defs>
        <linearGradient id="_Linear1" x1="0" y1="0" x2="1" y2="0" gradientUnits="userSpaceOnUse" gradientTransform="matrix(1.83697e-14,300,-300,1.83697e-14,144.241,-177.518)"><stop offset="0" style="stop-color:rgb(230,56,70);stop-opacity:0.12549"/><stop offset="1" style="stop-color:rgb(230,56,70);stop-opacity:0"/></linearGradient>
        <linearGradient id="_Linear2" x1="0" y1="0" x2="1" y2="0" gradientUnits="userSpaceOnUse" gradientTransform="matrix(1.83697e-14,300,-300,1.83697e-14,411.241,-172.601)"><stop offset="0" style="stop-color:rgb(230,56,70);stop-opacity:0.12549"/><stop offset="1" style="stop-color:rgb(230,56,70);stop-opacity:0"/></linearGradient>
        <linearGradient id="_Linear3" x1="0" y1="0" x2="1" y2="0" gradientUnits="userSpaceOnUse" gradientTransform="matrix(1.83697e-14,300,-300,1.83697e-14,-167.789,-162.602)"><stop offset="0" style="stop-color:rgb(230,56,70);stop-opacity:0.12549"/><stop offset="1" style="stop-color:rgb(230,56,70);stop-opacity:0"/></linearGradient>
        <linearGradient id="_Linear4" x1="0" y1="0" x2="1" y2="0" gradientUnits="userSpaceOnUse" gradientTransform="matrix(1.83697e-14,300,-300,1.83697e-14,-25.7589,-266.336)"><stop offset="0" style="stop-color:rgb(230,56,70);stop-opacity:0.0627451"/><stop offset="1" style="stop-color:rgb(230,56,70);stop-opacity:0"/></linearGradient>
        <linearGradient id="_Linear5" x1="0" y1="0" x2="1" y2="0" gradientUnits="userSpaceOnUse" gradientTransform="matrix(1.83697e-14,300,-300,1.83697e-14,298.331,-72.4007)"><stop offset="0" style="stop-color:rgb(230,56,70);stop-opacity:0.188235"/><stop offset="1" style="stop-color:rgb(230,56,70);stop-opacity:0"/></linearGradient>
        <linearGradient id="_Linear6" x1="0" y1="0" x2="1" y2="0" gradientUnits="userSpaceOnUse" gradientTransform="matrix(1.83697e-14,300,-300,1.83697e-14,-261.859,-8.601)"><stop offset="0" style="stop-color:rgb(230,56,70);stop-opacity:0.25098"/><stop offset="1" style="stop-color:rgb(230,56,70);stop-opacity:0"/></linearGradient>
        <linearGradient id="_Linear7" x1="0" y1="0" x2="1" y2="0" gradientUnits="userSpaceOnUse" gradientTransform="matrix(1.83697e-14,300,-300,1.83697e-14,199,0)"><stop offset="0" style="stop-color:rgb(230,56,70);stop-opacity:0.25098"/><stop offset="1" style="stop-color:rgb(230,56,70);stop-opacity:0"/></linearGradient>
        <linearGradient id="_Linear8" x1="0" y1="0" x2="1" y2="0" gradientUnits="userSpaceOnUse" gradientTransform="matrix(1.83697e-14,300,-300,1.83697e-14,-411.759,-193.767)"><stop offset="0" style="stop-color:rgb(230,56,70);stop-opacity:0.12549"/><stop offset="1" style="stop-color:rgb(230,56,70);stop-opacity:0"/></linearGradient>
        <linearGradient id="_Linear9" x1="0" y1="0" x2="1" y2="0" gradientUnits="userSpaceOnUse" gradientTransform="matrix(1.83697e-14,300,-300,1.83697e-14,-230.759,-289.612)"><stop offset="0" style="stop-color:rgb(230,56,70);stop-opacity:0.0627451"/><stop offset="1" style="stop-color:rgb(230,56,70);stop-opacity:0"/></linearGradient>
        <linearGradient id="_Linear10" x1="0" y1="0" x2="1" y2="0" gradientUnits="userSpaceOnUse" gradientTransform="matrix(1.83697e-14,300,-300,1.83697e-14,-386.759,-56.8018)"><stop offset="0" style="stop-color:rgb(230,56,70);stop-opacity:0.188235"/><stop offset="1" style="stop-color:rgb(230,56,70);stop-opacity:0"/></linearGradient>
        <linearGradient id="_Linear11" x1="0" y1="0" x2="1" y2="0" gradientUnits="userSpaceOnUse" gradientTransform="matrix(1.83697e-14,300,-300,1.83697e-14,235.68,-300.152)"><stop offset="0" style="stop-color:rgb(230,56,70);stop-opacity:0.0627451"/><stop offset="1" style="stop-color:rgb(230,56,70);stop-opacity:0"/></linearGradient>
        <linearGradient id="_Linear12" x1="0" y1="0" x2="1" y2="0" gradientUnits="userSpaceOnUse" gradientTransform="matrix(1.83697e-14,300,-300,1.83697e-14,-50.394,-27.8018)"><stop offset="0" style="stop-color:rgb(230,56,70);stop-opacity:0.188235"/><stop offset="1" style="stop-color:rgb(230,56,70);stop-opacity:0"/></linearGradient>
    </defs>
</svg>
