<?xml version="1.0" encoding="UTF-8" standalone="no"?>
<!DOCTYPE svg PUBLIC "-//W3C//DTD SVG 1.1//EN" "http://www.w3.org/Graphics/SVG/1.1/DTD/svg11.dtd">
<svg width="100%" height="100%" viewBox="0 0 900 300" version="1.1" xmlns="http://www.w3.org/2000/svg" xmlns:xlink="http://www.w3.org/1999/xlink" xml:space="preserve" xmlns:serif="http://www.serif.com/" style="fill-rule:evenodd;clip-rule:evenodd;stroke-linejoin:round;stroke-miterlimit:2;">
    <g>
        <g transform="matrix(1,0,0,0.649156,0,77.2851)">
            <path d="M0,307L25,317.5C50,328 100,349 150,341.5C200,334 250,298 300,274C350,250 400,238 450,250C500,262 550,298 600,304C650,310 700,286 750,274C800,262 900,282.97 900,282.97L900,-237.658L0,-237.658L0,307Z" style="fill:url(#_Linear1);fill-rule:nonzero;"/>
        </g>
        <g transform="matrix(1,0,0,0.649156,0,77.2851)">
            <path d="M0,253L25,265C50,277 100,301 150,292C200,283 250,241 300,218.5C350,196 400,193 450,205C500,217 550,244 600,245.5C650,247 700,223 750,214C800,205 900,237.97 900,237.97L900,-237.658L0,-237.658L0,253Z" style="fill:url(#_Linear2);fill-rule:nonzero;"/>
        </g>
        <g transform="matrix(1,0,0,0.649156,0,29.8967)">
            <path d="M0,253L25,265C50,277 100,291 150,282C200,273 250,241 300,218.5C350,196 414,191.74 464,203.74C514,215.74 550,244 600,245.5C650,247 700,203 750,194C800,185 900,237.97 900,237.97L900,-164.658L0,-164.658L0,253Z" style="fill:url(#_Linear3);fill-rule:nonzero;"/>
        </g>
        <g transform="matrix(1,0,0,0.649156,0,-114.186)">
            <path d="M0,370L25,377.5C50,385 100,400 150,392.5C200,385 250,355 300,335.5C350,316 400,307 450,316C500,325 550,352 600,353.5C650,355 700,331 750,323.5C800,316 900,354.97 900,354.97L900,57.296L0,57.296L0,370Z" style="fill:url(#_Linear4);fill-rule:nonzero;"/>
        </g>
    </g>
    <defs>
        <linearGradient id="_Linear1" x1="0" y1="0" x2="1" y2="0" gradientUnits="userSpaceOnUse" gradientTransform="matrix(-900,1.69787e-13,-1.10218e-13,-1386.42,900,-12.8957)"><stop offset="0" style="stop-color:rgb(21,59,39);stop-opacity:0.25"/><stop offset="1" style="stop-color:rgb(21,59,39);stop-opacity:0"/></linearGradient>
        <linearGradient id="_Linear2" x1="0" y1="0" x2="1" y2="0" gradientUnits="userSpaceOnUse" gradientTransform="matrix(900,0,0,1386.42,0,-12.8957)"><stop offset="0" style="stop-color:rgb(34,115,72);stop-opacity:0.25"/><stop offset="1" style="stop-color:rgb(34,115,72);stop-opacity:0"/></linearGradient>
        <linearGradient id="_Linear3" x1="0" y1="0" x2="1" y2="0" gradientUnits="userSpaceOnUse" gradientTransform="matrix(-900,1.69787e-13,-1.10218e-13,-1386.42,900,3.96562)"><stop offset="0" style="stop-color:rgb(48,174,106);stop-opacity:0.25"/><stop offset="1" style="stop-color:rgb(48,174,106);stop-opacity:0"/></linearGradient>
        <linearGradient id="_Linear4" x1="0" y1="0" x2="1" y2="0" gradientUnits="userSpaceOnUse" gradientTransform="matrix(900,0,0,1386.42,0,225.92)"><stop offset="0" style="stop-color:rgb(56,209,127);stop-opacity:0.25"/><stop offset="1" style="stop-color:rgb(56,209,127);stop-opacity:0"/></linearGradient>
    </defs>
</svg>
