<?xml version="1.0" encoding="UTF-8" standalone="no"?>
<!DOCTYPE svg PUBLIC "-//W3C//DTD SVG 1.1//EN" "http://www.w3.org/Graphics/SVG/1.1/DTD/svg11.dtd">
<svg width="100%" height="100%" viewBox="0 0 900 300" version="1.1" xmlns="http://www.w3.org/2000/svg" xmlns:xlink="http://www.w3.org/1999/xlink" xml:space="preserve" xmlns:serif="http://www.serif.com/" style="fill-rule:evenodd;clip-rule:evenodd;stroke-miterlimit:10;">
    <g transform="matrix(0.234375,0,0,0.234375,-11.077,5.20312)">
        <g id="_1-53" serif:id="1,53">
            <g transform="matrix(2.50409,0,0,2.02483,36.9373,-11.6516)">
                <path d="M59,-296C114.57,-294.3 155.6,-272.51 172.98,-217.84C186.7,-174.69 186.02,-128.45 198.14,-84.92C209.5,-44.11 234.24,-13.13 276.95,-3.65C329.23,7.95 389.84,-3.38 441.53,-13.54C554.18,-35.69 661.35,-78.47 772.66,-105.84C829.17,-119.74 886.96,-129.68 945.29,-130C1027.25,-130.45 1109.73,-117.39 1190.55,-105.19C1318.2,-85.92 1445.2,-62.57 1572.56,-41.5C1687.14,-22.53 1803.56,-1.41 1920,0" style="fill:none;fill-rule:nonzero;stroke:rgb(17,18,18);stroke-width:2.89px;"/>
            </g>
            <g transform="matrix(2.50409,0,0,2.02483,36.9373,-11.6516)">
                <path d="M58.79,-287.99C114.14,-286.96 154.86,-265.44 172.72,-211.31C186.95,-168.18 186.93,-121.82 199.38,-78.25C210.98,-37.65 235.4,-6.01 278.01,3.86C330.02,15.92 390.73,4.75 442.24,-5.39C554.85,-27.56 661.7,-71.19 772.9,-98.79C829.55,-112.85 887.19,-122.35 945.67,-122.62C1028.03,-123 1110.56,-110.39 1191.77,-97.97C1319.37,-78.46 1446.27,-54.62 1573.56,-33.23C1687.66,-14.06 1803.93,7.48 1920,7.73" style="fill:none;fill-rule:nonzero;stroke:rgb(17,18,18);stroke-opacity:0.99;stroke-width:2.89px;"/>
            </g>
            <g transform="matrix(2.50409,0,0,2.02483,36.9373,-11.6516)">
                <path d="M58.21,-279.11C113.37,-278.8 153.98,-257.66 172.52,-204.06C187.41,-161.03 188.16,-114.56 201.08,-71C213.07,-30.58 237.35,1.6 279.89,11.82C331.68,24.26 392.46,13.23 443.79,3.06C556.33,-19.24 662.79,-63.82 773.85,-91.75C914.6,-127.15 1051.43,-112.85 1193.45,-90.77C1320.93,-70.95 1447.64,-46.56 1574.79,-24.79C1688.33,-5.35 1804.38,16.68 1919.99,15.86" style="fill:none;fill-rule:nonzero;stroke:rgb(17,18,18);stroke-opacity:0.98;stroke-width:2.89px;"/>
            </g>
            <g transform="matrix(2.50409,0,0,2.02483,36.9373,-11.6516)">
                <path d="M57.29,-269.39C112.31,-269.84 152.99,-249.19 172.4,-196.13C188.08,-153.25 189.73,-106.7 203.24,-63.21C215.75,-22.95 240.07,9.68 282.59,20.2C334.19,32.97 395.02,22.04 446.2,11.78C558.64,-10.75 664.66,-56.37 775.54,-84.74C916.12,-120.71 1053.78,-106.11 1195.62,-83.61C1322.9,-63.42 1449.36,-38.42 1576.29,-16.2C1689.17,3.55 1804.94,26.13 1920,24.34" style="fill:none;fill-rule:nonzero;stroke:rgb(17,18,18);stroke-opacity:0.96;stroke-width:2.89px;"/>
            </g>
            <g transform="matrix(2.50409,0,0,2.02483,36.9373,-11.6516)">
                <path d="M56.04,-258.88C110.97,-260.14 151.89,-240.08 172.33,-187.54C188.92,-144.88 191.59,-98.27 205.81,-54.89C218.96,-14.78 243.48,18.21 286.03,28.98C337.49,42.01 398.32,31.16 449.37,20.77C561.69,-2.09 667.21,-48.83 777.87,-77.74C918.26,-114.41 1056.54,-99.46 1198.21,-76.45C1325.23,-55.82 1451.36,-30.16 1578.01,-7.44C1690.15,12.68 1805.57,35.86 1920.01,33.18" style="fill:none;fill-rule:nonzero;stroke:rgb(17,18,18);stroke-opacity:0.95;stroke-width:2.89px;"/>
            </g>
            <g transform="matrix(2.50409,0,0,2.02483,36.9373,-11.6516)">
                <path d="M54.47,-247.61C109.35,-249.72 150.69,-230.34 172.32,-178.33C189.94,-135.96 193.74,-89.29 208.77,-46.07C222.68,-6.09 247.55,27.17 290.18,38.15C341.54,51.38 402.34,40.6 453.29,30.03C565.46,6.73 670.42,-41.23 780.83,-70.75C921,-108.24 1059.73,-92.9 1201.2,-69.31C1327.89,-48.18 1453.63,-21.8 1579.93,1.48C1691.25,22 1806.25,45.86 1920,42.37" style="fill:none;fill-rule:nonzero;stroke:rgb(17,18,18);stroke-opacity:0.93;stroke-width:2.89px;"/>
            </g>
            <g transform="matrix(2.50409,0,0,2.02483,36.9373,-11.6516)">
                <path d="M52.6,-235.62C106.93,-238.59 149.14,-220.33 172.03,-169.28C190.77,-127.5 195.85,-81.12 211.57,-38.28C226.08,1.26 250.38,35.07 292.6,47.02C344.58,61.74 407.41,50.31 459.09,39.28C572.13,15.15 677.41,-34.9 788.74,-64.96C928.45,-102.68 1068.02,-85.79 1208.77,-61.47C1330.85,-40.38 1452,-14.32 1573.67,8.93C1686.77,30.54 1804.22,56.21 1920,51.88" style="fill:none;fill-rule:nonzero;stroke:rgb(17,18,18);stroke-opacity:0.92;stroke-width:2.89px;"/>
            </g>
            <g transform="matrix(2.50409,0,0,2.02483,36.9373,-11.6516)">
                <path d="M50.45,-222.95C104.85,-226.83 147.73,-209.4 172.11,-158.91C192.09,-117.53 198.51,-71.15 215.25,-28.54C230.74,10.89 255.68,44.82 298.1,56.89C350.08,71.69 412.78,60.31 464.41,48.99C577.23,24.26 681.85,-27.18 792.87,-58.03C932.31,-96.77 1072.01,-79.39 1212.53,-54.34C1334.17,-32.66 1454.83,-5.82 1576.05,18.08C1688.15,40.19 1805.07,66.68 1920.01,61.69" style="fill:none;fill-rule:nonzero;stroke:rgb(17,18,18);stroke-opacity:0.9;stroke-width:2.89px;"/>
            </g>
            <g transform="matrix(2.50409,0,0,2.02483,36.9373,-11.6516)">
                <path d="M48.03,-209.64C102.56,-214.45 146.23,-197.93 172.23,-148.02C193.55,-107.09 201.41,-60.73 219.25,-18.38C235.82,20.95 261.52,54.93 304.18,67.08C356.2,81.9 418.74,70.56 470.34,58.92C582.95,33.5 686.85,-19.4 797.53,-51.11C936.68,-90.98 1076.36,-73.07 1216.63,-47.22C1337.79,-24.9 1457.9,2.75 1578.6,27.36C1689.62,50 1805.96,77.38 1920,71.79" style="fill:none;fill-rule:nonzero;stroke:rgb(17,18,18);stroke-opacity:0.88;stroke-width:2.89px;"/>
            </g>
            <g transform="matrix(2.50409,0,0,2.02483,36.9373,-11.6516)">
                <path d="M45.36,-195.72C100.09,-201.49 144.65,-185.93 172.4,-136.62C195.15,-96.2 204.55,-49.88 223.58,-7.81C241.32,31.4 267.88,65.39 310.86,77.59C362.97,92.38 425.3,81.07 476.89,69.05C589.26,42.86 692.38,-11.55 802.7,-44.21C941.53,-85.31 1081.05,-66.83 1221.06,-40.12C1341.69,-17.11 1461.19,11.39 1581.33,36.76C1691.21,59.96 1806.91,88.28 1920,82.16" style="fill:none;fill-rule:nonzero;stroke:rgb(17,18,18);stroke-opacity:0.87;stroke-width:2.89px;"/>
            </g>
            <g transform="matrix(2.50409,0,0,2.02483,36.9373,-11.6516)">
                <path d="M42.46,-181.23C97.01,-187.95 142.57,-173.68 172.19,-125.46C196.47,-85.93 207.53,-39.96 227.5,1.65C246.1,40.4 272.95,74.81 315.66,87.68C368.63,103.64 432.7,91.85 485.12,79.07C596.49,51.91 698.21,-3.48 807.48,-37.04C944.66,-79.16 1082.06,-61.2 1220.64,-34.04C1343.25,-10 1464.55,20.14 1586.6,46.79C1694.6,70.37 1808.65,99.35 1920,92.79" style="fill:none;fill-rule:nonzero;stroke:rgb(17,18,18);stroke-opacity:0.85;stroke-width:2.89px;"/>
            </g>
            <g transform="matrix(2.50409,0,0,2.02483,36.9373,-11.6516)">
                <path d="M39.33,-166.21C94.23,-173.93 140.84,-160.68 172.41,-113.14C198.26,-74.21 211.03,-28.34 232.35,12.96C252.29,51.59 280.19,85.9 323.34,98.76C376.49,114.59 440.28,102.83 492.75,89.57C603.84,61.49 704.7,4.48 813.58,-30.15C950.41,-73.68 1087.37,-55.12 1225.69,-26.99C1347.67,-2.18 1468.26,28.91 1589.64,56.41C1696.37,80.59 1809.69,110.61 1920,103.65" style="fill:none;fill-rule:nonzero;stroke:rgb(17,18,18);stroke-opacity:0.84;stroke-width:2.89px;"/>
            </g>
            <g transform="matrix(2.50409,0,0,2.02483,36.9373,-11.6516)">
                <path d="M36,-150.7C91.32,-159.45 139.05,-147.24 172.67,-100.43C200.16,-62.15 214.73,-16.39 237.46,24.58C258.81,63.06 287.83,97.26 331.49,110.07C384.85,125.74 448.35,113.99 500.86,100.22C611.67,71.17 711.62,12.5 820.08,-23.27C956.56,-68.29 1092.95,-49.12 1231.01,-19.95C1352.32,5.68 1472.15,37.75 1592.82,66.14C1698.22,90.94 1810.77,122.04 1920,114.73" style="fill:none;fill-rule:nonzero;stroke:rgb(17,18,18);stroke-opacity:0.82;stroke-width:2.89px;"/>
            </g>
            <g transform="matrix(2.50409,0,0,2.02483,36.9373,-11.6516)">
                <path d="M32.48,-134.73C88,-144.49 136.6,-133.64 172.45,-87.99C202.54,-49.68 219.18,-2.71 244.17,38.75C267.11,76.81 297.74,109.96 341.86,122.06C395.49,136.77 458.05,125.14 510.54,110.75C620.34,80.63 718.76,20.66 826.12,-16.13C963.9,-63.35 1101.18,-42.91 1240.61,-12.04C1360.59,14.52 1479.07,47.38 1598.43,76.51C1701.76,101.73 1812.63,133.59 1920.02,126.02" style="fill:none;fill-rule:nonzero;stroke:rgb(17,18,18);stroke-opacity:0.81;stroke-width:2.89px;"/>
            </g>
            <g transform="matrix(2.50409,0,0,2.02483,36.9373,-11.6516)">
                <path d="M28.78,-118.35C84.88,-129.18 134.69,-119.37 172.73,-74.54C204.6,-36.98 223.25,9.83 249.81,50.95C274.27,88.81 306.08,121.8 350.83,133.84C404.71,148.33 466.96,136.67 519.49,121.7C628.99,90.48 726.43,28.77 833.34,-9.27C970.73,-58.16 1107.21,-37.03 1246.37,-5C1365.61,22.45 1483.25,56.33 1601.83,86.42C1703.73,112.28 1813.77,145.32 1920,137.48" style="fill:none;fill-rule:nonzero;stroke:rgb(17,18,18);stroke-opacity:0.79;stroke-width:2.89px;"/>
            </g>
            <g transform="matrix(2.50409,0,0,2.02483,36.9373,-11.6516)">
                <path d="M24.93,-101.59C81.69,-113.52 132.77,-104.75 173.04,-60.78C206.74,-23.99 227.46,22.63 255.65,63.39C281.68,101.02 314.73,133.84 360.15,145.79C414.29,160.03 476.24,148.34 528.82,132.76C638.02,100.39 734.45,36.92 840.89,-2.41C894.66,-22.28 949.43,-34.17 1006.85,-34.38C1089.97,-34.69 1171.85,-17.22 1252.34,2.05C1370.82,30.41 1487.58,65.34 1605.35,96.43C1705.77,122.94 1814.95,157.19 1919.99,149.14" style="fill:none;fill-rule:nonzero;stroke:rgb(17,18,18);stroke-opacity:0.77;stroke-width:2.89px;"/>
            </g>
            <g transform="matrix(2.50409,0,0,2.02483,36.9373,-11.6516)">
                <path d="M20.94,-84.49C80.13,-97.94 132.96,-89.05 175.86,-44.11C209.57,-8.8 231.94,35.51 260.64,74.64C288.89,113.15 324,146.67 371.59,158.43C424.13,171.41 483.71,160.42 534.58,145.13C644.74,112 741.06,46.04 847.91,4.78C902.94,-16.47 958.59,-28.59 1017.63,-28.78C1097.41,-29.04 1176.43,-11.2 1253.51,7.82C1370.36,36.65 1485.37,72.34 1601.34,104.38C1702.36,132.29 1813.81,169.36 1920.01,160.93" style="fill:none;fill-rule:nonzero;stroke:rgb(17,18,18);stroke-opacity:0.76;stroke-width:2.89px;"/>
            </g>
            <g transform="matrix(2.50409,0,0,2.02483,36.9373,-11.6516)">
                <path d="M16.82,-67.09C76.82,-81.72 131.06,-73.87 176.36,-29.87C211.92,4.67 236.38,48.73 266.76,87.52C296.7,125.74 333.17,159.07 381.55,170.71C434.37,183.42 493.65,172.37 544.56,156.45C654.42,122.09 749.65,54.29 856,11.63C910.61,-10.27 966.19,-23.14 1025.13,-23.31C1104.56,-23.55 1183.35,-4.83 1259.86,14.8C1375.9,44.57 1490,81.35 1605.11,114.44C1704.5,143.01 1815.07,181.44 1920,172.86" style="fill:none;fill-rule:nonzero;stroke:rgb(17,18,18);stroke-opacity:0.74;stroke-width:2.89px;"/>
            </g>
            <g transform="matrix(2.50409,0,0,2.02483,36.9373,-11.6516)">
                <path d="M12.59,-49.43C73.14,-65.18 128.62,-58.61 176.2,-16.04C214.7,18.41 241.71,63.49 274.81,102.72C305.36,138.92 342.08,170.92 389.14,182.48C443.5,195.83 503.66,184.55 555.9,167.46C664.74,131.87 758.29,62.68 863.5,18.8C917.13,-3.56 972.58,-17.81 1030.9,-17.95C1112,-18.14 1192.37,1.91 1270.23,22.81C1384.85,53.58 1497.47,91.25 1611.16,125.19C1708.15,154.15 1817.19,193.55 1920,184.9" style="fill:none;fill-rule:nonzero;stroke:rgb(17,18,18);stroke-opacity:0.73;stroke-width:2.89px;"/>
            </g>
            <g transform="matrix(2.50409,0,0,2.02483,36.9373,-11.6516)">
                <path d="M8.27,-31.54C69.75,-48.51 126.71,-42.95 176.71,-1.38C217.15,32.24 246.39,77.02 281.29,115.91C313.51,151.8 351.6,183.6 399.53,195.03C454.21,208.07 514.07,196.74 566.37,178.95C674.89,142.03 767.31,70.99 872.01,25.66C925.19,2.63 980.56,-12.39 1038.78,-12.56C1119.47,-12.8 1199.64,8.28 1276.83,29.82C1390.61,61.57 1502.28,100.34 1615.07,135.37C1671.81,152.99 1728.88,170.16 1786.92,183.02C1829.9,192.55 1875.78,202.19 1920.01,197.06" style="fill:none;fill-rule:nonzero;stroke:rgb(17,18,18);stroke-opacity:0.71;stroke-width:2.89px;"/>
            </g>
            <g transform="matrix(2.50409,0,0,2.02483,36.9373,-11.6516)">
                <path d="M3.87,-13.46C65.86,-31.55 124.36,-27.15 176.48,12.85C218.78,45.31 250.12,89.47 286.59,127.86C321.41,164.51 361.64,196.84 412.04,208.04C466.88,220.22 526.01,208.62 578.1,190.13C687.22,151.4 779.22,77.43 884.61,30.75C935.44,8.23 988.94,-6.78 1044.8,-7.22C1127.05,-7.87 1208.99,15.07 1287.31,37.92C1399.64,70.69 1509.81,110.36 1621.14,146.26C1674.19,163.37 1727.54,179.97 1781.76,192.99C1826.09,203.64 1874.13,214.76 1919.99,209.28" style="fill:none;fill-rule:nonzero;stroke:rgb(17,18,18);stroke-opacity:0.7;stroke-width:2.89px;"/>
            </g>
            <g transform="matrix(2.50409,0,0,2.02483,36.9373,-11.6516)">
                <path d="M-0.6,4.77C62.43,-14.57 122.46,-11.16 176.97,27.8C221.23,59.43 254.84,103.22 293.18,141.28C329.73,177.56 371.41,209.69 422.77,220.74C477.93,232.61 536.77,220.92 588.89,201.7C697.7,161.59 788.5,85.74 893.38,37.54C943.74,14.4 997.18,-1.42 1052.94,-1.91C1134.74,-2.63 1216.5,21.45 1294.08,44.95C1405.55,78.72 1514.73,119.5 1625.13,156.51C1677.56,174.09 1730.3,191.17 1783.96,204.64C1827.43,215.55 1874.88,227.12 1920,221.59" style="fill:none;fill-rule:nonzero;stroke:rgb(17,18,18);stroke-opacity:0.68;stroke-width:2.89px;"/>
            </g>
            <g transform="matrix(2.50409,0,0,2.02483,36.9373,-11.6516)">
                <path d="M-5.11,23.12C60.66,1.95 123.01,5.48 180.82,45.05C224.97,75.27 259.74,116.98 298.43,153.45C337.59,190.36 381.7,223.18 435.54,233.95C488.99,244.64 545.72,233.6 596.06,214.73C705.87,173.57 796.22,95 901.45,44.74C952.74,20.24 1007.32,3.49 1064.56,3.39C1143.16,3.25 1221.89,27.35 1296.2,50.53C1409.14,85.77 1519.5,128.65 1631.2,167.51C1682.64,185.4 1734.39,202.81 1787.11,216.57C1829.43,227.62 1875.92,239.48 1920,233.93" style="fill:none;fill-rule:nonzero;stroke:rgb(17,18,18);stroke-opacity:0.66;stroke-width:2.89px;"/>
            </g>
            <g transform="matrix(2.50409,0,0,2.02483,36.9373,-11.6516)">
                <path d="M-9.65,41.53C57.25,19.03 121.23,21.6 181.48,60.09C227.54,89.52 264.52,130.85 305.06,167C345.99,203.49 391.61,236.13 446.49,246.74C500.22,257.13 556.72,245.99 607.07,226.41C716.57,183.83 805.69,103.35 910.38,51.54C961.16,26.4 1015.7,8.78 1072.83,8.65C1150.97,8.47 1229.55,33.71 1303.1,57.52C1415.15,93.79 1524.49,137.82 1635.22,177.83C1686.03,196.19 1737.17,214.09 1789.33,228.3C1830.78,239.59 1876.67,251.92 1920.01,246.33" style="fill:none;fill-rule:nonzero;stroke:rgb(17,18,18);stroke-opacity:0.65;stroke-width:2.89px;"/>
            </g>
            <g transform="matrix(2.50409,0,0,2.02483,36.9373,-11.6516)">
                <path d="M-14.2,59.99C53.45,36.28 118.83,37.65 181.25,74.64C230.5,103.83 270.54,145.98 314.08,182.58C355.22,217.16 400.95,248.46 454.61,259.02C511.78,270.27 570.82,257.89 623.85,235.76C730.23,191.37 816.58,111.24 918.55,58.73C968.43,33.05 1022.63,14.41 1079.24,13.97C1155.99,13.38 1233.43,38.95 1305.4,62.94C1418.86,100.76 1529.29,146.96 1641.23,188.89C1691.06,207.55 1741.22,225.77 1792.45,240.27C1832.76,251.68 1877.71,264.32 1920.01,258.72" style="fill:none;fill-rule:nonzero;stroke:rgb(17,18,18);stroke-opacity:0.63;stroke-width:2.89px;"/>
            </g>
            <g transform="matrix(2.50409,0,0,2.02483,36.9373,-11.6516)">
                <path d="M-18.76,78.44C50.08,53.37 117.1,53.81 181.87,89.72C233.07,118.11 275.36,159.84 320.82,196.13C363.64,230.31 410.82,261.42 465.54,271.83C523.04,282.76 581.82,270.29 634.85,247.37C740.91,201.54 826.05,119.58 927.51,65.53C976.89,39.23 1031.02,19.72 1087.53,19.24C1163.84,18.59 1241.13,45.29 1312.34,69.88C1424.9,108.75 1534.28,156.11 1645.23,199.23C1694.44,218.35 1743.99,237.05 1794.64,252.01C1834.07,263.65 1878.44,276.77 1919.99,271.13" style="fill:none;fill-rule:nonzero;stroke:rgb(17,18,18);stroke-opacity:0.62;stroke-width:2.89px;"/>
            </g>
            <g transform="matrix(2.50409,0,0,2.02483,36.9373,-11.6516)">
                <path d="M-23.3,96.85C46.32,70.56 114.7,69.85 181.53,104.27C234.47,131.54 278.86,172.53 325.9,208.4C371.5,243.17 421.14,274.81 478.52,284.94C534.25,294.78 590.92,283.05 642.2,260.58C749.3,213.64 833.92,128.96 935.69,72.78C984.15,46.03 1037.89,25.33 1093.91,24.47C1171.65,23.29 1250.79,52.18 1322.85,78.09C1433.91,118.02 1541.72,166.28 1651.16,210.32C1699.4,229.73 1747.98,248.73 1797.73,263.98C1836.02,275.72 1879.49,289.15 1920.02,283.49" style="fill:none;fill-rule:nonzero;stroke:rgb(17,18,18);stroke-opacity:0.6;stroke-width:2.89px;"/>
            </g>
            <g transform="matrix(2.50409,0,0,2.02483,36.9373,-11.6516)">
                <path d="M-27.8,115.18C42.51,87.7 112.4,85.76 181.13,118.79C237.39,145.83 284.91,187.52 335.17,223.82C380.86,256.81 430.23,286.86 486.43,297.17C543.84,307.7 601.58,295.64 654.11,271.72C760.22,223.4 843.14,137.47 943.8,80.02C993.04,51.91 1047.95,30.07 1105.43,29.71C1182.69,29.22 1261.99,59.76 1333.22,86.39C1439.89,126.27 1543.44,173.92 1648.45,217.88C1698.53,238.84 1748.96,259.5 1800.74,275.97C1837.91,287.79 1880.49,301.54 1920.01,295.85" style="fill:none;fill-rule:nonzero;stroke:rgb(17,18,18);stroke-opacity:0.58;stroke-width:2.89px;"/>
            </g>
            <g transform="matrix(2.50409,0,0,2.02483,36.9373,-11.6516)">
                <path d="M-32.26,133.4C39.19,104.57 110.79,101.66 181.66,133.72C239.84,160.04 289.61,201.21 341.83,237.22C389.09,269.82 439.85,299.7 497.13,309.88C554.87,320.13 612.38,307.99 664.89,283.3C770.72,233.55 852.44,145.84 952.58,86.85C1001.3,58.15 1056.16,35.4 1113.56,35C1190.37,34.47 1269.57,66.19 1339.99,93.39C1445.82,134.27 1548.39,183.02 1652.44,228.11C1701.88,249.54 1751.68,270.69 1802.88,287.63C1839.18,299.64 1881.21,313.88 1920.01,308.13" style="fill:none;fill-rule:nonzero;stroke:rgb(17,18,18);stroke-opacity:0.57;stroke-width:2.89px;"/>
            </g>
            <g transform="matrix(2.50409,0,0,2.02483,36.9373,-11.6516)">
                <path d="M-36.66,151.47C35.52,121.43 108.37,117.42 181.12,148.07C240.99,173.29 292.74,213.72 346.57,249.31C396.55,282.36 449.86,313.01 509.79,322.91C567.49,332.44 624.49,319.69 676.51,294.37C782.89,242.61 863.93,151.94 964.84,91.5C1011.52,63.54 1064.49,41.24 1119.69,40.48C1195.31,39.44 1273.28,71.37 1342.32,98.7C1449.52,141.13 1553.07,192.07 1658.24,239.16C1706.71,260.86 1755.53,282.3 1805.8,299.53C1841,311.59 1882.19,326.14 1920,320.36" style="fill:none;fill-rule:nonzero;stroke:rgb(17,18,18);stroke-opacity:0.55;stroke-width:2.89px;"/>
            </g>
            <g transform="matrix(2.50409,0,0,2.02483,36.9373,-11.6516)">
                <path d="M-40.97,169.34C32.37,137.93 106.77,133.07 181.6,162.72C243.33,187.18 297.31,227.12 352.99,262.49C404.45,295.18 459.22,325.66 520.2,335.44C578.2,344.74 634.97,331.89 686.96,305.83C793.06,252.65 872.9,160.25 973.31,98.3C1019.52,69.79 1072.41,46.68 1127.56,45.88C1202.79,44.78 1280.64,77.81 1348.94,105.69C1455.32,149.1 1557.9,201.14 1662.11,249.37C1709.96,271.51 1758.17,293.43 1807.88,311.11C1842.22,323.33 1882.9,338.38 1920,332.5" style="fill:none;fill-rule:nonzero;stroke:rgb(17,18,18);stroke-opacity:0.53;stroke-width:2.89px;"/>
            </g>
            <g transform="matrix(2.50409,0,0,2.02483,36.9373,-11.6516)">
                <path d="M-45.19,186.98C28.82,154.39 104.58,148.53 180.94,176.76C244.26,200.17 300.13,239.33 357.35,274.33C409.93,306.49 465.72,337.24 527.32,347.34C585.24,356.84 641.71,345.27 693.71,318.97C799.42,265.51 877.91,172.29 976.57,108.32C1024.45,77.27 1080.24,51.09 1138.48,51.3C1213.62,51.57 1290.93,85.41 1358.8,114.09C1463.79,158.46 1564.91,211.3 1667.72,260.37C1714.63,282.76 1761.88,304.94 1810.7,322.89C1843.8,335.06 1883.93,350.46 1920,344.54" style="fill:none;fill-rule:nonzero;stroke:rgb(17,18,18);stroke-opacity:0.52;stroke-width:2.89px;"/>
            </g>
            <g transform="matrix(2.50409,0,0,2.02483,36.9373,-11.6516)">
                <path d="M-49.3,204.36C25.8,170.4 103.05,163.73 181.34,191.02C246.46,213.72 304.39,252.45 363.44,287.2C417.46,318.99 474.56,349.62 537.21,359.62C595.42,368.92 651.7,357.3 703.67,330.3C809.14,275.49 886.47,180.62 984.64,115.2C1032.03,83.62 1087.74,56.58 1145.95,56.8C1220.76,57.08 1297.92,91.91 1365.11,121.13C1469.32,166.45 1569.52,220.34 1671.41,270.5C1717.73,293.31 1764.39,315.93 1812.68,334.32C1844.93,346.6 1884.62,362.51 1919.99,356.46" style="fill:none;fill-rule:nonzero;stroke:rgb(17,18,18);stroke-opacity:0.51;stroke-width:2.89px;"/>
            </g>
            <g transform="matrix(2.50409,0,0,2.02483,36.9373,-11.6516)">
                <path d="M-53.28,221.43C22.53,186.26 100.72,178.63 180.56,204.64C249.06,226.95 310.23,266.46 372.54,301.64C427.73,332.79 485.67,362.53 549.05,372.03C608.98,381.02 666.02,367.68 718.66,338.62C822.47,281.32 898.23,185.58 995.97,119.7C1041.23,89.19 1095.5,62.37 1151.37,62.17C1225.03,61.91 1301.25,97.03 1367.04,126.25C1469.94,171.95 1568.67,226.39 1668.93,277.46C1716.89,301.89 1765.22,326.24 1815.37,345.94C1846.83,358.29 1885.38,374.42 1919.99,368.25" style="fill:none;fill-rule:nonzero;stroke:rgb(17,18,18);stroke-opacity:0.49;stroke-width:2.89px;"/>
            </g>
            <g transform="matrix(2.50409,0,0,2.02483,36.9373,-11.6516)">
                <path d="M-57.12,238.16C21.56,200.75 102.57,193.28 185.77,219.96C253.36,241.64 314.38,279.07 376.31,312.93C434.08,344.52 494.61,375.08 560.57,384.34C618.53,392.48 673.73,379.75 724.59,351.56C829.61,293.37 904.79,194.96 1002.79,127.05C1048.78,95.18 1104.13,67.17 1161.53,67.81C1235.07,68.63 1310.9,104.76 1376.32,134.74C1477.94,181.31 1575.33,236.47 1674.28,288.3C1721.32,312.94 1768.71,337.52 1817.99,357.44C1848.45,369.76 1886.3,386.16 1920,379.86" style="fill:none;fill-rule:nonzero;stroke:rgb(17,18,18);stroke-opacity:0.47;stroke-width:2.89px;"/>
            </g>
            <g transform="matrix(2.50409,0,0,2.02483,36.9373,-11.6516)">
                <path d="M-60.8,254.5C18.85,215.72 101.25,207.5 186.18,233.32C255.42,254.37 318.28,291.42 381.88,325.09C440.92,356.34 502.61,386.85 569.53,396.07C627.71,404.08 682.73,391.31 733.52,362.51C838.33,303.08 912.41,203.14 1009.98,133.91C1055.55,101.58 1110.81,72.84 1168.22,73.5C1241.54,74.34 1317.21,111.31 1382.07,141.78C1483.02,189.2 1579.58,245.33 1677.72,298.18C1724.2,323.21 1771.03,348.22 1819.8,368.55C1849.47,380.92 1886.95,397.81 1919.99,391.32" style="fill:none;fill-rule:nonzero;stroke:rgb(17,18,18);stroke-opacity:0.46;stroke-width:2.89px;"/>
            </g>
            <g transform="matrix(2.50409,0,0,2.02483,36.9373,-11.6516)">
                <path d="M-64.3,270.43C15.83,230.5 99.03,221.33 185.32,245.99C257.86,266.71 323.9,304.54 390.64,338.73C448.79,368.52 509.61,397.81 574.94,407.15C634.94,415.73 690.84,403.11 742.98,372.74C846.91,312.21 919.53,211.44 1016.14,141.25C1061.22,108.5 1115.58,79.36 1172.79,79.42C1247.59,79.5 1325.15,118.61 1390.83,150.37C1490.57,198.59 1585.87,255.36 1682.77,308.9C1728.37,334.1 1774.32,359.29 1822.26,379.81C1850.93,392.08 1887.96,409.22 1920,402.58" style="fill:none;fill-rule:nonzero;stroke:rgb(17,18,18);stroke-opacity:0.44;stroke-width:2.89px;"/>
            </g>
            <g transform="matrix(2.50409,0,0,2.02483,36.9373,-11.6516)">
                <path d="M-67.62,285.9C13.34,244.64 97.79,234.77 185.64,258.65C259.74,278.79 327.52,316.27 395.84,350.32C455.07,379.83 516.88,409.1 583.06,418.46C643.25,426.97 699,414.34 751.04,383.4C854.8,321.73 926.38,219.55 1022.6,148.15C1067.33,114.96 1121.56,85.24 1178.82,85.3C1253.47,85.38 1330.88,125.23 1396.09,157.46C1495.24,206.47 1589.78,264.14 1685.94,318.62C1731.02,344.17 1776.45,369.75 1823.93,390.65C1851.85,402.94 1888.59,420.53 1920,413.66" style="fill:none;fill-rule:nonzero;stroke:rgb(17,18,18);stroke-opacity:0.43;stroke-width:2.89px;"/>
            </g>
            <g transform="matrix(2.50409,0,0,2.02483,36.9373,-11.6516)">
                <path d="M-70.72,300.87C10.54,258.53 95.75,247.8 184.64,270.56C259.91,289.83 329.08,326.67 398.53,360.47C460.24,390.5 524.29,420.5 592.98,429.76C652.9,437.84 708.1,424.62 759.56,393.35C863.94,329.93 934.74,225 1032.02,152.52C1074.95,120.54 1127.66,91.48 1182.71,91.09C1256.25,90.58 1333.23,130.56 1397.08,162.55C1497.73,212.97 1593.32,272.77 1690.63,329.19C1734.89,354.86 1779.5,380.59 1826.2,401.62C1853.23,413.79 1889.43,431.6 1920,424.5" style="fill:none;fill-rule:nonzero;stroke:rgb(17,18,18);stroke-opacity:0.41;stroke-width:2.89px;"/>
            </g>
            <g transform="matrix(2.50409,0,0,2.02483,36.9373,-11.6516)">
                <path d="M-73.61,315.31C8.32,271.7 94.61,260.32 184.85,282.39C261.53,301.14 332.26,337.68 403.14,371.38C465.8,401.17 530.71,431.21 600.14,440.53C660.2,448.6 715.26,435.39 766.61,403.65C870.85,339.21 940.67,232.96 1037.62,159.39C1080.28,127.01 1132.86,97.56 1187.98,97.17C1261.47,96.65 1338.3,137.19 1401.82,169.62C1501.97,220.75 1596.87,281.4 1693.5,338.72C1737.3,364.7 1781.43,390.77 1827.72,412.13C1854.05,424.28 1890.05,442.51 1920.01,435.11" style="fill:none;fill-rule:nonzero;stroke:rgb(17,18,18);stroke-opacity:0.39;stroke-width:2.89px;"/>
            </g>
            <g transform="matrix(2.50409,0,0,2.02483,36.9373,-11.6516)">
                <path d="M-76.26,329.18C7.96,283.36 97.44,272.08 190.49,295.01C265.6,313.52 335.39,348.31 405.14,380.84C521.25,434.99 649.97,489.62 769.86,415.79C873.97,351.67 942.98,245.12 1038.09,169.93C1082.57,134.77 1137.42,103.02 1195.92,103.36C1267,103.78 1340.89,142.95 1402.28,174.64C1503.99,227.14 1599.99,289.89 1697.81,349.12C1740.84,375.17 1784.22,401.34 1829.8,422.77C1855.31,434.77 1890.86,453.16 1920.01,445.47" style="fill:none;fill-rule:nonzero;stroke:rgb(17,18,18);stroke-opacity:0.37;stroke-width:2.89px;"/>
            </g>
            <g transform="matrix(2.50409,0,0,2.02483,36.9373,-11.6516)">
                <path d="M-78.66,342.44C6.07,295.37 96.5,283.5 190.71,305.83C267.03,323.91 338.15,358.49 409.1,390.97C525.71,444.35 655.85,500.58 775.75,425.71C879.79,360.75 947.91,253 1042.71,176.88C1086.99,141.33 1141.65,109.33 1200.27,109.68C1271.41,110.1 1345.15,149.61 1406.36,181.71C1507.67,234.84 1603.07,298.38 1700.31,358.42C1742.93,384.73 1785.9,411.21 1831.11,432.9C1855.99,444.84 1891.41,463.61 1919.99,455.54" style="fill:none;fill-rule:nonzero;stroke:rgb(17,18,18);stroke-opacity:0.36;stroke-width:2.89px;"/>
            </g>
            <g transform="matrix(2.50409,0,0,2.02483,36.9373,-11.6516)">
                <path d="M-80.78,355.05C4.34,306.76 95.62,294.35 190.87,316.11C268.31,333.81 340.66,368.19 412.72,400.66C529.69,453.38 661.1,511.19 781,435.41C884.98,369.7 952.26,260.81 1046.8,183.83C1090.93,147.89 1145.39,115.77 1204.15,116.12C1275.42,116.55 1349,156.28 1410.1,188.79C1511.06,242.5 1605.92,306.78 1702.63,367.58C1744.87,394.14 1787.45,420.89 1832.34,442.81C1856.63,454.67 1891.97,473.79 1919.99,465.32" style="fill:none;fill-rule:nonzero;stroke:rgb(17,18,18);stroke-opacity:0.35;stroke-width:2.89px;"/>
            </g>
            <g transform="matrix(2.50409,0,0,2.02483,36.9373,-11.6516)">
                <path d="M-82.62,366.98C2.32,317.75 93.84,304.65 189.57,325.54C269.93,343.07 344.96,378.41 419.74,411.59C536.63,463.46 667.48,520.67 786.49,444.27C891.16,377.08 957.83,265.91 1053.58,188.14C1096.4,153.36 1148.95,122.98 1205.73,122.87C1278.98,122.73 1354.11,163.72 1416.58,197.58C1516.62,251.79 1610.54,316.44 1706.34,377.63C1746.16,403.06 1786.26,428.56 1828.45,449.95C1853.03,462.41 1891.1,484.22 1920.02,474.81" style="fill:none;fill-rule:nonzero;stroke:rgb(17,18,18);stroke-opacity:0.33;stroke-width:2.89px;"/>
            </g>
            <g transform="matrix(2.50409,0,0,2.02483,36.9373,-11.6516)">
                <path d="M-84.16,378.18C0.94,327.81 93.09,314.24 189.59,334.67C270.9,351.88 346.97,387.1 422.66,420.35C539.67,471.75 671.37,530.5 790.34,453.48C895.01,385.72 960.91,273.54 1056.47,195.09C1099.24,159.97 1151.59,129.68 1208.53,129.58C1282.03,129.45 1357,170.45 1419.53,204.7C1519.34,259.38 1612.84,324.67 1708.23,386.51C1747.76,412.13 1787.56,437.84 1829.49,459.39C1853.51,471.73 1891.62,493.87 1919.99,483.95" style="fill:none;fill-rule:nonzero;stroke:rgb(17,18,18);stroke-opacity:0.32;stroke-width:2.89px;"/>
            </g>
            <g transform="matrix(2.50409,0,0,2.02483,36.9373,-11.6516)">
                <path d="M-85.39,388.62C-0.75,337.43 91.44,323.24 188.12,342.9C269.93,359.53 346.62,394.35 422.73,427.55C488.19,456.11 555.32,486.66 626.43,497.8C687.25,507.33 742.85,495.68 794.35,461.9C898.29,393.74 963.28,281.4 1058.07,202.65C1100.41,167.47 1152.27,136.91 1208.97,136.35C1284.46,135.6 1361.23,178.03 1425.12,213.55C1524.14,268.61 1616.81,334.17 1711.44,396.25C1750.4,421.82 1789.66,447.49 1831.09,468.94C1854.48,481.05 1892.34,503.17 1920,492.76" style="fill:none;fill-rule:nonzero;stroke:rgb(17,18,18);stroke-opacity:0.28;stroke-width:2.89px;"/>
            </g>
            <g transform="matrix(2.50409,0,0,2.02483,36.9373,-11.6516)">
                <path d="M-86.28,398.26C-1.74,346.01 90.83,331.45 188.01,350.76C270.56,367.16 348.04,401.94 424.82,435.29C542.75,486.52 676.78,549.6 796.68,470.6C900.67,402.08 965.01,288.89 1059.68,209.65C1102.09,174.15 1153.69,143.94 1210.6,143.39C1286.5,142.66 1363.08,184.79 1427.25,220.73C1526.16,276.13 1618.55,342.23 1712.91,404.84C1751.64,430.54 1790.67,456.37 1831.92,477.9C1854.88,489.88 1892.84,512.21 1920,501.21" style="fill:none;fill-rule:nonzero;stroke:rgb(17,18,18);stroke-opacity:0.26;stroke-width:2.89px;"/>
            </g>
            <g transform="matrix(2.50409,0,0,2.02483,36.9373,-11.6516)">
                <path d="M-86.82,407.07C-2.51,353.81 90.3,338.92 187.82,357.94C270.99,374.16 349.14,408.94 426.46,442.47C544.12,493.5 678.34,558.15 798.16,479.01C902.25,410.26 965.97,296.28 1060.57,216.67C1103.11,180.87 1154.44,151.14 1211.57,150.61C1287.96,149.9 1364.33,191.59 1428.89,227.94C1527.77,283.61 1619.95,350.21 1714.12,413.27C1752.66,439.08 1791.49,465.04 1832.61,486.61C1855.2,498.46 1893.3,520.93 1919.99,509.3" style="fill:none;fill-rule:nonzero;stroke:rgb(17,18,18);stroke-opacity:0.25;stroke-width:2.89px;"/>
            </g>
            <g transform="matrix(2.50409,0,0,2.02483,36.9373,-11.6516)">
                <path d="M-87,415C-3.04,360.79 89.88,345.62 187.61,364.42C271.27,380.51 349.93,415.34 427.64,449.1C544.92,500.05 679.05,566.23 798.78,487.11C902.99,418.25 966.2,303.6 1060.76,223.73C1103.48,187.65 1154.53,158.51 1211.9,158.01C1288.83,157.34 1365.01,198.44 1430.05,235.18C1528.96,291.05 1620.99,358.05 1715.05,421.49C1753.43,447.38 1792.12,473.44 1833.14,495C1855.45,506.72 1893.71,529.26 1920,517" style="fill:none;fill-rule:nonzero;stroke:rgb(17,18,18);stroke-opacity:0.24;stroke-width:2.89px;"/>
            </g>
            <g transform="matrix(2.50409,0,0,2.02483,36.9373,-11.6516)">
                <path d="M-86.88,422.43C-2.84,368.49 89.92,352.24 187.78,370.83C272.98,387.02 352.84,423.11 431.76,457.81C496.73,486.37 563.22,517.3 633.73,529.17C693.77,539.28 748.47,527.18 799.11,493.47C902.48,424.67 966.32,311.77 1060.44,232.42C1104.01,195.68 1156.5,165.53 1215.09,165.78C1289.01,166.1 1363.17,206.17 1425.87,241.19C1524,296.01 1615.37,361.93 1708.53,424.56C1748.88,451.68 1789.52,479.11 1832.67,501.66C1855.52,513.6 1893.04,535.48 1920,524.28" style="fill:none;fill-rule:nonzero;stroke:rgb(17,18,18);stroke-opacity:0.22;stroke-width:2.89px;"/>
            </g>
            <g transform="matrix(2.50409,0,0,2.02483,36.9373,-11.6516)">
                <path d="M-86.55,429.72C-2.04,375.76 91,358.62 189.4,377.38C274.16,393.54 353.48,429.82 431.83,464.69C496.47,493.46 562.66,524.54 632.96,536.43C693.04,546.59 747.62,534.05 798.29,500.44C901.67,431.87 966.41,319.86 1060.76,240.9C1104.16,204.58 1156.96,173.78 1215.25,174.06C1288.75,174.41 1363.25,214.92 1425.61,249.6C1523.35,303.95 1614.47,369.21 1707.38,431.2C1747.78,458.15 1788.46,485.36 1831.59,507.8C1855.09,520.03 1892.25,541.49 1919.99,531.19" style="fill:none;fill-rule:nonzero;stroke:rgb(17,18,18);stroke-opacity:0.21;stroke-width:2.89px;"/>
            </g>
            <g transform="matrix(2.50409,0,0,2.02483,36.9373,-11.6516)">
                <path d="M-86.01,436.87C-1.11,382.91 92.17,364.86 191.04,383.79C275.32,399.93 354.02,436.38 431.75,471.43C496.02,500.4 561.84,531.64 631.89,543.54C691.98,553.75 746.49,540.83 797.21,507.39C900.67,439.18 966.41,328.14 1061.06,249.69C1104.37,213.79 1157.48,182.5 1215.51,182.8C1288.6,183.18 1363.35,223.92 1425.43,258.23C1522.76,312.01 1613.63,376.52 1706.28,437.77C1746.71,464.5 1787.44,491.45 1830.56,513.72C1854.72,526.19 1891.55,547.19 1920.02,537.71" style="fill:none;fill-rule:nonzero;stroke:rgb(17,18,18);stroke-opacity:0.19;stroke-width:2.89px;"/>
            </g>
            <g transform="matrix(2.50409,0,0,2.02483,36.9373,-11.6516)">
                <path d="M-85.27,443.91C-0.04,389.95 93.42,370.99 192.69,390.09C276.43,406.2 354.46,442.84 431.5,478.05C495.33,507.23 560.74,538.62 630.49,550.54C690.57,560.81 745.06,547.55 795.86,514.34C899.47,446.61 966.29,336.61 1061.32,258.79C1104.63,223.32 1158.05,191.7 1215.85,192.01C1288.54,192.41 1363.45,233.2 1425.3,267.1C1522.21,320.22 1612.81,383.89 1705.2,444.31C1745.66,470.77 1786.42,497.42 1829.52,519.45C1854.32,532.13 1890.87,552.61 1920.01,543.88" style="fill:none;fill-rule:nonzero;stroke:rgb(17,18,18);stroke-opacity:0.17;stroke-width:2.89px;"/>
            </g>
            <g transform="matrix(2.50409,0,0,2.02483,36.9373,-11.6516)">
                <path d="M-84.35,450.82C1.13,396.86 94.74,376.98 194.34,396.25C277.49,412.34 354.79,449.15 431.09,484.54C494.44,513.92 559.38,545.46 628.78,557.4C688.84,567.73 743.34,554.18 794.24,521.27C898.07,454.13 966.06,345.25 1061.53,268.15C1104.92,233.11 1158.64,201.31 1216.25,201.64C1288.56,202.05 1363.54,242.71 1425.21,276.18C1521.68,328.55 1612.02,391.3 1704.12,450.79C1744.61,476.94 1785.4,503.24 1828.47,524.99C1853.9,537.83 1890.23,557.77 1919.98,549.7" style="fill:none;fill-rule:nonzero;stroke:rgb(17,18,18);stroke-opacity:0.16;stroke-width:2.89px;"/>
            </g>
            <g transform="matrix(2.50409,0,0,2.02483,36.9373,-11.6516)">
                <path d="M-83.24,457.62C2.43,403.68 96.14,382.86 196.02,402.31C278.53,418.37 355.05,455.37 430.57,490.93C493.39,520.51 557.82,552.2 626.83,564.16C686.85,574.56 741.41,560.76 792.43,528.2C896.54,461.77 965.77,354.07 1061.76,277.8C1105.3,243.2 1159.32,211.36 1216.78,211.69C1288.72,212.1 1363.69,252.46 1425.22,285.48C1521.25,337.02 1611.3,398.77 1703.12,457.25C1743.63,483.05 1784.44,508.96 1827.49,530.37C1853.53,543.33 1889.68,562.69 1920.01,555.22" style="fill:none;fill-rule:nonzero;stroke:rgb(17,18,18);stroke-opacity:0.14;stroke-width:2.89px;"/>
            </g>
            <g transform="matrix(2.50409,0,0,2.02483,36.9373,-11.6516)">
                <path d="M-81.97,464.32C3.82,410.4 97.6,388.64 197.71,408.26C279.55,424.3 355.23,461.47 429.9,497.2C492.14,526.98 556.02,558.82 624.59,570.8C684.56,581.27 739.21,567.27 790.37,535.12C894.81,469.49 965.37,363.05 1061.94,287.7C1105.71,253.55 1160.01,221.79 1217.36,222.13C1288.95,222.54 1363.83,262.44 1425.26,294.98C1520.83,345.6 1610.59,406.28 1702.12,463.66C1742.64,489.06 1783.48,514.55 1826.49,535.58C1853.14,548.61 1889.15,567.38 1919.99,560.43" style="fill:none;fill-rule:nonzero;stroke:rgb(17,18,18);stroke-opacity:0.13;stroke-width:2.89px;"/>
            </g>
            <g transform="matrix(2.50409,0,0,2.02483,36.9373,-11.6516)">
                <path d="M-80.53,470.91C5.32,417.02 99.13,394.31 199.4,414.1C280.52,430.11 355.33,467.47 429.1,503.36C490.72,533.34 553.99,565.33 622.1,577.33C682,587.88 736.79,573.7 788.1,542.02C892.93,477.29 964.89,372.16 1062.09,297.82C1106.15,264.12 1160.73,232.58 1218.01,232.91C1289.25,233.32 1363.98,272.6 1425.36,304.63C1520.47,354.26 1609.93,413.79 1701.16,470.01C1741.69,494.98 1782.55,520 1825.52,540.61C1852.75,553.67 1888.67,571.83 1920,565.32" style="fill:none;fill-rule:nonzero;stroke:rgb(17,18,18);stroke-opacity:0.11;stroke-width:2.89px;"/>
            </g>
            <g transform="matrix(2.50409,0,0,2.02483,36.9373,-11.6516)">
                <path d="M-78.95,477.41C6.91,423.56 100.71,399.87 201.11,419.85C281.47,435.84 355.35,473.37 428.19,509.43C489.15,539.61 551.78,571.75 619.39,583.77C679.2,594.4 734.17,580.09 785.65,548.92C890.93,485.18 964.35,381.43 1062.24,308.18C1106.65,274.95 1161.51,243.73 1218.75,244.05C1289.66,244.46 1364.16,282.99 1425.52,314.47C1520.15,363.03 1609.31,421.36 1700.23,476.34C1740.76,500.85 1781.63,525.37 1824.56,545.5C1852.36,558.54 1888.22,576.07 1919.99,569.95" style="fill:none;fill-rule:nonzero;stroke:rgb(17,18,18);stroke-opacity:0.09;stroke-width:2.89px;"/>
            </g>
            <g transform="matrix(2.50409,0,0,2.02483,36.9373,-11.6516)">
                <path d="M-77.22,483.82C8.58,430.02 102.37,405.35 202.83,425.51C282.4,441.48 355.31,479.19 427.17,515.41C487.43,545.79 549.38,578.08 616.45,590.12C676.16,600.84 731.35,586.43 783.01,555.82C888.79,493.14 963.73,390.85 1062.36,318.77C1107.18,286.02 1162.31,255.22 1219.54,255.54C1290.14,255.94 1364.34,293.58 1425.72,324.51C1519.87,371.94 1608.72,428.99 1699.33,482.67C1739.86,506.68 1780.75,530.66 1823.63,550.29C1851.99,563.27 1887.82,580.16 1920.01,574.36" style="fill:none;fill-rule:nonzero;stroke:rgb(17,18,18);stroke-opacity:0.08;stroke-width:2.89px;"/>
            </g>
            <g transform="matrix(2.50409,0,0,2.02483,36.9373,-11.6516)">
                <path d="M-75.36,490.14C10.34,436.4 104.08,410.73 204.55,431.08C283.29,447.03 355.2,484.91 426.04,521.3C485.56,551.88 546.8,584.32 613.31,596.37C672.91,607.17 728.34,592.71 780.2,562.7C886.52,501.16 963.04,400.37 1062.47,329.53C1107.76,297.26 1163.14,266.99 1220.4,267.3C1290.69,267.69 1364.54,304.33 1425.96,334.66C1519.62,380.9 1608.15,436.62 1698.44,488.92C1738.97,512.4 1779.86,535.81 1822.69,554.9C1851.59,567.78 1887.43,584.01 1920,578.49" style="fill:none;fill-rule:nonzero;stroke:rgb(17,18,18);stroke-opacity:0.06;stroke-width:2.89px;"/>
            </g>
            <g transform="matrix(2.50409,0,0,2.02483,36.9373,-11.6516)">
                <path d="M-73.38,496.39C12.17,442.72 105.83,416.04 206.29,436.58C284.18,452.5 355.04,490.57 424.82,527.12C483.57,557.89 544.05,590.48 609.97,602.56C669.46,613.46 725.17,598.96 777.22,569.59C884.13,509.25 962.28,410.04 1062.55,340.5C1108.35,308.73 1163.98,279.06 1221.31,279.37C1291.3,279.74 1364.75,315.28 1426.25,344.98C1519.41,389.97 1607.62,444.3 1697.58,495.18C1738.11,518.1 1779,540.92 1821.77,559.43C1851.21,572.18 1887.07,587.73 1920.01,582.43" style="fill:none;fill-rule:nonzero;stroke:rgb(17,18,18);stroke-opacity:0.05;stroke-width:2.89px;"/>
            </g>
            <g transform="matrix(2.50409,0,0,2.02483,36.9373,-11.6516)">
                <path d="M-71.29,502.57C14.07,448.98 107.64,421.27 208.02,442C285.03,457.9 354.81,496.15 423.5,532.86C481.45,563.83 541.15,596.57 606.45,608.66C665.81,619.65 721.83,605.16 774.09,576.45C881.63,517.38 961.46,419.79 1062.62,351.61C1108.98,320.36 1164.85,291.37 1222.27,291.66C1291.98,292.01 1364.96,326.35 1426.57,355.4C1519.22,399.08 1607.11,451.98 1696.73,501.38C1737.25,523.71 1778.15,545.9 1820.85,563.82C1850.81,576.39 1886.73,591.27 1920,586.14" style="fill:none;fill-rule:nonzero;stroke:rgb(17,18,18);stroke-opacity:0.03;stroke-width:2.89px;"/>
            </g>
            <g transform="matrix(2.50409,0,0,2.02483,42.1993,-11.6516)">
                <path d="M-69.09,508.68C16.03,455.18 109.5,426.43 209.78,447.36C285.89,463.24 354.55,501.67 422.12,538.54C479.23,569.7 538.13,602.59 602.79,614.71C662.02,625.81 718.37,611.34 770.84,583.33C879.05,525.57 960.6,429.67 1062.68,362.9C1109.64,332.18 1165.74,303.95 1223.28,304.22C1292.71,304.55 1365.2,337.61 1426.92,365.96C1519.06,408.29 1606.62,459.71 1695.9,507.57C1736.41,529.29 1777.31,550.83 1819.95,568.12C1850.42,580.48 1886.41,594.67 1920,589.68" style="fill:none;fill-rule:nonzero;stroke:rgb(17,18,18);stroke-opacity:0.02;stroke-width:3.07px;"/>
            </g>
        </g>
    </g>
</svg>
