<?xml version="1.0" encoding="UTF-8" standalone="no"?>
<!DOCTYPE svg PUBLIC "-//W3C//DTD SVG 1.1//EN" "http://www.w3.org/Graphics/SVG/1.1/DTD/svg11.dtd">
<svg width="100%" height="100%" viewBox="0 0 900 300" version="1.1" xmlns="http://www.w3.org/2000/svg" xmlns:xlink="http://www.w3.org/1999/xlink" xml:space="preserve" xmlns:serif="http://www.serif.com/" style="fill-rule:evenodd;clip-rule:evenodd;stroke-linejoin:round;stroke-miterlimit:2;">
    <g transform="matrix(0.96225,0,0,0.96225,-473.353,-259.807)">
        <g opacity="0.25">
            <g transform="matrix(1.01443,-0.585683,1.01443,0.585683,-562.073,245.987)">
                <g transform="matrix(0.512222,0.512222,-0.887195,0.887195,499,540)">
                    <path d="M393.75,194.856L365.625,211.094L393.75,227.332L450,194.856L421.875,178.618L450,162.38L478.125,178.618L534.375,146.142L506.25,129.904L478.125,146.142L450,129.904L365.625,178.618L393.75,194.856ZM478.125,178.618L421.875,211.094L450,227.332L506.25,194.856L478.125,178.618ZM309.375,146.142L281.25,162.38L309.375,178.618L337.5,162.38L309.375,146.142ZM731.25,64.952L675,97.428L703.125,113.666L759.375,81.19L731.25,64.952ZM534.375,81.19L590.625,113.666L675,64.952L646.875,48.714L618.75,64.952L590.625,48.714L534.375,81.19ZM196.875,48.714L168.75,64.952L196.875,81.19L225,64.952L196.875,48.714ZM140.625,48.714L112.5,64.952L140.625,81.19L168.75,64.952L140.625,48.714ZM815.625,16.238L787.5,32.476L815.625,48.714L843.75,32.476L815.625,16.238ZM421.875,-48.714L253.125,48.714L281.25,64.952L225,97.428L196.875,81.19L168.75,97.428L253.125,146.142L309.375,113.666L365.625,146.142L393.75,129.904L309.375,81.19L337.5,64.952L365.625,81.19L393.75,64.952L365.625,48.714L421.875,16.238L450,32.476L421.875,48.714L450,64.952L393.75,97.428L421.875,113.666L450,97.428L506.25,129.904L534.375,113.666L506.25,97.428L534.375,81.19L506.25,64.952L457.512,93.091L562.5,32.476L506.25,0L534.375,-16.238L506.25,-32.476L450,0L421.875,-16.238L478.125,-48.714L506.25,-32.476L590.625,-81.19L562.5,-97.428L534.375,-81.19L506.25,-97.428L618.75,-162.379L590.625,-178.617L534.375,-146.141L506.25,-162.379L393.75,-97.428L365.625,-113.666L393.75,-129.903L365.625,-146.141L196.875,-48.714L168.75,-64.952L140.625,-48.714L168.75,-32.476L84.375,16.238L112.5,32.476L140.625,16.238L168.75,32.476L225,0L196.875,-16.238L225,-32.476L253.125,-16.238L196.875,16.238L225,32.476L309.375,-16.238L253.125,-48.714L225,-32.476L309.375,-81.19L337.5,-64.952L365.625,-81.19L421.875,-48.714ZM590.625,-16.238L562.5,0L590.625,16.238L618.75,0L590.625,-16.238ZM731.25,-64.952L703.125,-48.714L731.25,-32.476L759.375,-48.714L731.25,-64.952ZM337.5,-64.952L309.375,-48.714L337.5,-32.476L365.625,-48.714L337.5,-64.952ZM365.625,-146.141L450,-194.855L421.875,-211.093L337.5,-162.379L365.625,-146.141ZM675,-129.903L562.5,-194.855L478.125,-146.141L450,-162.379L534.375,-211.093L450,-259.807L337.5,-194.855L365.625,-178.617L253.125,-113.666L225,-129.903L196.875,-113.666L225,-97.428L168.75,-64.952L140.625,-81.19L112.5,-64.952L140.625,-48.714L112.5,-32.476L140.625,-16.238L112.5,0L84.375,-16.238L28.125,16.238L0,0L450,259.808L618.75,162.38L590.625,146.142L646.875,113.666L675,129.904L618.75,162.38L900,0L871.875,-16.238L759.375,48.714L703.125,16.238L675,32.476L646.875,16.238L675,0L646.875,-16.238L675,-32.476L646.875,-48.714L590.625,-16.238L562.5,-32.476L675,-97.428L703.125,-81.19L731.25,-97.428L703.125,-113.666L675,-97.428L646.875,-113.666L675,-129.903ZM478.125,-243.569L450,-227.331L478.125,-211.093L506.25,-227.331L478.125,-243.569Z" style="fill:url(#_Linear1);"/>
                </g>
                <g transform="matrix(28.8125,0,0,28.8125,499,540)">
                    <path d="M11,15L9,15L9,16L11,16L11,15ZM15,14L12,14L12,15L16,15L16,13L15,13L15,14ZM2,13L0,13L0,14L2,14L2,13ZM5,11L5,13L6,13L6,12L7,12L7,11L5,11ZM16,11L15,11L15,12L16,12L16,11ZM14,11L12,11L12,12L14,12L14,11ZM0,9L2,9L2,10L3,10L3,8L0,8L0,9ZM15,9L11,9L11,10L15,10L15,9ZM7,9L6,9L6,10L9,10L9,9L10,9L10,8L7,8L7,9ZM5,8L4,8L4,9L5,9L5,8ZM9,6L7,6L7,7L9,7L9,6ZM6,6L3,6L3,7L6,7L6,6ZM16,5L15,5L15,6L16,6L16,5ZM2,5L1,5L1,6L2,6L2,5ZM8,4L9,4L9,5L13,5L13,4L10,4L10,3L8,3L8,4ZM6,3L5,3L5,4L6,4L6,3ZM4,3L2,3L2,4L4,4L4,3ZM4,0L0,0L0,1L4,1L4,0Z" style="fill:url(#_Linear2);"/>
                </g>
                <g transform="matrix(28.8125,0,0,28.8125,499,540)">
                    <path d="M14,15L13,15L13,16L14,16L14,15ZM8,15L6,15L6,16L8,16L8,15ZM3,14L1,14L1,15L3,15L3,14ZM1,13L3,13L3,14L5,14L5,13L4,13L4,12L1,12L1,13ZM13,13L12,13L12,14L15,14L15,13L14,13L14,12L13,12L13,13ZM7,12L7,14L10,14L10,13L9,13L9,12L7,12ZM16,12L15,12L15,13L16,13L16,12ZM3,10L2,10L2,11L3,11L3,10ZM9,10L8,10L8,11L9,11L9,10ZM11,10L10,10L10,11L11,11L11,10ZM6,10L4,10L4,11L6,11L6,10ZM16,10L13,10L13,11L16,11L16,10ZM16,8L15,8L15,9L16,9L16,8ZM5,7L4,7L4,8L5,8L5,7ZM9,5L9,7L10,7L10,8L13,8L13,7L12,7L12,6L11,6L11,5L9,5ZM0,6L0,8L2,8L2,7L1,7L1,6L0,6ZM6,6L6,8L8,8L8,7L7,7L7,6L6,6ZM13,5L12,5L12,6L13,6L13,5ZM15,5L14,5L14,6L15,6L15,5ZM14,4L13,4L13,5L14,5L14,4ZM6,4L3,4L3,5L6,5L6,4ZM1,4L0,4L0,5L1,5L1,4ZM8,4L7,4L7,5L8,5L8,4ZM16,3L13,3L13,4L16,4L16,3ZM2,2L1,2L1,3L2,3L2,2ZM4,1L4,3L7,3L7,2L5,2L5,1L4,1ZM11,2L8,2L8,3L11,3L11,2ZM3,1L2,1L2,2L3,2L3,1ZM14,1L13,1L13,2L14,2L14,1ZM16,1L15,1L15,2L16,2L16,1ZM7,0L5,0L5,1L7,1L7,0ZM9,0L8,0L8,1L9,1L9,0ZM12,0L10,0L10,1L12,1L12,0Z" style="fill:url(#_Linear3);"/>
                </g>
                <g transform="matrix(28.8125,0,0,28.8125,499,540)">
                    <path d="M15,12L14,12L14,13L15,13L15,12ZM13,12L11,12L11,13L13,13L13,12ZM1,10L0,10L0,11L1,11L1,10ZM8,10L6,10L6,11L8,11L8,10ZM6,7L5,7L5,8L6,8L6,7ZM4,7L2,7L2,8L4,8L4,7ZM12,5L11,5L11,6L12,6L12,5ZM14,5L13,5L13,6L14,6L14,5ZM8,2L7,2L7,3L8,3L8,2ZM4,2L2,2L2,3L4,3L4,2ZM13,1L11,1L11,2L13,2L13,1ZM10,0L9,0L9,1L10,1L10,0Z" style="fill:url(#_Linear4);"/>
                </g>
            </g>
            <g transform="matrix(1.01443,-0.585683,-5.03673e-17,1.17137,453.374,199.718)">
                <g opacity="0.75">
                    <g transform="matrix(1.02444,0.512222,4.40498e-17,0.887195,38,78.9997)">
                        <path d="M787.5,64.952L787.5,97.428L675,162.38L675,129.904L646.875,146.142L646.875,178.618L590.625,211.094L590.625,178.618L562.5,194.856L562.5,227.332L450,292.284L450,389.712L478.125,373.474L478.125,405.95L450,422.188L450,454.664L478.125,438.426L478.125,470.902L534.375,438.426L534.375,405.95L703.125,308.522L703.125,243.57L675,259.808L675,227.332L618.75,259.808L618.75,324.76L534.375,373.474L534.375,340.998L590.625,308.522L590.625,276.046L562.5,292.284L562.5,324.76L506.25,357.236L506.25,324.76L478.125,340.998L478.125,308.522L506.25,292.284L506.25,259.808L534.375,243.57L534.375,276.046L562.5,259.808L562.5,227.332L590.625,211.094L590.625,243.57L759.375,146.142L759.375,178.618L731.25,194.856L731.25,227.332L843.75,162.38L843.75,194.856L900,162.38L900,194.856L787.5,259.808L787.5,292.284L815.625,276.046L815.625,308.522L731.25,357.236L731.25,324.76L675,357.236L675,389.712L590.625,438.426L590.625,470.902L562.5,487.14L562.5,454.664L450,519.616L534.375,470.902L534.375,568.329L506.25,584.567L506.25,519.616L450,552.092L450,584.567L478.125,568.329L478.125,600.805L450,617.043L450,681.995L506.25,649.519L506.25,681.995L450,714.471L450,779.423L900,519.616L900,0L787.5,64.952ZM534.375,665.757L478.125,698.233L478.125,730.709L534.375,698.233L534.375,665.757ZM675,617.043L618.75,649.519L618.75,681.995L675,649.519L675,617.043ZM478.125,665.757L534.375,633.281L534.375,665.757L590.625,633.281L590.625,600.805L562.5,617.043L562.5,584.567L478.125,633.281L478.125,665.757ZM759.375,568.329L703.125,600.805L703.125,633.281L759.375,600.805L759.375,568.329ZM731.25,357.236L646.875,405.95L646.875,438.426L618.75,454.664L618.75,487.14L562.5,519.616L562.5,552.092L590.625,535.854L590.625,600.805L618.75,584.567L618.75,552.092L646.875,535.854L646.875,503.378L703.125,470.902L703.125,405.95L731.25,389.712L731.25,357.236ZM646.875,535.854L646.875,600.805L731.25,552.092L731.25,519.616L703.125,535.854L703.125,503.378L646.875,535.854ZM871.875,373.474L843.75,389.712L843.75,422.188L871.875,405.95L871.875,373.474ZM759.375,405.95L731.25,422.188L731.25,454.664L759.375,438.426L759.375,405.95ZM506.25,389.712L478.125,405.95L478.125,438.426L506.25,422.188L506.25,389.712ZM900,259.808L871.875,276.046L871.875,308.522L900,292.284L900,259.808ZM675,259.808L646.875,276.046L646.875,308.522L675,292.284L675,259.808ZM815.625,178.618L900,129.904L900,97.428L815.625,146.142L815.625,178.618ZM759.375,146.142L843.75,97.428L843.75,64.952L759.375,113.666L759.375,146.142ZM900,32.476L871.875,48.714L871.875,81.19L900,64.952L900,32.476ZM871.875,340.998L871.875,308.522L759.375,373.474L759.375,405.95L815.625,373.474L815.625,405.95L787.5,422.188L787.5,454.664L759.375,470.902L759.375,503.378L787.5,487.14L787.5,552.092L815.625,535.854L815.625,568.329L843.75,552.092L843.75,519.616L900,487.14L900,324.76L871.875,340.998Z" style="fill:url(#_Linear5);"/>
                    </g>
                    <g transform="matrix(28.8125,0,0,28.8125,499,540)">
                        <path d="M11,15L9,15L9,16L11,16L11,15ZM15,14L12,14L12,15L16,15L16,13L15,13L15,14ZM2,13L0,13L0,14L2,14L2,13ZM5,11L5,13L6,13L6,12L7,12L7,11L5,11ZM16,11L15,11L15,12L16,12L16,11ZM14,11L12,11L12,12L14,12L14,11ZM0,9L2,9L2,10L3,10L3,8L0,8L0,9ZM15,9L11,9L11,10L15,10L15,9ZM7,9L6,9L6,10L9,10L9,9L10,9L10,8L7,8L7,9ZM5,8L4,8L4,9L5,9L5,8ZM9,6L7,6L7,7L9,7L9,6ZM6,6L3,6L3,7L6,7L6,6ZM16,5L15,5L15,6L16,6L16,5ZM2,5L1,5L1,6L2,6L2,5ZM8,4L9,4L9,5L13,5L13,4L10,4L10,3L8,3L8,4ZM6,3L5,3L5,4L6,4L6,3ZM4,3L2,3L2,4L4,4L4,3ZM4,0L0,0L0,1L4,1L4,0Z" style="fill:url(#_Linear6);"/>
                    </g>
                    <g transform="matrix(28.8125,0,0,28.8125,499,540)">
                        <path d="M14,15L13,15L13,16L14,16L14,15ZM8,15L6,15L6,16L8,16L8,15ZM3,14L1,14L1,15L3,15L3,14ZM1,13L3,13L3,14L5,14L5,13L4,13L4,12L1,12L1,13ZM13,13L12,13L12,14L15,14L15,13L14,13L14,12L13,12L13,13ZM7,12L7,14L10,14L10,13L9,13L9,12L7,12ZM16,12L15,12L15,13L16,13L16,12ZM3,10L2,10L2,11L3,11L3,10ZM9,10L8,10L8,11L9,11L9,10ZM11,10L10,10L10,11L11,11L11,10ZM6,10L4,10L4,11L6,11L6,10ZM16,10L13,10L13,11L16,11L16,10ZM16,8L15,8L15,9L16,9L16,8ZM5,7L4,7L4,8L5,8L5,7ZM9,5L9,7L10,7L10,8L13,8L13,7L12,7L12,6L11,6L11,5L9,5ZM0,6L0,8L2,8L2,7L1,7L1,6L0,6ZM6,6L6,8L8,8L8,7L7,7L7,6L6,6ZM13,5L12,5L12,6L13,6L13,5ZM15,5L14,5L14,6L15,6L15,5ZM14,4L13,4L13,5L14,5L14,4ZM6,4L3,4L3,5L6,5L6,4ZM1,4L0,4L0,5L1,5L1,4ZM8,4L7,4L7,5L8,5L8,4ZM16,3L13,3L13,4L16,4L16,3ZM2,2L1,2L1,3L2,3L2,2ZM4,1L4,3L7,3L7,2L5,2L5,1L4,1ZM11,2L8,2L8,3L11,3L11,2ZM3,1L2,1L2,2L3,2L3,1ZM14,1L13,1L13,2L14,2L14,1ZM16,1L15,1L15,2L16,2L16,1ZM7,0L5,0L5,1L7,1L7,0ZM9,0L8,0L8,1L9,1L9,0ZM12,0L10,0L10,1L12,1L12,0Z" style="fill:url(#_Linear7);"/>
                    </g>
                    <g transform="matrix(28.8125,0,0,28.8125,499,540)">
                        <path d="M15,12L14,12L14,13L15,13L15,12ZM13,12L11,12L11,13L13,13L13,12ZM1,10L0,10L0,11L1,11L1,10ZM8,10L6,10L6,11L8,11L8,10ZM6,7L5,7L5,8L6,8L6,7ZM4,7L2,7L2,8L4,8L4,7ZM12,5L11,5L11,6L12,6L12,5ZM14,5L13,5L13,6L14,6L14,5ZM8,2L7,2L7,3L8,3L8,2ZM4,2L2,2L2,3L4,3L4,2ZM13,1L11,1L11,2L13,2L13,1ZM10,0L9,0L9,1L10,1L10,0Z" style="fill:url(#_Linear8);"/>
                    </g>
                </g>
            </g>
            <g transform="matrix(1.01443,0.585683,5.03673e-17,1.17137,-14.2794,-654.794)">
                <g opacity="0.5">
                    <g transform="matrix(1.02444,-0.512222,-4.40498e-17,0.887195,499,540)">
                        <path d="M337.5,584.567L337.5,552.092L393.75,584.567L393.75,617.043L421.875,633.281L421.875,600.805L450,617.043L450,746.947L393.75,714.471L393.75,746.947L450,779.423L450,259.808L0,0L112.5,64.952L112.5,97.428L84.375,81.19L84.375,113.666L112.5,129.904L112.5,97.428L140.625,113.666L140.625,146.142L309.375,243.57L309.375,276.046L112.5,162.38L112.5,194.856L140.625,211.094L140.625,178.618L168.75,194.856L168.75,259.808L84.375,211.094L84.375,178.618L56.25,162.38L56.25,129.904L28.125,113.666L28.125,81.19L56.25,97.428L56.25,64.952L0,32.476L0,129.904L28.125,146.142L28.125,178.618L0,162.38L0,194.856L28.125,211.094L28.125,243.57L112.5,292.284L84.375,276.046L84.375,243.57L253.125,340.998L253.125,276.046L225,259.808L225,227.332L281.25,259.808L281.25,292.284L393.75,357.236L393.75,389.712L450,422.188L450,454.664L337.5,389.712L337.5,422.188L365.625,438.426L365.625,470.902L281.25,422.188L281.25,389.712L225,357.236L225,389.712L281.25,422.188L281.25,454.664L253.125,438.426L253.125,470.902L168.75,422.188L168.75,389.712L196.875,405.95L196.875,373.474L140.625,340.998L140.625,373.474L112.5,357.236L112.5,324.76L84.375,308.522L84.375,405.95L56.25,389.712L56.25,324.76L0,292.284L0,324.76L28.125,340.998L28.125,373.474L0,357.236L0,422.188L56.25,454.664L56.25,487.14L84.375,503.378L84.375,535.854L28.125,503.378L28.125,470.902L0,454.664L0,519.616L168.75,617.043L168.75,584.567L225,617.043L225,649.519L253.125,665.757L253.125,633.281L309.375,665.757L309.375,698.233L365.625,730.709L365.625,698.233L337.5,681.995L337.5,617.043L309.375,600.805L309.375,568.329L337.5,584.567ZM421.875,568.329L421.875,535.854L309.375,470.902L309.375,503.378L365.625,535.854L365.625,568.329L450,617.043L450,584.567L421.875,568.329ZM196.875,503.378L196.875,568.329L281.25,617.043L281.25,584.567L253.125,568.329L253.125,535.854L196.875,503.378ZM450,519.616L421.875,503.378L421.875,535.854L450,552.092L450,519.616ZM309.375,503.378L281.25,487.14L281.25,519.616L309.375,535.854L309.375,503.378ZM28.125,438.426L84.375,470.902L84.375,503.378L140.625,535.854L140.625,503.378L112.5,487.14L112.5,454.664L28.125,405.95L28.125,438.426ZM112.5,422.188L140.625,438.426L140.625,503.378L168.75,519.616L168.75,487.14L196.875,503.378L196.875,470.902L253.125,503.378L253.125,470.902L112.5,389.712L112.5,422.188ZM450,357.236L365.625,308.522L365.625,340.998L450,389.712L450,357.236ZM450,292.284L421.875,276.046L421.875,308.522L450,324.76L450,292.284ZM309.375,243.57L393.75,292.284L393.75,259.808L309.375,211.094L309.375,243.57ZM225,259.808L196.875,243.57L196.875,276.046L225,292.284L225,259.808ZM337.5,194.856L225,129.904L225,162.38L337.5,227.332L337.5,194.856ZM56.25,194.856L28.125,178.618L28.125,211.094L56.25,227.332L56.25,194.856ZM196.875,113.666L140.625,81.19L140.625,113.666L196.875,146.142L196.875,113.666Z" style="fill:url(#_Linear9);"/>
                    </g>
                    <g transform="matrix(28.8125,0,0,28.8125,499,540)">
                        <path d="M11,15L9,15L9,16L11,16L11,15ZM15,14L12,14L12,15L16,15L16,13L15,13L15,14ZM2,13L0,13L0,14L2,14L2,13ZM5,11L5,13L6,13L6,12L7,12L7,11L5,11ZM16,11L15,11L15,12L16,12L16,11ZM14,11L12,11L12,12L14,12L14,11ZM0,9L2,9L2,10L3,10L3,8L0,8L0,9ZM15,9L11,9L11,10L15,10L15,9ZM7,9L6,9L6,10L9,10L9,9L10,9L10,8L7,8L7,9ZM5,8L4,8L4,9L5,9L5,8ZM9,6L7,6L7,7L9,7L9,6ZM6,6L3,6L3,7L6,7L6,6ZM16,5L15,5L15,6L16,6L16,5ZM2,5L1,5L1,6L2,6L2,5ZM8,4L9,4L9,5L13,5L13,4L10,4L10,3L8,3L8,4ZM6,3L5,3L5,4L6,4L6,3ZM4,3L2,3L2,4L4,4L4,3ZM4,0L0,0L0,1L4,1L4,0Z" style="fill:url(#_Linear10);"/>
                    </g>
                    <g transform="matrix(28.8125,0,0,28.8125,499,540)">
                        <path d="M14,15L13,15L13,16L14,16L14,15ZM8,15L6,15L6,16L8,16L8,15ZM3,14L1,14L1,15L3,15L3,14ZM1,13L3,13L3,14L5,14L5,13L4,13L4,12L1,12L1,13ZM13,13L12,13L12,14L15,14L15,13L14,13L14,12L13,12L13,13ZM7,12L7,14L10,14L10,13L9,13L9,12L7,12ZM16,12L15,12L15,13L16,13L16,12ZM3,10L2,10L2,11L3,11L3,10ZM9,10L8,10L8,11L9,11L9,10ZM11,10L10,10L10,11L11,11L11,10ZM6,10L4,10L4,11L6,11L6,10ZM16,10L13,10L13,11L16,11L16,10ZM16,8L15,8L15,9L16,9L16,8ZM5,7L4,7L4,8L5,8L5,7ZM9,5L9,7L10,7L10,8L13,8L13,7L12,7L12,6L11,6L11,5L9,5ZM0,6L0,8L2,8L2,7L1,7L1,6L0,6ZM6,6L6,8L8,8L8,7L7,7L7,6L6,6ZM13,5L12,5L12,6L13,6L13,5ZM15,5L14,5L14,6L15,6L15,5ZM14,4L13,4L13,5L14,5L14,4ZM6,4L3,4L3,5L6,5L6,4ZM1,4L0,4L0,5L1,5L1,4ZM8,4L7,4L7,5L8,5L8,4ZM16,3L13,3L13,4L16,4L16,3ZM2,2L1,2L1,3L2,3L2,2ZM4,1L4,3L7,3L7,2L5,2L5,1L4,1ZM11,2L8,2L8,3L11,3L11,2ZM3,1L2,1L2,2L3,2L3,1ZM14,1L13,1L13,2L14,2L14,1ZM16,1L15,1L15,2L16,2L16,1ZM7,0L5,0L5,1L7,1L7,0ZM9,0L8,0L8,1L9,1L9,0ZM12,0L10,0L10,1L12,1L12,0Z" style="fill:url(#_Linear11);"/>
                    </g>
                    <g transform="matrix(28.8125,0,0,28.8125,499,540)">
                        <path d="M15,12L14,12L14,13L15,13L15,12ZM13,12L11,12L11,13L13,13L13,12ZM1,10L0,10L0,11L1,11L1,10ZM8,10L6,10L6,11L8,11L8,10ZM6,7L5,7L5,8L6,8L6,7ZM4,7L2,7L2,8L4,8L4,7ZM12,5L11,5L11,6L12,6L12,5ZM14,5L13,5L13,6L14,6L14,5ZM8,2L7,2L7,3L8,3L8,2ZM4,2L2,2L2,3L4,3L4,2ZM13,1L11,1L11,2L13,2L13,1ZM10,0L9,0L9,1L10,1L10,0Z" style="fill:url(#_Linear12);"/>
                    </g>
                </g>
            </g>
        </g>
    </g>
    <defs>
        <linearGradient id="_Linear1" x1="0" y1="0" x2="1" y2="0" gradientUnits="userSpaceOnUse" gradientTransform="matrix(-1.4937e-14,300,-300,1.83697e-14,450,2.84217e-14)"><stop offset="0" style="stop-color:rgb(127,127,127);stop-opacity:1"/><stop offset="1" style="stop-color:rgb(127,127,127);stop-opacity:0"/></linearGradient>
        <linearGradient id="_Linear2" x1="0" y1="0" x2="1" y2="0" gradientUnits="userSpaceOnUse" gradientTransform="matrix(-8.00001,8.00001,-4.61881,-4.61881,8.00001,7.99999)"><stop offset="0" style="stop-color:rgb(143,143,143);stop-opacity:1"/><stop offset="1" style="stop-color:rgb(143,143,143);stop-opacity:0"/></linearGradient>
        <linearGradient id="_Linear3" x1="0" y1="0" x2="1" y2="0" gradientUnits="userSpaceOnUse" gradientTransform="matrix(-8.00001,8.00001,-4.61881,-4.61881,8.00001,7.99999)"><stop offset="0" style="stop-color:rgb(116,116,116);stop-opacity:1"/><stop offset="1" style="stop-color:rgb(116,116,116);stop-opacity:0"/></linearGradient>
        <linearGradient id="_Linear4" x1="0" y1="0" x2="1" y2="0" gradientUnits="userSpaceOnUse" gradientTransform="matrix(-8.00001,8.00001,-4.61881,-4.61881,8.00001,7.99999)"><stop offset="0" style="stop-color:rgb(104,104,104);stop-opacity:1"/><stop offset="1" style="stop-color:rgb(104,104,104);stop-opacity:0"/></linearGradient>
        <linearGradient id="_Linear5" x1="0" y1="0" x2="1" y2="0" gradientUnits="userSpaceOnUse" gradientTransform="matrix(1.83697e-14,300,-300,1.83697e-14,660.938,0.00031249)"><stop offset="0" style="stop-color:rgb(127,127,127);stop-opacity:1"/><stop offset="1" style="stop-color:rgb(127,127,127);stop-opacity:0"/></linearGradient>
        <linearGradient id="_Linear6" x1="0" y1="0" x2="1" y2="0" gradientUnits="userSpaceOnUse" gradientTransform="matrix(1.1118e-15,9.2376,-10.6667,-5.33333,8,-4.00001)"><stop offset="0" style="stop-color:rgb(143,143,143);stop-opacity:1"/><stop offset="1" style="stop-color:rgb(143,143,143);stop-opacity:0"/></linearGradient>
        <linearGradient id="_Linear7" x1="0" y1="0" x2="1" y2="0" gradientUnits="userSpaceOnUse" gradientTransform="matrix(1.1118e-15,9.2376,-10.6667,-5.33333,8,-4.00001)"><stop offset="0" style="stop-color:rgb(116,116,116);stop-opacity:1"/><stop offset="1" style="stop-color:rgb(116,116,116);stop-opacity:0"/></linearGradient>
        <linearGradient id="_Linear8" x1="0" y1="0" x2="1" y2="0" gradientUnits="userSpaceOnUse" gradientTransform="matrix(1.1118e-15,9.2376,-10.6667,-5.33333,8,-4.00001)"><stop offset="0" style="stop-color:rgb(104,104,104);stop-opacity:1"/><stop offset="1" style="stop-color:rgb(104,104,104);stop-opacity:0"/></linearGradient>
        <linearGradient id="_Linear9" x1="0" y1="0" x2="1" y2="0" gradientUnits="userSpaceOnUse" gradientTransform="matrix(1.83697e-14,300,-300,1.83697e-14,210.938,0.00031249)"><stop offset="0" style="stop-color:rgb(127,127,127);stop-opacity:1"/><stop offset="1" style="stop-color:rgb(127,127,127);stop-opacity:0"/></linearGradient>
        <linearGradient id="_Linear10" x1="0" y1="0" x2="1" y2="0" gradientUnits="userSpaceOnUse" gradientTransform="matrix(1.94492e-16,9.2376,-10.6667,5.33333,8,-4.00001)"><stop offset="0" style="stop-color:rgb(143,143,143);stop-opacity:1"/><stop offset="1" style="stop-color:rgb(143,143,143);stop-opacity:0"/></linearGradient>
        <linearGradient id="_Linear11" x1="0" y1="0" x2="1" y2="0" gradientUnits="userSpaceOnUse" gradientTransform="matrix(1.94492e-16,9.2376,-10.6667,5.33333,8,-4.00001)"><stop offset="0" style="stop-color:rgb(116,116,116);stop-opacity:1"/><stop offset="1" style="stop-color:rgb(116,116,116);stop-opacity:0"/></linearGradient>
        <linearGradient id="_Linear12" x1="0" y1="0" x2="1" y2="0" gradientUnits="userSpaceOnUse" gradientTransform="matrix(1.94492e-16,9.2376,-10.6667,5.33333,8,-4.00001)"><stop offset="0" style="stop-color:rgb(104,104,104);stop-opacity:1"/><stop offset="1" style="stop-color:rgb(104,104,104);stop-opacity:0"/></linearGradient>
    </defs>
</svg>
