<?xml version="1.0" encoding="UTF-8" standalone="no"?>
<!DOCTYPE svg PUBLIC "-//W3C//DTD SVG 1.1//EN" "http://www.w3.org/Graphics/SVG/1.1/DTD/svg11.dtd">
<svg width="100%" height="100%" viewBox="0 0 512 512" version="1.1" xmlns="http://www.w3.org/2000/svg" xmlns:xlink="http://www.w3.org/1999/xlink" xml:space="preserve" xmlns:serif="http://www.serif.com/" style="fill-rule:evenodd;clip-rule:evenodd;stroke-linejoin:round;stroke-miterlimit:2;">
    <g transform="matrix(1.33333,0,0,1.33333,-170.667,-170.667)">
        <path d="M512,224C479.178,240.689 446.333,257.356 411.6,269.645C376.889,281.911 340.245,289.8 310.822,310.822C281.4,331.867 259.2,366.067 245.934,401.778C232.645,437.511 228.334,474.756 224,512L128,512C133.778,462.333 139.534,412.689 157.223,365.045C174.934,317.422 204.534,271.822 243.778,243.778C283,215.711 331.845,205.223 378.156,188.845C424.445,172.467 468.222,150.245 512,128L512,224Z" style="fill:rgb(56,209,127);fill-opacity:0.25;fill-rule:nonzero;"/>
    </g>
    <g transform="matrix(1.33333,0,0,1.33333,-170.667,-170.667)">
        <path d="M512,320C490.111,331.111 468.222,342.245 445.067,350.422C421.911,358.6 397.489,363.867 377.889,377.889C358.267,391.911 343.467,414.711 334.622,438.533C325.778,462.333 322.889,487.178 320,512L224,512C228.334,474.756 232.645,437.511 245.934,401.778C259.2,366.067 281.4,331.867 310.822,310.822C340.245,289.8 376.889,281.911 411.6,269.645C446.333,257.356 479.178,240.689 512,224L512,320Z" style="fill:rgb(56,209,127);fill-opacity:0.5;fill-rule:nonzero;"/>
    </g>
    <g transform="matrix(0.296296,0,0,0.296296,512,512)">
        <path d="M-432,0C-425.5,-55.9 -419,-111.7 -399.1,-165.3C-379.2,-218.9 -345.9,-270.2 -301.8,-301.8C-257.6,-333.3 -202.7,-345.1 -150.6,-363.5C-98.5,-382 -49.2,-407 0,-432L0,0L-432,0Z" style="fill:rgb(56,209,127);fill-rule:nonzero;"/>
    </g>
    <g transform="matrix(1.33333,0,0,1.33333,-170.667,-170.667)">
        <path d="M512,416C501.067,421.556 490.111,427.111 478.533,431.222C466.956,435.311 454.756,437.933 444.933,444.933C435.133,451.956 427.733,463.356 423.311,475.267C418.889,487.178 417.445,499.578 416,512L320,512C322.889,487.178 325.778,462.333 334.622,438.533C343.467,414.711 358.267,391.911 377.889,377.889C397.489,363.867 421.911,358.6 445.067,350.422C468.222,342.245 490.111,331.111 512,320L512,416Z" style="fill:rgb(56,209,127);fill-opacity:0.75;fill-rule:nonzero;"/>
    </g>
</svg>
