<?xml version="1.0" encoding="UTF-8" standalone="no"?>
<!DOCTYPE svg PUBLIC "-//W3C//DTD SVG 1.1//EN" "http://www.w3.org/Graphics/SVG/1.1/DTD/svg11.dtd">
<svg width="100%" height="100%" viewBox="0 0 900 300" version="1.1" xmlns="http://www.w3.org/2000/svg" xmlns:xlink="http://www.w3.org/1999/xlink" xml:space="preserve" xmlns:serif="http://www.serif.com/" style="fill-rule:evenodd;clip-rule:evenodd;stroke-linejoin:round;stroke-miterlimit:2;">
    <g>
        <path d="M900,298.426L875,299.38C850,300.197 800,302.105 750,289.841C700,277.577 650,251.141 600,252.368C550,253.458 500,282.074 450,282.074C400,282.074 350,253.458 300,249.778C250,246.236 200,267.493 150,267.084C100,266.676 -0,222.116 -0,222.116L-0,173C-0,173 100,204.81 150,205.764C200,206.718 250,208.898 300,213.259C350,217.619 400,223.888 450,214.349C500,204.81 550,179.464 600,169.381C650,159.433 700,164.884 750,179.601C800,194.454 850,218.437 875,230.565L900,242.556L900,298.426Z" style="fill:url(#_Linear1);fill-rule:nonzero;"/>
        <g transform="matrix(-1,1.22465e-16,-1.6688e-16,-1.36268,900,818.968)">
            <path d="M0,545L25,549.5C50,554 100,563 150,565C200,567 250,562 300,556.2C350,550.3 400,543.7 450,542C500,540.3 550,543.7 600,544.3C650,545 700,543 750,546.7C800,550.3 850,559.7 875,564.3L900,569L900,601L0,601L0,545Z" style="fill:url(#_Linear2);fill-rule:nonzero;"/>
        </g>
        <path d="M900,113.839L875,117.139C850,120.438 800,127.038 750,126.708C700,126.543 650,119.283 600,119.943C550,120.438 500,128.687 450,136.442C400,144.031 350,151.29 300,149.805C250,148.486 200,138.586 150,126.213C100,113.839 50,98.99 25,91.566L-0,84.142L-0,43.606L25,50.01C50,56.279 100,69.088 150,73.993C200,79.035 250,76.31 300,77.264C350,78.081 400,82.714 450,80.398C500,78.081 550,69.088 600,61.048C650,53.144 700,46.331 750,49.056C800,51.782 850,64.046 875,70.178L900,76.31L900,113.839Z" style="fill:url(#_Linear3);fill-rule:nonzero;"/>
        <path d="M900,76.31L875,70.178C850,64.046 800,51.782 750,49.056C700,46.331 650,53.144 600,61.048C550,69.088 500,78.081 450,80.398C400,82.714 350,78.081 300,77.264C250,76.31 200,79.035 150,73.993C100,69.088 50,56.279 25,50.01L-0,43.606L-0,0L900,0L900,76.31Z" style="fill:url(#_Linear4);fill-rule:nonzero;"/>
        <path d="M900,242.556L875,230.565C850,218.437 800,194.454 750,179.601C700,164.884 650,159.433 600,169.381C550,179.464 500,204.81 450,214.349C400,223.888 350,217.619 300,213.259C250,208.898 200,206.718 150,205.764C100,204.81 -0,173 -0,173L-0,84.142L25,91.566C50,98.99 100,113.839 150,126.213C200,138.586 250,148.486 300,149.805C350,151.29 400,144.031 450,136.442C500,128.687 550,120.438 600,119.943C650,119.283 700,126.543 750,126.708C800,127.038 850,120.438 875,117.139L900,113.839L900,242.556Z" style="fill:url(#_Linear5);fill-rule:nonzero;"/>
    </g>
    <defs>
        <linearGradient id="_Linear1" x1="0" y1="0" x2="1" y2="0" gradientUnits="userSpaceOnUse" gradientTransform="matrix(1.83697e-14,300,-300,1.83697e-14,425,0)"><stop offset="0" style="stop-color:rgb(56,209,127);stop-opacity:0.0627451"/><stop offset="1" style="stop-color:rgb(56,209,127);stop-opacity:0"/></linearGradient>
        <linearGradient id="_Linear2" x1="0" y1="0" x2="1" y2="0" gradientUnits="userSpaceOnUse" gradientTransform="matrix(1.83697e-14,-220.155,300,1.34806e-14,475,601)"><stop offset="0" style="stop-color:rgb(56,209,127);stop-opacity:0.25098"/><stop offset="1" style="stop-color:rgb(56,209,127);stop-opacity:0"/></linearGradient>
        <linearGradient id="_Linear3" x1="0" y1="0" x2="1" y2="0" gradientUnits="userSpaceOnUse" gradientTransform="matrix(1.83697e-14,300,-300,1.83697e-14,425,0)"><stop offset="0" style="stop-color:rgb(56,209,127);stop-opacity:0.188235"/><stop offset="1" style="stop-color:rgb(56,209,127);stop-opacity:0"/></linearGradient>
        <linearGradient id="_Linear4" x1="0" y1="0" x2="1" y2="0" gradientUnits="userSpaceOnUse" gradientTransform="matrix(1.83697e-14,300,-300,1.83697e-14,425,0)"><stop offset="0" style="stop-color:rgb(56,209,127);stop-opacity:0.025098"/><stop offset="1" style="stop-color:rgb(56,209,127);stop-opacity:0"/></linearGradient>
        <linearGradient id="_Linear5" x1="0" y1="0" x2="1" y2="0" gradientUnits="userSpaceOnUse" gradientTransform="matrix(1.83697e-14,300,-300,1.83697e-14,425,0)"><stop offset="0" style="stop-color:rgb(56,209,127);stop-opacity:0.12549"/><stop offset="1" style="stop-color:rgb(56,209,127);stop-opacity:0"/></linearGradient>
    </defs>
</svg>
