<?xml version="1.0" encoding="UTF-8" standalone="no"?>
<!DOCTYPE svg PUBLIC "-//W3C//DTD SVG 1.1//EN" "http://www.w3.org/Graphics/SVG/1.1/DTD/svg11.dtd">
<svg width="100%" height="100%" viewBox="0 0 467 102" version="1.1" xmlns="http://www.w3.org/2000/svg" xmlns:xlink="http://www.w3.org/1999/xlink" xml:space="preserve" xmlns:serif="http://www.serif.com/" style="fill-rule:evenodd;clip-rule:evenodd;stroke-linejoin:round;stroke-miterlimit:2;">
    <g id="pprmint." transform="matrix(0.901598,0,0,0.901598,-2573.33,-941.032)">
        <g transform="matrix(2.30371,0,0,2.30371,2805.55,951.79)">
            <path d="M21.113,88.556L26.383,88.556L26.383,73.183L26.685,73.183C27.54,74.589 30.255,77.65 35.333,77.65C42.623,77.65 47.793,71.927 47.793,63.785C47.793,55.638 42.623,50.065 35.031,50.065C29.802,50.065 27.288,53.428 26.585,54.482L26.233,54.482L26.233,50.718L21.113,50.718L21.113,88.556ZM34.378,72.882C29.752,72.882 26.233,69.515 26.233,63.836C26.233,58.855 29.249,54.833 34.277,54.833C39.154,54.833 42.422,58.352 42.422,63.832C42.422,69.113 39.154,72.882 34.378,72.882Z" style="fill:rgb(235,235,235);fill-rule:nonzero;"/>
            <path d="M54.182,88.556L59.453,88.556L59.453,73.183L59.755,73.183C60.609,74.589 63.324,77.65 68.402,77.65C75.692,77.65 80.863,71.927 80.863,63.785C80.863,55.638 75.692,50.065 68.101,50.065C62.872,50.065 60.358,53.428 59.654,54.482L59.302,54.482L59.302,50.718L54.182,50.718L54.182,88.556ZM67.447,72.882C62.822,72.882 59.302,69.515 59.302,63.836C59.302,58.855 62.319,54.833 67.347,54.833C72.224,54.833 75.491,58.352 75.491,63.832C75.491,69.113 72.224,72.882 67.447,72.882Z" style="fill:rgb(235,235,235);fill-rule:nonzero;"/>
            <path d="M87.252,76.997L92.523,76.997L92.523,64.03C92.523,59.155 95.086,55.788 99.559,55.788L102.021,55.788L102.021,50.668L99.709,50.668C95.99,50.668 93.477,53.178 92.673,55.286L92.322,55.286L92.322,50.718L87.252,50.718L87.252,76.997Z" style="fill:rgb(235,235,235);fill-rule:nonzero;"/>
            <path d="M108.109,76.997L113.379,76.997L113.379,61.517C113.379,57.648 115.994,54.984 119.313,54.984C122.632,54.984 124.995,57.296 124.995,60.965L124.995,76.997L130.266,76.997L130.266,61.668C130.266,57.447 132.931,54.984 136.25,54.984C139.72,54.984 141.781,57.296 141.781,61.568L141.781,76.997L147.052,76.997L147.052,59.758C147.052,54.081 143.237,50.065 137.457,50.065C133.887,50.065 131.121,51.37 129.363,54.482L129.011,54.482C127.505,51.822 124.744,50.065 120.972,50.065C117.201,50.065 114.737,51.972 113.581,54.181L113.229,54.181L113.229,50.718L108.109,50.718L108.109,76.997Z" style="fill:rgb(235,235,235);fill-rule:nonzero;"/>
            <path d="M157.308,46.591C159.367,46.591 160.823,45.235 160.823,43.227C160.823,41.319 159.367,39.913 157.308,39.913C155.299,39.913 153.843,41.319 153.843,43.227C153.843,45.235 155.299,46.591 157.308,46.591ZM154.647,76.997L159.918,76.997L159.918,50.718L154.647,50.718L154.647,76.997Z" style="fill:rgb(235,235,235);fill-rule:nonzero;"/>
            <path d="M167.513,76.997L172.784,76.997L172.784,61.672C172.784,57.849 175.499,54.984 179.17,54.984C182.489,54.984 185.053,57.447 185.053,61.115L185.053,76.997L190.324,76.997L190.324,60.11C190.324,54.432 186.66,50.065 180.679,50.065C176.756,50.065 174.041,52.073 172.985,54.231L172.633,54.231L172.633,50.718L167.513,50.718L167.513,76.997Z" style="fill:rgb(235,235,235);fill-rule:nonzero;"/>
            <path d="M208.769,76.997L213.141,76.997L213.141,72.53L209.573,72.53C206.808,72.53 205.753,71.022 205.753,68.508L205.753,55.034L213.392,55.034L213.392,50.718L205.753,50.718L205.753,43.28L200.783,43.28L200.783,49.06C200.783,50.115 200.131,50.769 199.226,50.769L195.758,50.769L195.758,55.034L200.482,55.034L200.482,68.659C200.482,74.136 203.595,76.997 208.769,76.997Z" style="fill:rgb(235,235,235);fill-rule:nonzero;"/>
        </g>
        <g transform="matrix(1.02258,0,0,1.02258,-72.9379,-26.3973)">
            <g transform="matrix(2.24819,0,0,2.24819,2808.05,930.054)">
                <path d="M223.183,88.961L231.216,88.961C241.319,88.961 249.521,80.759 249.521,70.656L249.521,62.623L245.037,67.107L245.037,70.656C245.037,78.284 238.844,84.477 231.216,84.477L227.667,84.477L223.183,88.961Z" style="fill:url(#_Linear1);"/>
            </g>
            <g transform="matrix(2.24819,0,0,2.24819,2808.05,930.054)">
                <path d="M249.521,62.623L241.488,62.623C231.385,62.623 223.183,70.825 223.183,80.928L223.183,88.961L227.667,88.961L227.667,80.928C227.667,73.3 233.86,67.107 241.488,67.107L249.521,67.107L249.521,62.623Z" style="fill:rgb(0,204,102);"/>
            </g>
        </g>
    </g>
    <defs>
        <linearGradient id="_Linear1" x1="0" y1="0" x2="1" y2="0" gradientUnits="userSpaceOnUse" gradientTransform="matrix(1.33819e-15,-21.8543,21.8543,1.33819e-15,247.279,86.719)"><stop offset="0" style="stop-color:rgb(0,153,85);stop-opacity:1"/><stop offset="1" style="stop-color:rgb(0,119,68);stop-opacity:1"/></linearGradient>
    </defs>
</svg>
