<svg viewBox="0 0 467 102" xmlns="http://www.w3.org/2000/svg" xml:space="preserve" style="fill-rule:evenodd;clip-rule:evenodd;stroke-linejoin:round;stroke-miterlimit:2"><path d="M21.113 88.556h5.27V73.183h.302c.855 1.406 3.57 4.467 8.648 4.467 7.29 0 12.46-5.723 12.46-13.865 0-8.147-5.17-13.72-12.762-13.72-5.229 0-7.743 3.363-8.446 4.417h-.352v-3.764h-5.12v37.838Zm13.265-15.674c-4.626 0-8.145-3.367-8.145-9.046 0-4.981 3.016-9.003 8.044-9.003 4.877 0 8.145 3.519 8.145 8.999 0 5.281-3.268 9.05-8.044 9.05ZM54.182 88.556h5.271V73.183h.302c.854 1.406 3.569 4.467 8.647 4.467 7.29 0 12.461-5.723 12.461-13.865 0-8.147-5.171-13.72-12.762-13.72-5.229 0-7.743 3.363-8.447 4.417h-.352v-3.764h-5.12v37.838Zm13.265-15.674c-4.625 0-8.145-3.367-8.145-9.046 0-4.981 3.017-9.003 8.045-9.003 4.877 0 8.144 3.519 8.144 8.999 0 5.281-3.267 9.05-8.044 9.05ZM87.252 76.997h5.271V64.03c0-4.875 2.563-8.242 7.036-8.242h2.462v-5.12h-2.312c-3.719 0-6.232 2.51-7.036 4.618h-.351v-4.568h-5.07v26.279ZM108.109 76.997h5.27v-15.48c0-3.869 2.615-6.533 5.934-6.533s5.682 2.312 5.682 5.981v16.032h5.271V61.668c0-4.221 2.665-6.684 5.984-6.684 3.47 0 5.531 2.312 5.531 6.584v15.429h5.271V59.758c0-5.677-3.815-9.693-9.595-9.693-3.57 0-6.336 1.305-8.094 4.417h-.352c-1.506-2.66-4.267-4.417-8.039-4.417-3.771 0-6.235 1.907-7.391 4.116h-.352v-3.463h-5.12v26.279ZM157.308 46.591c2.059 0 3.515-1.356 3.515-3.364 0-1.908-1.456-3.314-3.515-3.314-2.009 0-3.465 1.406-3.465 3.314 0 2.008 1.456 3.364 3.465 3.364Zm-2.661 30.406h5.271V50.718h-5.271v26.279ZM167.513 76.997h5.271V61.672c0-3.823 2.715-6.688 6.386-6.688 3.319 0 5.883 2.463 5.883 6.131v15.882h5.271V60.11c0-5.678-3.664-10.045-9.645-10.045-3.923 0-6.638 2.008-7.694 4.166h-.352v-3.513h-5.12v26.279ZM208.769 76.997h4.372V72.53h-3.568c-2.765 0-3.82-1.508-3.82-4.022V55.034h7.639v-4.316h-7.639V43.28h-4.97v5.78c0 1.055-.652 1.709-1.557 1.709h-3.468v4.265h4.724v13.625c0 5.477 3.113 8.338 8.287 8.338Z" style="fill:#ebebeb;fill-rule:nonzero" transform="translate(-43.852 -82.9) scale(2.07702)"/><path d="M223.183 88.961h8.033c10.103 0 18.305-8.202 18.305-18.305v-8.033l-4.484 4.484v3.549c0 7.628-6.193 13.821-13.821 13.821h-3.549l-4.484 4.484Z" style="fill:url(#a)" transform="translate(-50.192 -107.363) scale(2.07273)"/><path d="M249.521 62.623h-8.033c-10.103 0-18.305 8.202-18.305 18.305v8.033h4.484v-8.033c0-7.628 6.193-13.821 13.821-13.821h8.033v-4.484Z" style="fill:#0c6" transform="translate(-50.192 -107.363) scale(2.07273)"/><defs><linearGradient id="a" x1="0" y1="0" x2="1" y2="0" gradientUnits="userSpaceOnUse" gradientTransform="rotate(-90 166.999 -80.28) scale(21.8543)"><stop offset="0" style="stop-color:#095;stop-opacity:1"/><stop offset="1" style="stop-color:#074;stop-opacity:1"/></linearGradient></defs></svg>