<?xml version="1.0" encoding="UTF-8" standalone="no"?>
<!DOCTYPE svg PUBLIC "-//W3C//DTD SVG 1.1//EN" "http://www.w3.org/Graphics/SVG/1.1/DTD/svg11.dtd">
<svg width="100%" height="100%" viewBox="0 0 2000 500" version="1.1" xmlns="http://www.w3.org/2000/svg" xmlns:xlink="http://www.w3.org/1999/xlink" xml:space="preserve" xmlns:serif="http://www.serif.com/" style="fill-rule:evenodd;clip-rule:evenodd;stroke-miterlimit:2;">
    <g transform="matrix(1.00553,0,0,1,0,0)">
        <rect x="0" y="0" width="1989" height="500" style="fill:url(#_Linear1);"/>
    </g>
    <g transform="matrix(0.940898,0,0,0.940898,37.8478,-17.7432)">
        <path d="M1184.51,59.337L1182.98,59.336C821.427,59.336 483.308,256.356 275.27,550.265L185.168,550.265L185.168,127.039L68.381,127.039L68.381,550.265L422.721,550.265C608.418,327.037 879.933,180.637 1169.43,180.637C1460.81,180.637 1706.1,326.219 1845.24,550.265L1986.44,550.265C1840.74,256.188 1546.26,59.904 1184.51,59.337Z" style="fill:rgb(34,34,34);fill-rule:nonzero;"/>
    </g>
    <g transform="matrix(0.940898,0,0,0.940898,37.8478,-17.7432)">
        <g transform="matrix(8.49601,0,0,8.49601,1255.16,-5050.75)">
            <path d="M86.073,659.253C68.95,624.601 34.06,601.469 -8.496,601.469C-51.051,601.469 -90.848,624.659 -115.335,659.253" style="fill:none;fill-rule:nonzero;stroke:url(#_Linear2);stroke-width:0.63px;stroke-dasharray:1.88,1.88,0,0;"/>
        </g>
        <g transform="matrix(8.49601,0,0,8.49601,1255.16,-5050.75)">
            <path d="M-125.94,659.253L-125.94,609.438L-139.686,609.438L-139.686,659.253" style="fill:none;fill-rule:nonzero;stroke:url(#_Linear2);stroke-width:0.63px;stroke-dasharray:1.88,1.88,0,0;"/>
        </g>
        <g transform="matrix(8.49601,0,0,8.49601,1255.16,-5050.75)">
            <path d="M-97.98,659.253C-76.123,632.978 -44.165,615.747 -10.09,615.747C24.206,615.747 53.077,632.882 69.454,659.253" style="fill:none;fill-rule:nonzero;stroke:url(#_Linear2);stroke-width:0.63px;stroke-dasharray:1.88,1.88,0,0;"/>
        </g>
    </g>
    <g transform="matrix(0.892328,0.0137836,0.0137836,0.87188,93.7997,54.7502)">
        <path d="M320,277L122.194,670.003" style="fill:none;stroke:url(#_Linear3);stroke-width:5.58px;stroke-linecap:round;stroke-miterlimit:1.5;"/>
    </g>
    <g transform="matrix(0.868644,0,0,0.899266,138.642,38.0862)">
        <path d="M750,127L1631,127" style="fill:none;stroke:url(#_Linear4);stroke-width:5.66px;stroke-linecap:round;stroke-miterlimit:1.5;"/>
    </g>
    <g transform="matrix(0.87196,0,0,0.899266,135.5,38.0862)">
        <path d="M726,0L1714,0" style="fill:none;stroke:url(#_Linear5);stroke-width:5.65px;stroke-linecap:round;stroke-miterlimit:1.5;"/>
    </g>
    <g transform="matrix(0.899266,0,0,0.899266,102.187,38.0862)">
        <circle cx="320" cy="277" r="15" style="fill:url(#_Linear6);"/>
    </g>
    <g transform="matrix(0.899266,0,0,0.899266,488.871,-96.8036)">
        <circle cx="320" cy="277" r="15" style="fill:url(#_Linear7);"/>
    </g>
    <g transform="matrix(0.899266,0,0,0.899266,1281.12,-96.8036)">
        <circle cx="320" cy="277" r="15" style="fill:url(#_Linear8);"/>
    </g>
    <g transform="matrix(0.899266,0,0,0.899266,467.289,-211.01)">
        <circle cx="320" cy="277" r="15" style="fill:url(#_Linear9);"/>
    </g>
    <g transform="matrix(0.899266,0,0,0.899266,1355.76,-211.01)">
        <circle cx="320" cy="277" r="15" style="fill:url(#_Linear10);"/>
    </g>
    <g transform="matrix(0.899266,0,0,0.899266,102.187,38.0862)">
        <rect x="-14" y="57" width="28" height="28" style="fill:url(#_Linear6);"/>
    </g>
    <g transform="matrix(0.899266,0,0,0.899266,211.897,38.0862)">
        <rect x="-14" y="57" width="28" height="28" style="fill:url(#_Linear11);"/>
    </g>
    <g transform="matrix(0.899266,0,0,0.899266,102.187,38.0862)">
        <rect x="-14" y="57" width="28" height="28" style="fill:none;stroke:url(#_Linear12);stroke-width:5.56px;stroke-linecap:round;stroke-miterlimit:1.5;"/>
    </g>
    <g transform="matrix(0.899266,0,0,0.899266,211.897,38.0862)">
        <rect x="-14" y="57" width="28" height="28" style="fill:none;stroke:url(#_Linear13);stroke-width:5.56px;stroke-linecap:round;stroke-miterlimit:1.5;"/>
    </g>
    <g transform="matrix(0.899266,0,0,0.899266,102.187,38.0862)">
        <circle cx="320" cy="277" r="15" style="fill:none;stroke:url(#_Linear12);stroke-width:5.56px;stroke-linecap:round;stroke-miterlimit:1.5;"/>
    </g>
    <g transform="matrix(0.899266,0,0,0.899266,488.871,-96.8036)">
        <circle cx="320" cy="277" r="15" style="fill:none;stroke:url(#_Linear14);stroke-width:5.56px;stroke-linecap:round;stroke-miterlimit:1.5;"/>
    </g>
    <g transform="matrix(0.899266,0,0,0.899266,1281.12,-96.8036)">
        <circle cx="320" cy="277" r="15" style="fill:none;stroke:url(#_Linear15);stroke-width:5.56px;stroke-linecap:round;stroke-miterlimit:1.5;"/>
    </g>
    <g transform="matrix(0.899266,0,0,0.899266,467.289,-211.01)">
        <circle cx="320" cy="277" r="15" style="fill:none;stroke:url(#_Linear16);stroke-width:5.56px;stroke-linecap:round;stroke-miterlimit:1.5;"/>
    </g>
    <g transform="matrix(0.899266,0,0,0.899266,1355.76,-211.01)">
        <circle cx="320" cy="277" r="15" style="fill:none;stroke:url(#_Linear17);stroke-width:5.56px;stroke-linecap:round;stroke-miterlimit:1.5;"/>
    </g>
    <g transform="matrix(1.36735,0,0,1.36735,-422.825,-13.9912)">
        <circle cx="1151" cy="38.086" r="5.914" style="fill:url(#_Linear18);stroke:url(#_Linear18);stroke-width:3.66px;stroke-linecap:round;stroke-miterlimit:1.5;"/>
    </g>
    <g transform="matrix(1.36735,0,0,1.36735,-436.739,100.216)">
        <circle cx="1151" cy="38.086" r="5.914" style="fill:url(#_Linear19);stroke:url(#_Linear19);stroke-width:3.66px;stroke-linecap:round;stroke-miterlimit:1.5;"/>
    </g>
    <use id="Schatten" xlink:href="#_Image26" x="459" y="133" width="1078px" height="274px"/>
    <g id="Logo">
        <rect x="0" y="0" width="2000" height="500" style="fill:none;"/>
        <g transform="matrix(0.875443,0,0,0.875443,636.609,41.5196)">
            <path d="M69.888,333.237L69.888,142.763L34.5,142.763L-35.562,275.05L-105.625,142.763L-141.25,142.763L-141.25,333.237L-108,333.237L-108,205.7L-53.375,308.537L-17.75,308.537L36.638,205.7L36.638,333.237L69.888,333.237Z" style="fill:rgb(235,235,235);fill-rule:nonzero;"/>
            <path d="M127.838,195.25L94.588,195.25L94.588,333.237L127.838,333.237L127.838,195.25ZM111.213,142.763C100.05,142.763 91.263,151.788 91.263,162.713C91.263,173.875 100.05,182.9 111.213,182.9C122.375,182.9 131.4,173.875 131.4,162.713C131.4,151.788 122.375,142.763 111.213,142.763Z" style="fill:rgb(235,235,235);fill-rule:nonzero;"/>
            <path d="M222.6,226.125C237.563,226.125 248.488,236.575 248.488,252.487L248.488,333L282.688,333L282.688,247.975C283.163,216.15 260.363,191.925 228.3,191.925C209.3,191.925 195.763,200.238 186.025,213.775L186.025,195.488L152.775,195.488L152.775,333L186.025,333L186.025,264.125C186.025,244.413 202.888,226.125 222.6,226.125Z" style="fill:rgb(235,235,235);fill-rule:nonzero;"/>
            <path d="M307.863,286.925C307.863,314.237 330.188,336.562 357.5,336.562C367.95,336.562 384.813,333.475 384.813,333.475L380.775,301.887C380.775,301.887 366.525,303.55 357.5,303.55C348.475,303.55 341.113,295.95 341.113,286.925L341.113,228.5L380.775,228.5L380.775,195.488L341.113,195.488L341.113,158.913L307.863,162.475L307.863,195.488L289.1,195.488L289.1,228.5L307.863,228.5L307.863,286.925Z" style="fill:rgb(235,235,235);fill-rule:nonzero;"/>
            <path d="M532.3,161.763C532.3,161.763 513.538,139.438 469.363,139.438C427.088,139.438 401.2,167.225 401.2,196.675C401.2,200.713 401.675,204.513 402.625,208.55C408.8,233.963 429.225,244.175 454.163,250.35C464.85,252.962 476.488,255.1 486.7,258.425C496.675,261.75 505.7,266.5 507.363,278.85C507.6,279.8 507.6,280.512 507.6,281.463C507.6,294.762 491.925,304.5 471.025,304.5C441.813,304.5 416.875,289.062 416.875,289.062L400.013,316.375C400.013,316.375 432.55,336.562 471.025,336.562C513.538,336.562 539.663,309.487 539.663,280.987C539.663,278.85 539.425,276.713 539.188,274.575C534.2,239.425 506.175,228.975 475.538,222.325C466.75,220.425 457.963,218.763 450.125,215.913C442.525,213.063 436.113,209.5 433.975,200.95C433.5,199.288 433.5,197.863 433.5,196.438C433.5,182.663 448.7,171.5 469.363,171.5C496.2,171.5 508.313,183.138 508.313,183.138L532.3,161.763Z" style="fill:rgb(235,235,235);fill-rule:nonzero;"/>
            <path d="M659.838,261.512L659.838,266.975C658.413,287.162 642.5,303.55 622.55,303.55C601.65,303.55 585.263,285.737 585.263,264.362C585.263,242.988 601.65,225.175 622.55,225.175C642.5,225.175 658.413,241.325 659.838,261.512ZM659.838,321.125L659.838,333.237L693.088,333.237L693.088,195.488L659.838,195.488L659.838,207.6C651.288,197.863 639.175,191.925 622.55,191.925C583.6,191.925 552.013,224.463 552.013,264.362C552.013,304.262 583.6,336.562 622.55,336.562C639.175,336.562 651.288,330.862 659.838,321.125Z" style="fill:rgb(235,235,235);fill-rule:nonzero;"/>
            <path d="M783.1,226.125C798.062,226.125 808.987,236.575 808.987,252.487L808.987,333L843.187,333L843.187,247.975C843.662,216.15 820.862,191.925 788.8,191.925C769.8,191.925 756.262,200.238 746.525,213.775L746.525,195.488L713.275,195.488L713.275,333L746.525,333L746.525,264.125C746.525,244.413 763.387,226.125 783.1,226.125Z" style="fill:rgb(235,235,235);fill-rule:nonzero;"/>
            <path d="M967.875,206.65C967.875,206.65 948.637,191.925 915.862,191.925C881.187,191.925 860.762,214.013 860.762,236.338C860.762,239.425 861.237,242.512 861.95,245.6C866.937,264.6 883.325,273.388 903.275,277.9C911.112,279.562 919.662,280.75 927.025,283.125C932.725,284.787 938.187,286.687 939.137,293.1C939.375,295.475 937.475,297.137 935.337,298.8C930.35,302.6 923.225,304.5 914.675,304.5C893.062,304.5 873.112,294.287 873.112,294.287L858.387,322.787C858.387,322.787 885.462,336.562 914.675,336.562C935.337,336.562 951.725,328.962 960.987,318.75C967.875,311.387 971.437,302.6 971.437,293.575C971.437,291.912 971.2,290.012 970.962,288.35C967.637,266.263 951.725,256.287 931.775,251.063C922.037,248.45 911.112,247.262 902.087,244.175C898.05,242.75 894.25,241.8 893.062,237.525C892.825,237.05 892.825,236.575 892.825,236.1C892.825,233.963 894.25,232.063 895.912,230.4C900.187,226.363 907.312,223.988 915.862,223.988C936.525,223.988 948.637,232.538 948.637,232.538L967.875,206.65Z" style="fill:rgb(235,235,235);fill-rule:nonzero;"/>
        </g>
    </g>
    <defs>
        <linearGradient id="_Linear1" x1="0" y1="0" x2="1" y2="0" gradientUnits="userSpaceOnUse" gradientTransform="matrix(3.04478e-14,500,-497.25,3.06162e-14,994.5,0)"><stop offset="0" style="stop-color:rgb(90,90,90);stop-opacity:0.33"/><stop offset="1" style="stop-color:rgb(90,90,90);stop-opacity:0"/></linearGradient>
        <linearGradient id="_Linear2" x1="0" y1="0" x2="1" y2="0" gradientUnits="userSpaceOnUse" gradientTransform="matrix(3.60359e-15,58.8511,-58.8511,3.60359e-15,-30.0325,594.485)"><stop offset="0" style="stop-color:rgb(17,119,204);stop-opacity:1"/><stop offset="1" style="stop-color:rgb(17,119,204);stop-opacity:0"/></linearGradient>
        <linearGradient id="_Linear3" x1="0" y1="0" x2="1" y2="0" gradientUnits="userSpaceOnUse" gradientTransform="matrix(-8.86045,573.613,-560.469,8.86045,1021.85,-78.9499)"><stop offset="0" style="stop-color:rgb(17,153,255);stop-opacity:1"/><stop offset="1" style="stop-color:rgb(17,153,255);stop-opacity:0"/></linearGradient>
        <linearGradient id="_Linear4" x1="0" y1="0" x2="1" y2="0" gradientUnits="userSpaceOnUse" gradientTransform="matrix(3.52459e-14,556.009,-575.61,3.40457e-14,996.832,-42.3526)"><stop offset="0" style="stop-color:rgb(17,153,255);stop-opacity:1"/><stop offset="1" style="stop-color:rgb(17,153,255);stop-opacity:0"/></linearGradient>
        <linearGradient id="_Linear5" x1="0" y1="0" x2="1" y2="0" gradientUnits="userSpaceOnUse" gradientTransform="matrix(3.51119e-14,556.009,-573.421,3.40457e-14,996.645,-42.3526)"><stop offset="0" style="stop-color:rgb(17,153,255);stop-opacity:1"/><stop offset="1" style="stop-color:rgb(17,153,255);stop-opacity:0"/></linearGradient>
        <linearGradient id="_Linear6" x1="0" y1="0" x2="1" y2="0" gradientUnits="userSpaceOnUse" gradientTransform="matrix(3.40457e-14,556.009,-556.009,3.40457e-14,1003.43,-42.3526)"><stop offset="0" style="stop-color:rgb(17,18,18);stop-opacity:1"/><stop offset="1" style="stop-color:rgb(17,18,18);stop-opacity:0"/></linearGradient>
        <linearGradient id="_Linear7" x1="0" y1="0" x2="1" y2="0" gradientUnits="userSpaceOnUse" gradientTransform="matrix(3.40457e-14,556.009,-556.009,3.40457e-14,573.427,107.647)"><stop offset="0" style="stop-color:rgb(17,18,18);stop-opacity:1"/><stop offset="1" style="stop-color:rgb(17,18,18);stop-opacity:0"/></linearGradient>
        <linearGradient id="_Linear8" x1="0" y1="0" x2="1" y2="0" gradientUnits="userSpaceOnUse" gradientTransform="matrix(3.40457e-14,556.009,-556.009,3.40457e-14,-307.573,107.647)"><stop offset="0" style="stop-color:rgb(17,18,18);stop-opacity:1"/><stop offset="1" style="stop-color:rgb(17,18,18);stop-opacity:0"/></linearGradient>
        <linearGradient id="_Linear9" x1="0" y1="0" x2="1" y2="0" gradientUnits="userSpaceOnUse" gradientTransform="matrix(3.40457e-14,556.009,-556.009,3.40457e-14,597.427,234.647)"><stop offset="0" style="stop-color:rgb(17,18,18);stop-opacity:1"/><stop offset="1" style="stop-color:rgb(17,18,18);stop-opacity:0"/></linearGradient>
        <linearGradient id="_Linear10" x1="0" y1="0" x2="1" y2="0" gradientUnits="userSpaceOnUse" gradientTransform="matrix(3.40457e-14,556.009,-556.009,3.40457e-14,-390.573,234.647)"><stop offset="0" style="stop-color:rgb(17,18,18);stop-opacity:1"/><stop offset="1" style="stop-color:rgb(17,18,18);stop-opacity:0"/></linearGradient>
        <linearGradient id="_Linear11" x1="0" y1="0" x2="1" y2="0" gradientUnits="userSpaceOnUse" gradientTransform="matrix(3.40457e-14,556.009,-556.009,3.40457e-14,881.427,-42.3526)"><stop offset="0" style="stop-color:rgb(17,18,18);stop-opacity:1"/><stop offset="1" style="stop-color:rgb(17,18,18);stop-opacity:0"/></linearGradient>
        <linearGradient id="_Linear12" x1="0" y1="0" x2="1" y2="0" gradientUnits="userSpaceOnUse" gradientTransform="matrix(3.40457e-14,556.009,-556.009,3.40457e-14,1003.43,-42.3526)"><stop offset="0" style="stop-color:rgb(17,153,255);stop-opacity:1"/><stop offset="1" style="stop-color:rgb(17,153,255);stop-opacity:0"/></linearGradient>
        <linearGradient id="_Linear13" x1="0" y1="0" x2="1" y2="0" gradientUnits="userSpaceOnUse" gradientTransform="matrix(3.40457e-14,556.009,-556.009,3.40457e-14,881.427,-42.3526)"><stop offset="0" style="stop-color:rgb(17,153,255);stop-opacity:1"/><stop offset="1" style="stop-color:rgb(17,153,255);stop-opacity:0"/></linearGradient>
        <linearGradient id="_Linear14" x1="0" y1="0" x2="1" y2="0" gradientUnits="userSpaceOnUse" gradientTransform="matrix(3.40457e-14,556.009,-556.009,3.40457e-14,573.427,107.647)"><stop offset="0" style="stop-color:rgb(17,153,255);stop-opacity:1"/><stop offset="1" style="stop-color:rgb(17,153,255);stop-opacity:0"/></linearGradient>
        <linearGradient id="_Linear15" x1="0" y1="0" x2="1" y2="0" gradientUnits="userSpaceOnUse" gradientTransform="matrix(3.40457e-14,556.009,-556.009,3.40457e-14,-307.573,107.647)"><stop offset="0" style="stop-color:rgb(17,153,255);stop-opacity:1"/><stop offset="1" style="stop-color:rgb(17,153,255);stop-opacity:0"/></linearGradient>
        <linearGradient id="_Linear16" x1="0" y1="0" x2="1" y2="0" gradientUnits="userSpaceOnUse" gradientTransform="matrix(3.40457e-14,556.009,-556.009,3.40457e-14,597.427,234.647)"><stop offset="0" style="stop-color:rgb(17,153,255);stop-opacity:1"/><stop offset="1" style="stop-color:rgb(17,153,255);stop-opacity:0"/></linearGradient>
        <linearGradient id="_Linear17" x1="0" y1="0" x2="1" y2="0" gradientUnits="userSpaceOnUse" gradientTransform="matrix(3.40457e-14,556.009,-556.009,3.40457e-14,-390.573,234.647)"><stop offset="0" style="stop-color:rgb(17,153,255);stop-opacity:1"/><stop offset="1" style="stop-color:rgb(17,153,255);stop-opacity:0"/></linearGradient>
        <linearGradient id="_Linear18" x1="0" y1="0" x2="1" y2="0" gradientUnits="userSpaceOnUse" gradientTransform="matrix(2.23908e-14,365.67,-365.67,2.23908e-14,1043.88,10.2323)"><stop offset="0" style="stop-color:rgb(17,153,255);stop-opacity:1"/><stop offset="1" style="stop-color:rgb(17,153,255);stop-opacity:0"/></linearGradient>
        <linearGradient id="_Linear19" x1="0" y1="0" x2="1" y2="0" gradientUnits="userSpaceOnUse" gradientTransform="matrix(2.23908e-14,365.67,-365.67,2.23908e-14,1054.06,-73.2916)"><stop offset="0" style="stop-color:rgb(17,153,255);stop-opacity:1"/><stop offset="1" style="stop-color:rgb(17,153,255);stop-opacity:0"/></linearGradient>
    </defs>
</svg>
