<svg viewBox="0 0 2000 500" xmlns="http://www.w3.org/2000/svg" xmlns:xlink="http://www.w3.org/1999/xlink" xml:space="preserve" style="fill-rule:evenodd;clip-rule:evenodd;stroke-miterlimit:2"><path style="fill:url(#a)" d="M0 0h1989v500H0z" transform="scale(1.00553 1)"/><path d="m1184.51 59.337-1.53-.001c-361.553 0-699.672 197.02-907.71 490.929h-90.102V127.039H68.381v423.226h354.34c185.697-223.228 457.212-369.628 746.709-369.628 291.38 0 536.67 145.582 675.81 369.628h141.2c-145.7-294.077-440.18-490.361-801.93-490.928Z" style="fill:#222;fill-rule:nonzero" transform="translate(37.848 -17.743) scale(.9409)"/><path d="M86.073 659.253C68.95 624.601 34.06 601.469-8.496 601.469c-42.555 0-82.352 23.19-106.839 57.784m-10.605 0v-49.815h-13.746v49.815" style="fill:none;fill-rule:nonzero;stroke:url(#b);stroke-width:.63px;stroke-dasharray:1.88,1.88,0,0" transform="translate(1218.825 -4769.984) scale(7.99388)"/><path d="M-97.98 659.253c21.857-26.275 53.815-43.506 87.89-43.506 34.296 0 63.167 17.135 79.544 43.506" style="fill:none;fill-rule:nonzero;stroke:url(#b);stroke-width:.63px;stroke-dasharray:1.88,1.88,0,0" transform="translate(1218.825 -4769.984) scale(7.99388)"/><path d="M320 277 122.194 670.003" style="fill:none;stroke:url(#c);stroke-width:5.58px;stroke-linecap:round;stroke-miterlimit:1.5" transform="matrix(.89233 .01378 .01378 .87188 93.8 54.75)"/><path d="M750 127h881" style="fill:none;stroke:url(#d);stroke-width:5.66px;stroke-linecap:round;stroke-miterlimit:1.5" transform="matrix(.86864 0 0 .89927 138.642 38.086)"/><path d="M726 0h988" style="fill:none;stroke:url(#e);stroke-width:5.65px;stroke-linecap:round;stroke-miterlimit:1.5" transform="matrix(.87196 0 0 .89927 135.5 38.086)"/><circle cx="320" cy="277" r="15" style="fill:url(#f)" transform="translate(102.187 38.086) scale(.89927)"/><circle cx="320" cy="277" r="15" style="fill:url(#g)" transform="translate(488.871 -96.804) scale(.89927)"/><circle cx="320" cy="277" r="15" style="fill:url(#h)" transform="translate(1281.12 -96.804) scale(.89927)"/><circle cx="320" cy="277" r="15" style="fill:url(#i)" transform="translate(467.289 -211.01) scale(.89927)"/><circle cx="320" cy="277" r="15" style="fill:url(#j)" transform="translate(1355.76 -211.01) scale(.89927)"/><path style="fill:url(#f)" d="M-14 57h28v28h-28z" transform="translate(102.187 38.086) scale(.89927)"/><path style="fill:url(#k)" d="M-14 57h28v28h-28z" transform="translate(211.897 38.086) scale(.89927)"/><path style="fill:none;stroke:url(#l);stroke-width:5.56px;stroke-linecap:round;stroke-miterlimit:1.5" d="M-14 57h28v28h-28z" transform="translate(102.187 38.086) scale(.89927)"/><path style="fill:none;stroke:url(#m);stroke-width:5.56px;stroke-linecap:round;stroke-miterlimit:1.5" d="M-14 57h28v28h-28z" transform="translate(211.897 38.086) scale(.89927)"/><circle cx="320" cy="277" r="15" style="fill:none;stroke:url(#l);stroke-width:5.56px;stroke-linecap:round;stroke-miterlimit:1.5" transform="translate(102.187 38.086) scale(.89927)"/><circle cx="320" cy="277" r="15" style="fill:none;stroke:url(#n);stroke-width:5.56px;stroke-linecap:round;stroke-miterlimit:1.5" transform="translate(488.871 -96.804) scale(.89927)"/><circle cx="320" cy="277" r="15" style="fill:none;stroke:url(#o);stroke-width:5.56px;stroke-linecap:round;stroke-miterlimit:1.5" transform="translate(1281.12 -96.804) scale(.89927)"/><circle cx="320" cy="277" r="15" style="fill:none;stroke:url(#p);stroke-width:5.56px;stroke-linecap:round;stroke-miterlimit:1.5" transform="translate(467.289 -211.01) scale(.89927)"/><circle cx="320" cy="277" r="15" style="fill:none;stroke:url(#q);stroke-width:5.56px;stroke-linecap:round;stroke-miterlimit:1.5" transform="translate(1355.76 -211.01) scale(.89927)"/><circle cx="1151" cy="38.086" r="5.914" style="fill:url(#r);stroke:url(#_Linear18);stroke-width:3.66px;stroke-linecap:round;stroke-miterlimit:1.5" transform="translate(-422.825 -13.991) scale(1.36735)"/><circle cx="1151" cy="38.086" r="5.914" style="fill:url(#s);stroke:url(#_Linear19);stroke-width:3.66px;stroke-linecap:round;stroke-miterlimit:1.5" transform="translate(-436.739 100.216) scale(1.36735)"/><use xlink:href="#_Image26" x="459" y="133" width="1078" height="274"/><path style="fill:none" d="M0 0h2000v500H0z"/><path d="M69.888 333.237V142.763H34.5L-35.562 275.05l-70.063-132.287h-35.625v190.474H-108V205.7l54.625 102.837h35.625L36.638 205.7v127.537h33.25Zm57.95-137.987h-33.25v137.987h33.25V195.25Zm-16.625-52.487c-11.163 0-19.95 9.025-19.95 19.95 0 11.162 8.787 20.187 19.95 20.187 11.162 0 20.187-9.025 20.187-20.187 0-10.925-9.025-19.95-20.187-19.95ZM222.6 226.125c14.963 0 25.888 10.45 25.888 26.362V333h34.2v-85.025c.475-31.825-22.325-56.05-54.388-56.05-19 0-32.537 8.313-42.275 21.85v-18.287h-33.25V333h33.25v-68.875c0-19.712 16.863-38 36.575-38Zm85.263 60.8c0 27.312 22.325 49.637 49.637 49.637 10.45 0 27.313-3.087 27.313-3.087l-4.038-31.588s-14.25 1.663-23.275 1.663c-9.025 0-16.387-7.6-16.387-16.625V228.5h39.662v-33.012h-39.662v-36.575l-33.25 3.562v33.013H289.1V228.5h18.763v58.425ZM532.3 161.763s-18.762-22.325-62.937-22.325c-42.275 0-68.163 27.787-68.163 57.237 0 4.038.475 7.838 1.425 11.875 6.175 25.413 26.6 35.625 51.538 41.8 10.687 2.612 22.325 4.75 32.537 8.075 9.975 3.325 19 8.075 20.663 20.425.237.95.237 1.662.237 2.613 0 13.299-15.675 23.037-36.575 23.037-29.212 0-54.15-15.438-54.15-15.438l-16.862 27.313s32.537 20.187 71.012 20.187c42.513 0 68.638-27.075 68.638-55.575 0-2.137-.238-4.274-.475-6.412-4.988-35.15-33.013-45.6-63.65-52.25-8.788-1.9-17.575-3.562-25.413-6.412-7.6-2.85-14.012-6.413-16.15-14.963-.475-1.662-.475-3.087-.475-4.512 0-13.775 15.2-24.938 35.863-24.938 26.837 0 38.95 11.638 38.95 11.638l23.987-21.375Zm127.538 99.749v5.463c-1.425 20.187-17.338 36.575-37.288 36.575-20.9 0-37.287-17.813-37.287-39.188 0-21.374 16.387-39.187 37.287-39.187 19.95 0 35.863 16.15 37.288 36.337Zm0 59.613v12.112h33.25V195.488h-33.25V207.6c-8.55-9.737-20.663-15.675-37.288-15.675-38.95 0-70.537 32.538-70.537 72.437 0 39.9 31.587 72.2 70.537 72.2 16.625 0 28.738-5.7 37.288-15.437Zm123.262-95c14.962 0 25.887 10.45 25.887 26.362V333h34.2v-85.025c.475-31.825-22.325-56.05-54.387-56.05-19 0-32.538 8.313-42.275 21.85v-18.287h-33.25V333h33.25v-68.875c0-19.712 16.862-38 36.575-38Zm184.775-19.475s-19.238-14.725-52.013-14.725c-34.675 0-55.1 22.088-55.1 44.413 0 3.087.475 6.174 1.188 9.262 4.987 19 21.375 27.788 41.325 32.3 7.837 1.662 16.387 2.85 23.75 5.225 5.7 1.662 11.162 3.562 12.112 9.975.238 2.375-1.662 4.037-3.8 5.7-4.987 3.8-12.112 5.7-20.662 5.7-21.613 0-41.563-10.213-41.563-10.213l-14.725 28.5s27.075 13.775 56.288 13.775c20.662 0 37.05-7.6 46.312-17.812 6.888-7.363 10.45-16.15 10.45-25.175 0-1.663-.237-3.563-.475-5.225-3.325-22.087-19.237-32.063-39.187-37.287-9.738-2.613-20.663-3.801-29.688-6.888-4.037-1.425-7.837-2.375-9.025-6.65-.237-.475-.237-.95-.237-1.425 0-2.137 1.425-4.037 3.087-5.7 4.275-4.037 11.4-6.412 19.95-6.412 20.663 0 32.775 8.55 32.775 8.55l19.238-25.888Z" style="fill:#ebebeb;fill-rule:nonzero" transform="translate(636.609 41.52) scale(.87544)"/><defs><linearGradient id="a" x1="0" y1="0" x2="1" y2="0" gradientUnits="userSpaceOnUse" gradientTransform="matrix(0 500 -497.25 0 994.5 0)"><stop offset="0" style="stop-color:#5a5a5a;stop-opacity:.33"/><stop offset="1" style="stop-color:#5a5a5a;stop-opacity:0"/></linearGradient><linearGradient id="b" x1="0" y1="0" x2="1" y2="0" gradientUnits="userSpaceOnUse" gradientTransform="rotate(90 -312.259 282.226) scale(58.8511)"><stop offset="0" style="stop-color:#17c;stop-opacity:1"/><stop offset="1" style="stop-color:#17c;stop-opacity:0"/></linearGradient><linearGradient id="c" x1="0" y1="0" x2="1" y2="0" gradientUnits="userSpaceOnUse" gradientTransform="matrix(-8.86045 573.613 -560.469 8.86045 1021.85 -78.95)"><stop offset="0" style="stop-color:#19f;stop-opacity:1"/><stop offset="1" style="stop-color:#19f;stop-opacity:0"/></linearGradient><linearGradient id="d" x1="0" y1="0" x2="1" y2="0" gradientUnits="userSpaceOnUse" gradientTransform="scale(575.61 556.009) rotate(90 .904 .828)"><stop offset="0" style="stop-color:#19f;stop-opacity:1"/><stop offset="1" style="stop-color:#19f;stop-opacity:0"/></linearGradient><linearGradient id="e" x1="0" y1="0" x2="1" y2="0" gradientUnits="userSpaceOnUse" gradientTransform="scale(573.421 556.009) rotate(90 .907 .83)"><stop offset="0" style="stop-color:#19f;stop-opacity:1"/><stop offset="1" style="stop-color:#19f;stop-opacity:0"/></linearGradient><linearGradient id="f" x1="0" y1="0" x2="1" y2="0" gradientUnits="userSpaceOnUse" gradientTransform="rotate(90 522.891 480.539) scale(556.009)"><stop offset="0" style="stop-color:#111212;stop-opacity:1"/><stop offset="1" style="stop-color:#111212;stop-opacity:0"/></linearGradient><linearGradient id="g" x1="0" y1="0" x2="1" y2="0" gradientUnits="userSpaceOnUse" gradientTransform="rotate(90 232.89 340.537) scale(556.009)"><stop offset="0" style="stop-color:#111212;stop-opacity:1"/><stop offset="1" style="stop-color:#111212;stop-opacity:0"/></linearGradient><linearGradient id="h" x1="0" y1="0" x2="1" y2="0" gradientUnits="userSpaceOnUse" gradientTransform="rotate(90 -207.61 -99.963) scale(556.009)"><stop offset="0" style="stop-color:#111212;stop-opacity:1"/><stop offset="1" style="stop-color:#111212;stop-opacity:0"/></linearGradient><linearGradient id="i" x1="0" y1="0" x2="1" y2="0" gradientUnits="userSpaceOnUse" gradientTransform="rotate(90 181.39 416.037) scale(556.009)"><stop offset="0" style="stop-color:#111212;stop-opacity:1"/><stop offset="1" style="stop-color:#111212;stop-opacity:0"/></linearGradient><linearGradient id="j" x1="0" y1="0" x2="1" y2="0" gradientUnits="userSpaceOnUse" gradientTransform="rotate(90 -312.61 -77.963) scale(556.009)"><stop offset="0" style="stop-color:#111212;stop-opacity:1"/><stop offset="1" style="stop-color:#111212;stop-opacity:0"/></linearGradient><linearGradient id="k" x1="0" y1="0" x2="1" y2="0" gradientUnits="userSpaceOnUse" gradientTransform="rotate(90 461.89 419.537) scale(556.009)"><stop offset="0" style="stop-color:#111212;stop-opacity:1"/><stop offset="1" style="stop-color:#111212;stop-opacity:0"/></linearGradient><linearGradient id="l" x1="0" y1="0" x2="1" y2="0" gradientUnits="userSpaceOnUse" gradientTransform="rotate(90 522.891 480.539) scale(556.009)"><stop offset="0" style="stop-color:#19f;stop-opacity:1"/><stop offset="1" style="stop-color:#19f;stop-opacity:0"/></linearGradient><linearGradient id="m" x1="0" y1="0" x2="1" y2="0" gradientUnits="userSpaceOnUse" gradientTransform="rotate(90 461.89 419.537) scale(556.009)"><stop offset="0" style="stop-color:#19f;stop-opacity:1"/><stop offset="1" style="stop-color:#19f;stop-opacity:0"/></linearGradient><linearGradient id="n" x1="0" y1="0" x2="1" y2="0" gradientUnits="userSpaceOnUse" gradientTransform="rotate(90 232.89 340.537) scale(556.009)"><stop offset="0" style="stop-color:#19f;stop-opacity:1"/><stop offset="1" style="stop-color:#19f;stop-opacity:0"/></linearGradient><linearGradient id="o" x1="0" y1="0" x2="1" y2="0" gradientUnits="userSpaceOnUse" gradientTransform="rotate(90 -207.61 -99.963) scale(556.009)"><stop offset="0" style="stop-color:#19f;stop-opacity:1"/><stop offset="1" style="stop-color:#19f;stop-opacity:0"/></linearGradient><linearGradient id="p" x1="0" y1="0" x2="1" y2="0" gradientUnits="userSpaceOnUse" gradientTransform="rotate(90 181.39 416.037) scale(556.009)"><stop offset="0" style="stop-color:#19f;stop-opacity:1"/><stop offset="1" style="stop-color:#19f;stop-opacity:0"/></linearGradient><linearGradient id="q" x1="0" y1="0" x2="1" y2="0" gradientUnits="userSpaceOnUse" gradientTransform="rotate(90 -312.61 -77.963) scale(556.009)"><stop offset="0" style="stop-color:#19f;stop-opacity:1"/><stop offset="1" style="stop-color:#19f;stop-opacity:0"/></linearGradient><linearGradient id="r" x1="0" y1="0" x2="1" y2="0" gradientUnits="userSpaceOnUse" gradientTransform="rotate(90 516.824 527.056) scale(365.67)"><stop offset="0" style="stop-color:#19f;stop-opacity:1"/><stop offset="1" style="stop-color:#19f;stop-opacity:0"/></linearGradient><linearGradient id="s" x1="0" y1="0" x2="1" y2="0" gradientUnits="userSpaceOnUse" gradientTransform="rotate(90 563.676 490.384) scale(365.67)"><stop offset="0" style="stop-color:#19f;stop-opacity:1"/><stop offset="1" style="stop-color:#19f;stop-opacity:0"/></linearGradient></defs></svg>