<?xml version="1.0" encoding="UTF-8" standalone="no"?>
<!DOCTYPE svg PUBLIC "-//W3C//DTD SVG 1.1//EN" "http://www.w3.org/Graphics/SVG/1.1/DTD/svg11.dtd">
<svg width="100%" height="100%" viewBox="0 0 1920 1080" version="1.1" xmlns="http://www.w3.org/2000/svg" xmlns:xlink="http://www.w3.org/1999/xlink" xml:space="preserve" xmlns:serif="http://www.serif.com/" style="fill-rule:evenodd;clip-rule:evenodd;stroke-linejoin:round;stroke-miterlimit:2;">
    <rect id="Slide4" x="0" y="0" width="1920" height="1080" style="fill:none;"/>
    <g id="Slide41" serif:id="Slide4">
        <rect x="0" y="0" width="1920" height="1080" style="fill:rgb(238,238,238);"/>
        <g transform="matrix(1,0,0,1,-1970,0)">
            <g transform="matrix(1.01481,0,0,0.928167,1959.56,-2965.16)">
                <path d="M973.922,3895.41L910.542,3826.11L973.922,3756.82L967.65,3749.96L898,3826.11L967.65,3902.26L973.922,3895.41Z" style="fill:rgb(187,187,187);"/>
            </g>
            <g transform="matrix(1.01481,0,0,0.928167,1959.56,-2965.16)">
                <rect x="904.271" y="3821.26" width="471.729" height="9.7" style="fill:rgb(187,187,187);"/>
            </g>
        </g>
        <g transform="matrix(12.3177,0,0,12.3177,-12352.7,-28837.1)">
            <g transform="matrix(0.081184,0,0,0.081184,1002.84,2341.11)">
                <rect x="55.781" y="58.007" width="59.852" height="1021.99" style="fill:rgb(17,17,17);"/>
            </g>
            <path d="M1036.66,2345.82L1036.66,2350.86L1093.18,2350.86L1093.18,2428.79L1098.04,2428.79L1098.04,2350.86L1154.19,2350.86L1154.19,2345.82L1036.66,2345.82Z" style="fill:rgb(17,17,17);fill-rule:nonzero;"/>
        </g>
        <g transform="matrix(4.59447e-17,0.750335,-0.750335,4.59447e-17,4509.2,557.536)">
            <path d="M-313.696,3935.23L-352.991,3953.16L-352.991,3974.04L-290.842,3945.59L-290.842,3924.71L-352.991,3896.43L-352.991,3917.31L-313.696,3935.23Z" style="fill:rgb(17,17,17);fill-rule:nonzero;"/>
            <path d="M-178.545,3927.01C-168.187,3927.01 -160.623,3934.25 -160.623,3945.26L-160.623,4001L-136.947,4001L-136.947,3952.83C-136.947,3940 -126.096,3927.01 -111.956,3927.01C-101.598,3927.01 -94.034,3934.25 -94.034,3945.26L-94.034,4001L-70.358,4001L-70.358,3942.14C-70.029,3920.11 -85.813,3903.34 -108.01,3903.34C-123.629,3903.34 -133.988,3911.56 -140.729,3924.05C-146.648,3911.56 -158.979,3903.34 -174.599,3903.34C-187.752,3903.34 -197.124,3909.09 -203.865,3918.46L-203.865,3905.8L-226.883,3905.8L-226.883,4001L-203.865,4001L-203.865,3953.32C-203.865,3939.67 -192.191,3927.01 -178.545,3927.01Z" style="fill:rgb(17,17,17);fill-rule:nonzero;"/>
            <path d="M-30.24,3905.64L-53.259,3905.64L-53.259,4001.16L-30.24,4001.16L-30.24,3905.64ZM-41.75,3869.3C-49.477,3869.3 -55.561,3875.55 -55.561,3883.11C-55.561,3890.84 -49.477,3897.09 -41.75,3897.09C-34.022,3897.09 -27.774,3890.84 -27.774,3883.11C-27.774,3875.55 -34.022,3869.3 -41.75,3869.3Z" style="fill:rgb(17,17,17);fill-rule:nonzero;"/>
            <path d="M60.189,3913.53C60.189,3913.53 46.871,3903.34 24.182,3903.34C0.177,3903.34 -13.963,3918.63 -13.963,3934.08C-13.963,3936.22 -13.634,3938.36 -13.141,3940.49C-9.688,3953.65 1.656,3959.73 15.467,3962.86C20.893,3964.01 26.812,3964.83 31.909,3966.47C35.855,3967.62 39.637,3968.94 40.294,3973.38C40.459,3975.02 39.144,3976.17 37.664,3977.32C34.211,3979.95 29.279,3981.27 23.36,3981.27C8.398,3981.27 -5.413,3974.2 -5.413,3974.2L-15.607,3993.93C-15.607,3993.93 3.136,4003.47 23.36,4003.47C37.664,4003.47 49.009,3998.2 55.421,3991.14C60.189,3986.04 62.655,3979.95 62.655,3973.71C62.655,3972.56 62.491,3971.24 62.326,3970.09C60.025,3954.8 49.009,3947.89 35.198,3944.28C28.456,3942.47 20.893,3941.64 14.645,3939.51C11.85,3938.52 9.22,3937.86 8.398,3934.9C8.233,3934.58 8.233,3934.25 8.233,3933.92C8.233,3932.44 9.22,3931.12 10.371,3929.97C13.33,3927.18 18.263,3925.53 24.182,3925.53C38.486,3925.53 46.871,3931.45 46.871,3931.45L60.189,3913.53Z" style="fill:rgb(17,17,17);fill-rule:nonzero;"/>
            <path d="M77.453,3969.1C77.453,3988.01 92.908,4003.47 111.816,4003.47C119.05,4003.47 130.724,4001.33 130.724,4001.33L127.929,3979.46C127.929,3979.46 118.064,3980.61 111.816,3980.61C105.568,3980.61 100.471,3975.35 100.471,3969.1L100.471,3928.66L127.929,3928.66L127.929,3905.8L100.471,3905.8L100.471,3880.48L77.453,3882.95L77.453,3905.8L64.464,3905.8L64.464,3928.66L77.453,3928.66L77.453,3969.1Z" style="fill:rgb(17,17,17);fill-rule:nonzero;"/>
            <path d="M215.234,3951.51L215.234,3955.29C214.248,3969.27 203.232,3980.61 189.421,3980.61C174.952,3980.61 163.607,3968.28 163.607,3953.48C163.607,3938.69 174.952,3926.36 189.421,3926.36C203.232,3926.36 214.248,3937.54 215.234,3951.51ZM215.234,3992.78L215.234,4001.16L238.253,4001.16L238.253,3905.8L215.234,3905.8L215.234,3914.19C209.315,3907.45 200.93,3903.34 189.421,3903.34C162.456,3903.34 140.589,3925.86 140.589,3953.48C140.589,3981.11 162.456,4003.47 189.421,4003.47C200.93,4003.47 209.315,3999.52 215.234,3992.78Z" style="fill:rgb(17,17,17);fill-rule:nonzero;"/>
            <path d="M275.575,3938.85L275.575,3869.3L252.228,3869.3L252.228,4001.16L275.575,4001.16L275.575,3969.6L281.823,3962.86L312.24,4001.16L340.191,4001.16L296.95,3946.58L334.766,3905.64L306.321,3905.64L275.575,3938.85Z" style="fill:rgb(17,17,17);fill-rule:nonzero;"/>
            <path d="M407.602,3944.93L362.223,3944.93C363.539,3940.99 365.512,3937.21 368.471,3934.25C373.897,3928.82 380.145,3926.19 386.228,3926.19C389.023,3926.19 391.818,3926.68 394.285,3927.83C400.697,3930.63 405.794,3936.71 407.602,3944.93ZM352.358,3918.13C343.48,3927.51 338.547,3940.17 338.547,3953.32C338.547,3981.11 360.25,4003.47 387.215,4003.47C414.179,4003.47 424.702,3993.6 424.702,3993.6L414.837,3974.69C414.837,3974.69 401.683,3980.28 387.215,3980.28C375.541,3980.28 365.676,3972.56 362.223,3961.7L431.279,3961.7L431.279,3951.68C431.114,3928.99 418.783,3913.37 403.328,3906.79C397.902,3904.49 391.983,3903.34 386.064,3903.34C374.555,3903.34 362.552,3907.78 352.358,3917.97L352.358,3918.13Z" style="fill:rgb(17,17,17);fill-rule:nonzero;"/>
        </g>
        <g transform="matrix(0.573659,-5.29877e-33,5.29877e-33,0.573659,239.1,-1723.11)">
            <path d="M69.386,3905.81L64.967,3905.81L64.967,4000.99L69.386,4000.99L69.386,3905.81ZM67.259,3867.01C65.291,3867.01 63.488,3868.65 63.488,3870.62C63.488,3872.59 65.291,3874.39 67.259,3874.39C69.226,3874.39 70.866,3872.59 70.866,3870.62C70.866,3868.65 69.226,3867.01 67.259,3867.01Z" style="fill:rgb(17,17,17);fill-rule:nonzero;"/>
            <path d="M107.86,3905.81L107.86,3880.49L103.605,3882.96L103.605,3905.81L88.15,3905.81L88.15,3910.07L103.605,3910.07L103.605,3977C103.605,3991.64 115.258,4003.29 129.892,4003.46C135.646,4003.46 140.085,4002.47 140.085,4002.47L139.099,3998.71C139.099,3998.71 136.304,3999.2 130.056,3999.2C117.725,3999.2 107.86,3989.33 107.86,3977L107.86,3910.07L138.606,3910.07L138.606,3905.81L107.86,3905.81Z" style="fill:rgb(17,17,17);fill-rule:nonzero;"/>
            <rect x="157.205" y="3869.48" width="4.254" height="41.906" style="fill:rgb(17,17,17);"/>
            <path d="M182.998,3867.01L178.744,3869.31L178.744,4000.99L182.998,4000.99L182.998,3867.01Z" style="fill:rgb(17,17,17);fill-rule:nonzero;"/>
            <path d="M204.373,3867.01L200.118,3869.31L200.118,4000.99L204.373,4000.99L204.373,3867.01Z" style="fill:rgb(17,17,17);fill-rule:nonzero;"/>
            <path d="M279.018,3932.93L279.018,3869.48L274.764,3869.48L274.764,4000.99L279.018,4000.99L279.018,3973.91C286.747,3991.47 303.851,4003.46 323.585,4003.46C350.556,4003.46 372.242,3981.11 372.242,3953.48C372.242,3925.86 350.556,3903.51 323.585,3903.51C303.851,3903.51 286.747,3915.49 279.018,3932.93ZM323.585,3907.93C348.089,3907.93 367.824,3928.32 367.824,3953.48C367.824,3978.64 348.089,3999.04 323.585,3999.04C299.081,3999.04 279.182,3978.64 279.182,3953.48C279.182,3928.32 299.081,3907.93 323.585,3907.93Z" style="fill:rgb(17,17,17);fill-rule:nonzero;"/>
            <path d="M402.331,3916.65C393.123,3926.19 387.883,3939.18 387.883,3952.66C387.883,3980.78 408.579,4003.46 435.708,4003.46C462.836,4003.46 473.195,3994.27 473.195,3994.27L469.906,3990.81C469.906,3990.81 460.535,3999.04 435.708,3999.04C411.703,3999.04 393.452,3979.79 392.301,3955.28L477.634,3955.28C477.634,3932.28 469.249,3917.8 457.904,3910.07C450.998,3905.47 443.106,3903.35 435.05,3903.35C423.047,3903.35 410.881,3908.09 402.331,3916.65ZM473.195,3950.86L392.138,3950.86C392.63,3939.18 397.234,3928 405.29,3919.77C413.018,3912.04 424.034,3907.6 434.885,3907.6C442.12,3907.6 449.354,3909.41 455.438,3913.69C465.138,3920.27 472.208,3932.28 473.195,3950.86Z" style="fill:rgb(17,17,17);fill-rule:nonzero;"/>
            <path d="M616.244,3914.01C616.244,3914.01 606.555,3903.35 584.022,3903.35C563.627,3903.35 550.491,3915.99 550.491,3929.64C550.491,3931.28 550.655,3933.09 551.146,3934.74C554.91,3949.37 569.384,3952.5 584.68,3955.62C598.167,3958.42 610.831,3961.71 612.97,3976.18C613.134,3976.84 613.134,3977.66 613.134,3978.32C613.134,3982.26 611.654,3986.05 608.858,3989.17C603.759,3995.09 594.548,3999.04 583.035,3999.04C563.463,3999.04 549.834,3989.17 549.834,3989.17L547.203,3992.79C547.203,3992.79 561.982,4003.46 583.035,4003.46C603.759,4003.46 617.553,3991.47 617.553,3978.15C617.553,3977.33 617.553,3976.34 617.389,3975.52C614.934,3958.58 600.47,3954.63 585.502,3951.35C571.851,3948.39 554.91,3945.92 554.91,3929.31C554.91,3917.96 566.588,3907.76 584.022,3907.76C604.252,3907.76 612.97,3916.97 612.97,3916.97L616.244,3914.01Z" style="fill:rgb(17,17,17);fill-rule:nonzero;"/>
            <path d="M648.299,3916.65C639.092,3926.19 633.851,3939.18 633.851,3952.66C633.851,3980.78 654.547,4003.46 681.676,4003.46C708.804,4003.46 719.163,3994.27 719.163,3994.27L715.874,3990.81C715.874,3990.81 706.503,3999.04 681.676,3999.04C657.671,3999.04 639.42,3979.79 638.269,3955.28L723.602,3955.28C723.602,3932.28 715.217,3917.8 703.872,3910.07C696.966,3905.47 689.074,3903.35 681.018,3903.35C669.015,3903.35 656.849,3908.09 648.299,3916.65ZM719.163,3950.86L638.106,3950.86C638.598,3939.18 643.202,3928 651.258,3919.77C658.986,3912.04 670.002,3907.6 680.854,3907.6C688.088,3907.6 695.322,3909.41 701.406,3913.69C711.106,3920.27 718.176,3932.28 719.163,3950.86Z" style="fill:rgb(17,17,17);fill-rule:nonzero;"/>
            <path d="M749.415,3905.81L749.415,3880.49L745.161,3882.96L745.161,3905.81L729.706,3905.81L729.706,3910.07L745.161,3910.07L745.161,3977C745.161,3991.64 756.814,4003.29 771.447,4003.46C777.202,4003.46 781.641,4002.47 781.641,4002.47L780.655,3998.71C780.655,3998.71 777.86,3999.2 771.612,3999.2C759.281,3999.2 749.415,3989.33 749.415,3977L749.415,3910.07L780.162,3910.07L780.162,3905.81L749.415,3905.81Z" style="fill:rgb(17,17,17);fill-rule:nonzero;"/>
            <path d="M857.931,3905.81L853.512,3905.81L853.512,4000.99L857.931,4000.99L857.931,3905.81ZM855.803,3867.01C853.836,3867.01 852.032,3868.65 852.032,3870.62C852.032,3872.59 853.836,3874.39 855.803,3874.39C857.771,3874.39 859.411,3872.59 859.411,3870.62C859.411,3868.65 857.771,3867.01 855.803,3867.01Z" style="fill:rgb(17,17,17);fill-rule:nonzero;"/>
            <path d="M880.949,3926.69L880.949,3905.81L876.695,3905.81L876.695,4000.99L880.949,4000.99L880.949,3943.95C880.949,3939.02 882.101,3934.41 884.074,3929.98C889.995,3917.14 902.824,3907.76 916.804,3907.76C933.415,3907.76 945.915,3920.75 945.915,3937.36L945.915,4000.99L950.169,4000.99L950.169,3937.36C950.333,3918.29 936.376,3903.35 917.297,3903.35C902.001,3903.35 887.857,3913.03 880.949,3926.67L880.949,3926.69Z" style="fill:rgb(17,17,17);fill-rule:nonzero;"/>
        </g>
        <g transform="matrix(0.671711,-6.20445e-33,6.20445e-33,0.671711,191.68,-2010.6)">
            <path d="M124.815,3869.48L124.815,4000.99L138.277,4000.99L138.277,3894.89L185.638,3983.94L200.931,3983.94L248.128,3894.89L248.128,4000.99L261.754,4000.99L261.754,3869.48L246.483,3869.48L193.202,3969.51L140.086,3869.48L124.815,3869.48Z" style="fill:rgb(17,17,17);fill-rule:nonzero;"/>
            <path d="M294.966,3905.81L281.505,3905.81L281.505,4000.99L294.966,4000.99L294.966,3905.81ZM288.236,3869.48C283.144,3869.48 278.874,3873.75 278.874,3878.84C278.874,3883.93 283.144,3888.2 288.236,3888.2C293.327,3888.2 297.597,3883.93 297.597,3878.84C297.597,3873.75 293.327,3869.48 288.236,3869.48Z" style="fill:rgb(17,17,17);fill-rule:nonzero;"/>
            <path d="M328.179,3922.22L328.179,3905.81L314.717,3905.81L314.717,4000.99L328.179,4000.99L328.179,3947C328.179,3943.06 329.166,3939.12 330.81,3935.51C335.58,3924.87 346.107,3917.3 357.621,3917.3C370.779,3917.3 380.648,3927.17 381.306,3940.16L381.306,4000.99L394.932,4000.99L394.932,3940.48C395.096,3919.6 379.661,3903.35 358.936,3903.35C344.956,3903.35 334.429,3910.73 328.179,3922.07L328.179,3922.22Z" style="fill:rgb(17,17,17);fill-rule:nonzero;"/>
            <path d="M432.255,3905.81L432.255,3880.66L418.793,3882.96L418.793,3905.81L403.338,3905.81L403.338,3919.27L418.793,3919.27L418.793,3974.7C418.793,3990.65 431.598,4003.46 447.546,4003.46C453.958,4003.46 464.316,4000.99 464.316,4000.99L461.685,3988.84C461.685,3988.84 455.931,3989.99 447.546,3989.99C439.16,3989.99 432.255,3983.25 432.255,3974.86L432.255,3919.27L461.028,3919.27L461.028,3905.81L432.255,3905.81Z" style="fill:rgb(17,17,17);fill-rule:nonzero;"/>
            <path d="M573.171,3882.45C573.171,3882.45 560.182,3867 529.6,3867C500.334,3867 482.412,3886.24 482.412,3906.62C482.412,3909.42 482.741,3912.05 483.399,3914.85C487.674,3932.44 501.813,3939.51 519.077,3943.78C526.476,3945.59 534.533,3947.07 541.602,3949.37C548.508,3951.68 554.756,3954.96 555.907,3963.51C556.071,3964.17 556.071,3964.66 556.071,3965.32C556.071,3974.53 545.22,3981.27 530.751,3981.27C510.528,3981.27 493.264,3970.58 493.264,3970.58L481.59,3989.49C481.59,3989.49 504.115,4003.47 530.751,4003.47C560.182,4003.47 578.267,3984.72 578.267,3964.99C578.267,3963.51 578.103,3962.03 577.939,3960.55C574.486,3936.22 555.085,3928.99 533.875,3924.38C527.791,3923.07 521.708,3921.91 516.282,3919.94C511.021,3917.97 506.582,3915.5 505.102,3909.58C504.773,3908.43 504.773,3907.45 504.773,3906.46C504.773,3896.92 515.296,3889.2 529.6,3889.2C548.179,3889.2 556.564,3897.25 556.564,3897.25L573.171,3882.45Z" style="fill:rgb(17,17,17);fill-rule:nonzero;"/>
            <path d="M665.573,3951.51L665.573,3955.29C664.587,3969.27 653.571,3980.61 639.76,3980.61C625.291,3980.61 613.946,3968.28 613.946,3953.48C613.946,3938.69 625.291,3926.36 639.76,3926.36C653.571,3926.36 664.587,3937.54 665.573,3951.51ZM665.573,3992.78L665.573,4001.16L688.591,4001.16L688.591,3905.8L665.573,3905.8L665.573,3914.19C659.654,3907.45 651.269,3903.34 639.76,3903.34C612.795,3903.34 590.928,3925.86 590.928,3953.48C590.928,3981.11 612.795,4003.47 639.76,4003.47C651.269,4003.47 659.654,3999.52 665.573,3992.78Z" style="fill:rgb(17,17,17);fill-rule:nonzero;"/>
            <path d="M755.016,3927.01C765.374,3927.01 772.937,3934.25 772.937,3945.26L772.937,4001L796.613,4001L796.613,3942.14C796.942,3920.11 781.158,3903.34 758.962,3903.34C745.809,3903.34 736.437,3909.09 729.696,3918.46L729.696,3905.8L706.677,3905.8L706.677,4001L729.696,4001L729.696,3953.32C729.696,3939.67 741.369,3927.01 755.016,3927.01Z" style="fill:rgb(17,17,17);fill-rule:nonzero;"/>
            <path d="M887.043,3913.53C887.043,3913.53 873.725,3903.34 851.036,3903.34C827.031,3903.34 812.891,3918.63 812.891,3934.08C812.891,3936.22 813.22,3938.36 813.713,3940.49C817.166,3953.65 828.51,3959.73 842.321,3962.86C847.747,3964.01 853.666,3964.83 858.763,3966.47C862.709,3967.62 866.491,3968.94 867.148,3973.38C867.313,3975.02 865.998,3976.17 864.518,3977.32C861.065,3979.95 856.133,3981.27 850.213,3981.27C835.252,3981.27 821.44,3974.2 821.44,3974.2L811.247,3993.93C811.247,3993.93 829.99,4003.47 850.213,4003.47C864.518,4003.47 875.863,3998.2 882.275,3991.14C887.043,3986.04 889.509,3979.95 889.509,3973.71C889.509,3972.56 889.345,3971.24 889.18,3970.09C886.879,3954.8 875.863,3947.89 862.052,3944.28C855.31,3942.47 847.747,3941.64 841.499,3939.51C838.704,3938.52 836.074,3937.86 835.252,3934.9C835.087,3934.58 835.087,3934.25 835.087,3933.92C835.087,3932.44 836.074,3931.12 837.225,3929.97C840.184,3927.18 845.117,3925.53 851.036,3925.53C865.34,3925.53 873.725,3931.45 873.725,3931.45L887.043,3913.53Z" style="fill:rgb(17,17,17);fill-rule:nonzero;"/>
        </g>
    </g>
</svg>
