<?xml version="1.0" encoding="UTF-8" standalone="no"?>
<!DOCTYPE svg PUBLIC "-//W3C//DTD SVG 1.1//EN" "http://www.w3.org/Graphics/SVG/1.1/DTD/svg11.dtd">
<svg width="100%" height="100%" viewBox="0 0 1920 1080" version="1.1" xmlns="http://www.w3.org/2000/svg" xmlns:xlink="http://www.w3.org/1999/xlink" xml:space="preserve" xmlns:serif="http://www.serif.com/" style="fill-rule:evenodd;clip-rule:evenodd;stroke-linejoin:round;stroke-miterlimit:2;">
    <g transform="matrix(1,0,0,1,0,-5400)">
        <g id="Slide6" transform="matrix(1,0,0,1,-1970,5400)">
            <rect x="1970" y="0" width="1920" height="1080" style="fill:none;"/>
            <g transform="matrix(1,0,0,1,1970,0)">
                <rect x="0" y="0" width="1920" height="1080" style="fill:rgb(238,238,238);"/>
            </g>
            <g transform="matrix(0.711309,0,0,0.711309,2152.71,-3719.61)">
                <path d="M238.586,5610.93C238.586,5610.93 229.095,5600 207.202,5600C186.632,5600 174.019,5613.33 174.019,5627.53C174.019,5629.33 174.139,5631.26 174.62,5633.06C176.541,5641.24 181.704,5646.05 188.316,5649.3C197.819,5653.99 211.412,5654.59 221.276,5658.92C226.329,5661.2 230.298,5664.93 231.261,5671.67C231.381,5672.27 231.381,5672.75 231.381,5673.35C231.381,5682.25 221.878,5689.59 208.164,5689.59C191.564,5689.59 179.423,5680.93 179.423,5680.93L173.418,5689.23C173.418,5689.23 188.075,5699.8 208.164,5699.8C228.855,5699.8 241.708,5687.06 241.708,5673.23C241.708,5672.27 241.588,5671.19 241.468,5670.23C239.066,5652.9 224.885,5648.22 209.848,5644.85C199.503,5642.56 186.872,5641 184.587,5630.65C184.346,5629.57 184.226,5628.49 184.226,5627.41C184.226,5618.15 193.609,5610.21 207.202,5610.21C223.682,5610.21 230.9,5617.78 230.9,5617.78L238.586,5610.93Z" style="fill:rgb(17,17,17);fill-rule:nonzero;"/>
                <path d="M289.216,5636.42C303.65,5636.42 315.318,5648.45 315.318,5663.25C315.318,5678.04 303.65,5689.95 289.216,5689.95C274.781,5689.95 263.113,5678.04 263.113,5663.25C263.113,5648.45 274.781,5636.42 289.216,5636.42ZM289.216,5626.58C269.488,5626.58 253.508,5643.04 253.508,5663.25C253.508,5683.45 269.488,5699.8 289.216,5699.8C308.943,5699.8 324.924,5683.45 324.924,5663.25C324.924,5643.04 308.943,5626.58 289.216,5626.58Z" style="fill:rgb(17,17,17);fill-rule:nonzero;"/>
                <path d="M394.433,5643.76C390.831,5633.66 381.457,5626.58 369.787,5626.58C359.562,5626.58 351.863,5631.98 347.291,5640.27L347.291,5628.38L337.445,5628.38L337.445,5697.99L347.291,5697.99L347.291,5658.51C347.291,5655.62 348.013,5652.74 349.216,5650.1C352.705,5642.32 360.404,5636.78 368.825,5636.78C378.449,5636.78 385.667,5644 386.148,5653.5L386.148,5697.99L396.115,5697.99L396.115,5658.43C396.115,5655.54 396.716,5652.66 397.919,5650.01C401.408,5642.32 409.107,5636.78 417.528,5636.78C427.152,5636.78 434.49,5644 434.972,5653.5L434.972,5697.99L444.818,5697.99L444.818,5653.74C444.938,5638.47 433.769,5626.58 418.611,5626.58C406.942,5626.58 398.761,5633.66 394.433,5643.76Z" style="fill:rgb(17,17,17);fill-rule:nonzero;"/>
                <path d="M513.002,5657.84L466.824,5657.84C467.786,5652.55 470.191,5647.61 473.919,5643.76C478.729,5638.95 485.103,5636.3 491.476,5636.3C495.685,5636.3 499.774,5637.51 503.261,5639.79C508.432,5643.16 512.04,5649.18 513.002,5657.84ZM466.945,5636.9C460.34,5643.76 456.738,5653.15 456.738,5662.89C456.738,5683.33 471.514,5699.8 491.236,5699.8C510.958,5699.8 520.097,5692.11 520.097,5692.11L513.844,5684.05C513.844,5684.05 505.667,5689.95 491.236,5689.95C478.369,5689.95 468.748,5680.44 466.704,5667.81L523.103,5667.81L523.103,5661.81C522.863,5646.77 516.73,5637.02 508.673,5631.62C503.622,5628.26 497.609,5626.58 491.597,5626.58C482.698,5626.58 473.559,5630.06 466.945,5636.9Z" style="fill:rgb(17,17,17);fill-rule:nonzero;"/>
                <path d="M595.617,5628.38L595.617,5609.98L585.771,5611.66L585.771,5628.38L574.467,5628.38L574.467,5638.23L585.771,5638.23L585.771,5678.76C585.771,5690.43 595.137,5699.8 606.801,5699.8C611.491,5699.8 619.067,5697.99 619.067,5697.99L617.143,5689.11C617.143,5689.11 612.934,5689.95 606.801,5689.95C600.668,5689.95 595.617,5685.02 595.617,5678.88L595.617,5638.23L616.662,5638.23L616.662,5628.38L595.617,5628.38Z" style="fill:rgb(17,17,17);fill-rule:nonzero;"/>
                <path d="M643.358,5628.38L633.512,5628.38L633.512,5697.99L643.358,5697.99L643.358,5628.38ZM638.435,5601.8C634.711,5601.8 631.588,5604.93 631.588,5608.65C631.588,5612.38 634.711,5615.5 638.435,5615.5C642.159,5615.5 645.282,5612.38 645.282,5608.65C645.282,5604.93 642.159,5601.8 638.435,5601.8L638.435,5601.8Z" style="fill:rgb(17,17,17);fill-rule:nonzero;"/>
                <path d="M667.529,5664.09L667.529,5662.28C668.01,5647.97 679.318,5636.42 693.391,5636.42C707.706,5636.42 719.254,5648.57 719.254,5663.25C719.254,5677.92 707.706,5689.95 693.391,5689.95C679.318,5689.95 668.01,5678.4 667.529,5664.09ZM667.529,5641.96L667.529,5628.38L657.683,5628.38L657.683,5724.69L667.529,5724.69L667.529,5684.55C672.581,5693.79 681.363,5699.8 693.391,5699.8C713.119,5699.8 729.1,5683.47 729.1,5663.31C729.1,5643.04 713.119,5626.58 693.391,5626.58C681.363,5626.58 672.581,5632.7 667.529,5641.96Z" style="fill:rgb(17,17,17);fill-rule:nonzero;"/>
                <path d="M791.875,5633.18C791.875,5633.18 784.91,5624.65 768.19,5624.65C752.31,5624.65 742.583,5635.22 742.583,5646.17C742.583,5647.61 742.703,5649.05 743.063,5650.5C745.345,5660 752.91,5663.85 762.054,5666.13C770.476,5668.42 781.665,5668.66 782.989,5678.16L782.989,5679C782.989,5681.41 781.786,5683.7 779.74,5685.38C776.853,5687.91 772.401,5689.35 767.227,5689.35C755.557,5689.35 746.186,5683.22 746.186,5683.22L740.419,5692.11C740.419,5692.11 752.43,5699.8 767.227,5699.8C783.229,5699.8 793.556,5689.71 793.556,5679C793.556,5678.28 793.556,5677.44 793.436,5676.72C791.635,5663.49 781.304,5659.64 769.995,5657.11C763.257,5655.67 754.955,5654.71 753.391,5647.97C753.271,5647.25 753.151,5646.65 753.151,5645.93C753.151,5640.03 759.407,5635.22 768.19,5635.22C779.139,5635.22 784.069,5640.15 784.069,5640.15L791.875,5633.18Z" style="fill:rgb(17,17,17);fill-rule:nonzero;"/>
                <path d="M854.54,5617.91L854.54,5628.14L844.92,5628.14L844.92,5638.11L854.54,5638.11L854.54,5697.99L864.506,5697.99L864.506,5638.11L881.703,5638.11L881.703,5628.14L864.506,5628.14L864.506,5617.91C864.506,5611.77 869.316,5606.96 875.449,5606.96C880.741,5606.96 883.146,5607.32 883.146,5607.32L884.228,5598.31C884.228,5598.31 880.741,5596.99 875.449,5596.99C863.906,5596.99 854.54,5606.36 854.54,5617.91Z" style="fill:rgb(17,17,17);fill-rule:nonzero;"/>
                <path d="M918.027,5636.42C932.462,5636.42 944.13,5648.45 944.13,5663.25C944.13,5678.04 932.462,5689.95 918.027,5689.95C903.592,5689.95 891.924,5678.04 891.924,5663.25C891.924,5648.45 903.592,5636.42 918.027,5636.42ZM918.027,5626.58C898.3,5626.58 882.319,5643.04 882.319,5663.25C882.319,5683.45 898.3,5699.8 918.027,5699.8C937.755,5699.8 953.735,5683.45 953.735,5663.25C953.735,5643.04 937.755,5626.58 918.027,5626.58Z" style="fill:rgb(17,17,17);fill-rule:nonzero;"/>
                <path d="M976.343,5632.95L976.343,5626.46L966.257,5626.46L966.257,5697.99L976.343,5697.99L976.463,5651.58C976.463,5642.32 983.919,5634.86 993.179,5634.86C996.305,5634.86 1002.08,5635.58 1002.08,5635.58L1002.08,5625.61C1002.08,5625.61 996.185,5624.65 993.179,5624.65C985.603,5624.65 979.951,5627.89 976.343,5632.94L976.343,5632.95Z" style="fill:rgb(17,17,17);fill-rule:nonzero;"/>
                <path d="M1100.1,5676.48C1096.61,5684.18 1089.03,5689.71 1080.61,5689.71C1070.99,5689.71 1063.65,5682.49 1063.17,5672.99L1063.17,5628.38L1053.32,5628.38L1053.32,5672.75C1053.2,5688.03 1064.37,5699.8 1079.53,5699.8C1089.75,5699.8 1097.45,5694.39 1102.02,5686.1L1102.02,5697.99L1111.87,5697.99L1111.87,5628.38L1102.02,5628.38L1102.02,5667.99C1102.02,5670.87 1101.3,5673.75 1100.1,5676.39L1100.1,5676.48Z" style="fill:rgb(17,17,17);fill-rule:nonzero;"/>
                <path d="M1175.13,5633.18C1175.13,5633.18 1168.16,5624.65 1151.44,5624.65C1135.56,5624.65 1125.84,5635.22 1125.84,5646.17C1125.84,5647.61 1125.95,5649.05 1126.32,5650.5C1128.6,5660 1136.16,5663.85 1145.31,5666.13C1153.73,5668.42 1164.92,5668.66 1166.24,5678.16L1166.24,5679C1166.24,5681.41 1165.04,5683.7 1162.99,5685.38C1160.1,5687.91 1155.65,5689.35 1150.48,5689.35C1138.81,5689.35 1129.44,5683.22 1129.44,5683.22L1123.67,5692.11C1123.67,5692.11 1135.68,5699.8 1150.48,5699.8C1166.48,5699.8 1176.81,5689.71 1176.81,5679C1176.81,5678.28 1176.81,5677.44 1176.69,5676.72C1174.89,5663.49 1164.56,5659.64 1153.25,5657.11C1146.51,5655.67 1138.21,5654.71 1136.64,5647.97C1136.52,5647.25 1136.4,5646.65 1136.4,5645.93C1136.4,5640.03 1142.66,5635.22 1151.44,5635.22C1162.39,5635.22 1167.32,5640.15 1167.32,5640.15L1175.13,5633.18Z" style="fill:rgb(17,17,17);fill-rule:nonzero;"/>
                <path d="M1201.1,5628.38L1191.25,5628.38L1191.25,5697.99L1201.1,5697.99L1201.1,5628.38ZM1196.18,5601.8C1192.45,5601.8 1189.33,5604.93 1189.33,5608.65C1189.33,5612.38 1192.45,5615.5 1196.18,5615.5C1199.9,5615.5 1203.02,5612.38 1203.02,5608.65C1203.02,5604.93 1199.9,5601.8 1196.18,5601.8L1196.18,5601.8Z" style="fill:rgb(17,17,17);fill-rule:nonzero;"/>
                <path d="M1225.27,5640.38L1225.27,5628.38L1215.42,5628.38L1215.42,5697.99L1225.27,5697.99L1225.27,5658.51C1225.27,5655.62 1225.99,5652.74 1227.19,5650.1C1230.68,5642.32 1238.38,5636.78 1246.8,5636.78C1256.43,5636.78 1263.65,5644 1264.13,5653.5L1264.13,5697.99L1274.09,5697.99L1274.09,5653.74C1274.21,5638.47 1262.92,5626.58 1247.77,5626.58C1237.54,5626.58 1229.84,5631.98 1225.27,5640.27L1225.27,5640.38Z" style="fill:rgb(17,17,17);fill-rule:nonzero;"/>
                <path d="M1341.21,5657.95L1341.21,5661.92C1340.25,5673.95 1330.51,5683.58 1318.48,5683.58C1305.84,5683.58 1295.74,5672.99 1295.74,5660C1295.74,5647.01 1305.84,5636.3 1318.48,5636.3C1330.51,5636.3 1340.25,5645.93 1341.21,5657.95ZM1316.79,5726.37C1337.48,5726.37 1351.06,5713.52 1351.06,5691.74L1351.06,5628.38L1341.21,5628.38L1341.21,5639.66C1336.64,5631.62 1328.94,5626.58 1318.48,5626.58C1300.43,5626.58 1285.89,5641.47 1285.89,5660C1285.89,5678.53 1300.43,5693.42 1318.48,5693.42C1328.94,5693.42 1336.64,5688.38 1341.21,5680.45L1341.21,5692.82C1340.73,5708.1 1331.59,5716.53 1316.79,5716.53C1302.36,5716.53 1293.1,5710.87 1293.1,5710.87L1287.82,5719.17C1287.82,5719.17 1299.11,5726.37 1316.79,5726.37Z" style="fill:rgb(17,17,17);fill-rule:nonzero;"/>
                <path d="M1509.92,5698.12L1509.92,5601.68L1492,5601.68L1456.53,5668.66L1421.05,5601.68L1403.01,5601.68L1403.01,5698.12L1419.85,5698.12L1419.85,5633.54L1447.51,5685.61L1465.55,5685.61L1493.09,5633.54L1493.09,5698.12L1509.92,5698.12Z" style="fill:rgb(17,17,17);fill-rule:nonzero;"/>
                <path d="M1542.15,5628.25L1525.31,5628.25L1525.31,5698.12L1542.15,5698.12L1542.15,5628.25ZM1533.73,5601.68C1528.08,5601.68 1523.63,5606.25 1523.63,5611.78C1523.63,5617.43 1528.08,5622 1533.73,5622C1539.38,5622 1543.95,5617.43 1543.95,5611.78C1543.95,5606.25 1539.38,5601.68 1533.73,5601.68Z" style="fill:rgb(17,17,17);fill-rule:nonzero;"/>
                <path d="M1593.02,5643.89C1600.59,5643.89 1606.12,5649.18 1606.12,5657.23L1606.12,5698L1623.44,5698L1623.44,5654.95C1623.68,5638.84 1612.14,5626.57 1595.9,5626.57C1586.28,5626.57 1579.43,5630.78 1574.5,5637.63L1574.5,5628.37L1557.66,5628.37L1557.66,5698L1574.5,5698L1574.5,5663.13C1574.5,5653.15 1583.04,5643.89 1593.02,5643.89Z" style="fill:rgb(17,17,17);fill-rule:nonzero;"/>
                <path d="M1639.07,5674.67C1639.07,5688.5 1650.38,5699.8 1664.21,5699.8C1669.5,5699.8 1678.04,5698.24 1678.04,5698.24L1675.99,5682.25C1675.99,5682.25 1668.78,5683.09 1664.21,5683.09C1659.64,5683.09 1655.91,5679.24 1655.91,5674.67L1655.91,5645.09L1675.99,5645.09L1675.99,5628.37L1655.91,5628.37L1655.91,5609.85L1639.07,5611.66L1639.07,5628.37L1629.57,5628.37L1629.57,5645.09L1639.07,5645.09L1639.07,5674.67Z" style="fill:rgb(17,17,17);fill-rule:nonzero;"/>
                <path d="M1755.6,5611.3C1755.6,5611.3 1746.1,5599.99 1723.73,5599.99C1702.33,5599.99 1689.22,5614.06 1689.22,5628.97C1689.22,5631.02 1689.46,5632.94 1689.94,5634.99C1693.07,5647.85 1703.41,5653.03 1716.04,5656.15C1721.45,5657.47 1727.34,5658.56 1732.51,5660.24C1737.56,5661.92 1742.13,5664.33 1742.97,5670.58C1743.09,5671.06 1743.09,5671.42 1743.09,5671.9C1743.09,5678.64 1735.16,5683.57 1724.58,5683.57C1709.78,5683.57 1697.16,5675.75 1697.16,5675.75L1688.62,5689.58C1688.62,5689.58 1705.09,5699.8 1724.58,5699.8C1746.1,5699.8 1759.33,5686.1 1759.33,5671.66C1759.33,5670.58 1759.21,5669.5 1759.09,5668.42C1756.56,5650.62 1742.37,5645.33 1726.86,5641.96C1722.41,5641 1717.96,5640.16 1713.99,5638.71C1710.14,5637.27 1706.9,5635.47 1705.82,5631.14C1705.58,5630.3 1705.58,5629.57 1705.58,5628.85C1705.58,5621.88 1713.27,5616.23 1723.73,5616.23C1737.32,5616.23 1743.45,5622.12 1743.45,5622.12L1755.6,5611.3Z" style="fill:rgb(17,17,17);fill-rule:nonzero;"/>
                <path d="M1823.06,5661.8L1823.06,5664.57C1822.34,5674.79 1814.29,5683.09 1804.18,5683.09C1793.6,5683.09 1785.3,5674.07 1785.3,5663.25C1785.3,5652.42 1793.6,5643.4 1804.18,5643.4C1814.29,5643.4 1822.34,5651.58 1823.06,5661.8ZM1823.06,5691.99L1823.06,5698.12L1839.9,5698.12L1839.9,5628.37L1823.06,5628.37L1823.06,5634.51C1818.73,5629.57 1812.6,5626.57 1804.18,5626.57C1784.46,5626.57 1768.47,5643.04 1768.47,5663.25C1768.47,5683.45 1784.46,5699.8 1804.18,5699.8C1812.6,5699.8 1818.73,5696.92 1823.06,5691.99Z" style="fill:rgb(17,17,17);fill-rule:nonzero;"/>
                <path d="M1888.36,5643.89C1895.94,5643.89 1901.47,5649.18 1901.47,5657.23L1901.47,5698L1918.79,5698L1918.79,5654.95C1919.03,5638.84 1907.48,5626.57 1891.25,5626.57C1881.63,5626.57 1874.77,5630.78 1869.84,5637.63L1869.84,5628.37L1853.01,5628.37L1853.01,5698L1869.84,5698L1869.84,5663.13C1869.84,5653.15 1878.38,5643.89 1888.36,5643.89Z" style="fill:rgb(17,17,17);fill-rule:nonzero;"/>
                <path d="M1984.81,5634.03C1984.81,5634.03 1975.07,5626.57 1958.47,5626.57C1940.91,5626.57 1930.57,5637.75 1930.57,5649.06C1930.57,5650.62 1930.81,5652.18 1931.17,5653.75C1933.7,5663.37 1942,5667.82 1952.1,5670.1C1956.07,5670.94 1960.39,5671.54 1964.12,5672.75C1967.01,5673.59 1969.77,5674.55 1970.26,5677.8C1970.38,5679 1969.41,5679.84 1968.33,5680.68C1965.81,5682.61 1962.2,5683.57 1957.87,5683.57C1946.93,5683.57 1936.82,5678.4 1936.82,5678.4L1929.37,5692.83C1929.37,5692.83 1943.08,5699.8 1957.87,5699.8C1968.33,5699.8 1976.63,5695.96 1981.32,5690.78C1984.81,5687.06 1986.61,5682.61 1986.61,5678.04C1986.61,5677.2 1986.49,5676.23 1986.37,5675.39C1984.69,5664.21 1976.63,5659.16 1966.53,5656.51C1961.6,5655.19 1956.07,5654.59 1951.5,5653.03C1949.45,5652.3 1947.53,5651.82 1946.93,5649.66C1946.81,5649.42 1946.81,5649.18 1946.81,5648.94C1946.81,5647.85 1947.53,5646.89 1948.37,5646.05C1950.53,5644.01 1954.14,5642.8 1958.47,5642.8C1968.93,5642.8 1975.07,5647.13 1975.07,5647.13L1984.81,5634.03Z" style="fill:rgb(17,17,17);fill-rule:nonzero;"/>
                <path d="M2005.37,5686.22C2001.65,5686.22 1998.52,5689.35 1998.52,5693.07C1998.52,5696.79 2001.65,5699.8 2005.37,5699.8C2009.09,5699.8 2012.22,5696.79 2012.22,5693.07C2012.22,5689.35 2009.09,5686.22 2005.37,5686.22ZM2010.29,5601.8L2000.45,5601.8L2000.45,5675.78L2010.29,5675.78L2010.29,5601.8Z" style="fill:rgb(17,17,17);fill-rule:nonzero;"/>
            </g>
            <g transform="matrix(0.532531,0,0,0.532531,1794.5,-2451.98)">
                <path d="M904.138,5601.68L904.138,5618.63L914.961,5618.63L914.961,5698.12L931.917,5698.12L931.917,5601.68L904.138,5601.68Z" style="fill:rgb(17,17,17);fill-rule:nonzero;"/>
                <path d="M945.746,5689.7C945.746,5695.35 950.195,5699.8 955.847,5699.8C961.499,5699.8 966.069,5695.35 966.069,5689.7C966.069,5684.05 961.499,5679.6 955.847,5679.6C950.195,5679.6 945.746,5684.05 945.746,5689.7Z" style="fill:rgb(17,17,17);fill-rule:nonzero;"/>
                <path d="M991.443,5711.35C996.734,5701.73 1000.82,5693.19 1003.83,5682.01C1006.72,5671.42 1008.04,5660.6 1008.04,5649.9C1008.04,5639.19 1006.84,5628.49 1003.95,5617.79C1000.94,5606.49 996.854,5598.07 991.322,5588.45L979.898,5593.86C983.506,5603.24 985.791,5612.5 987.594,5621.64C989.518,5631.14 990.721,5640.52 990.721,5649.9C990.721,5659.28 989.398,5668.66 987.474,5678.16C985.67,5687.42 983.506,5696.68 979.898,5706.06L991.443,5711.35Z" style="fill:rgb(17,17,17);fill-rule:nonzero;"/>
                <path d="M904.144,5760.28L904.144,5838.2L933.459,5838.2C954.992,5838.2 972.517,5820.71 972.517,5799.24C972.517,5777.78 954.992,5760.28 933.459,5760.28L904.144,5760.28ZM912.12,5768.26L933.459,5768.26C950.608,5768.26 964.444,5782.15 964.444,5799.24C964.444,5816.34 950.608,5830.23 933.459,5830.23L912.12,5830.23L912.12,5768.26Z" style="fill:rgb(17,17,17);fill-rule:nonzero;"/>
                <path d="M1011.1,5788.33C1022.79,5788.33 1032.25,5798.07 1032.25,5810.06C1032.25,5822.04 1022.79,5831.69 1011.1,5831.69C999.407,5831.69 989.955,5822.04 989.955,5810.06C989.955,5798.07 999.407,5788.33 1011.1,5788.33ZM1011.1,5780.35C995.119,5780.35 982.174,5793.69 982.174,5810.06C982.174,5826.43 995.119,5839.66 1011.1,5839.66C1027.08,5839.66 1040.03,5826.43 1040.03,5810.06C1040.03,5793.69 1027.08,5780.35 1011.1,5780.35Z" style="fill:rgb(17,17,17);fill-rule:nonzero;"/>
                <path d="M1058.24,5791.53L1058.24,5781.81L1050.27,5781.81L1050.27,5838.2L1058.24,5838.2L1058.24,5806.22C1058.24,5803.88 1058.83,5801.55 1059.8,5799.41C1062.63,5793.1 1068.87,5788.62 1075.69,5788.62C1083.48,5788.62 1089.33,5794.47 1089.72,5802.16L1089.72,5838.2L1097.79,5838.2L1097.79,5802.36C1097.89,5789.98 1088.75,5780.35 1076.47,5780.35C1068.18,5780.35 1061.95,5784.73 1058.24,5791.44L1058.24,5791.53Z" style="fill:rgb(17,17,17);fill-rule:nonzero;"/>
                <rect x="1107.94" y="5760.28" width="7.976" height="29.894" style="fill:rgb(17,17,17);fill-rule:nonzero;"/>
                <path d="M1143.19,5781.81L1143.19,5766.91L1135.21,5768.27L1135.21,5781.81L1126.06,5781.81L1126.06,5789.79L1135.21,5789.79L1135.21,5822.63C1135.21,5832.08 1142.8,5839.66 1152.25,5839.66C1156.05,5839.66 1162.19,5838.21 1162.19,5838.21L1160.63,5831.01C1160.63,5831.01 1157.22,5831.69 1152.25,5831.69C1147.28,5831.69 1143.19,5827.69 1143.19,5822.73L1143.19,5789.79L1160.24,5789.79L1160.24,5781.81L1143.19,5781.81Z" style="fill:rgb(17,17,17);fill-rule:nonzero;"/>
                <path d="M1172.43,5834.22C1172.43,5837.23 1174.96,5839.66 1177.97,5839.66C1180.99,5839.66 1183.52,5837.23 1183.52,5834.22C1183.52,5831.2 1180.99,5828.67 1177.97,5828.67C1174.96,5828.67 1172.43,5831.2 1172.43,5834.22Z" style="fill:rgb(17,17,17);fill-rule:nonzero;"/>
            </g>
            <g transform="matrix(0.532531,0,0,0.532531,1794.5,-2214)">
                <path d="M925.543,5654.95C925.543,5654.95 929.391,5654.23 936.005,5654.23C944.423,5654.23 951.157,5660.72 951.157,5668.9C951.157,5677.08 944.423,5683.69 936.005,5683.69C927.587,5683.69 920.853,5677.08 920.853,5668.9L904.138,5668.9C904.138,5685.98 918.448,5699.8 936.005,5699.8C953.562,5699.8 967.873,5685.98 967.873,5668.9C967.873,5655.79 959.455,5644.73 947.67,5640.16L965.227,5618.75L965.227,5601.8L906.663,5601.8L906.663,5618.75L945.866,5618.75L925.543,5641.84L925.543,5654.95Z" style="fill:rgb(17,17,17);fill-rule:nonzero;"/>
                <path d="M981.582,5689.7C981.582,5695.35 986.031,5699.8 991.683,5699.8C997.335,5699.8 1001.9,5695.35 1001.9,5689.7C1001.9,5684.05 997.335,5679.6 991.683,5679.6C986.031,5679.6 981.582,5684.05 981.582,5689.7Z" style="fill:rgb(17,17,17);fill-rule:nonzero;"/>
                <path d="M1027.28,5711.35C1032.57,5701.73 1036.66,5693.19 1039.66,5682.01C1042.55,5671.42 1043.87,5660.6 1043.87,5649.9C1043.87,5639.19 1042.67,5628.49 1039.79,5617.79C1036.78,5606.49 1032.69,5598.07 1027.16,5588.45L1015.73,5593.86C1019.34,5603.24 1021.63,5612.5 1023.43,5621.64C1025.35,5631.14 1026.56,5640.52 1026.56,5649.9C1026.56,5659.28 1025.23,5668.66 1023.31,5678.16C1021.51,5687.42 1019.34,5696.68 1015.73,5706.06L1027.28,5711.35Z" style="fill:rgb(17,17,17);fill-rule:nonzero;"/>
                <path d="M939.792,5771.49L953.43,5805.48L926.251,5805.48L939.792,5771.49ZM944.273,5760.28L935.311,5760.28L904.138,5838.2L913.1,5838.2L923.036,5813.46L956.645,5813.46L966.581,5838.2L975.543,5838.2L944.273,5760.28Z" style="fill:rgb(17,17,17);fill-rule:nonzero;"/>
                <path d="M993.657,5810.74L993.657,5809.28C994.046,5797.68 1003.21,5788.33 1014.61,5788.33C1026.2,5788.33 1035.56,5798.17 1035.56,5810.06C1035.56,5821.94 1026.2,5831.69 1014.61,5831.69C1003.21,5831.69 994.046,5822.34 993.657,5810.74ZM993.657,5792.81L993.657,5781.81L985.681,5781.81L985.681,5859.83L993.657,5859.83L993.657,5827.31C997.749,5834.8 1004.86,5839.66 1014.61,5839.66C1030.59,5839.66 1043.53,5826.44 1043.53,5810.11C1043.53,5793.69 1030.59,5780.35 1014.61,5780.35C1004.86,5780.35 997.749,5785.31 993.657,5792.81Z" style="fill:rgb(17,17,17);fill-rule:nonzero;"/>
                <path d="M1061.26,5810.74L1061.26,5809.28C1061.65,5797.68 1070.81,5788.33 1082.21,5788.33C1093.81,5788.33 1103.16,5798.17 1103.16,5810.06C1103.16,5821.94 1093.81,5831.69 1082.21,5831.69C1070.81,5831.69 1061.65,5822.34 1061.26,5810.74ZM1061.26,5792.81L1061.26,5781.81L1053.29,5781.81L1053.29,5859.83L1061.26,5859.83L1061.26,5827.31C1065.36,5834.8 1072.47,5839.66 1082.21,5839.66C1098.19,5839.66 1111.14,5826.44 1111.14,5810.11C1111.14,5793.69 1098.19,5780.35 1082.21,5780.35C1072.47,5780.35 1065.36,5785.31 1061.26,5792.81Z" style="fill:rgb(17,17,17);fill-rule:nonzero;"/>
                <path d="M1128.87,5758.82L1120.89,5760.19L1120.89,5838.2L1128.87,5838.2L1128.87,5758.82Z" style="fill:rgb(17,17,17);fill-rule:nonzero;"/>
                <path d="M1166.67,5827.76L1146.61,5781.81L1137.45,5781.81L1162.09,5838.26L1157.32,5849.04C1156.15,5851.27 1153.81,5852.83 1151.18,5852.83C1149.33,5852.83 1147.48,5852.15 1146.22,5850.79L1140.27,5856.62C1143.2,5859.54 1147.09,5861.19 1151.18,5861.19C1157.22,5861.19 1162.58,5857.69 1165.11,5852.34L1195.9,5781.81L1186.74,5781.81L1166.67,5827.76Z" style="fill:rgb(17,17,17);fill-rule:nonzero;"/>
                <path d="M1250.25,5799.04C1252.79,5799.04 1255.52,5800.03 1257.46,5801.68C1260.58,5804.31 1264.97,5805.77 1269.06,5805.77C1271.3,5805.77 1273.54,5805.38 1275.39,5804.4C1278.99,5802.56 1281.81,5798.95 1281.81,5792.92L1275.01,5792.92C1275.01,5797.2 1272.67,5799.25 1268.87,5799.25C1266.33,5799.25 1263.6,5798.17 1261.65,5796.61C1258.54,5794.08 1254.25,5792.72 1250.25,5792.72C1247.91,5792.72 1245.77,5793.21 1243.82,5794.18C1240.22,5796.03 1237.6,5799.64 1237.6,5805.47L1243.82,5805.47C1243.82,5801.1 1246.35,5799.04 1250.25,5799.04Z" style="fill:rgb(17,17,17);fill-rule:nonzero;"/>
                <path d="M1300.32,5782.97C1300.32,5774.01 1307.53,5767.19 1316.4,5767.19C1326.05,5767.19 1332.09,5771.67 1332.87,5781.22C1332.87,5781.8 1332.97,5782.29 1332.97,5782.88C1332.97,5789.11 1329.95,5795.44 1323.61,5803.04C1317.18,5810.74 1307.24,5819.61 1293.32,5830.23L1293.32,5838.2L1341.92,5838.2L1341.92,5830.23L1304.9,5830.23C1315.82,5821.95 1324,5814.83 1329.65,5808.31C1337.93,5798.85 1341.33,5790.48 1341.33,5782.48C1341.33,5781.8 1341.24,5781.22 1341.24,5780.54C1340.17,5766.51 1330.63,5758.82 1316.4,5758.82C1302.86,5758.82 1292.05,5769.23 1292.05,5782.97L1300.32,5782.97Z" style="fill:rgb(17,17,17);fill-rule:nonzero;"/>
                <path d="M1357.32,5760.28L1353.52,5799.24L1360.05,5803.82C1363.46,5799.34 1368.82,5796.7 1374.56,5796.7C1384.5,5796.7 1392.68,5804.6 1392.68,5814.34C1392.68,5824.09 1384.5,5831.98 1374.56,5831.98C1368.13,5831.98 1362.19,5828.57 1358.98,5823.11L1352.06,5827.01C1356.74,5834.9 1365.31,5839.66 1374.56,5839.66C1388.88,5839.66 1400.66,5828.38 1400.66,5814.34C1400.66,5800.31 1388.88,5788.92 1374.56,5788.92C1370.08,5788.92 1365.8,5790.09 1362,5792.13L1364.24,5768.26L1397.45,5768.26L1397.45,5760.28L1357.32,5760.28Z" style="fill:rgb(17,17,17);fill-rule:nonzero;"/>
                <path d="M1427.26,5765.34C1432.72,5765.34 1437.2,5769.82 1437.2,5775.28C1437.2,5780.74 1432.72,5785.12 1427.26,5785.12C1421.8,5785.12 1417.41,5780.74 1417.41,5775.28C1417.41,5769.82 1421.8,5765.34 1427.26,5765.34ZM1427.26,5758.82C1418.19,5758.82 1410.8,5766.22 1410.8,5775.28C1410.8,5784.35 1418.19,5791.74 1427.26,5791.74C1436.33,5791.74 1443.81,5784.35 1443.81,5775.28C1443.81,5766.22 1436.33,5758.82 1427.26,5758.82ZM1466.71,5813.46C1472.17,5813.46 1476.56,5817.84 1476.56,5823.3C1476.56,5828.76 1472.17,5833.15 1466.71,5833.15C1461.26,5833.15 1456.87,5828.76 1456.87,5823.31C1456.87,5817.85 1461.26,5813.46 1466.71,5813.46ZM1474.32,5760.28L1465.74,5760.28L1419.75,5838.2L1428.33,5838.2L1474.32,5760.28ZM1466.71,5806.85C1457.65,5806.85 1450.35,5814.24 1450.35,5823.26C1450.35,5832.37 1457.65,5839.66 1466.71,5839.66C1475.78,5839.66 1483.17,5832.37 1483.17,5823.31C1483.17,5814.24 1475.78,5806.85 1466.71,5806.85Z" style="fill:rgb(17,17,17);fill-rule:nonzero;"/>
                <path d="M1542.01,5781.81L1542.01,5766.91L1534.03,5768.27L1534.03,5781.81L1524.88,5781.81L1524.88,5789.79L1534.03,5789.79L1534.03,5822.63C1534.03,5832.08 1541.62,5839.66 1551.07,5839.66C1554.87,5839.66 1561.01,5838.21 1561.01,5838.21L1559.45,5831.01C1559.45,5831.01 1556.04,5831.69 1551.07,5831.69C1546.1,5831.69 1542.01,5827.69 1542.01,5822.73L1542.01,5789.79L1559.06,5789.79L1559.06,5781.81L1542.01,5781.81Z" style="fill:rgb(17,17,17);fill-rule:nonzero;"/>
                <path d="M1579.42,5785.51L1579.42,5780.25L1571.25,5780.25L1571.25,5838.2L1579.42,5838.2L1579.51,5800.61C1579.51,5793.1 1585.55,5787.06 1593.06,5787.06C1595.59,5787.06 1600.26,5787.65 1600.26,5787.65L1600.26,5779.57C1600.26,5779.57 1595.49,5778.79 1593.06,5778.79C1586.92,5778.79 1582.34,5781.42 1579.42,5785.51L1579.42,5785.51Z" style="fill:rgb(17,17,17);fill-rule:nonzero;"/>
                <path d="M1646.74,5809.28L1646.74,5810.74C1646.35,5822.34 1637.19,5831.69 1625.79,5831.69C1614.2,5831.69 1604.84,5821.94 1604.84,5810.06C1604.84,5798.17 1614.2,5788.33 1625.79,5788.33C1637.19,5788.33 1646.35,5797.68 1646.74,5809.28ZM1646.74,5827.31L1646.74,5838.2L1654.72,5838.2L1654.72,5781.81L1646.74,5781.81L1646.74,5792.88C1642.65,5785.31 1635.54,5780.35 1625.79,5780.35C1609.81,5780.35 1596.87,5793.69 1596.87,5810.06C1596.87,5826.43 1609.81,5839.66 1625.79,5839.66C1635.54,5839.66 1642.65,5834.8 1646.74,5827.31Z" style="fill:rgb(17,17,17);fill-rule:nonzero;"/>
                <path d="M1718.92,5795.15C1713.75,5785.99 1704.21,5780.35 1693.88,5780.35C1677.9,5780.35 1664.96,5793.69 1664.96,5810.06C1664.96,5826.43 1677.9,5839.66 1693.88,5839.66C1704.21,5839.66 1713.75,5834.02 1718.92,5824.87L1712.19,5820.87C1708.39,5827.6 1701.48,5831.69 1693.88,5831.69C1682.19,5831.69 1672.74,5822.04 1672.74,5810.06C1672.74,5798.07 1682.19,5788.33 1693.88,5788.33C1701.48,5788.33 1708.39,5792.42 1712.19,5799.14L1718.92,5795.15Z" style="fill:rgb(17,17,17);fill-rule:nonzero;"/>
                <path d="M1737.13,5808.12L1737.13,5760.28L1729.16,5760.28L1729.16,5838.2L1737.13,5838.2L1737.13,5819.76L1745.32,5811.03L1766.85,5838.2L1777.17,5838.2L1750.87,5805.11L1772.4,5781.81L1761.58,5781.81L1737.13,5808.12Z" style="fill:rgb(17,17,17);fill-rule:nonzero;"/>
                <path d="M1796.85,5781.81L1788.87,5781.81L1788.87,5838.2L1796.85,5838.2L1796.85,5781.81ZM1792.86,5760.28C1789.84,5760.28 1787.31,5762.81 1787.31,5765.83C1787.31,5768.85 1789.84,5771.38 1792.86,5771.38C1795.88,5771.38 1798.41,5768.85 1798.41,5765.83C1798.41,5762.81 1795.88,5760.28 1792.86,5760.28L1792.86,5760.28Z" style="fill:rgb(17,17,17);fill-rule:nonzero;"/>
                <path d="M1816.53,5791.53L1816.53,5781.81L1808.55,5781.81L1808.55,5838.2L1816.53,5838.2L1816.53,5806.22C1816.53,5803.88 1817.11,5801.55 1818.09,5799.41C1820.91,5793.1 1827.15,5788.62 1833.97,5788.62C1841.77,5788.62 1847.61,5794.47 1848,5802.16L1848,5838.2L1856.08,5838.2L1856.08,5802.36C1856.17,5789.98 1847.03,5780.35 1834.75,5780.35C1826.47,5780.35 1820.23,5784.73 1816.53,5791.44L1816.53,5791.53Z" style="fill:rgb(17,17,17);fill-rule:nonzero;"/>
                <path d="M1910.55,5805.77L1910.55,5808.99C1909.77,5818.73 1901.87,5826.53 1892.13,5826.53C1881.89,5826.53 1873.71,5817.95 1873.71,5807.43C1873.71,5796.9 1881.89,5788.23 1892.13,5788.23C1901.87,5788.23 1909.77,5796.03 1910.55,5805.77ZM1890.76,5861.19C1907.52,5861.19 1918.52,5850.78 1918.52,5833.14L1918.52,5781.81L1910.55,5781.81L1910.55,5790.95C1906.84,5784.44 1900.61,5780.35 1892.13,5780.35C1877.51,5780.35 1865.73,5792.42 1865.73,5807.43C1865.73,5822.43 1877.51,5834.5 1892.13,5834.5C1900.61,5834.5 1906.84,5830.42 1910.55,5823.99L1910.55,5834.02C1910.15,5846.4 1902.75,5853.22 1890.76,5853.22C1879.07,5853.22 1871.57,5848.64 1871.57,5848.64L1867.29,5855.36C1867.29,5855.36 1876.44,5861.19 1890.76,5861.19Z" style="fill:rgb(17,17,17);fill-rule:nonzero;"/>
                <path d="M1929.25,5834.22C1929.25,5837.23 1931.78,5839.66 1934.8,5839.66C1937.81,5839.66 1940.34,5837.23 1940.34,5834.22C1940.34,5831.2 1937.81,5828.67 1934.8,5828.67C1931.78,5828.67 1929.25,5831.2 1929.25,5834.22Z" style="fill:rgb(17,17,17);fill-rule:nonzero;"/>
            </g>
            <g transform="matrix(0.532531,0,0,0.532531,2449.77,-2214)">
                <path d="M922.657,5662.53L952.36,5601.68L933.961,5601.68L904.138,5662.53L904.138,5679.48L943.942,5679.48L943.942,5698.12L960.898,5698.12L960.898,5679.48L970.398,5679.48L970.398,5662.53L960.898,5662.53L960.898,5640.52L943.942,5640.52L943.942,5662.53L922.657,5662.53Z" style="fill:rgb(17,17,17);fill-rule:nonzero;"/>
                <path d="M984.227,5689.7C984.227,5695.35 988.677,5699.8 994.329,5699.8C999.981,5699.8 1004.55,5695.35 1004.55,5689.7C1004.55,5684.05 999.981,5679.6 994.329,5679.6C988.677,5679.6 984.227,5684.05 984.227,5689.7Z" style="fill:rgb(17,17,17);fill-rule:nonzero;"/>
                <path d="M1029.92,5711.35C1035.21,5701.73 1039.3,5693.19 1042.31,5682.01C1045.2,5671.42 1046.52,5660.6 1046.52,5649.9C1046.52,5639.19 1045.32,5628.49 1042.43,5617.79C1039.42,5606.49 1035.34,5598.07 1029.8,5588.45L1018.38,5593.86C1021.99,5603.24 1024.27,5612.5 1026.08,5621.64C1028,5631.14 1029.2,5640.52 1029.2,5649.9C1029.2,5659.28 1027.88,5668.66 1025.96,5678.16C1024.15,5687.42 1021.99,5696.68 1018.38,5706.06L1029.92,5711.35Z" style="fill:rgb(17,17,17);fill-rule:nonzero;"/>
                <path d="M936.772,5825.48L913.295,5760.28L904.138,5760.28L932.193,5838.2L941.35,5838.2L964.828,5773.01L988.305,5838.2L997.462,5838.2L1025.52,5760.28L1016.36,5760.28L992.883,5825.48L969.406,5760.28L960.249,5760.28L936.772,5825.48Z" style="fill:rgb(17,17,17);fill-rule:nonzero;"/>
                <path d="M1070.82,5809.28L1070.82,5810.74C1070.43,5822.34 1061.27,5831.69 1049.87,5831.69C1038.28,5831.69 1028.92,5821.94 1028.92,5810.06C1028.92,5798.17 1038.28,5788.33 1049.87,5788.33C1061.27,5788.33 1070.43,5797.68 1070.82,5809.28ZM1070.82,5827.31L1070.82,5838.2L1078.8,5838.2L1078.8,5781.81L1070.82,5781.81L1070.82,5792.88C1066.73,5785.31 1059.62,5780.35 1049.87,5780.35C1033.89,5780.35 1020.95,5793.69 1020.95,5810.06C1020.95,5826.43 1033.89,5839.66 1049.87,5839.66C1059.62,5839.66 1066.73,5834.8 1070.82,5827.31Z" style="fill:rgb(17,17,17);fill-rule:nonzero;"/>
                <path d="M1099.06,5781.81L1091.08,5781.81L1091.08,5838.2L1099.06,5838.2L1099.06,5781.81ZM1095.07,5760.28C1092.06,5760.28 1089.53,5762.81 1089.53,5765.83C1089.53,5768.85 1092.06,5771.38 1095.07,5771.38C1098.09,5771.38 1100.62,5768.85 1100.62,5765.83C1100.62,5762.81 1098.09,5760.28 1095.07,5760.28L1095.07,5760.28Z" style="fill:rgb(17,17,17);fill-rule:nonzero;"/>
                <path d="M1127.89,5781.81L1127.89,5766.91L1119.92,5768.27L1119.92,5781.81L1110.76,5781.81L1110.76,5789.79L1119.92,5789.79L1119.92,5822.63C1119.92,5832.08 1127.51,5839.66 1136.95,5839.66C1140.75,5839.66 1146.89,5838.21 1146.89,5838.21L1145.33,5831.01C1145.33,5831.01 1141.92,5831.69 1136.95,5831.69C1131.99,5831.69 1127.89,5827.69 1127.89,5822.73L1127.89,5789.79L1144.94,5789.79L1144.94,5781.81L1127.89,5781.81Z" style="fill:rgb(17,17,17);fill-rule:nonzero;"/>
                <path d="M1196.49,5773.33L1196.49,5781.62L1188.69,5781.62L1188.69,5789.69L1196.49,5789.69L1196.49,5838.2L1204.56,5838.2L1204.56,5789.69L1218.49,5789.69L1218.49,5781.62L1204.56,5781.62L1204.56,5773.33C1204.56,5768.36 1208.46,5764.46 1213.43,5764.46C1217.71,5764.46 1219.66,5764.75 1219.66,5764.75L1220.54,5757.46C1220.54,5757.46 1217.71,5756.39 1213.43,5756.39C1204.08,5756.39 1196.49,5763.97 1196.49,5773.33Z" style="fill:rgb(17,17,17);fill-rule:nonzero;"/>
                <path d="M1248.02,5788.33C1259.71,5788.33 1269.16,5798.07 1269.16,5810.06C1269.16,5822.04 1259.71,5831.69 1248.02,5831.69C1236.32,5831.69 1226.87,5822.04 1226.87,5810.06C1226.87,5798.07 1236.32,5788.33 1248.02,5788.33ZM1248.02,5780.35C1232.03,5780.35 1219.09,5793.69 1219.09,5810.06C1219.09,5826.43 1232.03,5839.66 1248.02,5839.66C1264,5839.66 1276.94,5826.43 1276.94,5810.06C1276.94,5793.69 1264,5780.35 1248.02,5780.35Z" style="fill:rgb(17,17,17);fill-rule:nonzero;"/>
                <path d="M1295.35,5785.51L1295.35,5780.25L1287.18,5780.25L1287.18,5838.2L1295.35,5838.2L1295.45,5800.61C1295.45,5793.1 1301.49,5787.06 1308.99,5787.06C1311.52,5787.06 1316.2,5787.65 1316.2,5787.65L1316.2,5779.57C1316.2,5779.57 1311.43,5778.79 1308.99,5778.79C1302.85,5778.79 1298.28,5781.42 1295.35,5785.51L1295.35,5785.51Z" style="fill:rgb(17,17,17);fill-rule:nonzero;"/>
                <path d="M1444.5,5838.31L1444.5,5760.18L1429.99,5760.18L1401.25,5814.44L1372.51,5760.18L1357.9,5760.18L1357.9,5838.31L1371.54,5838.31L1371.54,5785.99L1393.94,5828.18L1408.56,5828.18L1430.86,5785.99L1430.86,5838.31L1444.5,5838.31Z" style="fill:rgb(17,17,17);fill-rule:nonzero;"/>
                <path d="M1470.71,5781.71L1457.07,5781.71L1457.07,5838.31L1470.71,5838.31L1470.71,5781.71ZM1463.89,5760.18C1459.31,5760.18 1455.7,5763.88 1455.7,5768.36C1455.7,5772.94 1459.31,5776.64 1463.89,5776.64C1468.47,5776.64 1472.17,5772.94 1472.17,5768.36C1472.17,5763.88 1468.47,5760.18 1463.89,5760.18Z" style="fill:rgb(17,17,17);fill-rule:nonzero;"/>
                <path d="M1512.01,5794.37C1518.15,5794.37 1522.63,5798.66 1522.63,5805.19L1522.63,5838.21L1536.66,5838.21L1536.66,5803.34C1536.85,5790.28 1527.5,5780.35 1514.35,5780.35C1506.56,5780.35 1501,5783.76 1497.01,5789.31L1497.01,5781.81L1483.37,5781.81L1483.37,5838.21L1497.01,5838.21L1497.01,5809.96C1497.01,5801.87 1503.93,5794.37 1512.01,5794.37Z" style="fill:rgb(17,17,17);fill-rule:nonzero;"/>
                <path d="M1549.42,5819.31C1549.42,5830.51 1558.58,5839.67 1569.78,5839.67C1574.07,5839.67 1580.98,5838.4 1580.98,5838.4L1579.33,5825.45C1579.33,5825.45 1573.48,5826.13 1569.78,5826.13C1566.08,5826.13 1563.06,5823.01 1563.06,5819.31L1563.06,5795.35L1579.33,5795.35L1579.33,5781.81L1563.06,5781.81L1563.06,5766.81L1549.42,5768.27L1549.42,5781.81L1541.72,5781.81L1541.72,5795.35L1549.42,5795.35L1549.42,5819.31Z" style="fill:rgb(17,17,17);fill-rule:nonzero;"/>
                <path d="M1643.91,5767.97C1643.91,5767.97 1636.22,5758.82 1618.1,5758.82C1600.76,5758.82 1590.14,5770.21 1590.14,5782.29C1590.14,5783.95 1590.33,5785.51 1590.72,5787.16C1593.26,5797.59 1601.63,5801.78 1611.86,5804.31C1616.25,5805.38 1621.02,5806.26 1625.21,5807.62C1629.3,5808.99 1633,5810.93 1633.68,5816C1633.78,5816.39 1633.78,5816.68 1633.78,5817.07C1633.78,5822.53 1627.35,5826.52 1618.78,5826.52C1606.8,5826.52 1596.57,5820.19 1596.57,5820.19L1589.65,5831.39C1589.65,5831.39 1603,5839.67 1618.78,5839.67C1636.22,5839.67 1646.93,5828.57 1646.93,5816.88C1646.93,5816 1646.84,5815.12 1646.74,5814.25C1644.69,5799.83 1633.2,5795.54 1620.63,5792.82C1617.03,5792.03 1613.42,5791.35 1610.21,5790.18C1607.09,5789.02 1604.46,5787.55 1603.58,5784.05C1603.39,5783.36 1603.39,5782.78 1603.39,5782.2C1603.39,5776.55 1609.62,5771.97 1618.1,5771.97C1629.11,5771.97 1634.07,5776.74 1634.07,5776.74L1643.91,5767.97Z" style="fill:rgb(17,17,17);fill-rule:nonzero;"/>
                <path d="M1698.66,5808.89L1698.66,5811.13C1698.08,5819.41 1691.55,5826.13 1683.37,5826.13C1674.79,5826.13 1668.07,5818.82 1668.07,5810.06C1668.07,5801.29 1674.79,5793.98 1683.37,5793.98C1691.55,5793.98 1698.08,5800.61 1698.66,5808.89ZM1698.66,5833.34L1698.66,5838.31L1712.3,5838.31L1712.3,5781.81L1698.66,5781.81L1698.66,5786.78C1695.15,5782.78 1690.18,5780.35 1683.37,5780.35C1667.39,5780.35 1654.43,5793.69 1654.43,5810.06C1654.43,5826.42 1667.39,5839.67 1683.37,5839.67C1690.18,5839.67 1695.15,5837.33 1698.66,5833.34Z" style="fill:rgb(17,17,17);fill-rule:nonzero;"/>
                <path d="M1751.65,5794.37C1757.79,5794.37 1762.27,5798.66 1762.27,5805.19L1762.27,5838.21L1776.3,5838.21L1776.3,5803.34C1776.5,5790.28 1767.14,5780.35 1753.99,5780.35C1746.2,5780.35 1740.65,5783.76 1736.65,5789.31L1736.65,5781.81L1723.01,5781.81L1723.01,5838.21L1736.65,5838.21L1736.65,5809.96C1736.65,5801.87 1743.57,5794.37 1751.65,5794.37Z" style="fill:rgb(17,17,17);fill-rule:nonzero;"/>
                <path d="M1829.88,5786.39C1829.88,5786.39 1821.99,5780.35 1808.55,5780.35C1794.32,5780.35 1785.94,5789.4 1785.94,5798.56C1785.94,5799.83 1786.14,5801.1 1786.43,5802.36C1788.48,5810.15 1795.2,5813.76 1803.38,5815.61C1806.6,5816.29 1810.1,5816.78 1813.12,5817.75C1815.46,5818.44 1817.7,5819.21 1818.09,5821.84C1818.19,5822.82 1817.41,5823.5 1816.53,5824.18C1814.49,5825.74 1811.57,5826.52 1808.06,5826.52C1799.19,5826.52 1791.01,5822.33 1791.01,5822.33L1784.97,5834.02C1784.97,5834.02 1796.08,5839.67 1808.06,5839.67C1816.53,5839.67 1823.26,5836.55 1827.05,5832.36C1829.88,5829.35 1831.34,5825.74 1831.34,5822.04C1831.34,5821.36 1831.24,5820.58 1831.14,5819.9C1829.78,5810.84 1823.26,5806.74 1815.07,5804.6C1811.08,5803.53 1806.6,5803.04 1802.89,5801.78C1801.24,5801.19 1799.68,5800.8 1799.19,5799.05C1799.1,5798.85 1799.1,5798.66 1799.1,5798.47C1799.1,5797.59 1799.68,5796.81 1800.36,5796.13C1802.12,5794.47 1805.04,5793.5 1808.55,5793.5C1817.02,5793.5 1821.99,5797 1821.99,5797L1829.88,5786.39Z" style="fill:rgb(17,17,17);fill-rule:nonzero;"/>
                <path d="M1942.88,5838.4L1942.88,5760.28L1929.24,5760.28L1929.24,5818.44L1889.2,5760.28L1872.64,5760.28L1872.64,5838.4L1886.28,5838.4L1886.28,5780.15L1926.42,5838.4L1942.88,5838.4Z" style="fill:rgb(17,17,17);fill-rule:nonzero;"/>
                <path d="M1995.1,5804.99L1968.21,5804.99C1968.99,5802.65 1970.16,5800.41 1971.91,5798.66C1975.13,5795.44 1978.83,5793.89 1982.43,5793.89C1984.09,5793.89 1985.74,5794.18 1987.21,5794.86C1991,5796.52 1994.02,5800.12 1995.1,5804.99ZM1962.36,5789.11C1957.1,5794.66 1954.18,5802.17 1954.18,5809.96C1954.18,5826.42 1967.04,5839.67 1983.02,5839.67C1998.99,5839.67 2005.23,5833.83 2005.23,5833.83L1999.38,5822.62C1999.38,5822.62 1991.59,5825.94 1983.02,5825.94C1976.1,5825.94 1970.26,5821.36 1968.21,5814.93L2009.12,5814.93L2009.12,5808.99C2009.03,5795.54 2001.72,5786.29 1992.56,5782.39C1989.35,5781.03 1985.84,5780.35 1982.33,5780.35C1975.52,5780.35 1968.4,5782.98 1962.36,5789.02L1962.36,5789.11Z" style="fill:rgb(17,17,17);fill-rule:nonzero;"/>
                <path d="M2037.18,5798.37L2025.98,5781.81L2010.1,5781.81L2029.29,5810.06L2010.1,5838.31L2025.88,5838.31L2037.18,5821.65L2048.48,5838.31L2064.26,5838.31L2045.07,5809.96L2064.26,5781.81L2048.48,5781.81L2037.18,5798.37Z" style="fill:rgb(17,17,17);fill-rule:nonzero;"/>
                <path d="M2076.15,5819.31C2076.15,5830.51 2085.3,5839.67 2096.51,5839.67C2100.79,5839.67 2107.71,5838.4 2107.71,5838.4L2106.05,5825.45C2106.05,5825.45 2100.21,5826.13 2096.51,5826.13C2092.8,5826.13 2089.78,5823.01 2089.78,5819.31L2089.78,5795.35L2106.05,5795.35L2106.05,5781.81L2089.78,5781.81L2089.78,5766.81L2076.15,5768.27L2076.15,5781.81L2068.45,5781.81L2068.45,5795.35L2076.15,5795.35L2076.15,5819.31Z" style="fill:rgb(17,17,17);fill-rule:nonzero;"/>
                <path d="M2118.82,5834.22C2118.82,5837.23 2121.35,5839.66 2124.37,5839.66C2127.38,5839.66 2129.91,5837.23 2129.91,5834.22C2129.91,5831.2 2127.38,5828.67 2124.37,5828.67C2121.35,5828.67 2118.82,5831.2 2118.82,5834.22Z" style="fill:rgb(17,17,17);fill-rule:nonzero;"/>
            </g>
            <g transform="matrix(0.532531,0,0,0.532531,2025.26,-2451.98)">
                <path d="M905.34,5698L967.512,5698L967.512,5681.16L931.195,5681.16C943.22,5671.9 951.638,5664.09 957.29,5656.99C964.746,5647.61 967.752,5639.19 967.752,5630.78C967.752,5620.56 964.025,5613.1 958.373,5608.05C952.48,5602.76 944.303,5599.99 935.765,5599.99C926.986,5599.99 918.929,5603.48 913.157,5609.49C907.625,5615.15 904.138,5623.08 904.138,5632.1L920.853,5632.1C920.853,5627.77 922.537,5624.04 925.182,5621.28C927.828,5618.51 931.676,5616.83 935.765,5616.83C939.974,5616.83 944.062,5617.91 947.069,5620.56C949.594,5622.84 951.037,5626.21 951.037,5630.78C951.037,5637.51 947.429,5644.01 939.853,5652.18C932.277,5660.36 921.094,5669.74 905.34,5681.16L905.34,5698Z" style="fill:rgb(17,17,17);fill-rule:nonzero;"/>
                <path d="M981.582,5689.7C981.582,5695.35 986.031,5699.8 991.683,5699.8C997.335,5699.8 1001.9,5695.35 1001.9,5689.7C1001.9,5684.05 997.335,5679.6 991.683,5679.6C986.031,5679.6 981.582,5684.05 981.582,5689.7Z" style="fill:rgb(17,17,17);fill-rule:nonzero;"/>
                <path d="M1027.28,5711.35C1032.57,5701.73 1036.66,5693.19 1039.66,5682.01C1042.55,5671.42 1043.87,5660.6 1043.87,5649.9C1043.87,5639.19 1042.67,5628.49 1039.79,5617.79C1036.78,5606.49 1032.69,5598.07 1027.16,5588.45L1015.73,5593.86C1019.34,5603.24 1021.63,5612.5 1023.43,5621.64C1025.35,5631.14 1026.56,5640.52 1026.56,5649.9C1026.56,5659.28 1025.23,5668.66 1023.31,5678.16C1021.51,5687.42 1019.34,5696.68 1015.73,5706.06L1027.28,5711.35Z" style="fill:rgb(17,17,17);fill-rule:nonzero;"/>
                <path d="M912.12,5800.22L912.12,5760.28L904.144,5760.28L904.144,5838.2L912.12,5838.2L912.12,5811.97L923.712,5799.54L954.398,5838.2L964.627,5838.2L929.265,5793.61L960.243,5760.28L949.332,5760.28L912.12,5800.22Z" style="fill:rgb(17,17,17);fill-rule:nonzero;"/>
                <path d="M1007.1,5805.68L969.692,5805.68C970.472,5801.39 972.42,5797.39 975.44,5794.27C979.337,5790.38 984.5,5788.23 989.663,5788.23C993.072,5788.23 996.384,5789.2 999.209,5791.06C1003.4,5793.79 1006.32,5798.66 1007.1,5805.68ZM969.79,5788.72C964.44,5794.27 961.522,5801.88 961.522,5809.77C961.522,5826.33 973.492,5839.66 989.468,5839.66C1005.44,5839.66 1012.85,5833.44 1012.85,5833.44L1007.78,5826.91C1007.78,5826.91 1001.16,5831.69 989.468,5831.69C979.044,5831.69 971.251,5823.99 969.595,5813.75L1015.28,5813.75L1015.28,5808.89C1015.09,5796.71 1010.12,5788.82 1003.59,5784.44C999.502,5781.71 994.631,5780.35 989.76,5780.35C982.551,5780.35 975.148,5783.17 969.79,5788.72Z" style="fill:rgb(17,17,17);fill-rule:nonzero;"/>
                <path d="M1070.62,5805.68L1033.21,5805.68C1033.99,5801.39 1035.93,5797.39 1038.95,5794.27C1042.85,5790.38 1048.02,5788.23 1053.18,5788.23C1056.59,5788.23 1059.9,5789.2 1062.72,5791.06C1066.91,5793.79 1069.84,5798.66 1070.62,5805.68ZM1033.31,5788.72C1027.95,5794.27 1025.04,5801.88 1025.04,5809.77C1025.04,5826.33 1037.01,5839.66 1052.98,5839.66C1068.96,5839.66 1076.36,5833.44 1076.36,5833.44L1071.3,5826.91C1071.3,5826.91 1064.67,5831.69 1052.98,5831.69C1042.56,5831.69 1034.77,5823.99 1033.11,5813.75L1078.8,5813.75L1078.8,5808.89C1078.6,5796.71 1073.63,5788.82 1067.11,5784.44C1063.02,5781.71 1058.15,5780.35 1053.28,5780.35C1046.07,5780.35 1038.66,5783.17 1033.31,5788.72Z" style="fill:rgb(17,17,17);fill-rule:nonzero;"/>
                <path d="M1097.02,5810.74L1097.02,5809.28C1097.4,5797.68 1106.56,5788.33 1117.96,5788.33C1129.56,5788.33 1138.92,5798.17 1138.92,5810.06C1138.92,5821.94 1129.56,5831.69 1117.96,5831.69C1106.56,5831.69 1097.4,5822.34 1097.02,5810.74ZM1097.02,5792.81L1097.02,5781.81L1089.04,5781.81L1089.04,5859.83L1097.02,5859.83L1097.02,5827.31C1101.11,5834.8 1108.22,5839.66 1117.96,5839.66C1133.95,5839.66 1146.89,5826.44 1146.89,5810.11C1146.89,5793.69 1133.95,5780.35 1117.96,5780.35C1108.22,5780.35 1101.11,5785.31 1097.02,5792.81Z" style="fill:rgb(17,17,17);fill-rule:nonzero;"/>
                <path d="M1197.74,5781.81L1189.77,5781.81L1189.77,5838.2L1197.74,5838.2L1197.74,5781.81ZM1193.75,5760.28C1190.74,5760.28 1188.21,5762.81 1188.21,5765.83C1188.21,5768.85 1190.74,5771.38 1193.75,5771.38C1196.77,5771.38 1199.3,5768.85 1199.3,5765.83C1199.3,5762.81 1196.77,5760.28 1193.75,5760.28L1193.75,5760.28Z" style="fill:rgb(17,17,17);fill-rule:nonzero;"/>
                <path d="M1226.58,5781.81L1226.58,5766.91L1218.6,5768.27L1218.6,5781.81L1209.44,5781.81L1209.44,5789.79L1218.6,5789.79L1218.6,5822.63C1218.6,5832.08 1226.19,5839.66 1235.64,5839.66C1239.44,5839.66 1245.57,5838.21 1245.57,5838.21L1244.02,5831.01C1244.02,5831.01 1240.61,5831.69 1235.64,5831.69C1230.67,5831.69 1226.58,5827.69 1226.58,5822.73L1226.58,5789.79L1243.62,5789.79L1243.62,5781.81L1226.58,5781.81Z" style="fill:rgb(17,17,17);fill-rule:nonzero;"/>
                <path d="M1336.77,5809.28L1336.77,5810.74C1336.38,5822.34 1327.22,5831.69 1315.82,5831.69C1304.22,5831.69 1294.87,5821.94 1294.87,5810.06C1294.87,5798.17 1304.22,5788.33 1315.82,5788.33C1327.22,5788.33 1336.38,5797.68 1336.77,5809.28ZM1336.77,5827.31L1336.77,5838.2L1344.74,5838.2L1344.74,5781.81L1336.77,5781.81L1336.77,5792.88C1332.67,5785.31 1325.56,5780.35 1315.82,5780.35C1299.84,5780.35 1286.89,5793.69 1286.89,5810.06C1286.89,5826.43 1299.84,5839.66 1315.82,5839.66C1325.56,5839.66 1332.67,5834.8 1336.77,5827.31Z" style="fill:rgb(17,17,17);fill-rule:nonzero;"/>
                <path d="M1396.09,5781.81L1380.31,5825.47L1364.62,5781.81L1355.46,5781.81L1375.73,5838.2L1384.88,5838.2L1400.66,5794.45L1416.35,5838.2L1425.51,5838.2L1445.87,5781.81L1436.71,5781.81L1420.93,5825.47L1405.24,5781.81L1396.09,5781.81Z" style="fill:rgb(17,17,17);fill-rule:nonzero;"/>
                <path d="M1499.16,5809.28L1499.16,5810.74C1498.77,5822.34 1489.61,5831.69 1478.21,5831.69C1466.61,5831.69 1457.26,5821.94 1457.26,5810.06C1457.26,5798.17 1466.61,5788.33 1478.21,5788.33C1489.61,5788.33 1498.77,5797.68 1499.16,5809.28ZM1499.16,5827.31L1499.16,5838.2L1507.13,5838.2L1507.13,5781.81L1499.16,5781.81L1499.16,5792.88C1495.07,5785.31 1487.95,5780.35 1478.21,5780.35C1462.23,5780.35 1449.28,5793.69 1449.28,5810.06C1449.28,5826.43 1462.23,5839.66 1478.21,5839.66C1487.95,5839.66 1495.07,5834.8 1499.16,5827.31Z" style="fill:rgb(17,17,17);fill-rule:nonzero;"/>
                <path d="M1545.42,5827.76L1525.36,5781.81L1516.2,5781.81L1540.85,5838.26L1536.07,5849.04C1534.9,5851.27 1532.57,5852.83 1529.94,5852.83C1528.09,5852.83 1526.23,5852.15 1524.97,5850.79L1519.03,5856.62C1521.95,5859.54 1525.85,5861.19 1529.94,5861.19C1535.98,5861.19 1541.33,5857.69 1543.87,5852.34L1574.65,5781.81L1565.49,5781.81L1545.42,5827.76Z" style="fill:rgb(17,17,17);fill-rule:nonzero;"/>
                <path d="M1624.14,5773.33L1624.14,5781.62L1616.35,5781.62L1616.35,5789.69L1624.14,5789.69L1624.14,5838.2L1632.22,5838.2L1632.22,5789.69L1646.15,5789.69L1646.15,5781.62L1632.22,5781.62L1632.22,5773.33C1632.22,5768.36 1636.11,5764.46 1641.08,5764.46C1645.37,5764.46 1647.32,5764.75 1647.32,5764.75L1648.19,5757.46C1648.19,5757.46 1645.37,5756.39 1641.08,5756.39C1631.73,5756.39 1624.14,5763.97 1624.14,5773.33Z" style="fill:rgb(17,17,17);fill-rule:nonzero;"/>
                <path d="M1664.17,5785.51L1664.17,5780.25L1656,5780.25L1656,5838.2L1664.17,5838.2L1664.27,5800.61C1664.27,5793.1 1670.31,5787.06 1677.81,5787.06C1680.34,5787.06 1685.02,5787.65 1685.02,5787.65L1685.02,5779.57C1685.02,5779.57 1680.24,5778.79 1677.81,5778.79C1671.67,5778.79 1667.09,5781.42 1664.17,5785.51L1664.17,5785.51Z" style="fill:rgb(17,17,17);fill-rule:nonzero;"/>
                <path d="M1715.71,5788.33C1727.4,5788.33 1736.85,5798.07 1736.85,5810.06C1736.85,5822.04 1727.4,5831.69 1715.71,5831.69C1704.01,5831.69 1694.56,5822.04 1694.56,5810.06C1694.56,5798.07 1704.01,5788.33 1715.71,5788.33ZM1715.71,5780.35C1699.73,5780.35 1686.78,5793.69 1686.78,5810.06C1686.78,5826.43 1699.73,5839.66 1715.71,5839.66C1731.69,5839.66 1744.63,5826.43 1744.63,5810.06C1744.63,5793.69 1731.69,5780.35 1715.71,5780.35Z" style="fill:rgb(17,17,17);fill-rule:nonzero;"/>
                <path d="M1801.04,5794.27C1798.12,5786.09 1790.53,5780.35 1781.07,5780.35C1772.79,5780.35 1766.55,5784.73 1762.85,5791.44L1762.85,5781.81L1754.88,5781.81L1754.88,5838.2L1762.85,5838.2L1762.85,5806.22C1762.85,5803.88 1763.43,5801.55 1764.41,5799.41C1767.24,5793.1 1773.47,5788.62 1780.3,5788.62C1788.09,5788.62 1793.94,5794.47 1794.33,5802.16L1794.33,5838.2L1802.4,5838.2L1802.4,5806.15C1802.4,5803.82 1802.89,5801.48 1803.86,5799.34C1806.69,5793.1 1812.93,5788.62 1819.75,5788.62C1827.54,5788.62 1833.49,5794.47 1833.88,5802.16L1833.88,5838.2L1841.86,5838.2L1841.86,5802.36C1841.95,5789.98 1832.9,5780.35 1820.62,5780.35C1811.17,5780.35 1804.55,5786.09 1801.04,5794.27Z" style="fill:rgb(17,17,17);fill-rule:nonzero;"/>
                <path d="M1891.63,5758.82L1883.66,5760.19L1883.66,5838.2L1891.63,5838.2L1891.63,5758.82Z" style="fill:rgb(17,17,17);fill-rule:nonzero;"/>
                <path d="M1930.31,5788.33C1942.01,5788.33 1951.46,5798.07 1951.46,5810.06C1951.46,5822.04 1942.01,5831.69 1930.31,5831.69C1918.62,5831.69 1909.17,5822.04 1909.17,5810.06C1909.17,5798.07 1918.62,5788.33 1930.31,5788.33ZM1930.31,5780.35C1914.33,5780.35 1901.39,5793.69 1901.39,5810.06C1901.39,5826.43 1914.33,5839.66 1930.31,5839.66C1946.3,5839.66 1959.24,5826.43 1959.24,5810.06C1959.24,5793.69 1946.3,5780.35 1930.31,5780.35Z" style="fill:rgb(17,17,17);fill-rule:nonzero;"/>
                <path d="M1977.46,5791.53L1977.46,5781.81L1969.48,5781.81L1969.48,5838.2L1977.46,5838.2L1977.46,5806.22C1977.46,5803.88 1978.04,5801.55 1979.02,5799.41C1981.84,5793.1 1988.08,5788.62 1994.9,5788.62C2002.7,5788.62 2008.55,5794.47 2008.93,5802.16L2008.93,5838.2L2017.01,5838.2L2017.01,5802.36C2017.11,5789.98 2007.96,5780.35 1995.68,5780.35C1987.4,5780.35 1981.16,5784.73 1977.46,5791.44L1977.46,5791.53Z" style="fill:rgb(17,17,17);fill-rule:nonzero;"/>
                <path d="M2071.48,5805.77L2071.48,5808.99C2070.7,5818.73 2062.8,5826.53 2053.06,5826.53C2042.83,5826.53 2034.64,5817.95 2034.64,5807.43C2034.64,5796.9 2042.83,5788.23 2053.06,5788.23C2062.8,5788.23 2070.7,5796.03 2071.48,5805.77ZM2051.69,5861.19C2068.45,5861.19 2079.45,5850.78 2079.45,5833.14L2079.45,5781.81L2071.48,5781.81L2071.48,5790.95C2067.77,5784.44 2061.54,5780.35 2053.06,5780.35C2038.44,5780.35 2026.66,5792.42 2026.66,5807.43C2026.66,5822.43 2038.44,5834.5 2053.06,5834.5C2061.54,5834.5 2067.77,5830.42 2071.48,5823.99L2071.48,5834.02C2071.09,5846.4 2063.68,5853.22 2051.69,5853.22C2040,5853.22 2032.5,5848.64 2032.5,5848.64L2028.22,5855.36C2028.22,5855.36 2037.37,5861.19 2051.69,5861.19Z" style="fill:rgb(17,17,17);fill-rule:nonzero;"/>
                <path d="M2138.88,5781.81L2138.88,5766.91L2130.9,5768.27L2130.9,5781.81L2121.74,5781.81L2121.74,5789.79L2130.9,5789.79L2130.9,5822.63C2130.9,5832.08 2138.49,5839.66 2147.93,5839.66C2151.73,5839.66 2157.87,5838.21 2157.87,5838.21L2156.31,5831.01C2156.31,5831.01 2152.9,5831.69 2147.93,5831.69C2142.97,5831.69 2138.88,5827.69 2138.88,5822.73L2138.88,5789.79L2155.92,5789.79L2155.92,5781.81L2138.88,5781.81Z" style="fill:rgb(17,17,17);fill-rule:nonzero;"/>
                <path d="M2208.33,5805.68L2170.93,5805.68C2171.7,5801.39 2173.65,5797.39 2176.67,5794.27C2180.57,5790.38 2185.73,5788.23 2190.89,5788.23C2194.3,5788.23 2197.62,5789.2 2200.44,5791.06C2204.63,5793.79 2207.55,5798.66 2208.33,5805.68ZM2171.02,5788.72C2165.67,5794.27 2162.75,5801.88 2162.75,5809.77C2162.75,5826.33 2174.72,5839.66 2190.7,5839.66C2206.68,5839.66 2214.08,5833.44 2214.08,5833.44L2209.01,5826.91C2209.01,5826.91 2202.39,5831.69 2190.7,5831.69C2180.28,5831.69 2172.48,5823.99 2170.83,5813.75L2216.52,5813.75L2216.52,5808.89C2216.32,5796.71 2211.35,5788.82 2204.83,5784.44C2200.73,5781.71 2195.86,5780.35 2190.99,5780.35C2183.78,5780.35 2176.38,5783.17 2171.02,5788.72Z" style="fill:rgb(17,17,17);fill-rule:nonzero;"/>
                <path d="M2241.95,5802.97L2227.43,5781.81L2217.59,5781.81L2237.08,5810.06L2217.69,5838.2L2227.43,5838.2L2241.95,5817.14L2256.46,5838.2L2266.3,5838.2L2246.82,5810.06L2266.3,5781.81L2256.56,5781.81L2241.95,5802.97Z" style="fill:rgb(17,17,17);fill-rule:nonzero;"/>
                <path d="M2290.06,5781.81L2290.06,5766.91L2282.09,5768.27L2282.09,5781.81L2272.93,5781.81L2272.93,5789.79L2282.09,5789.79L2282.09,5822.63C2282.09,5832.08 2289.68,5839.66 2299.12,5839.66C2302.92,5839.66 2309.06,5838.21 2309.06,5838.21L2307.5,5831.01C2307.5,5831.01 2304.09,5831.69 2299.12,5831.69C2294.16,5831.69 2290.06,5827.69 2290.06,5822.73L2290.06,5789.79L2307.11,5789.79L2307.11,5781.81L2290.06,5781.81Z" style="fill:rgb(17,17,17);fill-rule:nonzero;"/>
                <path d="M2358.84,5810.74L2358.84,5809.28C2359.23,5797.68 2368.39,5788.33 2379.79,5788.33C2391.39,5788.33 2400.74,5798.17 2400.74,5810.06C2400.74,5821.94 2391.39,5831.69 2379.79,5831.69C2368.39,5831.69 2359.23,5822.34 2358.84,5810.74ZM2358.84,5792.81L2358.84,5781.81L2350.86,5781.81L2350.86,5859.83L2358.84,5859.83L2358.84,5827.31C2362.93,5834.8 2370.05,5839.66 2379.79,5839.66C2395.77,5839.66 2408.72,5826.44 2408.72,5810.11C2408.72,5793.69 2395.77,5780.35 2379.79,5780.35C2370.05,5780.35 2362.93,5785.31 2358.84,5792.81Z" style="fill:rgb(17,17,17);fill-rule:nonzero;"/>
                <path d="M2467.86,5809.28L2467.86,5810.74C2467.47,5822.34 2458.31,5831.69 2446.91,5831.69C2435.31,5831.69 2425.96,5821.94 2425.96,5810.06C2425.96,5798.17 2435.31,5788.33 2446.91,5788.33C2458.31,5788.33 2467.47,5797.68 2467.86,5809.28ZM2467.86,5827.31L2467.86,5838.2L2475.84,5838.2L2475.84,5781.81L2467.86,5781.81L2467.86,5792.88C2463.77,5785.31 2456.65,5780.35 2446.91,5780.35C2430.93,5780.35 2417.98,5793.69 2417.98,5810.06C2417.98,5826.43 2430.93,5839.66 2446.91,5839.66C2456.65,5839.66 2463.77,5834.8 2467.86,5827.31Z" style="fill:rgb(17,17,17);fill-rule:nonzero;"/>
                <path d="M2494.74,5785.51L2494.74,5780.25L2486.56,5780.25L2486.56,5838.2L2494.74,5838.2L2494.83,5800.61C2494.83,5793.1 2500.87,5787.06 2508.37,5787.06C2510.91,5787.06 2515.58,5787.65 2515.58,5787.65L2515.58,5779.57C2515.58,5779.57 2510.81,5778.79 2508.37,5778.79C2502.24,5778.79 2497.66,5781.42 2494.74,5785.51L2494.74,5785.51Z" style="fill:rgb(17,17,17);fill-rule:nonzero;"/>
                <path d="M2562.06,5809.28L2562.06,5810.74C2561.67,5822.34 2552.51,5831.69 2541.11,5831.69C2529.51,5831.69 2520.16,5821.94 2520.16,5810.06C2520.16,5798.17 2529.51,5788.33 2541.11,5788.33C2552.51,5788.33 2561.67,5797.68 2562.06,5809.28ZM2562.06,5827.31L2562.06,5838.2L2570.04,5838.2L2570.04,5781.81L2562.06,5781.81L2562.06,5792.88C2557.97,5785.31 2550.86,5780.35 2541.11,5780.35C2525.13,5780.35 2512.18,5793.69 2512.18,5810.06C2512.18,5826.43 2525.13,5839.66 2541.11,5839.66C2550.86,5839.66 2557.97,5834.8 2562.06,5827.31Z" style="fill:rgb(17,17,17);fill-rule:nonzero;"/>
                <path d="M2625.09,5805.77L2625.09,5808.99C2624.31,5818.73 2616.42,5826.53 2606.67,5826.53C2596.44,5826.53 2588.25,5817.95 2588.25,5807.43C2588.25,5796.9 2596.44,5788.23 2606.67,5788.23C2616.42,5788.23 2624.31,5796.03 2625.09,5805.77ZM2605.31,5861.19C2622.07,5861.19 2633.07,5850.78 2633.07,5833.14L2633.07,5781.81L2625.09,5781.81L2625.09,5790.95C2621.39,5784.44 2615.15,5780.35 2606.67,5780.35C2592.05,5780.35 2580.28,5792.42 2580.28,5807.43C2580.28,5822.43 2592.05,5834.5 2606.67,5834.5C2615.15,5834.5 2621.39,5830.42 2625.09,5823.99L2625.09,5834.02C2624.7,5846.4 2617.29,5853.22 2605.31,5853.22C2593.61,5853.22 2586.11,5848.64 2586.11,5848.64L2581.83,5855.36C2581.83,5855.36 2590.98,5861.19 2605.31,5861.19Z" style="fill:rgb(17,17,17);fill-rule:nonzero;"/>
                <path d="M2651.96,5785.51L2651.96,5780.25L2643.79,5780.25L2643.79,5838.2L2651.96,5838.2L2652.06,5800.61C2652.06,5793.1 2658.1,5787.06 2665.6,5787.06C2668.14,5787.06 2672.81,5787.65 2672.81,5787.65L2672.81,5779.57C2672.81,5779.57 2668.04,5778.79 2665.6,5778.79C2659.47,5778.79 2654.89,5781.42 2651.96,5785.51L2651.96,5785.51Z" style="fill:rgb(17,17,17);fill-rule:nonzero;"/>
                <path d="M2719.29,5809.28L2719.29,5810.74C2718.9,5822.34 2709.74,5831.69 2698.34,5831.69C2686.74,5831.69 2677.39,5821.94 2677.39,5810.06C2677.39,5798.17 2686.74,5788.33 2698.34,5788.33C2709.74,5788.33 2718.9,5797.68 2719.29,5809.28ZM2719.29,5827.31L2719.29,5838.2L2727.27,5838.2L2727.27,5781.81L2719.29,5781.81L2719.29,5792.88C2715.2,5785.31 2708.08,5780.35 2698.34,5780.35C2682.36,5780.35 2669.41,5793.69 2669.41,5810.06C2669.41,5826.43 2682.36,5839.66 2698.34,5839.66C2708.08,5839.66 2715.2,5834.8 2719.29,5827.31Z" style="fill:rgb(17,17,17);fill-rule:nonzero;"/>
                <path d="M2745.97,5810.74L2745.97,5809.28C2746.36,5797.68 2755.52,5788.33 2766.92,5788.33C2778.52,5788.33 2787.87,5798.17 2787.87,5810.06C2787.87,5821.94 2778.52,5831.69 2766.92,5831.69C2755.52,5831.69 2746.36,5822.34 2745.97,5810.74ZM2745.97,5792.81L2745.97,5781.81L2737.99,5781.81L2737.99,5859.83L2745.97,5859.83L2745.97,5827.31C2750.06,5834.8 2757.18,5839.66 2766.92,5839.66C2782.9,5839.66 2795.85,5826.44 2795.85,5810.11C2795.85,5793.69 2782.9,5780.35 2766.92,5780.35C2757.18,5780.35 2750.06,5785.31 2745.97,5792.81Z" style="fill:rgb(17,17,17);fill-rule:nonzero;"/>
                <path d="M2813.58,5791.54L2813.58,5760.28L2805.6,5760.28L2805.6,5838.2L2813.58,5838.2L2813.58,5806.25C2813.58,5803.91 2814.06,5801.58 2815.04,5799.43C2817.86,5793.2 2824.1,5788.72 2830.92,5788.72C2838.72,5788.72 2844.57,5794.56 2844.96,5802.26L2844.96,5838.2L2853.03,5838.2L2853.03,5802.45L2852.93,5802.45C2853.03,5790.08 2844.08,5780.45 2831.8,5780.45C2823.52,5780.45 2817.28,5784.83 2813.58,5791.54Z" style="fill:rgb(17,17,17);fill-rule:nonzero;"/>
                <path d="M2904.37,5785.7C2904.37,5785.7 2898.73,5778.79 2885.18,5778.79C2872.32,5778.79 2864.44,5787.35 2864.44,5796.22C2864.44,5797.39 2864.54,5798.56 2864.83,5799.73C2866.68,5807.43 2872.8,5810.55 2880.21,5812.4C2887.03,5814.25 2896.1,5814.44 2897.17,5822.14L2897.17,5822.82C2897.17,5824.77 2896.2,5826.62 2894.54,5827.99C2892.2,5830.03 2888.59,5831.2 2884.4,5831.2C2874.95,5831.2 2867.36,5826.23 2867.36,5826.23L2862.69,5833.44C2862.69,5833.44 2872.42,5839.66 2884.4,5839.66C2897.37,5839.66 2905.73,5831.49 2905.73,5822.82C2905.73,5822.24 2905.73,5821.56 2905.63,5820.97C2904.18,5810.25 2895.81,5807.13 2886.64,5805.09C2881.19,5803.92 2874.46,5803.14 2873.2,5797.68C2873.1,5797.1 2873,5796.61 2873,5796.03C2873,5791.25 2878.07,5787.35 2885.18,5787.35C2894.05,5787.35 2898.05,5791.35 2898.05,5791.35L2904.37,5785.7Z" style="fill:rgb(17,17,17);fill-rule:nonzero;"/>
                <path d="M2915.97,5834.22C2915.97,5837.23 2918.5,5839.66 2921.52,5839.66C2924.53,5839.66 2927.07,5837.23 2927.07,5834.22C2927.07,5831.2 2924.53,5828.67 2921.52,5828.67C2918.5,5828.67 2915.97,5831.2 2915.97,5834.22Z" style="fill:rgb(17,17,17);fill-rule:nonzero;"/>
            </g>
            <g transform="matrix(1.11461,0,0,0.425371,1327.25,-2283.14)">
                <path d="M1152.99,5849.74C1152.99,5849.74 1152.99,5849.74 1152.99,5849.74C1154.48,5849.62 1155.65,5846.36 1155.6,5842.47C1155.56,5838.58 1154.31,5835.52 1152.83,5835.64C1152.83,5835.64 1152.83,5835.64 1152.83,5835.64C1151.34,5835.76 1150.17,5839.01 1150.22,5842.9C1150.27,5846.79 1151.51,5849.85 1152.99,5849.74ZM1136.68,5849.71C1136.68,5849.71 1136.68,5849.71 1136.68,5849.71C1138.16,5849.83 1139.41,5846.77 1139.45,5842.88C1139.5,5838.99 1138.33,5835.73 1136.85,5835.61C1136.85,5835.61 1136.85,5835.61 1136.85,5835.61C1135.36,5835.49 1134.12,5838.55 1134.07,5842.44C1134.03,5846.33 1135.19,5849.59 1136.68,5849.71ZM1169.27,5847.12C1169.27,5847.12 1169.27,5847.12 1169.27,5847.12C1170.75,5846.77 1171.84,5843.33 1171.71,5839.45C1171.57,5835.58 1170.26,5832.72 1168.78,5833.08C1168.78,5833.08 1168.78,5833.08 1168.78,5833.08C1167.3,5833.44 1166.21,5836.87 1166.35,5840.75C1166.48,5844.62 1167.8,5847.48 1169.27,5847.12ZM1120.4,5847.05C1120.4,5847.05 1120.4,5847.05 1120.4,5847.05C1121.88,5847.41 1123.19,5844.56 1123.33,5840.68C1123.47,5836.8 1122.38,5833.36 1120.9,5833C1120.9,5833 1120.9,5833 1120.9,5833C1119.42,5832.64 1118.11,5835.49 1117.97,5839.37C1117.83,5843.24 1118.92,5846.68 1120.4,5847.05ZM1185.46,5841.89C1185.46,5841.89 1185.46,5841.89 1185.46,5841.89C1186.93,5841.3 1187.94,5837.69 1187.71,5833.84C1187.49,5829.99 1186.11,5827.36 1184.64,5827.95C1184.64,5827.95 1184.64,5827.95 1184.64,5827.95C1183.17,5828.55 1182.16,5832.15 1182.39,5836C1182.62,5839.85 1184,5842.49 1185.46,5841.89ZM1104.21,5841.76C1104.21,5841.76 1104.21,5841.76 1104.21,5841.76C1105.68,5842.36 1107.06,5839.72 1107.29,5835.88C1107.52,5832.03 1106.51,5828.42 1105.04,5827.82C1105.04,5827.82 1105.04,5827.82 1105.04,5827.82C1103.57,5827.22 1102.2,5829.86 1101.97,5833.7C1101.74,5837.55 1102.74,5841.16 1104.21,5841.76ZM1201.5,5834.04C1201.5,5834.04 1201.5,5834.04 1201.5,5834.04C1202.95,5833.2 1203.87,5829.44 1203.55,5825.64C1203.24,5821.84 1201.8,5819.43 1200.35,5820.26C1200.35,5820.26 1200.35,5820.26 1200.35,5820.26C1198.9,5821.1 1197.98,5824.86 1198.3,5828.66C1198.61,5832.46 1200.05,5834.87 1201.5,5834.04ZM1088.18,5833.85C1088.18,5833.85 1088.18,5833.85 1088.18,5833.85C1089.63,5834.69 1091.07,5832.29 1091.39,5828.49C1091.71,5824.69 1090.79,5820.92 1089.34,5820.08C1089.34,5820.08 1089.34,5820.08 1089.34,5820.08C1087.89,5819.24 1086.45,5821.65 1086.13,5825.45C1085.81,5829.25 1086.73,5833.02 1088.18,5833.85ZM1217.32,5823.54C1217.32,5823.54 1217.32,5823.54 1217.32,5823.54C1218.75,5822.47 1219.57,5818.56 1219.16,5814.82C1218.75,5811.07 1217.26,5808.91 1215.83,5809.99C1215.83,5809.99 1215.83,5809.99 1215.83,5809.99C1214.4,5811.07 1213.58,5814.98 1213.99,5818.72C1214.4,5822.46 1215.89,5824.62 1217.32,5823.54ZM1072.36,5823.31C1072.36,5823.31 1072.36,5823.31 1072.36,5823.31C1073.79,5824.39 1075.28,5822.23 1075.7,5818.49C1076.11,5814.75 1075.29,5810.84 1073.86,5809.76C1073.86,5809.76 1073.86,5809.76 1073.86,5809.76C1072.43,5808.67 1070.94,5810.83 1070.53,5814.57C1070.11,5818.31 1070.93,5822.22 1072.36,5823.31ZM1232.85,5810.28C1232.85,5810.28 1232.85,5810.28 1232.85,5810.28C1234.25,5808.94 1234.97,5804.88 1234.45,5801.23C1233.94,5797.57 1232.39,5795.69 1231,5797.03C1231,5797.03 1231,5797.03 1231,5797.03C1229.61,5798.37 1228.89,5802.43 1229.4,5806.08C1229.91,5809.74 1231.46,5811.62 1232.85,5810.28ZM1056.84,5809.98C1056.84,5809.98 1056.84,5809.98 1056.84,5809.98C1058.23,5811.32 1059.78,5809.45 1060.29,5805.8C1060.81,5802.15 1060.09,5798.09 1058.7,5796.74C1058.7,5796.74 1058.7,5796.74 1058.7,5796.74C1057.3,5795.4 1055.76,5797.27 1055.24,5800.92C1054.73,5804.57 1055.44,5808.63 1056.84,5809.98ZM1041.68,5793.15C1041.68,5793.15 1041.68,5793.15 1041.68,5793.15C1043,5794.92 1044.63,5793.54 1045.3,5790.08C1045.98,5786.61 1045.45,5782.36 1044.13,5780.59C1044.13,5780.59 1044.13,5780.59 1044.13,5780.59C1042.8,5778.82 1041.18,5780.2 1040.51,5783.66C1039.83,5787.13 1040.36,5791.38 1041.68,5793.15ZM854.799,5777.16C854.799,5777.16 854.799,5777.16 854.799,5777.16C856.193,5775.82 856.908,5771.76 856.395,5768.11C855.882,5764.45 854.334,5762.58 852.939,5763.92C852.939,5763.92 852.939,5763.92 852.939,5763.92C851.545,5765.27 850.83,5769.32 851.343,5772.98C851.856,5776.63 853.404,5778.5 854.799,5777.16ZM1027.1,5777.06C1027.1,5777.06 1027.1,5777.06 1027.1,5777.06C1028.5,5778.41 1030.04,5776.53 1030.56,5772.88C1031.07,5769.22 1030.35,5765.17 1028.96,5763.82C1028.96,5763.82 1028.96,5763.82 1028.96,5763.82C1027.56,5762.48 1026.02,5764.36 1025.5,5768.01C1024.99,5771.66 1025.71,5775.72 1027.1,5777.06ZM869.962,5764.16C869.962,5764.16 869.962,5764.16 869.962,5764.16C871.389,5763.09 872.213,5759.17 871.801,5755.43C871.388,5751.69 869.895,5749.53 868.467,5750.61C868.467,5750.61 868.467,5750.61 868.467,5750.61C867.04,5751.7 866.217,5755.61 866.629,5759.35C867.042,5763.09 868.535,5765.25 869.962,5764.16ZM1011.94,5764.09C1011.94,5764.09 1011.94,5764.09 1011.94,5764.09C1013.36,5765.17 1014.86,5763.01 1015.27,5759.27C1015.68,5755.53 1014.85,5751.61 1013.43,5750.53C1013.43,5750.53 1013.43,5750.53 1013.43,5750.53C1012,5749.46 1010.51,5751.62 1010.1,5755.36C1009.68,5759.1 1010.51,5763.01 1011.94,5764.09ZM885.443,5753.86C885.443,5753.86 885.443,5753.86 885.443,5753.86C886.894,5753.02 887.812,5749.26 887.493,5745.45C887.173,5741.65 885.736,5739.25 884.285,5740.08C884.285,5740.08 884.285,5740.08 884.285,5740.08C882.834,5740.92 881.916,5744.69 882.235,5748.49C882.555,5752.29 883.992,5754.7 885.443,5753.86ZM996.452,5753.8C996.452,5753.8 996.452,5753.8 996.452,5753.8C997.903,5754.63 999.34,5752.23 999.659,5748.43C999.978,5744.62 999.059,5740.86 997.608,5740.02C997.608,5740.02 997.608,5740.02 997.608,5740.02C996.157,5739.19 994.72,5741.59 994.401,5745.4C994.082,5749.2 995.001,5752.96 996.452,5753.8ZM901.148,5746.14C901.148,5746.14 901.148,5746.14 901.148,5746.14C902.615,5745.54 903.622,5741.93 903.393,5738.08C903.164,5734.23 901.787,5731.6 900.319,5732.2C900.319,5732.2 900.319,5732.2 900.319,5732.2C898.852,5732.8 897.845,5736.4 898.074,5740.25C898.302,5744.1 899.68,5746.73 901.148,5746.14ZM980.746,5746.09C980.746,5746.09 980.746,5746.09 980.746,5746.09C982.214,5746.69 983.591,5744.05 983.819,5740.2C984.047,5736.36 983.04,5732.75 981.572,5732.15C981.572,5732.15 981.572,5732.15 981.572,5732.15C980.104,5731.56 978.728,5734.19 978.5,5738.04C978.272,5741.89 979.278,5745.49 980.746,5746.09ZM917.006,5740.97C917.006,5740.97 917.006,5740.97 917.006,5740.97C918.485,5740.61 919.574,5737.17 919.437,5733.3C919.299,5729.42 917.987,5726.57 916.508,5726.93C916.508,5726.93 916.508,5726.93 916.508,5726.93C915.028,5727.29 913.939,5730.73 914.077,5734.6C914.214,5738.48 915.527,5741.33 917.006,5740.97ZM964.887,5740.95C964.887,5740.95 964.887,5740.95 964.887,5740.95C966.366,5741.31 967.678,5738.45 967.815,5734.57C967.952,5730.7 966.863,5727.26 965.383,5726.9C965.383,5726.9 965.383,5726.9 965.383,5726.9C963.904,5726.54 962.592,5729.4 962.455,5733.27C962.318,5737.15 963.408,5740.59 964.887,5740.95ZM932.956,5738.38C932.956,5738.38 932.956,5738.38 932.956,5738.38C934.441,5738.26 935.609,5735 935.563,5731.11C935.517,5727.22 934.274,5724.16 932.789,5724.28C932.789,5724.28 932.789,5724.28 932.789,5724.28C931.304,5724.4 930.136,5727.66 930.182,5731.55C930.228,5735.44 931.471,5738.5 932.956,5738.38ZM948.936,5738.37C948.936,5738.37 948.937,5738.37 948.937,5738.37C950.421,5738.49 951.664,5735.43 951.709,5731.54C951.755,5727.65 950.587,5724.39 949.102,5724.27C949.102,5724.27 949.102,5724.27 949.102,5724.27C947.617,5724.15 946.374,5727.22 946.329,5731.11C946.283,5735 947.452,5738.25 948.936,5738.37Z" style="fill:rgb(187,187,187);"/>
            </g>
            <g transform="matrix(1.11461,0,0,0.425371,2207.9,-2024.9)">
                <path d="M1152.99,5849.74C1152.99,5849.74 1152.99,5849.74 1152.99,5849.74C1154.48,5849.62 1155.65,5846.36 1155.6,5842.47C1155.56,5838.58 1154.31,5835.52 1152.83,5835.64C1152.83,5835.64 1152.83,5835.64 1152.83,5835.64C1151.34,5835.76 1150.17,5839.01 1150.22,5842.9C1150.27,5846.79 1151.51,5849.85 1152.99,5849.74ZM1136.68,5849.71C1136.68,5849.71 1136.68,5849.71 1136.68,5849.71C1138.16,5849.83 1139.41,5846.77 1139.45,5842.88C1139.5,5838.99 1138.33,5835.73 1136.85,5835.61C1136.85,5835.61 1136.85,5835.61 1136.85,5835.61C1135.36,5835.49 1134.12,5838.55 1134.07,5842.44C1134.03,5846.33 1135.19,5849.59 1136.68,5849.71ZM1169.27,5847.12C1169.27,5847.12 1169.27,5847.12 1169.27,5847.12C1170.75,5846.77 1171.84,5843.33 1171.71,5839.45C1171.57,5835.58 1170.26,5832.72 1168.78,5833.08C1168.78,5833.08 1168.78,5833.08 1168.78,5833.08C1167.3,5833.44 1166.21,5836.87 1166.35,5840.75C1166.48,5844.62 1167.8,5847.48 1169.27,5847.12ZM1120.4,5847.05C1120.4,5847.05 1120.4,5847.05 1120.4,5847.05C1121.88,5847.41 1123.19,5844.56 1123.33,5840.68C1123.47,5836.8 1122.38,5833.36 1120.9,5833C1120.9,5833 1120.9,5833 1120.9,5833C1119.42,5832.64 1118.11,5835.49 1117.97,5839.37C1117.83,5843.24 1118.92,5846.68 1120.4,5847.05ZM1185.46,5841.89C1185.46,5841.89 1185.46,5841.89 1185.46,5841.89C1186.93,5841.3 1187.94,5837.69 1187.71,5833.84C1187.49,5829.99 1186.11,5827.36 1184.64,5827.95C1184.64,5827.95 1184.64,5827.95 1184.64,5827.95C1183.17,5828.55 1182.16,5832.15 1182.39,5836C1182.62,5839.85 1184,5842.49 1185.46,5841.89ZM1104.21,5841.76C1104.21,5841.76 1104.21,5841.76 1104.21,5841.76C1105.68,5842.36 1107.06,5839.72 1107.29,5835.88C1107.52,5832.03 1106.51,5828.42 1105.04,5827.82C1105.04,5827.82 1105.04,5827.82 1105.04,5827.82C1103.57,5827.22 1102.2,5829.86 1101.97,5833.7C1101.74,5837.55 1102.74,5841.16 1104.21,5841.76ZM1201.5,5834.04C1201.5,5834.04 1201.5,5834.04 1201.5,5834.04C1202.95,5833.2 1203.87,5829.44 1203.55,5825.64C1203.24,5821.84 1201.8,5819.43 1200.35,5820.26C1200.35,5820.26 1200.35,5820.26 1200.35,5820.26C1198.9,5821.1 1197.98,5824.86 1198.3,5828.66C1198.61,5832.46 1200.05,5834.87 1201.5,5834.04ZM1088.18,5833.85C1088.18,5833.85 1088.18,5833.85 1088.18,5833.85C1089.63,5834.69 1091.07,5832.29 1091.39,5828.49C1091.71,5824.69 1090.79,5820.92 1089.34,5820.08C1089.34,5820.08 1089.34,5820.08 1089.34,5820.08C1087.89,5819.24 1086.45,5821.65 1086.13,5825.45C1085.81,5829.25 1086.73,5833.02 1088.18,5833.85ZM1217.32,5823.54C1217.32,5823.54 1217.32,5823.54 1217.32,5823.54C1218.75,5822.47 1219.57,5818.56 1219.16,5814.82C1218.75,5811.07 1217.26,5808.91 1215.83,5809.99C1215.83,5809.99 1215.83,5809.99 1215.83,5809.99C1214.4,5811.07 1213.58,5814.98 1213.99,5818.72C1214.4,5822.46 1215.89,5824.62 1217.32,5823.54ZM1072.36,5823.31C1072.36,5823.31 1072.36,5823.31 1072.36,5823.31C1073.79,5824.39 1075.28,5822.23 1075.7,5818.49C1076.11,5814.75 1075.29,5810.84 1073.86,5809.76C1073.86,5809.76 1073.86,5809.76 1073.86,5809.76C1072.43,5808.67 1070.94,5810.83 1070.53,5814.57C1070.11,5818.31 1070.93,5822.22 1072.36,5823.31ZM1232.85,5810.28C1232.85,5810.28 1232.85,5810.28 1232.85,5810.28C1234.25,5808.94 1234.97,5804.88 1234.45,5801.23C1233.94,5797.57 1232.39,5795.69 1231,5797.03C1231,5797.03 1231,5797.03 1231,5797.03C1229.61,5798.37 1228.89,5802.43 1229.4,5806.08C1229.91,5809.74 1231.46,5811.62 1232.85,5810.28ZM1056.84,5809.98C1056.84,5809.98 1056.84,5809.98 1056.84,5809.98C1058.23,5811.32 1059.78,5809.45 1060.29,5805.8C1060.81,5802.15 1060.09,5798.09 1058.7,5796.74C1058.7,5796.74 1058.7,5796.74 1058.7,5796.74C1057.3,5795.4 1055.76,5797.27 1055.24,5800.92C1054.73,5804.57 1055.44,5808.63 1056.84,5809.98ZM1041.68,5793.15C1041.68,5793.15 1041.68,5793.15 1041.68,5793.15C1043,5794.92 1044.63,5793.54 1045.3,5790.08C1045.98,5786.61 1045.45,5782.36 1044.13,5780.59C1044.13,5780.59 1044.13,5780.59 1044.13,5780.59C1042.8,5778.82 1041.18,5780.2 1040.51,5783.66C1039.83,5787.13 1040.36,5791.38 1041.68,5793.15ZM854.799,5777.16C854.799,5777.16 854.799,5777.16 854.799,5777.16C856.193,5775.82 856.908,5771.76 856.395,5768.11C855.882,5764.45 854.334,5762.58 852.939,5763.92C852.939,5763.92 852.939,5763.92 852.939,5763.92C851.545,5765.27 850.83,5769.32 851.343,5772.98C851.856,5776.63 853.404,5778.5 854.799,5777.16ZM1027.1,5777.06C1027.1,5777.06 1027.1,5777.06 1027.1,5777.06C1028.5,5778.41 1030.04,5776.53 1030.56,5772.88C1031.07,5769.22 1030.35,5765.17 1028.96,5763.82C1028.96,5763.82 1028.96,5763.82 1028.96,5763.82C1027.56,5762.48 1026.02,5764.36 1025.5,5768.01C1024.99,5771.66 1025.71,5775.72 1027.1,5777.06ZM869.962,5764.16C869.962,5764.16 869.962,5764.16 869.962,5764.16C871.389,5763.09 872.213,5759.17 871.801,5755.43C871.388,5751.69 869.895,5749.53 868.467,5750.61C868.467,5750.61 868.467,5750.61 868.467,5750.61C867.04,5751.7 866.217,5755.61 866.629,5759.35C867.042,5763.09 868.535,5765.25 869.962,5764.16ZM1011.94,5764.09C1011.94,5764.09 1011.94,5764.09 1011.94,5764.09C1013.36,5765.17 1014.86,5763.01 1015.27,5759.27C1015.68,5755.53 1014.85,5751.61 1013.43,5750.53C1013.43,5750.53 1013.43,5750.53 1013.43,5750.53C1012,5749.46 1010.51,5751.62 1010.1,5755.36C1009.68,5759.1 1010.51,5763.01 1011.94,5764.09ZM885.443,5753.86C885.443,5753.86 885.443,5753.86 885.443,5753.86C886.894,5753.02 887.812,5749.26 887.493,5745.45C887.173,5741.65 885.736,5739.25 884.285,5740.08C884.285,5740.08 884.285,5740.08 884.285,5740.08C882.834,5740.92 881.916,5744.69 882.235,5748.49C882.555,5752.29 883.992,5754.7 885.443,5753.86ZM996.452,5753.8C996.452,5753.8 996.452,5753.8 996.452,5753.8C997.903,5754.63 999.34,5752.23 999.659,5748.43C999.978,5744.62 999.059,5740.86 997.608,5740.02C997.608,5740.02 997.608,5740.02 997.608,5740.02C996.157,5739.19 994.72,5741.59 994.401,5745.4C994.082,5749.2 995.001,5752.96 996.452,5753.8ZM901.148,5746.14C901.148,5746.14 901.148,5746.14 901.148,5746.14C902.615,5745.54 903.622,5741.93 903.393,5738.08C903.164,5734.23 901.787,5731.6 900.319,5732.2C900.319,5732.2 900.319,5732.2 900.319,5732.2C898.852,5732.8 897.845,5736.4 898.074,5740.25C898.302,5744.1 899.68,5746.73 901.148,5746.14ZM980.746,5746.09C980.746,5746.09 980.746,5746.09 980.746,5746.09C982.214,5746.69 983.591,5744.05 983.819,5740.2C984.047,5736.36 983.04,5732.75 981.572,5732.15C981.572,5732.15 981.572,5732.15 981.572,5732.15C980.104,5731.56 978.728,5734.19 978.5,5738.04C978.272,5741.89 979.278,5745.49 980.746,5746.09ZM917.006,5740.97C917.006,5740.97 917.006,5740.97 917.006,5740.97C918.485,5740.61 919.574,5737.17 919.437,5733.3C919.299,5729.42 917.987,5726.57 916.508,5726.93C916.508,5726.93 916.508,5726.93 916.508,5726.93C915.028,5727.29 913.939,5730.73 914.077,5734.6C914.214,5738.48 915.527,5741.33 917.006,5740.97ZM964.887,5740.95C964.887,5740.95 964.887,5740.95 964.887,5740.95C966.366,5741.31 967.678,5738.45 967.815,5734.57C967.952,5730.7 966.863,5727.26 965.383,5726.9C965.383,5726.9 965.383,5726.9 965.383,5726.9C963.904,5726.54 962.592,5729.4 962.455,5733.27C962.318,5737.15 963.408,5740.59 964.887,5740.95ZM932.956,5738.38C932.956,5738.38 932.956,5738.38 932.956,5738.38C934.441,5738.26 935.609,5735 935.563,5731.11C935.517,5727.22 934.274,5724.16 932.789,5724.28C932.789,5724.28 932.789,5724.28 932.789,5724.28C931.304,5724.4 930.136,5727.66 930.182,5731.55C930.228,5735.44 931.471,5738.5 932.956,5738.38ZM948.936,5738.37C948.936,5738.37 948.937,5738.37 948.937,5738.37C950.421,5738.49 951.664,5735.43 951.709,5731.54C951.755,5727.65 950.587,5724.39 949.102,5724.27C949.102,5724.27 949.102,5724.27 949.102,5724.27C947.617,5724.15 946.374,5727.22 946.329,5731.11C946.283,5735 947.452,5738.25 948.936,5738.37Z" style="fill:rgb(187,187,187);"/>
            </g>
        </g>
    </g>
</svg>
