<?xml version="1.0" encoding="UTF-8" standalone="no"?>
<!DOCTYPE svg PUBLIC "-//W3C//DTD SVG 1.1//EN" "http://www.w3.org/Graphics/SVG/1.1/DTD/svg11.dtd">
<svg width="100%" height="100%" viewBox="0 0 1920 1080" version="1.1" xmlns="http://www.w3.org/2000/svg" xmlns:xlink="http://www.w3.org/1999/xlink" xml:space="preserve" xmlns:serif="http://www.serif.com/" style="fill-rule:evenodd;clip-rule:evenodd;stroke-linejoin:round;stroke-miterlimit:2;">
    <rect id="Slide1" x="0" y="0" width="1920" height="1080" style="fill:none;"/>
    <g id="Slide11" serif:id="Slide1">
        <rect x="0" y="0" width="1920" height="1080" style="fill:rgb(17,17,17);"/>
        <g transform="matrix(1.18531,0,0,1.18531,-71.6217,-152.858)">
            <path d="M279.304,408.278L298.03,361.207L316.755,408.278L279.304,408.278ZM269.684,432.157L326.375,432.157L339.947,466L366.06,466L311.086,328.566L284.974,328.566L230,466L256.112,466L269.684,432.157Z" style="fill:rgb(238,238,238);fill-rule:nonzero;"/>
            <path d="M405.572,418.242L405.572,414.462C406.602,399.86 417.941,388.006 432.371,388.006C447.489,388.006 459.515,400.891 459.515,416.352C459.515,431.813 447.489,444.698 432.371,444.698C417.941,444.698 406.602,432.844 405.572,418.242ZM405.572,375.294L405.572,328.566L381.521,328.566L381.521,466.172L405.572,466.172L405.572,457.41C411.756,464.454 420.518,468.577 432.371,468.577C460.545,468.577 483.394,445.213 483.394,416.352C483.394,387.491 460.545,364.127 432.371,364.127C420.518,364.127 411.756,368.25 405.572,375.294Z" style="fill:rgb(238,238,238);fill-rule:nonzero;"/>
            <path d="M572.726,374.606C572.726,374.606 558.81,363.955 535.103,363.955C510.021,363.955 495.247,379.932 495.247,396.081C495.247,398.314 495.591,400.547 496.106,402.78C499.714,416.524 511.568,422.88 525.998,426.144C531.667,427.347 537.852,428.206 543.177,429.924C547.3,431.126 551.252,432.5 551.939,437.139C552.111,438.857 550.736,440.059 549.19,441.262C545.582,444.011 540.429,445.385 534.244,445.385C518.611,445.385 504.181,437.998 504.181,437.998L493.529,458.613C493.529,458.613 513.114,468.577 534.244,468.577C549.19,468.577 561.044,463.08 567.744,455.692C572.726,450.367 575.303,444.011 575.303,437.482C575.303,436.28 575.131,434.906 574.959,433.703C572.554,417.726 561.044,410.511 546.613,406.732C539.57,404.842 531.667,403.983 525.139,401.75C522.219,400.719 519.47,400.032 518.611,396.939C518.439,396.596 518.439,396.252 518.439,395.909C518.439,394.363 519.47,392.988 520.673,391.786C523.765,388.865 528.919,387.147 535.103,387.147C550.049,387.147 558.81,393.332 558.81,393.332L572.726,374.606Z" style="fill:rgb(238,238,238);fill-rule:nonzero;"/>
            <path d="M639.209,363.955C611.035,363.955 588.187,387.491 588.187,416.352C588.187,445.213 611.035,468.577 639.209,468.577C667.383,468.577 690.232,445.213 690.232,416.352C690.232,387.491 667.383,363.955 639.209,363.955ZM639.209,388.693C654.155,388.693 666.181,401.063 666.181,416.352C666.181,431.642 654.155,444.011 639.209,444.011C624.263,444.011 612.238,431.642 612.238,416.352C612.238,401.063 624.263,388.693 639.209,388.693Z" style="fill:rgb(238,238,238);fill-rule:nonzero;"/>
            <path d="M728.026,325.989L703.975,328.394L703.975,466L728.026,466L728.026,325.989Z" style="fill:rgb(238,238,238);fill-rule:nonzero;"/>
            <path d="M785.061,443.839C774.41,443.839 766.336,436.28 766.336,424.942L766.336,366.532L741.598,366.532L741.598,428.034C741.254,451.054 757.746,468.577 780.938,468.577C794.681,468.577 804.473,462.564 811.517,452.772L811.517,466.172L835.568,466.172L835.568,366.532L811.517,366.532L811.517,416.524C811.517,430.783 799.148,443.839 785.061,443.839Z" style="fill:rgb(238,238,238);fill-rule:nonzero;"/>
            <path d="M864.429,432.672C864.429,452.428 880.577,468.577 900.334,468.577C907.892,468.577 920.09,466.344 920.09,466.344L917.169,443.495C917.169,443.495 906.862,444.698 900.334,444.698C893.805,444.698 888.48,439.2 888.48,432.672L888.48,390.411L917.169,390.411L917.169,366.532L888.48,366.532L888.48,340.076L864.429,342.653L864.429,366.532L850.857,366.532L850.857,390.411L864.429,390.411L864.429,432.672Z" style="fill:rgb(238,238,238);fill-rule:nonzero;"/>
            <path d="M1003.58,407.419L956.166,407.419C957.54,403.296 959.602,399.345 962.694,396.252C968.363,390.583 974.891,387.834 981.248,387.834C984.168,387.834 987.089,388.35 989.666,389.552C996.366,392.473 1001.69,398.829 1003.58,407.419ZM945.859,379.417C936.582,389.209 931.428,402.437 931.428,416.18C931.428,445.213 954.105,468.577 982.279,468.577C1010.45,468.577 1021.45,458.269 1021.45,458.269L1011.14,438.513C1011.14,438.513 997.396,444.354 982.279,444.354C970.081,444.354 959.774,436.28 956.166,424.942L1028.32,424.942L1028.32,414.462C1028.15,390.755 1015.26,374.435 999.114,367.563C993.445,365.158 987.261,363.955 981.076,363.955C969.051,363.955 956.51,368.594 945.859,379.245L945.859,379.417Z" style="fill:rgb(238,238,238);fill-rule:nonzero;"/>
            <path d="M1065.94,325.989L1041.89,328.394L1041.89,466L1065.94,466L1065.94,325.989Z" style="fill:rgb(238,238,238);fill-rule:nonzero;"/>
            <path d="M1137.58,481.633L1187.74,366.532L1163.18,366.532L1131.91,437.826L1100.82,366.532L1076.25,366.532L1119.71,466.172L1115.93,474.761C1113.01,480.431 1107.17,484.038 1100.64,484.038C1096.01,484.038 1091.71,482.32 1088.45,479.056L1072.47,495.033C1079.86,502.42 1090.16,506.715 1100.64,506.715C1116.96,506.715 1131.57,496.751 1137.58,481.633Z" style="fill:rgb(238,238,238);fill-rule:nonzero;"/>
            <g transform="matrix(0.831261,-0.144106,0.144106,0.831261,75.1602,140.372)">
                <path d="M250.899,609.854C250.247,609.854 249.82,609.505 249.618,608.807C249.406,608.054 249.213,606.983 249.039,605.596C248.873,604.264 248.791,603.171 248.791,602.316C248.791,602.077 248.802,601.715 248.825,601.228C248.848,600.741 248.86,600.378 248.86,600.139C248.86,598.412 248.428,597.548 247.564,597.548C246.397,597.548 245.355,598.076 244.436,599.133C243.967,599.675 243.324,600.709 242.507,602.234C242.507,605.734 242.36,607.806 242.066,608.449C241.808,609.018 241.409,609.303 240.867,609.303C240.49,609.303 240.159,609.175 239.875,608.917C239.59,608.66 239.447,608.348 239.447,607.98C239.447,607.852 239.489,607.649 239.571,607.374C239.645,607.144 239.695,606.474 239.723,605.362L239.764,603.322L239.806,593.193C239.87,592.054 239.902,591.287 239.902,590.892C239.902,590.424 239.858,589.98 239.771,589.562C239.684,589.144 239.64,588.71 239.64,588.26C239.64,587.874 239.774,587.555 240.04,587.302C240.306,587.05 240.633,586.923 241.018,586.923C241.772,586.923 242.213,587.327 242.341,588.136C242.488,589.027 242.562,589.831 242.562,590.548C242.562,591.512 242.53,592.518 242.465,593.566C242.41,594.567 242.387,595.573 242.396,596.584L242.41,597.796C243.164,596.786 243.97,596.03 244.829,595.529C245.688,595.029 246.6,594.778 247.564,594.778C249.089,594.778 250.137,595.274 250.706,596.267C251.11,596.965 251.34,598.141 251.395,599.794L251.506,602.427L251.781,605.293C251.91,606.368 252.066,607.314 252.25,608.132C252.286,608.288 252.305,608.421 252.305,608.531C252.305,608.908 252.167,609.223 251.891,609.475C251.616,609.728 251.285,609.854 250.899,609.854Z" style="fill:rgb(187,187,187);fill-rule:nonzero;"/>
                <path d="M269.252,609.91C269.078,609.91 268.761,609.707 268.302,609.303C267.888,608.927 267.58,608.591 267.378,608.297C266.496,608.775 265.72,609.136 265.049,609.379C264.379,609.622 263.818,609.744 263.368,609.744C261.218,609.744 259.652,609.138 258.669,607.925C257.741,606.786 257.277,605.04 257.277,602.688C257.277,600.465 258.042,598.563 259.571,596.983C261.101,595.403 262.927,594.613 265.049,594.613C265.849,594.613 266.744,594.82 267.737,595.233C268.986,595.747 269.611,596.368 269.611,597.093C269.611,597.341 269.519,597.562 269.335,597.755C269.243,598.104 269.172,598.678 269.121,599.477C269.071,600.277 269.041,601.301 269.032,602.551C269.023,603.69 269.101,604.59 269.266,605.252C269.358,605.656 269.647,606.464 270.134,607.677C270.199,607.842 270.304,608.086 270.451,608.407L270.534,608.642C270.534,609.009 270.405,609.312 270.148,609.551C269.891,609.79 269.592,609.91 269.252,609.91ZM266.386,600.332C266.386,599.937 266.411,599.507 266.462,599.043C266.512,598.579 266.588,598.086 266.689,597.562C266.349,597.387 266.058,597.259 265.814,597.176C265.571,597.093 265.375,597.052 265.228,597.052C263.804,597.052 262.576,597.633 261.542,598.795C260.509,599.958 259.992,601.297 259.992,602.812C259.992,604.319 260.258,605.449 260.791,606.203C261.324,606.956 262.123,607.333 263.189,607.333C264.071,607.333 264.82,607.172 265.435,606.85C265.766,606.676 266.23,606.327 266.827,605.803C266.533,603.368 266.386,601.545 266.386,600.332Z" style="fill:rgb(187,187,187);fill-rule:nonzero;"/>
                <path d="M277.766,613.741C277.445,613.741 277.164,613.617 276.926,613.369C276.687,613.12 276.567,612.836 276.567,612.514C276.567,612.248 276.852,611.458 277.422,610.144C277.918,609.005 278.299,608.192 278.565,607.705C278.804,607.264 279.121,607.043 279.516,607.043C279.847,607.043 280.13,607.169 280.364,607.422C280.598,607.675 280.715,607.962 280.715,608.283C280.715,608.504 280.063,610.075 278.758,612.996C278.547,613.493 278.216,613.741 277.766,613.741Z" style="fill:rgb(187,187,187);fill-rule:nonzero;"/>
                <path d="M306.948,598.389C306.443,598.389 306.089,598.219 305.887,597.879C305.749,597.64 305.63,597.144 305.529,596.391C304.84,596.565 303.779,596.887 302.346,597.355C300.866,597.943 300.122,598.669 300.113,599.533C300.389,599.634 300.66,599.707 300.926,599.753C303.039,600.13 304.61,600.649 305.639,601.31C307.137,602.275 307.885,603.671 307.885,605.5C307.885,606.997 307.238,608.127 305.942,608.89C304.867,609.514 303.508,609.827 301.863,609.827C300.66,609.827 299.511,609.625 298.418,609.22C297.003,608.706 296.296,607.989 296.296,607.071C296.296,606.703 296.441,606.382 296.73,606.106C297.019,605.83 297.348,605.693 297.715,605.693C298,605.693 298.368,605.913 298.818,606.354C299.038,606.565 299.534,606.74 300.306,606.878C300.922,606.988 301.441,607.043 301.863,607.043C302.635,607.043 303.315,606.951 303.903,606.768C304.757,606.501 305.184,606.078 305.184,605.5C305.184,604.25 304.312,603.405 302.566,602.964L301.133,602.647C299.911,602.381 299.043,602.068 298.528,601.71C297.784,601.195 297.412,600.419 297.412,599.381C297.412,597.461 298.317,596.092 300.127,595.274C300.678,595.026 301.56,594.73 302.773,594.385C303.985,594.041 304.854,593.749 305.377,593.51C305.754,593.345 306.163,593.262 306.604,593.262C306.999,593.262 307.323,593.391 307.575,593.648C307.828,593.905 307.954,594.241 307.954,594.654C307.954,594.921 308.012,595.311 308.127,595.826C308.241,596.34 308.299,596.731 308.299,596.997C308.299,597.41 308.173,597.746 307.92,598.003C307.667,598.26 307.343,598.389 306.948,598.389Z" style="fill:rgb(187,187,187);fill-rule:nonzero;"/>
                <path d="M316.84,591.554C316.399,591.554 316.018,591.397 315.696,591.085C315.375,590.773 315.214,590.396 315.214,589.955C315.214,589.514 315.375,589.137 315.696,588.825C316.018,588.513 316.399,588.356 316.84,588.356C317.281,588.356 317.66,588.513 317.977,588.825C318.294,589.137 318.453,589.514 318.453,589.955C318.453,590.396 318.294,590.773 317.977,591.085C317.66,591.397 317.281,591.554 316.84,591.554ZM317.46,602.744C317.46,603.295 317.476,604.119 317.509,605.217C317.541,606.315 317.557,607.14 317.557,607.691C317.557,608.095 317.433,608.426 317.185,608.683C316.937,608.94 316.61,609.069 316.206,609.069C315.811,609.069 315.487,608.94 315.235,608.683C314.982,608.426 314.856,608.095 314.856,607.691C314.856,607.14 314.84,606.315 314.808,605.217C314.775,604.119 314.759,603.295 314.759,602.744C314.759,601.88 314.805,600.803 314.897,599.512C314.989,598.221 315.035,597.144 315.035,596.28C315.035,595.867 315.161,595.532 315.414,595.274C315.667,595.017 315.99,594.888 316.385,594.888C316.78,594.888 317.104,595.017 317.357,595.274C317.61,595.532 317.736,595.867 317.736,596.28C317.736,597.144 317.69,598.221 317.598,599.512C317.506,600.803 317.46,601.88 317.46,602.744Z" style="fill:rgb(187,187,187);fill-rule:nonzero;"/>
                <path d="M336.42,609.565C335.915,609.565 335.524,609.299 335.249,608.766C334.771,607.838 334.05,606.74 333.085,605.472L330.646,602.151C330.113,602.574 329.286,603.166 328.165,603.929C328.064,605.353 328.014,606.74 328.014,608.09C328.014,608.504 327.887,608.839 327.635,609.096C327.382,609.354 327.058,609.482 326.663,609.482C325.735,609.482 325.271,608.858 325.271,607.608C325.271,606.846 325.324,605.704 325.43,604.184C325.535,602.663 325.588,601.522 325.588,600.759C325.588,599.363 325.609,597.766 325.65,595.97C325.692,594.174 325.712,592.587 325.712,591.209C325.712,590.796 325.692,590.309 325.65,589.748C325.609,589.188 325.588,588.701 325.588,588.287C325.588,587.874 325.715,587.539 325.967,587.282C326.22,587.024 326.544,586.896 326.939,586.896C327.334,586.896 327.658,587.024 327.91,587.282C328.163,587.539 328.289,587.874 328.289,588.287C328.289,588.71 328.312,589.209 328.358,589.783C328.404,590.357 328.427,590.855 328.427,591.278L328.331,595.715C328.285,597.314 328.271,598.912 328.289,600.511C329.539,599.556 330.742,598.508 331.9,597.369L334.932,594.241C335.235,593.928 335.561,593.772 335.91,593.772C336.268,593.772 336.592,593.915 336.882,594.199C337.171,594.484 337.316,594.815 337.316,595.192C337.316,595.504 337.182,595.812 336.916,596.115C335.786,597.438 334.394,598.857 332.74,600.373L335.745,604.466C337.15,606.386 337.853,607.636 337.853,608.214C337.853,608.582 337.708,608.899 337.419,609.165C337.13,609.432 336.797,609.565 336.42,609.565Z" style="fill:rgb(187,187,187);fill-rule:nonzero;"/>
                <path d="M349.44,609.634C347.364,609.634 345.682,609.115 344.396,608.077C342.991,606.928 342.288,605.321 342.288,603.253C342.288,600.865 342.867,598.862 344.024,597.245C345.283,595.481 346.964,594.599 349.068,594.599C350.593,594.599 351.838,594.856 352.802,595.371C353.988,596.005 354.58,596.979 354.58,598.292C354.58,599.211 354.061,600.047 353.023,600.8C352.564,601.131 351.59,601.646 350.101,602.344L344.837,604.838C345.352,605.601 345.992,606.175 346.76,606.561C347.527,606.947 348.42,607.14 349.44,607.14C350.074,607.14 350.818,607.02 351.672,606.781C352.757,606.478 353.455,606.081 353.767,605.589C354.08,605.098 354.415,604.852 354.773,604.852C355.095,604.852 355.382,604.974 355.634,605.217C355.887,605.461 356.013,605.743 356.013,606.065C356.013,607.084 355.191,607.962 353.547,608.697C352.141,609.322 350.772,609.634 349.44,609.634ZM349.068,597.08C347.947,597.08 347.015,597.514 346.27,598.382C345.526,599.25 344.97,600.557 344.603,602.303L348.834,600.291C350.497,599.482 351.682,598.779 352.389,598.182C351.599,597.447 350.492,597.08 349.068,597.08Z" style="fill:rgb(187,187,187);fill-rule:nonzero;"/>
            </g>
            <g transform="matrix(0.84366,0,0,0.84366,60.4244,128.96)">
                <path d="M217.29,534.894L271.048,525.947L271.048,503.143L245.798,503.143L245.798,493.98C245.798,485.631 252.518,478.912 260.866,478.912C269.215,478.912 274.713,480.134 274.713,480.134L279.193,453.458C279.193,453.458 271.455,450.404 260.866,450.404C236.838,450.404 217.29,469.952 217.29,493.98L217.29,503.143L201,503.143L201,531.651L217.29,531.651L217.29,534.894Z" style="fill:rgb(238,238,238);fill-rule:nonzero;"/>
            </g>
            <g transform="matrix(0.84366,0,0,0.84366,60.4244,128.96)">
                <path d="M355.604,614.124L310.124,621.693C315.239,623.519 320.852,624.505 326.842,624.505C338.743,624.505 348.145,620.701 355.604,614.124ZM391.595,608.134L363.087,612.878L363.087,621.655L391.595,621.655L391.595,608.134ZM309.533,519.542L309.533,503.551L280.211,503.551L280.211,524.422L309.533,519.542ZM391.595,505.884L391.595,503.551L363.087,503.551L363.087,510.629L391.595,505.884Z" style="fill:rgb(238,238,238);fill-rule:nonzero;"/>
            </g>
            <g transform="matrix(0.84366,0,0,0.84366,60.4244,128.96)">
                <path d="M513.058,587.919L481.834,593.115C478.178,594.593 474.238,595.387 470.195,595.387C469.616,595.387 469.041,595.371 468.47,595.34L424.13,602.719C435.221,616.052 451.745,624.505 470.195,624.505C491.78,624.505 511.735,612.695 522.528,593.554L513.058,587.919Z" style="fill:rgb(238,238,238);fill-rule:nonzero;"/>
            </g>
            <g transform="matrix(0.84366,0,0,0.84366,60.4244,128.96)">
                <path d="M571.83,578.137L538.818,583.632L538.818,621.655L567.733,621.655L567.733,582.558L571.83,578.137ZM608.457,572.042L577.801,577.144L613.142,621.655L647.759,621.655L608.457,572.042ZM567.733,476.57L567.733,458.345L538.818,458.345L538.818,481.382L567.733,476.57Z" style="fill:rgb(238,238,238);fill-rule:nonzero;"/>
            </g>
            <path d="M648.83,553.614L624.779,553.614L624.779,653.425L648.83,653.425L648.83,553.614ZM636.804,515.648C628.73,515.648 622.374,522.176 622.374,530.079C622.374,538.153 628.73,544.681 636.804,544.681C644.878,544.681 651.407,538.153 651.407,530.079C651.407,522.176 644.878,515.648 636.804,515.648Z" style="fill:rgb(238,238,238);fill-rule:nonzero;"/>
            <path d="M717.375,575.947C728.198,575.947 736.1,583.506 736.1,595.016L736.1,653.254L760.838,653.254L760.838,591.752C761.182,568.732 744.69,551.209 721.498,551.209C707.754,551.209 697.962,557.222 690.919,567.014L690.919,553.786L666.868,553.786L666.868,653.254L690.919,653.254L690.919,603.434C690.919,589.175 703.116,575.947 717.375,575.947Z" style="fill:rgb(238,238,238);fill-rule:nonzero;"/>
            <path d="M843.642,597.249L843.642,600.857C842.783,613.054 833.163,622.846 821.137,622.846C808.425,622.846 798.461,612.023 798.461,598.967C798.461,585.911 808.425,575.088 821.137,575.088C833.163,575.088 842.783,585.052 843.642,597.249ZM843.642,638.308L843.642,642.259C843.642,651.879 841.065,658.923 836.083,663.561C831.101,668.028 824.23,669.917 816.843,669.917C798.289,669.917 784.889,664.592 784.889,664.592L775.784,686.581C775.784,686.581 792.963,693.968 816.843,693.968C830.586,693.968 843.299,689.674 852.404,681.256C861.509,672.838 867.693,659.954 867.693,642.259L867.693,553.786L843.642,553.786L843.642,559.627C838.317,554.301 830.93,551.209 821.137,551.209C795.368,551.209 774.582,572.511 774.582,598.967C774.582,625.423 795.368,646.726 821.137,646.726C830.93,646.726 838.317,643.633 843.642,638.308Z" style="fill:rgb(238,238,238);fill-rule:nonzero;"/>
            <path d="M280.507,763.201C291.33,763.201 299.232,770.76 299.232,782.27L299.232,840.507L323.97,840.507L323.97,779.006C324.314,755.985 307.822,738.463 284.63,738.463C270.887,738.463 261.094,744.475 254.051,754.267L254.051,703.073L230,703.073L230,840.507L254.051,840.507L254.051,790.687C254.051,776.429 266.248,763.201 280.507,763.201Z" style="fill:rgb(238,238,238);fill-rule:nonzero;"/>
            <path d="M363.998,740.868L339.947,740.868L339.947,840.679L363.998,840.679L363.998,740.868ZM351.973,702.902C343.898,702.902 337.542,709.43 337.542,717.332C337.542,725.406 343.898,731.934 351.973,731.934C360.047,731.934 366.575,725.406 366.575,717.332C366.575,709.43 360.047,702.902 351.973,702.902Z" style="fill:rgb(238,238,238);fill-rule:nonzero;"/>
            <path d="M459.171,788.97L459.171,792.749C458.14,807.351 446.802,819.205 432.371,819.205C417.254,819.205 405.228,806.321 405.228,790.859C405.228,775.398 417.254,762.514 432.371,762.514C446.802,762.514 458.14,774.367 459.171,788.97ZM459.171,749.801C452.986,742.757 444.225,738.634 432.371,738.634C404.197,738.634 381.349,761.998 381.349,790.859C381.349,819.72 404.197,843.084 432.371,843.084C444.225,843.084 452.986,838.961 459.171,831.918L459.171,840.679L483.222,840.679L483.222,703.073L459.171,703.073L459.171,749.801Z" style="fill:rgb(238,238,238);fill-rule:nonzero;"/>
            <path d="M570.149,781.926L522.734,781.926C524.108,777.803 526.17,773.852 529.262,770.76C534.931,765.09 541.459,762.342 547.816,762.342C550.736,762.342 553.657,762.857 556.234,764.06C562.934,766.98 568.259,773.336 570.149,781.926ZM512.427,753.924C503.15,763.716 497.996,776.944 497.996,790.687C497.996,819.72 520.673,843.084 548.847,843.084C577.02,843.084 588.015,832.777 588.015,832.777L577.708,813.02C577.708,813.02 563.964,818.861 548.847,818.861C536.649,818.861 526.342,810.787 522.734,799.449L594.887,799.449L594.887,788.97C594.715,765.262 581.831,748.942 565.682,742.07C560.013,739.665 553.829,738.463 547.644,738.463C535.619,738.463 523.078,743.101 512.427,753.752L512.427,753.924Z" style="fill:rgb(238,238,238);fill-rule:nonzero;"/>
            <path d="M659.481,738.463C631.307,738.463 608.458,761.998 608.458,790.859C608.458,819.72 631.307,843.084 659.481,843.084C687.655,843.084 710.503,819.72 710.503,790.859C710.503,761.998 687.655,738.463 659.481,738.463ZM659.481,763.201C674.427,763.201 686.452,775.57 686.452,790.859C686.452,806.149 674.427,818.518 659.481,818.518C644.535,818.518 632.509,806.149 632.509,790.859C632.509,775.57 644.535,763.201 659.481,763.201Z" style="fill:rgb(238,238,238);fill-rule:nonzero;"/>
            <path d="M767.71,818.346C757.059,818.346 748.985,810.787 748.985,799.449L748.985,741.039L724.246,741.039L724.246,802.541C723.903,825.561 740.395,843.084 763.587,843.084C777.33,843.084 787.122,837.071 794.166,827.279L794.166,840.679L818.217,840.679L818.217,741.039L794.166,741.039L794.166,791.031C794.166,805.29 781.797,818.346 767.71,818.346Z" style="fill:rgb(238,238,238);fill-rule:nonzero;"/>
            <path d="M909.954,749.114C909.954,749.114 896.039,738.463 872.331,738.463C847.25,738.463 832.476,754.439 832.476,770.588C832.476,772.821 832.819,775.054 833.335,777.288C836.942,791.031 848.796,797.387 863.226,800.651C868.896,801.854 875.08,802.713 880.406,804.431C884.529,805.633 888.48,807.008 889.167,811.646C889.339,813.364 887.965,814.567 886.418,815.769C882.811,818.518 877.657,819.892 871.472,819.892C855.839,819.892 841.409,812.505 841.409,812.505L830.758,833.12C830.758,833.12 850.342,843.084 871.472,843.084C886.418,843.084 898.272,837.587 904.972,830.2C909.954,824.874 912.531,818.518 912.531,811.99C912.531,810.787 912.359,809.413 912.187,808.21C909.782,792.234 898.272,785.018 883.842,781.239C876.798,779.349 868.896,778.49 862.368,776.257C859.447,775.226 856.698,774.539 855.839,771.447C855.668,771.103 855.668,770.76 855.668,770.416C855.668,768.87 856.698,767.496 857.901,766.293C860.993,763.372 866.147,761.655 872.331,761.655C887.277,761.655 896.039,767.839 896.039,767.839L909.954,749.114Z" style="fill:rgb(238,238,238);fill-rule:nonzero;"/>
            <path d="M925.415,828.654C925.415,836.728 931.772,843.084 939.846,843.084C947.92,843.084 954.448,836.728 954.448,828.654C954.448,820.579 947.92,814.223 939.846,814.223C931.772,814.223 925.415,820.579 925.415,828.654Z" style="fill:rgb(238,238,238);fill-rule:nonzero;"/>
        </g>
        <g transform="matrix(1.30078e-17,0.212433,-0.212433,1.30078e-17,1806.19,184.861)">
            <path d="M301.293,326C261.946,326 230.011,357.936 230.011,397.283C230.011,436.631 261.946,468.566 301.293,468.566C340.641,468.566 372.749,436.631 372.749,397.283C372.749,357.936 340.641,326 301.293,326ZM301.293,340.409C332.737,340.409 358.168,365.84 358.168,397.283C358.168,428.727 332.737,454.157 301.293,454.157C269.85,454.157 244.592,428.727 244.592,397.283C244.592,365.84 269.85,340.409 301.293,340.409Z" style="fill:rgb(238,238,238);fill-rule:nonzero;"/>
            <path d="M400.407,412.929L400.407,328.577L386.342,328.577L386.342,465.989L400.407,465.989L400.407,433.468L414.838,418.064L452.804,465.989L471.014,465.989L424.63,407.623L462.596,366.543L443.527,366.543L400.407,412.929Z" style="fill:rgb(238,238,238);fill-rule:nonzero;"/>
            <path d="M556.416,414.978L556.416,417.555C555.729,438.004 539.576,454.501 519.47,454.501C499.021,454.501 482.524,437.317 482.524,416.352C482.524,395.388 499.021,378.032 519.47,378.032C539.576,378.032 555.729,394.529 556.416,414.978ZM556.416,446.768L556.416,465.989L570.482,465.989L570.482,366.543L556.416,366.543L556.416,386.056C549.199,372.714 536.654,363.966 519.47,363.966C491.288,363.966 468.458,387.483 468.458,416.352C468.458,445.221 491.288,468.566 519.47,468.566C536.654,468.566 549.199,459.99 556.416,446.768Z" style="fill:rgb(238,238,238);fill-rule:nonzero;"/>
            <path d="M633.712,447.578L598.323,366.543L582.174,366.543L625.638,466.081L617.22,485.098C615.158,489.038 611.035,491.78 606.397,491.78C603.133,491.78 599.869,490.58 597.636,488.182L587.156,498.47C592.31,503.616 599.182,506.532 606.397,506.532C617.048,506.532 626.497,500.357 630.963,490.923L685.25,366.543L669.101,366.543L633.712,447.578Z" style="fill:rgb(238,238,238);fill-rule:nonzero;"/>
            <path d="M684.036,449.175L668.76,449.175L659.492,485.574L668.245,485.574L684.036,449.175Z" style="fill:rgb(238,238,238);fill-rule:nonzero;"/>
            <path d="M779.209,366.543L779.209,340.259L765.144,342.664L765.144,366.543L748.995,366.543L748.995,380.608L765.144,380.608L765.144,438.519C765.144,455.187 778.523,468.566 795.186,468.566C801.886,468.566 812.709,465.993 812.709,465.993L809.96,453.298C809.96,453.298 803.947,454.501 795.186,454.501C786.425,454.501 779.209,447.455 779.209,438.691L779.209,380.608L809.273,380.608L809.273,366.543L779.209,366.543Z" style="fill:rgb(238,238,238);fill-rule:nonzero;"/>
            <path d="M867.865,378.032C888.486,378.032 905.155,395.216 905.155,416.352C905.155,437.489 888.486,454.501 867.865,454.501C847.244,454.501 830.575,437.489 830.575,416.352C830.575,395.216 847.244,378.032 867.865,378.032ZM867.865,363.966C839.683,363.966 816.853,387.483 816.853,416.352C816.853,445.221 839.683,468.566 867.865,468.566C896.047,468.566 918.876,445.221 918.876,416.352C918.876,387.483 896.047,363.966 867.865,363.966Z" style="fill:rgb(238,238,238);fill-rule:nonzero;"/>
            <path d="M1078.3,390.061C1069.19,373.915 1052.36,363.966 1034.15,363.966C1005.98,363.966 983.148,387.483 983.148,416.352C983.148,445.221 1005.98,468.566 1034.15,468.566C1052.36,468.566 1069.19,458.617 1078.3,442.472L1066.45,435.426C1059.75,447.283 1047.55,454.501 1034.15,454.501C1013.53,454.501 996.87,437.489 996.87,416.352C996.87,395.216 1013.53,378.032 1034.15,378.032C1047.55,378.032 1059.75,385.249 1066.45,397.106L1078.3,390.061Z" style="fill:rgb(238,238,238);fill-rule:nonzero;"/>
            <path d="M1158.89,435.26C1153.91,446.255 1143.08,454.157 1131.05,454.157C1117.3,454.157 1106.82,443.85 1106.13,430.278L1106.13,366.543L1092.07,366.543L1092.07,429.934C1091.89,451.752 1107.85,468.566 1129.5,468.566C1144.11,468.566 1155.11,460.847 1161.64,449.003L1161.64,465.989L1175.71,465.989L1175.71,366.543L1161.64,366.543L1161.64,423.124C1161.64,427.239 1160.61,431.354 1158.89,435.127L1158.89,435.26Z" style="fill:rgb(238,238,238);fill-rule:nonzero;"/>
            <path d="M1219.51,366.543L1219.51,340.259L1205.45,342.664L1205.45,366.543L1189.3,366.543L1189.3,380.608L1205.45,380.608L1205.45,438.519C1205.45,455.187 1218.83,468.566 1235.49,468.566C1242.19,468.566 1253.01,465.993 1253.01,465.993L1250.26,453.298C1250.26,453.298 1244.25,454.501 1235.49,454.501C1226.73,454.501 1219.51,447.455 1219.51,438.691L1219.51,380.608L1249.58,380.608L1249.58,366.543L1219.51,366.543Z" style="fill:rgb(238,238,238);fill-rule:nonzero;"/>
            <path d="M1399.56,388.511C1394.41,374.087 1381.02,363.966 1364.35,363.966C1349.74,363.966 1338.74,371.685 1332.21,383.529L1332.21,366.543L1318.14,366.543L1318.14,465.989L1332.21,465.989L1332.21,409.579C1332.21,405.464 1333.24,401.349 1334.96,397.577C1339.94,386.449 1350.94,378.547 1362.97,378.547C1376.72,378.547 1387.03,388.855 1387.72,402.426L1387.72,465.989L1401.96,465.989L1401.96,409.47C1401.96,405.347 1402.82,401.224 1404.53,397.444C1409.52,386.449 1420.52,378.547 1432.55,378.547C1446.3,378.547 1456.78,388.855 1457.47,402.426L1457.47,465.989L1471.53,465.989L1471.53,402.77C1471.7,380.952 1455.75,363.966 1434.09,363.966C1417.42,363.966 1405.74,374.087 1399.56,388.511Z" style="fill:rgb(238,238,238);fill-rule:nonzero;"/>
            <path d="M1523.77,447.578L1488.38,366.543L1472.23,366.543L1515.69,466.081L1507.28,485.098C1505.21,489.038 1501.09,491.78 1496.45,491.78C1493.19,491.78 1489.92,490.58 1487.69,488.182L1477.21,498.47C1482.37,503.616 1489.24,506.532 1496.45,506.532C1507.1,506.532 1516.55,500.357 1521.02,490.923L1575.31,366.543L1559.16,366.543L1523.77,447.578Z" style="fill:rgb(238,238,238);fill-rule:nonzero;"/>
            <path d="M1651.92,373.397C1651.92,373.397 1641.97,361.217 1618.08,361.217C1595.4,361.217 1581.5,376.314 1581.5,391.951C1581.5,394.013 1581.67,396.075 1582.19,398.138C1585.45,411.713 1596.25,417.212 1609.32,420.477C1621.35,423.742 1637.33,424.085 1639.22,437.661L1639.22,438.863C1639.22,442.3 1637.5,445.565 1634.58,447.971C1630.46,451.58 1624.1,453.642 1616.71,453.642C1600.04,453.642 1586.65,444.878 1586.65,444.878L1578.41,457.587C1578.41,457.587 1595.57,468.566 1616.71,468.566C1639.57,468.566 1654.32,454.156 1654.32,438.863C1654.32,437.832 1654.32,436.63 1654.15,435.599C1651.58,416.696 1636.82,411.197 1620.66,407.589C1611.04,405.527 1599.17,404.152 1596.94,394.529C1596.77,393.498 1596.6,392.639 1596.6,391.608C1596.6,383.187 1605.54,376.314 1618.08,376.314C1633.72,376.314 1640.77,383.359 1640.77,383.359L1651.92,373.397Z" style="fill:rgb(238,238,238);fill-rule:nonzero;"/>
            <path d="M1747.6,408.632L1681.63,408.632C1683.01,401.068 1686.44,394.02 1691.77,388.518C1698.64,381.642 1707.75,377.86 1716.85,377.86C1722.86,377.86 1728.7,379.579 1733.69,382.845C1741.07,387.659 1746.23,396.254 1747.6,408.632ZM1681.81,378.719C1672.37,388.518 1667.23,401.928 1667.23,415.837C1667.23,445.046 1688.33,468.566 1716.51,468.566C1744.68,468.566 1757.74,457.588 1757.74,457.588L1748.81,446.077C1748.81,446.077 1737.12,454.501 1716.51,454.501C1698.13,454.501 1684.38,440.92 1681.46,422.869L1762.03,422.869L1762.03,414.293C1761.69,392.816 1752.93,378.891 1741.42,371.17C1734.2,366.367 1725.61,363.966 1717.02,363.966C1704.31,363.966 1691.26,368.94 1681.81,378.719Z" style="fill:rgb(238,238,238);fill-rule:nonzero;"/>
            <path d="M1789.86,326L1775.8,328.405L1775.8,465.989L1789.86,465.989L1789.86,326Z" style="fill:rgb(238,238,238);fill-rule:nonzero;"/>
            <path d="M1817.37,351.587L1817.37,366.199L1803.63,366.199L1803.63,380.437L1817.37,380.437L1817.37,465.989L1831.61,465.989L1831.61,380.437L1856.17,380.437L1856.17,366.199L1831.61,366.199L1831.61,351.587C1831.61,342.819 1838.48,335.942 1847.24,335.942C1854.8,335.942 1858.24,336.458 1858.24,336.458L1859.78,323.592C1859.78,323.592 1854.8,321.705 1847.24,321.705C1830.75,321.705 1817.37,335.085 1817.37,351.587Z" style="fill:rgb(238,238,238);fill-rule:nonzero;"/>
            <path d="M1997.56,373.397C1997.56,373.397 1987.61,361.217 1963.73,361.217C1941.04,361.217 1927.15,376.314 1927.15,391.951C1927.15,394.013 1927.32,396.075 1927.83,398.138C1931.09,411.713 1941.9,417.212 1954.96,420.477C1966.99,423.742 1982.98,424.085 1984.87,437.661L1984.87,438.863C1984.87,442.3 1983.15,445.565 1980.23,447.971C1976.1,451.58 1969.74,453.642 1962.35,453.642C1945.68,453.642 1932.29,444.878 1932.29,444.878L1924.06,457.587C1924.06,457.587 1941.21,468.566 1962.35,468.566C1985.21,468.566 1999.97,454.156 1999.97,438.863C1999.97,437.832 1999.97,436.63 1999.79,435.599C1997.22,416.696 1982.46,411.197 1966.31,407.589C1956.68,405.527 1944.82,404.152 1942.59,394.529C1942.41,393.498 1942.24,392.639 1942.24,391.608C1942.24,383.187 1951.18,376.314 1963.73,376.314C1979.37,376.314 1986.41,383.359 1986.41,383.359L1997.56,373.397Z" style="fill:rgb(238,238,238);fill-rule:nonzero;"/>
            <path d="M2063.88,378.032C2084.5,378.032 2101.17,395.216 2101.17,416.352C2101.17,437.489 2084.5,454.501 2063.88,454.501C2043.26,454.501 2026.59,437.489 2026.59,416.352C2026.59,395.216 2043.26,378.032 2063.88,378.032ZM2063.88,363.966C2035.7,363.966 2012.87,387.483 2012.87,416.352C2012.87,445.221 2035.7,468.566 2063.88,468.566C2092.07,468.566 2114.89,445.221 2114.89,416.352C2114.89,387.483 2092.07,363.966 2063.88,363.966Z" style="fill:rgb(238,238,238);fill-rule:nonzero;"/>
            <path d="M2210.07,388.511C2204.93,374.087 2191.53,363.966 2174.86,363.966C2160.25,363.966 2149.26,371.685 2142.72,383.529L2142.72,366.543L2128.66,366.543L2128.66,465.989L2142.72,465.989L2142.72,409.579C2142.72,405.464 2143.76,401.349 2145.47,397.577C2150.46,386.449 2161.46,378.547 2173.49,378.547C2187.24,378.547 2197.55,388.855 2198.24,402.426L2198.24,465.989L2212.47,465.989L2212.47,409.47C2212.47,405.347 2213.33,401.224 2215.05,397.444C2220.03,386.449 2231.03,378.547 2243.06,378.547C2256.81,378.547 2267.3,388.855 2267.98,402.426L2267.98,465.989L2282.05,465.989L2282.05,402.77C2282.22,380.952 2266.26,363.966 2244.61,363.966C2227.94,363.966 2216.25,374.087 2210.07,388.511Z" style="fill:rgb(238,238,238);fill-rule:nonzero;"/>
            <path d="M2375.33,408.632L2309.36,408.632C2310.74,401.068 2314.17,394.02 2319.5,388.518C2326.37,381.642 2335.48,377.86 2344.58,377.86C2350.59,377.86 2356.43,379.579 2361.42,382.845C2368.8,387.659 2373.96,396.254 2375.33,408.632ZM2309.53,378.719C2300.1,388.518 2294.95,401.928 2294.95,415.837C2294.95,445.046 2316.06,468.566 2344.24,468.566C2372.41,468.566 2385.47,457.588 2385.47,457.588L2376.53,446.077C2376.53,446.077 2364.85,454.501 2344.24,454.501C2325.86,454.501 2312.11,440.92 2309.19,422.869L2389.76,422.869L2389.76,414.293C2389.42,392.816 2380.66,378.891 2369.15,371.17C2361.93,366.367 2353.34,363.966 2344.75,363.966C2332.04,363.966 2318.98,368.94 2309.53,378.719Z" style="fill:rgb(238,238,238);fill-rule:nonzero;"/>
            <path d="M2527.54,373.397C2527.54,373.397 2517.59,361.217 2493.71,361.217C2471.02,361.217 2457.13,376.314 2457.13,391.951C2457.13,394.013 2457.3,396.075 2457.81,398.138C2461.07,411.713 2471.88,417.212 2484.94,420.477C2496.97,423.742 2512.96,424.085 2514.85,437.661L2514.85,438.863C2514.85,442.3 2513.13,445.565 2510.21,447.971C2506.08,451.58 2499.72,453.642 2492.33,453.642C2475.66,453.642 2462.27,444.878 2462.27,444.878L2454.03,457.587C2454.03,457.587 2471.19,468.566 2492.33,468.566C2515.19,468.566 2529.95,454.156 2529.95,438.863C2529.95,437.832 2529.95,436.63 2529.77,435.599C2527.2,416.696 2512.44,411.197 2496.29,407.589C2486.66,405.527 2474.8,404.152 2472.57,394.529C2472.39,393.498 2472.22,392.639 2472.22,391.608C2472.22,383.187 2481.16,376.314 2493.71,376.314C2509.35,376.314 2516.39,383.359 2516.39,383.359L2527.54,373.397Z" style="fill:rgb(238,238,238);fill-rule:nonzero;"/>
            <path d="M2557.78,326L2543.71,328.405L2543.71,465.989L2557.78,465.989L2557.78,326Z" style="fill:rgb(238,238,238);fill-rule:nonzero;"/>
            <path d="M2658.64,414.978L2658.64,417.555C2657.95,438.004 2641.8,454.501 2621.69,454.501C2601.24,454.501 2584.75,437.317 2584.75,416.352C2584.75,395.388 2601.24,378.032 2621.69,378.032C2641.8,378.032 2657.95,394.529 2658.64,414.978ZM2658.64,446.768L2658.64,465.989L2672.7,465.989L2672.7,366.543L2658.64,366.543L2658.64,386.056C2651.42,372.714 2638.88,363.966 2621.69,363.966C2593.51,363.966 2570.68,387.483 2570.68,416.352C2570.68,445.221 2593.51,468.566 2621.69,468.566C2638.88,468.566 2651.42,459.99 2658.64,446.768Z" style="fill:rgb(238,238,238);fill-rule:nonzero;"/>
            <path d="M2781.62,390.061C2772.51,373.915 2755.68,363.966 2737.47,363.966C2709.3,363.966 2686.47,387.483 2686.47,416.352C2686.47,445.221 2709.3,468.566 2737.47,468.566C2755.68,468.566 2772.51,458.617 2781.62,442.472L2769.77,435.426C2763.07,447.283 2750.87,454.501 2737.47,454.501C2716.86,454.501 2700.19,437.489 2700.19,416.352C2700.19,395.216 2716.86,378.032 2737.47,378.032C2750.87,378.032 2763.07,385.249 2769.77,397.106L2781.62,390.061Z" style="fill:rgb(238,238,238);fill-rule:nonzero;"/>
            <path d="M2809.45,412.929L2809.45,328.577L2795.39,328.577L2795.39,465.989L2809.45,465.989L2809.45,433.468L2823.88,418.064L2861.85,465.989L2880.06,465.989L2833.67,407.623L2871.64,366.543L2852.57,366.543L2809.45,412.929Z" style="fill:rgb(238,238,238);fill-rule:nonzero;"/>
            <path d="M2903.43,387.673C2898.11,387.673 2893.65,391.963 2893.65,397.283C2893.65,402.603 2898.11,407.064 2903.43,407.064C2908.75,407.064 2913.21,402.603 2913.21,397.283C2913.21,391.963 2908.75,387.673 2903.43,387.673ZM2903.43,449.175C2898.11,449.175 2893.65,453.637 2893.65,458.956C2893.65,464.276 2898.11,468.566 2903.43,468.566C2908.75,468.566 2913.21,464.276 2913.21,458.956C2913.21,453.637 2908.75,449.175 2903.43,449.175Z" style="fill:rgb(238,238,238);fill-rule:nonzero;"/>
            <path d="M337.703,546.457L230.011,546.457L230.011,560.523L276.738,560.523L276.738,683.869L290.976,683.869L290.976,560.523L337.703,560.523L337.703,546.457Z" style="fill:rgb(238,238,238);fill-rule:nonzero;"/>
            <path d="M365.362,601.581L365.362,546.457L351.296,546.457L351.296,683.869L365.362,683.869L365.362,627.522C365.362,623.399 366.221,619.276 367.939,615.496C372.923,604.501 383.922,596.599 395.952,596.599C409.701,596.599 420.012,606.907 420.7,620.478L420.7,683.869L434.937,683.869L434.937,620.822L434.766,620.822C434.937,599.004 419.153,582.018 397.499,582.018C382.891,582.018 371.892,589.737 365.362,601.581Z" style="fill:rgb(238,238,238);fill-rule:nonzero;"/>
            <path d="M465.345,584.423L451.279,584.423L451.279,683.869L465.345,683.869L465.345,584.423ZM458.312,546.457C452.992,546.457 448.531,550.919 448.531,556.239C448.531,561.558 452.992,566.02 458.312,566.02C463.632,566.02 468.093,561.558 468.093,556.239C468.093,550.919 463.632,546.457 458.312,546.457L458.312,546.457Z" style="fill:rgb(238,238,238);fill-rule:nonzero;"/>
            <path d="M554.337,591.278C554.337,591.278 544.387,579.098 520.501,579.098C497.815,579.098 483.92,594.194 483.92,609.832C483.92,611.894 484.091,613.956 484.606,616.018C487.865,629.593 498.673,635.092 511.735,638.357C523.767,641.622 539.751,641.966 541.642,655.541L541.642,656.744C541.642,660.181 539.923,663.445 537.001,665.851C532.876,669.46 526.517,671.522 519.126,671.522C502.454,671.522 489.066,662.758 489.066,662.758L480.828,675.467C480.828,675.467 497.987,686.446 519.126,686.446C541.985,686.446 556.738,672.037 556.738,656.744C556.738,655.713 556.738,654.51 556.567,653.479C553.993,634.576 539.236,629.078 523.079,625.469C513.454,623.407 501.594,622.032 499.36,612.409C499.188,611.378 499.016,610.519 499.016,609.488C499.016,601.068 507.954,594.194 520.501,594.194C536.142,594.194 543.186,601.24 543.186,601.24L554.337,591.278Z" style="fill:rgb(238,238,238);fill-rule:nonzero;"/>
            <path d="M693.496,584.423L665.665,661.408L638.007,584.423L621.858,584.423L657.591,683.869L673.74,683.869L701.57,606.713L729.228,683.869L745.377,683.869L781.282,584.423L765.133,584.423L737.303,661.408L709.644,584.423L693.496,584.423Z" style="fill:rgb(238,238,238);fill-rule:nonzero;"/>
            <path d="M870.968,632.858L870.968,635.435C870.28,655.884 854.127,672.381 834.022,672.381C813.573,672.381 797.076,655.197 797.076,634.233C797.076,613.268 813.573,595.912 834.022,595.912C854.127,595.912 870.28,612.409 870.968,632.858ZM870.968,664.648L870.968,683.869L885.033,683.869L885.033,584.423L870.968,584.423L870.968,603.936C863.75,590.594 851.206,581.846 834.022,581.846C805.84,581.846 783.01,605.363 783.01,634.233C783.01,663.102 805.84,686.446 834.022,686.446C851.206,686.446 863.75,677.87 870.968,664.648Z" style="fill:rgb(238,238,238);fill-rule:nonzero;"/>
            <path d="M972.307,591.278C972.307,591.278 962.357,579.098 938.472,579.098C915.786,579.098 901.89,594.194 901.89,609.832C901.89,611.894 902.062,613.956 902.577,616.018C905.836,629.593 916.644,635.092 929.706,638.357C941.737,641.622 957.722,641.966 959.613,655.541L959.613,656.744C959.613,660.181 957.894,663.445 954.972,665.851C950.847,669.46 944.487,671.522 937.097,671.522C920.424,671.522 907.037,662.758 907.037,662.758L898.798,675.467C898.798,675.467 915.957,686.446 937.097,686.446C959.956,686.446 974.709,672.037 974.709,656.744C974.709,655.713 974.709,654.51 974.537,653.479C971.964,634.576 957.206,629.078 941.05,625.469C931.425,623.407 919.565,622.032 917.33,612.409C917.159,611.378 916.987,610.519 916.987,609.488C916.987,601.068 925.924,594.194 938.472,594.194C954.113,594.194 961.157,601.24 961.157,601.24L972.307,591.278Z" style="fill:rgb(238,238,238);fill-rule:nonzero;"/>
            <path d="M1070.05,584.423L1070.05,558.139L1055.99,560.544L1055.99,584.423L1039.84,584.423L1039.84,598.489L1055.99,598.489L1055.99,656.4C1055.99,673.067 1069.37,686.446 1086.03,686.446C1092.73,686.446 1103.55,683.873 1103.55,683.873L1100.8,671.178C1100.8,671.178 1094.79,672.381 1086.03,672.381C1077.27,672.381 1070.05,665.335 1070.05,656.571L1070.05,598.489L1100.12,598.489L1100.12,584.423L1070.05,584.423Z" style="fill:rgb(238,238,238);fill-rule:nonzero;"/>
            <path d="M1131.38,601.581L1131.38,546.457L1117.32,546.457L1117.32,683.869L1131.38,683.869L1131.38,627.522C1131.38,623.399 1132.24,619.276 1133.96,615.496C1138.94,604.501 1149.94,596.599 1161.97,596.599C1175.72,596.599 1186.03,606.907 1186.72,620.478L1186.72,683.869L1200.96,683.869L1200.96,620.822L1200.79,620.822C1200.96,599.004 1185.17,582.018 1163.52,582.018C1148.91,582.018 1137.91,589.737 1131.38,601.581Z" style="fill:rgb(238,238,238);fill-rule:nonzero;"/>
            <path d="M1294.07,626.512L1228.1,626.512C1229.48,618.948 1232.91,611.9 1238.24,606.399C1245.11,599.522 1254.21,595.74 1263.32,595.74C1269.33,595.74 1275.17,597.459 1280.16,600.725C1287.54,605.539 1292.7,614.135 1294.07,626.512ZM1228.27,596.599C1218.84,606.399 1213.69,619.808 1213.69,633.717C1213.69,662.926 1234.8,686.446 1262.98,686.446C1291.15,686.446 1304.21,675.468 1304.21,675.468L1295.27,663.957C1295.27,663.957 1283.59,672.381 1262.98,672.381C1244.6,672.381 1230.85,658.8 1227.93,640.75L1308.5,640.75L1308.5,632.173C1308.16,610.696 1299.4,596.771 1287.89,589.05C1280.67,584.248 1272.08,581.846 1263.49,581.846C1250.78,581.846 1237.72,586.821 1228.27,596.599Z" style="fill:rgb(238,238,238);fill-rule:nonzero;"/>
            <path d="M1387.38,569.467L1387.38,584.08L1373.63,584.08L1373.63,598.317L1387.38,598.317L1387.38,683.869L1401.61,683.869L1401.61,598.317L1426.18,598.317L1426.18,584.08L1401.61,584.08L1401.61,569.467C1401.61,560.699 1408.49,553.823 1417.25,553.823C1424.81,553.823 1428.24,554.338 1428.24,554.338L1429.79,541.472C1429.79,541.472 1424.81,539.585 1417.25,539.585C1400.76,539.585 1387.38,552.965 1387.38,569.467Z" style="fill:rgb(238,238,238);fill-rule:nonzero;"/>
            <path d="M1460.37,584.423L1446.3,584.423L1446.3,683.869L1460.37,683.869L1460.37,584.423ZM1453.33,546.457C1448.01,546.457 1443.55,550.919 1443.55,556.239C1443.55,561.558 1448.01,566.02 1453.33,566.02C1458.65,566.02 1463.11,561.558 1463.11,556.239C1463.11,550.919 1458.65,546.457 1453.33,546.457L1453.33,546.457Z" style="fill:rgb(238,238,238);fill-rule:nonzero;"/>
            <path d="M1491.12,590.95L1491.12,581.675L1476.71,581.675L1476.71,683.869L1491.12,683.869L1491.29,617.572C1491.29,604.33 1501.94,593.679 1515.17,593.679C1519.63,593.679 1527.88,594.709 1527.88,594.709L1527.88,580.47C1527.88,580.47 1519.46,579.098 1515.17,579.098C1504.35,579.098 1496.27,583.729 1491.12,590.934L1491.12,590.95Z" style="fill:rgb(238,238,238);fill-rule:nonzero;"/>
            <path d="M1605.53,591.278C1605.53,591.278 1595.58,579.098 1571.7,579.098C1549.01,579.098 1535.12,594.194 1535.12,609.832C1535.12,611.894 1535.29,613.956 1535.8,616.018C1539.06,629.593 1549.87,635.092 1562.93,638.357C1574.96,641.622 1590.95,641.966 1592.84,655.541L1592.84,656.744C1592.84,660.181 1591.12,663.445 1588.2,665.851C1584.07,669.46 1577.71,671.522 1570.32,671.522C1553.65,671.522 1540.26,662.758 1540.26,662.758L1532.03,675.467C1532.03,675.467 1549.18,686.446 1570.32,686.446C1593.18,686.446 1607.93,672.037 1607.93,656.744C1607.93,655.713 1607.93,654.51 1607.76,653.479C1605.19,634.576 1590.43,629.078 1574.28,625.469C1564.65,623.407 1552.79,622.032 1550.56,612.409C1550.38,611.378 1550.21,610.519 1550.21,609.488C1550.21,601.068 1559.15,594.194 1571.7,594.194C1587.34,594.194 1594.38,601.24 1594.38,601.24L1605.53,591.278Z" style="fill:rgb(238,238,238);fill-rule:nonzero;"/>
            <path d="M1640.92,584.423L1640.92,558.139L1626.85,560.544L1626.85,584.423L1610.71,584.423L1610.71,598.489L1626.85,598.489L1626.85,656.4C1626.85,673.067 1640.23,686.446 1656.9,686.446C1663.6,686.446 1674.42,683.873 1674.42,683.873L1671.67,671.178C1671.67,671.178 1665.66,672.381 1656.9,672.381C1648.13,672.381 1640.92,665.335 1640.92,656.571L1640.92,598.489L1670.98,598.489L1670.98,584.423L1640.92,584.423Z" style="fill:rgb(238,238,238);fill-rule:nonzero;"/>
            <path d="M1753.29,569.467L1753.29,584.08L1739.55,584.08L1739.55,598.317L1753.29,598.317L1753.29,683.869L1767.53,683.869L1767.53,598.317L1792.1,598.317L1792.1,584.08L1767.53,584.08L1767.53,569.467C1767.53,560.699 1774.4,553.823 1783.16,553.823C1790.72,553.823 1794.16,554.338 1794.16,554.338L1795.7,541.472C1795.7,541.472 1790.72,539.585 1783.16,539.585C1766.67,539.585 1753.29,552.965 1753.29,569.467Z" style="fill:rgb(238,238,238);fill-rule:nonzero;"/>
            <path d="M1839.87,595.912C1860.49,595.912 1877.15,613.096 1877.15,634.233C1877.15,655.369 1860.49,672.381 1839.87,672.381C1819.25,672.381 1802.58,655.369 1802.58,634.233C1802.58,613.096 1819.25,595.912 1839.87,595.912ZM1839.87,581.846C1811.68,581.846 1788.85,605.363 1788.85,634.233C1788.85,663.102 1811.68,686.446 1839.87,686.446C1868.05,686.446 1890.88,663.102 1890.88,634.233C1890.88,605.363 1868.05,581.846 1839.87,581.846Z" style="fill:rgb(238,238,238);fill-rule:nonzero;"/>
            <path d="M1918.71,601.569L1918.71,584.423L1904.64,584.423L1904.64,683.869L1918.71,683.869L1918.71,627.459C1918.71,623.344 1919.74,619.229 1921.46,615.457C1926.44,604.33 1937.44,596.427 1949.47,596.427C1963.22,596.427 1973.53,606.735 1974.22,620.306L1974.22,683.869L1988.46,683.869L1988.46,620.65C1988.63,598.832 1972.5,581.846 1950.85,581.846C1936.24,581.846 1925.24,589.566 1918.71,601.409L1918.71,601.569Z" style="fill:rgb(238,238,238);fill-rule:nonzero;"/>
            <path d="M2023.16,584.423L2023.16,558.139L2009.09,560.544L2009.09,584.423L1992.94,584.423L1992.94,598.489L2009.09,598.489L2009.09,656.4C2009.09,673.067 2022.47,686.446 2039.13,686.446C2045.83,686.446 2056.66,683.873 2056.66,683.873L2053.91,671.178C2053.91,671.178 2047.9,672.381 2039.13,672.381C2030.37,672.381 2023.16,665.335 2023.16,656.571L2023.16,598.489L2053.22,598.489L2053.22,584.423L2023.16,584.423Z" style="fill:rgb(238,238,238);fill-rule:nonzero;"/>
            <path d="M2135.53,569.467L2135.53,584.08L2121.79,584.08L2121.79,598.317L2135.53,598.317L2135.53,683.869L2149.77,683.869L2149.77,598.317L2174.34,598.317L2174.34,584.08L2149.77,584.08L2149.77,569.467C2149.77,560.699 2156.64,553.823 2165.4,553.823C2172.96,553.823 2176.4,554.338 2176.4,554.338L2177.94,541.472C2177.94,541.472 2172.96,539.585 2165.4,539.585C2148.91,539.585 2135.53,552.965 2135.53,569.467Z" style="fill:rgb(238,238,238);fill-rule:nonzero;"/>
            <path d="M2259.05,632.858L2259.05,635.435C2258.36,655.884 2242.21,672.381 2222.1,672.381C2201.65,672.381 2185.16,655.197 2185.16,634.233C2185.16,613.268 2201.65,595.912 2222.1,595.912C2242.21,595.912 2258.36,612.409 2259.05,632.858ZM2259.05,664.648L2259.05,683.869L2273.12,683.869L2273.12,584.423L2259.05,584.423L2259.05,603.936C2251.83,590.594 2239.29,581.846 2222.1,581.846C2193.92,581.846 2171.09,605.363 2171.09,634.233C2171.09,663.102 2193.92,686.446 2222.1,686.446C2239.29,686.446 2251.83,677.87 2259.05,664.648Z" style="fill:rgb(238,238,238);fill-rule:nonzero;"/>
            <path d="M2369.15,606.391C2364.01,591.967 2350.61,581.846 2333.94,581.846C2319.33,581.846 2308.34,589.566 2301.8,601.409L2301.8,584.423L2287.74,584.423L2287.74,683.869L2301.8,683.869L2301.8,627.459C2301.8,623.344 2302.84,619.229 2304.55,615.457C2309.54,604.33 2320.54,596.427 2332.57,596.427C2346.32,596.427 2356.63,606.735 2357.32,620.306L2357.32,683.869L2371.55,683.869L2371.55,627.35C2371.55,623.227 2372.41,619.104 2374.13,615.324C2379.11,604.33 2390.11,596.427 2402.14,596.427C2415.89,596.427 2426.38,606.735 2427.06,620.306L2427.06,683.869L2441.13,683.869L2441.13,620.65C2441.3,598.832 2425.34,581.846 2403.69,581.846C2387.02,581.846 2375.33,591.967 2369.15,606.391Z" style="fill:rgb(238,238,238);fill-rule:nonzero;"/>
            <path d="M2471.71,584.423L2457.64,584.423L2457.64,683.869L2471.71,683.869L2471.71,584.423ZM2464.67,546.457C2459.36,546.457 2454.89,550.919 2454.89,556.239C2454.89,561.558 2459.36,566.02 2464.67,566.02C2469.99,566.02 2474.46,561.558 2474.46,556.239C2474.46,550.919 2469.99,546.457 2464.67,546.457L2464.67,546.457Z" style="fill:rgb(238,238,238);fill-rule:nonzero;"/>
            <path d="M2502.11,543.88L2488.05,546.285L2488.05,683.869L2502.11,683.869L2502.11,543.88Z" style="fill:rgb(238,238,238);fill-rule:nonzero;"/>
            <path d="M2564.49,665.458L2529.1,584.423L2512.95,584.423L2556.41,683.961L2547.99,702.978C2545.93,706.919 2541.81,709.66 2537.17,709.66C2533.91,709.66 2530.64,708.461 2528.41,706.062L2517.93,716.35C2523.08,721.496 2529.95,724.412 2537.17,724.412C2547.82,724.412 2557.27,718.237 2561.74,708.803L2616.02,584.423L2599.88,584.423L2564.49,665.458Z" style="fill:rgb(238,238,238);fill-rule:nonzero;"/>
            <path d="M2711.19,584.423L2711.19,558.139L2697.12,560.544L2697.12,584.423L2680.97,584.423L2680.97,598.489L2697.12,598.489L2697.12,656.4C2697.12,673.067 2710.5,686.446 2727.16,686.446C2733.86,686.446 2744.68,683.873 2744.68,683.873L2741.94,671.178C2741.94,671.178 2735.92,672.381 2727.16,672.381C2718.4,672.381 2711.19,665.335 2711.19,656.571L2711.19,598.489L2741.25,598.489L2741.25,584.423L2711.19,584.423Z" style="fill:rgb(238,238,238);fill-rule:nonzero;"/>
            <path d="M2772.51,601.581L2772.51,546.457L2758.45,546.457L2758.45,683.869L2772.51,683.869L2772.51,627.522C2772.51,623.399 2773.38,619.276 2775.09,615.496C2780.08,604.501 2791.08,596.599 2803.11,596.599C2816.86,596.599 2827.17,606.907 2827.85,620.478L2827.85,683.869L2842.09,683.869L2842.09,620.822L2841.92,620.822C2842.09,599.004 2826.31,582.018 2804.65,582.018C2790.05,582.018 2779.05,589.737 2772.51,601.581Z" style="fill:rgb(238,238,238);fill-rule:nonzero;"/>
            <path d="M2942.78,632.858L2942.78,635.435C2942.1,655.884 2925.94,672.381 2905.84,672.381C2885.39,672.381 2868.89,655.197 2868.89,634.233C2868.89,613.268 2885.39,595.912 2905.84,595.912C2925.94,595.912 2942.1,612.409 2942.78,632.858ZM2942.78,664.648L2942.78,683.869L2956.85,683.869L2956.85,584.423L2942.78,584.423L2942.78,603.936C2935.57,590.594 2923.02,581.846 2905.84,581.846C2877.66,581.846 2854.83,605.363 2854.83,634.233C2854.83,663.102 2877.66,686.446 2905.84,686.446C2923.02,686.446 2935.57,677.87 2942.78,664.648Z" style="fill:rgb(238,238,238);fill-rule:nonzero;"/>
            <path d="M3001.69,584.423L3001.69,558.139L2987.62,560.544L2987.62,584.423L2971.47,584.423L2971.47,598.489L2987.62,598.489L2987.62,656.4C2987.62,673.067 3001,686.446 3017.66,686.446C3024.36,686.446 3035.19,683.873 3035.19,683.873L3032.44,671.178C3032.44,671.178 3026.43,672.381 3017.66,672.381C3008.9,672.381 3001.69,665.335 3001.69,656.571L3001.69,598.489L3031.75,598.489L3031.75,584.423L3001.69,584.423Z" style="fill:rgb(238,238,238);fill-rule:nonzero;"/>
            <rect x="3100.32" y="546.457" width="14.065" height="137.412" style="fill:rgb(238,238,238);fill-rule:nonzero;"/>
            <path d="M309.529,844.393L243.561,844.393C244.935,836.828 248.371,829.78 253.697,824.279C260.568,817.402 269.673,813.62 278.778,813.62C284.791,813.62 290.632,815.339 295.614,818.606C303.001,823.419 308.155,832.015 309.529,844.393ZM243.733,814.48C234.298,824.279 229.152,837.688 229.152,851.597C229.152,880.806 250.261,904.327 278.435,904.327C306.609,904.327 319.665,893.349 319.665,893.349L310.732,881.837C310.732,881.837 299.05,890.261 278.435,890.261C260.053,890.261 246.31,876.68 243.389,858.63L323.96,858.63L323.96,850.053C323.616,828.577 314.855,814.652 303.345,806.931C296.129,802.128 287.54,799.727 278.95,799.727C266.237,799.727 253.181,804.701 243.733,814.48Z" style="fill:rgb(238,238,238);fill-rule:nonzero;"/>
            <path d="M377.57,883.264L342.18,802.303L326.032,802.303L369.495,901.75L385.644,901.75L429.107,802.303L412.959,802.303L377.57,883.264Z" style="fill:rgb(238,238,238);fill-rule:nonzero;"/>
            <path d="M508.636,844.393L442.668,844.393C444.042,836.828 447.478,829.78 452.804,824.279C459.676,817.402 468.781,813.62 477.886,813.62C483.898,813.62 489.739,815.339 494.721,818.606C502.108,823.419 507.262,832.015 508.636,844.393ZM442.84,814.48C433.405,824.279 428.259,837.688 428.259,851.597C428.259,880.806 449.368,904.327 477.542,904.327C505.716,904.327 518.772,893.349 518.772,893.349L509.839,881.837C509.839,881.837 498.157,890.261 477.542,890.261C459.16,890.261 445.417,876.68 442.496,858.63L523.067,858.63L523.067,850.053C522.723,828.577 513.962,814.652 502.452,806.931C495.237,802.128 486.647,799.727 478.057,799.727C465.345,799.727 452.289,804.701 442.84,814.48Z" style="fill:rgb(238,238,238);fill-rule:nonzero;"/>
            <path d="M551.241,808.83L551.241,799.555L536.832,799.555L536.832,901.75L551.241,901.75L551.413,835.452C551.413,822.21 562.064,811.559 575.292,811.559C579.758,811.559 588.004,812.589 588.004,812.589L588.004,798.35C588.004,798.35 579.587,796.978 575.292,796.978C564.469,796.978 556.395,801.609 551.241,808.814L551.241,808.83Z" style="fill:rgb(238,238,238);fill-rule:nonzero;"/>
            <path d="M666.707,787.347L666.707,801.96L652.963,801.96L652.963,816.197L666.707,816.197L666.707,901.75L680.944,901.75L680.944,816.197L705.51,816.197L705.51,801.96L680.944,801.96L680.944,787.347C680.944,778.579 687.816,771.703 696.577,771.703C704.136,771.703 707.572,772.218 707.572,772.218L709.118,759.353C709.118,759.353 704.136,757.466 696.577,757.466C680.086,757.466 666.707,770.845 666.707,787.347Z" style="fill:rgb(238,238,238);fill-rule:nonzero;"/>
            <path d="M739.697,802.303L725.632,802.303L725.632,901.75L739.697,901.75L739.697,802.303ZM732.664,764.337C727.345,764.337 722.883,768.799 722.883,774.119C722.883,779.438 727.345,783.9 732.664,783.9C737.984,783.9 742.446,779.438 742.446,774.119C742.446,768.799 737.984,764.337 732.664,764.337L732.664,764.337Z" style="fill:rgb(238,238,238);fill-rule:nonzero;"/>
            <path d="M770.104,819.449L770.104,802.303L756.039,802.303L756.039,901.75L770.104,901.75L770.104,845.34C770.104,841.225 771.135,837.11 772.854,833.337C777.838,822.21 788.837,814.307 800.867,814.307C814.615,814.307 824.927,824.615 825.615,838.187L825.615,901.75L839.852,901.75L839.852,838.53C840.024,816.713 823.896,799.727 802.242,799.727C787.634,799.727 776.635,807.446 770.104,819.289L770.104,819.449Z" style="fill:rgb(238,238,238);fill-rule:nonzero;"/>
            <path d="M870.259,802.303L856.194,802.303L856.194,901.75L870.259,901.75L870.259,802.303ZM863.226,764.337C857.907,764.337 853.445,768.799 853.445,774.119C853.445,779.438 857.907,783.9 863.226,783.9C868.546,783.9 873.008,779.438 873.008,774.119C873.008,768.799 868.546,764.337 863.226,764.337L863.226,764.337Z" style="fill:rgb(238,238,238);fill-rule:nonzero;"/>
            <path d="M959.251,809.158C959.251,809.158 949.301,796.978 925.415,796.978C902.73,796.978 888.834,812.074 888.834,827.712C888.834,829.774 889.006,831.836 889.52,833.898C892.78,847.473 903.587,852.972 916.65,856.237C928.681,859.502 944.666,859.846 946.556,873.421L946.556,874.624C946.556,878.061 944.838,881.326 941.916,883.731C937.791,887.34 931.431,889.402 924.04,889.402C907.368,889.402 893.981,880.638 893.981,880.638L885.742,893.348C885.742,893.348 902.901,904.327 924.04,904.327C946.9,904.327 961.653,889.917 961.653,874.624C961.653,873.593 961.653,872.39 961.481,871.359C958.908,852.457 944.15,846.958 927.994,843.349C918.368,841.287 906.509,839.912 904.274,830.289C904.102,829.258 903.931,828.399 903.931,827.368C903.931,818.948 912.868,812.074 925.415,812.074C941.056,812.074 948.1,819.12 948.1,819.12L959.251,809.158Z" style="fill:rgb(238,238,238);fill-rule:nonzero;"/>
            <path d="M989.483,819.461L989.483,764.337L975.418,764.337L975.418,901.75L989.483,901.75L989.483,845.402C989.483,841.279 990.342,837.156 992.061,833.376C997.045,822.382 1008.04,814.479 1020.07,814.479C1033.82,814.479 1044.13,824.787 1044.82,838.358L1044.82,901.75L1059.06,901.75L1059.06,838.702L1058.89,838.702C1059.06,816.884 1043.28,799.898 1021.62,799.898C1007.01,799.898 996.014,807.618 989.483,819.461Z" style="fill:rgb(238,238,238);fill-rule:nonzero;"/>
            <path d="M1152.17,844.393L1086.2,844.393C1087.58,836.828 1091.01,829.78 1096.34,824.279C1103.21,817.402 1112.32,813.62 1121.42,813.62C1127.43,813.62 1133.27,815.339 1138.26,818.606C1145.64,823.419 1150.8,832.015 1152.17,844.393ZM1086.37,814.48C1076.94,824.279 1071.79,837.688 1071.79,851.597C1071.79,880.806 1092.9,904.327 1121.08,904.327C1149.25,904.327 1162.31,893.349 1162.31,893.349L1153.37,881.837C1153.37,881.837 1141.69,890.261 1121.08,890.261C1102.69,890.261 1088.95,876.68 1086.03,858.63L1166.6,858.63L1166.6,850.053C1166.26,828.577 1157.5,814.652 1145.99,806.931C1138.77,802.128 1130.18,799.727 1121.59,799.727C1108.88,799.727 1095.82,804.701 1086.37,814.48Z" style="fill:rgb(238,238,238);fill-rule:nonzero;"/>
            <path d="M1267.29,850.91L1267.29,853.487C1266.61,873.936 1250.62,890.261 1230.52,890.261C1210.07,890.261 1193.57,873.077 1193.57,852.113C1193.57,831.148 1210.07,813.964 1230.52,813.964C1250.62,813.964 1266.61,830.461 1267.29,850.91ZM1267.29,821.697C1260.08,808.475 1247.7,799.898 1230.52,799.898C1202.34,799.898 1179.51,823.244 1179.51,852.113C1179.51,880.982 1202.34,904.327 1230.52,904.327C1247.7,904.327 1260.08,895.75 1267.29,882.528L1267.29,901.75L1281.36,901.75L1281.36,764.337L1267.29,764.337L1267.29,821.697Z" style="fill:rgb(238,238,238);fill-rule:nonzero;"/>
            <path d="M1295.98,894.717C1295.98,900.036 1300.44,904.327 1305.76,904.327C1311.08,904.327 1315.55,900.036 1315.55,894.717C1315.55,889.397 1311.08,884.936 1305.76,884.936C1300.44,884.936 1295.98,889.397 1295.98,894.717Z" style="fill:rgb(238,238,238);fill-rule:nonzero;"/>
            <path d="M1488.2,764.337L1380.5,764.337L1380.5,778.403L1427.23,778.403L1427.23,901.75L1441.47,901.75L1441.47,778.403L1488.2,778.403L1488.2,764.337Z" style="fill:rgb(238,238,238);fill-rule:nonzero;"/>
            <path d="M1491.63,808.83L1491.63,799.555L1477.22,799.555L1477.22,901.75L1491.63,901.75L1491.8,835.452C1491.8,822.21 1502.45,811.559 1515.68,811.559C1520.15,811.559 1528.4,812.589 1528.4,812.589L1528.4,798.35C1528.4,798.35 1519.98,796.978 1515.68,796.978C1504.86,796.978 1496.79,801.609 1491.63,808.814L1491.63,808.83Z" style="fill:rgb(238,238,238);fill-rule:nonzero;"/>
            <path d="M1608.81,871.02C1603.83,882.015 1593,889.918 1580.97,889.918C1567.23,889.918 1556.74,879.61 1556.05,866.038L1556.05,802.303L1541.99,802.303L1541.99,865.695C1541.82,887.512 1557.77,904.327 1579.43,904.327C1594.04,904.327 1605.03,896.607 1611.57,884.764L1611.57,901.75L1625.63,901.75L1625.63,802.303L1611.57,802.303L1611.57,858.885C1611.57,863 1610.53,867.115 1608.81,870.887L1608.81,871.02Z" style="fill:rgb(238,238,238);fill-rule:nonzero;"/>
            <path d="M1711.87,809.158C1711.87,809.158 1701.92,796.978 1678.04,796.978C1655.35,796.978 1641.46,812.074 1641.46,827.712C1641.46,829.774 1641.63,831.836 1642.14,833.898C1645.4,847.473 1656.21,852.972 1669.27,856.237C1681.3,859.502 1697.29,859.846 1699.18,873.421L1699.18,874.624C1699.18,878.061 1697.46,881.326 1694.54,883.731C1690.41,887.34 1684.05,889.402 1676.66,889.402C1659.99,889.402 1646.6,880.638 1646.6,880.638L1638.36,893.348C1638.36,893.348 1655.52,904.327 1676.66,904.327C1699.52,904.327 1714.28,889.917 1714.28,874.624C1714.28,873.593 1714.28,872.39 1714.1,871.359C1711.53,852.457 1696.77,846.958 1680.62,843.349C1670.99,841.287 1659.13,839.912 1656.9,830.289C1656.73,829.258 1656.55,828.399 1656.55,827.368C1656.55,818.948 1665.49,812.074 1678.04,812.074C1693.68,812.074 1700.72,819.12 1700.72,819.12L1711.87,809.158Z" style="fill:rgb(238,238,238);fill-rule:nonzero;"/>
            <path d="M1747.26,802.303L1747.26,776.019L1733.19,778.424L1733.19,802.303L1717.05,802.303L1717.05,816.369L1733.19,816.369L1733.19,874.28C1733.19,890.947 1746.57,904.327 1763.24,904.327C1769.94,904.327 1780.76,901.754 1780.76,901.754L1778.01,889.058C1778.01,889.058 1772,890.261 1763.24,890.261C1754.47,890.261 1747.26,883.216 1747.26,874.452L1747.26,816.369L1777.32,816.369L1777.32,802.303L1747.26,802.303Z" style="fill:rgb(238,238,238);fill-rule:nonzero;"/>
            <path d="M1927.3,824.271C1922.15,809.847 1908.76,799.727 1892.09,799.727C1877.48,799.727 1866.49,807.446 1859.95,819.289L1859.95,802.303L1845.89,802.303L1845.89,901.75L1859.95,901.75L1859.95,845.34C1859.95,841.225 1860.99,837.11 1862.7,833.337C1867.69,822.21 1878.69,814.307 1890.72,814.307C1904.47,814.307 1914.78,824.615 1915.47,838.187L1915.47,901.75L1929.7,901.75L1929.7,845.23C1929.7,841.107 1930.56,836.984 1932.28,833.205C1937.26,822.21 1948.26,814.307 1960.29,814.307C1974.04,814.307 1984.53,824.615 1985.21,838.187L1985.21,901.75L1999.28,901.75L1999.28,838.53C1999.45,816.713 1983.49,799.727 1961.84,799.727C1945.17,799.727 1933.48,809.847 1927.3,824.271Z" style="fill:rgb(238,238,238);fill-rule:nonzero;"/>
            <path d="M2092.56,844.393L2026.59,844.393C2027.97,836.828 2031.4,829.78 2036.73,824.279C2043.6,817.402 2052.71,813.62 2061.81,813.62C2067.82,813.62 2073.66,815.339 2078.65,818.606C2086.03,823.419 2091.19,832.015 2092.56,844.393ZM2026.77,814.48C2017.33,824.279 2012.18,837.688 2012.18,851.597C2012.18,880.806 2033.29,904.327 2061.47,904.327C2089.64,904.327 2102.7,893.349 2102.7,893.349L2093.76,881.837C2093.76,881.837 2082.08,890.261 2061.47,890.261C2043.09,890.261 2029.34,876.68 2026.42,858.63L2106.99,858.63L2106.99,850.053C2106.65,828.577 2097.89,814.652 2086.38,806.931C2079.16,802.128 2070.57,799.727 2061.98,799.727C2049.27,799.727 2036.21,804.701 2026.77,814.48Z" style="fill:rgb(238,238,238);fill-rule:nonzero;"/>
            <path d="M2243.75,802.303L2215.92,879.289L2188.26,802.303L2172.11,802.303L2207.85,901.75L2223.99,901.75L2251.82,824.593L2279.48,901.75L2295.63,901.75L2331.53,802.303L2315.39,802.303L2287.56,879.289L2259.9,802.303L2243.75,802.303Z" style="fill:rgb(238,238,238);fill-rule:nonzero;"/>
            <path d="M2359.18,819.461L2359.18,764.337L2345.12,764.337L2345.12,901.75L2359.18,901.75L2359.18,845.402C2359.18,841.279 2360.04,837.156 2361.76,833.376C2366.74,822.382 2377.74,814.479 2389.77,814.479C2403.52,814.479 2413.83,824.787 2414.52,838.358L2414.52,901.75L2428.76,901.75L2428.76,838.702L2428.59,838.702C2428.76,816.884 2412.97,799.898 2391.32,799.898C2376.71,799.898 2365.71,807.618 2359.18,819.461Z" style="fill:rgb(238,238,238);fill-rule:nonzero;"/>
            <path d="M2521.87,844.393L2455.9,844.393C2457.28,836.828 2460.71,829.78 2466.04,824.279C2472.91,817.402 2482.01,813.62 2491.12,813.62C2497.13,813.62 2502.97,815.339 2507.95,818.606C2515.34,823.419 2520.5,832.015 2521.87,844.393ZM2456.07,814.48C2446.64,824.279 2441.49,837.688 2441.49,851.597C2441.49,880.806 2462.6,904.327 2490.78,904.327C2518.95,904.327 2532.01,893.349 2532.01,893.349L2523.07,881.837C2523.07,881.837 2511.39,890.261 2490.78,890.261C2472.39,890.261 2458.65,876.68 2455.73,858.63L2536.3,858.63L2536.3,850.053C2535.96,828.577 2527.2,814.652 2515.69,806.931C2508.47,802.128 2499.88,799.727 2491.29,799.727C2478.58,799.727 2465.52,804.701 2456.07,814.48Z" style="fill:rgb(238,238,238);fill-rule:nonzero;"/>
            <path d="M2564.13,819.449L2564.13,802.303L2550.07,802.303L2550.07,901.75L2564.13,901.75L2564.13,845.34C2564.13,841.225 2565.16,837.11 2566.88,833.337C2571.87,822.21 2582.86,814.307 2594.89,814.307C2608.64,814.307 2618.95,824.615 2619.64,838.187L2619.64,901.75L2633.88,901.75L2633.88,838.53C2634.05,816.713 2617.92,799.727 2596.27,799.727C2581.66,799.727 2570.66,807.446 2564.13,819.289L2564.13,819.449Z" style="fill:rgb(238,238,238);fill-rule:nonzero;"/>
            <rect x="2698.84" y="764.337" width="14.065" height="137.412" style="fill:rgb(238,238,238);fill-rule:nonzero;"/>
            <path d="M2850.68,809.158C2850.68,809.158 2840.74,796.978 2816.85,796.978C2794.16,796.978 2780.27,812.074 2780.27,827.712C2780.27,829.774 2780.44,831.836 2780.95,833.898C2784.21,847.473 2795.02,852.972 2808.08,856.237C2820.11,859.502 2836.1,859.846 2837.99,873.421L2837.99,874.624C2837.99,878.061 2836.27,881.326 2833.35,883.731C2829.22,887.34 2822.86,889.402 2815.47,889.402C2798.8,889.402 2785.41,880.638 2785.41,880.638L2777.18,893.348C2777.18,893.348 2794.34,904.327 2815.47,904.327C2838.33,904.327 2853.09,889.917 2853.09,874.624C2853.09,873.593 2853.09,872.39 2852.91,871.359C2850.34,852.457 2835.58,846.958 2819.43,843.349C2809.8,841.287 2797.94,839.912 2795.71,830.289C2795.54,829.258 2795.36,828.399 2795.36,827.368C2795.36,818.948 2804.3,812.074 2816.85,812.074C2832.49,812.074 2839.53,819.12 2839.53,819.12L2850.68,809.158Z" style="fill:rgb(238,238,238);fill-rule:nonzero;"/>
            <path d="M2948.97,850.738L2948.97,853.316C2948.28,873.764 2932.13,890.261 2912.02,890.261C2891.57,890.261 2875.08,873.077 2875.08,852.113C2875.08,831.148 2891.57,813.792 2912.02,813.792C2932.13,813.792 2948.28,830.289 2948.97,850.738ZM2948.97,882.528L2948.97,901.75L2963.03,901.75L2963.03,802.303L2948.97,802.303L2948.97,821.816C2941.75,808.475 2929.21,799.727 2912.02,799.727C2883.84,799.727 2861.01,823.244 2861.01,852.113C2861.01,880.982 2883.84,904.327 2912.02,904.327C2929.21,904.327 2941.75,895.75 2948.97,882.528Z" style="fill:rgb(238,238,238);fill-rule:nonzero;"/>
            <path d="M3026.26,883.339L2990.87,802.303L2974.73,802.303L3018.19,901.842L3009.77,920.858C3007.71,924.799 3003.59,927.54 2998.95,927.54C2995.68,927.54 2992.42,926.341 2990.19,923.942L2979.71,934.23C2984.86,939.376 2991.73,942.293 2998.95,942.293C3009.6,942.293 3019.05,936.117 3023.51,926.683L3077.8,802.303L3061.65,802.303L3026.26,883.339Z" style="fill:rgb(238,238,238);fill-rule:nonzero;"/>
            <path d="M260.225,1020.18L260.225,993.899L246.159,996.305L246.159,1020.18L230.011,1020.18L230.011,1034.25L246.159,1034.25L246.159,1092.16C246.159,1108.83 259.539,1122.21 276.201,1122.21C282.901,1122.21 293.724,1119.63 293.724,1119.63L290.976,1106.94C290.976,1106.94 284.963,1108.14 276.201,1108.14C267.44,1108.14 260.225,1101.1 260.225,1092.33L260.225,1034.25L290.288,1034.25L290.288,1020.18L260.225,1020.18Z" style="fill:rgb(238,238,238);fill-rule:nonzero;"/>
            <path d="M321.555,1037.34L321.555,982.218L307.489,982.218L307.489,1119.63L321.555,1119.63L321.555,1063.28C321.555,1059.16 322.414,1055.04 324.132,1051.26C329.116,1040.26 340.115,1032.36 352.145,1032.36C365.894,1032.36 376.205,1042.67 376.893,1056.24L376.893,1119.63L391.13,1119.63L391.13,1056.58L390.959,1056.58C391.13,1034.77 375.346,1017.78 353.692,1017.78C339.084,1017.78 328.085,1025.5 321.555,1037.34Z" style="fill:rgb(238,238,238);fill-rule:nonzero;"/>
            <path d="M491.822,1068.62L491.822,1071.2C491.135,1091.64 474.982,1108.14 454.876,1108.14C434.427,1108.14 417.93,1090.96 417.93,1069.99C417.93,1049.03 434.427,1031.67 454.876,1031.67C474.982,1031.67 491.135,1048.17 491.822,1068.62ZM491.822,1100.41L491.822,1119.63L505.888,1119.63L505.888,1020.18L491.822,1020.18L491.822,1039.7C484.605,1026.36 472.06,1017.61 454.876,1017.61C426.694,1017.61 403.865,1041.12 403.865,1069.99C403.865,1098.86 426.694,1122.21 454.876,1122.21C472.06,1122.21 484.605,1113.63 491.822,1100.41Z" style="fill:rgb(238,238,238);fill-rule:nonzero;"/>
            <path d="M550.726,1020.18L550.726,993.899L536.66,996.305L536.66,1020.18L520.512,1020.18L520.512,1034.25L536.66,1034.25L536.66,1092.16C536.66,1108.83 550.039,1122.21 566.702,1122.21C573.402,1122.21 584.225,1119.63 584.225,1119.63L581.476,1106.94C581.476,1106.94 575.464,1108.14 566.702,1108.14C557.941,1108.14 550.726,1101.1 550.726,1092.33L550.726,1034.25L580.789,1034.25L580.789,1020.18L550.726,1020.18Z" style="fill:rgb(238,238,238);fill-rule:nonzero;"/>
            <path d="M705.008,982.217L705.008,982.046L649.356,982.046L649.356,1119.8L707.93,1119.8C728.895,1119.8 746.053,1102.81 746.053,1081.85C746.053,1067.58 738.163,1055.21 726.661,1048.69C734.723,1041.66 739.697,1031.52 739.697,1020C739.697,1000.07 724.429,983.933 705.01,982.217L705.008,982.217ZM707.931,1057.96C721.162,1057.96 731.816,1068.61 731.816,1081.85C731.816,1095.08 721.162,1105.74 707.93,1105.74L663.421,1105.74L663.421,1057.96L707.931,1057.96ZM704.665,996.111C716.524,997.487 725.803,1007.8 725.803,1020C725.803,1032.2 716.524,1042.52 704.666,1043.89L663.421,1043.89L663.421,996.111L704.665,996.111Z" style="fill:rgb(238,238,238);fill-rule:nonzero;"/>
            <path d="M826.472,1088.9C821.488,1099.89 810.661,1107.8 798.631,1107.8C784.883,1107.8 774.399,1097.49 773.712,1083.92L773.712,1020.18L759.646,1020.18L759.646,1083.58C759.475,1105.39 775.431,1122.21 797.085,1122.21C811.693,1122.21 822.691,1114.49 829.222,1102.64L829.222,1119.63L843.288,1119.63L843.288,1020.18L829.222,1020.18L829.222,1076.77C829.222,1080.88 828.191,1085 826.472,1088.77L826.472,1088.9Z" style="fill:rgb(238,238,238);fill-rule:nonzero;"/>
            <path d="M887.095,1020.18L887.095,993.899L873.029,996.305L873.029,1020.18L856.881,1020.18L856.881,1034.25L873.029,1034.25L873.029,1092.16C873.029,1108.83 886.409,1122.21 903.072,1122.21C909.771,1122.21 920.594,1119.63 920.594,1119.63L917.846,1106.94C917.846,1106.94 911.833,1108.14 903.072,1108.14C894.31,1108.14 887.095,1101.1 887.095,1092.33L887.095,1034.25L917.159,1034.25L917.159,1020.18L887.095,1020.18Z" style="fill:rgb(238,238,238);fill-rule:nonzero;"/>
            <path d="M955.125,1020.18L955.125,993.899L941.059,996.305L941.059,1020.18L924.911,1020.18L924.911,1034.25L941.059,1034.25L941.059,1092.16C941.059,1108.83 954.438,1122.21 971.101,1122.21C977.801,1122.21 988.624,1119.63 988.624,1119.63L985.875,1106.94C985.875,1106.94 979.863,1108.14 971.101,1108.14C962.34,1108.14 955.125,1101.1 955.125,1092.33L955.125,1034.25L985.188,1034.25L985.188,1020.18L955.125,1020.18Z" style="fill:rgb(238,238,238);fill-rule:nonzero;"/>
            <path d="M1073.32,1062.27L1007.35,1062.27C1008.72,1054.71 1012.16,1047.66 1017.49,1042.16C1024.36,1035.28 1033.46,1031.5 1042.57,1031.5C1048.58,1031.5 1054.42,1033.22 1059.4,1036.49C1066.79,1041.3 1071.94,1049.89 1073.32,1062.27ZM1007.52,1032.36C998.086,1042.16 992.94,1055.57 992.94,1069.48C992.94,1098.69 1014.05,1122.21 1042.22,1122.21C1070.4,1122.21 1083.45,1111.23 1083.45,1111.23L1074.52,1099.72C1074.52,1099.72 1062.84,1108.14 1042.22,1108.14C1023.84,1108.14 1010.1,1094.56 1007.18,1076.51L1087.75,1076.51L1087.75,1067.93C1087.4,1046.46 1078.64,1032.53 1067.13,1024.81C1059.92,1020.01 1051.33,1017.61 1042.74,1017.61C1030.03,1017.61 1016.97,1022.58 1007.52,1032.36Z" style="fill:rgb(238,238,238);fill-rule:nonzero;"/>
            <path d="M1115.92,1026.71L1115.92,1017.44L1101.51,1017.44L1101.51,1119.63L1115.92,1119.63L1116.09,1053.33C1116.09,1040.09 1126.75,1029.44 1139.97,1029.44C1144.44,1029.44 1152.69,1030.47 1152.69,1030.47L1152.69,1016.23C1152.69,1016.23 1144.27,1014.86 1139.97,1014.86C1129.15,1014.86 1121.08,1019.49 1115.92,1026.69L1115.92,1026.71Z" style="fill:rgb(238,238,238);fill-rule:nonzero;"/>
            <path d="M1180.34,1066.57L1180.34,982.218L1166.28,982.218L1166.28,1119.63L1180.34,1119.63L1180.34,1087.11L1194.78,1071.7L1232.74,1119.63L1250.95,1119.63L1204.57,1061.26L1242.53,1020.18L1223.46,1020.18L1180.34,1066.57Z" style="fill:rgb(238,238,238);fill-rule:nonzero;"/>
            <path d="M1278.61,1037.33L1278.61,1020.18L1264.54,1020.18L1264.54,1119.63L1278.61,1119.63L1278.61,1063.22C1278.61,1059.11 1279.64,1054.99 1281.36,1051.22C1286.34,1040.09 1297.34,1032.19 1309.37,1032.19C1323.12,1032.19 1333.43,1042.5 1334.12,1056.07L1334.12,1119.63L1348.36,1119.63L1348.36,1056.41C1348.53,1034.59 1332.4,1017.61 1310.75,1017.61C1296.14,1017.61 1285.14,1025.33 1278.61,1037.17L1278.61,1037.33Z" style="fill:rgb(238,238,238);fill-rule:nonzero;"/>
            <path d="M1378.76,1020.18L1364.7,1020.18L1364.7,1119.63L1378.76,1119.63L1378.76,1020.18ZM1371.73,982.218C1366.41,982.218 1361.95,986.679 1361.95,991.999C1361.95,997.319 1366.41,1001.78 1371.73,1001.78C1377.05,1001.78 1381.51,997.319 1381.51,991.999C1381.51,986.679 1377.05,982.218 1371.73,982.218L1371.73,982.218Z" style="fill:rgb(238,238,238);fill-rule:nonzero;"/>
            <path d="M1408.85,1005.23L1408.85,1019.84L1395.11,1019.84L1395.11,1034.08L1408.85,1034.08L1408.85,1119.63L1423.09,1119.63L1423.09,1034.08L1447.65,1034.08L1447.65,1019.84L1423.09,1019.84L1423.09,1005.23C1423.09,996.46 1429.96,989.583 1438.72,989.583C1446.28,989.583 1449.71,990.099 1449.71,990.099L1451.26,977.233C1451.26,977.233 1446.28,975.346 1438.72,975.346C1422.23,975.346 1408.85,988.725 1408.85,1005.23Z" style="fill:rgb(238,238,238);fill-rule:nonzero;"/>
            <path d="M1524.79,1062.27L1458.82,1062.27C1460.19,1054.71 1463.63,1047.66 1468.95,1042.16C1475.83,1035.28 1484.93,1031.5 1494.04,1031.5C1500.05,1031.5 1505.89,1033.22 1510.87,1036.49C1518.26,1041.3 1523.41,1049.89 1524.79,1062.27ZM1458.99,1032.36C1449.56,1042.16 1444.41,1055.57 1444.41,1069.48C1444.41,1098.69 1465.52,1122.21 1493.69,1122.21C1521.87,1122.21 1534.92,1111.23 1534.92,1111.23L1525.99,1099.72C1525.99,1099.72 1514.31,1108.14 1493.69,1108.14C1475.31,1108.14 1461.57,1094.56 1458.65,1076.51L1539.22,1076.51L1539.22,1067.93C1538.88,1046.46 1530.11,1032.53 1518.6,1024.81C1511.39,1020.01 1502.8,1017.61 1494.21,1017.61C1481.5,1017.61 1468.44,1022.58 1458.99,1032.36Z" style="fill:rgb(238,238,238);fill-rule:nonzero;"/>
            <path d="M1675.98,1020.18L1648.15,1097.17L1620.49,1020.18L1604.34,1020.18L1640.07,1119.63L1656.22,1119.63L1684.05,1042.47L1711.71,1119.63L1727.86,1119.63L1763.76,1020.18L1747.61,1020.18L1719.78,1097.17L1692.12,1020.18L1675.98,1020.18Z" style="fill:rgb(238,238,238);fill-rule:nonzero;"/>
            <path d="M1853.45,1068.62L1853.45,1071.2C1852.76,1091.64 1836.61,1108.14 1816.5,1108.14C1796.05,1108.14 1779.56,1090.96 1779.56,1069.99C1779.56,1049.03 1796.05,1031.67 1816.5,1031.67C1836.61,1031.67 1852.76,1048.17 1853.45,1068.62ZM1853.45,1100.41L1853.45,1119.63L1867.51,1119.63L1867.51,1020.18L1853.45,1020.18L1853.45,1039.7C1846.23,1026.36 1833.69,1017.61 1816.5,1017.61C1788.32,1017.61 1765.49,1041.12 1765.49,1069.99C1765.49,1098.86 1788.32,1122.21 1816.5,1122.21C1833.69,1122.21 1846.23,1113.63 1853.45,1100.41Z" style="fill:rgb(238,238,238);fill-rule:nonzero;"/>
            <path d="M1954.79,1027.04C1954.79,1027.04 1944.84,1014.86 1920.95,1014.86C1898.27,1014.86 1884.37,1029.95 1884.37,1045.59C1884.37,1047.65 1884.54,1049.72 1885.06,1051.78C1888.32,1065.35 1899.12,1070.85 1912.19,1074.12C1924.22,1077.38 1940.2,1077.73 1942.09,1091.3L1942.09,1092.5C1942.09,1095.94 1940.37,1099.21 1937.45,1101.61C1933.33,1105.22 1926.97,1107.28 1919.58,1107.28C1902.9,1107.28 1889.52,1098.52 1889.52,1098.52L1881.28,1111.23C1881.28,1111.23 1898.44,1122.21 1919.58,1122.21C1942.44,1122.21 1957.19,1107.8 1957.19,1092.5C1957.19,1091.47 1957.19,1090.27 1957.02,1089.24C1954.44,1070.34 1939.69,1064.84 1923.53,1061.23C1913.9,1059.17 1902.05,1057.79 1899.81,1048.17C1899.64,1047.14 1899.47,1046.28 1899.47,1045.25C1899.47,1036.83 1908.4,1029.95 1920.95,1029.95C1936.59,1029.95 1943.64,1037 1943.64,1037L1954.79,1027.04Z" style="fill:rgb(238,238,238);fill-rule:nonzero;"/>
            <path d="M2101.84,1062.27L2035.87,1062.27C2037.24,1054.71 2040.68,1047.66 2046.01,1042.16C2052.88,1035.28 2061.98,1031.5 2071.09,1031.5C2077.1,1031.5 2082.94,1033.22 2087.92,1036.49C2095.31,1041.3 2100.46,1049.89 2101.84,1062.27ZM2036.04,1032.36C2026.61,1042.16 2021.46,1055.57 2021.46,1069.48C2021.46,1098.69 2042.57,1122.21 2070.74,1122.21C2098.92,1122.21 2111.97,1111.23 2111.97,1111.23L2103.04,1099.72C2103.04,1099.72 2091.36,1108.14 2070.74,1108.14C2052.36,1108.14 2038.62,1094.56 2035.7,1076.51L2116.27,1076.51L2116.27,1067.93C2115.93,1046.46 2107.16,1032.53 2095.65,1024.81C2088.44,1020.01 2079.85,1017.61 2071.26,1017.61C2058.55,1017.61 2045.49,1022.58 2036.04,1032.36Z" style="fill:rgb(238,238,238);fill-rule:nonzero;"/>
            <path d="M2169.88,1101.14L2134.49,1020.18L2118.34,1020.18L2161.8,1119.63L2177.95,1119.63L2221.42,1020.18L2205.27,1020.18L2169.88,1101.14Z" style="fill:rgb(238,238,238);fill-rule:nonzero;"/>
            <path d="M2300.95,1062.27L2234.98,1062.27C2236.35,1054.71 2239.79,1047.66 2245.11,1042.16C2251.99,1035.28 2261.09,1031.5 2270.2,1031.5C2276.21,1031.5 2282.05,1033.22 2287.03,1036.49C2294.42,1041.3 2299.57,1049.89 2300.95,1062.27ZM2235.15,1032.36C2225.71,1042.16 2220.57,1055.57 2220.57,1069.48C2220.57,1098.69 2241.68,1122.21 2269.85,1122.21C2298.03,1122.21 2311.08,1111.23 2311.08,1111.23L2302.15,1099.72C2302.15,1099.72 2290.47,1108.14 2269.85,1108.14C2251.47,1108.14 2237.73,1094.56 2234.81,1076.51L2315.38,1076.51L2315.38,1067.93C2315.03,1046.46 2306.27,1032.53 2294.76,1024.81C2287.55,1020.01 2278.96,1017.61 2270.37,1017.61C2257.65,1017.61 2244.6,1022.58 2235.15,1032.36Z" style="fill:rgb(238,238,238);fill-rule:nonzero;"/>
            <path d="M2343.21,1037.33L2343.21,1020.18L2329.14,1020.18L2329.14,1119.63L2343.21,1119.63L2343.21,1063.22C2343.21,1059.11 2344.24,1054.99 2345.96,1051.22C2350.94,1040.09 2361.94,1032.19 2373.97,1032.19C2387.72,1032.19 2398.03,1042.5 2398.72,1056.07L2398.72,1119.63L2412.95,1119.63L2412.95,1056.41C2413.13,1034.59 2397,1017.61 2375.34,1017.61C2360.74,1017.61 2349.74,1025.33 2343.21,1037.17L2343.21,1037.33Z" style="fill:rgb(238,238,238);fill-rule:nonzero;"/>
            <path d="M2544.74,1088.9C2539.76,1099.89 2528.93,1107.8 2516.9,1107.8C2503.15,1107.8 2492.67,1097.49 2491.98,1083.92L2491.98,1020.18L2477.91,1020.18L2477.91,1083.58C2477.74,1105.39 2493.7,1122.21 2515.35,1122.21C2529.96,1122.21 2540.96,1114.49 2547.49,1102.64L2547.49,1119.63L2561.55,1119.63L2561.55,1020.18L2547.49,1020.18L2547.49,1076.77C2547.49,1080.88 2546.46,1085 2544.74,1088.77L2544.74,1088.9Z" style="fill:rgb(238,238,238);fill-rule:nonzero;"/>
            <path d="M2653.31,1062.43L2653.31,1068.1C2651.94,1085.29 2638.02,1099.04 2620.83,1099.04C2602.79,1099.04 2588.35,1083.91 2588.35,1065.35C2588.35,1046.8 2602.79,1031.5 2620.83,1031.5C2638.02,1031.5 2651.94,1045.25 2653.31,1062.43ZM2618.43,1160.17C2647.99,1160.17 2667.38,1141.81 2667.38,1110.7L2667.38,1020.18L2653.31,1020.18L2653.31,1036.3C2646.78,1024.81 2635.78,1017.61 2620.83,1017.61C2595.06,1017.61 2574.29,1038.89 2574.29,1065.35C2574.29,1091.82 2595.06,1113.1 2620.83,1113.1C2635.78,1113.1 2646.78,1105.9 2653.31,1094.57L2653.31,1112.24C2652.63,1134.07 2639.57,1146.11 2618.43,1146.11C2597.81,1146.11 2584.58,1138.03 2584.58,1138.03L2577.03,1149.88C2577.03,1149.88 2593.17,1160.17 2618.43,1160.17Z" style="fill:rgb(238,238,238);fill-rule:nonzero;"/>
            <path d="M2696.07,979.641L2682,982.045L2682,1119.63L2696.07,1119.63L2696.07,979.641Z" style="fill:rgb(238,238,238);fill-rule:nonzero;"/>
            <path d="M2726.65,1020.18L2712.58,1020.18L2712.58,1119.63L2726.65,1119.63L2726.65,1020.18ZM2719.61,982.218C2714.29,982.218 2709.83,986.679 2709.83,991.999C2709.83,997.319 2714.29,1001.78 2719.61,1001.78C2724.93,1001.78 2729.4,997.319 2729.4,991.999C2729.4,986.679 2724.93,982.218 2719.61,982.218L2719.61,982.218Z" style="fill:rgb(238,238,238);fill-rule:nonzero;"/>
            <path d="M2822.51,1062.27L2756.54,1062.27C2757.91,1054.71 2761.35,1047.66 2766.68,1042.16C2773.55,1035.28 2782.65,1031.5 2791.76,1031.5C2797.77,1031.5 2803.61,1033.22 2808.59,1036.49C2815.98,1041.3 2821.13,1049.89 2822.51,1062.27ZM2756.71,1032.36C2747.28,1042.16 2742.13,1055.57 2742.13,1069.48C2742.13,1098.69 2763.24,1122.21 2791.41,1122.21C2819.59,1122.21 2832.64,1111.23 2832.64,1111.23L2823.71,1099.72C2823.71,1099.72 2812.03,1108.14 2791.41,1108.14C2773.03,1108.14 2759.29,1094.56 2756.37,1076.51L2836.94,1076.51L2836.94,1067.93C2836.59,1046.46 2827.83,1032.53 2816.32,1024.81C2809.11,1020.01 2800.52,1017.61 2791.93,1017.61C2779.22,1017.61 2766.16,1022.58 2756.71,1032.36Z" style="fill:rgb(238,238,238);fill-rule:nonzero;"/>
            <path d="M2865.11,1026.71L2865.11,1017.44L2850.7,1017.44L2850.7,1119.63L2865.11,1119.63L2865.28,1053.33C2865.28,1040.09 2875.93,1029.44 2889.16,1029.44C2893.63,1029.44 2901.88,1030.47 2901.88,1030.47L2901.88,1016.23C2901.88,1016.23 2893.46,1014.86 2889.16,1014.86C2878.34,1014.86 2870.26,1019.49 2865.11,1026.69L2865.11,1026.71Z" style="fill:rgb(238,238,238);fill-rule:nonzero;"/>
            <path d="M2915.47,1112.6C2915.47,1117.92 2919.93,1122.21 2925.25,1122.21C2930.57,1122.21 2935.03,1117.92 2935.03,1112.6C2935.03,1107.28 2930.57,1102.82 2925.25,1102.82C2919.93,1102.82 2915.47,1107.28 2915.47,1112.6Z" style="fill:rgb(238,238,238);fill-rule:nonzero;"/>
        </g>
        <g transform="matrix(0.993004,-0.165265,0.139148,0.83608,-74.2312,143.482)">
            <rect x="176" y="512" width="469" height="119" style="fill:rgb(34,34,34);"/>
            <g transform="matrix(0.758946,2.77556e-17,-1.38778e-17,0.901392,114.551,41.9367)">
                <path d="M153.259,562.642C159.82,562.708 165.123,568.078 165.123,574.64C165.123,581.268 159.754,586.638 153.126,586.638L134.567,586.638L134.567,562.642L153.259,562.642ZM155.512,588.352C162.14,588.352 167.442,593.721 167.442,600.35C167.442,606.978 162.207,612.281 155.579,612.348L134.567,612.348L134.567,588.352L155.512,588.352ZM153.259,560.928L132.853,560.928L132.853,614.062L155.579,614.062C163.135,613.996 169.157,607.906 169.157,600.35C169.157,593.92 164.858,588.551 158.893,587.033C163.599,584.848 166.771,580.142 166.771,574.64C166.771,567.083 160.748,560.994 153.259,560.928Z" style="fill:rgb(187,187,187);fill-rule:nonzero;"/>
                <path d="M181.092,614.062L216.8,614.062L216.8,612.348L182.807,612.348L182.807,588.352L209.709,588.352L209.709,586.638L182.807,586.638L182.807,562.642L216.8,562.642L216.8,560.928L181.092,560.928L181.092,614.062Z" style="fill:rgb(187,187,187);fill-rule:nonzero;"/>
                <path d="M228.735,614.062L264.442,614.062L264.442,612.348L230.45,612.348L230.45,588.352L257.352,588.352L257.352,586.638L230.45,586.638L230.45,562.642L264.442,562.642L264.442,560.928L228.735,560.928L228.735,614.062Z" style="fill:rgb(187,187,187);fill-rule:nonzero;"/>
                <path d="M276.378,614.062L312.085,614.062L312.085,612.348L278.093,612.348L278.093,588.352L304.995,588.352L304.995,586.638L278.093,586.638L278.093,562.642L312.085,562.642L312.085,560.928L276.378,560.928L276.378,614.062Z" style="fill:rgb(187,187,187);fill-rule:nonzero;"/>
                <path d="M324.021,614.062L359.728,614.062L359.728,612.348L325.735,612.348L325.735,588.352L352.638,588.352L352.638,586.638L325.735,586.638L325.735,562.642L359.728,562.642L359.728,560.928L324.021,560.928L324.021,614.062Z" style="fill:rgb(187,187,187);fill-rule:nonzero;"/>
                <path d="M371.664,614.062L407.371,614.062L407.371,612.348L373.378,612.348L373.378,588.352L400.281,588.352L400.281,586.638L373.378,586.638L373.378,562.642L407.371,562.642L407.371,560.928L371.664,560.928L371.664,614.062Z" style="fill:rgb(187,187,187);fill-rule:nonzero;"/>
                <path d="M419.307,614.062L455.014,614.062L455.014,612.348L421.021,612.348L421.021,588.352L447.924,588.352L447.924,586.638L421.021,586.638L421.021,562.642L455.014,562.642L455.014,560.928L419.307,560.928L419.307,614.062Z" style="fill:rgb(187,187,187);fill-rule:nonzero;"/>
                <path d="M466.95,614.062L502.657,614.062L502.657,612.348L468.664,612.348L468.664,588.352L495.567,588.352L495.567,586.638L468.664,586.638L468.664,562.642L502.657,562.642L502.657,560.928L466.95,560.928L466.95,614.062Z" style="fill:rgb(187,187,187);fill-rule:nonzero;"/>
                <path d="M514.593,614.062L550.3,614.062L550.3,612.348L516.307,612.348L516.307,588.352L543.21,588.352L543.21,586.638L516.307,586.638L516.307,562.642L550.3,562.642L550.3,560.928L514.593,560.928L514.593,614.062Z" style="fill:rgb(187,187,187);fill-rule:nonzero;"/>
                <path d="M562.236,614.062L597.943,614.062L597.943,612.348L563.95,612.348L563.95,588.352L590.853,588.352L590.853,586.638L563.95,586.638L563.95,562.642L597.943,562.642L597.943,560.928L562.236,560.928L562.236,614.062Z" style="fill:rgb(187,187,187);fill-rule:nonzero;"/>
                <path d="M631.212,562.775C639.032,562.775 645.329,569.057 645.329,576.86C645.329,584.663 639.032,590.878 631.212,590.878L611.593,590.878L611.593,562.708L631.212,562.775ZM609.878,560.994L609.878,613.996L611.593,613.996L611.593,592.593L631.212,592.593C639.96,592.593 647.044,585.588 647.044,576.86C647.044,568.131 639.96,560.994 631.212,560.994L609.878,560.994Z" style="fill:rgb(187,187,187);fill-rule:nonzero;"/>
            </g>
        </g>
    </g>
</svg>
