<?xml version="1.0" encoding="UTF-8" standalone="no"?>
<!DOCTYPE svg PUBLIC "-//W3C//DTD SVG 1.1//EN" "http://www.w3.org/Graphics/SVG/1.1/DTD/svg11.dtd">
<svg width="100%" height="100%" viewBox="0 0 1920 1080" version="1.1" xmlns="http://www.w3.org/2000/svg" xmlns:xlink="http://www.w3.org/1999/xlink" xml:space="preserve" xmlns:serif="http://www.serif.com/" style="fill-rule:evenodd;clip-rule:evenodd;stroke-linejoin:round;stroke-miterlimit:2;">
    <g transform="matrix(1,0,0,1,0,-4320)">
        <g id="Slide5" transform="matrix(1,0,0,1,-1970,4320)">
            <rect x="1970" y="0" width="1920" height="1080" style="fill:none;"/>
            <g transform="matrix(1,0,0,1,1970,0)">
                <rect x="0" y="0" width="1920" height="1080" style="fill:rgb(17,17,17);"/>
            </g>
            <g transform="matrix(0.987561,0,0,0.987561,26.8764,6.6563)">
                <g transform="matrix(0.86147,0,0,0.86147,2234.5,-3603.23)">
                    <path d="M-85.775,4622.99L-85.775,4635.53L54.579,4635.53L54.579,4995.97L66.644,4995.97L66.644,4635.53L206.066,4635.53L206.066,4622.99L-85.775,4622.99Z" style="fill:rgb(238,238,238);fill-rule:nonzero;"/>
                    <path d="M281.606,4789.93L281.606,4622.99L243.428,4622.99L243.428,4995.97L281.606,4995.97L281.606,4828.57L495.226,4828.57L495.226,4995.97L533.404,4995.97L533.404,4622.99L495.226,4622.99L495.226,4789.93L281.606,4789.93Z" style="fill:rgb(238,238,238);fill-rule:nonzero;"/>
                    <path d="M570.27,4996.47L821.602,4996.47L821.602,4931.19L635.551,4931.19L635.551,4843.06L771.709,4843.06L771.709,4776.84L635.551,4776.84L635.551,4687.78L821.602,4687.78L821.602,4622.5L570.27,4622.5L570.27,4996.47Z" style="fill:rgb(238,238,238);fill-rule:nonzero;"/>
                </g>
                <g transform="matrix(0.0273877,2.43162e-34,-2.43162e-34,0.0273877,2826.95,344.632)">
                    <path d="M462.659,4690.98C458.331,4819.73 356.626,4923.6 230.037,4923.6C101.283,4923.6 -2.585,4815.4 -2.585,4683.4C-2.585,4551.41 101.283,4442.13 230.037,4442.13C356.626,4442.13 458.331,4546 462.659,4674.75L462.659,4690.98ZM462.659,4491.9C417.216,4408.65 338.233,4353.57 230.037,4353.57C52.595,4353.57 -91.145,4501.64 -91.145,4683.4C-91.145,4865.17 52.595,5012.16 230.037,5012.16C338.233,5012.16 417.216,4958.16 462.659,4874.91L462.659,5236.06L551.219,5236.06L551.219,4369.79L462.659,4369.79L462.659,4491.9Z" style="fill:rgb(238,238,238);fill-rule:nonzero;"/>
                    <path d="M1064.05,4802.45C1032.67,4871.68 964.497,4921.43 888.753,4921.43C802.188,4921.43 736.182,4856.53 731.854,4771.09L731.854,4369.79L643.294,4369.79L643.294,4768.92C642.213,4906.29 742.675,5012.16 879.014,5012.16C970.99,5012.16 1040.24,4963.56 1081.36,4888.98L1081.36,4995.93L1169.92,4995.93L1169.92,4369.79L1081.36,4369.79L1081.36,4726.04C1081.36,4751.95 1074.87,4777.86 1064.05,4801.61L1064.05,4802.45Z" style="fill:rgb(238,238,238);fill-rule:nonzero;"/>
                    <path d="M1361.37,4369.79L1272.81,4369.79L1272.81,4995.93L1361.37,4995.93L1361.37,4369.79ZM1317.09,4130.75C1283.6,4130.75 1255.51,4158.84 1255.51,4192.34C1255.51,4225.83 1283.6,4253.92 1317.09,4253.92C1350.59,4253.92 1378.68,4225.83 1378.68,4192.34C1378.68,4158.84 1350.59,4130.75 1317.09,4130.75L1317.09,4130.75Z" style="fill:rgb(238,238,238);fill-rule:nonzero;"/>
                    <path d="M2057.95,4517.87C2000.63,4416.21 1894.63,4353.57 1779.97,4353.57C1602.58,4353.57 1458.86,4501.64 1458.86,4683.4C1458.86,4865.17 1602.58,5012.16 1779.97,5012.16C1894.63,5012.16 2000.63,4949.52 2057.95,4847.86L1983.32,4803.5C1941.14,4878.15 1864.34,4923.6 1779.97,4923.6C1650.17,4923.6 1545.25,4816.48 1545.25,4683.4C1545.25,4550.33 1650.17,4442.13 1779.97,4442.13C1864.34,4442.13 1941.14,4487.57 1983.32,4562.23L2057.95,4517.87Z" style="fill:rgb(238,238,238);fill-rule:nonzero;"/>
                    <path d="M2233.18,4661.85L2233.18,4130.75L2144.62,4130.75L2144.62,4995.93L2233.18,4995.93L2233.18,4791.17L2324.04,4694.18L2563.09,4995.93L2677.74,4995.93L2385.7,4628.44L2624.74,4369.79L2504.68,4369.79L2233.18,4661.85Z" style="fill:rgb(238,238,238);fill-rule:nonzero;"/>
                </g>
                <g transform="matrix(0.0273877,2.43162e-34,-2.43162e-34,0.0273877,2818.15,481.689)">
                    <path d="M-240.582,4692.06L-240.582,4675.83C-236.254,4547.08 -134.55,4443.21 -7.96,4443.21C120.793,4443.21 223.58,4551.41 223.58,4683.4C223.58,4815.4 120.793,4923.6 -7.96,4923.6C-134.55,4923.6 -236.254,4820.81 -240.582,4692.06ZM-240.582,4491.9L-240.582,4130.75L-329.142,4130.75L-329.142,4995.93L-240.582,4995.93L-240.582,4873.94C-195.14,4958.16 -116.156,5012.16 -7.96,5012.16C169.482,5012.16 312.14,4865.17 312.14,4683.4C312.14,4501.64 169.482,4354.65 -7.96,4354.65C-116.156,4354.65 -195.14,4408.65 -240.582,4491.9Z" style="fill:rgb(238,238,238);fill-rule:nonzero;"/>
                    <path d="M484.122,4410.89L484.122,4352.49L393.399,4352.49L393.399,4995.93L484.122,4995.93L485.204,4578.51C485.204,4495.13 552.266,4428.07 635.553,4428.07C663.676,4428.07 715.595,4434.56 715.595,4434.56L715.595,4344.9C715.595,4344.9 662.594,4336.26 635.553,4336.26C567.409,4336.26 516.572,4365.42 484.122,4410.79L484.122,4410.89Z" style="fill:rgb(238,238,238);fill-rule:nonzero;"/>
                    <path d="M1029.34,4442.13C1159.18,4442.13 1264.13,4550.33 1264.13,4683.4C1264.13,4816.48 1159.18,4923.6 1029.34,4923.6C899.506,4923.6 794.556,4816.48 794.556,4683.4C794.556,4550.33 899.506,4442.13 1029.34,4442.13ZM1029.34,4353.57C851.9,4353.57 708.159,4501.64 708.159,4683.4C708.159,4865.17 851.9,5012.16 1029.34,5012.16C1206.78,5012.16 1350.52,4865.17 1350.52,4683.4C1350.52,4501.64 1206.78,4353.57 1029.34,4353.57Z" style="fill:rgb(238,238,238);fill-rule:nonzero;"/>
                    <path d="M1833.01,4369.79L1657.78,4854.51L1483.63,4369.79L1381.96,4369.79L1606.94,4995.93L1708.62,4995.93L1883.84,4510.13L2057.99,4995.93L2159.66,4995.93L2385.73,4369.79L2284.05,4369.79L2108.83,4854.51L1934.68,4369.79L1833.01,4369.79Z" style="fill:rgb(238,238,238);fill-rule:nonzero;"/>
                    <path d="M2559.81,4477.75L2559.81,4369.79L2471.25,4369.79L2471.25,4995.93L2559.81,4995.93L2559.81,4640.76C2559.81,4614.85 2566.3,4588.94 2577.12,4565.19C2608.5,4495.13 2677.75,4445.37 2753.49,4445.37C2840.06,4445.37 2904.98,4510.27 2909.31,4595.72L2909.31,4995.93L2998.95,4995.93L2998.95,4597.89C3000.04,4460.52 2898.49,4353.57 2762.15,4353.57C2670.18,4353.57 2600.92,4402.17 2559.81,4476.74L2559.81,4477.75Z" style="fill:rgb(238,238,238);fill-rule:nonzero;"/>
                </g>
            </g>
            <g transform="matrix(1.05551,0,0,1.05551,-211.482,-35.0019)">
                <g transform="matrix(0.808152,7.1752e-33,-7.1752e-33,0.808152,2731.51,-3342.09)">
                    <path d="M475.642,4685.45L475.642,4725.11L438.338,4725.11L438.338,4763.76L475.642,4763.76L475.642,4995.97L514.286,4995.97L514.286,4763.76L580.966,4763.76L580.966,4725.11L514.286,4725.11L514.286,4685.45C514.286,4661.65 532.938,4642.99 556.719,4642.99C577.236,4642.99 586.561,4644.39 586.561,4644.39L590.758,4609.46C590.758,4609.46 577.236,4604.34 556.719,4604.34C511.958,4604.34 475.642,4640.66 475.642,4685.45Z" style="fill:rgb(238,238,238);fill-rule:nonzero;"/>
                    <path d="M726.945,4757.23C782.917,4757.23 828.16,4803.87 828.16,4861.24C828.16,4918.61 782.917,4964.79 726.945,4964.79C670.974,4964.79 625.73,4918.61 625.73,4861.24C625.73,4803.87 670.974,4757.23 726.945,4757.23ZM726.945,4719.05C650.451,4719.05 588.485,4782.88 588.485,4861.24C588.485,4939.6 650.451,5002.97 726.945,5002.97C803.439,5002.97 865.405,4939.6 865.405,4861.24C865.405,4782.88 803.439,4719.05 726.945,4719.05Z" style="fill:rgb(238,238,238);fill-rule:nonzero;"/>
                    <path d="M988.536,4827.33L919.058,4726.05L871.962,4726.05L965.221,4861.24L872.428,4995.97L919.058,4995.97L988.536,4895.16L1058.01,4995.97L1105.11,4995.97L1011.85,4861.24L1105.11,4726.05L1058.48,4726.05L988.536,4827.33Z" style="fill:rgb(238,238,238);fill-rule:nonzero;"/>
                </g>
                <g transform="matrix(0.113952,1.01173e-33,-1.01173e-33,0.113952,3302.18,-134.244)">
                    <path d="M-432.38,4587.4C-447.905,4587.4 -460.927,4599.92 -460.927,4615.45C-460.927,4630.98 -447.905,4644 -432.38,4644C-416.854,4644 -403.832,4630.98 -403.832,4615.45C-403.832,4599.92 -416.854,4587.4 -432.38,4587.4ZM-452.905,5020.67C-452.905,5049.71 -476.47,5073.24 -505.55,5073.24C-519.589,5073.24 -532.625,5067.74 -542.653,5057.72L-571.733,5086.76C-554.185,5104.28 -530.62,5114.3 -505.55,5114.3C-453.908,5114.3 -411.854,5072.24 -411.854,5020.67L-411.854,4705.73L-452.905,4705.73L-452.905,5020.67Z" style="fill:rgb(238,238,238);fill-rule:nonzero;"/>
                    <path d="M-145.059,4906.28C-159.604,4938.37 -191.204,4961.44 -226.314,4961.44C-266.44,4961.44 -297.036,4931.35 -299.043,4891.74L-299.043,4705.73L-340.093,4705.73L-340.093,4890.74C-340.595,4954.42 -294.027,5003.49 -230.828,5003.49C-188.194,5003.49 -156.093,4980.96 -137.033,4946.39L-137.033,4995.97L-95.982,4995.97L-95.982,4705.73L-137.033,4705.73L-137.033,4870.86C-137.033,4882.88 -140.043,4894.89 -145.059,4905.89L-145.059,4906.28Z" style="fill:rgb(238,238,238);fill-rule:nonzero;"/>
                    <path d="M205.361,4769.84C190.342,4727.75 151.255,4698.21 102.603,4698.21C59.969,4698.21 27.868,4720.74 8.808,4755.3L8.808,4705.73L-32.243,4705.73L-32.243,4995.97L8.808,4995.97L8.808,4831.33C8.808,4819.32 11.817,4807.31 16.833,4796.3C31.379,4763.83 63.48,4740.76 98.59,4740.76C138.716,4740.76 168.811,4770.85 170.818,4810.46L170.818,4995.97L212.37,4995.97L212.37,4831.01C212.37,4818.98 214.878,4806.95 219.894,4795.92C234.439,4763.83 266.54,4740.76 301.651,4740.76C341.777,4740.76 372.373,4770.85 374.38,4810.46L374.38,4995.97L415.431,4995.97L415.431,4811.46C415.932,4747.78 369.363,4698.21 306.165,4698.21C257.512,4698.21 223.405,4727.75 205.361,4769.84Z" style="fill:rgb(238,238,238);fill-rule:nonzero;"/>
                    <path d="M520.722,4854.61L520.722,4847.09C522.728,4787.41 569.872,4739.26 628.551,4739.26C688.233,4739.26 736.38,4789.91 736.38,4851.1C736.38,4912.29 688.233,4962.44 628.551,4962.44C569.872,4962.44 522.728,4914.29 520.722,4854.61ZM520.722,4762.33L520.722,4705.73L479.671,4705.73L479.671,5107.28L520.722,5107.28L520.722,4939.92C541.786,4978.46 578.398,5003.49 628.551,5003.49C710.802,5003.49 777.431,4935.42 777.431,4851.35C777.431,4766.85 710.802,4698.21 628.551,4698.21C578.398,4698.21 541.786,4723.74 520.722,4762.33Z" style="fill:rgb(238,238,238);fill-rule:nonzero;"/>
                    <path d="M1051.2,4725.73C1051.2,4725.73 1022.16,4690.19 952.446,4690.19C886.236,4690.19 845.682,4734.25 845.682,4779.89C845.682,4785.9 846.182,4791.92 847.685,4797.94C857.197,4837.56 888.74,4853.61 926.862,4863.14C961.977,4872.67 1008.63,4873.67 1014.15,4913.29L1014.15,4916.8C1014.15,4926.83 1009.13,4936.36 1000.6,4943.38C988.564,4953.91 970.003,4959.93 948.433,4959.93C899.774,4959.93 860.702,4934.35 860.702,4934.35L836.657,4971.45C836.657,4971.45 886.737,5003.49 948.433,5003.49C1015.15,5003.49 1058.21,4961.43 1058.21,4916.8C1058.21,4913.79 1058.21,4910.28 1057.71,4907.27C1050.2,4852.1 1007.12,4836.06 959.97,4825.52C931.879,4819.51 897.266,4815.49 890.744,4787.41C890.243,4784.4 889.741,4781.89 889.741,4778.88C889.741,4754.31 915.826,4734.25 952.446,4734.25C998.095,4734.25 1018.65,4754.81 1018.65,4754.81L1051.2,4725.73Z" style="fill:rgb(238,238,238);fill-rule:nonzero;"/>
                    <path d="M1442.8,4739.26C1502.98,4739.26 1551.63,4789.41 1551.63,4851.1C1551.63,4912.79 1502.98,4962.44 1442.8,4962.44C1382.62,4962.44 1333.97,4912.79 1333.97,4851.1C1333.97,4789.41 1382.62,4739.26 1442.8,4739.26ZM1442.8,4698.21C1360.55,4698.21 1293.92,4766.85 1293.92,4851.1C1293.92,4935.36 1360.55,5003.49 1442.8,5003.49C1525.05,5003.49 1591.68,4935.36 1591.68,4851.1C1591.68,4766.85 1525.05,4698.21 1442.8,4698.21Z" style="fill:rgb(238,238,238);fill-rule:nonzero;"/>
                    <path d="M1772.71,4942.02L1669.43,4705.73L1622.3,4705.73L1749.15,4995.97L1796.28,4995.97L1923.13,4705.73L1876,4705.73L1772.71,4942.02Z" style="fill:rgb(238,238,238);fill-rule:nonzero;"/>
                    <path d="M2179.3,4828.57L1986.77,4828.57C1990.78,4806.49 2000.81,4785.92 2016.35,4769.87C2036.41,4749.8 2062.98,4738.76 2089.55,4738.76C2107.1,4738.76 2124.15,4743.78 2138.69,4753.31C2160.25,4767.36 2175.29,4792.44 2179.3,4828.57ZM1987.27,4741.27C1959.74,4769.87 1944.72,4809 1944.72,4849.6C1944.72,4934.84 2006.33,5003.49 2088.55,5003.49C2170.78,5003.49 2208.89,4971.45 2208.89,4971.45L2182.81,4937.85C2182.81,4937.85 2148.72,4962.44 2088.55,4962.44C2034.9,4962.44 1994.79,4922.8 1986.27,4870.12L2221.42,4870.12L2221.42,4845.09C2220.42,4782.41 2194.85,4741.77 2161.25,4719.23C2140.2,4705.22 2115.13,4698.21 2090.06,4698.21C2052.95,4698.21 2014.85,4712.73 1987.27,4741.27Z" style="fill:rgb(238,238,238);fill-rule:nonzero;"/>
                    <path d="M2327.71,4724.78L2327.71,4697.71L2285.66,4697.71L2285.66,4995.97L2327.71,4995.97L2328.21,4802.48C2328.21,4763.83 2359.3,4732.74 2397.91,4732.74C2410.94,4732.74 2435.01,4735.75 2435.01,4735.75L2435.01,4694.19C2435.01,4694.19 2410.44,4690.19 2397.91,4690.19C2366.32,4690.19 2342.75,4703.7 2327.71,4724.73L2327.71,4724.78Z" style="fill:rgb(238,238,238);fill-rule:nonzero;"/>
                    <path d="M2760.91,4705.73L2760.91,4629.02L2719.86,4636.04L2719.86,4705.73L2672.73,4705.73L2672.73,4746.78L2719.86,4746.78L2719.86,4915.8C2719.86,4964.44 2758.91,5003.49 2807.54,5003.49C2827.09,5003.49 2858.68,4995.98 2858.68,4995.98L2850.66,4958.93C2850.66,4958.93 2833.11,4962.44 2807.54,4962.44C2781.97,4962.44 2760.91,4941.88 2760.91,4916.3L2760.91,4746.78L2848.65,4746.78L2848.65,4705.73L2760.91,4705.73Z" style="fill:rgb(238,238,238);fill-rule:nonzero;"/>
                    <path d="M2963.97,4755.81L2963.97,4594.92L2922.92,4594.92L2922.92,4995.97L2963.97,4995.97L2963.97,4831.51C2963.97,4819.48 2966.48,4807.45 2971.49,4796.42C2986.04,4764.33 3018.14,4741.27 3053.25,4741.27C3093.38,4741.27 3123.47,4771.35 3125.48,4810.96L3125.48,4995.97L3167.03,4995.97L3167.03,4811.96L3166.53,4811.96C3167.03,4748.28 3120.96,4698.71 3057.76,4698.71C3015.13,4698.71 2983.03,4721.24 2963.97,4755.81Z" style="fill:rgb(238,238,238);fill-rule:nonzero;"/>
                    <path d="M3462.85,4828.57L3270.32,4828.57C3274.33,4806.49 3284.36,4785.92 3299.9,4769.87C3319.95,4749.8 3346.53,4738.76 3373.1,4738.76C3390.65,4738.76 3407.7,4743.78 3422.24,4753.31C3443.8,4767.36 3458.84,4792.44 3462.85,4828.57ZM3270.82,4741.27C3243.28,4769.87 3228.26,4809 3228.26,4849.6C3228.26,4934.84 3289.87,5003.49 3372.1,5003.49C3454.33,5003.49 3492.43,4971.45 3492.43,4971.45L3466.36,4937.85C3466.36,4937.85 3432.26,4962.44 3372.1,4962.44C3318.45,4962.44 3278.34,4922.8 3269.82,4870.12L3504.97,4870.12L3504.97,4845.09C3503.96,4782.41 3478.39,4741.77 3444.8,4719.23C3423.74,4705.22 3398.67,4698.21 3373.6,4698.21C3336.5,4698.21 3298.39,4712.73 3270.82,4741.27Z" style="fill:rgb(238,238,238);fill-rule:nonzero;"/>
                </g>
                <g transform="matrix(6.33972e-18,0.103536,-0.103536,6.33972e-18,4178.51,508.79)">
                    <path d="M-261.683,4606.47L-300.818,4613.16L-300.818,4995.97L-261.683,4995.97L-261.683,4606.47Z" style="fill:rgb(238,238,238);fill-rule:nonzero;"/>
                    <path d="M41.895,4854.04L41.895,4861.21C39.983,4918.11 -4.961,4964.01 -60.901,4964.01C-117.797,4964.01 -163.697,4916.19 -163.697,4857.86C-163.697,4799.53 -117.797,4751.24 -60.901,4751.24C-4.961,4751.24 39.983,4797.14 41.895,4854.04ZM41.895,4942.49L41.895,4995.97L81.03,4995.97L81.03,4719.28L41.895,4719.28L41.895,4773.57C21.814,4736.45 -13.089,4712.11 -60.901,4712.11C-139.313,4712.11 -202.832,4777.54 -202.832,4857.86C-202.832,4938.19 -139.313,5003.14 -60.901,5003.14C-13.089,5003.14 21.814,4979.28 41.895,4942.49Z" style="fill:rgb(238,238,238);fill-rule:nonzero;"/>
                    <path d="M144.632,4758.89L302.844,4758.89L144.632,4956.36L144.632,4995.97L351.598,4995.97L351.598,4956.36L193.386,4956.36L351.598,4758.89L351.598,4719.28L144.632,4719.28L144.632,4758.89Z" style="fill:rgb(238,238,238);fill-rule:nonzero;"/>
                    <path d="M545.659,4944.74L447.195,4719.28L402.264,4719.28L523.194,4996.23L499.773,5049.14C494.037,5060.1 482.565,5067.73 469.66,5067.73C460.578,5067.73 451.496,5064.39 445.283,5057.72L416.126,5086.34C430.465,5100.66 449.585,5108.77 469.66,5108.77C499.295,5108.77 525.584,5091.59 538.011,5065.34L689.054,4719.28L644.123,4719.28L545.659,4944.74Z" style="fill:rgb(238,238,238);fill-rule:nonzero;"/>
                    <path d="M1157.51,4854.52L1157.51,4861.69C1155.59,4918.58 1111.13,4964.01 1055.19,4964.01C998.292,4964.01 952.392,4916.19 952.392,4857.86C952.392,4799.53 998.292,4751.72 1055.19,4751.72C1111.13,4751.72 1155.59,4797.62 1157.51,4854.52ZM1157.51,4773.24C1137.42,4736.45 1103,4712.59 1055.19,4712.59C976.777,4712.59 913.258,4777.54 913.258,4857.86C913.258,4938.19 976.777,5003.14 1055.19,5003.14C1103,5003.14 1137.42,4979.28 1157.51,4942.49L1157.51,4995.97L1196.64,4995.97L1196.64,4613.64L1157.51,4613.64L1157.51,4773.24Z" style="fill:rgb(238,238,238);fill-rule:nonzero;"/>
                    <path d="M1399.81,4751.24C1457.19,4751.24 1503.57,4799.06 1503.57,4857.86C1503.57,4916.67 1457.19,4964.01 1399.81,4964.01C1342.44,4964.01 1296.06,4916.67 1296.06,4857.86C1296.06,4799.06 1342.44,4751.24 1399.81,4751.24ZM1399.81,4712.11C1321.4,4712.11 1257.88,4777.54 1257.88,4857.86C1257.88,4938.19 1321.4,5003.14 1399.81,5003.14C1478.23,5003.14 1541.75,4938.19 1541.75,4857.86C1541.75,4777.54 1478.23,4712.11 1399.81,4712.11Z" style="fill:rgb(238,238,238);fill-rule:nonzero;"/>
                    <path d="M1820.47,4836.83L1820.47,4852.61C1816.64,4900.42 1777.91,4938.67 1730.1,4938.67C1679.89,4938.67 1639.73,4896.6 1639.73,4844.96C1639.73,4793.32 1679.89,4750.77 1730.1,4750.77C1777.91,4750.77 1816.64,4789.02 1820.47,4836.83ZM1723.41,5108.77C1805.65,5108.77 1859.6,5057.68 1859.6,4971.12L1859.6,4719.28L1820.47,4719.28L1820.47,4764.11C1802.3,4732.15 1771.7,4712.11 1730.1,4712.11C1658.38,4712.11 1600.6,4771.32 1600.6,4844.96C1600.6,4918.59 1658.38,4977.81 1730.1,4977.81C1771.7,4977.81 1802.3,4957.76 1820.47,4926.24L1820.47,4975.42C1818.56,5036.16 1782.22,5069.64 1723.41,5069.64C1666.03,5069.64 1629.23,5047.16 1629.23,5047.16L1608.23,5080.14C1608.23,5080.14 1653.12,5108.77 1723.41,5108.77Z" style="fill:rgb(238,238,238);fill-rule:nonzero;"/>
                </g>
            </g>
        </g>
    </g>
</svg>
