<?xml version="1.0" encoding="UTF-8" standalone="no"?>
<!DOCTYPE svg PUBLIC "-//W3C//DTD SVG 1.1//EN" "http://www.w3.org/Graphics/SVG/1.1/DTD/svg11.dtd">
<svg width="100%" height="100%" viewBox="0 0 2467 529" version="1.1" xmlns="http://www.w3.org/2000/svg" xmlns:xlink="http://www.w3.org/1999/xlink" xml:space="preserve" xmlns:serif="http://www.serif.com/" style="fill-rule:evenodd;clip-rule:evenodd;stroke-linejoin:round;stroke-miterlimit:2;">
    <g transform="matrix(1.0822,0,0,1.0822,-180.126,-18.0766)">
        <g transform="matrix(96,0,0,96,166.445,95.0336)">
            <path d="M0.366,-0.685L0.506,-0.336L0.227,-0.336L0.366,-0.685ZM0.412,-0.8L0.32,-0.8L0,-0L0.092,-0L0.194,-0.254L0.539,-0.254L0.641,-0L0.733,-0L0.412,-0.8Z" style="fill:rgb(230,56,70);fill-rule:nonzero;"/>
        </g>
        <g transform="matrix(96,0,0,96,263.597,95.0336)">
            <path d="M0.324,-0.8L0.324,-0.801L0,-0.801L0,0.001L0.341,0.001C0.463,0.001 0.563,-0.098 0.563,-0.22C0.563,-0.303 0.517,-0.375 0.45,-0.413C0.497,-0.454 0.526,-0.513 0.526,-0.58C0.526,-0.696 0.437,-0.79 0.324,-0.8L0.324,-0.8ZM0.341,-0.359C0.418,-0.359 0.48,-0.297 0.48,-0.22C0.48,-0.143 0.418,-0.081 0.341,-0.081L0.082,-0.081L0.082,-0.359L0.341,-0.359ZM0.322,-0.719C0.391,-0.711 0.445,-0.651 0.445,-0.58C0.445,-0.509 0.391,-0.449 0.322,-0.441L0.082,-0.441L0.082,-0.719L0.322,-0.719Z" style="fill:white;fill-rule:nonzero;"/>
        </g>
        <g transform="matrix(96,0,0,96,344.429,95.0336)">
            <path d="M0.709,-0.694C0.631,-0.772 0.525,-0.815 0.415,-0.815C0.186,-0.815 0,-0.629 0,-0.4C0,-0.171 0.186,0.015 0.415,0.015C0.525,0.015 0.631,-0.028 0.709,-0.106L0.649,-0.166C0.587,-0.104 0.503,-0.069 0.415,-0.069C0.232,-0.069 0.085,-0.217 0.085,-0.4C0.085,-0.583 0.232,-0.731 0.415,-0.731C0.503,-0.731 0.587,-0.696 0.649,-0.634L0.709,-0.694Z" style="fill:white;fill-rule:nonzero;"/>
        </g>
        <g transform="matrix(96,0,0,96,439.373,95.0336)">
            <path d="M0,-0.8L0,-0L0.301,-0C0.522,-0 0.702,-0.18 0.702,-0.4C0.702,-0.62 0.522,-0.8 0.301,-0.8L0,-0.8ZM0.082,-0.718L0.301,-0.718C0.477,-0.718 0.619,-0.575 0.619,-0.4C0.619,-0.225 0.477,-0.082 0.301,-0.082L0.082,-0.082L0.082,-0.718Z" style="fill:white;fill-rule:nonzero;"/>
        </g>
        <g transform="matrix(96,0,0,96,533.549,95.0336)">
            <path d="M0,-0.801L0,0.001L0.539,0.001L0.539,-0.081L0.082,-0.081L0.082,-0.359L0.432,-0.359L0.432,-0.441L0.082,-0.441L0.082,-0.719L0.539,-0.719L0.539,-0.801L0,-0.801Z" style="fill:white;fill-rule:nonzero;"/>
        </g>
        <g transform="matrix(96,0,0,96,612.173,95.0336)">
            <path d="M0,-0.8L0,-0L0.082,-0L0.082,-0.359L0.432,-0.359L0.432,-0.441L0.082,-0.441L0.082,-0.718L0.539,-0.718L0.539,-0.8L0,-0.8Z" style="fill:white;fill-rule:nonzero;"/>
        </g>
        <g transform="matrix(96,0,0,96,682.061,95.0336)">
            <path d="M0.733,-0.133L0.733,-0.428L0.391,-0.428L0.391,-0.346L0.651,-0.346L0.651,-0.168C0.589,-0.105 0.504,-0.069 0.415,-0.069C0.232,-0.069 0.085,-0.217 0.085,-0.4C0.085,-0.583 0.232,-0.731 0.415,-0.731C0.503,-0.731 0.587,-0.696 0.649,-0.634L0.709,-0.694C0.631,-0.772 0.525,-0.816 0.415,-0.816C0.186,-0.816 0,-0.629 0,-0.4C0,-0.171 0.186,0.015 0.415,0.015C0.538,0.015 0.654,-0.039 0.733,-0.133Z" style="fill:white;fill-rule:nonzero;"/>
        </g>
        <g transform="matrix(96,0,0,96,779.309,95.0336)">
            <path d="M0.082,-0.442L0.082,-0.8L0,-0.8L0,-0L0.082,-0L0.082,-0.359L0.54,-0.359L0.54,-0L0.622,-0L0.622,-0.8L0.54,-0.8L0.54,-0.442L0.082,-0.442Z" style="fill:white;fill-rule:nonzero;"/>
        </g>
        <g transform="matrix(96,0,0,96,865.805,95.0336)">
            <rect x="0" y="-0.8" width="0.082" height="0.8" style="fill:white;fill-rule:nonzero;"/>
        </g>
        <g transform="matrix(96,0,0,96,900.557,95.0336)">
            <path d="M0.472,-0.8L0.39,-0.8L0.39,-0.221C0.39,-0.136 0.321,-0.067 0.236,-0.067C0.151,-0.067 0.082,-0.136 0.082,-0.221L0,-0.221C0,-0.091 0.106,0.015 0.236,0.015C0.366,0.015 0.472,-0.09 0.472,-0.22L0.472,-0.8Z" style="fill:rgb(230,56,70);fill-rule:nonzero;"/>
        </g>
        <g transform="matrix(96,0,0,96,972.749,95.0336)">
            <path d="M0.082,-0.39L0.082,-0.8L0,-0.8L0,-0L0.082,-0L0.082,-0.269L0.201,-0.397L0.516,-0L0.621,-0L0.258,-0.458L0.576,-0.8L0.464,-0.8L0.082,-0.39Z" style="fill:white;fill-rule:nonzero;"/>
        </g>
        <g transform="matrix(96,0,0,96,1059.25,95.0336)">
            <path d="M0.082,-0.082L0.082,-0.8L0,-0.8L0,-0L0.54,-0L0.54,-0.082L0.082,-0.082Z" style="fill:white;fill-rule:nonzero;"/>
        </g>
        <g transform="matrix(96,0,0,96,1137.87,95.0336)">
            <path d="M0,-0.8L0,-0L0.082,-0L0.082,-0.645L0.37,-0.104L0.463,-0.104L0.75,-0.645L0.75,-0L0.833,-0L0.833,-0.8L0.74,-0.8L0.416,-0.192L0.093,-0.8L0,-0.8Z" style="fill:white;fill-rule:nonzero;"/>
        </g>
        <g transform="matrix(96,0,0,96,1244.62,95.0336)">
            <path d="M0.082,-0.681L0.557,-0L0.66,-0L0.66,-0.8L0.578,-0.8L0.578,-0.119L0.103,-0.8L0,-0.8L0,-0L0.082,-0L0.082,-0.681Z" style="fill:white;fill-rule:nonzero;"/>
        </g>
        <g transform="matrix(96,0,0,96,1334.86,95.0336)">
            <path d="M0.415,-0.815C0.186,-0.815 0,-0.629 0,-0.4C0,-0.171 0.186,0.015 0.415,0.015C0.644,0.015 0.831,-0.171 0.831,-0.4C0.831,-0.629 0.644,-0.815 0.415,-0.815ZM0.415,-0.731C0.598,-0.731 0.746,-0.583 0.746,-0.4C0.746,-0.217 0.598,-0.069 0.415,-0.069C0.232,-0.069 0.085,-0.217 0.085,-0.4C0.085,-0.583 0.232,-0.731 0.415,-0.731Z" style="fill:white;fill-rule:nonzero;"/>
        </g>
        <g transform="matrix(96,0,0,96,1441.42,95.0336)">
            <path d="M0.575,-0.547C0.575,-0.687 0.462,-0.8 0.322,-0.8L0,-0.8L0,-0L0.082,-0L0.082,-0.295L0.322,-0.295C0.462,-0.295 0.575,-0.408 0.575,-0.547ZM0.082,-0.718L0.322,-0.718C0.416,-0.718 0.493,-0.641 0.493,-0.547C0.493,-0.454 0.416,-0.377 0.322,-0.377L0.082,-0.377L0.082,-0.718Z" style="fill:white;fill-rule:nonzero;"/>
        </g>
        <g transform="matrix(96,0,0,96,1523.5,95.0336)">
            <path d="M0.687,-0.087L0.786,-0L0.84,-0.062L0.744,-0.146C0.799,-0.216 0.831,-0.305 0.831,-0.401C0.831,-0.629 0.644,-0.815 0.415,-0.815C0.186,-0.815 0,-0.629 0,-0.401C0,-0.171 0.186,0.015 0.415,0.015C0.519,0.015 0.614,-0.023 0.687,-0.086L0.687,-0.087ZM0.68,-0.201L0.569,-0.297L0.515,-0.235L0.622,-0.142C0.565,-0.097 0.493,-0.069 0.415,-0.069C0.232,-0.069 0.085,-0.217 0.085,-0.4C0.085,-0.583 0.232,-0.731 0.415,-0.731C0.598,-0.731 0.746,-0.583 0.746,-0.4C0.746,-0.325 0.722,-0.256 0.68,-0.201Z" style="fill:white;fill-rule:nonzero;"/>
        </g>
        <g transform="matrix(96,0,0,96,1631.02,95.0336)">
            <path d="M0.575,-0.547C0.575,-0.687 0.462,-0.8 0.322,-0.8L0,-0.8L0,-0L0.082,-0L0.082,-0.295L0.311,-0.295L0.489,-0L0.594,-0L0.407,-0.309C0.505,-0.344 0.575,-0.438 0.575,-0.547ZM0.322,-0.718L0.322,-0.717C0.416,-0.717 0.493,-0.641 0.493,-0.547C0.493,-0.454 0.416,-0.377 0.322,-0.377L0.082,-0.377L0.082,-0.718L0.322,-0.718Z" style="fill:white;fill-rule:nonzero;"/>
        </g>
        <g transform="matrix(96,0,0,96,1714.83,95.0336)">
            <path d="M0.542,-0.724C0.542,-0.724 0.463,-0.815 0.281,-0.815C0.11,-0.815 0.005,-0.704 0.005,-0.586C0.005,-0.571 0.006,-0.555 0.01,-0.54C0.026,-0.472 0.069,-0.432 0.124,-0.405C0.203,-0.366 0.316,-0.361 0.398,-0.325C0.44,-0.306 0.473,-0.275 0.481,-0.219C0.482,-0.214 0.482,-0.21 0.482,-0.205C0.482,-0.131 0.403,-0.07 0.289,-0.07C0.151,-0.07 0.05,-0.142 0.05,-0.142L0,-0.073C0,-0.073 0.122,0.015 0.289,0.015C0.461,0.015 0.568,-0.091 0.568,-0.206C0.568,-0.214 0.567,-0.223 0.566,-0.231C0.546,-0.375 0.428,-0.414 0.303,-0.442C0.217,-0.461 0.112,-0.474 0.093,-0.56C0.091,-0.569 0.09,-0.578 0.09,-0.587C0.09,-0.664 0.168,-0.73 0.281,-0.73C0.418,-0.73 0.478,-0.667 0.478,-0.667L0.542,-0.724Z" style="fill:rgb(230,56,70);fill-rule:nonzero;"/>
        </g>
        <g transform="matrix(96,0,0,96,1783.76,95.0336)">
            <path d="M0.627,-0.8L0,-0.8L0,-0.718L0.272,-0.718L0.272,-0L0.355,-0L0.355,-0.718L0.627,-0.718L0.627,-0.8Z" style="fill:white;fill-rule:nonzero;"/>
        </g>
        <g transform="matrix(96,0,0,96,1870.73,95.0336)">
            <path d="M0.544,-0.298C0.544,-0.171 0.44,-0.068 0.313,-0.068C0.186,-0.068 0.083,-0.171 0.083,-0.298L0.083,-0.8L0,-0.8L0,-0.298C0,-0.125 0.14,0.015 0.313,0.015C0.486,0.015 0.627,-0.125 0.627,-0.298L0.627,-0.8L0.544,-0.8L0.544,-0.298Z" style="fill:white;fill-rule:nonzero;"/>
        </g>
        <g transform="matrix(96,0,0,96,1957.71,95.0336)">
            <path d="M0.349,-0L0.443,-0L0.793,-0.8L0.699,-0.8L0.396,-0.108L0.094,-0.8L0,-0.8L0.349,-0Z" style="fill:white;fill-rule:nonzero;"/>
        </g>
        <g transform="matrix(96,0,0,96,2060.62,95.0336)">
            <path d="M0.335,-0.131L0.094,-0.8L0,-0.8L0.288,-0L0.382,-0L0.623,-0.669L0.864,-0L0.958,-0L1.246,-0.8L1.152,-0.8L0.911,-0.131L0.67,-0.8L0.576,-0.8L0.335,-0.131Z" style="fill:white;fill-rule:nonzero;"/>
        </g>
        <g transform="matrix(96,0,0,96,2207.12,95.0336)">
            <path d="M0.376,-0.4L0.652,-0.8L0.552,-0.8L0.326,-0.473L0.101,-0.8L0,-0.8L0.276,-0.4L0,-0L0.1,-0L0.326,-0.327L0.551,-0L0.652,-0L0.376,-0.4Z" style="fill:white;fill-rule:nonzero;"/>
        </g>
        <g transform="matrix(96,0,0,96,2296.49,95.0336)">
            <path d="M0.333,-0.453L0.098,-0.8L0,-0.8L0.292,-0.37L0.292,-0L0.374,-0L0.374,-0.37L0.666,-0.8L0.569,-0.8L0.333,-0.453Z" style="fill:white;fill-rule:nonzero;"/>
        </g>
        <g transform="matrix(96,0,0,96,2387.31,95.0336)">
            <path d="M0.508,-0.718L0,-0.082L0,-0L0.61,-0L0.61,-0.082L0.102,-0.082L0.61,-0.718L0.61,-0.8L0,-0.8L0,-0.718L0.508,-0.718Z" style="fill:white;fill-rule:nonzero;"/>
        </g>
    </g>
    <g transform="matrix(1.0822,0,0,1.0822,124.328,129.483)">
        <g transform="matrix(96,0,0,96,92.0872,95.0336)">
            <path d="M0.507,-0.297L0.507,-0.282C0.503,-0.163 0.409,-0.067 0.292,-0.067C0.173,-0.067 0.077,-0.167 0.077,-0.289C0.077,-0.411 0.173,-0.512 0.292,-0.512C0.409,-0.512 0.503,-0.416 0.507,-0.297ZM0.507,-0.112L0.507,-0L0.589,-0L0.589,-0.579L0.507,-0.579L0.507,-0.465C0.465,-0.543 0.392,-0.594 0.292,-0.594C0.128,-0.594 -0.005,-0.457 -0.005,-0.289C-0.005,-0.121 0.128,0.015 0.292,0.015C0.392,0.015 0.465,-0.035 0.507,-0.112Z" style="fill:rgb(230,56,70);fill-rule:nonzero;"/>
        </g>
        <g transform="matrix(96,0,0,96,175.991,95.0336)">
            <path d="M0.082,-0.281L0.082,-0.296C0.086,-0.415 0.18,-0.511 0.297,-0.511C0.416,-0.511 0.511,-0.411 0.511,-0.289C0.511,-0.167 0.416,-0.067 0.297,-0.067C0.18,-0.067 0.086,-0.162 0.082,-0.281ZM0.082,-0.466L0.082,-0.8L0,-0.8L0,-0L0.082,-0L0.082,-0.113C0.124,-0.035 0.197,0.015 0.297,0.015C0.461,0.015 0.593,-0.121 0.593,-0.289C0.593,-0.457 0.461,-0.593 0.297,-0.593C0.197,-0.593 0.124,-0.543 0.082,-0.466Z" style="fill:rgb(230,56,70);fill-rule:nonzero;"/>
        </g>
        <g transform="matrix(96,0,0,96,259.319,95.0336)">
            <path d="M0.549,-0.442C0.496,-0.536 0.398,-0.594 0.292,-0.594C0.128,-0.594 -0.005,-0.457 -0.005,-0.289C-0.005,-0.121 0.128,0.015 0.292,0.015C0.398,0.015 0.496,-0.043 0.549,-0.137L0.48,-0.178C0.441,-0.109 0.37,-0.067 0.292,-0.067C0.172,-0.067 0.075,-0.166 0.075,-0.289C0.075,-0.412 0.172,-0.512 0.292,-0.512C0.37,-0.512 0.441,-0.47 0.48,-0.401L0.549,-0.442Z" style="fill:white;fill-rule:nonzero;"/>
        </g>
        <g transform="matrix(96,0,0,96,335.447,95.0336)">
            <path d="M0.506,-0.296L0.506,-0.281C0.502,-0.162 0.409,-0.067 0.292,-0.067C0.173,-0.067 0.077,-0.167 0.077,-0.289C0.077,-0.411 0.173,-0.511 0.292,-0.511C0.409,-0.511 0.502,-0.415 0.506,-0.296ZM0.506,-0.466C0.464,-0.543 0.392,-0.593 0.292,-0.593C0.128,-0.593 -0.005,-0.457 -0.005,-0.289C-0.005,-0.121 0.128,0.015 0.292,0.015C0.392,0.015 0.464,-0.035 0.506,-0.112L0.506,-0L0.588,-0L0.588,-0.8L0.506,-0.8L0.506,-0.466Z" style="fill:rgb(230,56,70);fill-rule:nonzero;"/>
        </g>
        <g transform="matrix(96,0,0,96,419.255,95.0336)">
            <path d="M0.463,-0.334L0.079,-0.334C0.087,-0.378 0.107,-0.419 0.138,-0.451C0.178,-0.491 0.231,-0.513 0.284,-0.513C0.319,-0.513 0.353,-0.503 0.382,-0.484C0.425,-0.456 0.455,-0.406 0.463,-0.334ZM0.08,-0.508C0.025,-0.451 -0.005,-0.373 -0.005,-0.292C-0.005,-0.122 0.118,0.015 0.282,0.015C0.446,0.015 0.522,-0.049 0.522,-0.049L0.47,-0.116C0.47,-0.116 0.402,-0.067 0.282,-0.067C0.175,-0.067 0.095,-0.146 0.078,-0.251L0.547,-0.251L0.547,-0.301C0.545,-0.426 0.494,-0.507 0.427,-0.552C0.385,-0.58 0.335,-0.594 0.285,-0.594C0.211,-0.594 0.135,-0.565 0.08,-0.508Z" style="fill:rgb(230,56,70);fill-rule:nonzero;"/>
        </g>
        <g transform="matrix(96,0,0,96,490.487,95.0336)">
            <path d="M0.08,-0.666L0.08,-0.581L0,-0.581L0,-0.498L0.08,-0.498L0.08,-0L0.163,-0L0.163,-0.498L0.306,-0.498L0.306,-0.581L0.163,-0.581L0.163,-0.666C0.163,-0.717 0.203,-0.757 0.254,-0.757C0.298,-0.757 0.318,-0.754 0.318,-0.754L0.327,-0.829C0.327,-0.829 0.298,-0.84 0.254,-0.84C0.158,-0.84 0.08,-0.762 0.08,-0.666Z" style="fill:rgb(230,56,70);fill-rule:nonzero;"/>
        </g>
        <g transform="matrix(96,0,0,96,538.295,95.0336)">
            <path d="M0.455,-0.333L0.455,-0.3C0.447,-0.2 0.366,-0.12 0.266,-0.12C0.161,-0.12 0.077,-0.208 0.077,-0.316C0.077,-0.424 0.161,-0.513 0.266,-0.513C0.366,-0.513 0.447,-0.433 0.455,-0.333ZM0.252,0.236C0.424,0.236 0.537,0.129 0.537,-0.052L0.537,-0.579L0.455,-0.579L0.455,-0.485C0.417,-0.552 0.353,-0.594 0.266,-0.594C0.116,-0.594 -0.005,-0.47 -0.005,-0.316C-0.005,-0.162 0.116,-0.038 0.266,-0.038C0.353,-0.038 0.417,-0.08 0.455,-0.146L0.455,-0.043C0.451,0.084 0.375,0.154 0.252,0.154C0.132,0.154 0.055,0.107 0.055,0.107L0.011,0.176C0.011,0.176 0.105,0.236 0.252,0.236Z" style="fill:rgb(230,56,70);fill-rule:nonzero;"/>
        </g>
        <g transform="matrix(96,0,0,96,617.207,95.0336)">
            <path d="M0.082,-0.479L0.082,-0.8L0,-0.8L0,-0L0.082,-0L0.082,-0.328C0.082,-0.352 0.087,-0.376 0.097,-0.398C0.126,-0.462 0.19,-0.508 0.26,-0.508C0.34,-0.508 0.4,-0.448 0.404,-0.369L0.404,-0L0.487,-0L0.487,-0.367L0.486,-0.367C0.487,-0.494 0.395,-0.593 0.269,-0.593C0.184,-0.593 0.12,-0.548 0.082,-0.479Z" style="fill:rgb(230,56,70);fill-rule:nonzero;"/>
        </g>
        <g transform="matrix(96,0,0,96,690.743,95.0336)">
            <path d="M0.098,-0.579L0.016,-0.579L0.016,-0L0.098,-0L0.098,-0.579ZM0.057,-0.8C0.026,-0.8 0,-0.774 0,-0.743C0,-0.712 0.026,-0.686 0.057,-0.686C0.088,-0.686 0.114,-0.712 0.114,-0.743C0.114,-0.774 0.088,-0.8 0.057,-0.8Z" style="fill:white;fill-rule:nonzero;"/>
        </g>
        <g transform="matrix(96,0,0,96,728.471,95.0336)">
            <path d="M0.058,-0.815C0.027,-0.815 0.001,-0.79 0.001,-0.759C0.001,-0.728 0.027,-0.702 0.058,-0.702C0.089,-0.702 0.115,-0.728 0.115,-0.759C0.115,-0.79 0.089,-0.815 0.058,-0.815ZM0.017,0.049C0.017,0.107 -0.03,0.154 -0.088,0.154C-0.116,0.154 -0.142,0.143 -0.162,0.123L-0.22,0.181C-0.185,0.216 -0.138,0.236 -0.088,0.236C0.015,0.236 0.099,0.152 0.099,0.049L0.099,-0.579L0.017,-0.579L0.017,0.049Z" style="fill:rgb(230,56,70);fill-rule:nonzero;"/>
        </g>
        <g transform="matrix(96,0,0,96,766.295,95.0336)">
            <path d="M0.082,-0.309L0.082,-0.8L0,-0.8L0,-0L0.082,-0L0.082,-0.189L0.166,-0.279L0.387,-0L0.493,-0L0.223,-0.34L0.444,-0.579L0.333,-0.579L0.082,-0.309Z" style="fill:white;fill-rule:nonzero;"/>
        </g>
        <g transform="matrix(96,0,0,96,840.407,95.0336)">
            <path d="M0.082,-0.815L0,-0.801L0,-0L0.082,-0L0.082,-0.815Z" style="fill:rgb(230,56,70);fill-rule:nonzero;"/>
        </g>
        <g transform="matrix(96,0,0,96,875.159,95.0336)">
            <path d="M0.474,-0.451C0.444,-0.535 0.366,-0.594 0.269,-0.594C0.184,-0.594 0.12,-0.549 0.082,-0.48L0.082,-0.579L0,-0.579L0,-0L0.082,-0L0.082,-0.328C0.082,-0.352 0.088,-0.376 0.098,-0.398C0.127,-0.463 0.191,-0.509 0.261,-0.509C0.341,-0.509 0.401,-0.449 0.405,-0.37L0.405,-0L0.488,-0L0.488,-0.329C0.488,-0.353 0.493,-0.377 0.503,-0.399C0.532,-0.463 0.596,-0.509 0.666,-0.509C0.746,-0.509 0.807,-0.449 0.811,-0.37L0.811,-0L0.893,-0L0.893,-0.368C0.894,-0.495 0.801,-0.594 0.675,-0.594C0.578,-0.594 0.51,-0.535 0.474,-0.451Z" style="fill:rgb(230,56,70);fill-rule:nonzero;"/>
        </g>
        <g transform="matrix(96,0,0,96,987.767,95.0336)">
            <path d="M0.082,-0.479L0.082,-0.579L0,-0.579L0,-0L0.082,-0L0.082,-0.328C0.082,-0.352 0.088,-0.376 0.098,-0.398C0.127,-0.463 0.191,-0.509 0.261,-0.509C0.341,-0.509 0.401,-0.449 0.405,-0.37L0.405,-0L0.488,-0L0.488,-0.368C0.489,-0.495 0.395,-0.594 0.269,-0.594C0.184,-0.594 0.12,-0.549 0.082,-0.48L0.082,-0.479Z" style="fill:rgb(230,56,70);fill-rule:nonzero;"/>
        </g>
        <g transform="matrix(96,0,0,96,1061.4,95.0336)">
            <path d="M0.292,-0.512C0.412,-0.512 0.509,-0.412 0.509,-0.289C0.509,-0.166 0.412,-0.067 0.292,-0.067C0.172,-0.067 0.075,-0.166 0.075,-0.289C0.075,-0.412 0.172,-0.512 0.292,-0.512ZM0.292,-0.594C0.128,-0.594 -0.005,-0.457 -0.005,-0.289C-0.005,-0.121 0.128,0.015 0.292,0.015C0.456,0.015 0.589,-0.121 0.589,-0.289C0.589,-0.457 0.456,-0.594 0.292,-0.594Z" style="fill:white;fill-rule:nonzero;"/>
        </g>
        <g transform="matrix(96,0,0,96,1144.82,95.0336)">
            <path d="M0.082,-0.282L0.082,-0.297C0.086,-0.416 0.18,-0.512 0.297,-0.512C0.416,-0.512 0.512,-0.411 0.512,-0.289C0.512,-0.167 0.416,-0.067 0.297,-0.067C0.18,-0.067 0.086,-0.163 0.082,-0.282ZM0.082,-0.466L0.082,-0.579L0,-0.579L0,0.222L0.082,0.222L0.082,-0.112C0.124,-0.035 0.197,0.015 0.297,0.015C0.461,0.015 0.594,-0.121 0.594,-0.289C0.594,-0.457 0.461,-0.594 0.297,-0.594C0.197,-0.594 0.124,-0.543 0.082,-0.466Z" style="fill:rgb(230,56,70);fill-rule:nonzero;"/>
        </g>
        <g transform="matrix(96,0,0,96,1228.25,95.0336)">
            <path d="M0.507,-0.282C0.503,-0.163 0.409,-0.067 0.292,-0.067C0.173,-0.067 0.077,-0.167 0.077,-0.289C0.077,-0.411 0.173,-0.512 0.292,-0.512C0.409,-0.512 0.503,-0.416 0.507,-0.297L0.507,-0.282ZM0.507,-0.466C0.465,-0.543 0.392,-0.594 0.292,-0.594C0.128,-0.594 -0.005,-0.457 -0.005,-0.289C-0.005,-0.121 0.128,0.015 0.292,0.015C0.392,0.015 0.465,-0.035 0.507,-0.112L0.507,0.222L0.589,0.222L0.589,-0.579L0.507,-0.579L0.507,-0.466Z" style="fill:rgb(230,56,70);fill-rule:nonzero;"/>
        </g>
        <g transform="matrix(96,0,0,96,1312.15,95.0336)">
            <path d="M0.084,-0.541L0.084,-0.595L0,-0.595L0,-0L0.084,-0L0.085,-0.386C0.085,-0.463 0.147,-0.525 0.224,-0.525C0.25,-0.525 0.298,-0.519 0.298,-0.519L0.298,-0.602C0.298,-0.602 0.249,-0.61 0.224,-0.61C0.161,-0.61 0.114,-0.583 0.084,-0.541L0.084,-0.541Z" style="fill:rgb(230,56,70);fill-rule:nonzero;"/>
        </g>
        <g transform="matrix(96,0,0,96,1362.74,95.0336)">
            <path d="M0.423,-0.539C0.423,-0.539 0.365,-0.61 0.226,-0.61C0.094,-0.61 0.013,-0.522 0.013,-0.431C0.013,-0.419 0.014,-0.407 0.017,-0.395C0.036,-0.316 0.099,-0.284 0.175,-0.265C0.245,-0.246 0.338,-0.244 0.349,-0.165L0.349,-0.158C0.349,-0.138 0.339,-0.119 0.322,-0.105C0.298,-0.084 0.261,-0.072 0.218,-0.072C0.121,-0.072 0.043,-0.123 0.043,-0.123L-0.005,-0.049C-0.005,-0.049 0.095,0.015 0.218,0.015C0.351,0.015 0.437,-0.069 0.437,-0.158C0.437,-0.164 0.437,-0.171 0.436,-0.177C0.421,-0.287 0.335,-0.319 0.241,-0.34C0.185,-0.352 0.116,-0.36 0.103,-0.416C0.102,-0.422 0.101,-0.427 0.101,-0.433C0.101,-0.482 0.153,-0.522 0.226,-0.522C0.317,-0.522 0.358,-0.481 0.358,-0.481L0.423,-0.539Z" style="fill:rgb(230,56,70);fill-rule:nonzero;"/>
        </g>
        <g transform="matrix(96,0,0,96,1425.43,95.0336)">
            <path d="M0.176,-0.579L0.176,-0.732L0.094,-0.718L0.094,-0.579L0,-0.579L0,-0.497L0.094,-0.497L0.094,-0.16C0.094,-0.063 0.172,0.015 0.269,0.015C0.308,0.015 0.371,-0 0.371,-0L0.355,-0.074C0.355,-0.074 0.32,-0.067 0.269,-0.067C0.218,-0.067 0.176,-0.108 0.176,-0.159L0.176,-0.497L0.351,-0.497L0.351,-0.579L0.176,-0.579Z" style="fill:rgb(230,56,70);fill-rule:nonzero;"/>
        </g>
        <g transform="matrix(96,0,0,96,1487.93,95.0336)">
            <path d="M0.389,-0.179C0.36,-0.115 0.297,-0.069 0.227,-0.069C0.147,-0.069 0.086,-0.129 0.082,-0.208L0.082,-0.579L0,-0.579L0,-0.21C-0.001,-0.083 0.092,0.015 0.218,0.015C0.303,0.015 0.367,-0.03 0.405,-0.099L0.405,-0L0.487,-0L0.487,-0.579L0.405,-0.579L0.405,-0.25C0.405,-0.226 0.399,-0.202 0.389,-0.18L0.389,-0.179Z" style="fill:rgb(230,56,70);fill-rule:nonzero;"/>
        </g>
        <g transform="matrix(96,0,0,96,1561.46,95.0336)">
            <path d="M0.3,-0.108L0.094,-0.579L0,-0.579L0.253,-0L0.347,-0L0.6,-0.579L0.506,-0.579L0.3,-0.108Z" style="fill:white;fill-rule:nonzero;"/>
        </g>
        <g transform="matrix(96,0,0,96,1645.85,95.0336)">
            <path d="M0.417,-0.579L0.255,-0.131L0.094,-0.579L0,-0.579L0.208,-0L0.302,-0L0.464,-0.449L0.625,-0L0.719,-0L0.928,-0.579L0.834,-0.579L0.672,-0.131L0.511,-0.579L0.417,-0.579Z" style="fill:white;fill-rule:nonzero;"/>
        </g>
        <g transform="matrix(96,0,0,96,1761.72,95.0336)">
            <path d="M0.25,-0.362L0.101,-0.579L0,-0.579L0.2,-0.289L0.001,-0L0.101,-0L0.25,-0.216L0.399,-0L0.5,-0L0.3,-0.289L0.5,-0.579L0.4,-0.579L0.25,-0.362Z" style="fill:white;fill-rule:nonzero;"/>
        </g>
        <g transform="matrix(96,0,0,96,1832.28,95.0336)">
            <path d="M0.3,-0.107L0.094,-0.579L0,-0.579L0.253,0L0.204,0.111C0.192,0.134 0.168,0.15 0.141,0.15C0.122,0.15 0.103,0.143 0.09,0.129L0.029,0.189C0.059,0.219 0.099,0.236 0.141,0.236C0.203,0.236 0.258,0.2 0.284,0.145L0.6,-0.579L0.506,-0.579L0.3,-0.107Z" style="fill:white;fill-rule:nonzero;"/>
        </g>
        <g transform="matrix(96,0,0,96,1916.66,95.0336)">
            <path d="M0,-0.496L0.331,-0.496L0,-0.083L0,-0L0.433,-0L0.433,-0.083L0.102,-0.083L0.433,-0.496L0.433,-0.579L0,-0.579L0,-0.496Z" style="fill:rgb(230,56,70);fill-rule:nonzero;"/>
        </g>
    </g>
    <g transform="matrix(1.0822,0,0,1.0822,-180.126,277.043)">
        <g transform="matrix(96,0,0,96,401.069,95.0336)">
            <path d="M0,-0.041C0,-0.01 0.026,0.015 0.057,0.015C0.088,0.015 0.114,-0.01 0.114,-0.041C0.114,-0.072 0.088,-0.098 0.057,-0.098C0.026,-0.098 0,-0.072 0,-0.041Z" style="fill:white;fill-rule:nonzero;"/>
        </g>
        <g transform="matrix(96,0,0,96,441.197,95.0336)">
            <path d="M0.143,-0.098L0.054,-0.098L0,0.114L0.051,0.114L0.143,-0.098Z" style="fill:white;fill-rule:nonzero;"/>
        </g>
        <g transform="matrix(96,0,0,96,481.709,95.0336)">
            <path d="M0.078,-0.616C0.078,-0.616 0.128,-0.73 0.245,-0.73C0.346,-0.73 0.414,-0.66 0.414,-0.582C0.414,-0.573 0.413,-0.563 0.411,-0.553C0.393,-0.469 0.343,-0.443 0.299,-0.412C0.238,-0.369 0.183,-0.321 0.183,-0.184L0.268,-0.184C0.268,-0.301 0.327,-0.326 0.38,-0.364C0.429,-0.399 0.475,-0.442 0.495,-0.535C0.498,-0.55 0.5,-0.566 0.5,-0.581C0.5,-0.703 0.4,-0.815 0.245,-0.815C0.074,-0.815 0,-0.651 0,-0.651L0.078,-0.616ZM0.227,-0.098C0.196,-0.098 0.17,-0.072 0.17,-0.041C0.17,-0.01 0.196,0.015 0.227,0.015C0.258,0.015 0.284,-0.01 0.284,-0.041C0.284,-0.072 0.258,-0.098 0.227,-0.098L0.227,-0.098Z" style="fill:rgb(230,56,70);fill-rule:nonzero;"/>
        </g>
        <g transform="matrix(96,0,0,96,556.493,95.0336)">
            <path d="M0.057,-0.098C0.026,-0.098 0,-0.072 0,-0.041C0,-0.01 0.026,0.015 0.057,0.015C0.088,0.015 0.114,-0.01 0.114,-0.041C0.114,-0.072 0.088,-0.098 0.057,-0.098ZM0.098,-0.8L0.016,-0.8L0.016,-0.185L0.098,-0.185L0.098,-0.8Z" style="fill:white;fill-rule:nonzero;"/>
        </g>
        <g transform="matrix(96,0,0,96,594.221,95.0336)">
            <path d="M0.082,-0.8L0,-0.8L0,-0.493L0.082,-0.493L0.082,-0.8ZM0.248,-0.8L0.166,-0.8L0.166,-0.493L0.248,-0.493L0.248,-0.8Z" style="fill:white;fill-rule:nonzero;"/>
        </g>
        <g transform="matrix(96,0,0,96,644.909,95.0336)">
            <rect x="0" y="-0.8" width="0.082" height="0.307" style="fill:white;fill-rule:nonzero;"/>
        </g>
        <g transform="matrix(96,0,0,96,679.565,95.0336)">
            <path d="M0.276,-0.73L0.241,-0.455C0.174,-0.471 0.11,-0.493 0.093,-0.56C0.091,-0.569 0.09,-0.578 0.09,-0.587C0.09,-0.662 0.166,-0.728 0.276,-0.73ZM0.31,-0.352C0.392,-0.333 0.468,-0.31 0.481,-0.219C0.482,-0.214 0.482,-0.21 0.482,-0.205C0.482,-0.131 0.403,-0.07 0.289,-0.07L0.274,-0.07L0.31,-0.352ZM0.368,-0.808L0.384,-0.938L0.302,-0.938L0.287,-0.815L0.281,-0.815C0.11,-0.815 0.005,-0.704 0.005,-0.586C0.005,-0.571 0.006,-0.555 0.01,-0.54C0.035,-0.434 0.125,-0.395 0.23,-0.37L0.193,-0.081C0.107,-0.101 0.05,-0.142 0.05,-0.142L0,-0.073C0,-0.073 0.072,-0.02 0.182,0.004L0.165,0.138L0.247,0.138L0.263,0.015L0.289,0.015C0.461,0.015 0.568,-0.091 0.568,-0.206C0.568,-0.214 0.567,-0.223 0.566,-0.231C0.547,-0.368 0.439,-0.41 0.321,-0.438L0.357,-0.723C0.441,-0.707 0.478,-0.667 0.478,-0.667L0.542,-0.724C0.542,-0.724 0.489,-0.786 0.368,-0.808Z" style="fill:rgb(230,56,70);fill-rule:nonzero;"/>
        </g>
        <g transform="matrix(96,0,0,96,760.877,95.0336)">
            <path d="M0.169,-0.748C0.225,-0.748 0.271,-0.702 0.271,-0.646C0.271,-0.59 0.225,-0.545 0.169,-0.545C0.113,-0.545 0.068,-0.59 0.068,-0.646C0.068,-0.702 0.113,-0.748 0.169,-0.748ZM0.169,-0.815C0.076,-0.815 0,-0.739 0,-0.646C0,-0.553 0.076,-0.477 0.169,-0.477C0.262,-0.477 0.339,-0.553 0.339,-0.646C0.339,-0.739 0.262,-0.815 0.169,-0.815ZM0.574,-0.254C0.63,-0.254 0.675,-0.209 0.675,-0.153C0.675,-0.097 0.63,-0.052 0.574,-0.052C0.518,-0.052 0.473,-0.097 0.473,-0.153C0.473,-0.209 0.518,-0.254 0.574,-0.254ZM0.652,-0.8L0.564,-0.8L0.092,-0L0.18,-0L0.652,-0.8ZM0.574,-0.322C0.481,-0.322 0.406,-0.246 0.406,-0.153C0.406,-0.06 0.481,0.015 0.574,0.015C0.667,0.015 0.743,-0.06 0.743,-0.153C0.743,-0.246 0.667,-0.322 0.574,-0.322Z" style="fill:rgb(230,56,70);fill-rule:nonzero;"/>
        </g>
        <g transform="matrix(96,0,0,96,858.989,95.0336)">
            <path d="M0.245,0.015C0.334,0.015 0.403,-0.014 0.455,-0.057L0.497,0.002L0.594,0.002L0.511,-0.116C0.57,-0.195 0.593,-0.293 0.593,-0.357L0.512,-0.357C0.512,-0.312 0.497,-0.245 0.461,-0.187L0.274,-0.452L0.348,-0.504C0.395,-0.537 0.421,-0.589 0.421,-0.643C0.421,-0.677 0.411,-0.711 0.39,-0.741C0.357,-0.788 0.304,-0.813 0.25,-0.813C0.216,-0.813 0.183,-0.803 0.153,-0.782C0.106,-0.749 0.08,-0.697 0.08,-0.643C0.08,-0.609 0.09,-0.575 0.111,-0.545L0.158,-0.478C0.049,-0.395 0,-0.291 0,-0.202C0,-0.08 0.086,0.015 0.245,0.015L0.245,0.015ZM0.205,-0.412L0.408,-0.123C0.368,-0.089 0.315,-0.066 0.245,-0.066C0.163,-0.066 0.108,-0.101 0.089,-0.154C0.083,-0.17 0.081,-0.186 0.081,-0.204C0.081,-0.271 0.122,-0.348 0.205,-0.412ZM0.25,-0.732C0.295,-0.732 0.339,-0.694 0.339,-0.643C0.339,-0.615 0.327,-0.587 0.302,-0.57L0.229,-0.519L0.178,-0.592C0.167,-0.608 0.162,-0.625 0.162,-0.643C0.162,-0.688 0.199,-0.732 0.25,-0.732L0.25,-0.732Z" style="fill:white;fill-rule:nonzero;"/>
        </g>
        <g transform="matrix(96,0,0,96,942.893,95.0336)">
            <rect x="0" y="-0.8" width="0.082" height="0.307" style="fill:white;fill-rule:nonzero;"/>
        </g>
        <g transform="matrix(96,0,0,96,977.549,95.0336)">
            <path d="M0.123,0.102L0.178,0.076C0.145,-0.003 0.123,-0.08 0.106,-0.158C0.089,-0.238 0.079,-0.318 0.079,-0.397C0.079,-0.479 0.089,-0.559 0.107,-0.641C0.124,-0.719 0.146,-0.797 0.178,-0.876L0.123,-0.902C0.094,-0.847 0.069,-0.791 0.05,-0.735C0.016,-0.638 -0.005,-0.512 -0.005,-0.397C-0.005,-0.199 0.051,-0.034 0.123,0.102Z" style="fill:white;fill-rule:nonzero;"/>
        </g>
        <g transform="matrix(96,0,0,96,1022,95.0336)">
            <path d="M0.257,-0.8L0.171,-0.8L0,-0L0.085,-0L0.257,-0.8Z" style="fill:white;fill-rule:nonzero;"/>
        </g>
        <g transform="matrix(96,0,0,96,1073.45,95.0336)">
            <path d="M0.055,0.102C0.084,0.047 0.109,-0.009 0.128,-0.065C0.162,-0.162 0.183,-0.288 0.183,-0.403C0.183,-0.489 0.174,-0.575 0.152,-0.66C0.129,-0.75 0.097,-0.823 0.055,-0.902L0,-0.876C0.033,-0.797 0.056,-0.719 0.073,-0.641C0.09,-0.561 0.1,-0.482 0.1,-0.403C0.1,-0.321 0.09,-0.241 0.072,-0.159C0.055,-0.081 0.032,-0.002 0,0.077L0.055,0.102Z" style="fill:white;fill-rule:nonzero;"/>
        </g>
        <g transform="matrix(96,0,0,96,1117.9,95.0336)">
            <path d="M0.034,-0.764L0,-0.705C0,-0.705 0.05,-0.682 0.104,-0.654C0.05,-0.626 0,-0.602 0,-0.602L0.034,-0.544L0.13,-0.608C0.127,-0.547 0.123,-0.492 0.123,-0.492L0.191,-0.492C0.191,-0.492 0.187,-0.547 0.184,-0.608C0.211,-0.591 0.28,-0.544 0.28,-0.544L0.314,-0.602C0.314,-0.602 0.237,-0.64 0.21,-0.654C0.237,-0.668 0.314,-0.705 0.314,-0.705L0.28,-0.764C0.28,-0.764 0.211,-0.717 0.184,-0.7C0.185,-0.732 0.191,-0.816 0.191,-0.816L0.123,-0.816C0.123,-0.816 0.13,-0.732 0.131,-0.7C0.08,-0.733 0.034,-0.764 0.034,-0.764Z" style="fill:white;fill-rule:nonzero;"/>
        </g>
        <g transform="matrix(96,0,0,96,1174.93,95.0336)">
            <path d="M0.229,-0.441L0.229,-0.587L0.146,-0.587L0.146,-0.441L0,-0.441L0,-0.359L0.146,-0.359L0.146,-0.213L0.229,-0.213L0.229,-0.359L0.375,-0.359L0.375,-0.441L0.229,-0.441Z" style="fill:white;fill-rule:nonzero;"/>
        </g>
        <g transform="matrix(96,0,0,96,1237.71,95.0336)">
            <rect x="0" y="-0.441" width="0.375" height="0.082" style="fill:white;fill-rule:nonzero;"/>
        </g>
        <g transform="matrix(96,0,0,96,1300.49,95.0336)">
            <path d="M0.057,-0.456C0.026,-0.456 0,-0.431 0,-0.4C0,-0.369 0.026,-0.343 0.057,-0.343C0.088,-0.343 0.114,-0.369 0.114,-0.4C0.114,-0.431 0.088,-0.456 0.057,-0.456ZM0.057,-0.098C0.026,-0.098 0,-0.072 0,-0.041C0,-0.01 0.026,0.015 0.057,0.015C0.088,0.015 0.114,-0.01 0.114,-0.041C0.114,-0.072 0.088,-0.098 0.057,-0.098Z" style="fill:white;fill-rule:nonzero;"/>
        </g>
        <g transform="matrix(96,0,0,96,1338.22,95.0336)">
            <path d="M0.093,-0.456C0.062,-0.456 0.037,-0.431 0.037,-0.4C0.037,-0.369 0.062,-0.343 0.093,-0.343C0.124,-0.343 0.15,-0.369 0.15,-0.4C0.15,-0.431 0.124,-0.456 0.093,-0.456ZM0.143,-0.098L0.054,-0.098L0,0.114L0.051,0.114L0.143,-0.098Z" style="fill:white;fill-rule:nonzero;"/>
        </g>
        <g transform="matrix(96,0,0,96,1379.5,95.0336)">
            <path d="M0,-0.357L0.371,-0.175L0.371,-0.261L0.088,-0.4L0.371,-0.539L0.371,-0.625L0,-0.443L0,-0.357Z" style="fill:white;fill-rule:nonzero;"/>
        </g>
        <g transform="matrix(96,0,0,96,1442,95.0336)">
            <path d="M0.324,-0.282L0.324,-0.36L0,-0.36L0,-0.282L0.324,-0.282ZM0.324,-0.435L0.324,-0.518L0,-0.518L0,-0.435L0.324,-0.435Z" style="fill:white;fill-rule:nonzero;"/>
        </g>
        <g transform="matrix(96,0,0,96,1499.89,95.0336)">
            <path d="M0.283,-0.4L0,-0.261L0,-0.175L0.371,-0.357L0.371,-0.443L0,-0.625L0,-0.539L0.283,-0.4Z" style="fill:white;fill-rule:nonzero;"/>
        </g>
        <g transform="matrix(96,0,0,96,1562.38,95.0336)">
            <path d="M0.717,-0.284C0.717,-0.174 0.631,-0.083 0.523,-0.08L0.518,-0.08C0.408,-0.08 0.319,-0.172 0.319,-0.284C0.319,-0.396 0.408,-0.487 0.518,-0.487L0.523,-0.487C0.631,-0.484 0.717,-0.394 0.717,-0.284ZM0.872,-0.066C0.831,-0.068 0.808,-0.102 0.806,-0.141L0.806,-0.553L0.717,-0.553L0.717,-0.465C0.678,-0.531 0.614,-0.574 0.525,-0.576L0.518,-0.576C0.359,-0.576 0.23,-0.446 0.23,-0.284C0.23,-0.122 0.359,0.008 0.518,0.008L0.525,0.008C0.617,0.006 0.684,-0.04 0.722,-0.111C0.736,-0.045 0.791,0.011 0.868,0.011L0.872,0.011C0.9,0.01 0.966,0.002 1.01,-0.077C1.032,-0.117 1.05,-0.178 1.05,-0.269L1.05,-0.296C1.046,-0.582 0.815,-0.813 0.529,-0.817L0.516,-0.817C0.228,-0.813 -0.005,-0.578 -0.005,-0.289C-0.005,0.002 0.232,0.238 0.523,0.238L0.528,0.238C0.634,0.237 0.738,0.204 0.825,0.143L0.792,0.096C0.714,0.15 0.622,0.18 0.527,0.181L0.523,0.181C0.263,0.181 0.052,-0.029 0.052,-0.289C0.052,-0.549 0.263,-0.76 0.523,-0.76L0.529,-0.759C0.786,-0.756 0.993,-0.548 0.993,-0.29C0.989,-0.173 0.956,-0.066 0.872,-0.066Z" style="fill:rgb(230,56,70);fill-rule:nonzero;"/>
        </g>
        <g transform="matrix(96,0,0,96,1690.54,95.0336)">
            <path d="M0,0.096L0.192,0.096L0.192,0.015L0.083,0.015L0.083,-0.815L0.192,-0.815L0.192,-0.896L0,-0.896L0,0.096Z" style="fill:white;fill-rule:nonzero;"/>
        </g>
        <g transform="matrix(96,0,0,96,1735.85,95.0336)">
            <path d="M0.257,-0.8L0.171,-0.8L0,-0L0.085,-0L0.257,-0.8Z" style="fill:white;fill-rule:nonzero;"/>
        </g>
        <g transform="matrix(96,0,0,96,1787.31,95.0336)">
            <path d="M0,-0.896L0,-0.815L0.109,-0.815L0.109,0.015L0,0.015L0,0.096L0.192,0.096L0.192,-0.896L0,-0.896Z" style="fill:white;fill-rule:nonzero;"/>
        </g>
        <g transform="matrix(96,0,0,96,1832.53,95.0336)">
            <path d="M0.137,-0.8L0,-0.508L0.082,-0.508L0.177,-0.713L0.273,-0.508L0.355,-0.508L0.218,-0.8L0.137,-0.8Z" style="fill:white;fill-rule:nonzero;"/>
        </g>
        <g transform="matrix(96,0,0,96,1893.39,95.0336)">
            <path d="M0.082,-0.815L0,-0.815L0.151,-0.509L0.233,-0.509L0.082,-0.815Z" style="fill:white;fill-rule:nonzero;"/>
        </g>
        <g transform="matrix(96,0,0,96,1942.54,95.0336)">
            <path d="M0.093,-0.29L0.093,-0.049C0.093,0.04 0.149,0.096 0.238,0.096L0.266,0.096L0.266,0.013L0.242,0.013C0.204,0.013 0.173,-0.018 0.173,-0.056L0.173,-0.297C0.173,-0.34 0.16,-0.375 0.136,-0.4C0.16,-0.425 0.173,-0.46 0.173,-0.503L0.173,-0.744C0.173,-0.782 0.204,-0.813 0.242,-0.813L0.266,-0.813L0.266,-0.896L0.238,-0.896C0.149,-0.896 0.093,-0.84 0.093,-0.751L0.093,-0.51C0.093,-0.472 0.062,-0.441 0.024,-0.441L0,-0.441L0,-0.359L0.024,-0.359C0.062,-0.359 0.093,-0.328 0.093,-0.29Z" style="fill:white;fill-rule:nonzero;"/>
        </g>
        <g transform="matrix(96,0,0,96,1994.86,95.0336)">
            <rect x="0" y="-0.896" width="0.083" height="0.991" style="fill:white;fill-rule:nonzero;"/>
        </g>
        <g transform="matrix(96,0,0,96,2029.61,95.0336)">
            <path d="M0.173,-0.51L0.173,-0.751C0.173,-0.84 0.117,-0.896 0.028,-0.896L0,-0.896L0,-0.813L0.024,-0.813C0.062,-0.813 0.093,-0.782 0.093,-0.744L0.093,-0.503C0.093,-0.46 0.105,-0.425 0.129,-0.4C0.105,-0.375 0.093,-0.34 0.093,-0.297L0.093,-0.056C0.093,-0.018 0.062,0.013 0.024,0.013L0,0.013L0,0.096L0.028,0.096C0.117,0.096 0.173,0.04 0.173,-0.049L0.173,-0.29C0.173,-0.328 0.204,-0.359 0.242,-0.359L0.266,-0.359L0.266,-0.441L0.242,-0.441C0.204,-0.441 0.173,-0.472 0.173,-0.51Z" style="fill:white;fill-rule:nonzero;"/>
        </g>
        <g transform="matrix(96,0,0,96,2081.93,95.0336)">
            <path d="M0.13,-0.402C0.156,-0.402 0.184,-0.392 0.204,-0.375C0.236,-0.348 0.281,-0.333 0.323,-0.333C0.346,-0.333 0.369,-0.337 0.388,-0.347C0.425,-0.366 0.454,-0.403 0.454,-0.465L0.384,-0.465C0.384,-0.421 0.36,-0.4 0.321,-0.4C0.295,-0.4 0.267,-0.411 0.247,-0.427C0.215,-0.453 0.171,-0.467 0.13,-0.467C0.106,-0.467 0.084,-0.462 0.064,-0.452C0.027,-0.433 0,-0.396 0,-0.336L0.064,-0.336C0.064,-0.381 0.09,-0.402 0.13,-0.402Z" style="fill:white;fill-rule:nonzero;"/>
        </g>
        <g transform="matrix(96,0,0,96,2152.4,95.0336)">
            <rect x="0" y="0.015" width="0.614" height="0.081" style="fill:white;fill-rule:nonzero;"/>
        </g>
    </g>
    <g transform="matrix(1.0822,0,0,1.0822,-180.126,424.603)">
        <g transform="matrix(96,0,0,96,954.989,95.0336)">
            <path d="M0.431,-0.243C0.431,-0.148 0.354,-0.071 0.259,-0.071C0.164,-0.071 0.087,-0.148 0.087,-0.243L0.087,-0.557C0.087,-0.652 0.164,-0.729 0.259,-0.729C0.354,-0.729 0.431,-0.652 0.431,-0.557L0.431,-0.243ZM0,-0.557L0,-0.243C0,-0.1 0.116,0.015 0.259,0.015C0.402,0.015 0.518,-0.1 0.518,-0.243L0.518,-0.557C0.518,-0.7 0.402,-0.815 0.259,-0.815C0.116,-0.815 0,-0.7 0,-0.557Z" style="fill:rgb(230,56,70);fill-rule:nonzero;"/>
        </g>
        <g transform="matrix(96,0,0,96,1031.5,95.0336)">
            <path d="M0,-0.8L0,-0.718L0.09,-0.718L0.09,-0L0.173,-0L0.173,-0.8L0,-0.8Z" style="fill:white;fill-rule:nonzero;"/>
        </g>
        <g transform="matrix(96,0,0,96,1074.89,95.0336)">
            <path d="M0.085,-0.567C0.085,-0.659 0.159,-0.729 0.25,-0.729C0.349,-0.729 0.411,-0.683 0.419,-0.585C0.419,-0.579 0.42,-0.574 0.42,-0.568C0.42,-0.504 0.389,-0.439 0.324,-0.361C0.258,-0.282 0.156,-0.191 0.013,-0.082L0.013,-0L0.512,-0L0.512,-0.082L0.132,-0.082C0.244,-0.167 0.328,-0.24 0.386,-0.307C0.471,-0.404 0.506,-0.49 0.506,-0.572C0.506,-0.579 0.505,-0.585 0.505,-0.592C0.494,-0.736 0.396,-0.815 0.25,-0.815C0.111,-0.815 0,-0.708 0,-0.567L0.085,-0.567Z" style="fill:rgb(230,56,70);fill-rule:nonzero;"/>
        </g>
        <g transform="matrix(96,0,0,96,1150.83,95.0336)">
            <path d="M0.256,-0.399C0.353,-0.399 0.431,-0.324 0.431,-0.231C0.431,-0.138 0.353,-0.062 0.256,-0.062C0.159,-0.062 0.081,-0.138 0.081,-0.231L0,-0.231C0,-0.095 0.115,0.015 0.256,0.015C0.397,0.015 0.512,-0.095 0.512,-0.231C0.512,-0.351 0.423,-0.45 0.305,-0.472L0.496,-0.718L0.496,-0.8L0.016,-0.8L0.016,-0.718L0.396,-0.718L0.189,-0.454L0.189,-0.393C0.209,-0.397 0.227,-0.399 0.256,-0.399Z" style="fill:rgb(230,56,70);fill-rule:nonzero;"/>
        </g>
        <g transform="matrix(96,0,0,96,1226.86,95.0336)">
            <path d="M0.262,-0.8L0,-0.266L0,-0.184L0.36,-0.184L0.36,-0L0.442,-0L0.442,-0.184L0.551,-0.184L0.551,-0.266L0.442,-0.266L0.442,-0.478L0.36,-0.478L0.36,-0.266L0.094,-0.266L0.356,-0.8L0.262,-0.8Z" style="fill:white;fill-rule:nonzero;"/>
        </g>
        <g transform="matrix(96,0,0,96,1306.64,95.0336)">
            <path d="M0.054,-0.8L0.015,-0.4L0.082,-0.353C0.117,-0.399 0.172,-0.426 0.231,-0.426C0.333,-0.426 0.417,-0.345 0.417,-0.245C0.417,-0.145 0.333,-0.064 0.231,-0.064C0.165,-0.064 0.104,-0.099 0.071,-0.155L0,-0.115C0.048,-0.034 0.136,0.015 0.231,0.015C0.378,0.015 0.499,-0.101 0.499,-0.245C0.499,-0.389 0.378,-0.506 0.231,-0.506C0.185,-0.506 0.141,-0.494 0.102,-0.473L0.125,-0.718L0.466,-0.718L0.466,-0.8L0.054,-0.8Z" style="fill:white;fill-rule:nonzero;"/>
        </g>
        <g transform="matrix(96,0,0,96,1381.33,95.0336)">
            <path d="M0.26,-0.424C0.359,-0.424 0.44,-0.343 0.44,-0.244C0.44,-0.145 0.359,-0.064 0.26,-0.064C0.161,-0.064 0.08,-0.145 0.08,-0.244C0.08,-0.343 0.161,-0.424 0.26,-0.424ZM0.189,-0.494L0.351,-0.8L0.261,-0.8L0.036,-0.376C0.013,-0.337 0,-0.292 0,-0.244C0,-0.101 0.117,0.015 0.26,0.015C0.403,0.015 0.52,-0.101 0.52,-0.244C0.52,-0.387 0.403,-0.504 0.26,-0.504C0.235,-0.504 0.212,-0.5 0.189,-0.494Z" style="fill:white;fill-rule:nonzero;"/>
        </g>
        <g transform="matrix(96,0,0,96,1457.55,95.0336)">
            <path d="M0.406,-0.718L0.078,-0L0.168,-0L0.495,-0.718L0.495,-0.8L0,-0.8L0,-0.718L0.406,-0.718Z" style="fill:white;fill-rule:nonzero;"/>
        </g>
        <g transform="matrix(96,0,0,96,1531.95,95.0336)">
            <path d="M0.254,-0.462L0.248,-0.462C0.167,-0.463 0.102,-0.525 0.102,-0.601C0.102,-0.678 0.168,-0.74 0.251,-0.74C0.334,-0.74 0.401,-0.678 0.401,-0.601C0.401,-0.525 0.335,-0.463 0.254,-0.462ZM0.251,-0.387C0.348,-0.387 0.427,-0.314 0.427,-0.224C0.427,-0.134 0.348,-0.06 0.251,-0.06C0.154,-0.06 0.076,-0.134 0.076,-0.224C0.076,-0.314 0.154,-0.387 0.251,-0.387ZM0.117,-0.427C0.044,-0.385 -0.005,-0.31 -0.005,-0.224C-0.005,-0.092 0.109,0.015 0.251,0.015C0.393,0.015 0.508,-0.092 0.508,-0.224C0.508,-0.31 0.459,-0.385 0.386,-0.427C0.445,-0.466 0.482,-0.529 0.482,-0.601C0.482,-0.719 0.378,-0.815 0.251,-0.815C0.124,-0.815 0.02,-0.719 0.02,-0.601C0.02,-0.529 0.059,-0.466 0.117,-0.427L0.117,-0.427Z" style="fill:white;fill-rule:nonzero;"/>
        </g>
        <g transform="matrix(96,0,0,96,1607.5,95.0336)">
            <path d="M0.26,-0.376C0.161,-0.376 0.08,-0.457 0.08,-0.556C0.08,-0.655 0.161,-0.736 0.26,-0.736C0.359,-0.736 0.439,-0.655 0.439,-0.556C0.439,-0.457 0.359,-0.376 0.26,-0.376ZM0.33,-0.306L0.168,-0L0.258,-0L0.483,-0.424C0.506,-0.463 0.519,-0.508 0.519,-0.556C0.519,-0.699 0.403,-0.815 0.26,-0.815C0.117,-0.815 0,-0.699 0,-0.556C0,-0.413 0.117,-0.296 0.26,-0.296C0.285,-0.296 0.307,-0.3 0.33,-0.306Z" style="fill:rgb(230,56,70);fill-rule:nonzero;"/>
        </g>
    </g>
</svg>
