<?xml version="1.0" encoding="UTF-8" standalone="no"?>
<!DOCTYPE svg PUBLIC "-//W3C//DTD SVG 1.1//EN" "http://www.w3.org/Graphics/SVG/1.1/DTD/svg11.dtd">
<svg width="100%" height="100%" viewBox="0 0 3840 2160" version="1.1" xmlns="http://www.w3.org/2000/svg" xmlns:xlink="http://www.w3.org/1999/xlink" xml:space="preserve" xmlns:serif="http://www.serif.com/" style="fill-rule:evenodd;clip-rule:evenodd;stroke-linejoin:round;stroke-miterlimit:2;">
    <g transform="matrix(2.67888,0,0,2.67888,-3070.19,-1813.19)">
        <path d="M1930.16,179.623C1862.74,172.026 1794.68,172.026 1727.27,179.623L1828.72,1080L1930.16,179.623ZM1529.46,224.771C1465.42,247.179 1404.1,276.709 1346.65,312.805L1828.72,1080L1529.46,224.771ZM1188.02,439.308C1140.05,487.282 1097.62,540.493 1061.52,597.939L1828.72,1080L1188.02,439.308ZM973.486,780.743C951.078,844.781 935.934,911.133 928.337,978.552L1828.72,1080L973.486,780.743ZM928.337,1181.45C935.934,1248.87 951.078,1315.22 973.486,1379.26L1828.72,1080L928.337,1181.45ZM1061.52,1562.06C1097.62,1619.51 1140.05,1672.72 1188.02,1720.69L1828.72,1080L1061.52,1562.06ZM1346.65,1847.19C1404.1,1883.29 1465.42,1912.82 1529.46,1935.23L1828.72,1080L1346.65,1847.19ZM1727.27,1980.38C1794.68,1987.97 1862.74,1987.97 1930.16,1980.38L1828.72,1080L1727.27,1980.38ZM2127.97,1935.23C2192.01,1912.82 2253.33,1883.29 2310.78,1847.19L1828.72,1080L2127.97,1935.23ZM2469.41,1720.69C2517.38,1672.72 2559.81,1619.51 2595.91,1562.06L1828.72,1080L2469.41,1720.69ZM2683.94,1379.26C2706.35,1315.22 2721.5,1248.87 2729.09,1181.45L1828.72,1080L2683.94,1379.26ZM2729.09,978.552C2721.5,911.133 2706.35,844.781 2683.94,780.743L1828.72,1080L2729.09,978.552ZM2595.91,597.939C2559.81,540.493 2517.38,487.282 2469.41,439.308L1828.72,1080L2595.91,597.939ZM2310.78,312.805C2253.33,276.709 2192.01,247.179 2127.97,224.771L1828.72,1080L2310.78,312.805Z" style="fill:url(#_Radial1);"/>
    </g>
    <g transform="matrix(1.3892,0,0,1.3892,-747.267,-420.337)">
        <g id="polygon10" transform="matrix(3.44439,0,0,3.44439,638.523,-732.082)">
            <rect x="216.142" y="471.175" width="311.811" height="109.843" style="fill:rgb(102,102,102);"/>
        </g>
        <g id="polygon12" transform="matrix(3.44439,0,0,3.44439,638.523,-732.082)">
            <rect x="216.142" y="471.345" width="100.749" height="109.672" style="fill:rgb(51,102,153);"/>
        </g>
        <g id="path14" transform="matrix(12.2045,0,0,12.2045,1383,890.83)">
            <path d="M17.726,13.408L20.769,13.408L21.005,13.741C20.664,14.214 19.984,14.759 19.495,15.015C19.269,14.381 18.123,14.48 17.605,14.48L16.749,21.871C16.403,24.857 15.046,28.304 12.363,29.933L12.055,29.182C14.003,28.108 14.688,24.516 14.919,22.516L15.848,14.48L14.11,14.48L13.932,14.11L15.133,13.409L15.966,13.409C16.123,12.115 16.401,11.13 16.848,9.916C18.364,5.79 25.577,3.896 24.741,10.232C24.225,14.144 23.363,18.058 23.043,21.99C23.014,22.339 22.871,23.263 23.429,23.263C23.947,23.263 24.454,23.045 24.931,22.866L25.104,23.312C24.29,23.906 23.398,24.335 22.535,24.612C20.936,25.126 21.105,23.176 21.226,22.228C21.775,17.938 22.539,13.682 23.069,9.388C23.372,6.935 18.913,6.47 18.152,10.524C17.973,11.479 17.845,12.445 17.726,13.408ZM9.326,14.48C11.242,14.48 12.061,16.268 11.862,18.943C11.703,21.071 10.656,23.36 8.913,23.36C7.223,23.36 6.116,21.27 6.317,18.862C6.519,16.442 7.549,14.48 9.326,14.48ZM10.227,13.091C7.889,13.091 5.044,15.702 4.666,18.896C4.294,22.049 5.438,24.702 7.983,24.702C10.528,24.702 13.069,21.666 13.494,18.896C14.042,15.32 12.772,13.091 10.227,13.091Z" style="fill:white;fill-rule:nonzero;"/>
        </g>
        <path id="path16" d="M2091.12,1186.26L2048.45,1129.74C2046.9,1127.69 2044.84,1125.5 2044.84,1129.74L2044.84,1167.65C2044.84,1178.12 2045.71,1179.5 2054.72,1180.47C2055.47,1181.31 2055.47,1183.99 2054.72,1184.83L2029.23,1184.83C2028.48,1183.99 2028.49,1181.31 2029.23,1180.47C2038.15,1179.62 2039.12,1177.78 2039.12,1167.69L2039.12,1114.64C2038.34,1110.48 2034.55,1106.53 2030.16,1106.53C2029.44,1105.67 2029.44,1103.02 2030.16,1102.16L2048.67,1102.16L2089.01,1155.51C2090.42,1157.3 2092.06,1158.32 2092.06,1155.06L2092.06,1119.13C2092.06,1109.58 2091.39,1106.98 2082.13,1106.27C2081.5,1105.61 2081.26,1102.69 2082.13,1102.16L2107.61,1102.16C2108.36,1103 2108.36,1105.68 2107.61,1106.52C2098.69,1107.39 2097.73,1109.26 2097.73,1119.35L2098.28,1184.7C2095.92,1186.03 2093.8,1186.26 2091.12,1186.26ZM2159.79,1123.5C2158.51,1124.85 2155.66,1124.58 2154.06,1124.01C2152.2,1116.24 2148.9,1105.84 2139.18,1105.84C2132.57,1105.84 2129.5,1111.4 2129.5,1117.39C2129.5,1124.42 2136.54,1130.56 2142.12,1133.87C2148.8,1137.71 2155.44,1142.33 2159.62,1148.95C2169.99,1165.3 2157.42,1185.71 2138.4,1185.96C2123.04,1186.18 2123.27,1183.59 2115.83,1183.47C2114.39,1178.1 2113.67,1171.08 2113.67,1162.39C2116.34,1161.62 2118.24,1161.49 2119.4,1161.94C2120.94,1170.97 2127.29,1180.6 2137.11,1180.6C2143.43,1180.6 2148.94,1176.71 2148.94,1169.99C2148.94,1164.58 2146.11,1160.56 2142.42,1156.95C2137.2,1151.85 2130.55,1148.68 2124.95,1144.03C2118.29,1138.56 2115.28,1131.32 2115.28,1122.76C2115.28,1109.92 2127.04,1100.61 2139.29,1100.61C2148.95,1100.61 2151.8,1102.92 2158.5,1104.1C2159.35,1112.25 2159.79,1118.73 2159.79,1123.5ZM1881.79,1146.84C1880.66,1121.72 1895.7,1100.61 1922.79,1100.61C1934.51,1100.61 1939,1104.35 1947.73,1106.55C1949.1,1116.43 1949.93,1123.18 1950.23,1126.8C1948.87,1127.59 1946.86,1127.94 1945.34,1127.44C1941.53,1113.84 1935.71,1105.97 1921.56,1105.97C1903.03,1105.97 1898.16,1131.72 1899.01,1145.68C1899.79,1158.48 1906.75,1179.34 1922.57,1179.34C1932.28,1179.34 1940.69,1174.91 1947.84,1166.05C1949.24,1166.05 1951.01,1167.7 1951.56,1168.9C1943.93,1180.01 1933.14,1186.51 1919.52,1185.89C1896.31,1184.83 1882.86,1170.66 1881.79,1146.84ZM2214.55,1129.87C2215.31,1129.02 2218.69,1129.02 2219.45,1129.87L2219.45,1152.14C2218.67,1152.96 2215.33,1152.96 2214.55,1152.14C2214.13,1145.28 2210.26,1143.96 2204.16,1143.96L2194.94,1143.96L2194.94,1173.22C2194.94,1175.88 2196.51,1179.34 2199.61,1179.34L2211.1,1179.34C2220.39,1179.34 2225.2,1171.01 2227.16,1162.98C2228.69,1162.59 2230.93,1162.77 2232.28,1163.62L2229.23,1184.83L2169.11,1184.83C2168.37,1184.04 2168.37,1181.33 2169.11,1180.53C2177.89,1180.44 2179.05,1178.87 2179.05,1169.16L2179.05,1117.96C2179.05,1108.46 2177.76,1106.46 2169.11,1106.46C2168.37,1105.67 2168.37,1102.96 2169.11,1102.16L2220.22,1102.16C2222.18,1102.16 2224.03,1102.03 2225.78,1101.77C2226.1,1101.77 2226.27,1101.9 2226.27,1102.16L2227.62,1120.82C2226.27,1121.56 2224.64,1121.78 2222.73,1121.43C2220.33,1113.34 2218.12,1107.65 2209.28,1107.65L2199.61,1107.65C2196.58,1107.65 2194.94,1111.31 2194.94,1113.89L2194.94,1138.05L2204.16,1138.04C2210.71,1138.04 2214.24,1137.37 2214.55,1129.87ZM2004.39,1129.87C2005.14,1129.02 2008.53,1129.02 2009.28,1129.87L2009.28,1152.14C2008.51,1152.96 2005.16,1152.96 2004.39,1152.14C2003.97,1145.28 2000.1,1143.96 1994,1143.96L1984.78,1143.96L1984.78,1173.22C1984.78,1175.88 1986.35,1179.34 1989.44,1179.34L2000.94,1179.34C2010.23,1179.34 2015.04,1171.01 2017,1162.98C2018.53,1162.59 2020.77,1162.77 2022.12,1163.62L2019.07,1184.83L1958.95,1184.83C1958.2,1184.04 1958.2,1181.33 1958.95,1180.53C1967.73,1180.44 1968.89,1178.87 1968.89,1169.16L1968.89,1117.96C1968.89,1108.46 1967.59,1106.46 1958.95,1106.46C1958.2,1105.67 1958.2,1102.96 1958.95,1102.16L2010.06,1102.16C2012.01,1102.16 2013.87,1102.03 2015.62,1101.77C2015.94,1101.77 2016.11,1101.9 2016.11,1102.16L2017.46,1120.82C2016.11,1121.56 2014.48,1121.78 2012.56,1121.43C2010.17,1113.34 2007.95,1107.65 1999.12,1107.65L1989.44,1107.65C1986.42,1107.65 1984.78,1111.31 1984.78,1113.89L1984.78,1138.05L1994,1138.04C2000.55,1138.04 2004.07,1137.37 2004.39,1129.87ZM1828.33,1162.98C1830.27,1162.68 1831.9,1162.85 1833.22,1163.62C1832.56,1170.16 1831.56,1177.23 1830.23,1184.83L1773.68,1184.83C1772.51,1184.09 1772.51,1181.27 1773.68,1180.53C1781.61,1180.53 1783.12,1177.65 1783.12,1169.16L1783.12,1117.84C1783.12,1109.2 1781.61,1106.46 1773.68,1106.46C1772.51,1105.72 1772.51,1102.9 1773.68,1102.16L1808.49,1102.16C1809.66,1102.9 1809.66,1105.72 1808.49,1106.46C1800.56,1106.46 1799.05,1109.1 1799.05,1117.84L1799.05,1169.22C1799.05,1175.97 1800.39,1179.34 1803.05,1179.34L1809.9,1179.34C1821.53,1179.34 1825.88,1172.81 1828.33,1162.98ZM1848.74,1117.83C1848.74,1109.22 1847.23,1106.46 1839.29,1106.46C1838.13,1105.72 1838.13,1102.9 1839.29,1102.16L1874.11,1102.16C1875.28,1102.9 1875.28,1105.72 1874.11,1106.46C1866.18,1106.46 1864.67,1109.23 1864.67,1117.83L1864.67,1169.16C1864.67,1177.77 1866.17,1180.53 1874.11,1180.53C1875.28,1181.27 1875.28,1184.09 1874.11,1184.83L1839.29,1184.83C1838.13,1184.09 1838.13,1181.27 1839.29,1180.53C1847.23,1180.53 1848.74,1177.41 1848.74,1169.16L1848.74,1117.83ZM2314.9,1051.74L2272.23,995.218C2270.68,993.168 2268.62,990.98 2268.62,995.218L2268.62,1033.12C2268.62,1043.6 2269.49,1044.98 2278.51,1045.94C2279.25,1046.79 2279.25,1049.47 2278.51,1050.31L2253.02,1050.31C2252.27,1049.47 2252.27,1046.79 2253.02,1045.94C2261.93,1045.09 2262.9,1043.26 2262.9,1033.17L2262.9,980.118C2262.12,975.958 2258.33,972.004 2253.95,972.004C2253.22,971.144 2253.22,968.502 2253.95,967.639L2272.45,967.639L2312.79,1020.99C2314.2,1022.77 2315.85,1023.79 2315.85,1020.54L2315.85,984.611C2315.85,975.057 2315.17,972.455 2305.91,971.748C2305.28,971.082 2305.05,968.172 2305.91,967.636L2331.4,967.636C2332.14,968.479 2332.14,971.16 2331.4,972.001C2322.47,972.866 2321.52,974.734 2321.52,984.823L2322.07,1050.18C2319.7,1051.51 2317.58,1051.74 2314.9,1051.74ZM2057.79,1051.74L2015.12,995.218C2013.57,993.168 2011.51,990.98 2011.51,995.218L2011.51,1033.12C2011.51,1043.6 2012.38,1044.98 2021.39,1045.94C2022.14,1046.79 2022.14,1049.47 2021.39,1050.31L1995.9,1050.31C1995.15,1049.47 1995.16,1046.79 1995.9,1045.94C2004.82,1045.09 2005.79,1043.26 2005.79,1033.17L2005.79,980.118C2005.01,975.958 2001.22,972.004 1996.83,972.004C1996.11,971.144 1996.11,968.502 1996.83,967.639L2015.34,967.639L2055.68,1020.99C2057.09,1022.77 2058.73,1023.79 2058.73,1020.54L2058.73,984.611C2058.73,975.057 2058.06,972.455 2048.8,971.748C2048.17,971.082 2047.93,968.172 2048.8,967.636L2074.28,967.636C2075.03,968.479 2075.03,971.16 2074.28,972.001C2065.36,972.866 2064.4,974.734 2064.4,984.823L2064.95,1050.18C2062.59,1051.51 2060.47,1051.74 2057.79,1051.74ZM2246.12,1008.15C2246.12,1031.63 2233.15,1051.44 2208.57,1051.44C2186.05,1051.44 2171.4,1032.6 2171.4,1010.7C2171.4,988.516 2184.39,966.086 2208.46,966.086C2231.85,966.086 2246.12,985.625 2246.12,1008.15ZM1850.54,1008.15C1850.54,1031.63 1837.57,1051.44 1812.99,1051.44C1790.47,1051.44 1775.82,1032.6 1775.82,1010.7C1775.82,988.516 1788.81,966.086 1812.88,966.086C1836.27,966.086 1850.54,985.625 1850.54,1008.15ZM1971.06,995.348C1971.81,994.505 1975.2,994.5 1975.95,995.348L1975.95,1017.62C1975.18,1018.44 1971.83,1018.44 1971.06,1017.62C1970.64,1010.76 1966.77,1009.45 1960.67,1009.45L1951.45,1009.45L1951.45,1038.71C1951.45,1041.37 1953.02,1044.82 1956.12,1044.82L1967.61,1044.82C1976.9,1044.82 1981.71,1036.49 1983.67,1028.46C1985.2,1028.08 1987.44,1028.25 1988.79,1029.1L1985.74,1050.31L1925.62,1050.31C1924.88,1049.52 1924.88,1046.81 1925.62,1046.01C1934.4,1045.92 1935.56,1044.35 1935.56,1034.64L1935.56,983.444C1935.56,973.937 1934.27,971.945 1925.62,971.945C1924.88,971.149 1924.88,968.438 1925.62,967.642L1976.73,967.642C1978.68,967.642 1980.54,967.513 1982.29,967.253C1982.61,967.253 1982.78,967.383 1982.78,967.642L1984.13,986.297C1982.78,987.041 1981.15,987.257 1979.24,986.916C1976.84,978.818 1974.62,973.137 1965.79,973.137L1956.12,973.137C1953.09,973.137 1951.45,976.791 1951.45,979.375L1951.45,1003.53L1960.67,1003.52C1967.22,1003.52 1970.74,1002.85 1971.06,995.348ZM2143.33,1046.01C2144.5,1046.75 2144.5,1049.57 2143.33,1050.31L2107.4,1050.31C2106.23,1049.55 2106.24,1046.78 2107.4,1046.01C2115.34,1046.01 2116.84,1043.12 2116.84,1034.64L2116.84,983.443C2116.84,974.018 2115.55,971.944 2106.9,971.944C2106.16,971.149 2106.16,968.437 2106.9,967.641L2158.56,967.641C2160.57,967.641 2162.43,967.512 2164.18,967.252C2164.48,967.252 2164.61,967.382 2164.63,967.641L2165.96,986.807C2164.63,987.556 2163,987.767 2161.07,987.426C2158.53,978.893 2156.55,973.137 2147.68,973.137L2137.4,973.137C2134.37,973.137 2132.73,976.791 2132.73,979.375L2132.73,1006.08L2141.95,1006.08C2148.41,1006.08 2152.03,1005.1 2152.34,998.032C2153.09,997.051 2156.49,997.051 2157.24,998.032L2157.24,1020.2C2156.46,1021.02 2153.11,1021.02 2152.34,1020.2C2151.92,1013.6 2148.07,1012 2141.95,1012L2132.73,1012L2132.73,1034.64C2132.73,1043.36 2135.36,1046.01 2143.33,1046.01ZM2391.52,1046.01C2392.24,1046.82 2392.24,1049.5 2391.52,1050.31L2353.51,1050.31C2352.76,1049.52 2352.77,1046.81 2353.51,1046.01C2362.65,1046.01 2364.57,1045.08 2364.57,1034.51L2364.57,985.552C2364.57,981.898 2364.77,972.879 2359.18,972.879L2353.63,972.879C2344.86,972.879 2340.98,977.839 2339.18,986.424C2337.15,986.424 2335.65,986.208 2334.74,985.805C2336.22,978.777 2337.17,972.559 2337.57,967.151C2337.57,966.891 2337.74,966.761 2338.06,966.761C2345.78,967.423 2354.6,967.765 2364.57,967.765L2380.58,967.765C2390.65,967.765 2399.14,967.419 2406.07,966.761C2406.14,966.761 2406.22,966.798 2406.29,966.891C2406.36,967.021 2406.4,967.064 2406.4,967.107C2406.51,972.537 2407.01,978.649 2407.9,985.378C2407.04,985.81 2405.56,985.996 2403.46,985.996C2401.72,977.357 2397.24,972.835 2388.23,972.835L2385.73,972.835C2380.13,972.835 2380.45,982.31 2380.45,985.891L2380.46,1034.49C2380.46,1044.99 2382.37,1046.01 2391.52,1046.01ZM1921.77,988.598C1921.95,1006.83 1910.42,1015.31 1892.55,1014.81C1888.45,1014.68 1886.27,1013.86 1886.27,1009.08C1887.87,1009.3 1889.78,1009.43 1892,1009.43C1903.18,1009.43 1904.61,999.668 1904.61,990.54C1904.61,978.104 1899.87,971.884 1890.39,971.884C1883.31,971.884 1883.54,976.148 1883.54,983.256L1883.54,1034.62C1883.54,1043.02 1885.05,1045.99 1892.99,1045.99C1894.15,1046.74 1894.15,1049.55 1892.99,1050.3L1858.17,1050.3C1857,1049.56 1857,1046.73 1858.17,1045.99C1866.11,1045.99 1867.61,1043.01 1867.61,1034.62L1867.61,983.32C1867.61,974.924 1866.11,971.949 1858.17,971.949C1857,971.071 1856.99,967.949 1858.17,967.071C1870.13,967.071 1882.09,967.071 1894.05,967.079C1909.48,967.087 1921.61,972.347 1921.77,988.598ZM1811.53,971.454C1794.67,971.454 1792.99,996.628 1792.99,1008.15C1792.99,1021.49 1797.19,1046.08 1815.27,1046.08C1831.15,1046.08 1833.38,1022.02 1833.38,1010.83C1833.38,996.78 1829.66,971.454 1811.53,971.454ZM2207.11,971.454C2190.24,971.454 2188.56,996.628 2188.56,1008.15C2188.56,1021.49 2192.77,1046.08 2210.85,1046.08C2226.73,1046.08 2228.96,1022.02 2228.96,1010.83C2228.96,996.78 2225.24,971.454 2207.11,971.454Z" style="fill:white;fill-rule:nonzero;"/>
    </g>
    <defs>
        <radialGradient id="_Radial1" cx="0" cy="0" r="1" gradientUnits="userSpaceOnUse" gradientTransform="matrix(2.46861e-14,-403.154,682.642,0,1828.71,1080)"><stop offset="0" style="stop-color:rgb(251,251,251);stop-opacity:0.1"/><stop offset="1" style="stop-color:rgb(251,251,251);stop-opacity:0"/></radialGradient>
    </defs>
</svg>
