<?xml version="1.0" encoding="UTF-8" standalone="no"?>
<!DOCTYPE svg PUBLIC "-//W3C//DTD SVG 1.1//EN" "http://www.w3.org/Graphics/SVG/1.1/DTD/svg11.dtd">
<svg width="100%" height="100%" viewBox="0 0 4825 4855" version="1.1" xmlns="http://www.w3.org/2000/svg" xmlns:xlink="http://www.w3.org/1999/xlink" xml:space="preserve" xmlns:serif="http://www.serif.com/" style="fill-rule:evenodd;clip-rule:evenodd;stroke-linejoin:round;stroke-miterlimit:2;">
    <g transform="matrix(2.67888,0,0,2.67888,-2486.9,-465.925)">
        <path d="M1930.16,179.623C1862.74,172.026 1794.68,172.026 1727.27,179.623L1828.72,1080L1930.16,179.623ZM1529.46,224.771C1465.42,247.179 1404.1,276.709 1346.65,312.805L1828.72,1080L1529.46,224.771ZM1188.02,439.308C1140.05,487.282 1097.62,540.493 1061.52,597.939L1828.72,1080L1188.02,439.308ZM973.486,780.743C951.078,844.781 935.934,911.133 928.337,978.552L1828.72,1080L973.486,780.743ZM928.337,1181.45C935.934,1248.87 951.078,1315.22 973.486,1379.26L1828.72,1080L928.337,1181.45ZM1061.52,1562.06C1097.62,1619.51 1140.05,1672.72 1188.02,1720.69L1828.72,1080L1061.52,1562.06ZM1346.65,1847.19C1404.1,1883.29 1465.42,1912.82 1529.46,1935.23L1828.72,1080L1346.65,1847.19ZM1727.27,1980.38C1794.68,1987.97 1862.74,1987.97 1930.16,1980.38L1828.72,1080L1727.27,1980.38ZM2127.97,1935.23C2192.01,1912.82 2253.33,1883.29 2310.78,1847.19L1828.72,1080L2127.97,1935.23ZM2469.41,1720.69C2517.38,1672.72 2559.81,1619.51 2595.91,1562.06L1828.72,1080L2469.41,1720.69ZM2683.94,1379.26C2706.35,1315.22 2721.5,1248.87 2729.09,1181.45L1828.72,1080L2683.94,1379.26ZM2729.09,978.552C2721.5,911.133 2706.35,844.781 2683.94,780.743L1828.72,1080L2729.09,978.552ZM2595.91,597.939C2559.81,540.493 2517.38,487.282 2469.41,439.308L1828.72,1080L2595.91,597.939ZM2310.78,312.805C2253.33,276.709 2192.01,247.179 2127.97,224.771L1828.72,1080L2310.78,312.805Z" style="fill:url(#_Radial1);"/>
    </g>
    <defs>
        <radialGradient id="_Radial1" cx="0" cy="0" r="1" gradientUnits="userSpaceOnUse" gradientTransform="matrix(2.46861e-14,-403.154,682.642,0,1828.71,1080)"><stop offset="0" style="stop-color:rgb(251,251,251);stop-opacity:0.1"/><stop offset="1" style="stop-color:rgb(251,251,251);stop-opacity:0"/></radialGradient>
    </defs>
</svg>
