<?xml version="1.0" standalone="no"?>
<!DOCTYPE svg PUBLIC "-//W3C//DTD SVG 20010904//EN"
 "http://www.w3.org/TR/2001/REC-SVG-20010904/DTD/svg10.dtd">
<svg version="1.0" xmlns="http://www.w3.org/2000/svg"
 width="700.000000pt" height="700.000000pt" viewBox="0 0 700.000000 700.000000"
 preserveAspectRatio="xMidYMid meet">
<metadata>
Created by potrace 1.11, written by Peter Selinger 2001-2013
</metadata>
<g transform="translate(0.000000,700.000000) scale(0.100000,-0.100000)"
fill="#000000" stroke="none">
<path d="M3278 6996 c-1 -2 -41 -6 -88 -10 -47 -4 -101 -9 -120 -12 -38 -5
-160 -23 -200 -30 -22 -3 -180 -38 -220 -48 -8 -3 -33 -9 -55 -14 -22 -6 -77
-21 -121 -35 -846 -261 -1574 -843 -2011 -1608 -47 -81 -173 -332 -173 -343 0
-3 -11 -29 -24 -58 -60 -133 -155 -432 -181 -569 -3 -13 -11 -58 -20 -99 -47
-239 -60 -386 -60 -675 0 -195 6 -312 20 -409 3 -17 7 -49 9 -71 10 -83 18
-131 26 -165 5 -19 12 -48 14 -65 41 -228 152 -553 275 -806 417 -856 1142
-1493 2052 -1803 178 -60 436 -120 609 -141 25 -3 56 -7 69 -10 135 -26 700
-26 839 0 16 3 104 15 147 20 123 16 396 86 572 146 1028 354 1830 1161 2180
2194 37 110 83 272 99 350 16 75 54 300 60 350 4 33 9 76 11 95 8 71 10 517 3
595 -17 172 -22 220 -25 225 -2 3 -6 30 -10 60 -3 30 -10 71 -15 90 -5 19 -12
51 -15 70 -11 66 -64 265 -95 360 -107 323 -267 646 -455 915 -59 85 -212 281
-253 324 -171 180 -267 274 -367 356 -33 28 -69 58 -79 68 -49 44 -273 196
-391 266 -138 83 -325 177 -465 234 -222 91 -559 185 -760 212 -19 3 -46 7
-60 10 -13 2 -52 7 -86 11 -33 3 -74 8 -90 10 -33 5 -540 14 -546 10z m492
-380 c68 -6 127 -14 170 -21 14 -2 45 -7 70 -10 25 -3 52 -8 60 -10 8 -2 31
-7 50 -10 72 -12 269 -65 375 -101 930 -312 1664 -1050 1974 -1984 23 -69 43
-134 45 -145 2 -11 12 -49 21 -85 9 -36 19 -73 21 -83 2 -10 5 -26 8 -35 3 -9
8 -35 11 -57 3 -22 12 -83 20 -135 34 -225 39 -655 11 -807 -2 -10 -7 -40 -10
-68 -23 -178 -74 -388 -140 -580 -210 -613 -607 -1146 -1138 -1526 -189 -135
-396 -252 -599 -337 -99 -41 -127 -53 -144 -58 -5 -2 -50 -17 -100 -34 -416
-141 -963 -195 -1255 -124 -440 108 -778 437 -894 871 -13 49 -24 91 -24 96 0
4 -4 33 -8 64 -19 152 -8 311 32 467 20 76 37 122 86 224 l39 82 317 1 c174 1
331 3 347 4 81 8 152 17 165 20 8 2 31 7 50 10 389 64 812 323 1073 657 58 74
151 216 170 258 4 8 11 22 16 30 35 54 134 314 147 384 2 12 14 68 25 126 21
97 22 141 26 598 l5 493 -454 -2 c-249 -1 -487 -5 -528 -10 -814 -99 -1456
-721 -1579 -1528 -15 -98 -19 -188 -20 -428 l-2 -304 -43 -67 c-126 -195 -221
-459 -244 -677 -9 -90 -8 -312 2 -394 10 -86 61 -284 92 -362 38 -93 100 -214
150 -292 24 -37 44 -70 44 -73 0 -11 -290 146 -391 211 -100 65 -258 180 -309
224 -14 12 -54 48 -90 79 -387 341 -702 812 -871 1300 -66 191 -124 431 -144
591 -4 30 -8 61 -10 70 -31 169 -23 627 15 851 5 30 12 71 15 90 61 365 234
798 452 1130 145 221 249 347 438 533 434 428 983 716 1590 838 82 16 249 38
343 45 48 3 88 7 89 8 5 5 371 -2 433 -8z m645 -2465 c-1 -146 -6 -288 -10
-316 -80 -559 -451 -1007 -979 -1180 -173 -57 -264 -68 -571 -69 l-270 -1 1
250 c0 224 5 326 18 391 2 12 7 37 10 56 19 122 122 365 211 497 235 350 637
594 1035 628 36 3 66 6 67 7 2 1 112 2 247 2 l244 0 -3 -265z"/>
</g>
</svg>
