<?xml version="1.0" encoding="UTF-8" standalone="no"?>
<!DOCTYPE svg PUBLIC "-//W3C//DTD SVG 1.1//EN" "http://www.w3.org/Graphics/SVG/1.1/DTD/svg11.dtd">
<svg width="100%" height="100%" viewBox="0 0 762 170" version="1.1" xmlns="http://www.w3.org/2000/svg" xmlns:xlink="http://www.w3.org/1999/xlink" xml:space="preserve" xmlns:serif="http://www.serif.com/" style="fill-rule:evenodd;clip-rule:evenodd;stroke-linejoin:round;stroke-miterlimit:2;">
    <g transform="matrix(3.59846,0,0,3.59846,-116.847,-146.875)">
        <path d="M32.468,88.057L32.468,52.072L36.287,52.072L36.689,56.193C37.494,54.987 38.641,53.898 40.132,52.927C41.623,51.955 43.524,51.469 45.836,51.469C48.316,51.469 50.477,52.039 52.32,53.178C54.162,54.317 55.595,55.875 56.617,57.852C57.638,59.829 58.149,62.073 58.149,64.586C58.149,67.099 57.638,69.336 56.617,71.296C55.595,73.256 54.154,74.797 52.294,75.919C50.435,77.042 48.265,77.603 45.786,77.603C43.742,77.603 41.925,77.184 40.333,76.347C38.742,75.509 37.527,74.336 36.689,72.829L36.689,88.057L32.468,88.057ZM45.334,73.934C47.009,73.934 48.483,73.541 49.756,72.753C51.03,71.966 52.035,70.869 52.772,69.461C53.509,68.054 53.878,66.412 53.878,64.536C53.878,62.66 53.509,61.018 52.772,59.611C52.035,58.204 51.03,57.106 49.756,56.319C48.483,55.532 47.009,55.138 45.334,55.138C43.658,55.138 42.184,55.532 40.911,56.319C39.638,57.106 38.633,58.204 37.896,59.611C37.158,61.018 36.79,62.66 36.79,64.536C36.79,66.412 37.158,68.054 37.896,69.461C38.633,70.869 39.638,71.966 40.911,72.753C42.184,73.541 43.658,73.934 45.334,73.934Z" style="fill:rgb(238,238,238);fill-rule:nonzero;"/>
        <path d="M64.03,88.057L64.03,52.072L67.849,52.072L68.251,56.193C69.055,54.987 70.203,53.898 71.694,52.927C73.185,51.955 75.086,51.469 77.398,51.469C79.878,51.469 82.039,52.039 83.881,53.178C85.724,54.317 87.156,55.875 88.178,57.852C89.2,59.829 89.711,62.073 89.711,64.586C89.711,67.099 89.2,69.336 88.178,71.296C87.156,73.256 85.716,74.797 83.856,75.919C81.997,77.042 79.827,77.603 77.348,77.603C75.304,77.603 73.486,77.184 71.895,76.347C70.303,75.509 69.089,74.336 68.251,72.829L68.251,88.057L64.03,88.057ZM76.896,73.934C78.571,73.934 80.045,73.541 81.318,72.753C82.591,71.966 83.597,70.869 84.334,69.461C85.071,68.054 85.439,66.412 85.439,64.536C85.439,62.66 85.071,61.018 84.334,59.611C83.597,58.204 82.591,57.106 81.318,56.319C80.045,55.532 78.571,55.138 76.896,55.138C75.22,55.138 73.746,55.532 72.473,56.319C71.2,57.106 70.195,58.204 69.457,59.611C68.72,61.018 68.352,62.66 68.352,64.536C68.352,66.412 68.72,68.054 69.457,69.461C70.195,70.869 71.2,71.966 72.473,72.753C73.746,73.541 75.22,73.934 76.896,73.934Z" style="fill:rgb(238,238,238);fill-rule:nonzero;"/>
        <path d="M95.591,77L95.591,52.072L99.411,52.072L99.763,56.847C100.533,55.205 101.706,53.898 103.281,52.927C104.856,51.955 106.799,51.469 109.111,51.469L109.111,55.892L107.955,55.892C106.481,55.892 105.124,56.151 103.884,56.671C102.644,57.19 101.656,58.07 100.919,59.309C100.182,60.549 99.813,62.258 99.813,64.436L99.813,77L95.591,77Z" style="fill:rgb(238,238,238);fill-rule:nonzero;"/>
        <path d="M113.835,77L113.835,52.072L117.655,52.072L117.956,55.691C118.76,54.351 119.832,53.312 121.173,52.575C122.513,51.838 124.02,51.469 125.696,51.469C127.673,51.469 129.373,51.871 130.797,52.675C132.221,53.479 133.318,54.702 134.089,56.344C134.96,54.836 136.158,53.647 137.682,52.776C139.207,51.905 140.857,51.469 142.633,51.469C145.615,51.469 147.993,52.365 149.769,54.158C151.545,55.95 152.433,58.706 152.433,62.425L152.433,77L148.261,77L148.261,62.878C148.261,60.298 147.742,58.354 146.703,57.048C145.665,55.741 144.174,55.088 142.231,55.088C140.22,55.088 138.553,55.867 137.23,57.425C135.906,58.983 135.245,61.202 135.245,64.084L135.245,77L131.023,77L131.023,62.878C131.023,60.298 130.504,58.354 129.465,57.048C128.426,55.741 126.935,55.088 124.992,55.088C123.015,55.088 121.365,55.867 120.042,57.425C118.718,58.983 118.057,61.202 118.057,64.084L118.057,77L113.835,77Z" style="fill:rgb(238,238,238);fill-rule:nonzero;"/>
        <path d="M161.379,46.544C160.541,46.544 159.846,46.267 159.293,45.715C158.74,45.162 158.464,44.467 158.464,43.629C158.464,42.825 158.74,42.155 159.293,41.619C159.846,41.083 160.541,40.814 161.379,40.814C162.183,40.814 162.87,41.083 163.439,41.619C164.009,42.155 164.294,42.825 164.294,43.629C164.294,44.467 164.009,45.162 163.439,45.715C162.87,46.267 162.183,46.544 161.379,46.544ZM159.268,77L159.268,52.072L163.49,52.072L163.49,77L159.268,77Z" style="fill:rgb(238,238,238);fill-rule:nonzero;"/>
        <path d="M170.827,77L170.827,52.072L174.647,52.072L174.898,56.545C175.702,54.97 176.858,53.731 178.366,52.826C179.874,51.921 181.582,51.469 183.492,51.469C186.441,51.469 188.794,52.365 190.553,54.158C192.312,55.95 193.192,58.706 193.192,62.425L193.192,77L188.97,77L188.97,62.878C188.97,57.684 186.826,55.088 182.537,55.088C180.393,55.088 178.609,55.867 177.185,57.425C175.761,58.983 175.049,61.202 175.049,64.084L175.049,77L170.827,77Z" style="fill:rgb(238,238,238);fill-rule:nonzero;"/>
        <path d="M209.425,77C207.147,77 205.354,76.447 204.047,75.341C202.741,74.236 202.087,72.242 202.087,69.361L202.087,55.64L197.765,55.64L197.765,52.072L202.087,52.072L202.64,46.092L206.309,46.092L206.309,52.072L213.647,52.072L213.647,55.64L206.309,55.64L206.309,69.361C206.309,70.936 206.627,71.999 207.264,72.552C207.901,73.105 209.023,73.381 210.631,73.381L213.245,73.381L213.245,77L209.425,77Z" style="fill:rgb(238,238,238);fill-rule:nonzero;"/>
    </g>
    <g transform="matrix(3.51174,0,0,3.51174,-112.942,-180.828)">
        <path d="M223.576,88.567L231.216,88.567C241.102,88.567 249.127,80.542 249.127,70.656L249.127,63.016L245.431,63.016L245.431,70.656C245.431,78.501 239.061,84.871 231.216,84.871L223.576,84.871L223.576,88.567Z" style="fill:url(#_Linear1);"/>
    </g>
    <g transform="matrix(3.51174,0,0,3.51174,-112.942,-180.828)">
        <path d="M249.127,63.016L241.488,63.016C231.602,63.016 223.576,71.042 223.576,80.928L223.576,88.567L227.273,88.567L227.273,80.928C227.273,73.082 233.643,66.713 241.488,66.713L249.127,66.713L249.127,63.016Z" style="fill:rgb(0,204,102);"/>
    </g>
    <defs>
        <linearGradient id="_Linear1" x1="0" y1="0" x2="1" y2="0" gradientUnits="userSpaceOnUse" gradientTransform="matrix(1.33819e-15,-21.8543,21.8543,1.33819e-15,247.279,86.719)"><stop offset="0" style="stop-color:rgb(0,153,85);stop-opacity:1"/><stop offset="1" style="stop-color:rgb(0,119,68);stop-opacity:1"/></linearGradient>
    </defs>
</svg>
