<?xml version="1.0" encoding="UTF-8" standalone="no"?>
<!DOCTYPE svg PUBLIC "-//W3C//DTD SVG 1.1//EN" "http://www.w3.org/Graphics/SVG/1.1/DTD/svg11.dtd">
<svg width="100%" height="100%" viewBox="0 0 512 512" version="1.1" xmlns="http://www.w3.org/2000/svg" xmlns:xlink="http://www.w3.org/1999/xlink" xml:space="preserve" xmlns:serif="http://www.serif.com/" style="fill-rule:evenodd;clip-rule:evenodd;stroke-linejoin:round;stroke-miterlimit:2;">
    <g transform="matrix(0.931677,0,0,0.931677,17.4907,16.5823)">
        <g transform="matrix(1.1559,0,0,1.1559,-93.2462,15.5576)">
            <path d="M364.821,146.179L330,236.714L239.464,271.536L274.286,181L364.821,146.179ZM302.143,222.786C306.043,222.786 309.339,221.439 312.032,218.746C314.725,216.054 316.071,212.757 316.071,208.857C316.071,204.957 314.725,201.661 312.032,198.968C309.339,196.275 306.043,194.929 302.143,194.929C298.243,194.929 294.946,196.275 292.254,198.968C289.561,201.661 288.214,204.957 288.214,208.857C288.214,212.757 289.561,216.054 292.254,218.746C294.946,221.439 298.243,222.786 302.143,222.786Z" style="fill:url(#_Linear1);fill-rule:nonzero;"/>
        </g>
        <g transform="matrix(1.1559,0,0,1.1559,-93.2462,15.5576)">
            <path d="M302.143,348.143C276.886,348.143 253.486,341.829 231.943,329.2C210.957,316.757 194.243,300.043 181.8,279.057C169.171,257.514 162.857,234.114 162.857,208.857C162.857,183.6 169.171,160.2 181.8,138.657C194.243,117.671 210.957,100.957 231.943,88.514C253.486,75.886 276.886,69.571 302.143,69.571C327.4,69.571 350.8,75.886 372.343,88.514C393.329,100.957 410.043,117.671 422.486,138.657C435.114,160.2 441.429,183.6 441.429,208.857C441.429,234.114 435.114,257.514 422.486,279.057C410.043,300.043 393.329,316.757 372.343,329.2C350.8,341.829 327.4,348.143 302.143,348.143ZM302.143,320.286C322.386,320.286 341.143,315.179 358.414,304.964C375.129,295.121 388.407,281.843 398.25,265.129C408.464,247.857 413.571,229.1 413.571,208.857C413.571,188.614 408.464,169.857 398.25,152.586C388.407,135.871 375.129,122.593 358.414,112.75C341.143,102.536 322.386,97.429 302.143,97.429C281.9,97.429 263.143,102.536 245.871,112.75C229.157,122.593 215.879,135.871 206.036,152.586C195.821,169.857 190.714,188.614 190.714,208.857C190.714,229.1 195.821,247.857 206.036,265.129C215.879,281.843 229.157,295.121 245.871,304.964C263.143,315.179 281.9,320.286 302.143,320.286Z" style="fill:url(#_Linear2);fill-rule:nonzero;"/>
        </g>
    </g>
    <defs>
        <linearGradient id="_Linear1" x1="0" y1="0" x2="1" y2="0" gradientUnits="userSpaceOnUse" gradientTransform="matrix(-278.571,3.41152e-14,-3.41152e-14,-278.571,441.429,208.857)"><stop offset="0" style="stop-color:rgb(56,209,127);stop-opacity:0.5"/><stop offset="1" style="stop-color:rgb(56,209,127);stop-opacity:0.12549"/></linearGradient>
        <linearGradient id="_Linear2" x1="0" y1="0" x2="1" y2="0" gradientUnits="userSpaceOnUse" gradientTransform="matrix(-278.571,3.41152e-14,-3.41152e-14,-278.571,441.429,208.857)"><stop offset="0" style="stop-color:rgb(46,161,100);stop-opacity:0.5"/><stop offset="1" style="stop-color:rgb(46,161,100);stop-opacity:0.12549"/></linearGradient>
    </defs>
</svg>
