<?xml version="1.0" encoding="UTF-8" standalone="no"?>
<!DOCTYPE svg PUBLIC "-//W3C//DTD SVG 1.1//EN" "http://www.w3.org/Graphics/SVG/1.1/DTD/svg11.dtd">
<svg width="100%" height="100%" viewBox="0 0 512 512" version="1.1" xmlns="http://www.w3.org/2000/svg" xmlns:xlink="http://www.w3.org/1999/xlink" xml:space="preserve" xmlns:serif="http://www.serif.com/" style="fill-rule:evenodd;clip-rule:evenodd;stroke-linejoin:round;stroke-miterlimit:2;">
    <g transform="matrix(0.909091,0,0,0.909091,23.2727,23.2727)">
        <g transform="matrix(1.18462,0,0,1.18462,-101.923,8.58462)">
            <path d="M316.071,181L385.714,181L302.143,264.571L218.571,181L288.214,181L288.214,83.5L316.071,83.5L316.071,181Z" style="fill:url(#_Linear1);fill-rule:nonzero;"/>
        </g>
        <g transform="matrix(1.18462,0,0,1.18462,-101.923,8.58462)">
            <path d="M190.714,306.357L413.571,306.357L413.571,208.857L441.429,208.857L441.429,320.286C441.429,324.186 440.082,327.482 437.389,330.175C434.696,332.868 431.4,334.214 427.5,334.214L176.786,334.214C172.886,334.214 169.589,332.868 166.896,330.175C164.204,327.482 162.857,324.186 162.857,320.286L162.857,208.857L190.714,208.857L190.714,306.357Z" style="fill:url(#_Linear2);fill-rule:nonzero;"/>
        </g>
    </g>
    <defs>
        <linearGradient id="_Linear1" x1="0" y1="0" x2="1" y2="0" gradientUnits="userSpaceOnUse" gradientTransform="matrix(-278.571,3.41152e-14,-3.41152e-14,-278.571,441.429,208.857)"><stop offset="0" style="stop-color:rgb(39,110,253);stop-opacity:0.5"/><stop offset="1" style="stop-color:rgb(39,110,253);stop-opacity:0.12549"/></linearGradient>
        <linearGradient id="_Linear2" x1="0" y1="0" x2="1" y2="0" gradientUnits="userSpaceOnUse" gradientTransform="matrix(-278.571,3.41152e-14,-3.41152e-14,-278.571,441.429,208.857)"><stop offset="0" style="stop-color:rgb(34,87,194);stop-opacity:0.5"/><stop offset="1" style="stop-color:rgb(34,87,194);stop-opacity:0.12549"/></linearGradient>
    </defs>
</svg>
