<?xml version="1.0" encoding="UTF-8" standalone="no"?>
<!DOCTYPE svg PUBLIC "-//W3C//DTD SVG 1.1//EN" "http://www.w3.org/Graphics/SVG/1.1/DTD/svg11.dtd">
<svg width="100%" height="100%" viewBox="0 0 512 512" version="1.1" xmlns="http://www.w3.org/2000/svg" xmlns:xlink="http://www.w3.org/1999/xlink" xml:space="preserve" xmlns:serif="http://www.serif.com/" style="fill-rule:evenodd;clip-rule:evenodd;stroke-linejoin:round;stroke-miterlimit:2;">
    <g transform="matrix(0.909091,0,0,0.909091,23.2727,23.2727)">
        <g transform="matrix(1.18462,0,0,1.18462,-101.923,8.58462)">
            <path d="M215.229,278.5L413.571,278.5L413.571,111.357L190.714,111.357L190.714,297.721L215.229,278.5ZM224.979,306.357L162.857,355.107L162.857,97.429C162.857,93.529 164.204,90.232 166.896,87.539C169.589,84.846 172.886,83.5 176.786,83.5L427.5,83.5C431.4,83.5 434.696,84.846 437.389,87.539C440.082,90.232 441.429,93.529 441.429,97.429L441.429,292.429C441.429,296.329 440.082,299.625 437.389,302.318C434.696,305.011 431.4,306.357 427.5,306.357L224.979,306.357Z" style="fill:url(#_Linear1);fill-rule:nonzero;"/>
        </g>
        <g transform="matrix(1.18462,0,0,1.18462,-101.923,8.58462)">
            <path d="M288.214,236.714L316.071,236.714L316.071,264.571L288.214,264.571L288.214,236.714ZM254.229,164.564C255.9,156.207 259.429,148.871 264.814,142.557C270.2,136.243 276.746,131.554 284.454,128.489C292.161,125.425 300.193,124.45 308.55,125.564C316.907,126.679 324.429,129.743 331.114,134.757C337.8,139.771 342.907,145.993 346.436,153.421C349.964,160.85 351.45,168.789 350.893,177.239C350.336,185.689 347.782,193.396 343.232,200.361C338.682,207.325 332.786,212.804 325.543,216.796C318.3,220.789 310.5,222.786 302.143,222.786L288.214,222.786L288.214,194.929L302.143,194.929C307.714,194.929 312.496,193.025 316.489,189.218C320.482,185.411 322.664,180.768 323.036,175.289C323.407,169.811 321.829,164.982 318.3,160.804C314.771,156.625 310.268,154.164 304.789,153.421C299.311,152.679 294.343,153.886 289.886,157.043C285.429,160.2 282.643,164.471 281.529,169.857L254.229,164.564Z" style="fill:url(#_Linear2);fill-rule:nonzero;"/>
        </g>
    </g>
    <defs>
        <linearGradient id="_Linear1" x1="0" y1="0" x2="1" y2="0" gradientUnits="userSpaceOnUse" gradientTransform="matrix(-278.571,3.41152e-14,-3.41152e-14,-278.571,441.429,208.857)"><stop offset="0" style="stop-color:rgb(177,47,57);stop-opacity:0.5"/><stop offset="1" style="stop-color:rgb(177,47,57);stop-opacity:0"/></linearGradient>
        <linearGradient id="_Linear2" x1="0" y1="0" x2="1" y2="0" gradientUnits="userSpaceOnUse" gradientTransform="matrix(-278.571,3.41152e-14,-3.41152e-14,-278.571,441.429,208.857)"><stop offset="0" style="stop-color:rgb(230,56,70);stop-opacity:0.5"/><stop offset="1" style="stop-color:rgb(230,56,70);stop-opacity:0"/></linearGradient>
    </defs>
</svg>
