<?xml version="1.0" encoding="UTF-8" standalone="no"?>
<!DOCTYPE svg PUBLIC "-//W3C//DTD SVG 1.1//EN" "http://www.w3.org/Graphics/SVG/1.1/DTD/svg11.dtd">
<svg width="100%" height="100%" viewBox="0 0 512 512" version="1.1" xmlns="http://www.w3.org/2000/svg" xmlns:xlink="http://www.w3.org/1999/xlink" xml:space="preserve" xmlns:serif="http://www.serif.com/" style="fill-rule:evenodd;clip-rule:evenodd;stroke-linejoin:round;stroke-miterlimit:2;">
    <g transform="matrix(0.909091,0,0,0.909091,23.2727,23.2727)">
        <g transform="matrix(0.825,0,0,0.825,44.8,44.8)">
            <path d="M256,248.14L447.168,79.283C453.658,83.831 456,90 456,96L456,125.152L256,301.39L56,125.152L56,96C56,90 58.342,83.831 64.832,79.283L256,248.14Z" style="fill:url(#_Linear1);fill-rule:nonzero;"/>
        </g>
        <g transform="matrix(0.867308,0,0,0.867308,33.9692,33.9692)">
            <path d="M65.756,131.535L103.805,165.063L103.805,389.171L408.195,389.171L408.195,165.063L446.244,131.535L446.244,408.195C446.244,413.522 444.405,418.024 440.727,421.702C437.049,425.38 432.546,427.22 427.22,427.22L84.78,427.22C79.454,427.22 74.951,425.38 71.273,421.702C67.595,418.024 65.756,413.522 65.756,408.195L65.756,131.535ZM74.157,87.904C77.231,85.822 80.773,84.78 84.78,84.78L427.22,84.78C431.227,84.78 434.769,85.822 437.843,87.904L397.886,123.197L113.712,122.842L74.157,87.904Z" style="fill:url(#_Linear2);fill-rule:nonzero;"/>
        </g>
    </g>
    <defs>
        <linearGradient id="_Linear1" x1="0" y1="0" x2="1" y2="0" gradientUnits="userSpaceOnUse" gradientTransform="matrix(-400,4.89859e-14,-4.89859e-14,-400,456,256)"><stop offset="0" style="stop-color:rgb(249,200,14);stop-opacity:0.5"/><stop offset="1" style="stop-color:rgb(249,200,14);stop-opacity:0.12549"/></linearGradient>
        <linearGradient id="_Linear2" x1="0" y1="0" x2="1" y2="0" gradientUnits="userSpaceOnUse" gradientTransform="matrix(-278.571,3.41152e-14,-3.41152e-14,-278.571,441.429,208.857)"><stop offset="0" style="stop-color:rgb(184,128,9);stop-opacity:0.5"/><stop offset="1" style="stop-color:rgb(184,128,9);stop-opacity:0.12549"/></linearGradient>
    </defs>
</svg>
