<?xml version="1.0" encoding="UTF-8" standalone="no"?>
<!DOCTYPE svg PUBLIC "-//W3C//DTD SVG 1.1//EN" "http://www.w3.org/Graphics/SVG/1.1/DTD/svg11.dtd">
<svg width="100%" height="100%" viewBox="0 0 852 133" version="1.1" xmlns="http://www.w3.org/2000/svg" xmlns:xlink="http://www.w3.org/1999/xlink" xml:space="preserve" xmlns:serif="http://www.serif.com/" style="fill-rule:evenodd;clip-rule:evenodd;stroke-linejoin:round;stroke-miterlimit:2;">
    <g transform="matrix(3.58937,0,0,3.58937,-15.3382,-146.498)">
        <text x="0.805px" y="77px" style="font-family:'DMSans-Regular', 'DM Sans';font-size:50.258px;fill:rgb(235,235,235);">mint<tspan x="105.291px " y="77px ">c</tspan>raft</text>
    </g>
    <g transform="matrix(2.46967,0,0,2.46967,-4805.56,-2512.97)">
        <path d="M2274,1033L2290.45,1042.5L2290.45,1061.5L2274,1071L2257.55,1061.5L2257.55,1042.5L2274,1033ZM2274,1039.03L2285.23,1045.52C2285.23,1045.52 2285.23,1058.48 2285.23,1058.48C2285.23,1058.48 2274,1064.97 2274,1064.97C2274,1064.97 2262.77,1058.48 2262.77,1058.48C2262.77,1058.48 2262.77,1045.52 2262.77,1045.52L2274,1039.03Z" style="fill:rgb(46,161,100);"/>
    </g>
    <g transform="matrix(2.46967,0,0,2.46967,-4805.56,-2512.97)">
        <path d="M2274,1033L2290.45,1042.5L2290.45,1045.42L2274,1054.92L2257.55,1045.42L2257.55,1042.5L2274,1033ZM2265.47,1043.96L2274,1048.89L2282.53,1043.96L2274,1039.03L2265.47,1043.96Z" style="fill:rgb(56,209,127);"/>
    </g>
</svg>
