<?xml version="1.0" encoding="UTF-8" standalone="no"?>
<!DOCTYPE svg PUBLIC "-//W3C//DTD SVG 1.1//EN" "http://www.w3.org/Graphics/SVG/1.1/DTD/svg11.dtd">
<svg width="100%" height="100%" viewBox="0 0 1054 1080" version="1.1" xmlns="http://www.w3.org/2000/svg" xmlns:xlink="http://www.w3.org/1999/xlink" xml:space="preserve" xmlns:serif="http://www.serif.com/" style="fill-rule:evenodd;clip-rule:evenodd;stroke-linejoin:round;stroke-miterlimit:2;">
    <g transform="matrix(81.8183,0,0,81.8183,760.915,133.416)">
        <path d="M0,-0L0.48,-0L0.48,-0.16L0.32,-0.16L0.32,-0.704C0.32,-0.757 0.277,-0.8 0.224,-0.8L0,-0.8L0,-0.64L0.16,-0.64L0.16,-0.16L0,-0.16L0,-0Z" style="fill:rgb(235,235,235);fill-rule:nonzero;"/>
    </g>
    <g transform="matrix(81.8183,-4.54182e-15,4.54182e-15,81.8183,946.589,319.092)">
        <path d="M0.32,-0.48L0.096,-0.48C0.043,-0.48 0,-0.437 0,-0.384L0,-0L0.48,-0L0.48,-0.16L0.16,-0.16L0.16,-0.32L0.384,-0.32C0.437,-0.32 0.48,-0.363 0.48,-0.416L0.48,-0.704C0.48,-0.729 0.47,-0.754 0.452,-0.772C0.434,-0.79 0.409,-0.8 0.384,-0.8L0,-0.8L0,-0.64L0.32,-0.64L0.32,-0.48Z" style="fill:rgb(235,235,235);fill-rule:nonzero;"/>
    </g>
    <g transform="matrix(81.8183,4.68097e-16,-4.68097e-16,81.8183,1014.54,572.728)">
        <path d="M0.32,-0.16L0,-0.16L0,-0L0.384,-0C0.437,-0 0.48,-0.043 0.48,-0.096L0.48,-0.704C0.48,-0.757 0.437,-0.8 0.384,-0.8L0,-0.8L0,-0.64L0.32,-0.64L0.32,-0.48L0.08,-0.48L0.08,-0.32L0.32,-0.32L0.32,-0.16Z" style="fill:rgb(235,235,235);fill-rule:nonzero;"/>
    </g>
    <g transform="matrix(81.8183,-9.08364e-15,9.08364e-15,81.8183,946.589,826.363)">
        <path d="M0.48,-0L0.48,-0.8L0.32,-0.8L0.32,-0.394L0.16,-0.394L0.16,-0.8L0,-0.8L0,-0.33C0,-0.277 0.043,-0.234 0.096,-0.234L0.32,-0.234L0.32,-0L0.48,-0Z" style="fill:rgb(235,235,235);fill-rule:nonzero;"/>
    </g>
    <g transform="matrix(81.8183,-9.08364e-15,9.08364e-15,81.8183,760.915,1012.04)">
        <path d="M0.48,-0.096L0.48,-0.384C0.48,-0.437 0.437,-0.48 0.384,-0.48L0.16,-0.48L0.16,-0.64L0.48,-0.64L0.48,-0.8L0,-0.8L0,-0.416C0,-0.363 0.043,-0.32 0.096,-0.32L0.32,-0.32L0.32,-0.16L0,-0.16L0,-0L0.384,-0C0.436,-0 0.48,-0.044 0.48,-0.096Z" style="fill:rgb(235,235,235);fill-rule:nonzero;"/>
    </g>
    <g transform="matrix(81.8183,0,0,81.8183,507.273,1080)">
        <path d="M0.48,-0.096L0.48,-0.384C0.48,-0.437 0.437,-0.48 0.384,-0.48L0.16,-0.48L0.16,-0.64L0.48,-0.64L0.48,-0.704C0.48,-0.757 0.437,-0.8 0.384,-0.8L0.096,-0.8C0.043,-0.8 0,-0.757 0,-0.704L0,-0.096C0,-0.043 0.043,-0 0.096,-0L0.384,-0C0.436,-0 0.48,-0.044 0.48,-0.096ZM0.16,-0.32L0.32,-0.32L0.32,-0.16L0.16,-0.16L0.16,-0.32Z" style="fill:rgb(235,235,235);fill-rule:nonzero;"/>
    </g>
    <g transform="matrix(81.8183,9.08364e-15,-9.08364e-15,81.8183,253.637,1012.04)">
        <path d="M0.48,-0L0.48,-0.698C0.48,-0.755 0.435,-0.8 0.378,-0.8L0.096,-0.8C0.043,-0.8 0,-0.757 0,-0.704L0,-0.48L0.16,-0.48L0.16,-0.64L0.32,-0.64L0.32,-0L0.48,-0Z" style="fill:rgb(235,235,235);fill-rule:nonzero;"/>
    </g>
    <g transform="matrix(81.8183,1.36255e-14,-1.36255e-14,81.8183,67.9628,826.363)">
        <path d="M0.16,-0.64L0.32,-0.64L0.32,-0.48L0.16,-0.48L0.16,-0.64ZM0.16,-0.16L0.16,-0.32L0.32,-0.32L0.32,-0.16L0.16,-0.16ZM0.48,-0.52L0.48,-0.704C0.48,-0.757 0.437,-0.8 0.384,-0.8L0.096,-0.8C0.043,-0.8 0,-0.757 0,-0.704L0,-0.52C0,-0.495 0.01,-0.47 0.028,-0.452L0.08,-0.4L0.028,-0.348C0.01,-0.33 0,-0.305 0,-0.28L0,-0.096C0,-0.043 0.043,-0 0.096,-0L0.384,-0C0.437,-0 0.48,-0.043 0.48,-0.096L0.48,-0.28C0.48,-0.305 0.47,-0.33 0.452,-0.348L0.4,-0.4L0.452,-0.452C0.47,-0.47 0.48,-0.495 0.48,-0.52Z" style="fill:rgb(235,235,235);fill-rule:nonzero;"/>
    </g>
    <g transform="matrix(81.8183,4.07373e-15,-4.07373e-15,81.8183,0,572.728)">
        <path d="M0,-0.704L0,-0.416C0,-0.363 0.043,-0.32 0.096,-0.32L0.32,-0.32L0.32,-0.16L0,-0.16L0,-0.096C0,-0.043 0.043,-0 0.096,-0L0.384,-0C0.437,-0 0.48,-0.043 0.48,-0.096L0.48,-0.704C0.48,-0.757 0.437,-0.8 0.384,-0.8L0.096,-0.8C0.044,-0.8 0,-0.756 0,-0.704ZM0.16,-0.48L0.16,-0.64L0.32,-0.64L0.32,-0.48L0.16,-0.48Z" style="fill:rgb(235,235,235);fill-rule:nonzero;"/>
    </g>
    <g transform="matrix(81.8182,-4.54183e-15,4.54183e-15,81.8182,41.78,319.092)">
        <path d="M0,-0L0.48,-0L0.48,-0.16L0.32,-0.16L0.32,-0.704C0.32,-0.757 0.277,-0.8 0.224,-0.8L0,-0.8L0,-0.64L0.16,-0.64L0.16,-0.16L0,-0.16L0,-0Z" style="fill:rgb(235,235,235);fill-rule:nonzero;"/>
    </g>
    <g transform="matrix(81.8182,-4.54183e-15,4.54183e-15,81.8182,94.1437,319.092)">
        <path d="M0,-0.704L0,-0.096C0,-0.043 0.043,-0 0.096,-0L0.384,-0C0.437,-0 0.48,-0.043 0.48,-0.096L0.48,-0.704C0.48,-0.757 0.437,-0.8 0.384,-0.8L0.096,-0.8C0.043,-0.8 0,-0.757 0,-0.704ZM0.16,-0.64L0.32,-0.64L0.32,-0.16L0.16,-0.16L0.16,-0.64Z" style="fill:rgb(235,235,235);fill-rule:nonzero;"/>
    </g>
    <g transform="matrix(81.8182,0,0,81.8182,227.455,133.416)">
        <path d="M0,-0L0.48,-0L0.48,-0.16L0.32,-0.16L0.32,-0.704C0.32,-0.757 0.277,-0.8 0.224,-0.8L0,-0.8L0,-0.64L0.16,-0.64L0.16,-0.16L0,-0.16L0,-0Z" style="fill:rgb(235,235,235);fill-rule:nonzero;"/>
    </g>
    <g transform="matrix(81.8182,0,0,81.8182,279.819,133.416)">
        <path d="M0,-0L0.48,-0L0.48,-0.16L0.32,-0.16L0.32,-0.704C0.32,-0.757 0.277,-0.8 0.224,-0.8L0,-0.8L0,-0.64L0.16,-0.64L0.16,-0.16L0,-0.16L0,-0Z" style="fill:rgb(235,235,235);fill-rule:nonzero;"/>
    </g>
    <g transform="matrix(81.8182,0,0,81.8182,481.092,65.4546)">
        <path d="M0,-0L0.48,-0L0.48,-0.16L0.32,-0.16L0.32,-0.704C0.32,-0.757 0.277,-0.8 0.224,-0.8L0,-0.8L0,-0.64L0.16,-0.64L0.16,-0.16L0,-0.16L0,-0Z" style="fill:rgb(235,235,235);fill-rule:nonzero;"/>
    </g>
    <g transform="matrix(81.8182,0,0,81.8182,533.455,65.4546)">
        <path d="M0.32,-0.48L0.096,-0.48C0.043,-0.48 0,-0.437 0,-0.384L0,-0L0.48,-0L0.48,-0.16L0.16,-0.16L0.16,-0.32L0.384,-0.32C0.437,-0.32 0.48,-0.363 0.48,-0.416L0.48,-0.704C0.48,-0.729 0.47,-0.754 0.452,-0.772C0.434,-0.79 0.409,-0.8 0.384,-0.8L0,-0.8L0,-0.64L0.32,-0.64L0.32,-0.48Z" style="fill:rgb(235,235,235);fill-rule:nonzero;"/>
    </g>
    <g transform="matrix(1.38884,0,0,1.38884,-806.375,-214.139)">
        <path d="M948.465,537.99L1006.06,351.833C1008.1,345.242 1015.11,341.547 1021.7,343.586C1028.29,345.625 1031.98,352.632 1029.94,359.222L972.01,546.473C971.863,546.982 971.682,547.485 971.466,547.98C971.251,548.476 971.007,548.952 970.736,549.407L824.922,804.384C821.497,810.372 813.854,812.454 807.865,809.029C801.876,805.604 799.795,797.962 803.22,791.973L948.465,537.99Z" style="fill:rgb(235,235,235);"/>
    </g>
    <g transform="matrix(1.0978,-0.495158,0.255685,0.566872,-720.077,565.356)">
        <path d="M949.52,110L949.52,782C949.52,786.532 951.42,790.212 953.76,790.212C956.1,790.212 958,786.532 958,782L958,110C958,105.468 956.1,101.788 953.76,101.788C951.42,101.788 949.52,105.468 949.52,110Z" style="fill:rgb(230,56,70);"/>
    </g>
</svg>
