<?xml version="1.0" encoding="UTF-8" standalone="no"?>
<!DOCTYPE svg PUBLIC "-//W3C//DTD SVG 1.1//EN" "http://www.w3.org/Graphics/SVG/1.1/DTD/svg11.dtd">
<svg width="100%" height="100%" viewBox="0 0 1920 1080" version="1.1" xmlns="http://www.w3.org/2000/svg" xmlns:xlink="http://www.w3.org/1999/xlink" xml:space="preserve" xmlns:serif="http://www.serif.com/" style="fill-rule:evenodd;clip-rule:evenodd;stroke-linejoin:round;stroke-miterlimit:2;">
    <rect x="0" y="0" width="1920" height="1080" style="fill:rgb(238,238,238);"/>
    <g transform="matrix(1.0027,0,0,1.0027,76.7559,529.721)">
        <g transform="matrix(230.348,0,0,230.348,120,350)">
            <path d="M0.222,-0L0.381,-0L0.485,-0.563L0.681,-0.563L0.707,-0.7L0.157,-0.7L0.131,-0.563L0.327,-0.563L0.222,-0Z" style="fill:rgb(10,107,209);fill-rule:nonzero;"/>
        </g>
        <g transform="matrix(230.348,0,0,230.348,254.523,350)">
            <path d="M0.409,0.013C0.664,0.013 0.855,-0.183 0.855,-0.42C0.855,-0.592 0.733,-0.713 0.544,-0.713C0.288,-0.713 0.098,-0.517 0.098,-0.279C0.098,-0.108 0.216,0.013 0.409,0.013ZM0.438,-0.139C0.331,-0.139 0.265,-0.208 0.265,-0.306C0.265,-0.447 0.38,-0.561 0.516,-0.561C0.622,-0.561 0.688,-0.49 0.688,-0.393C0.688,-0.252 0.572,-0.139 0.438,-0.139Z" style="fill:rgb(10,107,209);fill-rule:nonzero;"/>
        </g>
        <g transform="matrix(230.348,0,0,230.348,444.099,350)">
            <path d="M0.069,-0L0.221,-0L0.297,-0.412L0.303,-0.412L0.388,-0L0.515,-0L0.735,-0.396L0.741,-0.396L0.668,-0L0.821,-0L0.951,-0.7L0.748,-0.7L0.492,-0.225L0.486,-0.225L0.388,-0.7L0.199,-0.7L0.069,-0Z" style="fill:rgb(10,107,209);fill-rule:nonzero;"/>
        </g>
        <g transform="matrix(230.348,0,0,230.348,648.878,350)">
            <path d="M0.409,0.013C0.664,0.013 0.855,-0.183 0.855,-0.42C0.855,-0.592 0.733,-0.713 0.544,-0.713C0.288,-0.713 0.098,-0.517 0.098,-0.279C0.098,-0.108 0.216,0.013 0.409,0.013ZM0.438,-0.139C0.331,-0.139 0.265,-0.208 0.265,-0.306C0.265,-0.447 0.38,-0.561 0.516,-0.561C0.622,-0.561 0.688,-0.49 0.688,-0.393C0.688,-0.252 0.572,-0.139 0.438,-0.139Z" style="fill:rgb(10,107,209);fill-rule:nonzero;"/>
        </g>
        <g transform="matrix(230.348,0,0,230.348,838.454,350)">
            <path d="M0.069,-0L0.227,-0L0.27,-0.234L0.367,-0.234L0.413,-0.085C0.429,-0.03 0.465,-0 0.534,-0L0.615,-0L0.64,-0.137L0.605,-0.137C0.576,-0.137 0.56,-0.146 0.547,-0.178L0.516,-0.265C0.615,-0.31 0.682,-0.403 0.682,-0.51C0.682,-0.622 0.599,-0.7 0.473,-0.7L0.199,-0.7L0.069,-0ZM0.296,-0.369L0.332,-0.565L0.432,-0.565C0.486,-0.565 0.519,-0.535 0.519,-0.49C0.519,-0.419 0.465,-0.369 0.397,-0.369L0.296,-0.369Z" style="fill:rgb(10,107,209);fill-rule:nonzero;"/>
        </g>
        <g transform="matrix(230.348,0,0,230.348,987.489,350)">
            <path d="M0.069,-0L0.227,-0L0.27,-0.234L0.367,-0.234L0.413,-0.085C0.429,-0.03 0.465,-0 0.534,-0L0.615,-0L0.64,-0.137L0.605,-0.137C0.576,-0.137 0.56,-0.146 0.547,-0.178L0.516,-0.265C0.615,-0.31 0.682,-0.403 0.682,-0.51C0.682,-0.622 0.599,-0.7 0.473,-0.7L0.199,-0.7L0.069,-0ZM0.296,-0.369L0.332,-0.565L0.432,-0.565C0.486,-0.565 0.519,-0.535 0.519,-0.49C0.519,-0.419 0.465,-0.369 0.397,-0.369L0.296,-0.369Z" style="fill:rgb(10,107,209);fill-rule:nonzero;"/>
        </g>
        <g transform="matrix(230.348,0,0,230.348,1133.3,350)">
            <path d="M0.409,0.013C0.664,0.013 0.855,-0.183 0.855,-0.42C0.855,-0.592 0.733,-0.713 0.544,-0.713C0.288,-0.713 0.098,-0.517 0.098,-0.279C0.098,-0.108 0.216,0.013 0.409,0.013ZM0.438,-0.139C0.331,-0.139 0.265,-0.208 0.265,-0.306C0.265,-0.447 0.38,-0.561 0.516,-0.561C0.622,-0.561 0.688,-0.49 0.688,-0.393C0.688,-0.252 0.572,-0.139 0.438,-0.139Z" style="fill:rgb(10,107,209);fill-rule:nonzero;"/>
        </g>
        <g transform="matrix(230.348,0,0,230.348,1319.65,350)">
            <path d="M0.195,-0L0.381,-0L0.581,-0.473L0.59,-0.473L0.614,-0L0.801,-0L1.113,-0.7L0.939,-0.7L0.753,-0.245L0.745,-0.245L0.725,-0.7L0.53,-0.7L0.341,-0.245L0.333,-0.245L0.315,-0.7L0.143,-0.7L0.195,-0Z" style="fill:rgb(10,107,209);fill-rule:nonzero;"/>
        </g>
    </g>
    <g transform="matrix(1.0027,0,0,1.0027,135.724,37.421)">
        <g transform="matrix(230.348,0,0,230.348,120,350)">
            <path d="M0.069,-0L0.227,-0L0.27,-0.234L0.367,-0.234L0.413,-0.085C0.429,-0.03 0.465,-0 0.534,-0L0.615,-0L0.64,-0.137L0.605,-0.137C0.576,-0.137 0.56,-0.146 0.547,-0.178L0.516,-0.265C0.615,-0.31 0.682,-0.403 0.682,-0.51C0.682,-0.622 0.599,-0.7 0.473,-0.7L0.199,-0.7L0.069,-0ZM0.296,-0.369L0.332,-0.565L0.432,-0.565C0.486,-0.565 0.519,-0.535 0.519,-0.49C0.519,-0.419 0.465,-0.369 0.397,-0.369L0.296,-0.369Z" style="fill:rgb(10,107,209);fill-rule:nonzero;"/>
        </g>
        <g transform="matrix(230.348,0,0,230.348,269.035,350)">
            <path d="M0.069,-0L0.523,-0L0.548,-0.136L0.252,-0.136L0.28,-0.285L0.522,-0.285L0.548,-0.42L0.305,-0.42L0.332,-0.565L0.617,-0.565L0.642,-0.7L0.199,-0.7L0.069,-0Z" style="fill:rgb(10,107,209);fill-rule:nonzero;"/>
        </g>
        <g transform="matrix(230.348,0,0,230.348,398.49,350)">
            <path d="M0.013,-0L0.182,-0L0.246,-0.124L0.51,-0.124L0.528,-0L0.694,-0L0.583,-0.7L0.38,-0.7L0.013,-0ZM0.311,-0.265L0.445,-0.526L0.454,-0.526L0.492,-0.265L0.311,-0.265Z" style="fill:rgb(10,107,209);fill-rule:nonzero;"/>
        </g>
        <g transform="matrix(230.348,0,0,230.348,561.346,350)">
            <path d="M0.069,-0L0.333,-0C0.585,-0 0.751,-0.18 0.751,-0.425C0.751,-0.588 0.642,-0.7 0.448,-0.7L0.199,-0.7L0.069,-0ZM0.253,-0.137L0.331,-0.563L0.415,-0.563C0.505,-0.563 0.584,-0.518 0.584,-0.406C0.584,-0.252 0.479,-0.137 0.336,-0.137L0.253,-0.137Z" style="fill:rgb(10,107,209);fill-rule:nonzero;"/>
        </g>
        <g transform="matrix(230.348,0,0,230.348,715.218,350)">
            <path d="M0.256,-0L0.415,-0L0.466,-0.272L0.785,-0.7L0.605,-0.7L0.412,-0.431L0.404,-0.431L0.311,-0.7L0.143,-0.7L0.307,-0.271L0.256,-0Z" style="fill:rgb(10,107,209);fill-rule:nonzero;"/>
        </g>
    </g>
    <g transform="matrix(1.0027,0,0,1.0027,101.724,268.392)">
        <g transform="matrix(230.348,0,0,230.348,120,350)">
            <path d="M0.085,0.23L0.164,0.23L0.291,-0.453L0.443,-0.453L0.455,-0.52L0.303,-0.52L0.315,-0.581C0.326,-0.637 0.366,-0.681 0.433,-0.681L0.481,-0.681L0.494,-0.75L0.445,-0.75C0.331,-0.75 0.256,-0.687 0.236,-0.582L0.224,-0.52L0.126,-0.52L0.114,-0.453L0.212,-0.453L0.085,0.23Z" style="fill:rgb(10,107,209);fill-rule:nonzero;"/>
        </g>
        <g transform="matrix(230.348,0,0,230.348,206.15,350)">
            <path d="M0.324,0.013C0.51,0.013 0.647,-0.137 0.647,-0.314C0.647,-0.441 0.553,-0.533 0.416,-0.533C0.23,-0.533 0.093,-0.383 0.093,-0.206C0.093,-0.078 0.187,0.013 0.324,0.013ZM0.332,-0.059C0.236,-0.059 0.175,-0.123 0.175,-0.216C0.175,-0.353 0.278,-0.461 0.407,-0.461C0.504,-0.461 0.564,-0.395 0.564,-0.303C0.564,-0.166 0.461,-0.059 0.332,-0.059Z" style="fill:rgb(10,107,209);fill-rule:nonzero;"/>
        </g>
        <g transform="matrix(230.348,0,0,230.348,354.264,350)">
            <path d="M0.09,-0L0.169,-0L0.219,-0.268C0.237,-0.366 0.304,-0.441 0.399,-0.441L0.442,-0.441L0.456,-0.52L0.412,-0.52C0.336,-0.52 0.276,-0.467 0.252,-0.423L0.246,-0.423L0.264,-0.52L0.186,-0.52L0.09,-0Z" style="fill:rgb(10,107,209);fill-rule:nonzero;"/>
        </g>
    </g>
</svg>
