<?xml version="1.0" encoding="UTF-8" standalone="no"?>
<!DOCTYPE svg PUBLIC "-//W3C//DTD SVG 1.1//EN" "http://www.w3.org/Graphics/SVG/1.1/DTD/svg11.dtd">
<svg width="100%" height="100%" viewBox="0 0 1920 1080" version="1.1" xmlns="http://www.w3.org/2000/svg" xmlns:xlink="http://www.w3.org/1999/xlink" xml:space="preserve" xmlns:serif="http://www.serif.com/" style="fill-rule:evenodd;clip-rule:evenodd;stroke-linejoin:round;stroke-miterlimit:2;">
    <rect x="0" y="0" width="1920" height="1080" style="fill:rgb(10,107,209);"/>
    <path d="M776.171,557.766C788.506,557.535 798.695,558.328 807.948,558.987C819.605,559.817 829.959,560.414 840.858,559.084C839.305,563.568 838.219,568.241 837.666,573.039C833.569,608.602 859.167,637.43 894.731,637.43C928.715,637.43 959.516,609.875 963.431,575.891C964.531,566.343 963.471,557.291 960.65,549.157C971.11,549.141 983.994,547.559 1001.39,543.853C999.191,553.182 979.745,637.045 979.745,637.057L1004.67,637.056C1004.67,637.064 1007.25,626.943 1019.2,576.703C1025.56,554.417 1042.52,539.336 1063.89,539.336C1072.84,539.336 1085.18,544.336 1085.18,544.336L1091.48,520.409C1091.48,520.409 1076.17,514.411 1063.89,514.411C1049.9,514.411 1036.97,518.468 1026.02,525.8L1015.1,515.042C966.978,527.193 952.473,525.995 934.395,518.391C932.386,517.315 930.3,516.353 928.142,515.513L919.096,538.739C932.358,543.904 940.473,557.392 938.67,573.039C936.163,594.801 916.492,612.505 894.731,612.505C874.548,612.505 860.102,596.074 862.427,575.891C864.385,558.898 876.885,544.471 892.58,538.861L884.191,515.39C877.503,517.78 871.208,521.218 865.528,525.497C843.274,536.455 828.556,535.467 809.719,534.125C801.441,533.535 792.47,532.853 782.067,532.782L796.303,472.445L1109.02,472.445L1114.9,447.52L694.269,447.52C677.548,447.52 657.512,453.384 644.24,463.555C630.85,473.815 620.946,487.807 616.521,502.318C616.521,502.319 616.52,502.32 616.52,502.321C609.027,526.891 616.448,551.564 634.381,564.928C646.175,573.718 662.797,577.989 683.538,573.243L695.686,570.463L690.127,546.166L677.978,548.945C665.921,551.704 656.131,550.052 649.275,544.943C639.233,537.459 636.165,523.35 640.361,509.592C640.361,509.591 640.362,509.59 640.362,509.589C643.373,499.715 650.289,490.321 659.4,483.339C668.629,476.267 682.642,472.445 694.269,472.445L770.694,472.445L756.188,533.921C744.135,535.061 730.368,537.181 714.284,540.849L719.827,565.151C731.064,562.588 741.077,560.846 750.106,559.698C750.106,559.698 734.207,628.496 728.112,642.456C720.571,659.732 708.86,670.91 684.998,670.91C612.824,670.91 551.14,612.621 554.077,540.507C557.022,468.206 612.604,409.09 684.998,409.09L1235.11,409.09C1307.36,409.09 1366.02,467.749 1366.02,540C1366.02,612.251 1307.36,670.91 1235.11,670.91L775,670.91L767.432,695.835L1235.11,695.835C1321.12,695.835 1390.95,626.008 1390.95,540C1390.95,453.992 1321.12,384.165 1235.11,384.165L684.998,384.165C599.133,384.165 532.666,453.737 529.173,539.493C525.664,625.638 598.781,695.835 684.998,695.835C721.471,695.835 739.428,678.835 750.956,652.428C757.574,637.267 776.171,557.766 776.171,557.766ZM1215.71,585.084C1216.41,582.439 1247.86,447.52 1247.86,447.52L1223.74,447.52L1204.11,530.722C1193.77,518.858 1178.35,511.501 1160.38,511.501C1126.4,511.501 1095.6,539.055 1091.68,573.039C1087.59,608.602 1113.18,637.43 1148.75,637.43C1167.13,637.43 1184.59,629.365 1197.35,616.583C1198.34,618.27 1199.41,619.78 1200.54,621.132C1208.76,631.028 1220.78,633.796 1229.5,633.796L1241.24,633.796L1247.72,610.317L1229.5,610.317C1226.28,610.317 1221.63,609.784 1218.6,606.128C1215.23,602.08 1214.11,595.485 1215.71,585.084ZM1192.69,573.039C1190.18,594.801 1170.51,612.505 1148.75,612.505C1128.57,612.505 1114.12,596.074 1116.44,575.891C1118.95,554.13 1138.62,536.426 1160.38,536.426C1180.57,536.426 1195.01,552.857 1192.69,573.039ZM1271.65,459.319C1271.65,466.276 1277.3,471.924 1284.25,471.924C1291.21,471.924 1296.86,466.276 1296.86,459.319C1296.86,452.362 1291.21,446.714 1284.25,446.714C1277.3,446.714 1271.65,452.362 1271.65,459.319ZM1284.25,470.313C1290.32,470.313 1295.25,465.387 1295.25,459.319C1295.25,453.251 1290.32,448.325 1284.25,448.325C1278.18,448.325 1273.26,453.251 1273.26,459.319C1273.26,463.692 1275.82,467.471 1279.52,469.242C1279.02,468.413 1278.73,467.442 1278.73,466.404C1278.73,465.398 1279.01,464.416 1279.52,463.562L1279.52,461.165C1279.52,457.534 1282.47,454.587 1286.1,454.587L1288.99,454.587C1288.99,454.587 1288.99,457.474 1288.99,457.474C1288.99,461.104 1286.04,464.051 1282.41,464.051L1281.13,464.051C1280.62,464.728 1280.34,465.554 1280.34,466.404C1280.34,468.563 1282.09,470.313 1284.25,470.313ZM1287.37,456.198L1286.1,456.198C1283.36,456.198 1281.13,458.423 1281.13,461.165L1281.13,462.44L1282.41,462.44C1285.15,462.44 1287.37,460.215 1287.37,457.474L1287.37,456.198Z" style="fill:rgb(238,238,238);"/>
</svg>
