<svg viewBox="0 0 4000 500" xmlns="http://www.w3.org/2000/svg" xml:space="preserve" style="fill-rule:evenodd;clip-rule:evenodd;stroke-linecap:round;stroke-miterlimit:1.5"><g transform="scale(7.8125)"><path d="M0 0h64v64H0z"/><clipPath id="a"><path d="M0 0h64v64H0z"/></clipPath><g clip-path="url(#a)"><g opacity=".25"><g opacity=".5"><path style="fill:#7f7f7f" d="M0 0h4v1H0z" transform="matrix(21.49997 12.413 0 99.30417 -54 -18)"/><path d="M11 15H9v1h2v-1Zm4-1h-3v1h4v-2h-1v1ZM2 13H0v1h2v-1Zm3-2v2h1v-1h1v-1H5Zm11 0h-1v1h1v-1Zm-2 0h-2v1h2v-1ZM0 9h2v1h1V8H0v1Zm15 0h-4v1h4V9ZM7 9H6v1h3V9h1V8H7v1ZM5 8H4v1h1V8Zm4-2H7v1h2V6ZM6 6H3v1h3V6Zm10-1h-1v1h1V5ZM2 5H1v1h1V5Zm6-1h1v1h4V4h-3V3H8v1ZM6 3H5v1h1V3ZM4 3H2v1h2V3Zm0-3H0v1h4V0Z" style="fill:#8f8f8f" transform="matrix(5.375 3.10325 0 6.20651 -54 -18)"/><path d="M14 15h-1v1h1v-1Zm-6 0H6v1h2v-1Zm-5-1H1v1h2v-1Zm-2-1h2v1h2v-1H4v-1H1v1Zm12 0h-1v1h3v-1h-1v-1h-1v1Zm-6-1v2h3v-1H9v-1H7Zm9 0h-1v1h1v-1ZM3 10H2v1h1v-1Zm6 0H8v1h1v-1Zm2 0h-1v1h1v-1Zm-5 0H4v1h2v-1Zm10 0h-3v1h3v-1Zm0-2h-1v1h1V8ZM5 7H4v1h1V7Zm4-2v2h1v1h3V7h-1V6h-1V5H9ZM0 6v2h2V7H1V6H0Zm6 0v2h2V7H7V6H6Zm7-1h-1v1h1V5Zm2 0h-1v1h1V5Zm-1-1h-1v1h1V4ZM6 4H3v1h3V4ZM1 4H0v1h1V4Zm7 0H7v1h1V4Zm8-1h-3v1h3V3ZM2 2H1v1h1V2Zm2-1v2h3V2H5V1H4Zm7 1H8v1h3V2ZM3 1H2v1h1V1Zm11 0h-1v1h1V1Zm2 0h-1v1h1V1ZM7 0H5v1h2V0Zm2 0H8v1h1V0Zm3 0h-2v1h2V0Z" style="fill:#747474" transform="matrix(5.375 3.10325 0 6.20651 -54 -18)"/><path d="M15 12h-1v1h1v-1Zm-2 0h-2v1h2v-1ZM1 10H0v1h1v-1Zm7 0H6v1h2v-1ZM6 7H5v1h1V7ZM4 7H2v1h2V7Zm8-2h-1v1h1V5Zm2 0h-1v1h1V5ZM8 2H7v1h1V2ZM4 2H2v1h2V2Zm9-1h-2v1h2V1Zm-3-1H9v1h1V0Z" style="fill:#686868" transform="matrix(5.375 3.10325 0 6.20651 -54 -18)"/></g><g opacity=".75"><path style="fill:#7f7f7f" d="M0 0h4v1H0z" transform="matrix(21.49997 -12.413 0 99.30417 32 31.652)"/><path d="M11 15H9v1h2v-1Zm4-1h-3v1h4v-2h-1v1ZM2 13H0v1h2v-1Zm3-2v2h1v-1h1v-1H5Zm11 0h-1v1h1v-1Zm-2 0h-2v1h2v-1ZM0 9h2v1h1V8H0v1Zm15 0h-4v1h4V9ZM7 9H6v1h3V9h1V8H7v1ZM5 8H4v1h1V8Zm4-2H7v1h2V6ZM6 6H3v1h3V6Zm10-1h-1v1h1V5ZM2 5H1v1h1V5Zm6-1h1v1h4V4h-3V3H8v1ZM6 3H5v1h1V3ZM4 3H2v1h2V3Zm0-3H0v1h4V0Z" style="fill:#8f8f8f" transform="matrix(5.375 -3.10325 0 6.20651 32 31.652)"/><path d="M14 15h-1v1h1v-1Zm-6 0H6v1h2v-1Zm-5-1H1v1h2v-1Zm-2-1h2v1h2v-1H4v-1H1v1Zm12 0h-1v1h3v-1h-1v-1h-1v1Zm-6-1v2h3v-1H9v-1H7Zm9 0h-1v1h1v-1ZM3 10H2v1h1v-1Zm6 0H8v1h1v-1Zm2 0h-1v1h1v-1Zm-5 0H4v1h2v-1Zm10 0h-3v1h3v-1Zm0-2h-1v1h1V8ZM5 7H4v1h1V7Zm4-2v2h1v1h3V7h-1V6h-1V5H9ZM0 6v2h2V7H1V6H0Zm6 0v2h2V7H7V6H6Zm7-1h-1v1h1V5Zm2 0h-1v1h1V5Zm-1-1h-1v1h1V4ZM6 4H3v1h3V4ZM1 4H0v1h1V4Zm7 0H7v1h1V4Zm8-1h-3v1h3V3ZM2 2H1v1h1V2Zm2-1v2h3V2H5V1H4Zm7 1H8v1h3V2ZM3 1H2v1h1V1Zm11 0h-1v1h1V1Zm2 0h-1v1h1V1ZM7 0H5v1h2V0Zm2 0H8v1h1V0Zm3 0h-2v1h2V0Z" style="fill:#747474" transform="matrix(5.375 -3.10325 0 6.20651 32 31.652)"/><path d="M15 12h-1v1h1v-1Zm-2 0h-2v1h2v-1ZM1 10H0v1h1v-1Zm7 0H6v1h2v-1ZM6 7H5v1h1V7ZM4 7H2v1h2V7Zm8-2h-1v1h1V5Zm2 0h-1v1h1V5ZM8 2H7v1h1V2ZM4 2H2v1h2V2Zm9-1h-2v1h2V1Zm-3-1H9v1h1V0Z" style="fill:#686868" transform="matrix(5.375 -3.10325 0 6.20651 32 31.652)"/></g><path style="fill:#7f7f7f" d="M0 0h4v1H0z" transform="matrix(21.49997 -12.413 85.99989 49.65203 -54 -17.652)"/><path d="M11 15H9v1h2v-1Zm4-1h-3v1h4v-2h-1v1ZM2 13H0v1h2v-1Zm3-2v2h1v-1h1v-1H5Zm11 0h-1v1h1v-1Zm-2 0h-2v1h2v-1ZM0 9h2v1h1V8H0v1Zm15 0h-4v1h4V9ZM7 9H6v1h3V9h1V8H7v1ZM5 8H4v1h1V8Zm4-2H7v1h2V6ZM6 6H3v1h3V6Zm10-1h-1v1h1V5ZM2 5H1v1h1V5Zm6-1h1v1h4V4h-3V3H8v1ZM6 3H5v1h1V3ZM4 3H2v1h2V3Zm0-3H0v1h4V0Z" style="fill:#8f8f8f" transform="scale(7.60139 4.38866) rotate(-45 -8.407 6.564)"/><path d="M14 15h-1v1h1v-1Zm-6 0H6v1h2v-1Zm-5-1H1v1h2v-1Zm-2-1h2v1h2v-1H4v-1H1v1Zm12 0h-1v1h3v-1h-1v-1h-1v1Zm-6-1v2h3v-1H9v-1H7Zm9 0h-1v1h1v-1ZM3 10H2v1h1v-1Zm6 0H8v1h1v-1Zm2 0h-1v1h1v-1Zm-5 0H4v1h2v-1Zm10 0h-3v1h3v-1Zm0-2h-1v1h1V8ZM5 7H4v1h1V7Zm4-2v2h1v1h3V7h-1V6h-1V5H9ZM0 6v2h2V7H1V6H0Zm6 0v2h2V7H7V6H6Zm7-1h-1v1h1V5Zm2 0h-1v1h1V5Zm-1-1h-1v1h1V4ZM6 4H3v1h3V4ZM1 4H0v1h1V4Zm7 0H7v1h1V4Zm8-1h-3v1h3V3ZM2 2H1v1h1V2Zm2-1v2h3V2H5V1H4Zm7 1H8v1h3V2ZM3 1H2v1h1V1Zm11 0h-1v1h1V1Zm2 0h-1v1h1V1ZM7 0H5v1h2V0Zm2 0H8v1h1V0Zm3 0h-2v1h2V0Z" style="fill:#747474" transform="scale(7.60139 4.38866) rotate(-45 -8.407 6.564)"/><path d="M15 12h-1v1h1v-1Zm-2 0h-2v1h2v-1ZM1 10H0v1h1v-1Zm7 0H6v1h2v-1ZM6 7H5v1h1V7ZM4 7H2v1h2V7Zm8-2h-1v1h1V5Zm2 0h-1v1h1V5ZM8 2H7v1h1V2ZM4 2H2v1h2V2Zm9-1h-2v1h2V1Zm-3-1H9v1h1V0Z" style="fill:#686868" transform="scale(7.60139 4.38866) rotate(-45 -8.407 6.564)"/></g><path d="m2274 1033 16.45 9.5v19L2274 1071l-16.45-9.5v-19l16.45-9.5Z" style="fill:none;stroke:url(#b);stroke-width:5.07px" transform="translate(-1763.261 -798.527) scale(.78947)"/><path d="m2274 1033.06 18.99 10.96v.01l-18.99 10.96-18.99-10.96v-.01l18.99-10.96Z" style="fill:none;stroke:#fb2;stroke-width:5.85px" transform="translate(-1523.532 -689.666) scale(.68405)"/><path d="M64 0H0v64h64V0Zm-1.633 1.633v60.734H1.633V1.633h60.734Z" style="fill:url(#c)"/></g></g><g opacity=".25"><g opacity=".5"><path style="fill:url(#d)" d="M0 0h4v1H0z" transform="matrix(437.49995 252.59054 0 2020.72665 500.001 -510.357)"/><path d="M11 15H9v1h2v-1Zm4-1h-3v1h4v-2h-1v1ZM2 13H0v1h2v-1Zm3-2v2h1v-1h1v-1H5Zm11 0h-1v1h1v-1Zm-2 0h-2v1h2v-1ZM0 9h2v1h1V8H0v1Zm15 0h-4v1h4V9ZM7 9H6v1h3V9h1V8H7v1ZM5 8H4v1h1V8Zm4-2H7v1h2V6ZM6 6H3v1h3V6Zm10-1h-1v1h1V5ZM2 5H1v1h1V5Zm6-1h1v1h4V4h-3V3H8v1ZM6 3H5v1h1V3ZM4 3H2v1h2V3Zm0-3H0v1h4V0Z" style="fill:url(#e)" transform="matrix(109.37499 63.14764 0 126.29542 500.001 -510.357)"/><path d="M14 15h-1v1h1v-1Zm-6 0H6v1h2v-1Zm-5-1H1v1h2v-1Zm-2-1h2v1h2v-1H4v-1H1v1Zm12 0h-1v1h3v-1h-1v-1h-1v1Zm-6-1v2h3v-1H9v-1H7Zm9 0h-1v1h1v-1ZM3 10H2v1h1v-1Zm6 0H8v1h1v-1Zm2 0h-1v1h1v-1Zm-5 0H4v1h2v-1Zm10 0h-3v1h3v-1Zm0-2h-1v1h1V8ZM5 7H4v1h1V7Zm4-2v2h1v1h3V7h-1V6h-1V5H9ZM0 6v2h2V7H1V6H0Zm6 0v2h2V7H7V6H6Zm7-1h-1v1h1V5Zm2 0h-1v1h1V5Zm-1-1h-1v1h1V4ZM6 4H3v1h3V4ZM1 4H0v1h1V4Zm7 0H7v1h1V4Zm8-1h-3v1h3V3ZM2 2H1v1h1V2Zm2-1v2h3V2H5V1H4Zm7 1H8v1h3V2ZM3 1H2v1h1V1Zm11 0h-1v1h1V1Zm2 0h-1v1h1V1ZM7 0H5v1h2V0Zm2 0H8v1h1V0Zm3 0h-2v1h2V0Z" style="fill:url(#f)" transform="matrix(109.37499 63.14764 0 126.29542 500.001 -510.357)"/><path d="M15 12h-1v1h1v-1Zm-2 0h-2v1h2v-1ZM1 10H0v1h1v-1Zm7 0H6v1h2v-1ZM6 7H5v1h1V7ZM4 7H2v1h2V7Zm8-2h-1v1h1V5Zm2 0h-1v1h1V5ZM8 2H7v1h1V2ZM4 2H2v1h2V2Zm9-1h-2v1h2V1Zm-3-1H9v1h1V0Z" style="fill:url(#g)" transform="matrix(109.37499 63.14764 0 126.29542 500.001 -510.357)"/></g><g opacity=".75"><path style="fill:url(#h)" d="M0 0h4v1H0z" transform="matrix(437.49995 -252.59054 0 2020.72665 2250 500.005)"/><path d="M11 15H9v1h2v-1Zm4-1h-3v1h4v-2h-1v1ZM2 13H0v1h2v-1Zm3-2v2h1v-1h1v-1H5Zm11 0h-1v1h1v-1Zm-2 0h-2v1h2v-1ZM0 9h2v1h1V8H0v1Zm15 0h-4v1h4V9ZM7 9H6v1h3V9h1V8H7v1ZM5 8H4v1h1V8Zm4-2H7v1h2V6ZM6 6H3v1h3V6Zm10-1h-1v1h1V5ZM2 5H1v1h1V5Zm6-1h1v1h4V4h-3V3H8v1ZM6 3H5v1h1V3ZM4 3H2v1h2V3Zm0-3H0v1h4V0Z" style="fill:url(#i)" transform="matrix(109.37499 -63.14764 0 126.29542 2250 500.005)"/><path d="M14 15h-1v1h1v-1Zm-6 0H6v1h2v-1Zm-5-1H1v1h2v-1Zm-2-1h2v1h2v-1H4v-1H1v1Zm12 0h-1v1h3v-1h-1v-1h-1v1Zm-6-1v2h3v-1H9v-1H7Zm9 0h-1v1h1v-1ZM3 10H2v1h1v-1Zm6 0H8v1h1v-1Zm2 0h-1v1h1v-1Zm-5 0H4v1h2v-1Zm10 0h-3v1h3v-1Zm0-2h-1v1h1V8ZM5 7H4v1h1V7Zm4-2v2h1v1h3V7h-1V6h-1V5H9ZM0 6v2h2V7H1V6H0Zm6 0v2h2V7H7V6H6Zm7-1h-1v1h1V5Zm2 0h-1v1h1V5Zm-1-1h-1v1h1V4ZM6 4H3v1h3V4ZM1 4H0v1h1V4Zm7 0H7v1h1V4Zm8-1h-3v1h3V3ZM2 2H1v1h1V2Zm2-1v2h3V2H5V1H4Zm7 1H8v1h3V2ZM3 1H2v1h1V1Zm11 0h-1v1h1V1Zm2 0h-1v1h1V1ZM7 0H5v1h2V0Zm2 0H8v1h1V0Zm3 0h-2v1h2V0Z" style="fill:url(#j)" transform="matrix(109.37499 -63.14764 0 126.29542 2250 500.005)"/><path d="M15 12h-1v1h1v-1Zm-2 0h-2v1h2v-1ZM1 10H0v1h1v-1Zm7 0H6v1h2v-1ZM6 7H5v1h1V7ZM4 7H2v1h2V7Zm8-2h-1v1h1V5Zm2 0h-1v1h1V5ZM8 2H7v1h1V2ZM4 2H2v1h2V2Zm9-1h-2v1h2V1Zm-3-1H9v1h1V0Z" style="fill:url(#k)" transform="matrix(109.37499 -63.14764 0 126.29542 2250 500.005)"/></g><path style="fill:url(#l)" d="M0 0h4v1H0z" transform="matrix(437.49995 -252.59054 1749.9998 1010.36217 499.998 -510.36)"/><path d="M11 15H9v1h2v-1Zm4-1h-3v1h4v-2h-1v1ZM2 13H0v1h2v-1Zm3-2v2h1v-1h1v-1H5Zm11 0h-1v1h1v-1Zm-2 0h-2v1h2v-1ZM0 9h2v1h1V8H0v1Zm15 0h-4v1h4V9ZM7 9H6v1h3V9h1V8H7v1ZM5 8H4v1h1V8Zm4-2H7v1h2V6ZM6 6H3v1h3V6Zm10-1h-1v1h1V5ZM2 5H1v1h1V5Zm6-1h1v1h4V4h-3V3H8v1ZM6 3H5v1h1V3ZM4 3H2v1h2V3Zm0-3H0v1h4V0Z" style="fill:url(#m)" transform="scale(154.67959 89.30424) rotate(-45 -5.282 -6.76)"/><path d="M14 15h-1v1h1v-1Zm-6 0H6v1h2v-1Zm-5-1H1v1h2v-1Zm-2-1h2v1h2v-1H4v-1H1v1Zm12 0h-1v1h3v-1h-1v-1h-1v1Zm-6-1v2h3v-1H9v-1H7Zm9 0h-1v1h1v-1ZM3 10H2v1h1v-1Zm6 0H8v1h1v-1Zm2 0h-1v1h1v-1Zm-5 0H4v1h2v-1Zm10 0h-3v1h3v-1Zm0-2h-1v1h1V8ZM5 7H4v1h1V7Zm4-2v2h1v1h3V7h-1V6h-1V5H9ZM0 6v2h2V7H1V6H0Zm6 0v2h2V7H7V6H6Zm7-1h-1v1h1V5Zm2 0h-1v1h1V5Zm-1-1h-1v1h1V4ZM6 4H3v1h3V4ZM1 4H0v1h1V4Zm7 0H7v1h1V4Zm8-1h-3v1h3V3ZM2 2H1v1h1V2Zm2-1v2h3V2H5V1H4Zm7 1H8v1h3V2ZM3 1H2v1h1V1Zm11 0h-1v1h1V1Zm2 0h-1v1h1V1ZM7 0H5v1h2V0Zm2 0H8v1h1V0Zm3 0h-2v1h2V0Z" style="fill:url(#n)" transform="scale(154.67959 89.30424) rotate(-45 -5.282 -6.76)"/><path d="M15 12h-1v1h1v-1Zm-2 0h-2v1h2v-1ZM1 10H0v1h1v-1Zm7 0H6v1h2v-1ZM6 7H5v1h1V7ZM4 7H2v1h2V7Zm8-2h-1v1h1V5Zm2 0h-1v1h1V5ZM8 2H7v1h1V2ZM4 2H2v1h2V2Zm9-1h-2v1h2V1Zm-3-1H9v1h1V0Z" style="fill:url(#o)" transform="scale(154.67959 89.30424) rotate(-45 -5.282 -6.76)"/></g><path d="M-19.26 52.456h2.514v-1.257h-6.286v1.257h2.515V60h1.257v-7.544Zm8.788 1.257h-3.771v-2.514h-1.258V60h1.258v-5.029h3.771v-1.258Zm0 1.258V60h1.258v-5.029h-1.258ZM-6.7 60h5.03v-1.257H-6.7V60Zm3.772-3.772H-6.7v-1.257h-1.257v3.772H-6.7v-1.258h5.03v-2.514h-1.258v-1.258H-6.7v1.258h3.772v1.257Zm10.059-2.515H3.359V60h1.257v-5.029h2.515v-1.258Zm0 1.258V60h1.257v-5.029H7.131Zm3.771 0V60h1.258v-5.029h-1.258Zm0-1.258H8.388v1.258h2.514v-1.258ZM14.662 60h5.029v-5.029h-1.257v3.772h-3.772V60Zm0-1.257v-3.772h-1.257v3.772h1.257Zm3.772-5.03h-3.772v1.258h3.772v-1.258ZM20.948 60h3.772v-1.257h-1.257v-5.029h-2.515v1.257h1.258v3.772h-1.258V60Zm2.515-8.801h-1.257v1.257h1.257v-1.257ZM32.264 60v-5.029h-1.258V60h1.258Zm-5.029 0v-5.029h3.771v-1.258h-5.028V60h1.257Zm11.303 0h5.029v-5.029H42.31v3.772h-3.772V60Zm0-1.257v-3.772h-1.257v3.772h1.257Zm3.772-5.03h-3.772v1.258h3.772v-1.258Zm3.772 0v-2.514h-1.258v7.544h1.258L46.069 60h2.527v-1.257h-2.514v-3.772h2.514v-1.258h-2.514Zm5.017 0v-2.514h-1.258v7.544h1.258L51.085 60h2.527v-1.257h-2.513v-3.772h2.513v-1.258h-2.513Zm8.787 0h-5.028V60h1.257v-5.029h3.771v-1.258ZM62.389 60h5.029v-5.029h-1.257v3.772h-3.772V60Zm0-1.257v-3.772h-1.257v3.772h1.257Zm3.772-5.03h-3.772v1.258h3.772v-1.258ZM69.933 60h3.772v-1.257h1.257v-1.258h-1.257v1.258h-3.772V60Zm-1.258-5.029v3.772h1.258v-3.772h-1.258Zm5.03 0v-1.258h-3.772v1.258h3.772v1.257h1.257v-1.257h-1.257Zm3.772-1.258v-2.514h-1.258v7.544h1.258L77.463 60h2.528v-1.257h-2.514v-3.772h2.514v-1.258h-2.514ZM81.236 60h3.772v-1.257H83.75v-5.029h-2.514v1.257h1.257v3.772h-1.257V60Zm2.514-8.801h-1.257v1.257h1.257v-1.257Zm7.544 2.514h-3.771v1.258h3.771v3.772h-3.771V60h3.771v-1.257h1.257v-3.772h-1.257v-1.258Zm-5.029 1.258v3.772h1.258v-3.772h-1.258ZM100.082 60v-5.029h-1.257V60h1.257Zm-5.028 0v-5.029h3.771v-1.258h-5.029V60h1.258Z" style="fill:#eee;fill-rule:nonzero" transform="translate(1126.82 -874.486) scale(20.2248)"/><defs><linearGradient id="b" x1="0" y1="0" x2="1" y2="0" gradientUnits="userSpaceOnUse" gradientTransform="matrix(0 -10.9586 10.9586 0 2274 1054.92)"><stop offset="0" style="stop-color:#d92;stop-opacity:1"/><stop offset="1" style="stop-color:#960;stop-opacity:1"/></linearGradient><linearGradient id="c" x1="0" y1="0" x2="1" y2="0" gradientUnits="userSpaceOnUse" gradientTransform="matrix(64 64 -64 64 0 0)"><stop offset="0" style="stop-color:#eee;stop-opacity:.11"/><stop offset="1" style="stop-color:#111;stop-opacity:0"/></linearGradient><linearGradient id="d" x1="0" y1="0" x2="1" y2="0" gradientUnits="userSpaceOnUse" gradientTransform="matrix(0 .24744 -1.14286 .14286 4 -.247)"><stop offset="0" style="stop-color:#7f7f7f;stop-opacity:1"/><stop offset="1" style="stop-color:#7f7f7f;stop-opacity:0"/></linearGradient><linearGradient id="e" x1="0" y1="0" x2="1" y2="0" gradientUnits="userSpaceOnUse" gradientTransform="matrix(0 3.95897 -4.57143 2.28571 16 -3.959)"><stop offset="0" style="stop-color:#8f8f8f;stop-opacity:1"/><stop offset="1" style="stop-color:#8f8f8f;stop-opacity:0"/></linearGradient><linearGradient id="f" x1="0" y1="0" x2="1" y2="0" gradientUnits="userSpaceOnUse" gradientTransform="matrix(0 3.95897 -4.57143 2.28571 16 -3.959)"><stop offset="0" style="stop-color:#747474;stop-opacity:1"/><stop offset="1" style="stop-color:#747474;stop-opacity:0"/></linearGradient><linearGradient id="g" x1="0" y1="0" x2="1" y2="0" gradientUnits="userSpaceOnUse" gradientTransform="matrix(0 3.95897 -4.57143 2.28571 16 -3.959)"><stop offset="0" style="stop-color:#686868;stop-opacity:1"/><stop offset="1" style="stop-color:#686868;stop-opacity:0"/></linearGradient><linearGradient id="h" x1="0" y1="0" x2="1" y2="0" gradientUnits="userSpaceOnUse" gradientTransform="matrix(0 .24744 -1.14286 -.14286 0 -.247)"><stop offset="0" style="stop-color:#7f7f7f;stop-opacity:1"/><stop offset="1" style="stop-color:#7f7f7f;stop-opacity:0"/></linearGradient><linearGradient id="i" x1="0" y1="0" x2="1" y2="0" gradientUnits="userSpaceOnUse" gradientTransform="matrix(0 3.95897 -4.57143 -2.28571 0 -3.959)"><stop offset="0" style="stop-color:#8f8f8f;stop-opacity:1"/><stop offset="1" style="stop-color:#8f8f8f;stop-opacity:0"/></linearGradient><linearGradient id="j" x1="0" y1="0" x2="1" y2="0" gradientUnits="userSpaceOnUse" gradientTransform="matrix(0 3.95897 -4.57143 -2.28571 0 -3.959)"><stop offset="0" style="stop-color:#747474;stop-opacity:1"/><stop offset="1" style="stop-color:#747474;stop-opacity:0"/></linearGradient><linearGradient id="k" x1="0" y1="0" x2="1" y2="0" gradientUnits="userSpaceOnUse" gradientTransform="matrix(0 3.95897 -4.57143 -2.28571 0 -3.959)"><stop offset="0" style="stop-color:#686868;stop-opacity:1"/><stop offset="1" style="stop-color:#686868;stop-opacity:0"/></linearGradient><linearGradient id="l" x1="0" y1="0" x2="1" y2="0" gradientUnits="userSpaceOnUse" gradientTransform="matrix(-.98974 .24744 -.57143 -.14286 .99 .753)"><stop offset="0" style="stop-color:#7f7f7f;stop-opacity:1"/><stop offset="1" style="stop-color:#7f7f7f;stop-opacity:0"/></linearGradient><linearGradient id="m" x1="0" y1="0" x2="1" y2="0" gradientUnits="userSpaceOnUse" gradientTransform="matrix(-3.95897 3.95897 -2.2857 -2.2857 3.96 12.04)"><stop offset="0" style="stop-color:#8f8f8f;stop-opacity:1"/><stop offset="1" style="stop-color:#8f8f8f;stop-opacity:0"/></linearGradient><linearGradient id="n" x1="0" y1="0" x2="1" y2="0" gradientUnits="userSpaceOnUse" gradientTransform="matrix(-3.95897 3.95897 -2.2857 -2.2857 3.96 12.04)"><stop offset="0" style="stop-color:#747474;stop-opacity:1"/><stop offset="1" style="stop-color:#747474;stop-opacity:0"/></linearGradient><linearGradient id="o" x1="0" y1="0" x2="1" y2="0" gradientUnits="userSpaceOnUse" gradientTransform="matrix(-3.95897 3.95897 -2.2857 -2.2857 3.96 12.04)"><stop offset="0" style="stop-color:#686868;stop-opacity:1"/><stop offset="1" style="stop-color:#686868;stop-opacity:0"/></linearGradient></defs></svg>