<svg viewBox="0 0 2000 500" xmlns="http://www.w3.org/2000/svg" xmlns:xlink="http://www.w3.org/1999/xlink" xml:space="preserve" style="fill-rule:evenodd;clip-rule:evenodd;stroke-linecap:round;stroke-miterlimit:1.5"><g opacity=".25"><g opacity=".5"><path d="M1000 250v250H0V0h566.987L1000 250Z" style="fill:url(#a)"/><path d="M58.013 500H62.5v-69.578L0 394.338v72.168L58.013 500Zm629.487 0H750v-33.494l-62.5-36.084V500ZM375 394.338l-62.5-36.085v72.169l62.5 36.084v-72.168Zm-125-72.169L125 250v72.169l125 72.169v-72.169Zm562.5-108.253-125-72.169v72.169l125 72.168v-72.168ZM500 105.662l-62.5-36.084v72.169l62.5 36.084v-72.169ZM566.987 0H562.5v69.578l62.5 36.084V33.494L566.987 0ZM250 33.494 191.987 0H250v33.494Z" style="fill:url(#b)"/><path d="M183.013 500H125v-33.494L183.013 500Zm250 0H500v-33.494l-62.5-36.084v-72.169L375 322.169v144.337L433.013 500Zm129.487 0h125v-69.578l-125-72.169V500Zm245.513 0H750v-33.494L808.013 500Zm4.487 0H875v-33.494l-62.5-36.084V500Zm120.513 0H1000v-33.494L812.5 358.253v72.169L933.013 500ZM312.5 358.253 250 322.169v72.169l62.5 36.084v-72.169Zm687.5-36.084-62.5-36.085v72.169l62.5 36.085v-72.169ZM875 250l-62.5-36.084v72.168l62.5 36.085V250Zm-375 0-62.5-36.084v72.168l62.5 36.085V250ZM0 105.662V250l125 72.169V250l-62.5-36.084v-72.169L0 105.662Zm687.5 108.254L500 105.662v72.169l187.5 108.253v-72.168ZM375 177.831 187.5 69.578v72.169L375 250v-72.169Zm375-72.169L625 33.494v72.168l125 72.169v-72.169ZM316.987 0H250v33.494l187.5 108.253V69.578L316.987 0ZM562.5 0H500v33.494l62.5 36.084V0Zm-500 0H0v33.494l62.5 36.084V0Z" style="fill:url(#c)"/><path d="M183.013 500h4.487V358.253L0 250v72.169l125 72.169v72.168L183.013 500Zm125 0h4.487v-69.578L250 394.338v72.168L308.013 500Zm250 0h4.487v-69.578l-125-72.169v72.169L558.013 500Zm250 0h4.487v-69.578L625 322.169V250l-125-72.169V250l62.5 36.084v72.169L808.013 500ZM375 322.169 187.5 213.916v72.168L375 394.338v-72.169Zm0-216.507-62.5-36.084v72.169l62.5 36.084v-72.169Zm-250 0L62.5 69.578v72.169l62.5 36.084v-72.169ZM191.987 0H125v33.494l125 72.168V33.494L191.987 0Z" style="fill:url(#d)"/></g><g opacity=".75"><path d="M1433.01 0 1000 250v250h1000V0h-566.99Z" style="fill:url(#e)"/><path d="M1187.5 500h4.49L1375 394.338v-72.169l-187.5 108.253V500Zm250 0v-69.578l-62.5 36.084V500h62.5Zm62.5 0h-58.01l58.01-33.494V500Zm316.99 0h125l58.01-33.494v-72.168L1816.99 500ZM1562.5 286.084v144.338l62.5-36.084v72.168l187.5-108.253v-72.169l-62.5 36.085V250l-62.5 36.084v-72.168l-125 72.168ZM1125 322.169l-62.5 36.084v72.169l62.5-36.084v-72.169ZM2000 250l-62.5 36.084v72.169l62.5-36.084V250Zm-500 0-62.5 36.084v72.169l62.5-36.084V250Zm-250-72.169v144.338l187.5-108.253v-72.169l-125 72.169v-72.169l-62.5 36.084Zm-62.5 36.085L1125 250v72.169l62.5-36.085v-72.168Zm625-72.169-62.5 36.084V250l62.5-36.084v-72.169ZM1683.01 0 1500 105.662v72.169l187.5-108.253V0h-4.49Zm254.49 69.578-62.5 36.084v72.169l62.5-36.084V69.578Zm-125 0v72.169l62.5-36.085V33.494L1933.01 0H1812.5v69.578l62.5-36.084-62.5 36.084ZM1433.01 0 1312.5 69.578v72.169l125-72.169V0h-4.49ZM1500 0h58.01L1500 33.494V0Z" style="fill:url(#f)"/><path d="M1375 500h-58.01l58.01-33.494V500Zm62.5 0h4.49l120.51-69.578v-72.169l-125 72.169V500Zm187.5 0h-58.01l58.01-33.494V500Zm66.99 0h125l120.51-69.578v-72.169L1691.99 500Zm308.01 0h-58.01l58.01-33.494V500Zm-750-177.831-125 72.169v72.168l125-72.168v-72.169ZM1375 250l-62.5 36.084v72.169l62.5-36.084V250Zm-125-144.338L1000 250v72.169l250-144.338v-72.169ZM1500 250l62.5-36.084v72.168l250-144.337V69.578L1625 177.831v-72.169l-125 72.169V250Zm500-216.506-62.5 36.084v72.169l62.5-36.085V33.494Z" style="fill:url(#g)"/><path d="m1250 250-125 72.169v72.169l125-72.169V250Zm500-72.169-62.5 36.085v72.168L1750 250v-72.169Zm-250-72.169-62.5 36.085v72.169l62.5-36.085v-72.169Zm375 0-62.5 36.085v72.169l62.5-36.085v-72.169Z" style="fill:url(#h)"/></g><path d="M1000 250 566.987 0h866.023L1000 250Z" style="fill:url(#i)" transform="translate(-.001)"/><path d="m937.5 69.578-125 72.169 62.5 36.084 125-72.169-62.5-36.084Z" style="fill:url(#j)" transform="translate(-.001)"/><path d="m1062.5 69.578-125 72.169 62.5 36.084 125-72.169-62.5-36.084ZM933.013 0 812.5 69.578l62.5 36.084 125-72.168 62.5 36.084L1183.01 0H933.013Zm383.977 0h116.02L1375 33.494 1316.99 0Z" style="fill:url(#k)" transform="translate(-.001)"/><path d="M683.013 0 625 33.494l62.5 36.084L750 33.494 691.987 0h-8.974Z" style="fill:url(#l)" transform="translate(-.001)"/></g><use xlink:href="#_Image13" x="319" y="135" width="1346" height="272"/><path style="fill:none" d="M0 0h2000v500H0z"/><path d="M-2.763 41.82V77h5.026V51.871h5.026v-5.026H2.263V41.82h-5.026Zm20.101 10.051V77h5.027V41.82h-5.027v5.025h-5.023v5.026h5.023Zm-5.023 10.052V51.871H7.289v10.052h5.026ZM27.341 77h15.078v-5.026h-5.026V51.871H27.341v5.026h5.026v15.077h-5.026V77Zm10.052-35.18h-5.026v5.025h5.026V41.82ZM72.572 77V56.897h-5.026V77h5.026Zm-20.101 0V56.897h15.075v-5.026H47.445V77h5.026Zm30.104-25.129V41.82h-5.026v30.154h5.026L82.523 77h10.101v-5.026H82.575V56.897h10.049v-5.026H82.575ZM102.628 77h15.077v-5.026h5.026v-5.025h-5.026v5.025h-15.077V77Zm-5.026-20.103v15.077h5.026V56.897h-5.026Zm20.103 0v-5.026h-15.077v5.026h15.077v5.026h5.026v-5.026h-5.026Zm30.153-5.026h-20.102V77h5.027V56.897h15.075v-5.026ZM157.861 77h20.103V56.897h-5.026v15.077h-15.077V77Zm0-5.026V56.897h-5.026v15.077h5.026Zm15.077-20.103h-15.077v5.026h15.077v-5.026Zm30.154 0h-10.051v-5.025h-5.026v5.025h-5.026v5.026h5.026V77h5.026V56.897h10.051v-5.026Zm0-10.051h-10.051v5.026h10.051V41.82Zm10.002 10.051V41.82h-5.026v30.154h5.026L213.042 77h10.101v-5.026h-10.049V56.897h10.049v-5.026h-10.049Z" style="fill:#ebebeb;fill-rule:nonzero" transform="translate(558.919 -31.594) scale(4.73986)"/><path d="m2274 1033 16.45 9.5v19L2274 1071l-16.45-9.5v-19l16.45-9.5Z" style="fill:none;stroke:url(#m);stroke-width:6.21px" transform="translate(-8306.208 -3799.302) scale(3.84914)"/><path d="m2274 1033.06 18.99 10.96v.01l-18.99 10.96-18.99-10.96v-.01l18.99-10.96Z" style="fill:none;stroke:#fb2;stroke-width:7.16px" transform="translate(-7137.389 -3268.544) scale(3.33514)"/><defs><linearGradient id="a" x1="0" y1="0" x2="1" y2="0" gradientUnits="userSpaceOnUse" gradientTransform="matrix(0 500 -500 0 1000 0)"><stop offset="0" style="stop-color:#7f7f7f;stop-opacity:1"/><stop offset="1" style="stop-color:#7f7f7f;stop-opacity:0"/></linearGradient><linearGradient id="b" x1="0" y1="0" x2="1" y2="0" gradientUnits="userSpaceOnUse" gradientTransform="matrix(0 500 -500 0 1000 0)"><stop offset="0" style="stop-color:#686868;stop-opacity:1"/><stop offset="1" style="stop-color:#686868;stop-opacity:0"/></linearGradient><linearGradient id="c" x1="0" y1="0" x2="1" y2="0" gradientUnits="userSpaceOnUse" gradientTransform="matrix(0 500 -500 0 1000 0)"><stop offset="0" style="stop-color:#747474;stop-opacity:1"/><stop offset="1" style="stop-color:#747474;stop-opacity:0"/></linearGradient><linearGradient id="d" x1="0" y1="0" x2="1" y2="0" gradientUnits="userSpaceOnUse" gradientTransform="matrix(0 500 -500 0 1000 0)"><stop offset="0" style="stop-color:#8f8f8f;stop-opacity:1"/><stop offset="1" style="stop-color:#8f8f8f;stop-opacity:0"/></linearGradient><linearGradient id="e" x1="0" y1="0" x2="1" y2="0" gradientUnits="userSpaceOnUse" gradientTransform="matrix(0 500 -500 0 1000 0)"><stop offset="0" style="stop-color:#7f7f7f;stop-opacity:1"/><stop offset="1" style="stop-color:#7f7f7f;stop-opacity:0"/></linearGradient><linearGradient id="f" x1="0" y1="0" x2="1" y2="0" gradientUnits="userSpaceOnUse" gradientTransform="matrix(0 500 -500 0 1000 0)"><stop offset="0" style="stop-color:#747474;stop-opacity:1"/><stop offset="1" style="stop-color:#747474;stop-opacity:0"/></linearGradient><linearGradient id="g" x1="0" y1="0" x2="1" y2="0" gradientUnits="userSpaceOnUse" gradientTransform="matrix(0 500 -500 0 1000 0)"><stop offset="0" style="stop-color:#8f8f8f;stop-opacity:1"/><stop offset="1" style="stop-color:#8f8f8f;stop-opacity:0"/></linearGradient><linearGradient id="h" x1="0" y1="0" x2="1" y2="0" gradientUnits="userSpaceOnUse" gradientTransform="matrix(0 500 -500 0 1000 0)"><stop offset="0" style="stop-color:#686868;stop-opacity:1"/><stop offset="1" style="stop-color:#686868;stop-opacity:0"/></linearGradient><linearGradient id="i" x1="0" y1="0" x2="1" y2="0" gradientUnits="userSpaceOnUse" gradientTransform="matrix(0 500 -500 0 1000 0)"><stop offset="0" style="stop-color:#7f7f7f;stop-opacity:1"/><stop offset="1" style="stop-color:#7f7f7f;stop-opacity:0"/></linearGradient><linearGradient id="j" x1="0" y1="0" x2="1" y2="0" gradientUnits="userSpaceOnUse" gradientTransform="matrix(0 500 -500 0 1000 0)"><stop offset="0" style="stop-color:#8f8f8f;stop-opacity:1"/><stop offset="1" style="stop-color:#8f8f8f;stop-opacity:0"/></linearGradient><linearGradient id="k" x1="0" y1="0" x2="1" y2="0" gradientUnits="userSpaceOnUse" gradientTransform="matrix(0 500 -500 0 1000 0)"><stop offset="0" style="stop-color:#747474;stop-opacity:1"/><stop offset="1" style="stop-color:#747474;stop-opacity:0"/></linearGradient><linearGradient id="l" x1="0" y1="0" x2="1" y2="0" gradientUnits="userSpaceOnUse" gradientTransform="matrix(0 500 -500 0 1000 0)"><stop offset="0" style="stop-color:#686868;stop-opacity:1"/><stop offset="1" style="stop-color:#686868;stop-opacity:0"/></linearGradient><linearGradient id="m" x1="0" y1="0" x2="1" y2="0" gradientUnits="userSpaceOnUse" gradientTransform="matrix(0 -10.9586 10.9586 0 2274 1054.92)"><stop offset="0" style="stop-color:#d92;stop-opacity:1"/><stop offset="1" style="stop-color:#960;stop-opacity:1"/></linearGradient></defs></svg>