<?xml version="1.0" encoding="UTF-8" standalone="no"?>
<!DOCTYPE svg PUBLIC "-//W3C//DTD SVG 1.1//EN" "http://www.w3.org/Graphics/SVG/1.1/DTD/svg11.dtd">
<svg width="100%" height="100%" viewBox="0 0 2000 500" version="1.1" xmlns="http://www.w3.org/2000/svg" xmlns:xlink="http://www.w3.org/1999/xlink" xml:space="preserve" xmlns:serif="http://www.serif.com/" style="fill-rule:evenodd;clip-rule:evenodd;stroke-linecap:round;stroke-miterlimit:1.5;">
    <g transform="matrix(28.5714,0,0,28.5714,85.7143,-664.286)">
        <g opacity="0.25">
            <g transform="matrix(0.0759219,0.0438335,3.76957e-18,0.0876671,-40.885,-57.4204)">
                <g opacity="0.5">
                    <g transform="matrix(0.461,-0.2305,-1.98224e-17,0.399238,499,670.691)">
                        <path d="M1000,250L1000,500L0,500L0,-0L566.987,-0L1000,250Z" style="fill:url(#_Linear1);"/>
                    </g>
                    <g transform="matrix(0.461,-0.2305,-1.98224e-17,0.399238,499,670.691)">
                        <path d="M58.013,500L62.5,500L62.5,430.422L0,394.338L0,466.506L58.013,500ZM687.5,500L750,500L750,466.506L687.5,430.422L687.5,500ZM375,394.338L312.5,358.253L312.5,430.422L375,466.506L375,394.338ZM250,322.169L125,250L125,322.169L250,394.338L250,322.169ZM812.5,213.916L687.5,141.747L687.5,213.916L812.5,286.084L812.5,213.916ZM500,105.662L437.5,69.578L437.5,141.747L500,177.831L500,105.662ZM566.987,-0L562.5,-0L562.5,69.578L625,105.662L625,33.494L566.987,-0ZM250,33.494L191.987,-0L250,-0L250,33.494Z" style="fill:url(#_Linear2);"/>
                    </g>
                    <g transform="matrix(0.461,-0.2305,-1.98224e-17,0.399238,499,670.691)">
                        <path d="M183.013,500L125,500L125,466.506L183.013,500ZM433.013,500L500,500L500,466.506L437.5,430.422L437.5,358.253L375,322.169L375,466.506L433.013,500ZM562.5,500L687.5,500L687.5,430.422L562.5,358.253L562.5,500ZM808.013,500L750,500L750,466.506L808.013,500ZM812.5,500L875,500L875,466.506L812.5,430.422L812.5,500ZM933.013,500L1000,500L1000,466.506L812.5,358.253L812.5,430.422L933.013,500ZM312.5,358.253L250,322.169L250,394.338L312.5,430.422L312.5,358.253ZM1000,322.169L937.5,286.084L937.5,358.253L1000,394.338L1000,322.169ZM875,250L812.5,213.916L812.5,286.084L875,322.169L875,250ZM500,250L437.5,213.916L437.5,286.084L500,322.169L500,250ZM0,105.662L0,250L125,322.169L125,250L62.5,213.916L62.5,141.747L0,105.662ZM687.5,213.916L500,105.662L500,177.831L687.5,286.084L687.5,213.916ZM375,177.831L187.5,69.578L187.5,141.747L375,250L375,177.831ZM750,105.662L625,33.494L625,105.662L750,177.831L750,105.662ZM316.987,-0L250,-0L250,33.494L437.5,141.747L437.5,69.578L316.987,-0ZM562.5,-0L500,-0L500,33.494L562.5,69.578L562.5,-0ZM62.5,-0L0,-0L0,33.494L62.5,69.578L62.5,-0Z" style="fill:url(#_Linear3);"/>
                    </g>
                    <g transform="matrix(0.461,-0.2305,-1.98224e-17,0.399238,499,670.691)">
                        <path d="M183.013,500L187.5,500L187.5,358.253L0,250L0,322.169L125,394.338L125,466.506L183.013,500ZM308.013,500L312.5,500L312.5,430.422L250,394.338L250,466.506L308.013,500ZM558.013,500L562.5,500L562.5,430.422L437.5,358.253L437.5,430.422L558.013,500ZM808.013,500L812.5,500L812.5,430.422L625,322.169L625,250L500,177.831L500,250L562.5,286.084L562.5,358.253L808.013,500ZM375,322.169L187.5,213.916L187.5,286.084L375,394.338L375,322.169ZM375,105.662L312.5,69.578L312.5,141.747L375,177.831L375,105.662ZM125,105.662L62.5,69.578L62.5,141.747L125,177.831L125,105.662ZM191.987,-0L125,-0L125,33.494L250,105.662L250,33.494L191.987,-0Z" style="fill:url(#_Linear4);"/>
                    </g>
                </g>
            </g>
            <g transform="matrix(0.0759219,-0.0438335,-3.76957e-18,0.0876671,-5.88503,6.53272)">
                <g opacity="0.75">
                    <g transform="matrix(0.461,0.2305,1.98224e-17,0.399238,38,209.691)">
                        <path d="M1433.01,0L1000,250L1000,500L2000,500L2000,0L1433.01,0Z" style="fill:url(#_Linear5);"/>
                    </g>
                    <g transform="matrix(0.461,0.2305,1.98224e-17,0.399238,38,209.691)">
                        <path d="M1187.5,500L1191.99,500L1375,394.338L1375,322.169L1187.5,430.422L1187.5,500ZM1437.5,500L1437.5,430.422L1375,466.506L1375,500L1437.5,500ZM1500,500L1441.99,500L1500,466.506L1500,500ZM1816.99,500L1941.99,500L2000,466.506L2000,394.338L1816.99,500ZM1562.5,286.084L1562.5,430.422L1625,394.338L1625,466.506L1812.5,358.253L1812.5,286.084L1750,322.169L1750,250L1687.5,286.084L1687.5,213.916L1562.5,286.084ZM1125,322.169L1062.5,358.253L1062.5,430.422L1125,394.338L1125,322.169ZM2000,250L1937.5,286.084L1937.5,358.253L2000,322.169L2000,250ZM1500,250L1437.5,286.084L1437.5,358.253L1500,322.169L1500,250ZM1250,177.831L1250,322.169L1437.5,213.916L1437.5,141.747L1312.5,213.916L1312.5,141.747L1250,177.831ZM1187.5,213.916L1125,250L1125,322.169L1187.5,286.084L1187.5,213.916ZM1812.5,141.747L1750,177.831L1750,250L1812.5,213.916L1812.5,141.747ZM1683.01,0L1500,105.662L1500,177.831L1687.5,69.578L1687.5,0L1683.01,0ZM1937.5,69.578L1875,105.662L1875,177.831L1937.5,141.747L1937.5,69.578ZM1812.5,69.578L1812.5,141.747L1875,105.662L1875,33.494L1933.01,0L1812.5,0L1812.5,69.578L1875,33.494L1812.5,69.578ZM1433.01,0L1312.5,69.578L1312.5,141.747L1437.5,69.578L1437.5,0L1433.01,0ZM1500,0L1558.01,0L1500,33.494L1500,0Z" style="fill:url(#_Linear6);"/>
                    </g>
                    <g transform="matrix(0.461,0.2305,1.98224e-17,0.399238,38,209.691)">
                        <path d="M1375,500L1316.99,500L1375,466.506L1375,500ZM1437.5,500L1441.99,500L1562.5,430.422L1562.5,358.253L1437.5,430.422L1437.5,500ZM1625,500L1566.99,500L1625,466.506L1625,500ZM1691.99,500L1816.99,500L1937.5,430.422L1937.5,358.253L1691.99,500ZM2000,500L1941.99,500L2000,466.506L2000,500ZM1250,322.169L1125,394.338L1125,466.506L1250,394.338L1250,322.169ZM1375,250L1312.5,286.084L1312.5,358.253L1375,322.169L1375,250ZM1250,105.662L1000,250L1000,322.169L1250,177.831L1250,105.662ZM1500,250L1562.5,213.916L1562.5,286.084L1812.5,141.747L1812.5,69.578L1625,177.831L1625,105.662L1500,177.831L1500,250ZM2000,33.494L1937.5,69.578L1937.5,141.747L2000,105.662L2000,33.494Z" style="fill:url(#_Linear7);"/>
                    </g>
                    <g transform="matrix(0.461,0.2305,1.98224e-17,0.399238,38,209.691)">
                        <path d="M1250,250L1125,322.169L1125,394.338L1250,322.169L1250,250ZM1750,177.831L1687.5,213.916L1687.5,286.084L1750,250L1750,177.831ZM1500,105.662L1437.5,141.747L1437.5,213.916L1500,177.831L1500,105.662ZM1875,105.662L1812.5,141.747L1812.5,213.916L1875,177.831L1875,105.662Z" style="fill:url(#_Linear8);"/>
                    </g>
                </g>
            </g>
            <g transform="matrix(0.0759219,-0.0438335,0.0759219,0.0438335,-81.8829,9.99557)">
                <g transform="matrix(0.2305,0.2305,-0.399238,0.399238,368.309,670.691)">
                    <path d="M1000,250L566.987,-0L1433.01,-0L1000,250Z" style="fill:url(#_Linear9);"/>
                </g>
                <g transform="matrix(0.2305,0.2305,-0.399238,0.399238,368.309,670.691)">
                    <path d="M937.5,69.578L812.5,141.747L875,177.831L1000,105.662L937.5,69.578Z" style="fill:url(#_Linear10);"/>
                </g>
                <g transform="matrix(0.2305,0.2305,-0.399238,0.399238,368.309,670.691)">
                    <path d="M1062.5,69.578L937.5,141.747L1000,177.831L1125,105.662L1062.5,69.578ZM933.013,-0L812.5,69.578L875,105.662L1000,33.494L1062.5,69.578L1183.01,0L933.013,-0ZM1316.99,0L1433.01,0L1375,33.494L1316.99,0Z" style="fill:url(#_Linear11);"/>
                </g>
                <g transform="matrix(0.2305,0.2305,-0.399238,0.399238,368.309,670.691)">
                    <path d="M683.013,0L625,33.494L687.5,69.578L750,33.494L691.987,0L683.013,0Z" style="fill:url(#_Linear12);"/>
                </g>
            </g>
        </g>
    </g>
    <use id="Schatten" xlink:href="#_Image13" x="319" y="135" width="1346px" height="272px"/>
    <g id="Logo">
        <rect x="0" y="0" width="2000" height="500" style="fill:none;"/>
        <g transform="matrix(1,0,0,1,-4.92015,0.125)">
            <g transform="matrix(4.73986,0,0,4.73986,563.839,-31.7192)">
                <path d="M-2.763,41.82L-2.763,77L2.263,77L2.263,51.871L7.289,51.871L7.289,46.845L2.263,46.845L2.263,41.82L-2.763,41.82ZM17.338,51.871L17.338,77L22.365,77L22.365,41.82L17.338,41.82L17.338,46.845L12.315,46.845L12.315,51.871L17.338,51.871ZM12.315,61.923L12.315,51.871L7.289,51.871L7.289,61.923L12.315,61.923Z" style="fill:rgb(235,235,235);fill-rule:nonzero;"/>
                <path d="M27.341,77L42.419,77L42.419,71.974L37.393,71.974L37.393,51.871L27.341,51.871L27.341,56.897L32.367,56.897L32.367,71.974L27.341,71.974L27.341,77ZM37.393,41.82L32.367,41.82L32.367,46.845L37.393,46.845L37.393,41.82Z" style="fill:rgb(235,235,235);fill-rule:nonzero;"/>
                <path d="M72.572,77L72.572,56.897L67.546,56.897L67.546,77L72.572,77ZM52.471,77L52.471,56.897L67.546,56.897L67.546,51.871L47.445,51.871L47.445,77L52.471,77Z" style="fill:rgb(235,235,235);fill-rule:nonzero;"/>
                <path d="M82.575,51.871L82.575,41.82L77.549,41.82L77.549,71.974L82.575,71.974L82.523,77L92.624,77L92.624,71.974L82.575,71.974L82.575,56.897L92.624,56.897L92.624,51.871L82.575,51.871Z" style="fill:rgb(235,235,235);fill-rule:nonzero;"/>
                <path d="M102.628,77L117.705,77L117.705,71.974L122.731,71.974L122.731,66.949L117.705,66.949L117.705,71.974L102.628,71.974L102.628,77ZM97.602,56.897L97.602,71.974L102.628,71.974L102.628,56.897L97.602,56.897ZM117.705,56.897L117.705,51.871L102.628,51.871L102.628,56.897L117.705,56.897L117.705,61.923L122.731,61.923L122.731,56.897L117.705,56.897Z" style="fill:rgb(235,235,235);fill-rule:nonzero;"/>
                <path d="M147.858,51.871L127.756,51.871L127.756,77L132.783,77L132.783,56.897L147.858,56.897L147.858,51.871Z" style="fill:rgb(235,235,235);fill-rule:nonzero;"/>
                <path d="M157.861,77L177.964,77L177.964,56.897L172.938,56.897L172.938,71.974L157.861,71.974L157.861,77ZM157.861,71.974L157.861,56.897L152.835,56.897L152.835,71.974L157.861,71.974ZM172.938,51.871L157.861,51.871L157.861,56.897L172.938,56.897L172.938,51.871Z" style="fill:rgb(235,235,235);fill-rule:nonzero;"/>
                <path d="M203.092,51.871L193.041,51.871L193.041,46.846L188.015,46.846L188.015,51.871L182.989,51.871L182.989,56.897L188.015,56.897L188.015,77L193.041,77L193.041,56.897L203.092,56.897L203.092,51.871ZM203.092,41.82L193.041,41.82L193.041,46.846L203.092,46.846L203.092,41.82Z" style="fill:rgb(235,235,235);fill-rule:nonzero;"/>
                <path d="M213.094,51.871L213.094,41.82L208.068,41.82L208.068,71.974L213.094,71.974L213.042,77L223.143,77L223.143,71.974L213.094,71.974L213.094,56.897L223.143,56.897L223.143,51.871L213.094,51.871Z" style="fill:rgb(235,235,235);fill-rule:nonzero;"/>
            </g>
            <g transform="matrix(1.85224,0,0,1.85224,-3714.53,-1787.82)">
                <g transform="matrix(2.0781,0,0,2.0781,-2476.33,-1086.04)">
                    <path d="M2274,1033L2290.45,1042.5L2290.45,1061.5L2274,1071L2257.55,1061.5L2257.55,1042.5L2274,1033Z" style="fill:none;stroke:url(#_Linear14);stroke-width:6.21px;"/>
                </g>
                <g transform="matrix(1.8006,0,0,1.8006,-1845.3,-799.491)">
                    <path d="M2274,1033.06L2292.99,1044.02L2292.99,1044.03L2274,1054.99L2255.01,1044.03L2255.01,1044.02L2274,1033.06Z" style="fill:none;stroke:rgb(255,187,34);stroke-width:7.16px;"/>
                </g>
            </g>
        </g>
    </g>
    <defs>
        <linearGradient id="_Linear1" x1="0" y1="0" x2="1" y2="0" gradientUnits="userSpaceOnUse" gradientTransform="matrix(3.06162e-14,500,-500,3.06162e-14,1000,1.81899e-12)"><stop offset="0" style="stop-color:rgb(127,127,127);stop-opacity:1"/><stop offset="1" style="stop-color:rgb(127,127,127);stop-opacity:0"/></linearGradient>
        <linearGradient id="_Linear2" x1="0" y1="0" x2="1" y2="0" gradientUnits="userSpaceOnUse" gradientTransform="matrix(3.06162e-14,500,-500,3.06162e-14,1000,4.54747e-13)"><stop offset="0" style="stop-color:rgb(104,104,104);stop-opacity:1"/><stop offset="1" style="stop-color:rgb(104,104,104);stop-opacity:0"/></linearGradient>
        <linearGradient id="_Linear3" x1="0" y1="0" x2="1" y2="0" gradientUnits="userSpaceOnUse" gradientTransform="matrix(3.06162e-14,500,-500,3.06162e-14,1000,4.54747e-13)"><stop offset="0" style="stop-color:rgb(116,116,116);stop-opacity:1"/><stop offset="1" style="stop-color:rgb(116,116,116);stop-opacity:0"/></linearGradient>
        <linearGradient id="_Linear4" x1="0" y1="0" x2="1" y2="0" gradientUnits="userSpaceOnUse" gradientTransform="matrix(3.06162e-14,500,-500,3.06162e-14,1000,4.54747e-13)"><stop offset="0" style="stop-color:rgb(143,143,143);stop-opacity:1"/><stop offset="1" style="stop-color:rgb(143,143,143);stop-opacity:0"/></linearGradient>
        <linearGradient id="_Linear5" x1="0" y1="0" x2="1" y2="0" gradientUnits="userSpaceOnUse" gradientTransform="matrix(3.06162e-14,500,-500,1.9715e-13,1000,6.4837e-14)"><stop offset="0" style="stop-color:rgb(127,127,127);stop-opacity:1"/><stop offset="1" style="stop-color:rgb(127,127,127);stop-opacity:0"/></linearGradient>
        <linearGradient id="_Linear6" x1="0" y1="0" x2="1" y2="0" gradientUnits="userSpaceOnUse" gradientTransform="matrix(3.06162e-14,500,-500,1.9715e-13,1000,-1.05693e-13)"><stop offset="0" style="stop-color:rgb(116,116,116);stop-opacity:1"/><stop offset="1" style="stop-color:rgb(116,116,116);stop-opacity:0"/></linearGradient>
        <linearGradient id="_Linear7" x1="0" y1="0" x2="1" y2="0" gradientUnits="userSpaceOnUse" gradientTransform="matrix(3.06162e-14,500,-500,1.9715e-13,1000,-1.05693e-13)"><stop offset="0" style="stop-color:rgb(143,143,143);stop-opacity:1"/><stop offset="1" style="stop-color:rgb(143,143,143);stop-opacity:0"/></linearGradient>
        <linearGradient id="_Linear8" x1="0" y1="0" x2="1" y2="0" gradientUnits="userSpaceOnUse" gradientTransform="matrix(3.06162e-14,500,-500,8.61273e-14,1000,-5.41789e-14)"><stop offset="0" style="stop-color:rgb(104,104,104);stop-opacity:1"/><stop offset="1" style="stop-color:rgb(104,104,104);stop-opacity:0"/></linearGradient>
        <linearGradient id="_Linear9" x1="0" y1="0" x2="1" y2="0" gradientUnits="userSpaceOnUse" gradientTransform="matrix(3.06162e-14,500,-500,3.06162e-14,1000,5.68434e-14)"><stop offset="0" style="stop-color:rgb(127,127,127);stop-opacity:1"/><stop offset="1" style="stop-color:rgb(127,127,127);stop-opacity:0"/></linearGradient>
        <linearGradient id="_Linear10" x1="0" y1="0" x2="1" y2="0" gradientUnits="userSpaceOnUse" gradientTransform="matrix(3.06162e-14,500,-500,3.06162e-14,1000,5.68434e-14)"><stop offset="0" style="stop-color:rgb(143,143,143);stop-opacity:1"/><stop offset="1" style="stop-color:rgb(143,143,143);stop-opacity:0"/></linearGradient>
        <linearGradient id="_Linear11" x1="0" y1="0" x2="1" y2="0" gradientUnits="userSpaceOnUse" gradientTransform="matrix(3.06162e-14,500,-500,3.06162e-14,1000,5.68434e-14)"><stop offset="0" style="stop-color:rgb(116,116,116);stop-opacity:1"/><stop offset="1" style="stop-color:rgb(116,116,116);stop-opacity:0"/></linearGradient>
        <linearGradient id="_Linear12" x1="0" y1="0" x2="1" y2="0" gradientUnits="userSpaceOnUse" gradientTransform="matrix(3.06162e-14,500,-500,3.06162e-14,1000,5.68434e-14)"><stop offset="0" style="stop-color:rgb(104,104,104);stop-opacity:1"/><stop offset="1" style="stop-color:rgb(104,104,104);stop-opacity:0"/></linearGradient>
        <linearGradient id="_Linear14" x1="0" y1="0" x2="1" y2="0" gradientUnits="userSpaceOnUse" gradientTransform="matrix(-3.93524e-13,-10.9586,10.9586,-3.93524e-13,2274,1054.92)"><stop offset="0" style="stop-color:rgb(221,153,34);stop-opacity:1"/><stop offset="1" style="stop-color:rgb(153,102,0);stop-opacity:1"/></linearGradient>
    </defs>
</svg>
