<?xml version="1.0" encoding="UTF-8" standalone="no"?>
<!DOCTYPE svg PUBLIC "-//W3C//DTD SVG 1.1//EN" "http://www.w3.org/Graphics/SVG/1.1/DTD/svg11.dtd">
<svg width="100%" height="100%" viewBox="0 0 4000 500" version="1.1" xmlns="http://www.w3.org/2000/svg" xmlns:xlink="http://www.w3.org/1999/xlink" xml:space="preserve" xmlns:serif="http://www.serif.com/" style="fill-rule:evenodd;clip-rule:evenodd;stroke-linecap:round;stroke-miterlimit:1.5;">
    <g transform="matrix(7.8125,0,0,7.8125,0,0)">
        <rect x="0" y="0" width="64" height="64"/>
        <clipPath id="_clip1">
            <rect x="0" y="0" width="64" height="64"/>
        </clipPath>
        <g clip-path="url(#_clip1)">
            <g transform="matrix(2.45714,0,0,2.45714,-46.6286,-46.6286)">
                <g opacity="0.25">
                    <g transform="matrix(0.0759219,0.0438335,3.76957e-18,0.0876671,-40.885,-57.562)">
                        <g opacity="0.5">
                            <g transform="matrix(115.25,0,0,461,499,540)">
                                <rect x="0" y="0" width="4" height="1" style="fill:rgb(127,127,127);"/>
                            </g>
                            <g transform="matrix(28.8125,0,0,28.8125,499,540)">
                                <path d="M11,15L9,15L9,16L11,16L11,15ZM15,14L12,14L12,15L16,15L16,13L15,13L15,14ZM2,13L0,13L0,14L2,14L2,13ZM5,11L5,13L6,13L6,12L7,12L7,11L5,11ZM16,11L15,11L15,12L16,12L16,11ZM14,11L12,11L12,12L14,12L14,11ZM0,9L2,9L2,10L3,10L3,8L0,8L0,9ZM15,9L11,9L11,10L15,10L15,9ZM7,9L6,9L6,10L9,10L9,9L10,9L10,8L7,8L7,9ZM5,8L4,8L4,9L5,9L5,8ZM9,6L7,6L7,7L9,7L9,6ZM6,6L3,6L3,7L6,7L6,6ZM16,5L15,5L15,6L16,6L16,5ZM2,5L1,5L1,6L2,6L2,5ZM8,4L9,4L9,5L13,5L13,4L10,4L10,3L8,3L8,4ZM6,3L5,3L5,4L6,4L6,3ZM4,3L2,3L2,4L4,4L4,3ZM4,0L0,0L0,1L4,1L4,0Z" style="fill:rgb(143,143,143);"/>
                            </g>
                            <g transform="matrix(28.8125,0,0,28.8125,499,540)">
                                <path d="M14,15L13,15L13,16L14,16L14,15ZM8,15L6,15L6,16L8,16L8,15ZM3,14L1,14L1,15L3,15L3,14ZM1,13L3,13L3,14L5,14L5,13L4,13L4,12L1,12L1,13ZM13,13L12,13L12,14L15,14L15,13L14,13L14,12L13,12L13,13ZM7,12L7,14L10,14L10,13L9,13L9,12L7,12ZM16,12L15,12L15,13L16,13L16,12ZM3,10L2,10L2,11L3,11L3,10ZM9,10L8,10L8,11L9,11L9,10ZM11,10L10,10L10,11L11,11L11,10ZM6,10L4,10L4,11L6,11L6,10ZM16,10L13,10L13,11L16,11L16,10ZM16,8L15,8L15,9L16,9L16,8ZM5,7L4,7L4,8L5,8L5,7ZM9,5L9,7L10,7L10,8L13,8L13,7L12,7L12,6L11,6L11,5L9,5ZM0,6L0,8L2,8L2,7L1,7L1,6L0,6ZM6,6L6,8L8,8L8,7L7,7L7,6L6,6ZM13,5L12,5L12,6L13,6L13,5ZM15,5L14,5L14,6L15,6L15,5ZM14,4L13,4L13,5L14,5L14,4ZM6,4L3,4L3,5L6,5L6,4ZM1,4L0,4L0,5L1,5L1,4ZM8,4L7,4L7,5L8,5L8,4ZM16,3L13,3L13,4L16,4L16,3ZM2,2L1,2L1,3L2,3L2,2ZM4,1L4,3L7,3L7,2L5,2L5,1L4,1ZM11,2L8,2L8,3L11,3L11,2ZM3,1L2,1L2,2L3,2L3,1ZM14,1L13,1L13,2L14,2L14,1ZM16,1L15,1L15,2L16,2L16,1ZM7,0L5,0L5,1L7,1L7,0ZM9,0L8,0L8,1L9,1L9,0ZM12,0L10,0L10,1L12,1L12,0Z" style="fill:rgb(116,116,116);"/>
                            </g>
                            <g transform="matrix(28.8125,0,0,28.8125,499,540)">
                                <path d="M15,12L14,12L14,13L15,13L15,12ZM13,12L11,12L11,13L13,13L13,12ZM1,10L0,10L0,11L1,11L1,10ZM8,10L6,10L6,11L8,11L8,10ZM6,7L5,7L5,8L6,8L6,7ZM4,7L2,7L2,8L4,8L4,7ZM12,5L11,5L11,6L12,6L12,5ZM14,5L13,5L13,6L14,6L14,5ZM8,2L7,2L7,3L8,3L8,2ZM4,2L2,2L2,3L4,3L4,2ZM13,1L11,1L11,2L13,2L13,1ZM10,0L9,0L9,1L10,1L10,0Z" style="fill:rgb(104,104,104);"/>
                            </g>
                        </g>
                    </g>
                    <g transform="matrix(0.0759219,-0.0438335,-3.76957e-18,0.0876671,-5.88503,6.39114)">
                        <g opacity="0.75">
                            <g transform="matrix(115.25,0,0,461,499,540)">
                                <rect x="0" y="0" width="4" height="1" style="fill:rgb(127,127,127);"/>
                            </g>
                            <g transform="matrix(28.8125,0,0,28.8125,499,540)">
                                <path d="M11,15L9,15L9,16L11,16L11,15ZM15,14L12,14L12,15L16,15L16,13L15,13L15,14ZM2,13L0,13L0,14L2,14L2,13ZM5,11L5,13L6,13L6,12L7,12L7,11L5,11ZM16,11L15,11L15,12L16,12L16,11ZM14,11L12,11L12,12L14,12L14,11ZM0,9L2,9L2,10L3,10L3,8L0,8L0,9ZM15,9L11,9L11,10L15,10L15,9ZM7,9L6,9L6,10L9,10L9,9L10,9L10,8L7,8L7,9ZM5,8L4,8L4,9L5,9L5,8ZM9,6L7,6L7,7L9,7L9,6ZM6,6L3,6L3,7L6,7L6,6ZM16,5L15,5L15,6L16,6L16,5ZM2,5L1,5L1,6L2,6L2,5ZM8,4L9,4L9,5L13,5L13,4L10,4L10,3L8,3L8,4ZM6,3L5,3L5,4L6,4L6,3ZM4,3L2,3L2,4L4,4L4,3ZM4,0L0,0L0,1L4,1L4,0Z" style="fill:rgb(143,143,143);"/>
                            </g>
                            <g transform="matrix(28.8125,0,0,28.8125,499,540)">
                                <path d="M14,15L13,15L13,16L14,16L14,15ZM8,15L6,15L6,16L8,16L8,15ZM3,14L1,14L1,15L3,15L3,14ZM1,13L3,13L3,14L5,14L5,13L4,13L4,12L1,12L1,13ZM13,13L12,13L12,14L15,14L15,13L14,13L14,12L13,12L13,13ZM7,12L7,14L10,14L10,13L9,13L9,12L7,12ZM16,12L15,12L15,13L16,13L16,12ZM3,10L2,10L2,11L3,11L3,10ZM9,10L8,10L8,11L9,11L9,10ZM11,10L10,10L10,11L11,11L11,10ZM6,10L4,10L4,11L6,11L6,10ZM16,10L13,10L13,11L16,11L16,10ZM16,8L15,8L15,9L16,9L16,8ZM5,7L4,7L4,8L5,8L5,7ZM9,5L9,7L10,7L10,8L13,8L13,7L12,7L12,6L11,6L11,5L9,5ZM0,6L0,8L2,8L2,7L1,7L1,6L0,6ZM6,6L6,8L8,8L8,7L7,7L7,6L6,6ZM13,5L12,5L12,6L13,6L13,5ZM15,5L14,5L14,6L15,6L15,5ZM14,4L13,4L13,5L14,5L14,4ZM6,4L3,4L3,5L6,5L6,4ZM1,4L0,4L0,5L1,5L1,4ZM8,4L7,4L7,5L8,5L8,4ZM16,3L13,3L13,4L16,4L16,3ZM2,2L1,2L1,3L2,3L2,2ZM4,1L4,3L7,3L7,2L5,2L5,1L4,1ZM11,2L8,2L8,3L11,3L11,2ZM3,1L2,1L2,2L3,2L3,1ZM14,1L13,1L13,2L14,2L14,1ZM16,1L15,1L15,2L16,2L16,1ZM7,0L5,0L5,1L7,1L7,0ZM9,0L8,0L8,1L9,1L9,0ZM12,0L10,0L10,1L12,1L12,0Z" style="fill:rgb(116,116,116);"/>
                            </g>
                            <g transform="matrix(28.8125,0,0,28.8125,499,540)">
                                <path d="M15,12L14,12L14,13L15,13L15,12ZM13,12L11,12L11,13L13,13L13,12ZM1,10L0,10L0,11L1,11L1,10ZM8,10L6,10L6,11L8,11L8,10ZM6,7L5,7L5,8L6,8L6,7ZM4,7L2,7L2,8L4,8L4,7ZM12,5L11,5L11,6L12,6L12,5ZM14,5L13,5L13,6L14,6L14,5ZM8,2L7,2L7,3L8,3L8,2ZM4,2L2,2L2,3L4,3L4,2ZM13,1L11,1L11,2L13,2L13,1ZM10,0L9,0L9,1L10,1L10,0Z" style="fill:rgb(104,104,104);"/>
                            </g>
                        </g>
                    </g>
                    <g transform="matrix(0.0759219,-0.0438335,0.0759219,0.0438335,-81.8829,9.99557)">
                        <g transform="matrix(115.25,0,0,461,499,540)">
                            <rect x="0" y="0" width="4" height="1" style="fill:rgb(127,127,127);"/>
                        </g>
                        <g transform="matrix(28.8125,0,0,28.8125,499,540)">
                            <path d="M11,15L9,15L9,16L11,16L11,15ZM15,14L12,14L12,15L16,15L16,13L15,13L15,14ZM2,13L0,13L0,14L2,14L2,13ZM5,11L5,13L6,13L6,12L7,12L7,11L5,11ZM16,11L15,11L15,12L16,12L16,11ZM14,11L12,11L12,12L14,12L14,11ZM0,9L2,9L2,10L3,10L3,8L0,8L0,9ZM15,9L11,9L11,10L15,10L15,9ZM7,9L6,9L6,10L9,10L9,9L10,9L10,8L7,8L7,9ZM5,8L4,8L4,9L5,9L5,8ZM9,6L7,6L7,7L9,7L9,6ZM6,6L3,6L3,7L6,7L6,6ZM16,5L15,5L15,6L16,6L16,5ZM2,5L1,5L1,6L2,6L2,5ZM8,4L9,4L9,5L13,5L13,4L10,4L10,3L8,3L8,4ZM6,3L5,3L5,4L6,4L6,3ZM4,3L2,3L2,4L4,4L4,3ZM4,0L0,0L0,1L4,1L4,0Z" style="fill:rgb(143,143,143);"/>
                        </g>
                        <g transform="matrix(28.8125,0,0,28.8125,499,540)">
                            <path d="M14,15L13,15L13,16L14,16L14,15ZM8,15L6,15L6,16L8,16L8,15ZM3,14L1,14L1,15L3,15L3,14ZM1,13L3,13L3,14L5,14L5,13L4,13L4,12L1,12L1,13ZM13,13L12,13L12,14L15,14L15,13L14,13L14,12L13,12L13,13ZM7,12L7,14L10,14L10,13L9,13L9,12L7,12ZM16,12L15,12L15,13L16,13L16,12ZM3,10L2,10L2,11L3,11L3,10ZM9,10L8,10L8,11L9,11L9,10ZM11,10L10,10L10,11L11,11L11,10ZM6,10L4,10L4,11L6,11L6,10ZM16,10L13,10L13,11L16,11L16,10ZM16,8L15,8L15,9L16,9L16,8ZM5,7L4,7L4,8L5,8L5,7ZM9,5L9,7L10,7L10,8L13,8L13,7L12,7L12,6L11,6L11,5L9,5ZM0,6L0,8L2,8L2,7L1,7L1,6L0,6ZM6,6L6,8L8,8L8,7L7,7L7,6L6,6ZM13,5L12,5L12,6L13,6L13,5ZM15,5L14,5L14,6L15,6L15,5ZM14,4L13,4L13,5L14,5L14,4ZM6,4L3,4L3,5L6,5L6,4ZM1,4L0,4L0,5L1,5L1,4ZM8,4L7,4L7,5L8,5L8,4ZM16,3L13,3L13,4L16,4L16,3ZM2,2L1,2L1,3L2,3L2,2ZM4,1L4,3L7,3L7,2L5,2L5,1L4,1ZM11,2L8,2L8,3L11,3L11,2ZM3,1L2,1L2,2L3,2L3,1ZM14,1L13,1L13,2L14,2L14,1ZM16,1L15,1L15,2L16,2L16,1ZM7,0L5,0L5,1L7,1L7,0ZM9,0L8,0L8,1L9,1L9,0ZM12,0L10,0L10,1L12,1L12,0Z" style="fill:rgb(116,116,116);"/>
                        </g>
                        <g transform="matrix(28.8125,0,0,28.8125,499,540)">
                            <path d="M15,12L14,12L14,13L15,13L15,12ZM13,12L11,12L11,13L13,13L13,12ZM1,10L0,10L0,11L1,11L1,10ZM8,10L6,10L6,11L8,11L8,10ZM6,7L5,7L5,8L6,8L6,7ZM4,7L2,7L2,8L4,8L4,7ZM12,5L11,5L11,6L12,6L12,5ZM14,5L13,5L13,6L14,6L14,5ZM8,2L7,2L7,3L8,3L8,2ZM4,2L2,2L2,3L4,3L4,2ZM13,1L11,1L11,2L13,2L13,1ZM10,0L9,0L9,1L10,1L10,0Z" style="fill:rgb(104,104,104);"/>
                        </g>
                    </g>
                </g>
            </g>
            <g transform="matrix(0.379901,0,0,0.379901,-822.501,-385.939)">
                <g transform="matrix(2.0781,0,0,2.0781,-2476.33,-1086.04)">
                    <path d="M2274,1033L2290.45,1042.5L2290.45,1061.5L2274,1071L2257.55,1061.5L2257.55,1042.5L2274,1033Z" style="fill:none;stroke:url(#_Linear2);stroke-width:5.07px;"/>
                </g>
                <g transform="matrix(1.8006,0,0,1.8006,-1845.3,-799.491)">
                    <path d="M2274,1033.06L2292.99,1044.02L2292.99,1044.03L2274,1054.99L2255.01,1044.03L2255.01,1044.02L2274,1033.06Z" style="fill:none;stroke:rgb(255,187,34);stroke-width:5.85px;"/>
                </g>
            </g>
            <path d="M64,0L0,0L0,64L64,64L64,0ZM62.367,1.633L62.367,62.367L1.633,62.367L1.633,1.633L62.367,1.633Z" style="fill:url(#_Linear3);"/>
        </g>
    </g>
    <g transform="matrix(50,0,0,50,650,-1350)">
        <g opacity="0.25">
            <g transform="matrix(0.0759219,0.0438335,3.76957e-18,0.0876671,-40.885,-57.4203)">
                <g opacity="0.5">
                    <g transform="matrix(115.25,0,0,461,499,597.034)">
                        <rect x="0" y="0" width="4" height="1" style="fill:url(#_Linear4);"/>
                    </g>
                    <g transform="matrix(28.8125,0,0,28.8125,499,597.034)">
                        <path d="M11,15L9,15L9,16L11,16L11,15ZM15,14L12,14L12,15L16,15L16,13L15,13L15,14ZM2,13L0,13L0,14L2,14L2,13ZM5,11L5,13L6,13L6,12L7,12L7,11L5,11ZM16,11L15,11L15,12L16,12L16,11ZM14,11L12,11L12,12L14,12L14,11ZM0,9L2,9L2,10L3,10L3,8L0,8L0,9ZM15,9L11,9L11,10L15,10L15,9ZM7,9L6,9L6,10L9,10L9,9L10,9L10,8L7,8L7,9ZM5,8L4,8L4,9L5,9L5,8ZM9,6L7,6L7,7L9,7L9,6ZM6,6L3,6L3,7L6,7L6,6ZM16,5L15,5L15,6L16,6L16,5ZM2,5L1,5L1,6L2,6L2,5ZM8,4L9,4L9,5L13,5L13,4L10,4L10,3L8,3L8,4ZM6,3L5,3L5,4L6,4L6,3ZM4,3L2,3L2,4L4,4L4,3ZM4,0L0,0L0,1L4,1L4,0Z" style="fill:url(#_Linear5);"/>
                    </g>
                    <g transform="matrix(28.8125,0,0,28.8125,499,597.034)">
                        <path d="M14,15L13,15L13,16L14,16L14,15ZM8,15L6,15L6,16L8,16L8,15ZM3,14L1,14L1,15L3,15L3,14ZM1,13L3,13L3,14L5,14L5,13L4,13L4,12L1,12L1,13ZM13,13L12,13L12,14L15,14L15,13L14,13L14,12L13,12L13,13ZM7,12L7,14L10,14L10,13L9,13L9,12L7,12ZM16,12L15,12L15,13L16,13L16,12ZM3,10L2,10L2,11L3,11L3,10ZM9,10L8,10L8,11L9,11L9,10ZM11,10L10,10L10,11L11,11L11,10ZM6,10L4,10L4,11L6,11L6,10ZM16,10L13,10L13,11L16,11L16,10ZM16,8L15,8L15,9L16,9L16,8ZM5,7L4,7L4,8L5,8L5,7ZM9,5L9,7L10,7L10,8L13,8L13,7L12,7L12,6L11,6L11,5L9,5ZM0,6L0,8L2,8L2,7L1,7L1,6L0,6ZM6,6L6,8L8,8L8,7L7,7L7,6L6,6ZM13,5L12,5L12,6L13,6L13,5ZM15,5L14,5L14,6L15,6L15,5ZM14,4L13,4L13,5L14,5L14,4ZM6,4L3,4L3,5L6,5L6,4ZM1,4L0,4L0,5L1,5L1,4ZM8,4L7,4L7,5L8,5L8,4ZM16,3L13,3L13,4L16,4L16,3ZM2,2L1,2L1,3L2,3L2,2ZM4,1L4,3L7,3L7,2L5,2L5,1L4,1ZM11,2L8,2L8,3L11,3L11,2ZM3,1L2,1L2,2L3,2L3,1ZM14,1L13,1L13,2L14,2L14,1ZM16,1L15,1L15,2L16,2L16,1ZM7,0L5,0L5,1L7,1L7,0ZM9,0L8,0L8,1L9,1L9,0ZM12,0L10,0L10,1L12,1L12,0Z" style="fill:url(#_Linear6);"/>
                    </g>
                    <g transform="matrix(28.8125,0,0,28.8125,499,597.034)">
                        <path d="M15,12L14,12L14,13L15,13L15,12ZM13,12L11,12L11,13L13,13L13,12ZM1,10L0,10L0,11L1,11L1,10ZM8,10L6,10L6,11L8,11L8,10ZM6,7L5,7L5,8L6,8L6,7ZM4,7L2,7L2,8L4,8L4,7ZM12,5L11,5L11,6L12,6L12,5ZM14,5L13,5L13,6L14,6L14,5ZM8,2L7,2L7,3L8,3L8,2ZM4,2L2,2L2,3L4,3L4,2ZM13,1L11,1L11,2L13,2L13,1ZM10,0L9,0L9,1L10,1L10,0Z" style="fill:url(#_Linear7);"/>
                    </g>
                </g>
            </g>
            <g transform="matrix(0.0759219,-0.0438335,-3.76957e-18,0.0876671,-5.88503,6.53278)">
                <g opacity="0.75">
                    <g transform="matrix(115.25,0,0,461,499,597.034)">
                        <rect x="0" y="0" width="4" height="1" style="fill:url(#_Linear8);"/>
                    </g>
                    <g transform="matrix(28.8125,0,0,28.8125,499,597.034)">
                        <path d="M11,15L9,15L9,16L11,16L11,15ZM15,14L12,14L12,15L16,15L16,13L15,13L15,14ZM2,13L0,13L0,14L2,14L2,13ZM5,11L5,13L6,13L6,12L7,12L7,11L5,11ZM16,11L15,11L15,12L16,12L16,11ZM14,11L12,11L12,12L14,12L14,11ZM0,9L2,9L2,10L3,10L3,8L0,8L0,9ZM15,9L11,9L11,10L15,10L15,9ZM7,9L6,9L6,10L9,10L9,9L10,9L10,8L7,8L7,9ZM5,8L4,8L4,9L5,9L5,8ZM9,6L7,6L7,7L9,7L9,6ZM6,6L3,6L3,7L6,7L6,6ZM16,5L15,5L15,6L16,6L16,5ZM2,5L1,5L1,6L2,6L2,5ZM8,4L9,4L9,5L13,5L13,4L10,4L10,3L8,3L8,4ZM6,3L5,3L5,4L6,4L6,3ZM4,3L2,3L2,4L4,4L4,3ZM4,0L0,0L0,1L4,1L4,0Z" style="fill:url(#_Linear9);"/>
                    </g>
                    <g transform="matrix(28.8125,0,0,28.8125,499,597.034)">
                        <path d="M14,15L13,15L13,16L14,16L14,15ZM8,15L6,15L6,16L8,16L8,15ZM3,14L1,14L1,15L3,15L3,14ZM1,13L3,13L3,14L5,14L5,13L4,13L4,12L1,12L1,13ZM13,13L12,13L12,14L15,14L15,13L14,13L14,12L13,12L13,13ZM7,12L7,14L10,14L10,13L9,13L9,12L7,12ZM16,12L15,12L15,13L16,13L16,12ZM3,10L2,10L2,11L3,11L3,10ZM9,10L8,10L8,11L9,11L9,10ZM11,10L10,10L10,11L11,11L11,10ZM6,10L4,10L4,11L6,11L6,10ZM16,10L13,10L13,11L16,11L16,10ZM16,8L15,8L15,9L16,9L16,8ZM5,7L4,7L4,8L5,8L5,7ZM9,5L9,7L10,7L10,8L13,8L13,7L12,7L12,6L11,6L11,5L9,5ZM0,6L0,8L2,8L2,7L1,7L1,6L0,6ZM6,6L6,8L8,8L8,7L7,7L7,6L6,6ZM13,5L12,5L12,6L13,6L13,5ZM15,5L14,5L14,6L15,6L15,5ZM14,4L13,4L13,5L14,5L14,4ZM6,4L3,4L3,5L6,5L6,4ZM1,4L0,4L0,5L1,5L1,4ZM8,4L7,4L7,5L8,5L8,4ZM16,3L13,3L13,4L16,4L16,3ZM2,2L1,2L1,3L2,3L2,2ZM4,1L4,3L7,3L7,2L5,2L5,1L4,1ZM11,2L8,2L8,3L11,3L11,2ZM3,1L2,1L2,2L3,2L3,1ZM14,1L13,1L13,2L14,2L14,1ZM16,1L15,1L15,2L16,2L16,1ZM7,0L5,0L5,1L7,1L7,0ZM9,0L8,0L8,1L9,1L9,0ZM12,0L10,0L10,1L12,1L12,0Z" style="fill:url(#_Linear10);"/>
                    </g>
                    <g transform="matrix(28.8125,0,0,28.8125,499,597.034)">
                        <path d="M15,12L14,12L14,13L15,13L15,12ZM13,12L11,12L11,13L13,13L13,12ZM1,10L0,10L0,11L1,11L1,10ZM8,10L6,10L6,11L8,11L8,10ZM6,7L5,7L5,8L6,8L6,7ZM4,7L2,7L2,8L4,8L4,7ZM12,5L11,5L11,6L12,6L12,5ZM14,5L13,5L13,6L14,6L14,5ZM8,2L7,2L7,3L8,3L8,2ZM4,2L2,2L2,3L4,3L4,2ZM13,1L11,1L11,2L13,2L13,1ZM10,0L9,0L9,1L10,1L10,0Z" style="fill:url(#_Linear11);"/>
                    </g>
                </g>
            </g>
            <g transform="matrix(0.0759219,-0.0438335,0.0759219,0.0438335,-81.8829,9.99563)">
                <g transform="matrix(115.25,0,0,461,441.966,597.034)">
                    <rect x="0" y="0" width="4" height="1" style="fill:url(#_Linear12);"/>
                </g>
                <g transform="matrix(28.8125,0,0,28.8125,441.966,597.034)">
                    <path d="M11,15L9,15L9,16L11,16L11,15ZM15,14L12,14L12,15L16,15L16,13L15,13L15,14ZM2,13L0,13L0,14L2,14L2,13ZM5,11L5,13L6,13L6,12L7,12L7,11L5,11ZM16,11L15,11L15,12L16,12L16,11ZM14,11L12,11L12,12L14,12L14,11ZM0,9L2,9L2,10L3,10L3,8L0,8L0,9ZM15,9L11,9L11,10L15,10L15,9ZM7,9L6,9L6,10L9,10L9,9L10,9L10,8L7,8L7,9ZM5,8L4,8L4,9L5,9L5,8ZM9,6L7,6L7,7L9,7L9,6ZM6,6L3,6L3,7L6,7L6,6ZM16,5L15,5L15,6L16,6L16,5ZM2,5L1,5L1,6L2,6L2,5ZM8,4L9,4L9,5L13,5L13,4L10,4L10,3L8,3L8,4ZM6,3L5,3L5,4L6,4L6,3ZM4,3L2,3L2,4L4,4L4,3ZM4,0L0,0L0,1L4,1L4,0Z" style="fill:url(#_Linear13);"/>
                </g>
                <g transform="matrix(28.8125,0,0,28.8125,441.966,597.034)">
                    <path d="M14,15L13,15L13,16L14,16L14,15ZM8,15L6,15L6,16L8,16L8,15ZM3,14L1,14L1,15L3,15L3,14ZM1,13L3,13L3,14L5,14L5,13L4,13L4,12L1,12L1,13ZM13,13L12,13L12,14L15,14L15,13L14,13L14,12L13,12L13,13ZM7,12L7,14L10,14L10,13L9,13L9,12L7,12ZM16,12L15,12L15,13L16,13L16,12ZM3,10L2,10L2,11L3,11L3,10ZM9,10L8,10L8,11L9,11L9,10ZM11,10L10,10L10,11L11,11L11,10ZM6,10L4,10L4,11L6,11L6,10ZM16,10L13,10L13,11L16,11L16,10ZM16,8L15,8L15,9L16,9L16,8ZM5,7L4,7L4,8L5,8L5,7ZM9,5L9,7L10,7L10,8L13,8L13,7L12,7L12,6L11,6L11,5L9,5ZM0,6L0,8L2,8L2,7L1,7L1,6L0,6ZM6,6L6,8L8,8L8,7L7,7L7,6L6,6ZM13,5L12,5L12,6L13,6L13,5ZM15,5L14,5L14,6L15,6L15,5ZM14,4L13,4L13,5L14,5L14,4ZM6,4L3,4L3,5L6,5L6,4ZM1,4L0,4L0,5L1,5L1,4ZM8,4L7,4L7,5L8,5L8,4ZM16,3L13,3L13,4L16,4L16,3ZM2,2L1,2L1,3L2,3L2,2ZM4,1L4,3L7,3L7,2L5,2L5,1L4,1ZM11,2L8,2L8,3L11,3L11,2ZM3,1L2,1L2,2L3,2L3,1ZM14,1L13,1L13,2L14,2L14,1ZM16,1L15,1L15,2L16,2L16,1ZM7,0L5,0L5,1L7,1L7,0ZM9,0L8,0L8,1L9,1L9,0ZM12,0L10,0L10,1L12,1L12,0Z" style="fill:url(#_Linear14);"/>
                </g>
                <g transform="matrix(28.8125,0,0,28.8125,441.966,597.034)">
                    <path d="M15,12L14,12L14,13L15,13L15,12ZM13,12L11,12L11,13L13,13L13,12ZM1,10L0,10L0,11L1,11L1,10ZM8,10L6,10L6,11L8,11L8,10ZM6,7L5,7L5,8L6,8L6,7ZM4,7L2,7L2,8L4,8L4,7ZM12,5L11,5L11,6L12,6L12,5ZM14,5L13,5L13,6L14,6L14,5ZM8,2L7,2L7,3L8,3L8,2ZM4,2L2,2L2,3L4,3L4,2ZM13,1L11,1L11,2L13,2L13,1ZM10,0L9,0L9,1L10,1L10,0Z" style="fill:url(#_Linear15);"/>
                </g>
            </g>
        </g>
    </g>
    <g transform="matrix(20.2248,0,0,20.2248,1126.82,-874.486)">
        <path d="M-19.26,52.456L-16.746,52.456L-16.746,51.199L-23.032,51.199L-23.032,52.456L-20.517,52.456L-20.517,60L-19.26,60L-19.26,52.456Z" style="fill:rgb(238,238,238);fill-rule:nonzero;"/>
        <path d="M-10.472,53.713L-14.243,53.713L-14.243,51.199L-15.501,51.199L-15.501,60L-14.243,60L-14.243,54.971L-10.472,54.971L-10.472,53.713ZM-10.472,54.971L-10.472,60L-9.214,60L-9.214,54.971L-10.472,54.971Z" style="fill:rgb(238,238,238);fill-rule:nonzero;"/>
        <path d="M-6.7,60L-1.67,60L-1.67,58.743L-6.7,58.743L-6.7,60ZM-2.928,56.228L-6.7,56.228L-6.7,54.971L-7.957,54.971L-7.957,58.743L-6.7,58.743L-6.7,57.485L-1.67,57.485L-1.67,54.971L-2.928,54.971L-2.928,53.713L-6.7,53.713L-6.7,54.971L-2.928,54.971L-2.928,56.228Z" style="fill:rgb(238,238,238);fill-rule:nonzero;"/>
        <path d="M7.131,53.713L3.359,53.713L3.359,60L4.616,60L4.616,54.971L7.131,54.971L7.131,53.713ZM7.131,54.971L7.131,60L8.388,60L8.388,54.971L7.131,54.971ZM10.902,54.971L10.902,60L12.16,60L12.16,54.971L10.902,54.971ZM10.902,53.713L8.388,53.713L8.388,54.971L10.902,54.971L10.902,53.713Z" style="fill:rgb(238,238,238);fill-rule:nonzero;"/>
        <path d="M14.662,60L19.691,60L19.691,54.971L18.434,54.971L18.434,58.743L14.662,58.743L14.662,60ZM14.662,58.743L14.662,54.971L13.405,54.971L13.405,58.743L14.662,58.743ZM18.434,53.713L14.662,53.713L14.662,54.971L18.434,54.971L18.434,53.713Z" style="fill:rgb(238,238,238);fill-rule:nonzero;"/>
        <path d="M20.948,60L24.72,60L24.72,58.743L23.463,58.743L23.463,53.714L20.948,53.714L20.948,54.971L22.206,54.971L22.206,58.743L20.948,58.743L20.948,60ZM23.463,51.199L22.206,51.199L22.206,52.456L23.463,52.456L23.463,51.199Z" style="fill:rgb(238,238,238);fill-rule:nonzero;"/>
        <path d="M32.264,60L32.264,54.971L31.006,54.971L31.006,60L32.264,60ZM27.235,60L27.235,54.971L31.006,54.971L31.006,53.713L25.978,53.713L25.978,60L27.235,60Z" style="fill:rgb(238,238,238);fill-rule:nonzero;"/>
        <path d="M38.538,60L43.567,60L43.567,54.971L42.31,54.971L42.31,58.743L38.538,58.743L38.538,60ZM38.538,58.743L38.538,54.971L37.281,54.971L37.281,58.743L38.538,58.743ZM42.31,53.713L38.538,53.713L38.538,54.971L42.31,54.971L42.31,53.713Z" style="fill:rgb(238,238,238);fill-rule:nonzero;"/>
        <path d="M46.082,53.713L46.082,51.199L44.824,51.199L44.824,58.743L46.082,58.743L46.069,60L48.596,60L48.596,58.743L46.082,58.743L46.082,54.971L48.596,54.971L48.596,53.713L46.082,53.713Z" style="fill:rgb(238,238,238);fill-rule:nonzero;"/>
        <path d="M51.099,53.713L51.099,51.199L49.841,51.199L49.841,58.743L51.099,58.743L51.085,60L53.612,60L53.612,58.743L51.099,58.743L51.099,54.971L53.612,54.971L53.612,53.713L51.099,53.713Z" style="fill:rgb(238,238,238);fill-rule:nonzero;"/>
        <path d="M59.886,53.713L54.858,53.713L54.858,60L56.115,60L56.115,54.971L59.886,54.971L59.886,53.713Z" style="fill:rgb(238,238,238);fill-rule:nonzero;"/>
        <path d="M62.389,60L67.418,60L67.418,54.971L66.161,54.971L66.161,58.743L62.389,58.743L62.389,60ZM62.389,58.743L62.389,54.971L61.132,54.971L61.132,58.743L62.389,58.743ZM66.161,53.713L62.389,53.713L62.389,54.971L66.161,54.971L66.161,53.713Z" style="fill:rgb(238,238,238);fill-rule:nonzero;"/>
        <path d="M69.933,60L73.705,60L73.705,58.743L74.962,58.743L74.962,57.485L73.705,57.485L73.705,58.743L69.933,58.743L69.933,60ZM68.675,54.971L68.675,58.743L69.933,58.743L69.933,54.971L68.675,54.971ZM73.705,54.971L73.705,53.713L69.933,53.713L69.933,54.971L73.705,54.971L73.705,56.228L74.962,56.228L74.962,54.971L73.705,54.971Z" style="fill:rgb(238,238,238);fill-rule:nonzero;"/>
        <path d="M77.477,53.713L77.477,51.199L76.219,51.199L76.219,58.743L77.477,58.743L77.463,60L79.991,60L79.991,58.743L77.477,58.743L77.477,54.971L79.991,54.971L79.991,53.713L77.477,53.713Z" style="fill:rgb(238,238,238);fill-rule:nonzero;"/>
        <path d="M81.236,60L85.008,60L85.008,58.743L83.75,58.743L83.75,53.714L81.236,53.714L81.236,54.971L82.493,54.971L82.493,58.743L81.236,58.743L81.236,60ZM83.75,51.199L82.493,51.199L82.493,52.456L83.75,52.456L83.75,51.199Z" style="fill:rgb(238,238,238);fill-rule:nonzero;"/>
        <path d="M91.294,53.713L87.523,53.713L87.523,54.971L91.294,54.971L91.294,58.743L87.523,58.743L87.523,60L91.294,60L91.294,58.743L92.551,58.743L92.551,54.971L91.294,54.971L91.294,53.713ZM86.265,54.971L86.265,58.743L87.523,58.743L87.523,54.971L86.265,54.971Z" style="fill:rgb(238,238,238);fill-rule:nonzero;"/>
        <path d="M100.082,60L100.082,54.971L98.825,54.971L98.825,60L100.082,60ZM95.054,60L95.054,54.971L98.825,54.971L98.825,53.713L93.796,53.713L93.796,60L95.054,60Z" style="fill:rgb(238,238,238);fill-rule:nonzero;"/>
    </g>
    <defs>
        <linearGradient id="_Linear2" x1="0" y1="0" x2="1" y2="0" gradientUnits="userSpaceOnUse" gradientTransform="matrix(-3.93524e-13,-10.9586,10.9586,-3.93524e-13,2274,1054.92)"><stop offset="0" style="stop-color:rgb(221,153,34);stop-opacity:1"/><stop offset="1" style="stop-color:rgb(153,102,0);stop-opacity:1"/></linearGradient>
        <linearGradient id="_Linear3" x1="0" y1="0" x2="1" y2="0" gradientUnits="userSpaceOnUse" gradientTransform="matrix(64,64,-64,64,0,0)"><stop offset="0" style="stop-color:rgb(238,238,238);stop-opacity:0.11"/><stop offset="1" style="stop-color:rgb(17,17,17);stop-opacity:0"/></linearGradient>
        <linearGradient id="_Linear4" x1="0" y1="0" x2="1" y2="0" gradientUnits="userSpaceOnUse" gradientTransform="matrix(2.08384e-17,0.247436,-1.14286,0.142857,4,-0.247436)"><stop offset="0" style="stop-color:rgb(127,127,127);stop-opacity:1"/><stop offset="1" style="stop-color:rgb(127,127,127);stop-opacity:0"/></linearGradient>
        <linearGradient id="_Linear5" x1="0" y1="0" x2="1" y2="0" gradientUnits="userSpaceOnUse" gradientTransform="matrix(8.33535e-17,3.95897,-4.57143,2.28571,16,-3.95897)"><stop offset="0" style="stop-color:rgb(143,143,143);stop-opacity:1"/><stop offset="1" style="stop-color:rgb(143,143,143);stop-opacity:0"/></linearGradient>
        <linearGradient id="_Linear6" x1="0" y1="0" x2="1" y2="0" gradientUnits="userSpaceOnUse" gradientTransform="matrix(8.33535e-17,3.95897,-4.57143,2.28571,16,-3.95897)"><stop offset="0" style="stop-color:rgb(116,116,116);stop-opacity:1"/><stop offset="1" style="stop-color:rgb(116,116,116);stop-opacity:0"/></linearGradient>
        <linearGradient id="_Linear7" x1="0" y1="0" x2="1" y2="0" gradientUnits="userSpaceOnUse" gradientTransform="matrix(8.33535e-17,3.95897,-4.57143,2.28571,16,-3.95897)"><stop offset="0" style="stop-color:rgb(104,104,104);stop-opacity:1"/><stop offset="1" style="stop-color:rgb(104,104,104);stop-opacity:0"/></linearGradient>
        <linearGradient id="_Linear8" x1="0" y1="0" x2="1" y2="0" gradientUnits="userSpaceOnUse" gradientTransform="matrix(1.19121e-16,0.247436,-1.14286,-0.142857,-1.77636e-15,-0.247436)"><stop offset="0" style="stop-color:rgb(127,127,127);stop-opacity:1"/><stop offset="1" style="stop-color:rgb(127,127,127);stop-opacity:0"/></linearGradient>
        <linearGradient id="_Linear9" x1="0" y1="0" x2="1" y2="0" gradientUnits="userSpaceOnUse" gradientTransform="matrix(4.76485e-16,3.95897,-4.57143,-2.28571,-7.10543e-15,-3.95897)"><stop offset="0" style="stop-color:rgb(143,143,143);stop-opacity:1"/><stop offset="1" style="stop-color:rgb(143,143,143);stop-opacity:0"/></linearGradient>
        <linearGradient id="_Linear10" x1="0" y1="0" x2="1" y2="0" gradientUnits="userSpaceOnUse" gradientTransform="matrix(4.76485e-16,3.95897,-4.57143,-2.28571,-7.10543e-15,-3.95897)"><stop offset="0" style="stop-color:rgb(116,116,116);stop-opacity:1"/><stop offset="1" style="stop-color:rgb(116,116,116);stop-opacity:0"/></linearGradient>
        <linearGradient id="_Linear11" x1="0" y1="0" x2="1" y2="0" gradientUnits="userSpaceOnUse" gradientTransform="matrix(4.76485e-16,3.95897,-4.57143,-2.28571,-7.10543e-15,-3.95897)"><stop offset="0" style="stop-color:rgb(104,104,104);stop-opacity:1"/><stop offset="1" style="stop-color:rgb(104,104,104);stop-opacity:0"/></linearGradient>
        <linearGradient id="_Linear12" x1="0" y1="0" x2="1" y2="0" gradientUnits="userSpaceOnUse" gradientTransform="matrix(-0.989743,0.247436,-0.571429,-0.142857,0.989743,0.752564)"><stop offset="0" style="stop-color:rgb(127,127,127);stop-opacity:1"/><stop offset="1" style="stop-color:rgb(127,127,127);stop-opacity:0"/></linearGradient>
        <linearGradient id="_Linear13" x1="0" y1="0" x2="1" y2="0" gradientUnits="userSpaceOnUse" gradientTransform="matrix(-3.95897,3.95897,-2.28571,-2.28571,3.95897,12.041)"><stop offset="0" style="stop-color:rgb(143,143,143);stop-opacity:1"/><stop offset="1" style="stop-color:rgb(143,143,143);stop-opacity:0"/></linearGradient>
        <linearGradient id="_Linear14" x1="0" y1="0" x2="1" y2="0" gradientUnits="userSpaceOnUse" gradientTransform="matrix(-3.95897,3.95897,-2.28571,-2.28571,3.95897,12.041)"><stop offset="0" style="stop-color:rgb(116,116,116);stop-opacity:1"/><stop offset="1" style="stop-color:rgb(116,116,116);stop-opacity:0"/></linearGradient>
        <linearGradient id="_Linear15" x1="0" y1="0" x2="1" y2="0" gradientUnits="userSpaceOnUse" gradientTransform="matrix(-3.95897,3.95897,-2.28571,-2.28571,3.95897,12.041)"><stop offset="0" style="stop-color:rgb(104,104,104);stop-opacity:1"/><stop offset="1" style="stop-color:rgb(104,104,104);stop-opacity:0"/></linearGradient>
    </defs>
</svg>
