<svg viewBox="0 0 2000 500" xmlns="http://www.w3.org/2000/svg" xml:space="preserve" style="fill-rule:evenodd;clip-rule:evenodd;stroke-linejoin:round;stroke-miterlimit:2"><g transform="scale(7.8125)"><path d="M0 0h64v64H0z"/><clipPath id="a"><path d="M0 0h64v64H0z"/></clipPath><g clip-path="url(#a)"><g opacity=".25"><path style="fill:#7f7f7f;fill-opacity:.5" d="M0 0h4v1H0z" transform="matrix(21.5 12.413 0 99.3042 -54 -18)"/><path style="fill:#7f7f7f;fill-opacity:.75" d="M0 0h4v1H0z" transform="matrix(21.5 -12.413 0 99.3042 32 31.652)"/><path style="fill:#7f7f7f" d="M0 0h4v1H0z" transform="matrix(21.5 -12.413 86 49.6521 -54 -17.652)"/></g><path style="fill:#eee" d="M39 29h2v6h-2z"/><path d="M25 27h-6v10h6v-2h-4v-6h4v-2Z" style="fill:#d92"/><path d="M43 27v10h-4v2h4v-2h2V27h-2Zm0-2h-4v2h4v-2Z" style="fill:#eee"/><path d="M27 23v2h-2v14h2v2h2v2h2v2h6V19h-6v2h-2v2h-2Zm0 14V27h2v-2h2v-2h2v-2h2v22h-2v-2h-2v-2h-2v-2h-2Z" style="fill:#fb2"/><path d="M64 0H0v64h64V0Zm-1.633 1.633v60.734H1.633V1.633h60.734Z" style="fill:url(#b)"/></g></g><g opacity=".25"><path style="fill:url(#c)" d="M0 0h4v1H0z" transform="matrix(187.5 108.2529 0 866.02498 500 -185.889)"/><path style="fill:url(#d)" d="M0 0h4v1H0z" transform="matrix(187.5 -108.2529 0 866.02498 1250 247.124)"/><path style="fill:url(#e)" d="M0 0h4v1H0z" transform="matrix(187.5 -108.2529 749.99998 433.01249 500 -185.889)"/></g><path d="M30.286 32v17h3.428V32h-3.428Z" style="fill:url(#f)" transform="matrix(7.41667 0 0 10.4706 512.667 -174.059)"/><path d="M30.286 32v17h3.428V32h-3.428Z" style="fill:#fb2" transform="matrix(0 -7.41667 10.4706 0 325.941 487.333)"/><path d="M-18.003 58.743h-5.029V60h5.029v-1.257Zm1.257 0v-2.515h-1.257v2.515h1.257Zm-5.028-2.515h3.771v-1.257h-3.771v1.257Zm0-1.257v-2.515h-1.258v2.515h1.258Zm5.028-3.772h-5.028v1.257h5.028v-1.257Zm6.274 2.514h-3.771v1.258h3.771v3.772h-3.771V60h3.771v-1.257h1.257v-3.772h-1.257v-1.258Zm-5.029 1.258v3.772h1.258v-3.772h-1.258ZM-1.683 60v-6.287h-1.258v5.03h-3.771V60h5.029Zm-5.029-1.257v-5.03h-1.257v5.03h1.257ZM5.848 60v-5.029H4.59V60h1.258ZM.819 60v-5.029H4.59v-1.258H-.438V60H.819Zm7.531 0h5.029v-8.801h-1.257v2.514H8.35v1.258h3.772v3.772H8.35V60Zm-1.257-5.029v3.772H8.35v-3.772H7.093Zm12.572 3.772h-5.028V60h5.028v-1.257h1.258v-1.258h-1.258v1.258Zm0-2.515h-3.771v1.257h3.771v-1.257Zm-3.771-1.257h-1.257v1.257h1.257v-1.257Zm5.029-1.258h-5.029v1.258h5.029v-1.258Z" style="fill:#eee;fill-rule:nonzero" transform="matrix(20.2435 0 0 20.2248 1356.1 -874.486)"/><defs><linearGradient id="b" x1="0" y1="0" x2="1" y2="0" gradientUnits="userSpaceOnUse" gradientTransform="matrix(64 64 -64 64 0 0)"><stop offset="0" style="stop-color:#eee;stop-opacity:.11"/><stop offset="1" style="stop-color:#111;stop-opacity:0"/></linearGradient><linearGradient id="c" x1="0" y1="0" x2="1" y2="0" gradientUnits="userSpaceOnUse" gradientTransform="matrix(0 .57735 -2.66667 .33333 4 -.285)"><stop offset="0" style="stop-color:#7f7f7f;stop-opacity:.5"/><stop offset="1" style="stop-color:#7f7f7f;stop-opacity:0"/></linearGradient><linearGradient id="d" x1="0" y1="0" x2="1" y2="0" gradientUnits="userSpaceOnUse" gradientTransform="matrix(0 .57735 -2.66667 -.33333 0 -.285)"><stop offset="0" style="stop-color:#7f7f7f;stop-opacity:.75"/><stop offset="1" style="stop-color:#7f7f7f;stop-opacity:0"/></linearGradient><linearGradient id="e" x1="0" y1="0" x2="1" y2="0" gradientUnits="userSpaceOnUse" gradientTransform="matrix(-2.3094 .57735 -1.33333 -.33333 1.141 .715)"><stop offset="0" style="stop-color:#7f7f7f;stop-opacity:1"/><stop offset="1" style="stop-color:#7f7f7f;stop-opacity:0"/></linearGradient><linearGradient id="f" x1="0" y1="0" x2="1" y2="0" gradientUnits="userSpaceOnUse" gradientTransform="matrix(0 -17 24 0 32 49)"><stop offset="0" style="stop-color:#d92;stop-opacity:1"/><stop offset="1" style="stop-color:#960;stop-opacity:1"/></linearGradient></defs></svg>