<?xml version="1.0" encoding="UTF-8" standalone="no"?>
<!DOCTYPE svg PUBLIC "-//W3C//DTD SVG 1.1//EN" "http://www.w3.org/Graphics/SVG/1.1/DTD/svg11.dtd">
<svg width="100%" height="100%" viewBox="0 0 1000 500" version="1.1" xmlns="http://www.w3.org/2000/svg" xmlns:xlink="http://www.w3.org/1999/xlink" xml:space="preserve" xmlns:serif="http://www.serif.com/" style="fill-rule:evenodd;clip-rule:evenodd;stroke-linecap:round;stroke-miterlimit:1.5;">
    <g transform="matrix(3.28009,0,0,0.799452,-2648.88,-101.031)">
        <path d="M1112.43,726.435L807.565,726.435L836.006,421.565L1112.43,421.565L1112.43,726.435Z" style="fill:url(#_Radial1);"/>
        <path d="M1112.43,726.435L807.565,726.435L836.006,421.565L1112.43,421.565L1112.43,726.435ZM1111.83,723.933L808.451,723.933C808.451,723.933 836.425,424.067 836.425,424.067C836.425,424.067 1097.52,424.067 1111.83,424.067C1111.83,453.04 1111.83,723.933 1111.83,723.933L1111.83,723.933Z" style="fill:url(#_Radial2);"/>
    </g>
    <g transform="matrix(1.75603,0.169393,-5.93938e-33,1.92744,-1487.96,-1054.75)">
        <g transform="matrix(1.03174,0,0.263872,0.844887,-153.784,87.3286)">
            <rect x="1173" y="563" width="104" height="78.792" style="fill:url(#_Linear3);"/>
        </g>
        <g transform="matrix(1.22115,0,-0.312316,1,-71.2757,0)">
            <rect x="1173" y="563" width="104" height="78.792" style="fill:url(#_Linear4);"/>
            <g transform="matrix(0.715924,9.93544e-18,2.48719e-17,0.95711,336.336,24.0724)">
                <path d="M1206.75,624.241L1206.75,616.953L1187.41,616.953L1187.41,611.235L1205.8,585L1213.93,585L1213.93,610.731L1219.08,610.731L1219.08,616.953L1213.93,616.953L1213.93,624.241L1206.75,624.241ZM1195.09,610.731L1207.2,610.731L1207.2,592.904L1195.09,610.731Z" style="fill:rgb(17,18,18);fill-rule:nonzero;"/>
                <path d="M1240.83,624.913C1237.21,624.913 1234.11,624.063 1231.53,622.363C1228.95,620.662 1226.96,618.289 1225.56,615.243C1224.16,612.197 1223.46,608.656 1223.46,604.62C1223.46,600.621 1224.16,597.09 1225.56,594.025C1226.96,590.961 1228.95,588.578 1231.53,586.878C1234.11,585.178 1237.21,584.327 1240.83,584.327C1244.46,584.327 1247.56,585.178 1250.14,586.878C1252.72,588.578 1254.71,590.961 1256.11,594.025C1257.51,597.09 1258.21,600.621 1258.21,604.62C1258.21,608.656 1257.51,612.197 1256.11,615.243C1254.71,618.289 1252.72,620.662 1250.14,622.363C1247.56,624.063 1244.46,624.913 1240.83,624.913ZM1240.83,618.467C1243.79,618.467 1246.2,617.233 1248.07,614.767C1249.93,612.3 1250.87,608.918 1250.87,604.62C1250.87,600.322 1249.93,596.94 1248.07,594.474C1246.2,592.007 1243.79,590.774 1240.83,590.774C1237.84,590.774 1235.42,592.007 1233.57,594.474C1231.72,596.94 1230.8,600.322 1230.8,604.62C1230.8,608.918 1231.72,612.3 1233.57,614.767C1235.42,617.233 1237.84,618.467 1240.83,618.467Z" style="fill:rgb(17,18,18);fill-rule:nonzero;"/>
                <path d="M1282.49,624.241L1282.49,616.953L1263.14,616.953L1263.14,611.235L1281.53,585L1289.66,585L1289.66,610.731L1294.82,610.731L1294.82,616.953L1289.66,616.953L1289.66,624.241L1282.49,624.241ZM1270.83,610.731L1282.93,610.731L1282.93,592.904L1270.83,610.731Z" style="fill:rgb(17,18,18);fill-rule:nonzero;"/>
            </g>
            <path d="M1277,563L1173,563L1173,641.792L1277,641.792L1277,563ZM1276.06,564.042L1276.06,640.749C1276.06,640.749 1185.12,640.749 1173.94,640.749C1173.94,640.749 1173.94,564.042 1173.94,564.042L1276.06,564.042Z" style="fill:url(#_Radial5);"/>
        </g>
    </g>
    <g transform="matrix(1.32275,0,0,1.32275,-1734.13,-472.662)">
        <g transform="matrix(1.05139,0,0,0.970622,-63.1318,12.3618)">
            <ellipse cx="1516.5" cy="618.789" rx="117.5" ry="38.789" style="fill:url(#_Linear6);"/>
            <path d="M1516.5,580C1581.35,580 1634,597.381 1634,618.789C1634,640.197 1581.35,657.578 1516.5,657.578C1451.65,657.578 1399,640.197 1399,618.789C1399,597.381 1451.65,580 1516.5,580ZM1516.5,581.558C1561.57,581.558 1600.72,589.948 1620.15,602.313C1627.97,607.292 1632.56,612.797 1632.56,618.789C1632.56,624.781 1627.97,630.286 1620.15,635.265C1600.72,647.63 1561.57,656.02 1516.5,656.02C1471.43,656.02 1432.28,647.63 1412.85,635.265C1405.03,630.286 1400.44,624.781 1400.44,618.789C1400.44,612.797 1405.03,607.292 1412.85,602.313C1432.28,589.948 1471.43,581.558 1516.5,581.558Z" style="fill:url(#_Radial7);"/>
        </g>
        <g transform="matrix(0.734711,0,0,0.678269,452.892,219.575)">
            <ellipse cx="1516.5" cy="618.789" rx="117.5" ry="38.789" style="fill:url(#_Linear8);"/>
            <path d="M1516.5,580C1581.35,580 1634,597.381 1634,618.789C1634,640.197 1581.35,657.578 1516.5,657.578C1451.65,657.578 1399,640.197 1399,618.789C1399,597.381 1451.65,580 1516.5,580ZM1516.5,582.229C1561.43,582.229 1600.47,590.565 1619.83,602.891C1627.41,607.717 1631.94,612.982 1631.94,618.789C1631.94,624.595 1627.41,629.861 1619.83,634.686C1600.47,647.013 1561.43,655.348 1516.5,655.348C1471.57,655.348 1432.53,647.013 1413.17,634.686C1405.59,629.861 1401.06,624.595 1401.06,618.789C1401.06,612.982 1405.59,607.717 1413.17,602.891C1432.53,590.565 1471.57,582.229 1516.5,582.229Z" style="fill:url(#_Radial9);"/>
        </g>
        <g transform="matrix(0.0939541,0,0,0.12548,1467.68,493.825)">
            <ellipse cx="1516.5" cy="618.789" rx="117.5" ry="38.789" style="fill:url(#_Linear10);"/>
            <path d="M1516.5,580C1581.35,580 1634,597.381 1634,618.789C1634,640.197 1581.35,657.578 1516.5,657.578C1451.65,657.578 1399,640.197 1399,618.789C1399,597.381 1451.65,580 1516.5,580ZM1516.5,592.05C1551.97,592.05 1583.53,597.436 1603.02,606.214C1611.43,609.997 1617.91,613.742 1617.91,618.789C1617.91,623.835 1611.43,627.581 1603.02,631.364C1583.53,640.142 1551.97,645.528 1516.5,645.528C1481.03,645.528 1449.47,640.142 1429.98,631.364C1421.57,627.581 1415.09,623.835 1415.09,618.789C1415.09,613.742 1421.57,609.997 1429.98,606.214C1449.47,597.436 1481.03,592.05 1516.5,592.05Z" style="fill:url(#_Radial11);"/>
        </g>
        <g transform="matrix(0.161064,0,0,0.215108,1435.82,498.839)">
            <ellipse cx="1516.5" cy="618.789" rx="117.5" ry="38.789" style="fill:url(#_Linear12);"/>
            <path d="M1516.5,580C1581.35,580 1634,597.381 1634,618.789C1634,640.197 1581.35,657.578 1516.5,657.578C1451.65,657.578 1399,640.197 1399,618.789C1399,597.381 1451.65,580 1516.5,580ZM1516.5,587.029C1553.4,587.029 1586.19,592.778 1606.48,601.911C1617.31,606.788 1624.61,612.283 1624.61,618.789C1624.61,625.294 1617.31,630.79 1606.48,635.667C1586.19,644.8 1553.4,650.549 1516.5,650.549C1479.6,650.549 1446.81,644.8 1426.52,635.667C1415.69,630.79 1408.39,625.294 1408.39,618.789C1408.39,612.283 1415.69,606.788 1426.52,601.911C1446.81,592.778 1479.6,587.029 1516.5,587.029Z" style="fill:url(#_Radial13);"/>
        </g>
        <g transform="matrix(0.104786,0,0,0.139946,1309.53,578.993)">
            <ellipse cx="1516.5" cy="618.789" rx="117.5" ry="38.789" style="fill:url(#_Linear14);"/>
            <path d="M1516.5,580C1581.35,580 1634,597.381 1634,618.789C1634,640.197 1581.35,657.578 1516.5,657.578C1451.65,657.578 1399,640.197 1399,618.789C1399,597.381 1451.65,580 1516.5,580ZM1516.5,590.804C1552.32,590.804 1584.19,596.28 1603.88,605.146C1612.88,609.2 1619.57,613.382 1619.57,618.789C1619.57,624.196 1612.88,628.378 1603.88,632.432C1584.19,641.298 1552.32,646.773 1516.5,646.773C1480.68,646.773 1448.81,641.298 1429.12,632.432C1420.12,628.378 1413.43,624.196 1413.43,618.789C1413.43,613.382 1420.12,609.2 1429.12,605.146C1448.81,596.28 1480.68,590.804 1516.5,590.804Z" style="fill:url(#_Radial15);"/>
        </g>
        <g transform="matrix(1.05139,0,0,1.05139,-87.3138,-70.8685)">
            <path d="M1568.51,654.726C1573.88,653.864 1578.41,650.265 1580.46,645.231C1583.92,636.873 1585.71,627.891 1585.71,618.789C1585.71,580.59 1554.7,549.578 1516.5,549.578C1478.3,549.578 1447.29,580.59 1447.29,618.789C1447.29,627.908 1449.09,636.906 1452.56,645.277C1454.61,650.287 1459.11,653.874 1464.45,654.751C1499.14,660.284 1533.82,660.146 1568.51,654.726Z" style="fill:url(#_Linear16);"/>
            <path d="M1568.51,654.726C1573.88,653.864 1578.41,650.265 1580.46,645.231C1583.92,636.873 1585.71,627.891 1585.71,618.789C1585.71,580.59 1554.7,549.578 1516.5,549.578C1478.3,549.578 1447.29,580.59 1447.29,618.789C1447.29,627.908 1449.09,636.906 1452.56,645.277C1454.61,650.287 1459.11,653.874 1464.45,654.751C1499.14,660.284 1533.82,660.146 1568.51,654.726ZM1568.28,653.306C1533.75,658.701 1499.22,658.84 1464.68,653.332C1459.84,652.534 1455.75,649.279 1453.89,644.732C1453.89,644.73 1453.89,644.728 1453.89,644.727C1450.49,636.53 1448.73,627.718 1448.73,618.789C1448.73,581.384 1479.1,551.016 1516.5,551.016C1553.9,551.016 1584.27,581.384 1584.27,618.789C1584.27,627.702 1582.52,636.497 1579.13,644.682C1579.13,644.683 1579.13,644.685 1579.13,644.687C1577.27,649.256 1573.15,652.522 1568.28,653.306L1568.28,653.306Z" style="fill:url(#_Radial17);"/>
        </g>
        <g transform="matrix(1.05139,5.83639e-17,0,1.05139,-91.5193,-34.4845)">
            <circle cx="1554.43" cy="564.447" r="2.433" style="fill:rgb(226,40,95);"/>
        </g>
        <g transform="matrix(1.05139,5.83639e-17,0,1.05139,-81.0207,-23.9858)">
            <circle cx="1554.43" cy="564.447" r="2.433" style="fill:rgb(226,40,95);"/>
        </g>
        <g transform="matrix(1.05139,5.83639e-17,0,1.05139,-78.4627,-37.0425)">
            <circle cx="1554.43" cy="564.447" r="2.433" style="fill:rgb(226,40,95);"/>
        </g>
        <g transform="matrix(1.01557,-0.27212,0.27212,1.01557,-155.833,384.72)">
            <g transform="matrix(0.891763,0,-4.95028e-17,1.32533,261.888,-324.73)">
                <path d="M1359.4,526.771C1360.26,525.066 1362.63,523.918 1365.3,523.918C1367.98,523.918 1370.35,525.066 1371.2,526.771C1388.29,560.943 1436.61,657.578 1436.61,657.578L1294,657.578C1294,657.578 1342.32,560.943 1359.4,526.771Z" style="fill:url(#_Linear18);"/>
                <clipPath id="_clip19">
                    <path d="M1359.4,526.771C1360.26,525.066 1362.63,523.918 1365.3,523.918C1367.98,523.918 1370.35,525.066 1371.2,526.771C1388.29,560.943 1436.61,657.578 1436.61,657.578L1294,657.578C1294,657.578 1342.32,560.943 1359.4,526.771Z"/>
                </clipPath>
                <g clip-path="url(#_clip19)">
                    <g transform="matrix(0.322791,0.217193,-0.322791,0.217193,1044.51,257.748)">
                        <rect x="1285" y="487" width="27.972" height="27.972" style="fill:none;stroke:url(#_Linear20);stroke-width:4.71px;"/>
                    </g>
                    <g transform="matrix(0.322791,0.217193,-0.322791,0.217193,1044.51,245.597)">
                        <rect x="1285" y="487" width="27.972" height="27.972" style="fill:none;stroke:url(#_Linear21);stroke-width:4.71px;"/>
                    </g>
                    <g transform="matrix(0.322791,0.217193,-0.322791,0.217193,1062.57,257.748)">
                        <rect x="1285" y="487" width="27.972" height="27.972" style="fill:none;stroke:url(#_Linear22);stroke-width:4.71px;"/>
                    </g>
                    <g transform="matrix(0.322791,0.217193,-0.322791,0.217193,1062.57,245.597)">
                        <rect x="1285" y="487" width="27.972" height="27.972" style="fill:none;stroke:url(#_Linear23);stroke-width:4.71px;"/>
                    </g>
                    <g transform="matrix(0.322791,0.217193,-0.322791,0.217193,1062.57,233.446)">
                        <rect x="1285" y="487" width="27.972" height="27.972" style="fill:none;stroke:url(#_Linear24);stroke-width:4.71px;"/>
                    </g>
                    <g transform="matrix(0.322791,0.217193,-0.322791,0.217193,1062.57,221.296)">
                        <rect x="1285" y="487" width="27.972" height="27.972" style="fill:none;stroke:url(#_Linear25);stroke-width:4.71px;"/>
                    </g>
                    <g transform="matrix(0.322791,0.217193,-0.322791,0.217193,1062.57,209.145)">
                        <rect x="1285" y="487" width="27.972" height="27.972" style="fill:none;stroke:url(#_Linear26);stroke-width:4.71px;"/>
                    </g>
                    <g transform="matrix(0.322791,0.217193,-0.322791,0.217193,1080.63,257.748)">
                        <rect x="1285" y="487" width="27.972" height="27.972" style="fill:none;stroke:url(#_Linear27);stroke-width:4.71px;"/>
                    </g>
                    <g transform="matrix(0.322791,0.217193,-0.322791,0.217193,1080.63,245.597)">
                        <rect x="1285" y="487" width="27.972" height="27.972" style="fill:none;stroke:url(#_Linear28);stroke-width:4.71px;"/>
                    </g>
                    <g transform="matrix(0.322791,0.217193,-0.322791,0.217193,1080.63,233.446)">
                        <rect x="1285" y="487" width="27.972" height="27.972" style="fill:none;stroke:url(#_Linear29);stroke-width:4.71px;"/>
                    </g>
                    <g transform="matrix(0.322791,0.217193,-0.322791,0.217193,1080.63,221.296)">
                        <rect x="1285" y="487" width="27.972" height="27.972" style="fill:none;stroke:url(#_Linear30);stroke-width:4.71px;"/>
                    </g>
                    <g transform="matrix(0.322791,0.217193,-0.322791,0.217193,1080.63,209.145)">
                        <rect x="1285" y="487" width="27.972" height="27.972" style="fill:none;stroke:url(#_Linear31);stroke-width:4.71px;"/>
                    </g>
                    <g transform="matrix(0.322791,0.217193,-0.322791,0.217193,1080.63,196.994)">
                        <rect x="1285" y="487" width="27.972" height="27.972" style="fill:none;stroke:url(#_Linear32);stroke-width:4.71px;"/>
                    </g>
                    <g transform="matrix(0.322791,0.217193,-0.322791,0.217193,1080.63,184.844)">
                        <rect x="1285" y="487" width="27.972" height="27.972" style="fill:none;stroke:url(#_Linear33);stroke-width:4.71px;"/>
                    </g>
                    <g transform="matrix(0.322791,0.217193,-0.322791,0.217193,1080.63,172.693)">
                        <rect x="1285" y="487" width="27.972" height="27.972" style="fill:none;stroke:url(#_Linear34);stroke-width:4.71px;"/>
                    </g>
                    <g transform="matrix(0.322791,0.217193,-0.322791,0.217193,1098.69,257.748)">
                        <rect x="1285" y="487" width="27.972" height="27.972" style="fill:none;stroke:url(#_Linear35);stroke-width:4.71px;"/>
                    </g>
                    <g transform="matrix(0.322791,0.217193,-0.322791,0.217193,1098.69,245.597)">
                        <rect x="1285" y="487" width="27.972" height="27.972" style="fill:none;stroke:url(#_Linear36);stroke-width:4.71px;"/>
                    </g>
                    <g transform="matrix(0.322791,0.217193,-0.322791,0.217193,1098.69,233.446)">
                        <rect x="1285" y="487" width="27.972" height="27.972" style="fill:none;stroke:url(#_Linear37);stroke-width:4.71px;"/>
                    </g>
                    <g transform="matrix(0.322791,0.217193,-0.322791,0.217193,1098.69,221.296)">
                        <rect x="1285" y="487" width="27.972" height="27.972" style="fill:none;stroke:url(#_Linear38);stroke-width:4.71px;"/>
                    </g>
                    <g transform="matrix(0.322791,0.217193,-0.322791,0.217193,1098.69,209.145)">
                        <rect x="1285" y="487" width="27.972" height="27.972" style="fill:none;stroke:url(#_Linear39);stroke-width:4.71px;"/>
                    </g>
                    <g transform="matrix(0.322791,0.217193,-0.322791,0.217193,1098.69,196.994)">
                        <rect x="1285" y="487" width="27.972" height="27.972" style="fill:none;stroke:url(#_Linear40);stroke-width:4.71px;"/>
                    </g>
                    <g transform="matrix(0.322791,0.217193,-0.322791,0.217193,1098.69,184.844)">
                        <rect x="1285" y="487" width="27.972" height="27.972" style="fill:none;stroke:url(#_Linear41);stroke-width:4.71px;"/>
                    </g>
                    <g transform="matrix(0.322791,0.217193,-0.322791,0.217193,1098.69,172.693)">
                        <rect x="1285" y="487" width="27.972" height="27.972" style="fill:none;stroke:url(#_Linear42);stroke-width:4.71px;"/>
                    </g>
                    <g transform="matrix(0.322791,0.217193,-0.322791,0.217193,1098.69,160.542)">
                        <rect x="1285" y="487" width="27.972" height="27.972" style="fill:none;stroke:url(#_Linear43);stroke-width:4.71px;"/>
                    </g>
                    <g transform="matrix(0.322791,0.217193,-0.322791,0.217193,1098.69,148.392)">
                        <rect x="1285" y="487" width="27.972" height="27.972" style="fill:none;stroke:url(#_Linear44);stroke-width:4.71px;"/>
                    </g>
                    <g transform="matrix(0.322791,0.217193,-0.322791,0.217193,1098.69,136.241)">
                        <rect x="1285" y="487" width="27.972" height="27.972" style="fill:none;stroke:url(#_Linear45);stroke-width:4.71px;"/>
                    </g>
                    <g transform="matrix(0.322791,0.217193,-0.322791,0.217193,1116.74,257.748)">
                        <rect x="1285" y="487" width="27.972" height="27.972" style="fill:none;stroke:url(#_Linear46);stroke-width:4.71px;"/>
                    </g>
                    <g transform="matrix(0.322791,0.217193,-0.322791,0.217193,1116.74,245.597)">
                        <rect x="1285" y="487" width="27.972" height="27.972" style="fill:none;stroke:url(#_Linear47);stroke-width:4.71px;"/>
                    </g>
                    <g transform="matrix(0.322791,0.217193,-0.322791,0.217193,1116.74,233.446)">
                        <rect x="1285" y="487" width="27.972" height="27.972" style="fill:none;stroke:url(#_Linear48);stroke-width:4.71px;"/>
                    </g>
                    <g transform="matrix(0.322791,0.217193,-0.322791,0.217193,1116.74,221.296)">
                        <rect x="1285" y="487" width="27.972" height="27.972" style="fill:none;stroke:url(#_Linear49);stroke-width:4.71px;"/>
                    </g>
                    <g transform="matrix(0.322791,0.217193,-0.322791,0.217193,1116.74,209.145)">
                        <rect x="1285" y="487" width="27.972" height="27.972" style="fill:none;stroke:url(#_Linear50);stroke-width:4.71px;"/>
                    </g>
                    <g transform="matrix(0.322791,0.217193,-0.322791,0.217193,1116.74,196.994)">
                        <rect x="1285" y="487" width="27.972" height="27.972" style="fill:none;stroke:url(#_Linear51);stroke-width:4.71px;"/>
                    </g>
                    <g transform="matrix(0.322791,0.217193,-0.322791,0.217193,1116.74,184.844)">
                        <rect x="1285" y="487" width="27.972" height="27.972" style="fill:none;stroke:url(#_Linear52);stroke-width:4.71px;"/>
                    </g>
                    <g transform="matrix(0.322791,0.217193,-0.322791,0.217193,1116.74,172.693)">
                        <rect x="1285" y="487" width="27.972" height="27.972" style="fill:none;stroke:url(#_Linear53);stroke-width:4.71px;"/>
                    </g>
                    <g transform="matrix(0.322791,0.217193,-0.322791,0.217193,1116.74,160.542)">
                        <rect x="1285" y="487" width="27.972" height="27.972" style="fill:none;stroke:url(#_Linear54);stroke-width:4.71px;"/>
                    </g>
                    <g transform="matrix(0.322791,0.217193,-0.322791,0.217193,1116.74,148.392)">
                        <rect x="1285" y="487" width="27.972" height="27.972" style="fill:none;stroke:url(#_Linear55);stroke-width:4.71px;"/>
                    </g>
                    <g transform="matrix(0.322791,0.217193,-0.322791,0.217193,1116.74,136.241)">
                        <rect x="1285" y="487" width="27.972" height="27.972" style="fill:none;stroke:url(#_Linear56);stroke-width:4.71px;"/>
                    </g>
                    <g transform="matrix(0.322791,0.217193,-0.322791,0.217193,1134.8,257.748)">
                        <rect x="1285" y="487" width="27.972" height="27.972" style="fill:none;stroke:url(#_Linear57);stroke-width:4.71px;"/>
                    </g>
                    <g transform="matrix(0.322791,0.217193,-0.322791,0.217193,1134.8,245.597)">
                        <rect x="1285" y="487" width="27.972" height="27.972" style="fill:none;stroke:url(#_Linear58);stroke-width:4.71px;"/>
                    </g>
                    <g transform="matrix(0.322791,0.217193,-0.322791,0.217193,1134.8,233.446)">
                        <rect x="1285" y="487" width="27.972" height="27.972" style="fill:none;stroke:url(#_Linear59);stroke-width:4.71px;"/>
                    </g>
                    <g transform="matrix(0.322791,0.217193,-0.322791,0.217193,1134.8,221.296)">
                        <rect x="1285" y="487" width="27.972" height="27.972" style="fill:none;stroke:url(#_Linear60);stroke-width:4.71px;"/>
                    </g>
                    <g transform="matrix(0.322791,0.217193,-0.322791,0.217193,1134.8,209.145)">
                        <rect x="1285" y="487" width="27.972" height="27.972" style="fill:none;stroke:url(#_Linear61);stroke-width:4.71px;"/>
                    </g>
                    <g transform="matrix(0.322791,0.217193,-0.322791,0.217193,1134.8,196.994)">
                        <rect x="1285" y="487" width="27.972" height="27.972" style="fill:none;stroke:url(#_Linear62);stroke-width:4.71px;"/>
                    </g>
                    <g transform="matrix(0.322791,0.217193,-0.322791,0.217193,1134.8,184.844)">
                        <rect x="1285" y="487" width="27.972" height="27.972" style="fill:none;stroke:url(#_Linear63);stroke-width:4.71px;"/>
                    </g>
                    <g transform="matrix(0.322791,0.217193,-0.322791,0.217193,1134.8,172.693)">
                        <rect x="1285" y="487" width="27.972" height="27.972" style="fill:none;stroke:url(#_Linear64);stroke-width:4.71px;"/>
                    </g>
                    <g transform="matrix(0.322791,0.217193,-0.322791,0.217193,1152.86,257.748)">
                        <rect x="1285" y="487" width="27.972" height="27.972" style="fill:none;stroke:url(#_Linear65);stroke-width:4.71px;"/>
                    </g>
                    <g transform="matrix(0.322791,0.217193,-0.322791,0.217193,1152.86,245.597)">
                        <rect x="1285" y="487" width="27.972" height="27.972" style="fill:none;stroke:url(#_Linear66);stroke-width:4.71px;"/>
                    </g>
                    <g transform="matrix(0.322791,0.217193,-0.322791,0.217193,1152.86,233.446)">
                        <rect x="1285" y="487" width="27.972" height="27.972" style="fill:none;stroke:url(#_Linear67);stroke-width:4.71px;"/>
                    </g>
                    <g transform="matrix(0.322791,0.217193,-0.322791,0.217193,1152.86,221.296)">
                        <rect x="1285" y="487" width="27.972" height="27.972" style="fill:none;stroke:url(#_Linear68);stroke-width:4.71px;"/>
                    </g>
                    <g transform="matrix(0.322791,0.217193,-0.322791,0.217193,1152.86,209.145)">
                        <rect x="1285" y="487" width="27.972" height="27.972" style="fill:none;stroke:url(#_Linear69);stroke-width:4.71px;"/>
                    </g>
                    <g transform="matrix(0.322791,0.217193,-0.322791,0.217193,1170.92,257.748)">
                        <rect x="1285" y="487" width="27.972" height="27.972" style="fill:none;stroke:url(#_Linear70);stroke-width:4.71px;"/>
                    </g>
                    <g transform="matrix(0.322791,0.217193,-0.322791,0.217193,1170.92,245.597)">
                        <rect x="1285" y="487" width="27.972" height="27.972" style="fill:none;stroke:url(#_Linear71);stroke-width:4.71px;"/>
                    </g>
                </g>
                <path d="M1359.4,526.771C1360.26,525.066 1362.63,523.918 1365.3,523.918C1367.98,523.918 1370.35,525.066 1371.2,526.771C1388.29,560.943 1436.61,657.578 1436.61,657.578L1294,657.578C1294,657.578 1342.32,560.943 1359.4,526.771ZM1360.93,527.117C1361.56,525.854 1363.32,525.003 1365.3,525.003C1367.28,525.003 1369.04,525.854 1369.67,527.117L1434.36,656.493C1434.36,656.493 1314.24,656.493 1296.24,656.493L1360.93,527.117Z" style="fill:url(#_Radial72);"/>
            </g>
            <g transform="matrix(1,0,0,0.773244,0,123.986)">
                <path d="M1552.87,546.78C1552.87,538.372 1547.59,531.545 1541.09,531.545L1417.74,531.545C1411.24,531.545 1405.96,538.372 1405.96,546.78C1405.96,555.188 1411.24,562.015 1417.74,562.015L1541.09,562.015C1547.59,562.015 1552.87,555.188 1552.87,546.78Z" style="fill:rgb(245,171,102);"/>
                <path d="M1552.87,546.78C1552.87,538.372 1547.59,531.545 1541.09,531.545L1417.74,531.545C1411.24,531.545 1405.96,538.372 1405.96,546.78C1405.96,555.188 1411.24,562.015 1417.74,562.015L1541.09,562.015C1547.59,562.015 1552.87,555.188 1552.87,546.78ZM1551.43,546.78C1551.43,554.162 1546.79,560.155 1541.09,560.155L1417.74,560.155C1412.04,560.155 1407.4,554.162 1407.4,546.78C1407.4,539.398 1412.04,533.405 1417.74,533.405L1541.09,533.405C1546.79,533.405 1551.43,539.398 1551.43,546.78L1551.43,546.78Z" style="fill:url(#_Radial73);"/>
            </g>
        </g>
    </g>
    <defs>
        <radialGradient id="_Radial1" cx="0" cy="0" r="1" gradientUnits="userSpaceOnUse" gradientTransform="matrix(2.68536e-13,304.87,-276.517,4.08842e-12,835.918,421.565)"><stop offset="0" style="stop-color:white;stop-opacity:0.05"/><stop offset="1" style="stop-color:white;stop-opacity:0"/></radialGradient>
        <radialGradient id="_Radial2" cx="0" cy="0" r="1" gradientUnits="userSpaceOnUse" gradientTransform="matrix(276.517,0,0,-304.87,835.918,421.565)"><stop offset="0" style="stop-color:white;stop-opacity:0.2"/><stop offset="1" style="stop-color:white;stop-opacity:0"/></radialGradient>
        <linearGradient id="_Linear3" x1="0" y1="0" x2="1" y2="0" gradientUnits="userSpaceOnUse" gradientTransform="matrix(-40.2304,78.7665,-65.035,-14.9561,1276.9,563.012)"><stop offset="0" style="stop-color:rgb(154,107,8);stop-opacity:1"/><stop offset="1" style="stop-color:rgb(184,128,9);stop-opacity:1"/></linearGradient>
        <linearGradient id="_Linear4" x1="0" y1="0" x2="1" y2="0" gradientUnits="userSpaceOnUse" gradientTransform="matrix(-0.936283,-79.6343,73.3189,14.137,1224.41,642.634)"><stop offset="0" style="stop-color:rgb(249,200,14);stop-opacity:1"/><stop offset="1" style="stop-color:rgb(250,207,43);stop-opacity:1"/></linearGradient>
        <radialGradient id="_Radial5" cx="0" cy="0" r="1" gradientUnits="userSpaceOnUse" gradientTransform="matrix(103.936,0.703356,-12.9111,-78.4981,1173.24,562.974)"><stop offset="0" style="stop-color:white;stop-opacity:0.5"/><stop offset="1" style="stop-color:white;stop-opacity:0"/></radialGradient>
        <linearGradient id="_Linear6" x1="0" y1="0" x2="1" y2="0" gradientUnits="userSpaceOnUse" gradientTransform="matrix(4.75026e-15,-77.5776,77.5776,4.75026e-15,1516.5,657.578)"><stop offset="0" style="stop-color:rgb(226,40,95);stop-opacity:1"/><stop offset="1" style="stop-color:rgb(228,58,109);stop-opacity:1"/></linearGradient>
        <radialGradient id="_Radial7" cx="0" cy="0" r="1" gradientUnits="userSpaceOnUse" gradientTransform="matrix(235,-4.65496e-14,0,-77.5776,1399,580)"><stop offset="0" style="stop-color:white;stop-opacity:0.5"/><stop offset="1" style="stop-color:white;stop-opacity:0"/></radialGradient>
        <linearGradient id="_Linear8" x1="0" y1="0" x2="1" y2="0" gradientUnits="userSpaceOnUse" gradientTransform="matrix(6.34417e-15,-77.5776,103.608,4.75026e-15,1516.5,657.578)"><stop offset="0" style="stop-color:rgb(228,58,109);stop-opacity:1"/><stop offset="1" style="stop-color:rgb(231,75,122);stop-opacity:1"/></linearGradient>
        <radialGradient id="_Radial9" cx="0" cy="0" r="1" gradientUnits="userSpaceOnUse" gradientTransform="matrix(236.572,3.13825e-14,8.77068e-15,-77.5776,1399,580)"><stop offset="0" style="stop-color:white;stop-opacity:0.2"/><stop offset="1" style="stop-color:white;stop-opacity:0"/></radialGradient>
        <linearGradient id="_Linear10" x1="0" y1="0" x2="1" y2="0" gradientUnits="userSpaceOnUse" gradientTransform="matrix(6.34417e-15,-77.5776,103.608,4.75026e-15,1516.5,657.578)"><stop offset="0" style="stop-color:rgb(228,58,109);stop-opacity:1"/><stop offset="1" style="stop-color:rgb(231,75,122);stop-opacity:1"/></linearGradient>
        <radialGradient id="_Radial11" cx="0" cy="0" r="1" gradientUnits="userSpaceOnUse" gradientTransform="matrix(235,-2.15487e-14,-1.26618e-14,-77.4153,1399,580)"><stop offset="0" style="stop-color:white;stop-opacity:0.2"/><stop offset="1" style="stop-color:white;stop-opacity:0"/></radialGradient>
        <linearGradient id="_Linear12" x1="0" y1="0" x2="1" y2="0" gradientUnits="userSpaceOnUse" gradientTransform="matrix(6.34417e-15,-77.5776,103.608,4.75026e-15,1516.5,657.578)"><stop offset="0" style="stop-color:rgb(228,58,109);stop-opacity:1"/><stop offset="1" style="stop-color:rgb(231,75,122);stop-opacity:1"/></linearGradient>
        <radialGradient id="_Radial13" cx="0" cy="0" r="1" gradientUnits="userSpaceOnUse" gradientTransform="matrix(235,0,0,-72.8891,1399,580)"><stop offset="0" style="stop-color:white;stop-opacity:0.2"/><stop offset="1" style="stop-color:white;stop-opacity:0"/></radialGradient>
        <linearGradient id="_Linear14" x1="0" y1="0" x2="1" y2="0" gradientUnits="userSpaceOnUse" gradientTransform="matrix(6.34417e-15,-77.5776,103.608,4.75026e-15,1516.5,657.578)"><stop offset="0" style="stop-color:rgb(228,58,109);stop-opacity:1"/><stop offset="1" style="stop-color:rgb(231,75,122);stop-opacity:1"/></linearGradient>
        <radialGradient id="_Radial15" cx="0" cy="0" r="1" gradientUnits="userSpaceOnUse" gradientTransform="matrix(235,-2.15487e-14,-1.26618e-14,-77.4153,1399,580)"><stop offset="0" style="stop-color:white;stop-opacity:0.2"/><stop offset="1" style="stop-color:white;stop-opacity:0"/></radialGradient>
        <linearGradient id="_Linear16" x1="0" y1="0" x2="1" y2="0" gradientUnits="userSpaceOnUse" gradientTransform="matrix(-26.5,-103.241,103.241,-26.5,1516.5,658.846)"><stop offset="0" style="stop-color:rgb(234,99,140);stop-opacity:1"/><stop offset="0.56" style="stop-color:rgb(237,118,154);stop-opacity:1"/><stop offset="1" style="stop-color:rgb(231,75,122);stop-opacity:1"/></linearGradient>
        <radialGradient id="_Radial17" cx="0" cy="0" r="1" gradientUnits="userSpaceOnUse" gradientTransform="matrix(136.475,1.67133e-14,1.33815e-14,-109.268,1447.29,549.578)"><stop offset="0" style="stop-color:white;stop-opacity:0.6"/><stop offset="1" style="stop-color:white;stop-opacity:0"/></radialGradient>
        <linearGradient id="_Linear18" x1="0" y1="0" x2="1" y2="0" gradientUnits="userSpaceOnUse" gradientTransform="matrix(7.10543e-15,-124.881,185.598,1.06581e-14,1365.3,648.799)"><stop offset="0" style="stop-color:rgb(243,154,71);stop-opacity:1"/><stop offset="0.06" style="stop-color:rgb(244,160,79);stop-opacity:1"/><stop offset="1" style="stop-color:rgb(245,171,102);stop-opacity:1"/></linearGradient>
        <linearGradient id="_Linear20" x1="0" y1="0" x2="1" y2="0" gradientUnits="userSpaceOnUse" gradientTransform="matrix(-295.921,-295.921,295.921,-295.921,1405.57,411.769)"><stop offset="0" style="stop-color:rgb(243,150,63);stop-opacity:1"/><stop offset="1" style="stop-color:rgb(245,170,100);stop-opacity:1"/></linearGradient>
        <linearGradient id="_Linear21" x1="0" y1="0" x2="1" y2="0" gradientUnits="userSpaceOnUse" gradientTransform="matrix(-295.921,-295.921,295.921,-295.921,1433.55,439.741)"><stop offset="0" style="stop-color:rgb(243,150,63);stop-opacity:1"/><stop offset="1" style="stop-color:rgb(245,170,100);stop-opacity:1"/></linearGradient>
        <linearGradient id="_Linear22" x1="0" y1="0" x2="1" y2="0" gradientUnits="userSpaceOnUse" gradientTransform="matrix(-295.921,-295.921,295.921,-295.921,1377.6,439.741)"><stop offset="0" style="stop-color:rgb(243,150,63);stop-opacity:1"/><stop offset="1" style="stop-color:rgb(245,170,100);stop-opacity:1"/></linearGradient>
        <linearGradient id="_Linear23" x1="0" y1="0" x2="1" y2="0" gradientUnits="userSpaceOnUse" gradientTransform="matrix(-295.921,-295.921,295.921,-295.921,1405.57,467.713)"><stop offset="0" style="stop-color:rgb(243,150,63);stop-opacity:1"/><stop offset="1" style="stop-color:rgb(245,170,100);stop-opacity:1"/></linearGradient>
        <linearGradient id="_Linear24" x1="0" y1="0" x2="1" y2="0" gradientUnits="userSpaceOnUse" gradientTransform="matrix(-295.921,-295.921,295.921,-295.921,1433.55,495.685)"><stop offset="0" style="stop-color:rgb(243,150,63);stop-opacity:1"/><stop offset="1" style="stop-color:rgb(245,170,100);stop-opacity:1"/></linearGradient>
        <linearGradient id="_Linear25" x1="0" y1="0" x2="1" y2="0" gradientUnits="userSpaceOnUse" gradientTransform="matrix(-295.921,-295.921,295.921,-295.921,1461.52,523.657)"><stop offset="0" style="stop-color:rgb(243,150,63);stop-opacity:1"/><stop offset="1" style="stop-color:rgb(245,170,100);stop-opacity:1"/></linearGradient>
        <linearGradient id="_Linear26" x1="0" y1="0" x2="1" y2="0" gradientUnits="userSpaceOnUse" gradientTransform="matrix(-295.921,-295.921,295.921,-295.921,1489.49,551.629)"><stop offset="0" style="stop-color:rgb(243,150,63);stop-opacity:1"/><stop offset="1" style="stop-color:rgb(245,170,100);stop-opacity:1"/></linearGradient>
        <linearGradient id="_Linear27" x1="0" y1="0" x2="1" y2="0" gradientUnits="userSpaceOnUse" gradientTransform="matrix(-295.921,-295.921,295.921,-295.921,1349.63,467.713)"><stop offset="0" style="stop-color:rgb(243,150,63);stop-opacity:1"/><stop offset="1" style="stop-color:rgb(245,170,100);stop-opacity:1"/></linearGradient>
        <linearGradient id="_Linear28" x1="0" y1="0" x2="1" y2="0" gradientUnits="userSpaceOnUse" gradientTransform="matrix(-295.921,-295.921,295.921,-295.921,1377.6,495.685)"><stop offset="0" style="stop-color:rgb(243,150,63);stop-opacity:1"/><stop offset="1" style="stop-color:rgb(245,170,100);stop-opacity:1"/></linearGradient>
        <linearGradient id="_Linear29" x1="0" y1="0" x2="1" y2="0" gradientUnits="userSpaceOnUse" gradientTransform="matrix(-295.921,-295.921,295.921,-295.921,1405.57,523.657)"><stop offset="0" style="stop-color:rgb(243,150,63);stop-opacity:1"/><stop offset="1" style="stop-color:rgb(245,170,100);stop-opacity:1"/></linearGradient>
        <linearGradient id="_Linear30" x1="0" y1="0" x2="1" y2="0" gradientUnits="userSpaceOnUse" gradientTransform="matrix(-295.921,-295.921,295.921,-295.921,1433.55,551.629)"><stop offset="0" style="stop-color:rgb(243,150,63);stop-opacity:1"/><stop offset="1" style="stop-color:rgb(245,170,100);stop-opacity:1"/></linearGradient>
        <linearGradient id="_Linear31" x1="0" y1="0" x2="1" y2="0" gradientUnits="userSpaceOnUse" gradientTransform="matrix(-295.921,-295.921,295.921,-295.921,1461.52,579.601)"><stop offset="0" style="stop-color:rgb(243,150,63);stop-opacity:1"/><stop offset="1" style="stop-color:rgb(245,170,100);stop-opacity:1"/></linearGradient>
        <linearGradient id="_Linear32" x1="0" y1="0" x2="1" y2="0" gradientUnits="userSpaceOnUse" gradientTransform="matrix(-295.921,-295.921,295.921,-295.921,1489.49,607.573)"><stop offset="0" style="stop-color:rgb(243,150,63);stop-opacity:1"/><stop offset="1" style="stop-color:rgb(245,170,100);stop-opacity:1"/></linearGradient>
        <linearGradient id="_Linear33" x1="0" y1="0" x2="1" y2="0" gradientUnits="userSpaceOnUse" gradientTransform="matrix(-295.921,-295.921,295.921,-295.921,1517.46,635.545)"><stop offset="0" style="stop-color:rgb(243,150,63);stop-opacity:1"/><stop offset="1" style="stop-color:rgb(245,170,100);stop-opacity:1"/></linearGradient>
        <linearGradient id="_Linear34" x1="0" y1="0" x2="1" y2="0" gradientUnits="userSpaceOnUse" gradientTransform="matrix(-295.921,-295.921,295.921,-295.921,1545.43,663.517)"><stop offset="0" style="stop-color:rgb(243,150,63);stop-opacity:1"/><stop offset="1" style="stop-color:rgb(245,170,100);stop-opacity:1"/></linearGradient>
        <linearGradient id="_Linear35" x1="0" y1="0" x2="1" y2="0" gradientUnits="userSpaceOnUse" gradientTransform="matrix(-295.921,-295.921,295.921,-295.921,1321.66,495.685)"><stop offset="0" style="stop-color:rgb(243,150,63);stop-opacity:1"/><stop offset="1" style="stop-color:rgb(245,170,100);stop-opacity:1"/></linearGradient>
        <linearGradient id="_Linear36" x1="0" y1="0" x2="1" y2="0" gradientUnits="userSpaceOnUse" gradientTransform="matrix(-295.921,-295.921,295.921,-295.921,1349.63,523.657)"><stop offset="0" style="stop-color:rgb(243,150,63);stop-opacity:1"/><stop offset="1" style="stop-color:rgb(245,170,100);stop-opacity:1"/></linearGradient>
        <linearGradient id="_Linear37" x1="0" y1="0" x2="1" y2="0" gradientUnits="userSpaceOnUse" gradientTransform="matrix(-295.921,-295.921,295.921,-295.921,1377.6,551.629)"><stop offset="0" style="stop-color:rgb(243,150,63);stop-opacity:1"/><stop offset="1" style="stop-color:rgb(245,170,100);stop-opacity:1"/></linearGradient>
        <linearGradient id="_Linear38" x1="0" y1="0" x2="1" y2="0" gradientUnits="userSpaceOnUse" gradientTransform="matrix(-295.921,-295.921,295.921,-295.921,1405.57,579.601)"><stop offset="0" style="stop-color:rgb(243,150,63);stop-opacity:1"/><stop offset="1" style="stop-color:rgb(245,170,100);stop-opacity:1"/></linearGradient>
        <linearGradient id="_Linear39" x1="0" y1="0" x2="1" y2="0" gradientUnits="userSpaceOnUse" gradientTransform="matrix(-295.921,-295.921,295.921,-295.921,1433.55,607.573)"><stop offset="0" style="stop-color:rgb(243,150,63);stop-opacity:1"/><stop offset="1" style="stop-color:rgb(245,170,100);stop-opacity:1"/></linearGradient>
        <linearGradient id="_Linear40" x1="0" y1="0" x2="1" y2="0" gradientUnits="userSpaceOnUse" gradientTransform="matrix(-295.921,-295.921,295.921,-295.921,1461.52,635.545)"><stop offset="0" style="stop-color:rgb(243,150,63);stop-opacity:1"/><stop offset="1" style="stop-color:rgb(245,170,100);stop-opacity:1"/></linearGradient>
        <linearGradient id="_Linear41" x1="0" y1="0" x2="1" y2="0" gradientUnits="userSpaceOnUse" gradientTransform="matrix(-295.921,-295.921,295.921,-295.921,1489.49,663.517)"><stop offset="0" style="stop-color:rgb(243,150,63);stop-opacity:1"/><stop offset="1" style="stop-color:rgb(245,170,100);stop-opacity:1"/></linearGradient>
        <linearGradient id="_Linear42" x1="0" y1="0" x2="1" y2="0" gradientUnits="userSpaceOnUse" gradientTransform="matrix(-295.921,-295.921,295.921,-295.921,1517.46,691.489)"><stop offset="0" style="stop-color:rgb(243,150,63);stop-opacity:1"/><stop offset="1" style="stop-color:rgb(245,170,100);stop-opacity:1"/></linearGradient>
        <linearGradient id="_Linear43" x1="0" y1="0" x2="1" y2="0" gradientUnits="userSpaceOnUse" gradientTransform="matrix(-295.921,-295.921,295.921,-295.921,1545.43,719.461)"><stop offset="0" style="stop-color:rgb(243,150,63);stop-opacity:1"/><stop offset="1" style="stop-color:rgb(245,170,100);stop-opacity:1"/></linearGradient>
        <linearGradient id="_Linear44" x1="0" y1="0" x2="1" y2="0" gradientUnits="userSpaceOnUse" gradientTransform="matrix(-295.921,-295.921,295.921,-295.921,1573.41,747.433)"><stop offset="0" style="stop-color:rgb(243,150,63);stop-opacity:1"/><stop offset="1" style="stop-color:rgb(245,170,100);stop-opacity:1"/></linearGradient>
        <linearGradient id="_Linear45" x1="0" y1="0" x2="1" y2="0" gradientUnits="userSpaceOnUse" gradientTransform="matrix(-295.921,-295.921,295.921,-295.921,1601.38,775.406)"><stop offset="0" style="stop-color:rgb(243,150,63);stop-opacity:1"/><stop offset="1" style="stop-color:rgb(245,170,100);stop-opacity:1"/></linearGradient>
        <linearGradient id="_Linear46" x1="0" y1="0" x2="1" y2="0" gradientUnits="userSpaceOnUse" gradientTransform="matrix(-295.921,-295.921,295.921,-295.921,1293.68,523.657)"><stop offset="0" style="stop-color:rgb(243,150,63);stop-opacity:1"/><stop offset="1" style="stop-color:rgb(245,170,100);stop-opacity:1"/></linearGradient>
        <linearGradient id="_Linear47" x1="0" y1="0" x2="1" y2="0" gradientUnits="userSpaceOnUse" gradientTransform="matrix(-295.921,-295.921,295.921,-295.921,1321.66,551.629)"><stop offset="0" style="stop-color:rgb(243,150,63);stop-opacity:1"/><stop offset="1" style="stop-color:rgb(245,170,100);stop-opacity:1"/></linearGradient>
        <linearGradient id="_Linear48" x1="0" y1="0" x2="1" y2="0" gradientUnits="userSpaceOnUse" gradientTransform="matrix(-295.921,-295.921,295.921,-295.921,1349.63,579.601)"><stop offset="0" style="stop-color:rgb(243,150,63);stop-opacity:1"/><stop offset="1" style="stop-color:rgb(245,170,100);stop-opacity:1"/></linearGradient>
        <linearGradient id="_Linear49" x1="0" y1="0" x2="1" y2="0" gradientUnits="userSpaceOnUse" gradientTransform="matrix(-295.921,-295.921,295.921,-295.921,1377.6,607.573)"><stop offset="0" style="stop-color:rgb(243,150,63);stop-opacity:1"/><stop offset="1" style="stop-color:rgb(245,170,100);stop-opacity:1"/></linearGradient>
        <linearGradient id="_Linear50" x1="0" y1="0" x2="1" y2="0" gradientUnits="userSpaceOnUse" gradientTransform="matrix(-295.921,-295.921,295.921,-295.921,1405.57,635.545)"><stop offset="0" style="stop-color:rgb(243,150,63);stop-opacity:1"/><stop offset="1" style="stop-color:rgb(245,170,100);stop-opacity:1"/></linearGradient>
        <linearGradient id="_Linear51" x1="0" y1="0" x2="1" y2="0" gradientUnits="userSpaceOnUse" gradientTransform="matrix(-295.921,-295.921,295.921,-295.921,1433.55,663.517)"><stop offset="0" style="stop-color:rgb(243,150,63);stop-opacity:1"/><stop offset="1" style="stop-color:rgb(245,170,100);stop-opacity:1"/></linearGradient>
        <linearGradient id="_Linear52" x1="0" y1="0" x2="1" y2="0" gradientUnits="userSpaceOnUse" gradientTransform="matrix(-295.921,-295.921,295.921,-295.921,1461.52,691.489)"><stop offset="0" style="stop-color:rgb(243,150,63);stop-opacity:1"/><stop offset="1" style="stop-color:rgb(245,170,100);stop-opacity:1"/></linearGradient>
        <linearGradient id="_Linear53" x1="0" y1="0" x2="1" y2="0" gradientUnits="userSpaceOnUse" gradientTransform="matrix(-295.921,-295.921,295.921,-295.921,1489.49,719.461)"><stop offset="0" style="stop-color:rgb(243,150,63);stop-opacity:1"/><stop offset="1" style="stop-color:rgb(245,170,100);stop-opacity:1"/></linearGradient>
        <linearGradient id="_Linear54" x1="0" y1="0" x2="1" y2="0" gradientUnits="userSpaceOnUse" gradientTransform="matrix(-295.921,-295.921,295.921,-295.921,1517.46,747.433)"><stop offset="0" style="stop-color:rgb(243,150,63);stop-opacity:1"/><stop offset="1" style="stop-color:rgb(245,170,100);stop-opacity:1"/></linearGradient>
        <linearGradient id="_Linear55" x1="0" y1="0" x2="1" y2="0" gradientUnits="userSpaceOnUse" gradientTransform="matrix(-295.921,-295.921,295.921,-295.921,1545.43,775.406)"><stop offset="0" style="stop-color:rgb(243,150,63);stop-opacity:1"/><stop offset="1" style="stop-color:rgb(245,170,100);stop-opacity:1"/></linearGradient>
        <linearGradient id="_Linear56" x1="0" y1="0" x2="1" y2="0" gradientUnits="userSpaceOnUse" gradientTransform="matrix(-295.921,-295.921,295.921,-295.921,1573.41,803.378)"><stop offset="0" style="stop-color:rgb(243,150,63);stop-opacity:1"/><stop offset="1" style="stop-color:rgb(245,170,100);stop-opacity:1"/></linearGradient>
        <linearGradient id="_Linear57" x1="0" y1="0" x2="1" y2="0" gradientUnits="userSpaceOnUse" gradientTransform="matrix(-295.921,-295.921,295.921,-295.921,1265.71,551.629)"><stop offset="0" style="stop-color:rgb(243,150,63);stop-opacity:1"/><stop offset="1" style="stop-color:rgb(245,170,100);stop-opacity:1"/></linearGradient>
        <linearGradient id="_Linear58" x1="0" y1="0" x2="1" y2="0" gradientUnits="userSpaceOnUse" gradientTransform="matrix(-295.921,-295.921,295.921,-295.921,1293.68,579.601)"><stop offset="0" style="stop-color:rgb(243,150,63);stop-opacity:1"/><stop offset="1" style="stop-color:rgb(245,170,100);stop-opacity:1"/></linearGradient>
        <linearGradient id="_Linear59" x1="0" y1="0" x2="1" y2="0" gradientUnits="userSpaceOnUse" gradientTransform="matrix(-295.921,-295.921,295.921,-295.921,1321.66,607.573)"><stop offset="0" style="stop-color:rgb(243,150,63);stop-opacity:1"/><stop offset="1" style="stop-color:rgb(245,170,100);stop-opacity:1"/></linearGradient>
        <linearGradient id="_Linear60" x1="0" y1="0" x2="1" y2="0" gradientUnits="userSpaceOnUse" gradientTransform="matrix(-295.921,-295.921,295.921,-295.921,1349.63,635.545)"><stop offset="0" style="stop-color:rgb(243,150,63);stop-opacity:1"/><stop offset="1" style="stop-color:rgb(245,170,100);stop-opacity:1"/></linearGradient>
        <linearGradient id="_Linear61" x1="0" y1="0" x2="1" y2="0" gradientUnits="userSpaceOnUse" gradientTransform="matrix(-295.921,-295.921,295.921,-295.921,1377.6,663.517)"><stop offset="0" style="stop-color:rgb(243,150,63);stop-opacity:1"/><stop offset="1" style="stop-color:rgb(245,170,100);stop-opacity:1"/></linearGradient>
        <linearGradient id="_Linear62" x1="0" y1="0" x2="1" y2="0" gradientUnits="userSpaceOnUse" gradientTransform="matrix(-295.921,-295.921,295.921,-295.921,1405.57,691.489)"><stop offset="0" style="stop-color:rgb(243,150,63);stop-opacity:1"/><stop offset="1" style="stop-color:rgb(245,170,100);stop-opacity:1"/></linearGradient>
        <linearGradient id="_Linear63" x1="0" y1="0" x2="1" y2="0" gradientUnits="userSpaceOnUse" gradientTransform="matrix(-295.921,-295.921,295.921,-295.921,1433.55,719.461)"><stop offset="0" style="stop-color:rgb(243,150,63);stop-opacity:1"/><stop offset="1" style="stop-color:rgb(245,170,100);stop-opacity:1"/></linearGradient>
        <linearGradient id="_Linear64" x1="0" y1="0" x2="1" y2="0" gradientUnits="userSpaceOnUse" gradientTransform="matrix(-295.921,-295.921,295.921,-295.921,1461.52,747.433)"><stop offset="0" style="stop-color:rgb(243,150,63);stop-opacity:1"/><stop offset="1" style="stop-color:rgb(245,170,100);stop-opacity:1"/></linearGradient>
        <linearGradient id="_Linear65" x1="0" y1="0" x2="1" y2="0" gradientUnits="userSpaceOnUse" gradientTransform="matrix(-295.921,-295.921,295.921,-295.921,1237.74,579.601)"><stop offset="0" style="stop-color:rgb(243,150,63);stop-opacity:1"/><stop offset="1" style="stop-color:rgb(245,170,100);stop-opacity:1"/></linearGradient>
        <linearGradient id="_Linear66" x1="0" y1="0" x2="1" y2="0" gradientUnits="userSpaceOnUse" gradientTransform="matrix(-295.921,-295.921,295.921,-295.921,1265.71,607.573)"><stop offset="0" style="stop-color:rgb(243,150,63);stop-opacity:1"/><stop offset="1" style="stop-color:rgb(245,170,100);stop-opacity:1"/></linearGradient>
        <linearGradient id="_Linear67" x1="0" y1="0" x2="1" y2="0" gradientUnits="userSpaceOnUse" gradientTransform="matrix(-295.921,-295.921,295.921,-295.921,1293.68,635.545)"><stop offset="0" style="stop-color:rgb(243,150,63);stop-opacity:1"/><stop offset="1" style="stop-color:rgb(245,170,100);stop-opacity:1"/></linearGradient>
        <linearGradient id="_Linear68" x1="0" y1="0" x2="1" y2="0" gradientUnits="userSpaceOnUse" gradientTransform="matrix(-295.921,-295.921,295.921,-295.921,1321.66,663.517)"><stop offset="0" style="stop-color:rgb(243,150,63);stop-opacity:1"/><stop offset="1" style="stop-color:rgb(245,170,100);stop-opacity:1"/></linearGradient>
        <linearGradient id="_Linear69" x1="0" y1="0" x2="1" y2="0" gradientUnits="userSpaceOnUse" gradientTransform="matrix(-295.921,-295.921,295.921,-295.921,1349.63,691.489)"><stop offset="0" style="stop-color:rgb(243,150,63);stop-opacity:1"/><stop offset="1" style="stop-color:rgb(245,170,100);stop-opacity:1"/></linearGradient>
        <linearGradient id="_Linear70" x1="0" y1="0" x2="1" y2="0" gradientUnits="userSpaceOnUse" gradientTransform="matrix(-295.921,-295.921,295.921,-295.921,1209.77,607.573)"><stop offset="0" style="stop-color:rgb(243,150,63);stop-opacity:1"/><stop offset="1" style="stop-color:rgb(245,170,100);stop-opacity:1"/></linearGradient>
        <linearGradient id="_Linear71" x1="0" y1="0" x2="1" y2="0" gradientUnits="userSpaceOnUse" gradientTransform="matrix(-295.921,-295.921,295.921,-295.921,1237.74,635.545)"><stop offset="0" style="stop-color:rgb(243,150,63);stop-opacity:1"/><stop offset="1" style="stop-color:rgb(245,170,100);stop-opacity:1"/></linearGradient>
        <radialGradient id="_Radial72" cx="0" cy="0" r="1" gradientUnits="userSpaceOnUse" gradientTransform="matrix(133.053,23.9884,54.4925,-136.838,1361.73,523.125)"><stop offset="0" style="stop-color:white;stop-opacity:0.5"/><stop offset="1" style="stop-color:white;stop-opacity:0"/></radialGradient>
        <radialGradient id="_Radial73" cx="0" cy="0" r="1" gradientUnits="userSpaceOnUse" gradientTransform="matrix(-0.0421791,29.3389,-147.068,-0.353623,1405.81,531.533)"><stop offset="0" style="stop-color:white;stop-opacity:0.5"/><stop offset="1" style="stop-color:white;stop-opacity:0"/></radialGradient>
    </defs>
</svg>
