<?xml version="1.0" encoding="UTF-8" standalone="no"?>
<!DOCTYPE svg PUBLIC "-//W3C//DTD SVG 1.1//EN" "http://www.w3.org/Graphics/SVG/1.1/DTD/svg11.dtd">
<svg width="100%" height="100%" viewBox="0 0 100 100" version="1.1" xmlns="http://www.w3.org/2000/svg" xmlns:xlink="http://www.w3.org/1999/xlink" xml:space="preserve" xmlns:serif="http://www.serif.com/" style="fill-rule:evenodd;clip-rule:evenodd;stroke-linejoin:round;stroke-miterlimit:2;">
    <g transform="matrix(3.90778,0,0,3.90778,-873.686,-246.254)">
        <path d="M227.273,88.567L231.216,88.567C241.102,88.567 249.127,80.542 249.127,70.656L249.127,66.713L245.431,66.713L245.431,70.656C245.431,78.501 239.061,84.871 231.216,84.871L227.273,84.871L227.273,88.567Z" style="fill:rgb(181,181,181);fill-opacity:0.7;"/>
    </g>
    <g transform="matrix(3.90778,0,0,3.90778,-873.686,-246.254)">
        <path d="M249.127,63.016L241.488,63.016C231.602,63.016 223.576,71.042 223.576,80.928L223.576,88.567L227.273,88.567L227.273,80.928C227.273,73.082 233.643,66.713 241.488,66.713L249.127,66.713L249.127,63.016Z" style="fill:rgb(181,181,181);"/>
    </g>
</svg>
