<?xml version="1.0" encoding="UTF-8" standalone="no"?>
<!DOCTYPE svg PUBLIC "-//W3C//DTD SVG 1.1//EN" "http://www.w3.org/Graphics/SVG/1.1/DTD/svg11.dtd">
<svg width="100%" height="100%" viewBox="0 0 179 179" version="1.1" xmlns="http://www.w3.org/2000/svg" xmlns:xlink="http://www.w3.org/1999/xlink" xml:space="preserve" xmlns:serif="http://www.serif.com/" style="fill-rule:evenodd;clip-rule:evenodd;stroke-linecap:round;stroke-linejoin:round;stroke-miterlimit:1.5;">
    <g transform="matrix(0.268051,0,0,0.268051,-188.08,-200.076)">
        <g transform="matrix(0.231304,0,0,0.231304,561.535,606.289)">
            <circle cx="2048" cy="2048" r="1365.33" style="fill:none;stroke:rgb(235,235,235);stroke-width:153.74px;"/>
        </g>
        <g transform="matrix(0.23229,0,0,0.23229,569.737,619.42)">
            <path d="M1576.51,2453.23C1498.94,2550.25 1456.69,2670.78 1456.69,2795C1456.69,3097.27 1701.73,3342.31 2004,3342.31" style="fill:none;stroke:rgb(235,235,235);stroke-width:153.1px;stroke-linecap:butt;"/>
        </g>
        <g transform="matrix(0.23229,0,0,0.23229,569.737,619.42)">
            <path d="M1576.51,2453.23C1498.94,2550.25 1456.69,2670.78 1456.69,2795C1456.69,3097.27 1701.73,3342.31 2004,3342.31" style="fill:none;stroke:url(#_Linear1);stroke-width:153.1px;stroke-linecap:butt;"/>
        </g>
        <g transform="matrix(9.61783,0,0,9.61783,-1237.95,351.046)">
            <path d="M227.273,86.719L231.216,86.719C240.082,86.719 247.279,79.521 247.279,70.656L247.279,66.713" style="fill:none;stroke:rgb(35,149,86);stroke-width:3.7px;stroke-linecap:butt;stroke-linejoin:miter;"/>
        </g>
        <g transform="matrix(9.61783,0,0,9.61783,-1237.95,351.046)">
            <path d="M247.279,64.865L241.488,64.865C232.622,64.865 225.425,72.062 225.425,80.928L225.425,86.719" style="fill:none;stroke:rgb(56,209,127);stroke-width:3.7px;stroke-linecap:square;stroke-linejoin:miter;"/>
        </g>
    </g>
    <defs>
        <linearGradient id="_Linear1" x1="0" y1="0" x2="1" y2="0" gradientUnits="userSpaceOnUse" gradientTransform="matrix(375.898,836.27,-836.27,375.898,1628.1,2506.04)"><stop offset="0" style="stop-color:rgb(56,209,127);stop-opacity:1"/><stop offset="1" style="stop-color:rgb(56,209,127);stop-opacity:0"/></linearGradient>
    </defs>
</svg>
