<?xml version="1.0" encoding="UTF-8" standalone="no"?>
<!DOCTYPE svg PUBLIC "-//W3C//DTD SVG 1.1//EN" "http://www.w3.org/Graphics/SVG/1.1/DTD/svg11.dtd">
<svg width="100%" height="100%" viewBox="0 0 681 90" version="1.1" xmlns="http://www.w3.org/2000/svg" xmlns:xlink="http://www.w3.org/1999/xlink" xml:space="preserve" xmlns:serif="http://www.serif.com/" style="fill-rule:evenodd;clip-rule:evenodd;stroke-linejoin:round;stroke-miterlimit:2;">
    <g transform="matrix(1.06021,0,0,1.06641,-2492.55,-1129.74)">
        <path d="M2993,1059.39L2987,1066.43L2992.97,1073.46L2987,1080.49L2992.97,1087.52L2987,1094.55L2992.97,1101.58L2987,1108.61L2992.97,1115.64L2987,1122.67L2992.97,1129.7L2987,1136.73L2993,1143.78L2351,1143.78L2357,1136.73L2351.03,1129.7L2357,1122.67L2351.03,1115.64L2357,1108.61L2351.03,1101.58L2357,1094.55L2351.03,1087.52L2357,1080.49L2351.03,1073.46L2357,1066.43L2351,1059.39L2993,1059.39Z" style="fill:rgb(249,200,14);"/>
    </g>
    <g transform="matrix(1,0,0,1,0.187936,0.256333)">
        <path d="M39.663,7.889L18.742,7.889L11.944,15.289L32.865,15.289L39.663,7.889ZM71.106,7.889L50.185,7.889L43.388,15.289L64.308,15.289L71.106,7.889ZM102.566,7.889L81.645,7.889L74.847,15.289L95.768,15.289L102.566,7.889ZM134.009,7.889L113.089,7.889L106.291,15.289L127.212,15.289L134.009,7.889ZM165.469,7.889L144.549,7.889L137.751,15.289L158.671,15.289L165.469,7.889ZM196.913,7.889L175.992,7.889L169.194,15.289L190.115,15.289L196.913,7.889ZM228.373,7.889L207.452,7.889L200.654,15.289L221.575,15.289L228.373,7.889ZM259.816,7.889L238.896,7.889L232.098,15.289L253.018,15.289L259.816,7.889ZM291.26,7.889L270.339,7.889L263.541,15.289L284.462,15.289L291.26,7.889ZM322.72,7.889L301.799,7.889L295.001,15.289L315.922,15.289L322.72,7.889ZM354.163,7.889L333.242,7.889L326.445,15.289L347.365,15.289L354.163,7.889ZM385.623,7.889L364.702,7.889L357.904,15.289L378.825,15.289L385.623,7.889ZM417.067,7.889L396.146,7.889L389.348,15.289L410.269,15.289L417.067,7.889ZM448.526,7.889L427.606,7.889L420.808,15.289L441.729,15.289L448.526,7.889ZM479.97,7.889L459.049,7.889L452.251,15.289L473.172,15.289L479.97,7.889ZM511.43,7.889L490.509,7.889L483.711,15.289L504.632,15.289L511.43,7.889ZM542.873,7.889L521.953,7.889L515.155,15.289L536.075,15.289L542.873,7.889ZM574.317,7.889L553.396,7.889L546.598,15.289L567.519,15.289L574.317,7.889ZM605.777,7.889L584.856,7.889L578.058,15.289L598.979,15.289L605.777,7.889ZM637.22,7.889L616.3,7.889L609.502,15.289L630.422,15.289L637.22,7.889ZM668.68,7.889L647.759,7.889L640.962,15.289L661.882,15.289L668.68,7.889Z" style="fill:rgb(17,18,18);"/>
    </g>
    <g transform="matrix(1,0,0,1,0.187936,0.256333)">
        <path d="M39.663,74.199L18.742,74.199L11.944,81.599L32.865,81.599L39.663,74.199ZM71.106,74.199L50.185,74.199L43.388,81.599L64.308,81.599L71.106,74.199ZM102.566,74.199L81.645,74.199L74.847,81.599L95.768,81.599L102.566,74.199ZM134.009,74.199L113.089,74.199L106.291,81.599L127.212,81.599L134.009,74.199ZM165.469,74.199L144.549,74.199L137.751,81.599L158.671,81.599L165.469,74.199ZM196.913,74.199L175.992,74.199L169.194,81.599L190.115,81.599L196.913,74.199ZM228.373,74.199L207.452,74.199L200.654,81.599L221.575,81.599L228.373,74.199ZM259.816,74.199L238.896,74.199L232.098,81.599L253.018,81.599L259.816,74.199ZM291.26,74.199L270.339,74.199L263.541,81.599L284.462,81.599L291.26,74.199ZM322.72,74.199L301.799,74.199L295.001,81.599L315.922,81.599L322.72,74.199ZM354.163,74.199L333.242,74.199L326.445,81.599L347.365,81.599L354.163,74.199ZM385.623,74.199L364.702,74.199L357.904,81.599L378.825,81.599L385.623,74.199ZM417.067,74.199L396.146,74.199L389.348,81.599L410.269,81.599L417.067,74.199ZM448.526,74.199L427.606,74.199L420.808,81.599L441.729,81.599L448.526,74.199ZM479.97,74.199L459.049,74.199L452.251,81.599L473.172,81.599L479.97,74.199ZM511.43,74.199L490.509,74.199L483.711,81.599L504.632,81.599L511.43,74.199ZM542.873,74.199L521.953,74.199L515.155,81.599L536.075,81.599L542.873,74.199ZM574.317,74.199L553.396,74.199L546.598,81.599L567.519,81.599L574.317,74.199ZM605.777,74.199L584.856,74.199L578.058,81.599L598.979,81.599L605.777,74.199ZM637.22,74.199L616.3,74.199L609.502,81.599L630.422,81.599L637.22,74.199ZM668.68,74.199L647.759,74.199L640.962,81.599L661.882,81.599L668.68,74.199Z" style="fill:rgb(17,18,18);"/>
    </g>
    <g transform="matrix(1.08916,3.65681e-17,-3.65681e-17,1.08916,241.684,-19.7135)">
        <g transform="matrix(50.258,-7.88861e-31,7.88861e-31,50.258,-195.099,77)">
            <path d="M0.338,0.012C0.287,0.012 0.24,0.002 0.199,-0.019C0.158,-0.039 0.125,-0.07 0.101,-0.111C0.076,-0.152 0.064,-0.205 0.064,-0.268L0.064,-0.7L0.192,-0.7L0.192,-0.267C0.192,-0.212 0.205,-0.172 0.232,-0.145C0.258,-0.118 0.294,-0.105 0.341,-0.105C0.387,-0.105 0.423,-0.118 0.45,-0.145C0.477,-0.172 0.49,-0.212 0.49,-0.267L0.49,-0.7L0.618,-0.7L0.618,-0.268C0.618,-0.205 0.605,-0.152 0.58,-0.111C0.555,-0.07 0.521,-0.039 0.478,-0.019C0.436,0.002 0.389,0.012 0.338,0.012Z" style="fill:rgb(17,18,18);fill-rule:nonzero;"/>
        </g>
        <g transform="matrix(50.258,-7.88861e-31,7.88861e-31,50.258,-160.873,77)">
            <path d="M0.068,-0L0.068,-0.7L0.196,-0.7L0.525,-0.207L0.525,-0.7L0.653,-0.7L0.653,-0L0.525,-0L0.196,-0.492L0.196,-0L0.068,-0Z" style="fill:rgb(17,18,18);fill-rule:nonzero;"/>
        </g>
        <g transform="matrix(50.258,-7.88861e-31,7.88861e-31,50.258,-124.637,77)">
            <path d="M0.068,-0L0.068,-0.7L0.307,-0.7C0.389,-0.7 0.457,-0.686 0.509,-0.657C0.563,-0.627 0.602,-0.587 0.627,-0.535C0.653,-0.482 0.666,-0.421 0.666,-0.35C0.666,-0.279 0.653,-0.218 0.627,-0.166C0.602,-0.113 0.563,-0.073 0.509,-0.043C0.457,-0.015 0.389,-0 0.307,-0L0.068,-0ZM0.196,-0.11L0.301,-0.11C0.36,-0.11 0.406,-0.119 0.44,-0.139C0.474,-0.158 0.498,-0.185 0.513,-0.221C0.528,-0.256 0.535,-0.299 0.535,-0.35C0.535,-0.4 0.528,-0.443 0.513,-0.479C0.498,-0.515 0.474,-0.543 0.44,-0.562C0.406,-0.581 0.36,-0.591 0.301,-0.591L0.196,-0.591L0.196,-0.11Z" style="fill:rgb(17,18,18);fill-rule:nonzero;"/>
        </g>
        <g transform="matrix(50.258,-7.88861e-31,7.88861e-31,50.258,-88.9038,77)">
            <path d="M0.068,-0L0.068,-0.7L0.525,-0.7L0.525,-0.597L0.196,-0.597L0.196,-0.405L0.495,-0.405L0.495,-0.305L0.196,-0.305L0.196,-0.103L0.525,-0.103L0.525,-0L0.068,-0Z" style="fill:rgb(17,18,18);fill-rule:nonzero;"/>
        </g>
        <g transform="matrix(50.258,-7.88861e-31,7.88861e-31,50.258,-59.8547,77)">
            <path d="M0.068,-0L0.068,-0.7L0.325,-0.7C0.381,-0.7 0.427,-0.691 0.464,-0.672C0.5,-0.653 0.527,-0.627 0.545,-0.595C0.563,-0.562 0.572,-0.526 0.572,-0.487C0.572,-0.444 0.561,-0.405 0.539,-0.37C0.516,-0.335 0.481,-0.309 0.434,-0.293L0.579,-0L0.432,-0L0.302,-0.276L0.196,-0.276L0.196,-0L0.068,-0ZM0.196,-0.37L0.317,-0.37C0.36,-0.37 0.391,-0.38 0.411,-0.401C0.431,-0.422 0.441,-0.449 0.441,-0.483C0.441,-0.516 0.431,-0.543 0.411,-0.563C0.392,-0.583 0.36,-0.593 0.316,-0.593L0.196,-0.593L0.196,-0.37Z" style="fill:rgb(17,18,18);fill-rule:nonzero;"/>
        </g>
        <g transform="matrix(50.258,-7.88861e-31,7.88861e-31,50.258,-16.5826,77)">
            <path d="M0.385,0.012C0.314,0.012 0.254,-0.003 0.203,-0.034C0.152,-0.064 0.113,-0.106 0.086,-0.161C0.059,-0.215 0.045,-0.278 0.045,-0.349C0.045,-0.42 0.059,-0.483 0.086,-0.538C0.113,-0.593 0.152,-0.635 0.203,-0.666C0.254,-0.697 0.314,-0.712 0.385,-0.712C0.469,-0.712 0.538,-0.691 0.592,-0.65C0.645,-0.608 0.679,-0.549 0.692,-0.474L0.551,-0.474C0.542,-0.512 0.524,-0.542 0.496,-0.564C0.467,-0.585 0.43,-0.596 0.383,-0.596C0.318,-0.596 0.268,-0.574 0.231,-0.53C0.194,-0.486 0.176,-0.426 0.176,-0.349C0.176,-0.272 0.194,-0.212 0.231,-0.169C0.268,-0.125 0.318,-0.103 0.383,-0.103C0.43,-0.103 0.467,-0.113 0.496,-0.134C0.524,-0.154 0.542,-0.182 0.551,-0.218L0.692,-0.218C0.679,-0.146 0.645,-0.09 0.592,-0.049C0.538,-0.008 0.469,0.012 0.385,0.012Z" style="fill:rgb(17,18,18);fill-rule:nonzero;"/>
        </g>
        <g transform="matrix(50.258,-7.88861e-31,7.88861e-31,50.258,20.4576,77)">
            <path d="M0.396,0.012C0.326,0.012 0.265,-0.003 0.213,-0.034C0.16,-0.065 0.119,-0.107 0.09,-0.162C0.06,-0.216 0.045,-0.279 0.045,-0.35C0.045,-0.421 0.06,-0.484 0.09,-0.539C0.119,-0.593 0.16,-0.635 0.213,-0.666C0.265,-0.697 0.326,-0.712 0.396,-0.712C0.465,-0.712 0.526,-0.697 0.579,-0.666C0.632,-0.635 0.673,-0.593 0.702,-0.539C0.731,-0.484 0.746,-0.421 0.746,-0.35C0.746,-0.279 0.731,-0.216 0.702,-0.162C0.673,-0.107 0.632,-0.065 0.579,-0.034C0.526,-0.003 0.465,0.012 0.396,0.012ZM0.396,-0.103C0.463,-0.103 0.516,-0.125 0.556,-0.169C0.595,-0.213 0.615,-0.273 0.615,-0.35C0.615,-0.427 0.595,-0.487 0.556,-0.531C0.516,-0.575 0.463,-0.597 0.396,-0.597C0.329,-0.597 0.276,-0.575 0.236,-0.531C0.196,-0.487 0.176,-0.427 0.176,-0.35C0.176,-0.273 0.196,-0.213 0.236,-0.169C0.276,-0.125 0.329,-0.103 0.396,-0.103Z" style="fill:rgb(17,18,18);fill-rule:nonzero;"/>
        </g>
        <g transform="matrix(50.258,-7.88861e-31,7.88861e-31,50.258,60.2116,77)">
            <path d="M0.068,-0L0.068,-0.7L0.196,-0.7L0.525,-0.207L0.525,-0.7L0.653,-0.7L0.653,-0L0.525,-0L0.196,-0.492L0.196,-0L0.068,-0Z" style="fill:rgb(17,18,18);fill-rule:nonzero;"/>
        </g>
        <g transform="matrix(50.258,-7.88861e-31,7.88861e-31,50.258,96.4477,77)">
            <path d="M0.307,0.012C0.256,0.012 0.21,0.003 0.171,-0.015C0.132,-0.032 0.101,-0.058 0.078,-0.091C0.055,-0.124 0.044,-0.164 0.043,-0.211L0.178,-0.211C0.179,-0.178 0.191,-0.151 0.214,-0.129C0.236,-0.106 0.267,-0.095 0.306,-0.095C0.34,-0.095 0.367,-0.103 0.387,-0.119C0.407,-0.136 0.417,-0.158 0.417,-0.185C0.417,-0.214 0.408,-0.236 0.391,-0.252C0.373,-0.268 0.349,-0.281 0.32,-0.291C0.291,-0.301 0.259,-0.312 0.226,-0.323C0.172,-0.342 0.131,-0.366 0.102,-0.395C0.074,-0.424 0.06,-0.463 0.06,-0.512C0.059,-0.553 0.069,-0.589 0.09,-0.619C0.11,-0.648 0.138,-0.671 0.173,-0.688C0.208,-0.704 0.249,-0.712 0.295,-0.712C0.342,-0.712 0.383,-0.704 0.419,-0.687C0.454,-0.67 0.482,-0.647 0.502,-0.617C0.523,-0.587 0.534,-0.551 0.535,-0.51L0.398,-0.51C0.397,-0.535 0.388,-0.557 0.37,-0.576C0.351,-0.595 0.326,-0.604 0.293,-0.604C0.265,-0.605 0.242,-0.598 0.223,-0.584C0.203,-0.569 0.194,-0.548 0.194,-0.521C0.194,-0.498 0.201,-0.479 0.216,-0.466C0.231,-0.452 0.251,-0.44 0.276,-0.431C0.301,-0.422 0.33,-0.412 0.363,-0.401C0.398,-0.389 0.429,-0.375 0.458,-0.359C0.487,-0.343 0.51,-0.322 0.527,-0.296C0.544,-0.269 0.553,-0.235 0.553,-0.194C0.553,-0.157 0.544,-0.123 0.525,-0.092C0.506,-0.061 0.479,-0.035 0.442,-0.017C0.405,0.002 0.36,0.012 0.307,0.012Z" style="fill:rgb(17,18,18);fill-rule:nonzero;"/>
        </g>
        <g transform="matrix(50.258,-7.88861e-31,7.88861e-31,50.258,125.997,77)">
            <path d="M0.231,-0L0.231,-0.597L0.027,-0.597L0.027,-0.7L0.564,-0.7L0.564,-0.597L0.359,-0.597L0.359,-0L0.231,-0Z" style="fill:rgb(17,18,18);fill-rule:nonzero;"/>
        </g>
        <g transform="matrix(50.258,-7.88861e-31,7.88861e-31,50.258,155.699,77)">
            <path d="M0.068,-0L0.068,-0.7L0.325,-0.7C0.381,-0.7 0.427,-0.691 0.464,-0.672C0.5,-0.653 0.527,-0.627 0.545,-0.595C0.563,-0.562 0.572,-0.526 0.572,-0.487C0.572,-0.444 0.561,-0.405 0.539,-0.37C0.516,-0.335 0.481,-0.309 0.434,-0.293L0.579,-0L0.432,-0L0.302,-0.276L0.196,-0.276L0.196,-0L0.068,-0ZM0.196,-0.37L0.317,-0.37C0.36,-0.37 0.391,-0.38 0.411,-0.401C0.431,-0.422 0.441,-0.449 0.441,-0.483C0.441,-0.516 0.431,-0.543 0.411,-0.563C0.392,-0.583 0.36,-0.593 0.316,-0.593L0.196,-0.593L0.196,-0.37Z" style="fill:rgb(17,18,18);fill-rule:nonzero;"/>
        </g>
        <g transform="matrix(50.258,-7.88861e-31,7.88861e-31,50.258,187.01,77)">
            <path d="M0.338,0.012C0.287,0.012 0.24,0.002 0.199,-0.019C0.158,-0.039 0.125,-0.07 0.101,-0.111C0.076,-0.152 0.064,-0.205 0.064,-0.268L0.064,-0.7L0.192,-0.7L0.192,-0.267C0.192,-0.212 0.205,-0.172 0.232,-0.145C0.258,-0.118 0.294,-0.105 0.341,-0.105C0.387,-0.105 0.423,-0.118 0.45,-0.145C0.477,-0.172 0.49,-0.212 0.49,-0.267L0.49,-0.7L0.618,-0.7L0.618,-0.268C0.618,-0.205 0.605,-0.152 0.58,-0.111C0.555,-0.07 0.521,-0.039 0.478,-0.019C0.436,0.002 0.389,0.012 0.338,0.012Z" style="fill:rgb(17,18,18);fill-rule:nonzero;"/>
        </g>
        <g transform="matrix(50.258,-7.88861e-31,7.88861e-31,50.258,221.236,77)">
            <path d="M0.385,0.012C0.314,0.012 0.254,-0.003 0.203,-0.034C0.152,-0.064 0.113,-0.106 0.086,-0.161C0.059,-0.215 0.045,-0.278 0.045,-0.349C0.045,-0.42 0.059,-0.483 0.086,-0.538C0.113,-0.593 0.152,-0.635 0.203,-0.666C0.254,-0.697 0.314,-0.712 0.385,-0.712C0.469,-0.712 0.538,-0.691 0.592,-0.65C0.645,-0.608 0.679,-0.549 0.692,-0.474L0.551,-0.474C0.542,-0.512 0.524,-0.542 0.496,-0.564C0.467,-0.585 0.43,-0.596 0.383,-0.596C0.318,-0.596 0.268,-0.574 0.231,-0.53C0.194,-0.486 0.176,-0.426 0.176,-0.349C0.176,-0.272 0.194,-0.212 0.231,-0.169C0.268,-0.125 0.318,-0.103 0.383,-0.103C0.43,-0.103 0.467,-0.113 0.496,-0.134C0.524,-0.154 0.542,-0.182 0.551,-0.218L0.692,-0.218C0.679,-0.146 0.645,-0.09 0.592,-0.049C0.538,-0.008 0.469,0.012 0.385,0.012Z" style="fill:rgb(17,18,18);fill-rule:nonzero;"/>
        </g>
        <g transform="matrix(50.258,-7.88861e-31,7.88861e-31,50.258,257.823,77)">
            <path d="M0.231,-0L0.231,-0.597L0.027,-0.597L0.027,-0.7L0.564,-0.7L0.564,-0.597L0.359,-0.597L0.359,-0L0.231,-0Z" style="fill:rgb(17,18,18);fill-rule:nonzero;"/>
        </g>
        <g transform="matrix(50.258,-7.88861e-31,7.88861e-31,50.258,287.525,77)">
            <rect x="0.068" y="-0.7" width="0.128" height="0.7" style="fill:rgb(17,18,18);fill-rule:nonzero;"/>
        </g>
        <g transform="matrix(50.258,-7.88861e-31,7.88861e-31,50.258,300.794,77)">
            <path d="M0.396,0.012C0.326,0.012 0.265,-0.003 0.213,-0.034C0.16,-0.065 0.119,-0.107 0.09,-0.162C0.06,-0.216 0.045,-0.279 0.045,-0.35C0.045,-0.421 0.06,-0.484 0.09,-0.539C0.119,-0.593 0.16,-0.635 0.213,-0.666C0.265,-0.697 0.326,-0.712 0.396,-0.712C0.465,-0.712 0.526,-0.697 0.579,-0.666C0.632,-0.635 0.673,-0.593 0.702,-0.539C0.731,-0.484 0.746,-0.421 0.746,-0.35C0.746,-0.279 0.731,-0.216 0.702,-0.162C0.673,-0.107 0.632,-0.065 0.579,-0.034C0.526,-0.003 0.465,0.012 0.396,0.012ZM0.396,-0.103C0.463,-0.103 0.516,-0.125 0.556,-0.169C0.595,-0.213 0.615,-0.273 0.615,-0.35C0.615,-0.427 0.595,-0.487 0.556,-0.531C0.516,-0.575 0.463,-0.597 0.396,-0.597C0.329,-0.597 0.276,-0.575 0.236,-0.531C0.196,-0.487 0.176,-0.427 0.176,-0.35C0.176,-0.273 0.196,-0.213 0.236,-0.169C0.276,-0.125 0.329,-0.103 0.396,-0.103Z" style="fill:rgb(17,18,18);fill-rule:nonzero;"/>
        </g>
        <g transform="matrix(50.258,-7.88861e-31,7.88861e-31,50.258,340.548,77)">
            <path d="M0.068,-0L0.068,-0.7L0.196,-0.7L0.525,-0.207L0.525,-0.7L0.653,-0.7L0.653,-0L0.525,-0L0.196,-0.492L0.196,-0L0.068,-0Z" style="fill:rgb(17,18,18);fill-rule:nonzero;"/>
        </g>
    </g>
</svg>
