<?xml version="1.0" encoding="UTF-8" standalone="no"?>
<!DOCTYPE svg PUBLIC "-//W3C//DTD SVG 1.1//EN" "http://www.w3.org/Graphics/SVG/1.1/DTD/svg11.dtd">
<svg width="100%" height="100%" viewBox="0 0 760 170" version="1.1" xmlns="http://www.w3.org/2000/svg" xmlns:xlink="http://www.w3.org/1999/xlink" xml:space="preserve" xmlns:serif="http://www.serif.com/" style="fill-rule:evenodd;clip-rule:evenodd;stroke-linejoin:round;stroke-miterlimit:2;">
    <g id="pprmint." transform="matrix(1.55808,0,0,1.55808,-4644.98,-1629.46)">
        <g transform="matrix(2.30371,0,0,2.30371,2906.42,951.79)">
            <g transform="matrix(50.2577,0,0,50.2577,29,77)">
                <path d="M0.069,0.22L0.069,-0.496L0.145,-0.496L0.153,-0.414C0.169,-0.438 0.192,-0.46 0.222,-0.479C0.251,-0.498 0.289,-0.508 0.335,-0.508C0.384,-0.508 0.427,-0.497 0.464,-0.474C0.501,-0.451 0.529,-0.42 0.55,-0.381C0.57,-0.342 0.58,-0.297 0.58,-0.247C0.58,-0.197 0.57,-0.153 0.55,-0.114C0.529,-0.075 0.5,-0.044 0.464,-0.021C0.427,0.001 0.383,0.012 0.334,0.012C0.293,0.012 0.257,0.004 0.226,-0.013C0.194,-0.03 0.17,-0.053 0.153,-0.083L0.153,0.22L0.069,0.22ZM0.325,-0.061C0.358,-0.061 0.388,-0.069 0.413,-0.085C0.438,-0.1 0.458,-0.122 0.473,-0.15C0.488,-0.178 0.495,-0.211 0.495,-0.248C0.495,-0.285 0.488,-0.318 0.473,-0.346C0.458,-0.374 0.438,-0.396 0.413,-0.411C0.388,-0.427 0.358,-0.435 0.325,-0.435C0.292,-0.435 0.262,-0.427 0.237,-0.411C0.212,-0.396 0.192,-0.374 0.177,-0.346C0.162,-0.318 0.155,-0.285 0.155,-0.248C0.155,-0.211 0.162,-0.178 0.177,-0.15C0.192,-0.122 0.212,-0.1 0.237,-0.085C0.262,-0.069 0.292,-0.061 0.325,-0.061Z" style="fill:rgb(235,235,235);fill-rule:nonzero;"/>
            </g>
            <g transform="matrix(50.2577,0,0,50.2577,60.5618,77)">
                <path d="M0.069,0.22L0.069,-0.496L0.145,-0.496L0.153,-0.414C0.169,-0.438 0.192,-0.46 0.222,-0.479C0.251,-0.498 0.289,-0.508 0.335,-0.508C0.384,-0.508 0.427,-0.497 0.464,-0.474C0.501,-0.451 0.529,-0.42 0.55,-0.381C0.57,-0.342 0.58,-0.297 0.58,-0.247C0.58,-0.197 0.57,-0.153 0.55,-0.114C0.529,-0.075 0.5,-0.044 0.464,-0.021C0.427,0.001 0.383,0.012 0.334,0.012C0.293,0.012 0.257,0.004 0.226,-0.013C0.194,-0.03 0.17,-0.053 0.153,-0.083L0.153,0.22L0.069,0.22ZM0.325,-0.061C0.358,-0.061 0.388,-0.069 0.413,-0.085C0.438,-0.1 0.458,-0.122 0.473,-0.15C0.488,-0.178 0.495,-0.211 0.495,-0.248C0.495,-0.285 0.488,-0.318 0.473,-0.346C0.458,-0.374 0.438,-0.396 0.413,-0.411C0.388,-0.427 0.358,-0.435 0.325,-0.435C0.292,-0.435 0.262,-0.427 0.237,-0.411C0.212,-0.396 0.192,-0.374 0.177,-0.346C0.162,-0.318 0.155,-0.285 0.155,-0.248C0.155,-0.211 0.162,-0.178 0.177,-0.15C0.192,-0.122 0.212,-0.1 0.237,-0.085C0.262,-0.069 0.292,-0.061 0.325,-0.061Z" style="fill:rgb(235,235,235);fill-rule:nonzero;"/>
            </g>
            <g transform="matrix(50.2577,0,0,50.2577,92.1236,77)">
                <path d="M0.069,-0L0.069,-0.496L0.145,-0.496L0.152,-0.401C0.167,-0.434 0.191,-0.46 0.222,-0.479C0.253,-0.498 0.292,-0.508 0.338,-0.508L0.338,-0.42L0.315,-0.42C0.286,-0.42 0.259,-0.415 0.234,-0.405C0.209,-0.394 0.19,-0.377 0.175,-0.352C0.16,-0.327 0.153,-0.293 0.153,-0.25L0.153,-0L0.069,-0Z" style="fill:rgb(235,235,235);fill-rule:nonzero;"/>
            </g>
            <g transform="matrix(50.2577,0,0,50.2577,110.367,77)">
                <path d="M0.069,-0L0.069,-0.496L0.145,-0.496L0.151,-0.424C0.167,-0.451 0.188,-0.471 0.215,-0.486C0.242,-0.501 0.272,-0.508 0.305,-0.508C0.344,-0.508 0.378,-0.5 0.406,-0.484C0.435,-0.468 0.457,-0.444 0.472,-0.411C0.489,-0.441 0.513,-0.465 0.544,-0.482C0.574,-0.499 0.607,-0.508 0.642,-0.508C0.701,-0.508 0.749,-0.49 0.784,-0.455C0.819,-0.419 0.837,-0.364 0.837,-0.29L0.837,-0L0.754,-0L0.754,-0.281C0.754,-0.332 0.744,-0.371 0.723,-0.397C0.702,-0.423 0.673,-0.436 0.634,-0.436C0.594,-0.436 0.561,-0.421 0.535,-0.39C0.508,-0.359 0.495,-0.314 0.495,-0.257L0.495,-0L0.411,-0L0.411,-0.281C0.411,-0.332 0.401,-0.371 0.38,-0.397C0.359,-0.423 0.33,-0.436 0.291,-0.436C0.252,-0.436 0.219,-0.421 0.193,-0.39C0.166,-0.359 0.153,-0.314 0.153,-0.257L0.153,-0L0.069,-0Z" style="fill:rgb(235,235,235);fill-rule:nonzero;"/>
            </g>
            <g transform="matrix(50.2577,0,0,50.2577,155.348,77)">
                <path d="M0.12,-0.606C0.103,-0.606 0.09,-0.612 0.079,-0.623C0.068,-0.633 0.062,-0.647 0.062,-0.664C0.062,-0.68 0.068,-0.693 0.079,-0.704C0.09,-0.715 0.103,-0.72 0.12,-0.72C0.136,-0.72 0.15,-0.715 0.161,-0.704C0.172,-0.693 0.178,-0.68 0.178,-0.664C0.178,-0.647 0.172,-0.633 0.161,-0.623C0.15,-0.612 0.136,-0.606 0.12,-0.606ZM0.078,-0L0.078,-0.496L0.162,-0.496L0.162,-0L0.078,-0Z" style="fill:rgb(235,235,235);fill-rule:nonzero;"/>
            </g>
            <g transform="matrix(50.2577,0,0,50.2577,167.359,77)">
                <path d="M0.069,-0L0.069,-0.496L0.145,-0.496L0.15,-0.407C0.166,-0.438 0.189,-0.463 0.219,-0.481C0.249,-0.499 0.283,-0.508 0.321,-0.508C0.38,-0.508 0.427,-0.49 0.462,-0.455C0.497,-0.419 0.514,-0.364 0.514,-0.29L0.514,-0L0.43,-0L0.43,-0.281C0.43,-0.384 0.387,-0.436 0.302,-0.436C0.259,-0.436 0.224,-0.421 0.196,-0.39C0.167,-0.359 0.153,-0.314 0.153,-0.257L0.153,-0L0.069,-0Z" style="fill:rgb(235,235,235);fill-rule:nonzero;"/>
            </g>
            <g transform="matrix(50.2577,0,0,50.2577,196.107,77)">
                <path d="M0.265,-0C0.22,-0 0.184,-0.011 0.158,-0.033C0.132,-0.055 0.119,-0.095 0.119,-0.152L0.119,-0.425L0.033,-0.425L0.033,-0.496L0.119,-0.496L0.13,-0.615L0.203,-0.615L0.203,-0.496L0.349,-0.496L0.349,-0.425L0.203,-0.425L0.203,-0.152C0.203,-0.121 0.209,-0.1 0.222,-0.089C0.235,-0.078 0.257,-0.072 0.289,-0.072L0.341,-0.072L0.341,-0L0.265,-0Z" style="fill:rgb(235,235,235);fill-rule:nonzero;"/>
            </g>
        </g>
        <g transform="matrix(2.24708,0,0,2.24708,2909.19,930.139)">
            <path d="M227.273,88.567L231.216,88.567C241.102,88.567 249.127,80.542 249.127,70.656L249.127,66.713L245.431,66.713L245.431,70.656C245.431,78.501 239.061,84.871 231.216,84.871L227.273,84.871L227.273,88.567Z" style="fill:rgb(35,149,86);"/>
        </g>
        <g transform="matrix(2.24708,0,0,2.24708,2909.19,930.139)">
            <path d="M249.127,63.016L241.488,63.016C231.602,63.016 223.576,71.042 223.576,80.928L223.576,88.567L227.273,88.567L227.273,80.928C227.273,73.082 233.643,66.713 241.488,66.713L249.127,66.713L249.127,63.016Z" style="fill:rgb(56,209,127);"/>
        </g>
    </g>
</svg>
