<?xml version="1.0" encoding="UTF-8" standalone="no"?>
<!DOCTYPE svg PUBLIC "-//W3C//DTD SVG 1.1//EN" "http://www.w3.org/Graphics/SVG/1.1/DTD/svg11.dtd">
<svg width="100%" height="100%" viewBox="0 0 1280 720" version="1.1" xmlns="http://www.w3.org/2000/svg" xmlns:xlink="http://www.w3.org/1999/xlink" xml:space="preserve" xmlns:serif="http://www.serif.com/" style="fill-rule:evenodd;clip-rule:evenodd;stroke-linejoin:round;stroke-miterlimit:2;">
    <g transform="matrix(1.79171,0,0,1.79171,-37.6067,-447.65)">
        <g transform="matrix(0.558127,0,0,0.558127,20.9893,249.845)">
            <path d="M895.293,533.234C900.813,533.234 905.293,528.751 905.293,523.234C905.293,523.234 905.293,65 905.293,65C905.293,59.48 900.813,55 895.293,55L65.1,55C59.58,55 55.1,59.48 55.1,65L55.1,523.234C55.1,528.751 59.58,533.234 65.1,533.234C65.1,533.234 895.293,533.234 895.293,533.234Z" style="fill:rgb(17,17,17);"/>
            <path d="M473.196,540.234L473.196,658L303.713,658C299.85,658 296.713,661.137 296.713,665C296.713,668.863 299.85,672 303.713,672L656.679,672C660.543,672 663.679,668.863 663.679,665C663.679,661.137 660.543,658 656.679,658L487.196,658L487.196,540.234L895.293,540.234C904.675,540.234 912.293,532.616 912.293,523.234L912.293,65C912.293,55.617 904.675,48 895.293,48L65.1,48C55.717,48 48.1,55.617 48.1,65L48.1,523.234C48.1,532.616 55.717,540.234 65.1,540.234L473.196,540.234ZM895.293,526.234L65.1,526.234C63.444,526.234 62.1,524.889 62.1,523.234L62.1,65C62.1,63.344 63.444,62 65.1,62L895.293,62C896.949,62 898.293,63.344 898.293,65L898.293,523.234C898.293,524.889 896.949,526.234 895.293,526.234Z" style="fill:rgb(51,51,51);"/>
        </g>
        <g transform="matrix(0.385159,0,0,0.397195,51.7421,280.542)">
            <g transform="matrix(1.44908,0,0,1.40517,-79.8443,-77.2844)">
                <path d="M279.805,259.812L279.805,387.242C279.805,393.865 285.182,399.242 291.805,399.242L668.588,399.242C675.211,399.242 680.588,393.865 680.588,387.242L680.588,259.812C680.588,253.189 675.211,247.812 668.588,247.812L291.805,247.812C285.182,247.812 279.805,253.189 279.805,259.812Z" style="fill:rgb(17,153,255);"/>
            </g>
            <g transform="matrix(1.44908,0,0,1.40517,-79.8443,-77.2844)">
                <path d="M279.805,442.116L279.805,526.234L680.588,526.234L680.588,442.116C680.588,435.493 675.211,430.116 668.588,430.116L291.805,430.116C285.182,430.116 279.805,435.493 279.805,442.116Z" style="fill:rgb(17,119,187);"/>
            </g>
            <g transform="matrix(0.859169,0,0,0.833133,8.56541,-33.1498)">
                <g transform="matrix(0.425677,0,0,1.21322,138.567,16.0335)">
                    <path d="M48,201.731L267,201.731C282.307,201.731 294.735,197.371 294.735,192C294.735,186.629 282.307,182.269 267,182.269L48,182.269C32.693,182.269 20.265,186.629 20.265,192C20.265,197.371 32.693,201.731 48,201.731Z" style="fill:rgb(238,238,238);"/>
                </g>
                <g transform="matrix(1.68661,0,0,1.68661,-68.5613,-52.9742)">
                    <circle cx="212" cy="179.025" r="7" style="fill:rgb(0,204,102);"/>
                </g>
                <g transform="matrix(0.228311,0,0,1.21322,228.041,64.5622)">
                    <path d="M48,201.731L267,201.731C295.54,201.731 318.711,197.371 318.711,192C318.711,186.629 295.54,182.269 267,182.269L48,182.269C19.46,182.269 -3.711,186.629 -3.711,192C-3.711,197.371 19.46,201.731 48,201.731Z" style="fill:rgb(238,238,238);fill-opacity:0.5;"/>
                </g>
                <g transform="matrix(0.26484,0,0,1.21322,218.288,113.091)">
                    <path d="M48,201.731L267,201.731C291.604,201.731 311.579,197.371 311.579,192C311.579,186.629 291.604,182.269 267,182.269L48,182.269C23.396,182.269 3.421,186.629 3.421,192C3.421,197.371 23.396,201.731 48,201.731Z" style="fill:rgb(238,238,238);fill-opacity:0.5;"/>
                </g>
                <g transform="matrix(0.360731,0,0,1.21322,192.685,161.62)">
                    <path d="M48,201.731L267,201.731C285.063,201.731 299.729,197.371 299.729,192C299.729,186.629 285.063,182.269 267,182.269L48,182.269C29.937,182.269 15.271,186.629 15.271,192C15.271,197.371 29.937,201.731 48,201.731Z" style="fill:rgb(238,238,238);fill-opacity:0.5;"/>
                </g>
                <g transform="matrix(0.671729,0,0,1.21322,109.648,210.148)">
                    <path d="M48,201.731L267,201.731C276.7,201.731 284.576,197.371 284.576,192C284.576,186.629 276.7,182.269 267,182.269L48,182.269C38.3,182.269 30.424,186.629 30.424,192C30.424,197.371 38.3,201.731 48,201.731Z" style="fill:rgb(238,238,238);fill-opacity:0.5;"/>
                </g>
            </g>
            <g transform="matrix(1.92781,0,0,1.86939,-132.716,-243.446)">
                <path d="M249.903,244.531C256,244.531 262.708,240.8 263.318,230.74L250.627,230.74L250.627,234.736L258.135,234.736C257.029,238.551 253.561,240.115 249.941,240.115C244.681,240.115 241.023,236.11 241.023,230.663C241.023,225.287 244.643,221.245 249.903,221.245C253.371,221.245 256.382,223.113 257.677,226.164L262.67,226.164C260.879,220.369 255.924,216.829 249.903,216.829C241.937,216.829 236.225,222.846 236.225,230.663C236.225,238.551 241.937,244.493 249.903,244.531Z" style="fill:rgb(238,238,238);fill-rule:nonzero;"/>
                <path d="M277.079,244.493C283.217,244.493 287.633,239.962 287.633,234.015C287.633,228.067 283.255,223.536 277.117,223.536C270.978,223.536 266.562,228.067 266.562,234.015C266.562,240.001 270.94,244.493 277.079,244.493ZM277.079,240.229C273.609,240.229 271.131,237.637 271.131,234.015C271.131,230.469 273.571,227.8 277.079,227.8C280.586,227.8 283.064,230.469 283.064,234.015C283.064,237.599 280.586,240.229 277.079,240.229Z" style="fill:rgb(238,238,238);fill-rule:nonzero;"/>
                <path d="M301.203,244.493C307.341,244.493 311.758,239.962 311.758,234.015C311.758,228.067 307.38,223.536 301.241,223.536C295.103,223.536 290.687,228.067 290.687,234.015C290.687,240.001 295.065,244.493 301.203,244.493ZM301.203,240.229C297.734,240.229 295.255,237.637 295.255,234.015C295.255,230.469 297.696,227.8 301.203,227.8C304.711,227.8 307.189,230.469 307.189,234.015C307.189,237.599 304.711,240.229 301.203,240.229Z" style="fill:rgb(238,238,238);fill-rule:nonzero;"/>
                <path d="M324.299,244.493C327.768,244.493 329.408,242.666 330.247,241.638L330.59,241.638L330.59,243.998L335.006,243.998L335.006,215.419L330.513,215.419L330.513,226.582L330.17,226.582C329.293,225.44 327.578,223.536 324.032,223.536C318.657,223.536 314.811,228.067 314.811,234.012C314.811,240.077 318.923,244.493 324.299,244.493ZM325.023,240.306C321.897,240.306 319.342,237.827 319.342,234.053C319.342,230.355 321.782,227.762 324.985,227.762C328.073,227.762 330.628,230.088 330.628,234.053C330.628,237.446 328.416,240.306 325.023,240.306Z" style="fill:rgb(238,238,238);fill-rule:nonzero;"/>
                <path d="M358.635,243.998L362.141,243.998L362.141,240.001L358.673,240.001C357.301,240.001 356.73,239.391 356.73,237.98L356.73,227.991L362.37,227.991L362.37,224.032L356.73,224.032L356.73,218.429L352.466,218.429L352.466,224.032L348.731,224.032L348.731,227.991L352.199,227.991L352.199,238.018C352.199,242.247 354.75,243.998 358.635,243.998Z" style="fill:rgb(238,238,238);fill-rule:nonzero;"/>
                <path d="M376.131,244.493C382.269,244.493 386.685,239.962 386.685,234.015C386.685,228.067 382.307,223.536 376.169,223.536C370.031,223.536 365.614,228.067 365.614,234.015C365.614,240.001 369.993,244.493 376.131,244.493ZM376.131,240.229C372.661,240.229 370.183,237.637 370.183,234.015C370.183,230.469 372.623,227.8 376.131,227.8C379.638,227.8 382.117,230.469 382.117,234.015C382.117,237.599 379.638,240.229 376.131,240.229Z" style="fill:rgb(238,238,238);fill-rule:nonzero;"/>
                <path d="M399.226,244.493C402.696,244.493 404.335,242.666 405.174,241.638L405.517,241.638L405.517,243.998L409.933,243.998L409.933,215.419L405.441,215.419L405.441,226.582L405.098,226.582C404.221,225.44 402.505,223.536 398.959,223.536C393.584,223.536 389.739,228.067 389.739,234.012C389.739,240.077 393.851,244.493 399.226,244.493ZM399.951,240.306C396.824,240.306 394.27,237.827 394.27,234.053C394.27,230.355 396.71,227.762 399.912,227.762C403.001,227.762 405.555,230.088 405.555,234.053C405.555,237.446 403.344,240.306 399.951,240.306Z" style="fill:rgb(238,238,238);fill-rule:nonzero;"/>
                <path d="M423.351,244.493C426.82,244.493 428.574,242.703 429.337,241.485L429.68,241.485C429.832,242.779 430.746,243.998 432.536,243.998L435.926,243.998L435.926,240.19L435.05,240.19C434.44,240.19 434.136,239.848 434.136,239.315L434.136,224.032L429.642,224.032L429.642,226.468L429.299,226.468C428.422,225.25 426.592,223.536 423.236,223.536C417.899,223.536 413.94,227.953 413.94,234.015C413.94,240.076 417.976,244.493 423.351,244.493ZM424.151,240.152C420.987,240.152 418.509,237.828 418.509,234.053C418.509,230.355 420.911,227.838 424.113,227.838C427.164,227.838 429.718,230.088 429.718,234.053C429.718,237.446 427.545,240.152 424.151,240.152Z" style="fill:rgb(238,238,238);fill-rule:nonzero;"/>
                <path d="M439.208,252.763L442.065,252.763C444.999,252.763 447.323,251.583 448.39,248.842L457.764,224.032L452.886,224.032L447.704,239.692L447.362,239.692L442.675,224.032L437.836,224.032L444.694,243.998L445.799,243.998L444.694,246.783C444.199,248.042 443.437,248.652 442.065,248.652L439.208,248.652L439.208,252.763Z" style="fill:rgb(238,238,238);fill-rule:nonzero;"/>
                <path d="M461.691,244.493C463.253,244.493 464.471,243.275 464.471,241.751C464.471,240.228 463.253,238.972 461.691,238.972C460.168,238.972 458.874,240.228 458.874,241.751C458.874,243.275 460.168,244.493 461.691,244.493Z" style="fill:rgb(238,238,238);fill-rule:nonzero;"/>
            </g>
            <g transform="matrix(0.687748,0,0,1.33117,57.3715,350.117)">
                <path d="M48,199.389L267,199.389C275.14,199.389 281.749,196.078 281.749,192C281.749,187.922 275.14,184.611 267,184.611L48,184.611C39.86,184.611 33.251,187.922 33.251,192C33.251,196.078 39.86,199.389 48,199.389Z" style="fill:rgb(238,238,238);fill-opacity:0.25;"/>
            </g>
            <g transform="matrix(1.13152,0,0,1.09723,-70.1689,-98.9015)">
                <g transform="matrix(1.43087,0,0,1.43087,99.4353,-16.7511)">
                    <circle cx="687" cy="460.504" r="12.496" style="fill:rgb(238,238,238);"/>
                </g>
                <g transform="matrix(1.43087,0,0,1.43087,46.5542,-16.7511)">
                    <circle cx="687" cy="460.504" r="12.496" style="fill:rgb(238,238,238);"/>
                </g>
                <g transform="matrix(1.43087,0,0,1.43087,-6.32696,-16.7511)">
                    <circle cx="687" cy="460.504" r="12.496" style="fill:rgb(238,238,238);"/>
                </g>
                <g transform="matrix(1.43087,0,0,1.43087,-59.2081,-16.7511)">
                    <circle cx="687" cy="460.504" r="12.496" style="fill:rgb(238,238,238);"/>
                </g>
            </g>
        </g>
    </g>
    <g transform="matrix(0.940887,0,0,0.940887,20.8374,21.2808)">
        <g transform="matrix(1.06283,0,0,1.06283,-22.1466,-22.6178)">
            <path d="M1174.4,294.117C1170.53,294.117 1167.4,297.251 1167.4,301.117L1167.4,309.226C1167.4,310.882 1166.06,312.226 1164.4,312.226L1088.51,312.226C1086.86,312.226 1085.51,310.882 1085.51,309.226C1085.51,309.226 1085.51,301.117 1085.51,301.117C1085.51,297.251 1082.38,294.117 1078.51,294.117L1048.02,294.117C1036.97,294.117 1028.02,303.079 1028.02,314.117L1028.02,645C1028.02,656.038 1036.97,665 1048.02,665C1048.02,665 1204.9,665 1204.9,665C1215.95,665 1224.9,656.038 1224.9,645C1224.9,645 1224.9,314.117 1224.9,314.117C1224.9,303.079 1215.95,294.117 1204.9,294.117C1204.9,294.117 1174.4,294.117 1174.4,294.117Z" style="fill:rgb(17,17,17);"/>
            <path d="M1231.9,314.117C1231.9,299.215 1219.8,287.117 1204.9,287.117L1048.02,287.117C1033.12,287.117 1021.02,299.215 1021.02,314.117L1021.02,645C1021.02,659.902 1033.12,672 1048.02,672L1204.9,672C1219.8,672 1231.9,659.902 1231.9,645L1231.9,314.117ZM1174.4,301.117L1174.4,309.226C1174.4,314.745 1169.92,319.226 1164.4,319.226L1088.51,319.226C1083,319.226 1078.51,314.745 1078.51,309.226L1078.51,301.117L1048.02,301.117C1040.84,301.117 1035.02,306.942 1035.02,314.117L1035.02,645C1035.02,652.175 1040.84,658 1048.02,658L1204.9,658C1212.08,658 1217.9,652.175 1217.9,645L1217.9,314.117C1217.9,306.942 1212.08,301.117 1204.9,301.117L1174.4,301.117Z" style="fill:rgb(51,51,51);"/>
        </g>
        <g>
            <g transform="matrix(0.50259,0,0,0.50259,1104.42,243.372)">
                <g transform="matrix(0.425677,0,0,1.21322,138.567,16.0335)">
                    <path d="M48,204.201L267,204.201C286.193,204.201 301.775,198.734 301.775,192C301.775,185.266 286.193,179.799 267,179.799L48,179.799C28.807,179.799 13.225,185.266 13.225,192C13.225,198.734 28.807,204.201 48,204.201Z" style="fill:rgb(238,238,238);"/>
                </g>
                <g transform="matrix(2.1147,0,0,2.1147,-2199.91,-529.238)">
                    <circle cx="1177" cy="368" r="7" style="fill:rgb(0,204,102);"/>
                </g>
                <g transform="matrix(0.228311,0,0,1.21322,228.041,64.5622)">
                    <path d="M48,204.201L267,204.201C302.784,204.201 331.837,198.734 331.837,192C331.837,185.266 302.784,179.799 267,179.799L48,179.799C12.216,179.799 -16.837,185.266 -16.837,192C-16.837,198.734 12.216,204.201 48,204.201Z" style="fill:rgb(238,238,238);fill-opacity:0.5;"/>
                </g>
                <g transform="matrix(0.26484,0,0,1.21322,218.288,113.091)">
                    <path d="M48,204.201L267,204.201C297.849,204.201 322.894,198.734 322.894,192C322.894,185.266 297.849,179.799 267,179.799L48,179.799C17.151,179.799 -7.894,185.266 -7.894,192C-7.894,198.734 17.151,204.201 48,204.201Z" style="fill:rgb(238,238,238);fill-opacity:0.5;"/>
                </g>
                <g transform="matrix(0.360731,0,0,1.21322,192.685,161.62)">
                    <path d="M48,204.201L267,204.201C289.648,204.201 308.036,198.734 308.036,192C308.036,185.266 289.648,179.799 267,179.799L48,179.799C25.352,179.799 6.964,185.266 6.964,192C6.964,198.734 25.352,204.201 48,204.201Z" style="fill:rgb(238,238,238);fill-opacity:0.5;"/>
                </g>
                <g transform="matrix(0.671729,0,0,1.21322,109.648,210.148)">
                    <path d="M48,204.201L267,204.201C279.163,204.201 289.037,198.734 289.037,192C289.037,185.266 279.163,179.799 267,179.799L48,179.799C35.837,179.799 25.963,185.266 25.963,192C25.963,198.734 35.837,204.201 48,204.201Z" style="fill:rgb(238,238,238);fill-opacity:0.5;"/>
                </g>
            </g>
            <g transform="matrix(0.638996,0,0,0.638996,942.492,359.661)">
                <path d="M249.903,244.531C256,244.531 262.708,240.8 263.318,230.74L250.627,230.74L250.627,234.736L258.135,234.736C257.029,238.551 253.561,240.115 249.941,240.115C244.681,240.115 241.023,236.11 241.023,230.663C241.023,225.287 244.643,221.245 249.903,221.245C253.371,221.245 256.382,223.113 257.677,226.164L262.67,226.164C260.879,220.369 255.924,216.829 249.903,216.829C241.937,216.829 236.225,222.846 236.225,230.663C236.225,238.551 241.937,244.493 249.903,244.531Z" style="fill:rgb(238,238,238);fill-rule:nonzero;"/>
                <path d="M277.079,244.493C283.217,244.493 287.633,239.962 287.633,234.015C287.633,228.067 283.255,223.536 277.117,223.536C270.978,223.536 266.562,228.067 266.562,234.015C266.562,240.001 270.94,244.493 277.079,244.493ZM277.079,240.229C273.609,240.229 271.131,237.637 271.131,234.015C271.131,230.469 273.571,227.8 277.079,227.8C280.586,227.8 283.064,230.469 283.064,234.015C283.064,237.599 280.586,240.229 277.079,240.229Z" style="fill:rgb(238,238,238);fill-rule:nonzero;"/>
                <path d="M301.203,244.493C307.341,244.493 311.758,239.962 311.758,234.015C311.758,228.067 307.38,223.536 301.241,223.536C295.103,223.536 290.687,228.067 290.687,234.015C290.687,240.001 295.065,244.493 301.203,244.493ZM301.203,240.229C297.734,240.229 295.255,237.637 295.255,234.015C295.255,230.469 297.696,227.8 301.203,227.8C304.711,227.8 307.189,230.469 307.189,234.015C307.189,237.599 304.711,240.229 301.203,240.229Z" style="fill:rgb(238,238,238);fill-rule:nonzero;"/>
                <path d="M324.299,244.493C327.768,244.493 329.408,242.666 330.247,241.638L330.59,241.638L330.59,243.998L335.006,243.998L335.006,215.419L330.513,215.419L330.513,226.582L330.17,226.582C329.293,225.44 327.578,223.536 324.032,223.536C318.657,223.536 314.811,228.067 314.811,234.012C314.811,240.077 318.923,244.493 324.299,244.493ZM325.023,240.306C321.897,240.306 319.342,237.827 319.342,234.053C319.342,230.355 321.782,227.762 324.985,227.762C328.073,227.762 330.628,230.088 330.628,234.053C330.628,237.446 328.416,240.306 325.023,240.306Z" style="fill:rgb(238,238,238);fill-rule:nonzero;"/>
                <path d="M358.635,243.998L362.141,243.998L362.141,240.001L358.673,240.001C357.301,240.001 356.73,239.391 356.73,237.98L356.73,227.991L362.37,227.991L362.37,224.032L356.73,224.032L356.73,218.429L352.466,218.429L352.466,224.032L348.731,224.032L348.731,227.991L352.199,227.991L352.199,238.018C352.199,242.247 354.75,243.998 358.635,243.998Z" style="fill:rgb(238,238,238);fill-rule:nonzero;"/>
                <path d="M376.131,244.493C382.269,244.493 386.685,239.962 386.685,234.015C386.685,228.067 382.307,223.536 376.169,223.536C370.031,223.536 365.614,228.067 365.614,234.015C365.614,240.001 369.993,244.493 376.131,244.493ZM376.131,240.229C372.661,240.229 370.183,237.637 370.183,234.015C370.183,230.469 372.623,227.8 376.131,227.8C379.638,227.8 382.117,230.469 382.117,234.015C382.117,237.599 379.638,240.229 376.131,240.229Z" style="fill:rgb(238,238,238);fill-rule:nonzero;"/>
                <path d="M399.226,244.493C402.696,244.493 404.335,242.666 405.174,241.638L405.517,241.638L405.517,243.998L409.933,243.998L409.933,215.419L405.441,215.419L405.441,226.582L405.098,226.582C404.221,225.44 402.505,223.536 398.959,223.536C393.584,223.536 389.739,228.067 389.739,234.012C389.739,240.077 393.851,244.493 399.226,244.493ZM399.951,240.306C396.824,240.306 394.27,237.827 394.27,234.053C394.27,230.355 396.71,227.762 399.912,227.762C403.001,227.762 405.555,230.088 405.555,234.053C405.555,237.446 403.344,240.306 399.951,240.306Z" style="fill:rgb(238,238,238);fill-rule:nonzero;"/>
                <path d="M423.351,244.493C426.82,244.493 428.574,242.703 429.337,241.485L429.68,241.485C429.832,242.779 430.746,243.998 432.536,243.998L435.926,243.998L435.926,240.19L435.05,240.19C434.44,240.19 434.136,239.848 434.136,239.315L434.136,224.032L429.642,224.032L429.642,226.468L429.299,226.468C428.422,225.25 426.592,223.536 423.236,223.536C417.899,223.536 413.94,227.953 413.94,234.015C413.94,240.076 417.976,244.493 423.351,244.493ZM424.151,240.152C420.987,240.152 418.509,237.828 418.509,234.053C418.509,230.355 420.911,227.838 424.113,227.838C427.164,227.838 429.718,230.088 429.718,234.053C429.718,237.446 427.545,240.152 424.151,240.152Z" style="fill:rgb(238,238,238);fill-rule:nonzero;"/>
                <path d="M439.208,252.763L442.065,252.763C444.999,252.763 447.323,251.583 448.39,248.842L457.764,224.032L452.886,224.032L447.704,239.692L447.362,239.692L442.675,224.032L437.836,224.032L444.694,243.998L445.799,243.998L444.694,246.783C444.199,248.042 443.437,248.652 442.065,248.652L439.208,248.652L439.208,252.763Z" style="fill:rgb(238,238,238);fill-rule:nonzero;"/>
                <path d="M461.691,244.493C463.253,244.493 464.471,243.275 464.471,241.751C464.471,240.228 463.253,238.972 461.691,238.972C460.168,238.972 458.874,240.228 458.874,241.751C458.874,243.275 460.168,244.493 461.691,244.493Z" style="fill:rgb(238,238,238);fill-rule:nonzero;"/>
            </g>
            <g transform="matrix(1.06283,0,0,1.06283,-22.1466,-22.6178)">
                <path d="M1203.68,580.747L1203.68,540.753C1203.68,534.13 1198.31,528.753 1191.68,528.753L1060.98,528.753C1054.35,528.753 1048.98,534.13 1048.98,540.753L1048.98,580.747C1048.98,587.37 1054.35,592.747 1060.98,592.747L1191.68,592.747C1198.31,592.747 1203.68,587.37 1203.68,580.747Z" style="fill:rgb(17,153,255);"/>
            </g>
            <g transform="matrix(1.06283,0,0,1.06283,-22.1466,-22.6178)">
                <path d="M1048.98,658L1203.68,658L1203.68,620.006C1203.68,613.383 1198.31,608.006 1191.68,608.006L1060.98,608.006C1054.35,608.006 1048.98,613.383 1048.98,620.006L1048.98,658Z" style="fill:rgb(17,119,187);"/>
            </g>
        </g>
    </g>
</svg>
