<svg viewBox="0 0 1280 720" xmlns="http://www.w3.org/2000/svg" xml:space="preserve" style="fill-rule:evenodd;clip-rule:evenodd;stroke-linejoin:round;stroke-miterlimit:2"><path d="M895.293 533.234c5.52 0 10-4.483 10-10V65c0-5.52-4.48-10-10-10H65.1c-5.52 0-10 4.48-10 10v458.234c0 5.517 4.48 10 10 10h830.193Z" style="fill:#111"/><path d="M473.196 540.234V658H303.713c-3.863 0-7 3.137-7 7s3.137 7 7 7h352.966c3.864 0 7-3.137 7-7s-3.136-7-7-7H487.196V540.234h408.097c9.382 0 17-7.618 17-17V65c0-9.383-7.618-17-17-17H65.1c-9.383 0-17 7.617-17 17v458.234c0 9.382 7.617 17 17 17h408.096Zm422.097-14H65.1c-1.656 0-3-1.345-3-3V65c0-1.656 1.344-3 3-3h830.193c1.656 0 3 1.344 3 3v458.234c0 1.655-1.344 3-3 3Z" style="fill:#333"/><path d="M279.805 259.812v127.43c0 6.623 5.377 12 12 12h376.783c6.623 0 12-5.377 12-12v-127.43c0-6.623-5.377-12-12-12H291.805c-6.623 0-12 5.377-12 12Z" style="fill:#19f"/><path d="M279.805 442.116v84.118h400.783v-84.118c0-6.623-5.377-12-12-12H291.805c-6.623 0-12 5.377-12 12Z" style="fill:#17b"/><path d="M48 201.731h219c15.307 0 27.735-4.36 27.735-9.731 0-5.371-12.428-9.731-27.735-9.731H48c-15.307 0-27.735 4.36-27.735 9.731 0 5.371 12.428 9.731 27.735 9.731Z" style="fill:#eee" transform="matrix(.25239 0 0 .71933 143.168 40.915)"/><circle cx="212" cy="179.025" r="7" style="fill:#0c6" transform="translate(20.36)"/><path d="M48 201.731h219c28.54 0 51.711-4.36 51.711-9.731 0-5.371-23.171-9.731-51.711-9.731H48c-28.54 0-51.711 4.36-51.711 9.731 0 5.371 23.171 9.731 51.711 9.731Z" style="fill:#eee;fill-opacity:.5" transform="matrix(.13537 0 0 .71933 196.218 69.688)"/><path d="M48 201.731h219c24.604 0 44.579-4.36 44.579-9.731 0-5.371-19.975-9.731-44.579-9.731H48c-24.604 0-44.579 4.36-44.579 9.731 0 5.371 19.975 9.731 44.579 9.731Z" style="fill:#eee;fill-opacity:.5" transform="matrix(.15703 0 0 .71933 190.435 98.46)"/><path d="M48 201.731h219c18.063 0 32.729-4.36 32.729-9.731 0-5.371-14.666-9.731-32.729-9.731H48c-18.063 0-32.729 4.36-32.729 9.731 0 5.371 14.666 9.731 32.729 9.731Z" style="fill:#eee;fill-opacity:.5" transform="matrix(.21388 0 0 .71933 175.255 127.234)"/><path d="M48 201.731h219c9.7 0 17.576-4.36 17.576-9.731 0-5.371-7.876-9.731-17.576-9.731H48c-9.7 0-17.576 4.36-17.576 9.731 0 5.371 7.876 9.731 17.576 9.731Z" style="fill:#eee;fill-opacity:.5" transform="matrix(.39827 0 0 .71933 126.022 156.007)"/><path d="M249.903 244.531c6.097 0 12.805-3.731 13.415-13.791h-12.691v3.996h7.508c-1.106 3.815-4.574 5.379-8.194 5.379-5.26 0-8.918-4.005-8.918-9.452 0-5.376 3.62-9.418 8.88-9.418 3.468 0 6.479 1.868 7.774 4.919h4.993c-1.791-5.795-6.746-9.335-12.767-9.335-7.966 0-13.678 6.017-13.678 13.834 0 7.888 5.712 13.83 13.678 13.868Zm27.176-.038c6.138 0 10.554-4.531 10.554-10.478 0-5.948-4.378-10.479-10.516-10.479-6.139 0-10.555 4.531-10.555 10.479 0 5.986 4.378 10.478 10.517 10.478Zm0-4.264c-3.47 0-5.948-2.592-5.948-6.214 0-3.546 2.44-6.215 5.948-6.215 3.507 0 5.985 2.669 5.985 6.215 0 3.584-2.478 6.214-5.985 6.214Zm24.124 4.264c6.138 0 10.555-4.531 10.555-10.478 0-5.948-4.378-10.479-10.517-10.479-6.138 0-10.554 4.531-10.554 10.479 0 5.986 4.378 10.478 10.516 10.478Zm0-4.264c-3.469 0-5.948-2.592-5.948-6.214 0-3.546 2.441-6.215 5.948-6.215 3.508 0 5.986 2.669 5.986 6.215 0 3.584-2.478 6.214-5.986 6.214Zm23.096 4.264c3.469 0 5.109-1.827 5.948-2.855h.343v2.36h4.416v-28.579h-4.493v11.163h-.343c-.877-1.142-2.592-3.046-6.138-3.046-5.375 0-9.221 4.531-9.221 10.476 0 6.065 4.112 10.481 9.488 10.481Zm.724-4.187c-3.126 0-5.681-2.479-5.681-6.253 0-3.698 2.44-6.291 5.643-6.291 3.088 0 5.643 2.326 5.643 6.291 0 3.393-2.212 6.253-5.605 6.253Zm33.612 3.692h3.506v-3.997h-3.468c-1.372 0-1.943-.61-1.943-2.021v-9.989h5.64v-3.959h-5.64v-5.603h-4.264v5.603h-3.735v3.959h3.468v10.027c0 4.229 2.551 5.98 6.436 5.98Zm17.496.495c6.138 0 10.554-4.531 10.554-10.478 0-5.948-4.378-10.479-10.516-10.479s-10.555 4.531-10.555 10.479c0 5.986 4.379 10.478 10.517 10.478Zm0-4.264c-3.47 0-5.948-2.592-5.948-6.214 0-3.546 2.44-6.215 5.948-6.215 3.507 0 5.986 2.669 5.986 6.215 0 3.584-2.479 6.214-5.986 6.214Zm23.095 4.264c3.47 0 5.109-1.827 5.948-2.855h.343v2.36h4.416v-28.579h-4.492v11.163h-.343c-.877-1.142-2.593-3.046-6.139-3.046-5.375 0-9.22 4.531-9.22 10.476 0 6.065 4.112 10.481 9.487 10.481Zm.725-4.187c-3.127 0-5.681-2.479-5.681-6.253 0-3.698 2.44-6.291 5.642-6.291 3.089 0 5.643 2.326 5.643 6.291 0 3.393-2.211 6.253-5.604 6.253Zm23.4 4.187c3.469 0 5.223-1.79 5.986-3.008h.343c.152 1.294 1.066 2.513 2.856 2.513h3.39v-3.808h-.876c-.61 0-.914-.342-.914-.875v-15.283h-4.494v2.436h-.343c-.877-1.218-2.707-2.932-6.063-2.932-5.337 0-9.296 4.417-9.296 10.479 0 6.061 4.036 10.478 9.411 10.478Zm.8-4.341c-3.164 0-5.642-2.324-5.642-6.099 0-3.698 2.402-6.215 5.604-6.215 3.051 0 5.605 2.25 5.605 6.215 0 3.393-2.173 6.099-5.567 6.099Zm15.057 12.611h2.857c2.934 0 5.258-1.18 6.325-3.921l9.374-24.81h-4.878l-5.182 15.66h-.342l-4.687-15.66h-4.839l6.858 19.966h1.105l-1.105 2.785c-.495 1.259-1.257 1.869-2.629 1.869h-2.857v4.111Zm22.483-8.27c1.562 0 2.78-1.218 2.78-2.742a2.77 2.77 0 0 0-2.78-2.779c-1.523 0-2.817 1.256-2.817 2.779 0 1.524 1.294 2.742 2.817 2.742Z" style="fill:#eee;fill-rule:nonzero" transform="translate(-36.486 -118.25) scale(1.33037)"/><path d="M48 199.389h219c8.14 0 14.749-3.311 14.749-7.389s-6.609-7.389-14.749-7.389H48c-8.14 0-14.749 3.311-14.749 7.389s6.609 7.389 14.749 7.389Z" style="fill:#eee;fill-opacity:.25" transform="matrix(.47461 0 0 .94734 94.692 304.164)"/><circle cx="687" cy="460.504" r="12.496" style="fill:#eee" transform="translate(84.322 -28.464) scale(1.1173)"/><circle cx="687" cy="460.504" r="12.496" style="fill:#eee" transform="translate(43.03 -28.464) scale(1.1173)"/><circle cx="687" cy="460.504" r="12.496" style="fill:#eee" transform="translate(1.737 -28.464) scale(1.1173)"/><circle cx="687" cy="460.504" r="12.496" style="fill:#eee" transform="translate(-39.556 -28.464) scale(1.1173)"/><path d="M1174.4 294.117c-3.87 0-7 3.134-7 7v8.109c0 1.656-1.34 3-3 3h-75.89c-1.65 0-3-1.344-3-3v-8.109c0-3.866-3.13-7-7-7h-30.49c-11.05 0-20 8.962-20 20V645c0 11.038 8.95 20 20 20h156.88c11.05 0 20-8.962 20-20V314.117c0-11.038-8.95-20-20-20h-30.5Z" style="fill:#111"/><path d="M1231.9 314.117c0-14.902-12.1-27-27-27h-156.88c-14.9 0-27 12.098-27 27V645c0 14.902 12.1 27 27 27h156.88c14.9 0 27-12.098 27-27V314.117Zm-57.5-13v8.109c0 5.519-4.48 10-10 10h-75.89c-5.51 0-10-4.481-10-10v-8.109h-30.49c-7.18 0-13 5.825-13 13V645c0 7.175 5.82 13 13 13h156.88c7.18 0 13-5.825 13-13V314.117c0-7.175-5.82-13-13-13h-30.5Z" style="fill:#333"/><path d="M48 204.201h219c19.193 0 34.775-5.467 34.775-12.201 0-6.734-15.582-12.201-34.775-12.201H48c-19.193 0-34.775 5.467-34.775 12.201 0 6.734 15.582 12.201 34.775 12.201Z" style="fill:#eee" transform="matrix(.2013 0 0 .5737 1125.497 257.848)"/><circle cx="1177" cy="368" r="7" style="fill:#0c6" transform="translate(19.678)"/><path d="M48 204.201h219c35.784 0 64.837-5.467 64.837-12.201 0-6.734-29.053-12.201-64.837-12.201H48c-35.784 0-64.837 5.467-64.837 12.201 0 6.734 29.053 12.201 64.837 12.201Z" style="fill:#eee;fill-opacity:.5" transform="matrix(.10796 0 0 .5737 1167.808 280.797)"/><path d="M48 204.201h219c30.849 0 55.894-5.467 55.894-12.201 0-6.734-25.045-12.201-55.894-12.201H48c-30.849 0-55.894 5.467-55.894 12.201 0 6.734 25.045 12.201 55.894 12.201Z" style="fill:#eee;fill-opacity:.5" transform="matrix(.12524 0 0 .5737 1163.196 303.745)"/><path d="M48 204.201h219c22.648 0 41.036-5.467 41.036-12.201 0-6.734-18.388-12.201-41.036-12.201H48c-22.648 0-41.036 5.467-41.036 12.201 0 6.734 18.388 12.201 41.036 12.201Z" style="fill:#eee;fill-opacity:.5" transform="matrix(.17058 0 0 .5737 1151.089 326.693)"/><path d="M48 204.201h219c12.163 0 22.037-5.467 22.037-12.201 0-6.734-9.874-12.201-22.037-12.201H48c-12.163 0-22.037 5.467-22.037 12.201 0 6.734 9.874 12.201 22.037 12.201Z" style="fill:#eee;fill-opacity:.5" transform="matrix(.31765 0 0 .5737 1111.822 349.641)"/><path d="M249.903 244.531c6.097 0 12.805-3.731 13.415-13.791h-12.691v3.996h7.508c-1.106 3.815-4.574 5.379-8.194 5.379-5.26 0-8.918-4.005-8.918-9.452 0-5.376 3.62-9.418 8.88-9.418 3.468 0 6.479 1.868 7.774 4.919h4.993c-1.791-5.795-6.746-9.335-12.767-9.335-7.966 0-13.678 6.017-13.678 13.834 0 7.888 5.712 13.83 13.678 13.868Zm27.176-.038c6.138 0 10.554-4.531 10.554-10.478 0-5.948-4.378-10.479-10.516-10.479-6.139 0-10.555 4.531-10.555 10.479 0 5.986 4.378 10.478 10.517 10.478Zm0-4.264c-3.47 0-5.948-2.592-5.948-6.214 0-3.546 2.44-6.215 5.948-6.215 3.507 0 5.985 2.669 5.985 6.215 0 3.584-2.478 6.214-5.985 6.214Zm24.124 4.264c6.138 0 10.555-4.531 10.555-10.478 0-5.948-4.378-10.479-10.517-10.479-6.138 0-10.554 4.531-10.554 10.479 0 5.986 4.378 10.478 10.516 10.478Zm0-4.264c-3.469 0-5.948-2.592-5.948-6.214 0-3.546 2.441-6.215 5.948-6.215 3.508 0 5.986 2.669 5.986 6.215 0 3.584-2.478 6.214-5.986 6.214Zm23.096 4.264c3.469 0 5.109-1.827 5.948-2.855h.343v2.36h4.416v-28.579h-4.493v11.163h-.343c-.877-1.142-2.592-3.046-6.138-3.046-5.375 0-9.221 4.531-9.221 10.476 0 6.065 4.112 10.481 9.488 10.481Zm.724-4.187c-3.126 0-5.681-2.479-5.681-6.253 0-3.698 2.44-6.291 5.643-6.291 3.088 0 5.643 2.326 5.643 6.291 0 3.393-2.212 6.253-5.605 6.253Zm33.612 3.692h3.506v-3.997h-3.468c-1.372 0-1.943-.61-1.943-2.021v-9.989h5.64v-3.959h-5.64v-5.603h-4.264v5.603h-3.735v3.959h3.468v10.027c0 4.229 2.551 5.98 6.436 5.98Zm17.496.495c6.138 0 10.554-4.531 10.554-10.478 0-5.948-4.378-10.479-10.516-10.479s-10.555 4.531-10.555 10.479c0 5.986 4.379 10.478 10.517 10.478Zm0-4.264c-3.47 0-5.948-2.592-5.948-6.214 0-3.546 2.44-6.215 5.948-6.215 3.507 0 5.986 2.669 5.986 6.215 0 3.584-2.479 6.214-5.986 6.214Zm23.095 4.264c3.47 0 5.109-1.827 5.948-2.855h.343v2.36h4.416v-28.579h-4.492v11.163h-.343c-.877-1.142-2.593-3.046-6.139-3.046-5.375 0-9.22 4.531-9.22 10.476 0 6.065 4.112 10.481 9.487 10.481Zm.725-4.187c-3.127 0-5.681-2.479-5.681-6.253 0-3.698 2.44-6.291 5.642-6.291 3.089 0 5.643 2.326 5.643 6.291 0 3.393-2.211 6.253-5.604 6.253Zm23.4 4.187c3.469 0 5.223-1.79 5.986-3.008h.343c.152 1.294 1.066 2.513 2.856 2.513h3.39v-3.808h-.876c-.61 0-.914-.342-.914-.875v-15.283h-4.494v2.436h-.343c-.877-1.218-2.707-2.932-6.063-2.932-5.337 0-9.296 4.417-9.296 10.479 0 6.061 4.036 10.478 9.411 10.478Zm.8-4.341c-3.164 0-5.642-2.324-5.642-6.099 0-3.698 2.402-6.215 5.604-6.215 3.051 0 5.605 2.25 5.605 6.215 0 3.393-2.173 6.099-5.567 6.099Zm15.057 12.611h2.857c2.934 0 5.258-1.18 6.325-3.921l9.374-24.81h-4.878l-5.182 15.66h-.342l-4.687-15.66h-4.839l6.858 19.966h1.105l-1.105 2.785c-.495 1.259-1.257 1.869-2.629 1.869h-2.857v4.111Zm22.483-8.27c1.562 0 2.78-1.218 2.78-2.742a2.77 2.77 0 0 0-2.78-2.779c-1.523 0-2.817 1.256-2.817 2.779 0 1.524 1.294 2.742 2.817 2.742Z" style="fill:#eee;fill-rule:nonzero" transform="translate(907.616 359.681) scale(.60122)"/><path d="M1203.68 580.747v-39.994c0-6.623-5.37-12-12-12h-130.7c-6.63 0-12 5.377-12 12v39.994c0 6.623 5.37 12 12 12h130.7c6.63 0 12-5.377 12-12Z" style="fill:#19f"/><path d="M1048.98 658h154.7v-37.994c0-6.623-5.37-12-12-12h-130.7c-6.63 0-12 5.377-12 12V658Z" style="fill:#17b"/></svg>