<svg viewBox="0 0 1280 720" xmlns="http://www.w3.org/2000/svg" xml:space="preserve" style="fill-rule:evenodd;clip-rule:evenodd;stroke-linecap:round;stroke-miterlimit:1.5"><g transform="translate(978.286 27) scale(3.96429)"><path d="M0 0h64v64H0z"/><clipPath id="a"><path d="M0 0h64v64H0z"/></clipPath><g clip-path="url(#a)"><g opacity=".25"><path style="fill:#7f7f7f;fill-opacity:.5" d="M0 0h4v1H0z" transform="matrix(21.5 12.413 0 99.3042 -54 -18)"/><path style="fill:#7f7f7f;fill-opacity:.75" d="M0 0h4v1H0z" transform="matrix(21.5 -12.413 0 99.3042 32 31.652)"/><path style="fill:#7f7f7f" d="M0 0h4v1H0z" transform="matrix(21.5 -12.413 86 49.6521 -54 -17.652)"/></g><path d="M-42.306 33.857h11.147V45h3.715V19h-14.862v3.714h11.147v7.429h-11.147v-7.429h-3.715V45h3.715V33.857Z" style="fill:#d92;fill-rule:nonzero" transform="matrix(.53829 0 0 .53846 39.773 14.77)"/><path d="M-5.151 41.286V30.143h-3.715v-3.714h-11.147V19h-3.715v26h14.862v-3.714h-11.147V30.143h11.147v11.143h3.715Z" style="fill:#fb2;fill-rule:nonzero" transform="matrix(.53829 0 0 .53846 39.773 14.77)"/><path d="M2.28 45h11.147v-3.714h3.715v-3.715h-3.715v3.715H2.28V45Zm-3.715-14.857v11.143H2.28V30.143h-3.715Zm14.862 0v-3.714H2.28v3.714h11.147v3.714h3.715v-3.714h-3.715Z" style="fill:#eee;fill-rule:nonzero" transform="matrix(.53829 0 0 .53846 39.773 14.77)"/></g><path d="M64 0H0v64h64V0Zm-1.633 1.633v60.734H1.633V1.633h60.734Z" style="fill:url(#b)"/></g><g transform="translate(48 190.857) scale(5.28571)"><path d="M0 0h64v64H0z"/><clipPath id="c"><path d="M0 0h64v64H0z"/></clipPath><g clip-path="url(#c)"><g opacity=".25"><g opacity=".5"><path style="fill:#7f7f7f" d="M0 0h4v1H0z" transform="matrix(21.49997 12.413 0 99.30417 -54 -18)"/><path d="M11 15H9v1h2v-1Zm4-1h-3v1h4v-2h-1v1ZM2 13H0v1h2v-1Zm3-2v2h1v-1h1v-1H5Zm11 0h-1v1h1v-1Zm-2 0h-2v1h2v-1ZM0 9h2v1h1V8H0v1Zm15 0h-4v1h4V9ZM7 9H6v1h3V9h1V8H7v1ZM5 8H4v1h1V8Zm4-2H7v1h2V6ZM6 6H3v1h3V6Zm10-1h-1v1h1V5ZM2 5H1v1h1V5Zm6-1h1v1h4V4h-3V3H8v1ZM6 3H5v1h1V3ZM4 3H2v1h2V3Zm0-3H0v1h4V0Z" style="fill:#8f8f8f" transform="matrix(5.375 3.10325 0 6.20651 -54 -18)"/><path d="M14 15h-1v1h1v-1Zm-6 0H6v1h2v-1Zm-5-1H1v1h2v-1Zm-2-1h2v1h2v-1H4v-1H1v1Zm12 0h-1v1h3v-1h-1v-1h-1v1Zm-6-1v2h3v-1H9v-1H7Zm9 0h-1v1h1v-1ZM3 10H2v1h1v-1Zm6 0H8v1h1v-1Zm2 0h-1v1h1v-1Zm-5 0H4v1h2v-1Zm10 0h-3v1h3v-1Zm0-2h-1v1h1V8ZM5 7H4v1h1V7Zm4-2v2h1v1h3V7h-1V6h-1V5H9ZM0 6v2h2V7H1V6H0Zm6 0v2h2V7H7V6H6Zm7-1h-1v1h1V5Zm2 0h-1v1h1V5Zm-1-1h-1v1h1V4ZM6 4H3v1h3V4ZM1 4H0v1h1V4Zm7 0H7v1h1V4Zm8-1h-3v1h3V3ZM2 2H1v1h1V2Zm2-1v2h3V2H5V1H4Zm7 1H8v1h3V2ZM3 1H2v1h1V1Zm11 0h-1v1h1V1Zm2 0h-1v1h1V1ZM7 0H5v1h2V0Zm2 0H8v1h1V0Zm3 0h-2v1h2V0Z" style="fill:#747474" transform="matrix(5.375 3.10325 0 6.20651 -54 -18)"/><path d="M15 12h-1v1h1v-1Zm-2 0h-2v1h2v-1ZM1 10H0v1h1v-1Zm7 0H6v1h2v-1ZM6 7H5v1h1V7ZM4 7H2v1h2V7Zm8-2h-1v1h1V5Zm2 0h-1v1h1V5ZM8 2H7v1h1V2ZM4 2H2v1h2V2Zm9-1h-2v1h2V1Zm-3-1H9v1h1V0Z" style="fill:#686868" transform="matrix(5.375 3.10325 0 6.20651 -54 -18)"/></g><g opacity=".75"><path style="fill:#7f7f7f" d="M0 0h4v1H0z" transform="matrix(21.49997 -12.413 0 99.30417 32 31.652)"/><path d="M11 15H9v1h2v-1Zm4-1h-3v1h4v-2h-1v1ZM2 13H0v1h2v-1Zm3-2v2h1v-1h1v-1H5Zm11 0h-1v1h1v-1Zm-2 0h-2v1h2v-1ZM0 9h2v1h1V8H0v1Zm15 0h-4v1h4V9ZM7 9H6v1h3V9h1V8H7v1ZM5 8H4v1h1V8Zm4-2H7v1h2V6ZM6 6H3v1h3V6Zm10-1h-1v1h1V5ZM2 5H1v1h1V5Zm6-1h1v1h4V4h-3V3H8v1ZM6 3H5v1h1V3ZM4 3H2v1h2V3Zm0-3H0v1h4V0Z" style="fill:#8f8f8f" transform="matrix(5.375 -3.10325 0 6.20651 32 31.652)"/><path d="M14 15h-1v1h1v-1Zm-6 0H6v1h2v-1Zm-5-1H1v1h2v-1Zm-2-1h2v1h2v-1H4v-1H1v1Zm12 0h-1v1h3v-1h-1v-1h-1v1Zm-6-1v2h3v-1H9v-1H7Zm9 0h-1v1h1v-1ZM3 10H2v1h1v-1Zm6 0H8v1h1v-1Zm2 0h-1v1h1v-1Zm-5 0H4v1h2v-1Zm10 0h-3v1h3v-1Zm0-2h-1v1h1V8ZM5 7H4v1h1V7Zm4-2v2h1v1h3V7h-1V6h-1V5H9ZM0 6v2h2V7H1V6H0Zm6 0v2h2V7H7V6H6Zm7-1h-1v1h1V5Zm2 0h-1v1h1V5Zm-1-1h-1v1h1V4ZM6 4H3v1h3V4ZM1 4H0v1h1V4Zm7 0H7v1h1V4Zm8-1h-3v1h3V3ZM2 2H1v1h1V2Zm2-1v2h3V2H5V1H4Zm7 1H8v1h3V2ZM3 1H2v1h1V1Zm11 0h-1v1h1V1Zm2 0h-1v1h1V1ZM7 0H5v1h2V0Zm2 0H8v1h1V0Zm3 0h-2v1h2V0Z" style="fill:#747474" transform="matrix(5.375 -3.10325 0 6.20651 32 31.652)"/><path d="M15 12h-1v1h1v-1Zm-2 0h-2v1h2v-1ZM1 10H0v1h1v-1Zm7 0H6v1h2v-1ZM6 7H5v1h1V7ZM4 7H2v1h2V7Zm8-2h-1v1h1V5Zm2 0h-1v1h1V5ZM8 2H7v1h1V2ZM4 2H2v1h2V2Zm9-1h-2v1h2V1Zm-3-1H9v1h1V0Z" style="fill:#686868" transform="matrix(5.375 -3.10325 0 6.20651 32 31.652)"/></g><path style="fill:#7f7f7f" d="M0 0h4v1H0z" transform="matrix(21.49997 -12.413 85.99989 49.65203 -54 -17.652)"/><path d="M11 15H9v1h2v-1Zm4-1h-3v1h4v-2h-1v1ZM2 13H0v1h2v-1Zm3-2v2h1v-1h1v-1H5Zm11 0h-1v1h1v-1Zm-2 0h-2v1h2v-1ZM0 9h2v1h1V8H0v1Zm15 0h-4v1h4V9ZM7 9H6v1h3V9h1V8H7v1ZM5 8H4v1h1V8Zm4-2H7v1h2V6ZM6 6H3v1h3V6Zm10-1h-1v1h1V5ZM2 5H1v1h1V5Zm6-1h1v1h4V4h-3V3H8v1ZM6 3H5v1h1V3ZM4 3H2v1h2V3Zm0-3H0v1h4V0Z" style="fill:#8f8f8f" transform="scale(7.60139 4.38866) rotate(-45 -8.407 6.564)"/><path d="M14 15h-1v1h1v-1Zm-6 0H6v1h2v-1Zm-5-1H1v1h2v-1Zm-2-1h2v1h2v-1H4v-1H1v1Zm12 0h-1v1h3v-1h-1v-1h-1v1Zm-6-1v2h3v-1H9v-1H7Zm9 0h-1v1h1v-1ZM3 10H2v1h1v-1Zm6 0H8v1h1v-1Zm2 0h-1v1h1v-1Zm-5 0H4v1h2v-1Zm10 0h-3v1h3v-1Zm0-2h-1v1h1V8ZM5 7H4v1h1V7Zm4-2v2h1v1h3V7h-1V6h-1V5H9ZM0 6v2h2V7H1V6H0Zm6 0v2h2V7H7V6H6Zm7-1h-1v1h1V5Zm2 0h-1v1h1V5Zm-1-1h-1v1h1V4ZM6 4H3v1h3V4ZM1 4H0v1h1V4Zm7 0H7v1h1V4Zm8-1h-3v1h3V3ZM2 2H1v1h1V2Zm2-1v2h3V2H5V1H4Zm7 1H8v1h3V2ZM3 1H2v1h1V1Zm11 0h-1v1h1V1Zm2 0h-1v1h1V1ZM7 0H5v1h2V0Zm2 0H8v1h1V0Zm3 0h-2v1h2V0Z" style="fill:#747474" transform="scale(7.60139 4.38866) rotate(-45 -8.407 6.564)"/><path d="M15 12h-1v1h1v-1Zm-2 0h-2v1h2v-1ZM1 10H0v1h1v-1Zm7 0H6v1h2v-1ZM6 7H5v1h1V7ZM4 7H2v1h2V7Zm8-2h-1v1h1V5Zm2 0h-1v1h1V5ZM8 2H7v1h1V2ZM4 2H2v1h2V2Zm9-1h-2v1h2V1Zm-3-1H9v1h1V0Z" style="fill:#686868" transform="scale(7.60139 4.38866) rotate(-45 -8.407 6.564)"/></g><path d="m2274 1033 16.45 9.5v19L2274 1071l-16.45-9.5v-19l16.45-9.5Z" style="fill:none;stroke:url(#d);stroke-width:5.07px" transform="translate(-1763.261 -798.527) scale(.78947)"/><path d="m2274 1033.06 18.99 10.96v.01l-18.99 10.96-18.99-10.96v-.01l18.99-10.96Z" style="fill:none;stroke:#fb2;stroke-width:5.85px" transform="translate(-1523.532 -689.666) scale(.68405)"/></g><path d="M64 0H0v64h64V0Zm-1.225 1.225v61.55H1.225V1.225h61.55Z" style="fill:url(#e)"/></g><g transform="translate(978.286 439.286) scale(3.96429)"><path d="M0 0h64v64H0z"/><clipPath id="f"><path d="M0 0h64v64H0z"/></clipPath><g clip-path="url(#f)"><g opacity=".25"><path style="fill:#7f7f7f;fill-opacity:.5" d="M0 0h4v1H0z" transform="matrix(21.5 12.413 0 99.3042 -54 -18)"/><path style="fill:#7f7f7f;fill-opacity:.75" d="M0 0h4v1H0z" transform="matrix(21.5 -12.413 0 99.3042 32 31.652)"/><path style="fill:#7f7f7f" d="M0 0h4v1H0z" transform="matrix(21.5 -12.413 86 49.6521 -54 -17.652)"/></g><path d="M39 29v6h2v-6h-2Z" style="fill:#fff"/><path d="M25 27h-6v10h6v-2h-4v-6h4v-2Z" style="fill:#d92"/><path d="M43 27v10h-4v2h4v-2h2V27h-2Zm0-2h-4v2h4v-2Z" style="fill:#fff"/><path d="M27 37h2v2h2v2h2v2h2V21h-2v2h-2v2h-2v2h-2v10Zm0-14v2h-2v14h2v2h2v2h2v2h6V19h-6v2h-2v2h-2Z" style="fill:#fb2"/></g><path d="M64 0H0v64h64V0Zm-1.633 1.633v60.734H1.633V1.633h60.734Z" style="fill:url(#g)"/></g><g transform="translate(.007 .002)"><circle cx="978.286" cy="577.516" r="15" style="fill:url(#h)"/><path d="M386.286 360h344.666a50.001 50.001 0 0 1 50 50v117.516c0 27.614 22.386 50 50 50h147.334" style="fill:none;stroke:url(#i);stroke-width:10px;stroke-linecap:square;stroke-linejoin:round"/></g><g transform="translate(.007 -.006)"><circle cx="376.286" cy="360" r="10" style="fill:none;stroke:#fb2;stroke-width:10px;stroke-linecap:butt;stroke-miterlimit:10"/><circle cx="978.286" cy="142.484" r="15" style="fill:#fb2"/><path d="M386.286 360h147.333c27.614 0 50-22.386 50-50V192.484a50 50 0 0 1 50-50h344.667" style="fill:none;stroke:#fb2;stroke-width:10px;stroke-linecap:square;stroke-linejoin:round"/></g><defs><linearGradient id="b" x1="0" y1="0" x2="1" y2="0" gradientUnits="userSpaceOnUse" gradientTransform="matrix(64 64 -64 64 0 0)"><stop offset="0" style="stop-color:#eee;stop-opacity:.11"/><stop offset="1" style="stop-color:#111;stop-opacity:0"/></linearGradient><linearGradient id="d" x1="0" y1="0" x2="1" y2="0" gradientUnits="userSpaceOnUse" gradientTransform="matrix(0 -10.9586 10.9586 0 2274 1054.92)"><stop offset="0" style="stop-color:#d92;stop-opacity:1"/><stop offset="1" style="stop-color:#960;stop-opacity:1"/></linearGradient><linearGradient id="e" x1="0" y1="0" x2="1" y2="0" gradientUnits="userSpaceOnUse" gradientTransform="matrix(64 64 -64 64 0 0)"><stop offset="0" style="stop-color:#eee;stop-opacity:.11"/><stop offset="1" style="stop-color:#111;stop-opacity:0"/></linearGradient><linearGradient id="g" x1="0" y1="0" x2="1" y2="0" gradientUnits="userSpaceOnUse" gradientTransform="matrix(64 64 -64 64 0 0)"><stop offset="0" style="stop-color:#eee;stop-opacity:.11"/><stop offset="1" style="stop-color:#111;stop-opacity:0"/></linearGradient><linearGradient id="h" x1="0" y1="0" x2="1" y2="0" gradientUnits="userSpaceOnUse" gradientTransform="matrix(50 0 0 50 552 360)"><stop offset="0" style="stop-color:#d92;stop-opacity:1"/><stop offset="1" style="stop-color:#fb2;stop-opacity:1"/></linearGradient><linearGradient id="i" x1="0" y1="0" x2="1" y2="0" gradientUnits="userSpaceOnUse" gradientTransform="matrix(50 0 0 50 552 360)"><stop offset="0" style="stop-color:#d92;stop-opacity:1"/><stop offset="1" style="stop-color:#fb2;stop-opacity:1"/></linearGradient></defs></svg>