<?xml version="1.0" encoding="UTF-8" standalone="no"?>
<!DOCTYPE svg PUBLIC "-//W3C//DTD SVG 1.1//EN" "http://www.w3.org/Graphics/SVG/1.1/DTD/svg11.dtd">
<svg width="100%" height="100%" viewBox="0 0 1280 720" version="1.1" xmlns="http://www.w3.org/2000/svg" xmlns:xlink="http://www.w3.org/1999/xlink" xml:space="preserve" xmlns:serif="http://www.serif.com/" style="fill-rule:evenodd;clip-rule:evenodd;stroke-linecap:round;stroke-miterlimit:1.5;">
    <g transform="matrix(3.96429,0,0,3.96429,978.286,27)">
        <rect x="0" y="0" width="64" height="64"/>
        <clipPath id="_clip1">
            <rect x="0" y="0" width="64" height="64"/>
        </clipPath>
        <g clip-path="url(#_clip1)">
            <g opacity="0.25">
                <g transform="matrix(21.5,12.413,4.26996e-15,99.3042,-54,-18)">
                    <rect x="0" y="0" width="4" height="1" style="fill:rgb(127,127,127);fill-opacity:0.5;"/>
                </g>
                <g transform="matrix(21.5,-12.413,-4.26996e-15,99.3042,32,31.6521)">
                    <rect x="0" y="0" width="4" height="1" style="fill:rgb(127,127,127);fill-opacity:0.75;"/>
                </g>
                <g transform="matrix(21.5,-12.413,86,49.6521,-54,-17.6521)">
                    <rect x="0" y="0" width="4" height="1" style="fill:rgb(127,127,127);"/>
                </g>
            </g>
            <g transform="matrix(0.538285,0,0,0.538462,39.7726,14.7692)">
                <path d="M-42.306,33.857L-31.159,33.857L-31.159,45L-27.444,45L-27.444,19L-42.306,19L-42.306,22.714L-31.159,22.714L-31.159,30.143L-42.306,30.143L-42.306,22.714L-46.021,22.714L-46.021,45L-42.306,45L-42.306,33.857Z" style="fill:rgb(221,153,34);fill-rule:nonzero;"/>
                <path d="M-5.151,41.286L-5.151,30.143L-8.866,30.143L-8.866,26.429L-20.013,26.429L-20.013,19L-23.728,19L-23.728,45L-8.866,45L-8.866,41.286L-20.013,41.286L-20.013,30.143L-8.866,30.143L-8.866,41.286L-5.151,41.286Z" style="fill:rgb(255,187,34);fill-rule:nonzero;"/>
                <path d="M2.28,45L13.427,45L13.427,41.286L17.142,41.286L17.142,37.571L13.427,37.571L13.427,41.286L2.28,41.286L2.28,45ZM-1.435,30.143L-1.435,41.286L2.28,41.286L2.28,30.143L-1.435,30.143ZM13.427,30.143L13.427,26.429L2.28,26.429L2.28,30.143L13.427,30.143L13.427,33.857L17.142,33.857L17.142,30.143L13.427,30.143Z" style="fill:rgb(238,238,238);fill-rule:nonzero;"/>
            </g>
        </g>
        <path d="M64,0L0,0L0,64L64,64L64,0ZM62.367,1.633L62.367,62.367C62.367,62.367 1.633,62.367 1.633,62.367C1.633,53.434 1.633,10.566 1.633,1.633C10.566,1.633 53.434,1.633 62.367,1.633L62.367,1.633Z" style="fill:url(#_Linear2);"/>
    </g>
    <g transform="matrix(5.28571,0,0,5.28571,48,190.857)">
        <rect x="0" y="0" width="64" height="64"/>
        <clipPath id="_clip3">
            <rect x="0" y="0" width="64" height="64"/>
        </clipPath>
        <g clip-path="url(#_clip3)">
            <g transform="matrix(2.45714,0,0,2.45714,-46.6286,-46.6286)">
                <g opacity="0.25">
                    <g transform="matrix(0.0759219,0.0438335,3.76957e-18,0.0876671,-40.885,-57.562)">
                        <g opacity="0.5">
                            <g transform="matrix(115.25,0,0,461,499,540)">
                                <rect x="0" y="0" width="4" height="1" style="fill:rgb(127,127,127);"/>
                            </g>
                            <g transform="matrix(28.8125,0,0,28.8125,499,540)">
                                <path d="M11,15L9,15L9,16L11,16L11,15ZM15,14L12,14L12,15L16,15L16,13L15,13L15,14ZM2,13L0,13L0,14L2,14L2,13ZM5,11L5,13L6,13L6,12L7,12L7,11L5,11ZM16,11L15,11L15,12L16,12L16,11ZM14,11L12,11L12,12L14,12L14,11ZM0,9L2,9L2,10L3,10L3,8L0,8L0,9ZM15,9L11,9L11,10L15,10L15,9ZM7,9L6,9L6,10L9,10L9,9L10,9L10,8L7,8L7,9ZM5,8L4,8L4,9L5,9L5,8ZM9,6L7,6L7,7L9,7L9,6ZM6,6L3,6L3,7L6,7L6,6ZM16,5L15,5L15,6L16,6L16,5ZM2,5L1,5L1,6L2,6L2,5ZM8,4L9,4L9,5L13,5L13,4L10,4L10,3L8,3L8,4ZM6,3L5,3L5,4L6,4L6,3ZM4,3L2,3L2,4L4,4L4,3ZM4,0L0,0L0,1L4,1L4,0Z" style="fill:rgb(143,143,143);"/>
                            </g>
                            <g transform="matrix(28.8125,0,0,28.8125,499,540)">
                                <path d="M14,15L13,15L13,16L14,16L14,15ZM8,15L6,15L6,16L8,16L8,15ZM3,14L1,14L1,15L3,15L3,14ZM1,13L3,13L3,14L5,14L5,13L4,13L4,12L1,12L1,13ZM13,13L12,13L12,14L15,14L15,13L14,13L14,12L13,12L13,13ZM7,12L7,14L10,14L10,13L9,13L9,12L7,12ZM16,12L15,12L15,13L16,13L16,12ZM3,10L2,10L2,11L3,11L3,10ZM9,10L8,10L8,11L9,11L9,10ZM11,10L10,10L10,11L11,11L11,10ZM6,10L4,10L4,11L6,11L6,10ZM16,10L13,10L13,11L16,11L16,10ZM16,8L15,8L15,9L16,9L16,8ZM5,7L4,7L4,8L5,8L5,7ZM9,5L9,7L10,7L10,8L13,8L13,7L12,7L12,6L11,6L11,5L9,5ZM0,6L0,8L2,8L2,7L1,7L1,6L0,6ZM6,6L6,8L8,8L8,7L7,7L7,6L6,6ZM13,5L12,5L12,6L13,6L13,5ZM15,5L14,5L14,6L15,6L15,5ZM14,4L13,4L13,5L14,5L14,4ZM6,4L3,4L3,5L6,5L6,4ZM1,4L0,4L0,5L1,5L1,4ZM8,4L7,4L7,5L8,5L8,4ZM16,3L13,3L13,4L16,4L16,3ZM2,2L1,2L1,3L2,3L2,2ZM4,1L4,3L7,3L7,2L5,2L5,1L4,1ZM11,2L8,2L8,3L11,3L11,2ZM3,1L2,1L2,2L3,2L3,1ZM14,1L13,1L13,2L14,2L14,1ZM16,1L15,1L15,2L16,2L16,1ZM7,0L5,0L5,1L7,1L7,0ZM9,0L8,0L8,1L9,1L9,0ZM12,0L10,0L10,1L12,1L12,0Z" style="fill:rgb(116,116,116);"/>
                            </g>
                            <g transform="matrix(28.8125,0,0,28.8125,499,540)">
                                <path d="M15,12L14,12L14,13L15,13L15,12ZM13,12L11,12L11,13L13,13L13,12ZM1,10L0,10L0,11L1,11L1,10ZM8,10L6,10L6,11L8,11L8,10ZM6,7L5,7L5,8L6,8L6,7ZM4,7L2,7L2,8L4,8L4,7ZM12,5L11,5L11,6L12,6L12,5ZM14,5L13,5L13,6L14,6L14,5ZM8,2L7,2L7,3L8,3L8,2ZM4,2L2,2L2,3L4,3L4,2ZM13,1L11,1L11,2L13,2L13,1ZM10,0L9,0L9,1L10,1L10,0Z" style="fill:rgb(104,104,104);"/>
                            </g>
                        </g>
                    </g>
                    <g transform="matrix(0.0759219,-0.0438335,-3.76957e-18,0.0876671,-5.88503,6.39114)">
                        <g opacity="0.75">
                            <g transform="matrix(115.25,0,0,461,499,540)">
                                <rect x="0" y="0" width="4" height="1" style="fill:rgb(127,127,127);"/>
                            </g>
                            <g transform="matrix(28.8125,0,0,28.8125,499,540)">
                                <path d="M11,15L9,15L9,16L11,16L11,15ZM15,14L12,14L12,15L16,15L16,13L15,13L15,14ZM2,13L0,13L0,14L2,14L2,13ZM5,11L5,13L6,13L6,12L7,12L7,11L5,11ZM16,11L15,11L15,12L16,12L16,11ZM14,11L12,11L12,12L14,12L14,11ZM0,9L2,9L2,10L3,10L3,8L0,8L0,9ZM15,9L11,9L11,10L15,10L15,9ZM7,9L6,9L6,10L9,10L9,9L10,9L10,8L7,8L7,9ZM5,8L4,8L4,9L5,9L5,8ZM9,6L7,6L7,7L9,7L9,6ZM6,6L3,6L3,7L6,7L6,6ZM16,5L15,5L15,6L16,6L16,5ZM2,5L1,5L1,6L2,6L2,5ZM8,4L9,4L9,5L13,5L13,4L10,4L10,3L8,3L8,4ZM6,3L5,3L5,4L6,4L6,3ZM4,3L2,3L2,4L4,4L4,3ZM4,0L0,0L0,1L4,1L4,0Z" style="fill:rgb(143,143,143);"/>
                            </g>
                            <g transform="matrix(28.8125,0,0,28.8125,499,540)">
                                <path d="M14,15L13,15L13,16L14,16L14,15ZM8,15L6,15L6,16L8,16L8,15ZM3,14L1,14L1,15L3,15L3,14ZM1,13L3,13L3,14L5,14L5,13L4,13L4,12L1,12L1,13ZM13,13L12,13L12,14L15,14L15,13L14,13L14,12L13,12L13,13ZM7,12L7,14L10,14L10,13L9,13L9,12L7,12ZM16,12L15,12L15,13L16,13L16,12ZM3,10L2,10L2,11L3,11L3,10ZM9,10L8,10L8,11L9,11L9,10ZM11,10L10,10L10,11L11,11L11,10ZM6,10L4,10L4,11L6,11L6,10ZM16,10L13,10L13,11L16,11L16,10ZM16,8L15,8L15,9L16,9L16,8ZM5,7L4,7L4,8L5,8L5,7ZM9,5L9,7L10,7L10,8L13,8L13,7L12,7L12,6L11,6L11,5L9,5ZM0,6L0,8L2,8L2,7L1,7L1,6L0,6ZM6,6L6,8L8,8L8,7L7,7L7,6L6,6ZM13,5L12,5L12,6L13,6L13,5ZM15,5L14,5L14,6L15,6L15,5ZM14,4L13,4L13,5L14,5L14,4ZM6,4L3,4L3,5L6,5L6,4ZM1,4L0,4L0,5L1,5L1,4ZM8,4L7,4L7,5L8,5L8,4ZM16,3L13,3L13,4L16,4L16,3ZM2,2L1,2L1,3L2,3L2,2ZM4,1L4,3L7,3L7,2L5,2L5,1L4,1ZM11,2L8,2L8,3L11,3L11,2ZM3,1L2,1L2,2L3,2L3,1ZM14,1L13,1L13,2L14,2L14,1ZM16,1L15,1L15,2L16,2L16,1ZM7,0L5,0L5,1L7,1L7,0ZM9,0L8,0L8,1L9,1L9,0ZM12,0L10,0L10,1L12,1L12,0Z" style="fill:rgb(116,116,116);"/>
                            </g>
                            <g transform="matrix(28.8125,0,0,28.8125,499,540)">
                                <path d="M15,12L14,12L14,13L15,13L15,12ZM13,12L11,12L11,13L13,13L13,12ZM1,10L0,10L0,11L1,11L1,10ZM8,10L6,10L6,11L8,11L8,10ZM6,7L5,7L5,8L6,8L6,7ZM4,7L2,7L2,8L4,8L4,7ZM12,5L11,5L11,6L12,6L12,5ZM14,5L13,5L13,6L14,6L14,5ZM8,2L7,2L7,3L8,3L8,2ZM4,2L2,2L2,3L4,3L4,2ZM13,1L11,1L11,2L13,2L13,1ZM10,0L9,0L9,1L10,1L10,0Z" style="fill:rgb(104,104,104);"/>
                            </g>
                        </g>
                    </g>
                    <g transform="matrix(0.0759219,-0.0438335,0.0759219,0.0438335,-81.8829,9.99557)">
                        <g transform="matrix(115.25,0,0,461,499,540)">
                            <rect x="0" y="0" width="4" height="1" style="fill:rgb(127,127,127);"/>
                        </g>
                        <g transform="matrix(28.8125,0,0,28.8125,499,540)">
                            <path d="M11,15L9,15L9,16L11,16L11,15ZM15,14L12,14L12,15L16,15L16,13L15,13L15,14ZM2,13L0,13L0,14L2,14L2,13ZM5,11L5,13L6,13L6,12L7,12L7,11L5,11ZM16,11L15,11L15,12L16,12L16,11ZM14,11L12,11L12,12L14,12L14,11ZM0,9L2,9L2,10L3,10L3,8L0,8L0,9ZM15,9L11,9L11,10L15,10L15,9ZM7,9L6,9L6,10L9,10L9,9L10,9L10,8L7,8L7,9ZM5,8L4,8L4,9L5,9L5,8ZM9,6L7,6L7,7L9,7L9,6ZM6,6L3,6L3,7L6,7L6,6ZM16,5L15,5L15,6L16,6L16,5ZM2,5L1,5L1,6L2,6L2,5ZM8,4L9,4L9,5L13,5L13,4L10,4L10,3L8,3L8,4ZM6,3L5,3L5,4L6,4L6,3ZM4,3L2,3L2,4L4,4L4,3ZM4,0L0,0L0,1L4,1L4,0Z" style="fill:rgb(143,143,143);"/>
                        </g>
                        <g transform="matrix(28.8125,0,0,28.8125,499,540)">
                            <path d="M14,15L13,15L13,16L14,16L14,15ZM8,15L6,15L6,16L8,16L8,15ZM3,14L1,14L1,15L3,15L3,14ZM1,13L3,13L3,14L5,14L5,13L4,13L4,12L1,12L1,13ZM13,13L12,13L12,14L15,14L15,13L14,13L14,12L13,12L13,13ZM7,12L7,14L10,14L10,13L9,13L9,12L7,12ZM16,12L15,12L15,13L16,13L16,12ZM3,10L2,10L2,11L3,11L3,10ZM9,10L8,10L8,11L9,11L9,10ZM11,10L10,10L10,11L11,11L11,10ZM6,10L4,10L4,11L6,11L6,10ZM16,10L13,10L13,11L16,11L16,10ZM16,8L15,8L15,9L16,9L16,8ZM5,7L4,7L4,8L5,8L5,7ZM9,5L9,7L10,7L10,8L13,8L13,7L12,7L12,6L11,6L11,5L9,5ZM0,6L0,8L2,8L2,7L1,7L1,6L0,6ZM6,6L6,8L8,8L8,7L7,7L7,6L6,6ZM13,5L12,5L12,6L13,6L13,5ZM15,5L14,5L14,6L15,6L15,5ZM14,4L13,4L13,5L14,5L14,4ZM6,4L3,4L3,5L6,5L6,4ZM1,4L0,4L0,5L1,5L1,4ZM8,4L7,4L7,5L8,5L8,4ZM16,3L13,3L13,4L16,4L16,3ZM2,2L1,2L1,3L2,3L2,2ZM4,1L4,3L7,3L7,2L5,2L5,1L4,1ZM11,2L8,2L8,3L11,3L11,2ZM3,1L2,1L2,2L3,2L3,1ZM14,1L13,1L13,2L14,2L14,1ZM16,1L15,1L15,2L16,2L16,1ZM7,0L5,0L5,1L7,1L7,0ZM9,0L8,0L8,1L9,1L9,0ZM12,0L10,0L10,1L12,1L12,0Z" style="fill:rgb(116,116,116);"/>
                        </g>
                        <g transform="matrix(28.8125,0,0,28.8125,499,540)">
                            <path d="M15,12L14,12L14,13L15,13L15,12ZM13,12L11,12L11,13L13,13L13,12ZM1,10L0,10L0,11L1,11L1,10ZM8,10L6,10L6,11L8,11L8,10ZM6,7L5,7L5,8L6,8L6,7ZM4,7L2,7L2,8L4,8L4,7ZM12,5L11,5L11,6L12,6L12,5ZM14,5L13,5L13,6L14,6L14,5ZM8,2L7,2L7,3L8,3L8,2ZM4,2L2,2L2,3L4,3L4,2ZM13,1L11,1L11,2L13,2L13,1ZM10,0L9,0L9,1L10,1L10,0Z" style="fill:rgb(104,104,104);"/>
                        </g>
                    </g>
                </g>
            </g>
            <g transform="matrix(0.379901,0,0,0.379901,-822.501,-385.939)">
                <g transform="matrix(2.0781,0,0,2.0781,-2476.33,-1086.04)">
                    <path d="M2274,1033L2290.45,1042.5L2290.45,1061.5L2274,1071L2257.55,1061.5L2257.55,1042.5L2274,1033Z" style="fill:none;stroke:url(#_Linear4);stroke-width:5.07px;"/>
                </g>
                <g transform="matrix(1.8006,0,0,1.8006,-1845.3,-799.491)">
                    <path d="M2274,1033.06L2292.99,1044.02L2292.99,1044.03L2274,1054.99L2255.01,1044.03L2255.01,1044.02L2274,1033.06Z" style="fill:none;stroke:rgb(255,187,34);stroke-width:5.85px;"/>
                </g>
            </g>
        </g>
        <path d="M64,0L0,0L0,64L64,64L64,0ZM62.775,1.225L62.775,62.775C62.775,62.775 9.986,62.775 1.225,62.775C1.225,62.775 1.225,1.225 1.225,1.225L62.775,1.225Z" style="fill:url(#_Linear5);"/>
    </g>
    <g transform="matrix(3.96429,0,0,3.96429,978.286,439.286)">
        <rect x="0" y="0" width="64" height="64"/>
        <clipPath id="_clip6">
            <rect x="0" y="0" width="64" height="64"/>
        </clipPath>
        <g clip-path="url(#_clip6)">
            <g opacity="0.25">
                <g transform="matrix(21.5,12.413,4.26996e-15,99.3042,-54,-18)">
                    <rect x="0" y="0" width="4" height="1" style="fill:rgb(127,127,127);fill-opacity:0.5;"/>
                </g>
                <g transform="matrix(21.5,-12.413,-4.26996e-15,99.3042,32,31.6521)">
                    <rect x="0" y="0" width="4" height="1" style="fill:rgb(127,127,127);fill-opacity:0.75;"/>
                </g>
                <g transform="matrix(21.5,-12.413,86,49.6521,-54,-17.6521)">
                    <rect x="0" y="0" width="4" height="1" style="fill:rgb(127,127,127);"/>
                </g>
            </g>
            <g transform="matrix(1,0,0,1,4,-6)">
                <g transform="matrix(1,0,0,1,-4,6)">
                    <path d="M39,29L39,35L41,35L41,29L39,29Z" style="fill:white;"/>
                </g>
                <g transform="matrix(1,0,0,1,-4,6)">
                    <path d="M25,27L19,27L19,37L25,37L25,35L21,35L21,29L25,29L25,27Z" style="fill:rgb(221,153,34);"/>
                </g>
                <g transform="matrix(1,0,0,1,-4,6)">
                    <path d="M43,27L43,37L39,37L39,39L43,39L43,37L45,37L45,27L43,27ZM43,25L39,25L39,27L43,27L43,25Z" style="fill:white;"/>
                </g>
                <g transform="matrix(1,0,0,1,-4,6)">
                    <path d="M27,37L29,37L29,39L31,39L31,41L33,41L33,43L35,43L35,21L33,21L33,23L31,23L31,25L29,25L29,27L27,27L27,37ZM27,23L27,25L25,25L25,39L27,39L27,41L29,41L29,43L31,43L31,45L37,45L37,19L31,19L31,21L29,21L29,23L27,23Z" style="fill:rgb(255,187,34);"/>
                </g>
            </g>
        </g>
        <path d="M64,0L0,0L0,64L64,64L64,0ZM62.367,1.633L62.367,62.367C62.367,62.367 1.633,62.367 1.633,62.367C1.633,62.367 1.633,1.633 1.633,1.633C1.633,1.633 62.367,1.633 62.367,1.633L62.367,1.633Z" style="fill:url(#_Linear7);"/>
    </g>
    <g transform="matrix(5.18249e-17,-0.846364,7.65367,4.68652e-16,-2264.86,740.555)">
        <g transform="matrix(1.92534e-17,0.314433,2.92045,-1.78826e-16,-633.825,289.429)">
            <g transform="matrix(0.41553,2.20333e-17,-2.04645e-16,-0.404569,20.6405,516.635)">
                <circle cx="978.286" cy="577.516" r="15" style="fill:url(#_Linear8);"/>
                <path d="M386.286,360L730.952,360C744.213,360 756.931,365.268 766.308,374.645C775.685,384.021 780.952,396.739 780.952,410C780.952,445.249 780.952,492.266 780.952,527.516C780.952,555.13 803.338,577.516 830.952,577.516C889.414,577.516 978.286,577.516 978.286,577.516" style="fill:none;stroke:url(#_Linear9);stroke-width:10px;stroke-linecap:square;stroke-linejoin:round;"/>
            </g>
        </g>
        <g transform="matrix(1.92534e-17,0.314433,-2.92045,1.78826e-16,1533.1,289.429)">
            <g transform="matrix(0.41553,-2.20333e-17,-2.04645e-16,0.404569,20.6405,225.345)">
                <circle cx="376.286" cy="360" r="10" style="fill:none;stroke:rgb(255,187,34);stroke-width:10px;stroke-linecap:butt;stroke-miterlimit:10;"/>
                <circle cx="978.286" cy="142.484" r="15" style="fill:rgb(255,187,34);"/>
                <path d="M386.286,360L533.619,360C561.233,360 583.619,337.614 583.619,310C583.619,274.751 583.619,227.734 583.619,192.484C583.619,179.224 588.887,166.506 598.264,157.129C607.641,147.752 620.358,142.484 633.619,142.484C739.826,142.484 978.286,142.484 978.286,142.484" style="fill:none;stroke:rgb(255,187,34);stroke-width:10px;stroke-linecap:square;stroke-linejoin:round;"/>
            </g>
        </g>
    </g>
    <defs>
        <linearGradient id="_Linear2" x1="0" y1="0" x2="1" y2="0" gradientUnits="userSpaceOnUse" gradientTransform="matrix(64,64,-64,64,0,0)"><stop offset="0" style="stop-color:rgb(238,238,238);stop-opacity:0.11"/><stop offset="1" style="stop-color:rgb(17,17,17);stop-opacity:0"/></linearGradient>
        <linearGradient id="_Linear4" x1="0" y1="0" x2="1" y2="0" gradientUnits="userSpaceOnUse" gradientTransform="matrix(-3.93524e-13,-10.9586,10.9586,-3.93524e-13,2274,1054.92)"><stop offset="0" style="stop-color:rgb(221,153,34);stop-opacity:1"/><stop offset="1" style="stop-color:rgb(153,102,0);stop-opacity:1"/></linearGradient>
        <linearGradient id="_Linear5" x1="0" y1="0" x2="1" y2="0" gradientUnits="userSpaceOnUse" gradientTransform="matrix(64,64,-64,64,0,0)"><stop offset="0" style="stop-color:rgb(238,238,238);stop-opacity:0.11"/><stop offset="1" style="stop-color:rgb(17,17,17);stop-opacity:0"/></linearGradient>
        <linearGradient id="_Linear7" x1="0" y1="0" x2="1" y2="0" gradientUnits="userSpaceOnUse" gradientTransform="matrix(64,64,-64,64,0,0)"><stop offset="0" style="stop-color:rgb(238,238,238);stop-opacity:0.11"/><stop offset="1" style="stop-color:rgb(17,17,17);stop-opacity:0"/></linearGradient>
        <linearGradient id="_Linear8" x1="0" y1="0" x2="1" y2="0" gradientUnits="userSpaceOnUse" gradientTransform="matrix(50,0,0,50,552,360)"><stop offset="0" style="stop-color:rgb(221,153,34);stop-opacity:1"/><stop offset="1" style="stop-color:rgb(255,187,34);stop-opacity:1"/></linearGradient>
        <linearGradient id="_Linear9" x1="0" y1="0" x2="1" y2="0" gradientUnits="userSpaceOnUse" gradientTransform="matrix(50,0,0,50,552,360)"><stop offset="0" style="stop-color:rgb(221,153,34);stop-opacity:1"/><stop offset="1" style="stop-color:rgb(255,187,34);stop-opacity:1"/></linearGradient>
    </defs>
</svg>
