<svg viewBox="0 0 1280 720" xmlns="http://www.w3.org/2000/svg" xml:space="preserve" style="fill-rule:evenodd;clip-rule:evenodd;stroke-linejoin:round;stroke-miterlimit:1.5"><g transform="translate(-251.305 -105.198) scale(1.29011)"><path d="M356.123 288.659a7.998 7.998 0 0 0 8.709 0l116.402-75.53a4.999 4.999 0 0 1 7.722 4.195v146.923a16 16 0 0 1-7.291 13.422l-73.716 47.832a4.001 4.001 0 0 0 0 6.711l33.839 21.957a8 8 0 0 0 8.691.012l77.64-50.089a8.003 8.003 0 0 0 3.663-6.723V355.48a16 16 0 0 1 7.29-13.422l27.814-18.048a5 5 0 0 1 7.722 4.195v91.965c0 5.43-2.754 10.489-7.315 13.437l-112.435 72.678a16.05 16.05 0 0 1-17.446-.015l-69.643-45.19a16 16 0 0 1-7.291-13.422v-41.905a7.999 7.999 0 0 1 3.643-6.709l78.366-50.891a8.002 8.002 0 0 0 3.643-6.71v-43.232a4.002 4.002 0 0 0-6.178-3.356l-70.739 45.902a16.05 16.05 0 0 1-17.47 0l-70.74-45.902a3.999 3.999 0 0 0-6.177 3.356v89.629a7 7 0 0 1-10.81 5.872l-24.725-16.043A16 16 0 0 1 232 364.247V217.324a5.001 5.001 0 0 1 7.722-4.195l116.401 75.53Zm175.659-43.423c0-5.42 2.744-10.471 7.29-13.422l27.814-18.047a4.998 4.998 0 0 1 7.722 4.194v37.044a16 16 0 0 1-7.291 13.422l-27.814 18.047a4.998 4.998 0 0 1-7.721-4.194v-37.044Z" style="fill:#1477cc"/><clipPath id="a"><path d="M356.123 288.659a7.998 7.998 0 0 0 8.709 0l116.402-75.53a4.999 4.999 0 0 1 7.722 4.195v146.923a16 16 0 0 1-7.291 13.422l-73.716 47.832a4.001 4.001 0 0 0 0 6.711l33.839 21.957a8 8 0 0 0 8.691.012l77.64-50.089a8.003 8.003 0 0 0 3.663-6.723V355.48a16 16 0 0 1 7.29-13.422l27.814-18.048a5 5 0 0 1 7.722 4.195v91.965c0 5.43-2.754 10.489-7.315 13.437l-112.435 72.678a16.05 16.05 0 0 1-17.446-.015l-69.643-45.19a16 16 0 0 1-7.291-13.422v-41.905a7.999 7.999 0 0 1 3.643-6.709l78.366-50.891a8.002 8.002 0 0 0 3.643-6.71v-43.232a4.002 4.002 0 0 0-6.178-3.356l-70.739 45.902a16.05 16.05 0 0 1-17.47 0l-70.74-45.902a3.999 3.999 0 0 0-6.177 3.356v89.629a7 7 0 0 1-10.81 5.872l-24.725-16.043A16 16 0 0 1 232 364.247V217.324a5.001 5.001 0 0 1 7.722-4.195l116.401 75.53Zm175.659-43.423c0-5.42 2.744-10.471 7.29-13.422l27.814-18.047a4.998 4.998 0 0 1 7.722 4.194v37.044a16 16 0 0 1-7.291 13.422l-27.814 18.047a4.998 4.998 0 0 1-7.721-4.194v-37.044Z"/></clipPath><g clip-path="url(#a)"><path d="M511.522 298.211a4 4 0 0 1 6.177-3.356l79.475 51.57 16.522-10.721-4.167 2.704a8.002 8.002 0 0 1-12.355-6.711V300.12a16.001 16.001 0 0 0-7.295-13.425l-121.183-78.576v164.819l42.826 27.788V298.211Z" style="fill:#19f" transform="translate(-236.696)"/><path d="m597.174 455.985 85.652 55.577 13.318-8.608-.975.63a8 8 0 0 1-12.343-6.719v-31.551a16 16 0 0 0-7.291-13.422l-68.023-44.138a7.999 7.999 0 0 1-.002-13.421l2.224-1.444-12.56 8.156v54.94Z" style="fill:#19f" transform="translate(-236.696 .364)"/></g></g><path d="M335.523 540.469h43.835l99.761-252.429v-5.039h-43.835l-76.08 208.141h-2.015l-79.104-208.141v114.3l57.438 143.168Zm302.883 4.535c79.148 0 117.394-48.826 117.394-119.915 0-65.542-39.253-114.873-110.336-114.873-37.309 0-59.494 14.591-72.603 28.678h-2.016l8.067-112.401h160.281v-38.742H541.646l-13.588 194.974h44.299c13.613-18.641 32.772-34.774 66.553-34.774 50.923 0 73.611 34.284 73.611 78.651 0 45.88-20.671 80.163-74.115 80.163-46.89 0-73.612-29.746-73.612-66.046H522.02c0 58.988 44.287 104.285 116.386 104.285Z" style="fill:#eee;fill-rule:nonzero" transform="translate(458.754 -12.584) scale(1.02308)"/><path d="M322 554V195" style="fill:none;stroke:url(#b);stroke-width:30px" transform="translate(421.259 -13.5)"/><path d="m155 360 167-167 167 167" style="fill:none;stroke:#19f;stroke-width:52.11px" transform="translate(557.886 68.392) scale(.57569)"/><defs><linearGradient id="b" x1="0" y1="0" x2="1" y2="0" gradientUnits="userSpaceOnUse" gradientTransform="matrix(0 -94.1403 94.1403 0 322 289.14)"><stop offset="0" style="stop-color:#19f;stop-opacity:1"/><stop offset="1" style="stop-color:#1477cc;stop-opacity:1"/></linearGradient></defs></svg>