<?xml version="1.0" encoding="UTF-8" standalone="no"?>
<!DOCTYPE svg PUBLIC "-//W3C//DTD SVG 1.1//EN" "http://www.w3.org/Graphics/SVG/1.1/DTD/svg11.dtd">
<svg width="100%" height="100%" viewBox="0 0 1280 720" version="1.1" xmlns="http://www.w3.org/2000/svg" xmlns:xlink="http://www.w3.org/1999/xlink" xml:space="preserve" xmlns:serif="http://www.serif.com/" style="fill-rule:evenodd;clip-rule:evenodd;stroke-linejoin:round;stroke-miterlimit:2;">
    <g transform="matrix(0.917689,0,0,0.917689,465.176,-113.947)">
        <path d="M-454.594,476.043L-447.702,476.043L-447.702,391.403L-446.317,391.403C-440.779,408.478 -424.396,425.984 -396.475,425.984C-361.631,425.984 -339.049,399.941 -339.049,363.021C-339.049,325.871 -361.631,300.059 -396.936,300.059C-425.088,300.059 -441.241,317.795 -446.548,334.64L-447.933,334.64L-447.933,303.058L-454.594,303.058L-454.594,476.043ZM-397.167,419.554C-428.319,419.554 -447.933,395.332 -447.933,363.036C-447.933,331.64 -429.242,306.489 -397.167,306.489C-366.246,306.489 -346.171,329.333 -346.171,363.021C-346.171,396.486 -366.246,419.554 -397.167,419.554Z" style="fill:rgb(238,238,238);fill-rule:nonzero;"/>
        <path d="M-300.265,476.043L-293.373,476.043L-293.373,391.403L-291.988,391.403C-286.45,408.478 -270.067,425.984 -242.146,425.984C-207.302,425.984 -184.72,399.941 -184.72,363.021C-184.72,325.871 -207.302,300.059 -242.607,300.059C-270.759,300.059 -286.912,317.795 -292.219,334.64L-293.604,334.64L-293.604,303.058L-300.265,303.058L-300.265,476.043ZM-242.838,419.554C-273.99,419.554 -293.604,395.332 -293.604,363.036C-293.604,331.64 -274.913,306.489 -242.838,306.489C-211.917,306.489 -191.842,329.333 -191.842,363.021C-191.842,396.486 -211.917,419.554 -242.838,419.554Z" style="fill:rgb(238,238,238);fill-rule:nonzero;"/>
        <path d="M-145.936,422.986L-139.044,422.986L-139.044,353.78C-139.044,331.173 -125.895,309.949 -100.981,309.949L-93.368,309.949L-93.368,303.058L-100.981,303.058C-121.051,303.058 -133.277,316.178 -137.66,329.558L-139.044,329.558L-139.044,303.058L-145.936,303.058L-145.936,422.986Z" style="fill:rgb(238,238,238);fill-rule:nonzero;"/>
        <path d="M-56.891,422.986L-49.999,422.986L-49.999,347.782C-49.999,326.328 -35.461,306.72 -11.46,306.72C12.54,306.72 26.617,323.099 26.617,343.86L26.617,422.986L33.509,422.986L33.509,348.013C33.509,325.405 48.278,306.72 72.048,306.72C95.818,306.72 109.664,323.099 109.664,344.783L109.664,422.986L116.556,422.986L116.556,343.168C116.556,318.946 100.203,300.059 72.971,300.059C52.663,300.059 38.355,311.795 32.59,328.404L31.212,328.404C26.387,311.795 12.079,300.059 -9.845,300.059C-29.922,300.059 -43.307,311.795 -48.615,325.867L-49.999,325.867L-49.999,303.058L-56.891,303.058L-56.891,422.986Z" style="fill:rgb(238,238,238);fill-rule:nonzero;"/>
        <path d="M169.167,273.27C173.772,273.27 176.995,270.047 176.995,265.672C176.995,261.528 173.772,258.074 169.167,258.074C164.792,258.074 161.568,261.528 161.568,265.672C161.568,270.047 164.792,273.27 169.167,273.27ZM165.49,422.986L172.382,422.986L172.382,303.058L165.49,303.058L165.49,422.986Z" style="fill:rgb(238,238,238);fill-rule:nonzero;"/>
        <path d="M221.547,422.986L228.438,422.986L228.438,348.013C228.438,326.098 245.054,306.72 269.515,306.72C293.515,306.72 309.438,323.329 309.438,344.552L309.438,422.986L316.33,422.986L316.33,344.322C316.33,319.638 298.822,300.059 270.9,300.059C250.592,300.059 235.361,312.256 229.823,326.098L228.438,326.098L228.438,303.058L221.547,303.058L221.547,422.986Z" style="fill:rgb(238,238,238);fill-rule:nonzero;"/>
        <path d="M411.603,422.986L420.6,422.986L420.6,416.786L412.064,416.786C394.071,416.786 383.921,405.941 383.921,387.019L383.921,309.257L421.061,309.257L421.061,303.058L383.921,303.058L383.921,268.224L377.259,268.224L377.259,299.136C377.259,301.674 375.645,303.058 373.569,303.058L353.96,303.058L353.96,309.257L377.029,309.257L377.029,387.25C377.029,410.556 390.38,422.986 411.603,422.986Z" style="fill:rgb(238,238,238);fill-rule:nonzero;"/>
        <path d="M469.058,425.984C477.816,425.984 484.269,419.532 484.269,411.004C484.269,402.477 477.816,395.793 469.058,395.793C460.761,395.793 453.617,402.477 453.617,411.004C453.617,419.532 460.761,425.984 469.058,425.984Z" style="fill:rgb(0,204,102);fill-rule:nonzero;"/>
        <path d="M569.405,425.984C593.406,425.984 605.175,410.548 608.406,405.941L609.791,405.941L609.791,422.986L633.523,422.986L633.523,302.366L609.329,302.366L609.329,319.871L607.714,319.871C603.79,313.652 591.329,299.367 568.251,299.367C534.56,299.367 510.827,325.637 510.827,363.022C510.827,400.406 534.79,425.984 569.405,425.984ZM572.867,404.098C550.712,404.098 535.481,387.944 535.481,362.791C535.481,338.56 550.712,321.484 572.636,321.484C593.867,321.484 610.022,336.714 610.022,362.791C610.022,385.637 595.944,404.098 572.867,404.098Z" style="fill:rgb(238,238,238);fill-rule:nonzero;"/>
        <path d="M668.385,422.986L692.578,422.986L692.578,363.469C692.578,341.092 704.343,325.636 724.874,325.636L736.178,325.636L736.178,302.135L725.567,302.135C708.496,302.135 696.961,313.655 693.271,323.332L691.657,323.332L691.657,302.365L668.385,302.365L668.385,422.986Z" style="fill:rgb(238,238,238);fill-rule:nonzero;"/>
        <path d="M814.381,422.986L834.45,422.986L834.45,402.483L818.072,402.483C805.384,402.483 800.539,395.56 800.539,384.022L800.539,322.176L835.604,322.176L835.604,302.366L800.539,302.366L800.539,268.224L777.729,268.224L777.729,294.753C777.729,299.597 774.731,302.596 770.579,302.596L754.662,302.596L754.662,322.176L776.346,322.176L776.346,384.714C776.346,409.855 790.632,422.986 814.381,422.986Z" style="fill:rgb(238,238,238);fill-rule:nonzero;"/>
        <g transform="matrix(1.2154,0,0,1.2154,-657.716,107.551)">
            <path d="M1209.42,115.533L1204.11,132.196L1228.67,148.861L1201.96,135.925L1190.18,148.858L1195.5,132.195L1170.94,115.53L1197.65,128.466L1209.42,115.533Z" style="fill:rgb(0,204,102);"/>
        </g>
    </g>
    <g>
        <g>
            <g transform="matrix(1.02041,0,0,1,-14.5918,0)">
                <path d="M616,453.096L624.036,444L641,453.096L627,457.5L616,453.096Z" style="fill:rgb(187,187,187);"/>
            </g>
            <g transform="matrix(0.541103,-0.129459,0.129459,0.541103,497.105,258.891)">
                <path d="M107.111,425.984C131.112,425.984 142.882,410.549 146.113,405.941L147.496,405.941L147.496,422.986L171.228,422.986L171.228,250L147.035,250L147.035,319.871L145.42,319.871C141.497,313.651 129.035,299.367 105.957,299.367C72.265,299.367 48.532,325.636 48.532,363.007C48.532,400.406 72.495,425.984 107.111,425.984ZM110.573,404.098C88.418,404.098 73.187,387.944 73.187,362.791C73.187,338.56 88.418,321.484 110.342,321.484C131.574,321.484 147.726,336.714 147.726,362.791C147.726,385.637 133.651,404.098 110.573,404.098Z" style="fill:rgb(238,238,238);fill-rule:nonzero;"/>
            </g>
            <g transform="matrix(1.59184,0,0,1.56,-387.082,-253.26)">
                <path d="M634,453.096L643,447L659,453.096L646,457.5L634,453.096Z" style="fill:rgb(153,153,153);"/>
            </g>
            <g transform="matrix(0.527518,0.176853,-0.176853,0.527518,606.657,204.003)">
                <path d="M258.212,425.984C287.983,425.984 309.418,409.859 315.639,386.55L292.137,386.55C287.29,398.325 274.136,405.713 258.904,405.713C236.749,405.713 222.672,391.399 221.749,370.389L316.791,370.389L316.791,361.406C316.791,327.027 295.363,299.367 257.75,299.367C223.364,299.367 197.555,324.718 197.555,363.019C197.555,399.248 221.979,425.984 258.212,425.984ZM222.21,351.732C224.056,332.799 239.288,319.638 257.75,319.638C276.444,319.638 291.214,331.414 292.829,351.732L222.21,351.732Z" style="fill:rgb(238,238,238);fill-rule:nonzero;"/>
            </g>
            <g transform="matrix(1.55102,0,0,1.26667,-342.184,-120.806)">
                <path d="M652,453.096L660.333,448.548L677,453.096L662.833,457.5L652,453.096Z" style="fill:rgb(153,153,153);"/>
            </g>
            <g transform="matrix(1.26531,0,0,1.47619,-141.612,-215.726)">
                <path d="M652,453.096L672.238,448.548L677,453.096L665.095,457.5L652,453.096Z" style="fill:rgb(187,187,187);"/>
            </g>
            <g transform="matrix(1.02041,0,0,1,-14.5918,0)">
                <path d="M568,453.096L579,443L596,453.096L581,457.5L568,453.096Z" style="fill:rgb(187,187,187);"/>
            </g>
        </g>
        <g transform="matrix(-1.12511,-1.37787e-16,1.1862e-16,-0.968602,1648.66,1104)">
            <path d="M976.525,654.964C976.902,659.319 975.675,663.656 973.147,666.902C970.62,670.148 967.028,672 963.26,672C932.279,672 860.721,672 829.74,672C825.972,672 822.38,670.148 819.853,666.902C817.325,663.656 816.098,659.319 816.475,654.964C820.202,611.919 829.943,499.415 833.362,459.936C834.047,452.024 839.78,446 846.627,446C870.317,446 922.683,446 946.373,446C953.22,446 958.953,452.024 959.638,459.936C963.057,499.415 972.798,611.919 976.525,654.964Z" style="fill:url(#_Linear1);"/>
            <clipPath id="_clip2">
                <path d="M976.525,654.964C976.902,659.319 975.675,663.656 973.147,666.902C970.62,670.148 967.028,672 963.26,672C932.279,672 860.721,672 829.74,672C825.972,672 822.38,670.148 819.853,666.902C817.325,663.656 816.098,659.319 816.475,654.964C820.202,611.919 829.943,499.415 833.362,459.936C834.047,452.024 839.78,446 846.627,446C870.317,446 922.683,446 946.373,446C953.22,446 958.953,452.024 959.638,459.936C963.057,499.415 972.798,611.919 976.525,654.964Z"/>
            </clipPath>
            <g clip-path="url(#_clip2)">
                <g transform="matrix(-0.987724,1.40507e-16,-1.20961e-16,-1.14733,1528.64,1221.68)">
                    <path d="M640,535.701C618.136,535.701 600.385,553.452 600.385,575.316C600.385,597.18 618.136,614.931 640,614.931C661.864,614.931 679.615,597.18 679.615,575.316C679.615,553.452 661.864,535.701 640,535.701ZM640,539.301C659.877,539.301 676.015,555.439 676.015,575.316C676.015,595.193 659.877,611.331 640,611.331C620.123,611.331 603.985,595.193 603.985,575.316C603.985,555.439 620.123,539.301 640,539.301Z" style="fill:rgb(238,238,238);"/>
                </g>
                <g transform="matrix(-0.888799,1.26434e-16,-1.08846e-16,-1.03242,1465.33,1139.78)">
                    <path d="M637.84,558.024L619.478,558.024C618.919,558.024 618.385,558.258 618.006,558.67C617.628,559.081 617.439,559.632 617.485,560.19L619.56,585.132C619.646,586.169 620.513,586.966 621.553,586.966L635.765,586.966C636.805,586.966 637.672,586.169 637.758,585.132L639.833,560.19C639.879,559.632 639.69,559.081 639.311,558.67C638.933,558.258 638.399,558.024 637.84,558.024ZM634.283,578.652L630.659,578.652L630.659,582.966L633.924,582.966L634.283,578.652ZM626.659,582.966L626.659,578.652L623.035,578.652L623.394,582.966L626.659,582.966ZM634.975,570.338L630.659,570.338L630.659,574.652L634.616,574.652L634.975,570.338ZM626.659,574.652L626.659,570.338L622.343,570.338L622.702,574.652L626.659,574.652ZM635.666,562.024L630.659,562.024L630.659,566.338L635.308,566.338L635.666,562.024ZM621.651,562.024L622.01,566.338L626.659,566.338L626.659,562.024L621.651,562.024Z" style="fill:rgb(238,238,238);"/>
                </g>
                <g transform="matrix(-0.858514,-0.267209,0.230038,-0.997237,1319.64,1288.67)">
                    <path d="M630.546,552.852L626,552L626,557L629.132,555.302L633.254,555.233L633.444,552.076L630.546,552.852Z" style="fill:rgb(238,238,238);"/>
                </g>
                <g transform="matrix(-0.888799,1.26434e-16,-1.08846e-16,-1.03242,1465.33,1139.78)">
                    <path d="M630.279,546.298C629.237,546.298 628.37,547.098 628.286,548.137C628.202,549.176 629.053,550.272 629.957,550.272C635.442,550.272 639.773,551.169 642.332,551.874C643.726,552.325 645.129,553.282 645.411,554.719C646.111,558.288 647.002,564.278 646.714,567.904C646.181,574.624 645.373,584.808 645.373,584.808C645.291,585.847 646.02,586.775 647.049,586.941C648.078,587.106 649.062,586.454 649.31,585.442L654.07,566C654.07,566 654.198,566 654.198,566C654.198,566 656.2,585.174 656.2,585.174C656.308,586.2 657.178,586.977 658.211,586.966C659.243,586.955 660.097,586.161 660.183,585.132C660.183,585.132 661.34,571.231 661.843,565.194C662.011,563.17 661.865,561.131 661.409,559.152C660.837,556.67 660.903,546.298 654.114,546.298L630.279,546.298ZM648.939,533C651.732,533 654,535.268 654,538.061C654,540.854 651.732,543.121 648.939,543.121C646.146,543.121 643.879,540.854 643.879,538.061C643.879,535.268 646.146,533 648.939,533Z" style="fill:rgb(238,238,238);"/>
                </g>
            </g>
        </g>
        <g>
            <g transform="matrix(1.02041,0,0,1,-14.5918,0)">
                <path d="M652,453.096L667,446L677,453.096L678,469L652,453.096Z" style="fill:rgb(187,187,187);"/>
            </g>
            <g transform="matrix(1.31195,0,0,1.28571,-190.685,-129.578)">
                <path d="M590,453.096L608,448.048L618,453.096L603,459L590,453.096Z" style="fill:rgb(153,153,153);"/>
            </g>
        </g>
    </g>
    <g>
        <path d="M754,575.829C754,579.867 752.903,583.829 750.825,587.291C750.825,587.292 750.824,587.293 750.824,587.294C749.544,589.427 747.887,591.309 745.935,592.851C744.192,594.185 743,596.987 743,599L743,667C743,669.76 745.24,672 748,672L776,672C778.76,672 781,669.76 781,667L781,599C781,596.987 779.808,594.186 778.091,592.818C776.143,591.278 774.49,589.399 773.213,587.27C773.175,587.292 773.175,587.292 773.175,587.291C771.097,583.829 770,579.867 770,575.829L770,560L754,560L754,575.829Z" style="fill:rgb(20,88,54);"/>
        <g transform="matrix(1,0,0,1,0,5)">
            <path d="M781,614L753,614L750,616L746.108,615L743,616L743,635L764.474,635L771,632L774,633L778,632L781,627L781,614Z" style="fill:rgb(187,187,187);"/>
            <clipPath id="_clip3">
                <path d="M781,614L753,614L750,616L746.108,615L743,616L743,635L764.474,635L771,632L774,633L778,632L781,627L781,614Z"/>
            </clipPath>
            <g clip-path="url(#_clip3)">
                <g transform="matrix(1,0,0,1,0,-5)">
                    <path d="M755.481,637.943C755.97,637.908 756.437,637.574 756.474,636.903L755.526,636.971L755.506,637.153L756.224,637.101C756.171,637.461 755.862,637.723 755.5,637.749C755.136,637.775 754.899,637.558 754.875,637.222C754.839,636.733 755.19,636.311 755.658,636.277C755.957,636.256 756.153,636.394 756.22,636.621L756.448,636.604C756.37,636.274 756.085,636.053 755.68,636.083C755.06,636.127 754.618,636.665 754.662,637.268C754.693,637.695 755.018,637.977 755.481,637.943ZM757.283,637.813C757.607,637.79 757.863,637.601 757.938,637.344L757.729,637.359C757.654,637.524 757.478,637.621 757.306,637.634C757.033,637.653 756.898,637.487 756.907,637.217L757.974,637.14L757.983,637.05C758.03,636.655 757.818,636.386 757.414,636.415C756.948,636.449 756.662,636.848 756.695,637.304C756.718,637.62 756.926,637.839 757.283,637.813ZM758.775,637.672L758.975,637.658L758.995,637.481L758.813,637.494C758.659,637.505 758.617,637.422 758.632,637.281L758.718,636.524L759.122,636.495L759.141,636.323L758.736,636.352L758.779,635.965L758.592,635.979L758.555,636.284C758.549,636.335 758.518,636.368 758.465,636.372L758.287,636.385L758.269,636.556L758.518,636.538L758.432,637.298C758.402,637.577 758.542,637.689 758.775,637.672ZM760.313,637.561L760.571,637.542L761.03,636.435L761.045,636.434L761.262,637.492L761.52,637.473L762.08,636.11L761.862,636.126L761.417,637.252L761.402,637.253L761.179,636.176L760.946,636.192L760.473,637.321L760.458,637.322L760.263,636.242L760.051,636.257L760.313,637.561ZM763.481,637.06L763.598,636.001L763.403,636.015L763.381,636.23L763.365,636.231C763.333,636.164 763.204,635.996 762.93,636.016C762.505,636.047 762.173,636.449 762.207,636.918C762.23,637.239 762.453,637.439 762.787,637.415C763.096,637.392 763.234,637.187 763.273,637.133L763.291,637.132L763.289,637.147C763.279,637.257 763.349,637.341 763.488,637.331L763.61,637.322L763.631,637.153L763.565,637.158C763.504,637.162 763.474,637.126 763.481,637.06ZM764.389,637.299C764.782,637.271 764.959,637.059 764.939,636.78C764.908,636.343 764.233,636.59 764.214,636.324C764.205,636.195 764.329,636.087 764.507,636.074C764.681,636.062 764.766,636.14 764.77,636.264L764.962,636.25C764.967,636.011 764.783,635.882 764.532,635.9C764.196,635.924 764.001,636.121 764.019,636.366C764.05,636.789 764.721,636.534 764.742,636.825C764.754,636.998 764.615,637.107 764.407,637.122C764.227,637.135 764.113,637.067 764.109,636.902L763.914,636.916C763.909,637.164 764.078,637.321 764.389,637.299ZM762.822,637.232C762.584,637.249 762.429,637.11 762.412,636.875C762.387,636.528 762.622,636.221 762.931,636.199C763.156,636.182 763.323,636.31 763.341,636.556C763.366,636.903 763.154,637.208 762.822,637.232ZM765.795,637.164L765.995,637.15L766.015,636.973L765.833,636.986C765.679,636.997 765.637,636.914 765.652,636.773L765.737,636.016L766.142,635.987L766.161,635.815L765.756,635.844L765.799,635.457L765.612,635.471L765.575,635.776C765.569,635.827 765.538,635.86 765.485,635.864L765.307,635.877L765.289,636.048L765.537,636.03L765.452,636.79C765.422,637.069 765.562,637.181 765.795,637.164ZM766.925,637.115C767.249,637.092 767.505,636.903 767.58,636.646L767.37,636.661C767.296,636.827 767.12,636.924 766.948,636.936C766.674,636.956 766.54,636.79 766.548,636.519L767.616,636.442L767.624,636.353C767.672,635.957 767.46,635.688 767.055,635.717C766.589,635.751 766.303,636.151 766.336,636.606C766.359,636.923 766.568,637.141 766.925,637.115ZM756.932,637.037C756.974,636.78 757.184,636.614 757.404,636.599C757.622,636.583 757.786,636.711 757.785,636.976L756.932,637.037ZM768.458,637.005C768.767,636.982 768.9,636.782 768.939,636.728L768.957,636.727L768.956,636.742C768.946,636.852 769.018,636.931 769.159,636.921L769.286,636.912L769.306,636.737L769.241,636.742C769.18,636.747 769.149,636.711 769.157,636.644L769.341,635L769.141,635.014L769.052,635.819L769.037,635.82C769.004,635.754 768.875,635.586 768.601,635.606C768.176,635.636 767.845,636.052 767.878,636.507C767.902,636.829 768.124,637.029 768.458,637.005ZM768.493,636.822C768.256,636.839 768.1,636.7 768.083,636.465C768.058,636.118 768.293,635.811 768.602,635.788C768.827,635.772 768.994,635.9 769.012,636.145C769.037,636.492 768.825,636.798 768.493,636.822ZM766.574,636.34C766.616,636.082 766.825,635.917 767.046,635.901C767.263,635.885 767.428,636.013 767.427,636.278L766.574,636.34ZM752.922,627.142C753.052,625.889 752.174,625 750.98,625.086L748.342,625.277L747.347,635L750.203,634.793C751.578,634.694 752.479,633.427 752.592,632.314L752.623,631.981C752.736,630.868 752.033,629.925 751.061,629.843L750.84,629.832L750.86,629.734L751.077,629.677C751.947,629.504 752.758,628.686 752.888,627.434L752.922,627.142ZM753.526,631.654C753.342,633.489 754.294,634.635 755.928,634.517C757.563,634.399 758.754,633.112 758.938,631.262L759.35,627.242C759.527,625.49 758.579,624.399 756.959,624.516C755.337,624.633 754.116,625.881 753.94,627.634L753.526,631.654ZM750.774,632.736C750.655,633.974 750.478,634.387 749.915,634.428L749.174,634.481L749.626,630.057L750.23,630.014C750.767,629.975 751.02,630.412 750.889,631.664L750.774,632.736ZM755.84,626.433C755.936,625.473 756.313,624.949 756.918,624.905C757.523,624.861 757.763,625.327 757.668,626.301L757.032,632.601C756.937,633.574 756.573,634.084 755.982,634.127C755.379,634.17 755.096,633.694 755.192,632.734L755.84,626.433ZM760.065,631.18C759.88,633.016 760.833,634.162 762.467,634.044C764.102,633.926 765.293,632.638 765.477,630.789L765.889,626.769C766.066,625.016 765.118,623.925 763.498,624.043C761.876,624.16 760.655,625.408 760.479,627.16L760.065,631.18ZM769.799,624.111L765.534,633.298L765.493,633.687L770.892,633.296L770.933,632.907L767.416,633.161L771.667,623.976L771.708,623.587L767.01,623.927L766.969,624.316L769.799,624.111ZM762.378,625.96C762.475,625 762.852,624.476 763.457,624.432C764.062,624.388 764.302,624.854 764.207,625.828L763.571,632.128C763.476,633.101 763.112,633.611 762.521,633.654C761.917,633.697 761.635,633.221 761.731,632.261L762.378,625.96ZM772.836,623.505L771.827,633.229L775.644,632.953L775.685,632.563L773.667,632.709L774.109,628.327L775.852,628.201L775.893,627.813L774.15,627.939L774.579,623.766L776.612,623.619L776.653,623.229L772.836,623.505ZM749.667,629.669L750.086,625.538L750.691,625.494C751.254,625.453 751.282,625.838 751.152,627.09L751.072,627.897C750.942,629.149 750.808,629.587 750.271,629.626L749.667,629.669Z" style="fill:rgb(34,34,34);fill-rule:nonzero;"/>
                </g>
            </g>
        </g>
        <g transform="matrix(1,0,0,1,-1.30029e-11,1)">
            <path d="M771,557C771,555.896 770.104,555 769,555L755,555C753.896,555 753,555.896 753,557L753,561C753,562.104 753.896,563 755,563L769,563C770.104,563 771,562.104 771,561L771,557Z" style="fill:rgb(26,114,70);"/>
        </g>
    </g>
    <defs>
        <linearGradient id="_Linear1" x1="0" y1="0" x2="1" y2="0" gradientUnits="userSpaceOnUse" gradientTransform="matrix(-3.57404e-14,-226,194.562,-4.15155e-14,892.285,672)"><stop offset="0" style="stop-color:rgb(5,158,81);stop-opacity:1"/><stop offset="1" style="stop-color:rgb(5,158,81);stop-opacity:1"/></linearGradient>
    </defs>
</svg>
