<svg viewBox="0 0 1280 720" xmlns="http://www.w3.org/2000/svg" xml:space="preserve" style="fill-rule:evenodd;clip-rule:evenodd;stroke-linejoin:round;stroke-miterlimit:2"><path d="M-454.594 476.043h6.892v-84.64h1.385c5.538 17.075 21.921 34.581 49.842 34.581 34.844 0 57.426-26.043 57.426-62.963 0-37.15-22.582-62.962-57.887-62.962-28.152 0-44.305 17.736-49.612 34.581h-1.385v-31.582h-6.661v172.985Zm57.427-56.489c-31.152 0-50.766-24.222-50.766-56.518 0-31.396 18.691-56.547 50.766-56.547 30.921 0 50.996 22.844 50.996 56.532 0 33.465-20.075 56.533-50.996 56.533Zm96.902 56.489h6.892v-84.64h1.385c5.538 17.075 21.921 34.581 49.842 34.581 34.844 0 57.426-26.043 57.426-62.963 0-37.15-22.582-62.962-57.887-62.962-28.152 0-44.305 17.736-49.612 34.581h-1.385v-31.582h-6.661v172.985Zm57.427-56.489c-31.152 0-50.766-24.222-50.766-56.518 0-31.396 18.691-56.547 50.766-56.547 30.921 0 50.996 22.844 50.996 56.532 0 33.465-20.075 56.533-50.996 56.533Zm96.902 3.432h6.892V353.78c0-22.607 13.149-43.831 38.063-43.831h7.613v-6.891h-7.613c-20.07 0-32.296 13.12-36.679 26.5h-1.384v-26.5h-6.892v119.928Zm89.045 0h6.892v-75.204c0-21.454 14.538-41.062 38.539-41.062 24 0 38.077 16.379 38.077 37.14v79.126h6.892v-74.973c0-22.608 14.769-41.293 38.539-41.293 23.77 0 37.616 16.379 37.616 38.063v78.203h6.892v-79.818c0-24.222-16.353-43.109-43.585-43.109-20.308 0-34.616 11.736-40.381 28.345h-1.378c-4.825-16.609-19.133-28.345-41.057-28.345-20.077 0-33.462 11.736-38.77 25.808h-1.384v-22.809h-6.892v119.928ZM169.167 273.27c4.605 0 7.828-3.223 7.828-7.598 0-4.144-3.223-7.598-7.828-7.598-4.375 0-7.599 3.454-7.599 7.598 0 4.375 3.224 7.598 7.599 7.598Zm-3.677 149.716h6.892V303.058h-6.892v119.928Zm56.057 0h6.891v-74.973c0-21.915 16.616-41.293 41.077-41.293 24 0 39.923 16.609 39.923 37.832v78.434h6.892v-78.664c0-24.684-17.508-44.263-45.43-44.263-20.308 0-35.539 12.197-41.077 26.039h-1.385v-23.04h-6.891v119.928Zm190.056 0h8.997v-6.2h-8.536c-17.993 0-28.143-10.845-28.143-29.767v-77.762h37.14v-6.199h-37.14v-34.834h-6.662v30.912c0 2.538-1.614 3.922-3.69 3.922H353.96v6.199h23.069v77.993c0 23.306 13.351 35.736 34.574 35.736Z" style="fill:#eee;fill-rule:nonzero" transform="translate(465.176 -113.947) scale(.91769)"/><path d="M469.058 425.984c8.758 0 15.211-6.452 15.211-14.98 0-8.527-6.453-15.211-15.211-15.211-8.297 0-15.441 6.684-15.441 15.211 0 8.528 7.144 14.98 15.441 14.98Z" style="fill:#0c6;fill-rule:nonzero" transform="translate(465.176 -113.947) scale(.91769)"/><path d="M569.405 425.984c24.001 0 35.77-15.436 39.001-20.043h1.385v17.045h23.732v-120.62h-24.194v17.505h-1.615c-3.924-6.219-16.385-20.504-39.463-20.504-33.691 0-57.424 26.27-57.424 63.655 0 37.384 23.963 62.962 58.578 62.962Zm3.462-21.886c-22.155 0-37.386-16.154-37.386-41.307 0-24.231 15.231-41.307 37.155-41.307 21.231 0 37.386 15.23 37.386 41.307 0 22.846-14.078 41.307-37.155 41.307Zm95.518 18.888h24.193v-59.517c0-22.377 11.765-37.833 32.296-37.833h11.304v-23.501h-10.611c-17.071 0-28.606 11.52-32.296 21.197h-1.614v-20.967h-23.272v120.621Zm145.996 0h20.069v-20.503h-16.378c-12.688 0-17.533-6.923-17.533-18.461v-61.846h35.065v-19.81h-35.065v-34.142h-22.81v26.529c0 4.844-2.998 7.843-7.15 7.843h-15.917v19.58h21.684v62.538c0 25.141 14.286 38.272 38.035 38.272Z" style="fill:#eee;fill-rule:nonzero" transform="translate(465.176 -113.947) scale(.91769)"/><path d="m1209.42 115.533-5.31 16.663 24.56 16.665-26.71-12.936-11.78 12.933 5.32-16.663-24.56-16.665 26.71 12.936 11.77-12.933Z" style="fill:#0c6" transform="translate(-138.403 -15.249) scale(1.11536)"/><path d="m616 453.096 8.036-9.096L641 453.096l-14 4.404-11-4.404Z" style="fill:#bbb" transform="matrix(1.02041 0 0 1 -14.592 0)"/><path d="M107.111 425.984c24.001 0 35.771-15.435 39.002-20.043h1.383v17.045h23.732V250h-24.193v69.871h-1.615c-3.923-6.22-16.385-20.504-39.463-20.504-33.692 0-57.425 26.269-57.425 63.64 0 37.399 23.963 62.977 58.579 62.977Zm3.462-21.886c-22.155 0-37.386-16.154-37.386-41.307 0-24.231 15.231-41.307 37.155-41.307 21.232 0 37.384 15.23 37.384 41.307 0 22.846-14.075 41.307-37.153 41.307Z" style="fill:#eee;fill-rule:nonzero" transform="rotate(-13.455 1345.879 -1977.62) scale(.55637)"/><path d="m634 453.096 9-6.096 16 6.096-13 4.404-12-4.404Z" style="fill:#999" transform="matrix(1.59184 0 0 1.56 -387.082 -253.26)"/><path d="M258.212 425.984c29.771 0 51.206-16.125 57.427-39.434h-23.502c-4.847 11.775-18.001 19.163-33.233 19.163-22.155 0-36.232-14.314-37.155-35.324h95.042v-8.983c0-34.379-21.428-62.039-59.041-62.039-34.386 0-60.195 25.351-60.195 63.652 0 36.229 24.424 62.965 60.657 62.965Zm-36.002-74.252c1.846-18.933 17.078-32.094 35.54-32.094 18.694 0 33.464 11.776 35.079 32.094H222.21Z" style="fill:#eee;fill-rule:nonzero" transform="matrix(.52752 .17685 -.17685 .52752 606.657 204.003)"/><path d="m652 453.096 8.333-4.548L677 453.096l-14.167 4.404L652 453.096Z" style="fill:#999" transform="matrix(1.55102 0 0 1.26667 -342.184 -120.806)"/><path d="m652 453.096 20.238-4.548 4.762 4.548-11.905 4.404L652 453.096Z" style="fill:#bbb" transform="matrix(1.26531 0 0 1.47619 -141.612 -215.726)"/><path d="M568 453.096 579 443l17 10.096-15 4.404-13-4.404Z" style="fill:#bbb" transform="matrix(1.02041 0 0 1 -14.592 0)"/><g transform="matrix(-1.12511 0 0 -.9686 1648.66 1104)"><path d="M976.525 654.964c.377 4.355-.85 8.692-3.378 11.938-2.527 3.246-6.119 5.098-9.887 5.098H829.74c-3.768 0-7.36-1.852-9.887-5.098-2.528-3.246-3.755-7.583-3.378-11.938l16.887-195.028c.685-7.912 6.418-13.936 13.265-13.936h99.746c6.847 0 12.58 6.024 13.265 13.936l16.887 195.028Z" style="fill:url(#a)"/><clipPath id="b"><path d="M976.525 654.964c.377 4.355-.85 8.692-3.378 11.938-2.527 3.246-6.119 5.098-9.887 5.098H829.74c-3.768 0-7.36-1.852-9.887-5.098-2.528-3.246-3.755-7.583-3.378-11.938l16.887-195.028c.685-7.912 6.418-13.936 13.265-13.936h99.746c6.847 0 12.58 6.024 13.265 13.936l16.887 195.028Z"/></clipPath><g clip-path="url(#b)"><path d="M640 535.701c-21.864 0-39.615 17.751-39.615 39.615s17.751 39.615 39.615 39.615 39.615-17.751 39.615-39.615-17.751-39.615-39.615-39.615Zm0 3.6c19.877 0 36.015 16.138 36.015 36.015S659.877 611.331 640 611.331s-36.015-16.138-36.015-36.015 16.138-36.015 36.015-36.015Z" style="fill:#eee" transform="matrix(-.98772 0 0 -1.14733 1528.64 1221.68)"/><path d="M637.84 558.024h-18.362a2 2 0 0 0-1.993 2.166l2.075 24.942a2 2 0 0 0 1.993 1.834h14.212a2 2 0 0 0 1.993-1.834l2.075-24.942a1.999 1.999 0 0 0-1.993-2.166Zm-3.557 20.628h-3.624v4.314h3.265l.359-4.314Zm-7.624 4.314v-4.314h-3.624l.359 4.314h3.265Zm8.316-12.628h-4.316v4.314h3.957l.359-4.314Zm-8.316 4.314v-4.314h-4.316l.359 4.314h3.957Zm9.007-12.628h-5.007v4.314h4.649l.358-4.314Zm-14.015 0 .359 4.314h4.649v-4.314h-5.008Z" style="fill:#eee" transform="matrix(-.8888 0 0 -1.03242 1465.33 1139.78)"/><path d="M630.546 552.852 626 552v5l3.132-1.698 4.122-.069.19-3.157-2.898.776Z" style="fill:#eee" transform="matrix(-.85851 -.2672 .23004 -.99724 1319.64 1288.67)"/><path d="M630.279 546.298a2 2 0 0 0-1.993 1.839c-.084 1.039.767 2.135 1.671 2.135 5.485 0 9.816.897 12.375 1.602 1.394.451 2.797 1.408 3.079 2.845.7 3.569 1.591 9.559 1.303 13.185l-1.341 16.904a2 2 0 0 0 3.937.634L654.07 566h.128l2.002 19.174a2 2 0 0 0 3.983-.042l1.66-19.938a19.668 19.668 0 0 0-.434-6.042c-.572-2.482-.506-12.854-7.295-12.854h-23.835ZM648.939 533a5.064 5.064 0 0 1 5.061 5.061 5.063 5.063 0 0 1-5.061 5.06 5.062 5.062 0 0 1-5.06-5.06 5.063 5.063 0 0 1 5.06-5.061Z" style="fill:#eee" transform="matrix(-.8888 0 0 -1.03242 1465.33 1139.78)"/></g></g><path d="M652 453.096 667 446l10 7.096L678 469l-26-15.904Z" style="fill:#bbb" transform="matrix(1.02041 0 0 1 -14.592 0)"/><path d="m590 453.096 18-5.048 10 5.048L603 459l-13-5.904Z" style="fill:#999" transform="matrix(1.31195 0 0 1.28571 -190.685 -129.578)"/><path d="M754 575.829c0 4.038-1.097 8-3.175 11.462l-.001.003a20.573 20.573 0 0 1-4.889 5.557C744.192 594.185 743 596.987 743 599v68c0 2.76 2.24 5 5 5h28c2.76 0 5-2.24 5-5v-68c0-2.013-1.192-4.814-2.909-6.182a20.543 20.543 0 0 1-4.878-5.548l-.038.021A22.271 22.271 0 0 1 770 575.829V560h-16v15.829Z" style="fill:#145836"/><g transform="translate(0 5)"><path d="M781 614h-28l-3 2-3.892-1-3.108 1v19h21.474l6.526-3 3 1 4-1 3-5v-13Z" style="fill:#bbb"/><clipPath id="c"><path d="M781 614h-28l-3 2-3.892-1-3.108 1v19h21.474l6.526-3 3 1 4-1 3-5v-13Z"/></clipPath><g clip-path="url(#c)"><path d="M755.481 637.943c.489-.035.956-.369.993-1.04l-.948.068-.02.182.718-.052a.777.777 0 0 1-.724.648c-.364.026-.601-.191-.625-.527-.036-.489.315-.911.783-.945.299-.021.495.117.562.344l.228-.017c-.078-.33-.363-.551-.768-.521a1.1 1.1 0 0 0-1.018 1.185c.031.427.356.709.819.675Zm1.802-.13c.324-.023.58-.212.655-.469l-.209.015a.504.504 0 0 1-.423.275c-.273.019-.408-.147-.399-.417l1.067-.077.009-.09c.047-.395-.165-.664-.569-.635-.466.034-.752.433-.719.889.023.316.231.535.588.509Zm1.492-.141.2-.014.02-.177-.182.013c-.154.011-.196-.072-.181-.213l.086-.757.404-.029.019-.172-.405.029.043-.387-.187.014-.037.305c-.006.051-.037.084-.09.088l-.178.013-.018.171.249-.018-.086.76c-.03.279.11.391.343.374Zm1.538-.111.258-.019.459-1.107.015-.001.217 1.058.258-.019.56-1.363-.218.016-.445 1.126-.015.001-.223-1.077-.233.016-.473 1.129-.015.001-.195-1.08-.212.015.262 1.304Zm3.168-.501.117-1.059-.195.014-.022.215-.016.001c-.032-.067-.161-.235-.435-.215-.425.031-.757.433-.723.902.023.321.246.521.58.497.309-.023.447-.228.486-.282l.018-.001-.002.015c-.01.11.06.194.199.184l.122-.009.021-.169-.066.005c-.061.004-.091-.032-.084-.098Zm.908.239c.393-.028.57-.24.55-.519-.031-.437-.706-.19-.725-.456-.009-.129.115-.237.293-.25.174-.012.259.066.263.19l.192-.014c.005-.239-.179-.368-.43-.35-.336.024-.531.221-.513.466.031.423.702.168.723.459.012.173-.127.282-.335.297-.18.013-.294-.055-.298-.22l-.195.014c-.005.248.164.405.475.383Zm-1.567-.067c-.238.017-.393-.122-.41-.357-.025-.347.21-.654.519-.676.225-.017.392.111.41.357.025.347-.187.652-.519.676Zm2.973-.068.2-.014.02-.177-.182.013c-.154.011-.196-.072-.181-.213l.085-.757.405-.029.019-.172-.405.029.043-.387-.187.014-.037.305c-.006.051-.037.084-.09.088l-.178.013-.018.171.248-.018-.085.76c-.03.279.11.391.343.374Zm1.13-.049c.324-.023.58-.212.655-.469l-.21.015a.498.498 0 0 1-.422.275c-.274.02-.408-.146-.4-.417l1.068-.077.008-.089c.048-.396-.164-.665-.569-.636-.466.034-.752.434-.719.889.023.317.232.535.589.509Zm-9.993-.078a.518.518 0 0 1 .472-.438c.218-.016.382.112.381.377l-.853.061Zm11.526-.032c.309-.023.442-.223.481-.277l.018-.001-.001.015c-.01.11.062.189.203.179l.127-.009.02-.175-.065.005c-.061.005-.092-.031-.084-.098l.184-1.644-.2.014-.089.805-.015.001c-.033-.066-.162-.234-.436-.214-.425.03-.756.446-.723.901.024.322.246.522.58.498Zm.035-.183c-.237.017-.393-.122-.41-.357-.025-.347.21-.654.519-.677.225-.016.392.112.41.357.025.347-.187.653-.519.677Zm-1.919-.482a.519.519 0 0 1 .472-.439c.217-.016.382.112.381.377l-.853.062Zm-13.652-9.198c.13-1.253-.748-2.142-1.942-2.056l-2.638.191-.995 9.723 2.856-.207c1.375-.099 2.276-1.366 2.389-2.479l.031-.333c.113-1.113-.59-2.056-1.562-2.138l-.221-.011.02-.098.217-.057c.87-.173 1.681-.991 1.811-2.243l.034-.292Zm.604 4.512c-.184 1.835.768 2.981 2.402 2.863 1.635-.118 2.826-1.405 3.01-3.255l.412-4.02c.177-1.752-.771-2.843-2.391-2.726-1.622.117-2.843 1.365-3.019 3.118l-.414 4.02Zm-2.752 1.082c-.119 1.238-.296 1.651-.859 1.692l-.741.053.452-4.424.604-.043c.537-.039.79.398.659 1.65l-.115 1.072Zm5.066-6.303c.096-.96.473-1.484 1.078-1.528.605-.044.845.422.75 1.396l-.636 6.3c-.095.973-.459 1.483-1.05 1.526-.603.043-.886-.433-.79-1.393l.648-6.301Zm4.225 4.747c-.185 1.836.768 2.982 2.402 2.864 1.635-.118 2.826-1.406 3.01-3.255l.412-4.02c.177-1.753-.771-2.844-2.391-2.726-1.622.117-2.843 1.365-3.019 3.117l-.414 4.02Zm9.734-7.069-4.265 9.187-.041.389 5.399-.391.041-.389-3.517.254 4.251-9.185.041-.389-4.698.34-.041.389 2.83-.205Zm-7.421 1.849c.097-.96.474-1.484 1.079-1.528.605-.044.845.422.75 1.396l-.636 6.3c-.095.973-.459 1.483-1.05 1.526-.604.043-.886-.433-.79-1.393l.647-6.301Zm10.458-2.455-1.009 9.724 3.817-.276.041-.39-2.018.146.442-4.382 1.743-.126.041-.388-1.743.126.429-4.173 2.033-.147.041-.39-3.817.276Zm-23.169 6.164.419-4.131.605-.044c.563-.041.591.344.461 1.596l-.08.807c-.13 1.252-.264 1.69-.801 1.729l-.604.043Z" style="fill:#222;fill-rule:nonzero" transform="translate(0 -5)"/></g></g><path d="M771 557a2 2 0 0 0-2-2h-14a2 2 0 0 0-2 2v4a2 2 0 0 0 2 2h14a2 2 0 0 0 2-2v-4Z" style="fill:#1a7246" transform="translate(0 1)"/><defs><linearGradient id="a" x1="0" y1="0" x2="1" y2="0" gradientUnits="userSpaceOnUse" gradientTransform="matrix(0 -226 194.562 0 892.285 672)"><stop offset="0" style="stop-color:#059e51;stop-opacity:1"/><stop offset="1" style="stop-color:#059e51;stop-opacity:1"/></linearGradient></defs></svg>