<?xml version="1.0" encoding="UTF-8" standalone="no"?>
<!DOCTYPE svg PUBLIC "-//W3C//DTD SVG 1.1//EN" "http://www.w3.org/Graphics/SVG/1.1/DTD/svg11.dtd">
<svg width="100%" height="100%" viewBox="0 0 1920 235" version="1.1" xmlns="http://www.w3.org/2000/svg" xmlns:xlink="http://www.w3.org/1999/xlink" xml:space="preserve" xmlns:serif="http://www.serif.com/" style="fill-rule:evenodd;clip-rule:evenodd;stroke-linejoin:round;stroke-miterlimit:2;">
    <g transform="matrix(292.683,0,0,292.683,0,234.146)">
        <path d="M0,-0L0.48,-0L0.48,-0.16L0.32,-0.16L0.32,-0.704C0.32,-0.757 0.277,-0.8 0.224,-0.8L0,-0.8L0,-0.64L0.16,-0.64L0.16,-0.16L0,-0.16L0,-0Z" style="fill:rgb(235,235,235);fill-rule:nonzero;"/>
    </g>
    <g transform="matrix(292.683,0,0,292.683,187.317,234.146)">
        <path d="M0.32,-0.48L0.096,-0.48C0.043,-0.48 0,-0.437 0,-0.384L0,-0L0.48,-0L0.48,-0.16L0.16,-0.16L0.16,-0.32L0.384,-0.32C0.437,-0.32 0.48,-0.363 0.48,-0.416L0.48,-0.704C0.48,-0.729 0.47,-0.754 0.452,-0.772C0.434,-0.79 0.409,-0.8 0.384,-0.8L0,-0.8L0,-0.64L0.32,-0.64L0.32,-0.48Z" style="fill:rgb(235,235,235);fill-rule:nonzero;"/>
    </g>
    <g transform="matrix(292.683,0,0,292.683,374.634,234.146)">
        <path d="M0.16,-0.64L0,-0.64L0,-0.48L0.16,-0.48L0.16,-0.64ZM0.16,-0.32L0,-0.32L0,-0.16L0.16,-0.16L0.16,-0.32Z" style="fill:rgb(235,235,235);fill-rule:nonzero;"/>
    </g>
    <g transform="matrix(292.683,0,0,292.683,468.293,234.146)">
        <path d="M0.32,-0.16L0,-0.16L0,-0L0.384,-0C0.437,-0 0.48,-0.043 0.48,-0.096L0.48,-0.704C0.48,-0.757 0.437,-0.8 0.384,-0.8L0,-0.8L0,-0.64L0.32,-0.64L0.32,-0.48L0.08,-0.48L0.08,-0.32L0.32,-0.32L0.32,-0.16Z" style="fill:rgb(235,235,235);fill-rule:nonzero;"/>
    </g>
    <g transform="matrix(292.683,0,0,292.683,655.61,234.146)">
        <path d="M0.48,-0L0.48,-0.8L0.32,-0.8L0.32,-0.394L0.16,-0.394L0.16,-0.8L0,-0.8L0,-0.33C0,-0.277 0.043,-0.234 0.096,-0.234L0.32,-0.234L0.32,-0L0.48,-0Z" style="fill:rgb(235,235,235);fill-rule:nonzero;"/>
    </g>
    <g transform="matrix(292.683,0,0,292.683,842.927,234.146)">
        <path d="M0.16,-0.64L0,-0.64L0,-0.48L0.16,-0.48L0.16,-0.64ZM0.16,-0.32L0,-0.32L0,-0.16L0.16,-0.16L0.16,-0.32Z" style="fill:rgb(235,235,235);fill-rule:nonzero;"/>
    </g>
    <g transform="matrix(292.683,0,0,292.683,936.585,234.146)">
        <path d="M0.48,-0.096L0.48,-0.384C0.48,-0.437 0.437,-0.48 0.384,-0.48L0.16,-0.48L0.16,-0.64L0.48,-0.64L0.48,-0.8L0,-0.8L0,-0.416C0,-0.363 0.043,-0.32 0.096,-0.32L0.32,-0.32L0.32,-0.16L0,-0.16L0,-0L0.384,-0C0.436,-0 0.48,-0.044 0.48,-0.096Z" style="fill:rgb(235,235,235);fill-rule:nonzero;"/>
    </g>
    <g transform="matrix(292.683,0,0,292.683,1123.9,234.146)">
        <path d="M0.48,-0.096L0.48,-0.384C0.48,-0.437 0.437,-0.48 0.384,-0.48L0.16,-0.48L0.16,-0.64L0.48,-0.64L0.48,-0.704C0.48,-0.757 0.437,-0.8 0.384,-0.8L0.096,-0.8C0.043,-0.8 0,-0.757 0,-0.704L0,-0.096C0,-0.043 0.043,-0 0.096,-0L0.384,-0C0.436,-0 0.48,-0.044 0.48,-0.096ZM0.16,-0.32L0.32,-0.32L0.32,-0.16L0.16,-0.16L0.16,-0.32Z" style="fill:rgb(235,235,235);fill-rule:nonzero;"/>
    </g>
    <g transform="matrix(292.683,0,0,292.683,1311.22,234.146)">
        <rect x="0" y="-0.8" width="0.16" height="0.32" style="fill:rgb(230,56,70);fill-rule:nonzero;"/>
    </g>
    <g transform="matrix(292.683,0,0,292.683,1404.88,234.146)">
        <path d="M0.48,-0L0.48,-0.698C0.48,-0.755 0.435,-0.8 0.378,-0.8L0.096,-0.8C0.043,-0.8 0,-0.757 0,-0.704L0,-0.48L0.16,-0.48L0.16,-0.64L0.32,-0.64L0.32,-0L0.48,-0Z" style="fill:rgb(235,235,235);fill-rule:nonzero;"/>
    </g>
    <g transform="matrix(292.683,0,0,292.683,1592.2,234.146)">
        <path d="M0.16,-0.64L0.32,-0.64L0.32,-0.48L0.16,-0.48L0.16,-0.64ZM0.16,-0.16L0.16,-0.32L0.32,-0.32L0.32,-0.16L0.16,-0.16ZM0.48,-0.52L0.48,-0.704C0.48,-0.757 0.437,-0.8 0.384,-0.8L0.096,-0.8C0.043,-0.8 0,-0.757 0,-0.704L0,-0.52C0,-0.495 0.01,-0.47 0.028,-0.452L0.08,-0.4L0.028,-0.348C0.01,-0.33 0,-0.305 0,-0.28L0,-0.096C0,-0.043 0.043,-0 0.096,-0L0.384,-0C0.437,-0 0.48,-0.043 0.48,-0.096L0.48,-0.28C0.48,-0.305 0.47,-0.33 0.452,-0.348L0.4,-0.4L0.452,-0.452C0.47,-0.47 0.48,-0.495 0.48,-0.52Z" style="fill:rgb(235,235,235);fill-rule:nonzero;"/>
    </g>
    <g transform="matrix(292.683,0,0,292.683,1779.51,234.146)">
        <path d="M0,-0.704L0,-0.416C0,-0.363 0.043,-0.32 0.096,-0.32L0.32,-0.32L0.32,-0.16L0,-0.16L0,-0.096C0,-0.043 0.043,-0 0.096,-0L0.384,-0C0.437,-0 0.48,-0.043 0.48,-0.096L0.48,-0.704C0.48,-0.757 0.437,-0.8 0.384,-0.8L0.096,-0.8C0.044,-0.8 0,-0.756 0,-0.704ZM0.16,-0.48L0.16,-0.64L0.32,-0.64L0.32,-0.48L0.16,-0.48Z" style="fill:rgb(235,235,235);fill-rule:nonzero;"/>
    </g>
</svg>
